# Blender 4.4.3
# www.blender.org
o apartment_blueglass_midrise_frame
v -6.000000 0.000000 4.500000
v 6.000000 0.000000 4.500000
v 6.000000 0.000000 -4.500000
v -6.000000 0.000000 -4.500000
v -6.000000 0.200000 4.500000
v 6.000000 0.200000 4.500000
v 6.000000 0.200000 -4.500000
v -6.000000 0.200000 -4.500000
v -6.000000 0.100000 4.500000
v -5.820000 0.100000 4.500000
v -5.820000 0.100000 -4.500000
v -6.000000 0.100000 -4.500000
v -6.000000 0.460000 4.500000
v -5.820000 0.460000 4.500000
v -5.820000 0.460000 -4.500000
v -6.000000 0.460000 -4.500000
v 5.820000 0.100000 4.500000
v 6.000000 0.100000 4.500000
v 6.000000 0.100000 -4.500000
v 5.820000 0.100000 -4.500000
v 5.820000 0.460000 4.500000
v 6.000000 0.460000 4.500000
v 6.000000 0.460000 -4.500000
v 5.820000 0.460000 -4.500000
v -6.000000 0.100000 4.500000
v 6.000000 0.100000 4.500000
v 6.000000 0.100000 4.320000
v -6.000000 0.100000 4.320000
v -6.000000 0.460000 4.500000
v 6.000000 0.460000 4.500000
v 6.000000 0.460000 4.320000
v -6.000000 0.460000 4.320000
v -6.000000 0.100000 -4.320000
v 6.000000 0.100000 -4.320000
v 6.000000 0.100000 -4.500000
v -6.000000 0.100000 -4.500000
v -6.000000 0.460000 -4.320000
v 6.000000 0.460000 -4.320000
v 6.000000 0.460000 -4.500000
v -6.000000 0.460000 -4.500000
v -4.560000 0.110000 3.240000
v 4.560000 0.110000 3.240000
v 4.560000 0.110000 -3.240000
v -4.560000 0.110000 -3.240000
v -4.560000 0.330000 3.240000
v 4.560000 0.330000 3.240000
v 4.560000 0.330000 -3.240000
v -4.560000 0.330000 -3.240000
v -4.560000 2.860000 3.240000
v 4.560000 2.860000 3.240000
v 4.560000 2.860000 -3.240000
v -4.560000 2.860000 -3.240000
v -4.560000 3.080000 3.240000
v 4.560000 3.080000 3.240000
v 4.560000 3.080000 -3.240000
v -4.560000 3.080000 -3.240000
v -4.560000 5.610000 3.240000
v 4.560000 5.610000 3.240000
v 4.560000 5.610000 -3.240000
v -4.560000 5.610000 -3.240000
v -4.560000 5.830000 3.240000
v 4.560000 5.830000 3.240000
v 4.560000 5.830000 -3.240000
v -4.560000 5.830000 -3.240000
v -4.560000 8.360000 3.240000
v 4.560000 8.360000 3.240000
v 4.560000 8.360000 -3.240000
v -4.560000 8.360000 -3.240000
v -4.560000 8.580000 3.240000
v 4.560000 8.580000 3.240000
v 4.560000 8.580000 -3.240000
v -4.560000 8.580000 -3.240000
v -4.560000 11.110000 3.240000
v 4.560000 11.110000 3.240000
v 4.560000 11.110000 -3.240000
v -4.560000 11.110000 -3.240000
v -4.560000 11.330000 3.240000
v 4.560000 11.330000 3.240000
v 4.560000 11.330000 -3.240000
v -4.560000 11.330000 -3.240000
v -4.560000 13.860000 3.240000
v 4.560000 13.860000 3.240000
v 4.560000 13.860000 -3.240000
v -4.560000 13.860000 -3.240000
v -4.560000 14.080000 3.240000
v 4.560000 14.080000 3.240000
v 4.560000 14.080000 -3.240000
v -4.560000 14.080000 -3.240000
v -4.560000 16.610001 3.240000
v 4.560000 16.610001 3.240000
v 4.560000 16.610001 -3.240000
v -4.560000 16.610001 -3.240000
v -4.560000 16.830000 3.240000
v 4.560000 16.830000 3.240000
v 4.560000 16.830000 -3.240000
v -4.560000 16.830000 -3.240000
v -4.041600 0.220000 2.841600
v -3.801600 0.220000 2.841600
v -3.801600 0.220000 2.601600
v -4.041600 0.220000 2.601600
v -4.041600 16.719999 2.841600
v -3.801600 16.719999 2.841600
v -3.801600 16.719999 2.601600
v -4.041600 16.719999 2.601600
v -4.041600 0.220000 -2.601600
v -3.801600 0.220000 -2.601600
v -3.801600 0.220000 -2.841600
v -4.041600 0.220000 -2.841600
v -4.041600 16.719999 -2.601600
v -3.801600 16.719999 -2.601600
v -3.801600 16.719999 -2.841600
v -4.041600 16.719999 -2.841600
v -0.120000 0.220000 2.841600
v 0.120000 0.220000 2.841600
v 0.120000 0.220000 2.601600
v -0.120000 0.220000 2.601600
v -0.120000 16.719999 2.841600
v 0.120000 16.719999 2.841600
v 0.120000 16.719999 2.601600
v -0.120000 16.719999 2.601600
v -0.120000 0.220000 -2.601600
v 0.120000 0.220000 -2.601600
v 0.120000 0.220000 -2.841600
v -0.120000 0.220000 -2.841600
v -0.120000 16.719999 -2.601600
v 0.120000 16.719999 -2.601600
v 0.120000 16.719999 -2.841600
v -0.120000 16.719999 -2.841600
v 3.801600 0.220000 2.841600
v 4.041600 0.220000 2.841600
v 4.041600 0.220000 2.601600
v 3.801600 0.220000 2.601600
v 3.801600 16.719999 2.841600
v 4.041600 16.719999 2.841600
v 4.041600 16.719999 2.601600
v 3.801600 16.719999 2.601600
v 3.801600 0.220000 -2.601600
v 4.041600 0.220000 -2.601600
v 4.041600 0.220000 -2.841600
v 3.801600 0.220000 -2.841600
v 3.801600 16.719999 -2.601600
v 4.041600 16.719999 -2.601600
v 4.041600 16.719999 -2.841600
v 3.801600 16.719999 -2.841600
vn -0.0000 -1.0000 -0.0000
vn -0.0000 1.0000 -0.0000
vn -0.0000 -0.0000 1.0000
vn 1.0000 -0.0000 -0.0000
vn -0.0000 -0.0000 -1.0000
vn -1.0000 -0.0000 -0.0000
vt 0.219920 0.550080
vt 0.030080 0.949920
vt 0.030080 0.550080
vt 0.469920 0.050080
vt 0.280080 0.449920
vt 0.280080 0.050080
vt 0.219920 0.949920
vt 0.469920 0.449920
s 0
f 4/1/1 2/2/1 1/3/1
f 6/1/2 8/2/2 5/3/2
f 2/1/3 5/2/3 1/3/3
f 3/1/4 6/2/4 2/3/4
f 4/1/5 7/2/5 3/3/5
f 1/1/6 8/2/6 4/3/6
f 12/4/1 10/5/1 9/6/1
f 14/4/2 16/5/2 13/6/2
f 10/4/3 13/5/3 9/6/3
f 11/4/4 14/5/4 10/6/4
f 12/4/5 15/5/5 11/6/5
f 9/4/6 16/5/6 12/6/6
f 20/4/1 18/5/1 17/6/1
f 22/4/2 24/5/2 21/6/2
f 18/4/3 21/5/3 17/6/3
f 19/4/4 22/5/4 18/6/4
f 20/4/5 23/5/5 19/6/5
f 17/4/6 24/5/6 20/6/6
f 28/4/1 26/5/1 25/6/1
f 30/4/2 32/5/2 29/6/2
f 26/4/3 29/5/3 25/6/3
f 27/4/4 30/5/4 26/6/4
f 28/4/5 31/5/5 27/6/5
f 25/4/6 32/5/6 28/6/6
f 36/4/1 34/5/1 33/6/1
f 38/4/2 40/5/2 37/6/2
f 34/4/3 37/5/3 33/6/3
f 35/4/4 38/5/4 34/6/4
f 36/4/5 39/5/5 35/6/5
f 33/4/6 40/5/6 36/6/6
f 44/1/1 42/2/1 41/3/1
f 46/1/2 48/2/2 45/3/2
f 42/1/3 45/2/3 41/3/3
f 43/1/4 46/2/4 42/3/4
f 44/1/5 47/2/5 43/3/5
f 41/1/6 48/2/6 44/3/6
f 52/1/1 50/2/1 49/3/1
f 54/1/2 56/2/2 53/3/2
f 50/1/3 53/2/3 49/3/3
f 51/1/4 54/2/4 50/3/4
f 52/1/5 55/2/5 51/3/5
f 49/1/6 56/2/6 52/3/6
f 60/1/1 58/2/1 57/3/1
f 62/1/2 64/2/2 61/3/2
f 58/1/3 61/2/3 57/3/3
f 59/1/4 62/2/4 58/3/4
f 60/1/5 63/2/5 59/3/5
f 57/1/6 64/2/6 60/3/6
f 68/1/1 66/2/1 65/3/1
f 70/1/2 72/2/2 69/3/2
f 66/1/3 69/2/3 65/3/3
f 67/1/4 70/2/4 66/3/4
f 68/1/5 71/2/5 67/3/5
f 65/1/6 72/2/6 68/3/6
f 76/1/1 74/2/1 73/3/1
f 78/1/2 80/2/2 77/3/2
f 74/1/3 77/2/3 73/3/3
f 75/1/4 78/2/4 74/3/4
f 76/1/5 79/2/5 75/3/5
f 73/1/6 80/2/6 76/3/6
f 84/1/1 82/2/1 81/3/1
f 86/1/2 88/2/2 85/3/2
f 82/1/3 85/2/3 81/3/3
f 83/1/4 86/2/4 82/3/4
f 84/1/5 87/2/5 83/3/5
f 81/1/6 88/2/6 84/3/6
f 92/1/1 90/2/1 89/3/1
f 94/1/2 96/2/2 93/3/2
f 90/1/3 93/2/3 89/3/3
f 91/1/4 94/2/4 90/3/4
f 92/1/5 95/2/5 91/3/5
f 89/1/6 96/2/6 92/3/6
f 100/1/1 98/2/1 97/3/1
f 102/1/2 104/2/2 101/3/2
f 98/1/3 101/2/3 97/3/3
f 99/1/4 102/2/4 98/3/4
f 100/1/5 103/2/5 99/3/5
f 97/1/6 104/2/6 100/3/6
f 108/1/1 106/2/1 105/3/1
f 110/1/2 112/2/2 109/3/2
f 106/1/3 109/2/3 105/3/3
f 107/1/4 110/2/4 106/3/4
f 108/1/5 111/2/5 107/3/5
f 105/1/6 112/2/6 108/3/6
f 116/1/1 114/2/1 113/3/1
f 118/1/2 120/2/2 117/3/2
f 114/1/3 117/2/3 113/3/3
f 115/1/4 118/2/4 114/3/4
f 116/1/5 119/2/5 115/3/5
f 113/1/6 120/2/6 116/3/6
f 124/1/1 122/2/1 121/3/1
f 126/1/2 128/2/2 125/3/2
f 122/1/3 125/2/3 121/3/3
f 123/1/4 126/2/4 122/3/4
f 124/1/5 127/2/5 123/3/5
f 121/1/6 128/2/6 124/3/6
f 132/1/1 130/2/1 129/3/1
f 134/1/2 136/2/2 133/3/2
f 130/1/3 133/2/3 129/3/3
f 131/1/4 134/2/4 130/3/4
f 132/1/5 135/2/5 131/3/5
f 129/1/6 136/2/6 132/3/6
f 140/1/1 138/2/1 137/3/1
f 142/1/2 144/2/2 141/3/2
f 138/1/3 141/2/3 137/3/3
f 139/1/4 142/2/4 138/3/4
f 140/1/5 143/2/5 139/3/5
f 137/1/6 144/2/6 140/3/6
f 4/1/1 3/7/1 2/2/1
f 6/1/2 7/7/2 8/2/2
f 2/1/3 6/7/3 5/2/3
f 3/1/4 7/7/4 6/2/4
f 4/1/5 8/7/5 7/2/5
f 1/1/6 5/7/6 8/2/6
f 12/4/1 11/8/1 10/5/1
f 14/4/2 15/8/2 16/5/2
f 10/4/3 14/8/3 13/5/3
f 11/4/4 15/8/4 14/5/4
f 12/4/5 16/8/5 15/5/5
f 9/4/6 13/8/6 16/5/6
f 20/4/1 19/8/1 18/5/1
f 22/4/2 23/8/2 24/5/2
f 18/4/3 22/8/3 21/5/3
f 19/4/4 23/8/4 22/5/4
f 20/4/5 24/8/5 23/5/5
f 17/4/6 21/8/6 24/5/6
f 28/4/1 27/8/1 26/5/1
f 30/4/2 31/8/2 32/5/2
f 26/4/3 30/8/3 29/5/3
f 27/4/4 31/8/4 30/5/4
f 28/4/5 32/8/5 31/5/5
f 25/4/6 29/8/6 32/5/6
f 36/4/1 35/8/1 34/5/1
f 38/4/2 39/8/2 40/5/2
f 34/4/3 38/8/3 37/5/3
f 35/4/4 39/8/4 38/5/4
f 36/4/5 40/8/5 39/5/5
f 33/4/6 37/8/6 40/5/6
f 44/1/1 43/7/1 42/2/1
f 46/1/2 47/7/2 48/2/2
f 42/1/3 46/7/3 45/2/3
f 43/1/4 47/7/4 46/2/4
f 44/1/5 48/7/5 47/2/5
f 41/1/6 45/7/6 48/2/6
f 52/1/1 51/7/1 50/2/1
f 54/1/2 55/7/2 56/2/2
f 50/1/3 54/7/3 53/2/3
f 51/1/4 55/7/4 54/2/4
f 52/1/5 56/7/5 55/2/5
f 49/1/6 53/7/6 56/2/6
f 60/1/1 59/7/1 58/2/1
f 62/1/2 63/7/2 64/2/2
f 58/1/3 62/7/3 61/2/3
f 59/1/4 63/7/4 62/2/4
f 60/1/5 64/7/5 63/2/5
f 57/1/6 61/7/6 64/2/6
f 68/1/1 67/7/1 66/2/1
f 70/1/2 71/7/2 72/2/2
f 66/1/3 70/7/3 69/2/3
f 67/1/4 71/7/4 70/2/4
f 68/1/5 72/7/5 71/2/5
f 65/1/6 69/7/6 72/2/6
f 76/1/1 75/7/1 74/2/1
f 78/1/2 79/7/2 80/2/2
f 74/1/3 78/7/3 77/2/3
f 75/1/4 79/7/4 78/2/4
f 76/1/5 80/7/5 79/2/5
f 73/1/6 77/7/6 80/2/6
f 84/1/1 83/7/1 82/2/1
f 86/1/2 87/7/2 88/2/2
f 82/1/3 86/7/3 85/2/3
f 83/1/4 87/7/4 86/2/4
f 84/1/5 88/7/5 87/2/5
f 81/1/6 85/7/6 88/2/6
f 92/1/1 91/7/1 90/2/1
f 94/1/2 95/7/2 96/2/2
f 90/1/3 94/7/3 93/2/3
f 91/1/4 95/7/4 94/2/4
f 92/1/5 96/7/5 95/2/5
f 89/1/6 93/7/6 96/2/6
f 100/1/1 99/7/1 98/2/1
f 102/1/2 103/7/2 104/2/2
f 98/1/3 102/7/3 101/2/3
f 99/1/4 103/7/4 102/2/4
f 100/1/5 104/7/5 103/2/5
f 97/1/6 101/7/6 104/2/6
f 108/1/1 107/7/1 106/2/1
f 110/1/2 111/7/2 112/2/2
f 106/1/3 110/7/3 109/2/3
f 107/1/4 111/7/4 110/2/4
f 108/1/5 112/7/5 111/2/5
f 105/1/6 109/7/6 112/2/6
f 116/1/1 115/7/1 114/2/1
f 118/1/2 119/7/2 120/2/2
f 114/1/3 118/7/3 117/2/3
f 115/1/4 119/7/4 118/2/4
f 116/1/5 120/7/5 119/2/5
f 113/1/6 117/7/6 120/2/6
f 124/1/1 123/7/1 122/2/1
f 126/1/2 127/7/2 128/2/2
f 122/1/3 126/7/3 125/2/3
f 123/1/4 127/7/4 126/2/4
f 124/1/5 128/7/5 127/2/5
f 121/1/6 125/7/6 128/2/6
f 132/1/1 131/7/1 130/2/1
f 134/1/2 135/7/2 136/2/2
f 130/1/3 134/7/3 133/2/3
f 131/1/4 135/7/4 134/2/4
f 132/1/5 136/7/5 135/2/5
f 129/1/6 133/7/6 136/2/6
f 140/1/1 139/7/1 138/2/1
f 142/1/2 143/7/2 144/2/2
f 138/1/3 142/7/3 141/2/3
f 139/1/4 143/7/4 142/2/4
f 140/1/5 144/7/5 143/2/5
f 137/1/6 141/7/6 144/2/6
