# Blender 4.4.3
# www.blender.org
o house_cream_family_finishing
v -5.250000 0.000000 4.250000
v 5.250000 0.000000 4.250000
v 5.250000 0.000000 -4.250000
v -5.250000 0.000000 -4.250000
v -5.250000 0.200000 4.250000
v 5.250000 0.200000 4.250000
v 5.250000 0.200000 -4.250000
v -5.250000 0.200000 -4.250000
v -5.250000 0.100000 4.250000
v -5.070000 0.100000 4.250000
v -5.070000 0.100000 -4.250000
v -5.250000 0.100000 -4.250000
v -5.250000 0.460000 4.250000
v -5.070000 0.460000 4.250000
v -5.070000 0.460000 -4.250000
v -5.250000 0.460000 -4.250000
v 5.070000 0.100000 4.250000
v 5.250000 0.100000 4.250000
v 5.250000 0.100000 -4.250000
v 5.070000 0.100000 -4.250000
v 5.070000 0.460000 4.250000
v 5.250000 0.460000 4.250000
v 5.250000 0.460000 -4.250000
v 5.070000 0.460000 -4.250000
v -5.250000 0.100000 4.250000
v 5.250000 0.100000 4.250000
v 5.250000 0.100000 4.070000
v -5.250000 0.100000 4.070000
v -5.250000 0.460000 4.250000
v 5.250000 0.460000 4.250000
v 5.250000 0.460000 4.070000
v -5.250000 0.460000 4.070000
v -5.250000 0.100000 -4.070000
v 5.250000 0.100000 -4.070000
v 5.250000 0.100000 -4.250000
v -5.250000 0.100000 -4.250000
v -5.250000 0.460000 -4.070000
v 5.250000 0.460000 -4.070000
v 5.250000 0.460000 -4.250000
v -5.250000 0.460000 -4.250000
v -3.780000 0.220000 2.975000
v 3.780000 0.220000 2.975000
v 3.780000 0.220000 -2.975000
v -3.780000 0.220000 -2.975000
v -3.780000 0.460000 2.975000
v 3.780000 0.460000 2.975000
v 3.780000 0.460000 -2.975000
v -3.780000 0.460000 -2.975000
v -3.780000 0.220000 3.100000
v -2.910600 0.220000 3.100000
v -2.910600 0.220000 2.850000
v -3.780000 0.220000 2.850000
v -3.780000 2.970000 3.100000
v -2.910600 2.970000 3.100000
v -2.910600 2.970000 2.850000
v -3.780000 2.970000 2.850000
v -0.869400 0.220000 3.100000
v 0.000000 0.220000 3.100000
v 0.000000 0.220000 2.850000
v -0.869400 0.220000 2.850000
v -0.869400 2.970000 3.100000
v 0.000000 2.970000 3.100000
v 0.000000 2.970000 2.850000
v -0.869400 2.970000 2.850000
v -2.910600 0.220000 3.100000
v -0.869400 0.220000 3.100000
v -0.869400 0.220000 2.850000
v -2.910600 0.220000 2.850000
v -2.910600 0.560000 3.100000
v -0.869400 0.560000 3.100000
v -0.869400 0.560000 2.850000
v -2.910600 0.560000 2.850000
v -2.910600 2.630000 3.100000
v -0.869400 2.630000 3.100000
v -0.869400 2.630000 2.850000
v -2.910600 2.630000 2.850000
v -2.910600 2.970000 3.100000
v -0.869400 2.970000 3.100000
v -0.869400 2.970000 2.850000
v -2.910600 2.970000 2.850000
v -2.880600 0.590000 2.985000
v -0.899400 0.590000 2.985000
v -0.899400 0.590000 2.890000
v -2.880600 0.590000 2.890000
v -2.880600 2.600000 2.985000
v -0.899400 2.600000 2.985000
v -0.899400 2.600000 2.890000
v -2.880600 2.600000 2.890000
v -2.955600 0.530000 3.630000
v -2.865600 0.530000 3.630000
v -2.865600 0.530000 3.510000
v -2.955600 0.530000 3.510000
v -2.955600 2.660000 3.630000
v -2.865600 2.660000 3.630000
v -2.865600 2.660000 3.510000
v -2.955600 2.660000 3.510000
v -0.914400 0.530000 3.630000
v -0.824400 0.530000 3.630000
v -0.824400 0.530000 3.510000
v -0.914400 0.530000 3.510000
v -0.914400 2.660000 3.630000
v -0.824400 2.660000 3.630000
v -0.824400 2.660000 3.510000
v -0.914400 2.660000 3.510000
v -2.960600 0.515000 3.630000
v -0.819400 0.515000 3.630000
v -0.819400 0.515000 3.510000
v -2.960600 0.515000 3.510000
v -2.960600 0.605000 3.630000
v -0.819400 0.605000 3.630000
v -0.819400 0.605000 3.510000
v -2.960600 0.605000 3.510000
v -2.960600 2.585000 3.630000
v -0.819400 2.585000 3.630000
v -0.819400 2.585000 3.510000
v -2.960600 2.585000 3.510000
v -2.960600 2.675000 3.630000
v -0.819400 2.675000 3.630000
v -0.819400 2.675000 3.510000
v -2.960600 2.675000 3.510000
v -1.917500 0.976250 3.150000
v -1.862500 0.976250 3.150000
v -1.862500 0.976250 3.080000
v -1.917500 0.976250 3.080000
v -1.917500 2.213750 3.150000
v -1.862500 2.213750 3.150000
v -1.862500 2.213750 3.080000
v -1.917500 2.213750 3.080000
v 0.040000 0.215000 3.065000
v 3.740000 0.215000 3.065000
v 3.740000 0.215000 2.885000
v 0.040000 0.215000 2.885000
v 0.040000 0.865000 3.065000
v 3.740000 0.865000 3.065000
v 3.740000 0.865000 2.885000
v 0.040000 0.865000 2.885000
v -3.780000 0.220000 -2.850000
v -2.910600 0.220000 -2.850000
v -2.910600 0.220000 -3.100000
v -3.780000 0.220000 -3.100000
v -3.780000 2.970000 -2.850000
v -2.910600 2.970000 -2.850000
v -2.910600 2.970000 -3.100000
v -3.780000 2.970000 -3.100000
v -0.869400 0.220000 -2.850000
v 0.000000 0.220000 -2.850000
v 0.000000 0.220000 -3.100000
v -0.869400 0.220000 -3.100000
v -0.869400 2.970000 -2.850000
v 0.000000 2.970000 -2.850000
v 0.000000 2.970000 -3.100000
v -0.869400 2.970000 -3.100000
v -2.910600 0.220000 -2.850000
v -0.869400 0.220000 -2.850000
v -0.869400 0.220000 -3.100000
v -2.910600 0.220000 -3.100000
v -2.910600 0.560000 -2.850000
v -0.869400 0.560000 -2.850000
v -0.869400 0.560000 -3.100000
v -2.910600 0.560000 -3.100000
v -2.910600 2.630000 -2.850000
v -0.869400 2.630000 -2.850000
v -0.869400 2.630000 -3.100000
v -2.910600 2.630000 -3.100000
v -2.910600 2.970000 -2.850000
v -0.869400 2.970000 -2.850000
v -0.869400 2.970000 -3.100000
v -2.910600 2.970000 -3.100000
v -2.880600 0.590000 -2.965000
v -0.899400 0.590000 -2.965000
v -0.899400 0.590000 -3.060000
v -2.880600 0.590000 -3.060000
v -2.880600 2.600000 -2.965000
v -0.899400 2.600000 -2.965000
v -0.899400 2.600000 -3.060000
v -2.880600 2.600000 -3.060000
v -2.955600 0.530000 -2.320000
v -2.865600 0.530000 -2.320000
v -2.865600 0.530000 -2.440000
v -2.955600 0.530000 -2.440000
v -2.955600 2.660000 -2.320000
v -2.865600 2.660000 -2.320000
v -2.865600 2.660000 -2.440000
v -2.955600 2.660000 -2.440000
v -0.914400 0.530000 -2.320000
v -0.824400 0.530000 -2.320000
v -0.824400 0.530000 -2.440000
v -0.914400 0.530000 -2.440000
v -0.914400 2.660000 -2.320000
v -0.824400 2.660000 -2.320000
v -0.824400 2.660000 -2.440000
v -0.914400 2.660000 -2.440000
v -2.960600 0.515000 -2.320000
v -0.819400 0.515000 -2.320000
v -0.819400 0.515000 -2.440000
v -2.960600 0.515000 -2.440000
v -2.960600 0.605000 -2.320000
v -0.819400 0.605000 -2.320000
v -0.819400 0.605000 -2.440000
v -2.960600 0.605000 -2.440000
v -2.960600 2.585000 -2.320000
v -0.819400 2.585000 -2.320000
v -0.819400 2.585000 -2.440000
v -2.960600 2.585000 -2.440000
v -2.960600 2.675000 -2.320000
v -0.819400 2.675000 -2.320000
v -0.819400 2.675000 -2.440000
v -2.960600 2.675000 -2.440000
v -1.917500 0.976250 -2.800000
v -1.862500 0.976250 -2.800000
v -1.862500 0.976250 -2.870000
v -1.917500 0.976250 -2.870000
v -1.917500 2.213750 -2.800000
v -1.862500 2.213750 -2.800000
v -1.862500 2.213750 -2.870000
v -1.917500 2.213750 -2.870000
v 0.040000 0.215000 -2.885000
v 3.740000 0.215000 -2.885000
v 3.740000 0.215000 -3.065000
v 0.040000 0.215000 -3.065000
v 0.040000 0.865000 -2.885000
v 3.740000 0.865000 -2.885000
v 3.740000 0.865000 -3.065000
v 0.040000 0.865000 -3.065000
v -3.905000 0.220000 2.326500
v -3.655000 0.220000 2.326500
v -3.655000 0.220000 1.886500
v -3.905000 0.220000 1.886500
v -3.905000 2.970000 2.326500
v -3.655000 2.970000 2.326500
v -3.655000 2.970000 1.886500
v -3.905000 2.970000 1.886500
v -3.905000 0.220000 1.326500
v -3.655000 0.220000 1.326500
v -3.655000 0.220000 0.886500
v -3.905000 0.220000 0.886500
v -3.905000 2.970000 1.326500
v -3.655000 2.970000 1.326500
v -3.655000 2.970000 0.886500
v -3.905000 2.970000 0.886500
v -3.905000 0.220000 1.886500
v -3.655000 0.220000 1.886500
v -3.655000 0.220000 1.326500
v -3.905000 0.220000 1.326500
v -3.905000 0.580000 1.886500
v -3.655000 0.580000 1.886500
v -3.655000 0.580000 1.326500
v -3.905000 0.580000 1.326500
v -3.905000 2.590000 1.886500
v -3.655000 2.590000 1.886500
v -3.655000 2.590000 1.326500
v -3.905000 2.590000 1.326500
v -3.905000 2.970000 1.886500
v -3.655000 2.970000 1.886500
v -3.655000 2.970000 1.326500
v -3.905000 2.970000 1.326500
v -3.865000 0.610000 1.856500
v -3.770000 0.610000 1.856500
v -3.770000 0.610000 1.356500
v -3.865000 0.610000 1.356500
v -3.865000 2.560000 1.856500
v -3.770000 2.560000 1.856500
v -3.770000 2.560000 1.356500
v -3.865000 2.560000 1.356500
v -3.905000 0.220000 -0.886500
v -3.655000 0.220000 -0.886500
v -3.655000 0.220000 -1.326500
v -3.905000 0.220000 -1.326500
v -3.905000 2.970000 -0.886500
v -3.655000 2.970000 -0.886500
v -3.655000 2.970000 -1.326500
v -3.905000 2.970000 -1.326500
v -3.905000 0.220000 -1.886500
v -3.655000 0.220000 -1.886500
v -3.655000 0.220000 -2.326500
v -3.905000 0.220000 -2.326500
v -3.905000 2.970000 -1.886500
v -3.655000 2.970000 -1.886500
v -3.655000 2.970000 -2.326500
v -3.905000 2.970000 -2.326500
v -3.905000 0.220000 -1.326500
v -3.655000 0.220000 -1.326500
v -3.655000 0.220000 -1.886500
v -3.905000 0.220000 -1.886500
v -3.905000 0.580000 -1.326500
v -3.655000 0.580000 -1.326500
v -3.655000 0.580000 -1.886500
v -3.905000 0.580000 -1.886500
v -3.905000 2.590000 -1.326500
v -3.655000 2.590000 -1.326500
v -3.655000 2.590000 -1.886500
v -3.905000 2.590000 -1.886500
v -3.905000 2.970000 -1.326500
v -3.655000 2.970000 -1.326500
v -3.655000 2.970000 -1.886500
v -3.905000 2.970000 -1.886500
v -3.865000 0.610000 -1.356500
v -3.770000 0.610000 -1.356500
v -3.770000 0.610000 -1.856500
v -3.865000 0.610000 -1.856500
v -3.865000 2.560000 -1.356500
v -3.770000 2.560000 -1.356500
v -3.770000 2.560000 -1.856500
v -3.865000 2.560000 -1.856500
v 3.655000 0.220000 2.326500
v 3.905000 0.220000 2.326500
v 3.905000 0.220000 1.886500
v 3.655000 0.220000 1.886500
v 3.655000 2.970000 2.326500
v 3.905000 2.970000 2.326500
v 3.905000 2.970000 1.886500
v 3.655000 2.970000 1.886500
v 3.655000 0.220000 1.326500
v 3.905000 0.220000 1.326500
v 3.905000 0.220000 0.886500
v 3.655000 0.220000 0.886500
v 3.655000 2.970000 1.326500
v 3.905000 2.970000 1.326500
v 3.905000 2.970000 0.886500
v 3.655000 2.970000 0.886500
v 3.655000 0.220000 1.886500
v 3.905000 0.220000 1.886500
v 3.905000 0.220000 1.326500
v 3.655000 0.220000 1.326500
v 3.655000 0.580000 1.886500
v 3.905000 0.580000 1.886500
v 3.905000 0.580000 1.326500
v 3.655000 0.580000 1.326500
v 3.655000 2.590000 1.886500
v 3.905000 2.590000 1.886500
v 3.905000 2.590000 1.326500
v 3.655000 2.590000 1.326500
v 3.655000 2.970000 1.886500
v 3.905000 2.970000 1.886500
v 3.905000 2.970000 1.326500
v 3.655000 2.970000 1.326500
v 3.695000 0.610000 1.856500
v 3.790000 0.610000 1.856500
v 3.790000 0.610000 1.356500
v 3.695000 0.610000 1.356500
v 3.695000 2.560000 1.856500
v 3.790000 2.560000 1.856500
v 3.790000 2.560000 1.356500
v 3.695000 2.560000 1.356500
v 3.655000 0.220000 -0.886500
v 3.905000 0.220000 -0.886500
v 3.905000 0.220000 -1.326500
v 3.655000 0.220000 -1.326500
v 3.655000 2.970000 -0.886500
v 3.905000 2.970000 -0.886500
v 3.905000 2.970000 -1.326500
v 3.655000 2.970000 -1.326500
v 3.655000 0.220000 -1.886500
v 3.905000 0.220000 -1.886500
v 3.905000 0.220000 -2.326500
v 3.655000 0.220000 -2.326500
v 3.655000 2.970000 -1.886500
v 3.905000 2.970000 -1.886500
v 3.905000 2.970000 -2.326500
v 3.655000 2.970000 -2.326500
v 3.655000 0.220000 -1.326500
v 3.905000 0.220000 -1.326500
v 3.905000 0.220000 -1.886500
v 3.655000 0.220000 -1.886500
v 3.655000 0.580000 -1.326500
v 3.905000 0.580000 -1.326500
v 3.905000 0.580000 -1.886500
v 3.655000 0.580000 -1.886500
v 3.655000 2.590000 -1.326500
v 3.905000 2.590000 -1.326500
v 3.905000 2.590000 -1.886500
v 3.655000 2.590000 -1.886500
v 3.655000 2.970000 -1.326500
v 3.905000 2.970000 -1.326500
v 3.905000 2.970000 -1.886500
v 3.655000 2.970000 -1.886500
v 3.695000 0.610000 -1.356500
v 3.790000 0.610000 -1.356500
v 3.790000 0.610000 -1.856500
v 3.695000 0.610000 -1.856500
v 3.695000 2.560000 -1.356500
v 3.790000 2.560000 -1.356500
v 3.790000 2.560000 -1.856500
v 3.695000 2.560000 -1.856500
v -3.780000 2.970000 2.975000
v 3.780000 2.970000 2.975000
v 3.780000 2.970000 -2.975000
v -3.780000 2.970000 -2.975000
v -3.780000 3.210000 2.975000
v 3.780000 3.210000 2.975000
v 3.780000 3.210000 -2.975000
v -3.780000 3.210000 -2.975000
v -3.780000 2.970000 3.100000
v -2.910600 2.970000 3.100000
v -2.910600 2.970000 2.850000
v -3.780000 2.970000 2.850000
v -3.780000 5.720000 3.100000
v -2.910600 5.720000 3.100000
v -2.910600 5.720000 2.850000
v -3.780000 5.720000 2.850000
v -0.869400 2.970000 3.100000
v 0.000000 2.970000 3.100000
v 0.000000 2.970000 2.850000
v -0.869400 2.970000 2.850000
v -0.869400 5.720000 3.100000
v 0.000000 5.720000 3.100000
v 0.000000 5.720000 2.850000
v -0.869400 5.720000 2.850000
v -2.910600 2.970000 3.100000
v -0.869400 2.970000 3.100000
v -0.869400 2.970000 2.850000
v -2.910600 2.970000 2.850000
v -2.910600 3.310000 3.100000
v -0.869400 3.310000 3.100000
v -0.869400 3.310000 2.850000
v -2.910600 3.310000 2.850000
v -2.910600 5.380000 3.100000
v -0.869400 5.380000 3.100000
v -0.869400 5.380000 2.850000
v -2.910600 5.380000 2.850000
v -2.910600 5.720000 3.100000
v -0.869400 5.720000 3.100000
v -0.869400 5.720000 2.850000
v -2.910600 5.720000 2.850000
v -2.880600 3.340000 2.985000
v -0.899400 3.340000 2.985000
v -0.899400 3.340000 2.890000
v -2.880600 3.340000 2.890000
v -2.880600 5.350000 2.985000
v -0.899400 5.350000 2.985000
v -0.899400 5.350000 2.890000
v -2.880600 5.350000 2.890000
v -2.955600 3.280000 3.630000
v -2.865600 3.280000 3.630000
v -2.865600 3.280000 3.510000
v -2.955600 3.280000 3.510000
v -2.955600 5.410000 3.630000
v -2.865600 5.410000 3.630000
v -2.865600 5.410000 3.510000
v -2.955600 5.410000 3.510000
v -0.914400 3.280000 3.630000
v -0.824400 3.280000 3.630000
v -0.824400 3.280000 3.510000
v -0.914400 3.280000 3.510000
v -0.914400 5.410000 3.630000
v -0.824400 5.410000 3.630000
v -0.824400 5.410000 3.510000
v -0.914400 5.410000 3.510000
v -2.960600 3.265000 3.630000
v -0.819400 3.265000 3.630000
v -0.819400 3.265000 3.510000
v -2.960600 3.265000 3.510000
v -2.960600 3.355000 3.630000
v -0.819400 3.355000 3.630000
v -0.819400 3.355000 3.510000
v -2.960600 3.355000 3.510000
v -2.960600 5.335000 3.630000
v -0.819400 5.335000 3.630000
v -0.819400 5.335000 3.510000
v -2.960600 5.335000 3.510000
v -2.960600 5.425000 3.630000
v -0.819400 5.425000 3.630000
v -0.819400 5.425000 3.510000
v -2.960600 5.425000 3.510000
v -1.917500 3.726250 3.150000
v -1.862500 3.726250 3.150000
v -1.862500 3.726250 3.080000
v -1.917500 3.726250 3.080000
v -1.917500 4.963750 3.150000
v -1.862500 4.963750 3.150000
v -1.862500 4.963750 3.080000
v -1.917500 4.963750 3.080000
v 0.000000 2.970000 3.100000
v 0.869400 2.970000 3.100000
v 0.869400 2.970000 2.850000
v 0.000000 2.970000 2.850000
v 0.000000 5.720000 3.100000
v 0.869400 5.720000 3.100000
v 0.869400 5.720000 2.850000
v 0.000000 5.720000 2.850000
v 2.910600 2.970000 3.100000
v 3.780000 2.970000 3.100000
v 3.780000 2.970000 2.850000
v 2.910600 2.970000 2.850000
v 2.910600 5.720000 3.100000
v 3.780000 5.720000 3.100000
v 3.780000 5.720000 2.850000
v 2.910600 5.720000 2.850000
v 0.869400 2.970000 3.100000
v 2.910600 2.970000 3.100000
v 2.910600 2.970000 2.850000
v 0.869400 2.970000 2.850000
v 0.869400 3.310000 3.100000
v 2.910600 3.310000 3.100000
v 2.910600 3.310000 2.850000
v 0.869400 3.310000 2.850000
v 0.869400 5.380000 3.100000
v 2.910600 5.380000 3.100000
v 2.910600 5.380000 2.850000
v 0.869400 5.380000 2.850000
v 0.869400 5.720000 3.100000
v 2.910600 5.720000 3.100000
v 2.910600 5.720000 2.850000
v 0.869400 5.720000 2.850000
v 0.899400 3.340000 2.985000
v 2.880600 3.340000 2.985000
v 2.880600 3.340000 2.890000
v 0.899400 3.340000 2.890000
v 0.899400 5.350000 2.985000
v 2.880600 5.350000 2.985000
v 2.880600 5.350000 2.890000
v 0.899400 5.350000 2.890000
v 0.824400 3.280000 3.630000
v 0.914400 3.280000 3.630000
v 0.914400 3.280000 3.510000
v 0.824400 3.280000 3.510000
v 0.824400 5.410000 3.630000
v 0.914400 5.410000 3.630000
v 0.914400 5.410000 3.510000
v 0.824400 5.410000 3.510000
v 2.865600 3.280000 3.630000
v 2.955600 3.280000 3.630000
v 2.955600 3.280000 3.510000
v 2.865600 3.280000 3.510000
v 2.865600 5.410000 3.630000
v 2.955600 5.410000 3.630000
v 2.955600 5.410000 3.510000
v 2.865600 5.410000 3.510000
v 0.819400 3.265000 3.630000
v 2.960600 3.265000 3.630000
v 2.960600 3.265000 3.510000
v 0.819400 3.265000 3.510000
v 0.819400 3.355000 3.630000
v 2.960600 3.355000 3.630000
v 2.960600 3.355000 3.510000
v 0.819400 3.355000 3.510000
v 0.819400 5.335000 3.630000
v 2.960600 5.335000 3.630000
v 2.960600 5.335000 3.510000
v 0.819400 5.335000 3.510000
v 0.819400 5.425000 3.630000
v 2.960600 5.425000 3.630000
v 2.960600 5.425000 3.510000
v 0.819400 5.425000 3.510000
v 1.862500 3.726250 3.150000
v 1.917500 3.726250 3.150000
v 1.917500 3.726250 3.080000
v 1.862500 3.726250 3.080000
v 1.862500 4.963750 3.150000
v 1.917500 4.963750 3.150000
v 1.917500 4.963750 3.080000
v 1.862500 4.963750 3.080000
v -3.780000 2.970000 -2.850000
v -2.910600 2.970000 -2.850000
v -2.910600 2.970000 -3.100000
v -3.780000 2.970000 -3.100000
v -3.780000 5.720000 -2.850000
v -2.910600 5.720000 -2.850000
v -2.910600 5.720000 -3.100000
v -3.780000 5.720000 -3.100000
v -0.869400 2.970000 -2.850000
v 0.000000 2.970000 -2.850000
v 0.000000 2.970000 -3.100000
v -0.869400 2.970000 -3.100000
v -0.869400 5.720000 -2.850000
v 0.000000 5.720000 -2.850000
v 0.000000 5.720000 -3.100000
v -0.869400 5.720000 -3.100000
v -2.910600 2.970000 -2.850000
v -0.869400 2.970000 -2.850000
v -0.869400 2.970000 -3.100000
v -2.910600 2.970000 -3.100000
v -2.910600 3.310000 -2.850000
v -0.869400 3.310000 -2.850000
v -0.869400 3.310000 -3.100000
v -2.910600 3.310000 -3.100000
v -2.910600 5.380000 -2.850000
v -0.869400 5.380000 -2.850000
v -0.869400 5.380000 -3.100000
v -2.910600 5.380000 -3.100000
v -2.910600 5.720000 -2.850000
v -0.869400 5.720000 -2.850000
v -0.869400 5.720000 -3.100000
v -2.910600 5.720000 -3.100000
v -2.880600 3.340000 -2.965000
v -0.899400 3.340000 -2.965000
v -0.899400 3.340000 -3.060000
v -2.880600 3.340000 -3.060000
v -2.880600 5.350000 -2.965000
v -0.899400 5.350000 -2.965000
v -0.899400 5.350000 -3.060000
v -2.880600 5.350000 -3.060000
v -2.955600 3.280000 -2.320000
v -2.865600 3.280000 -2.320000
v -2.865600 3.280000 -2.440000
v -2.955600 3.280000 -2.440000
v -2.955600 5.410000 -2.320000
v -2.865600 5.410000 -2.320000
v -2.865600 5.410000 -2.440000
v -2.955600 5.410000 -2.440000
v -0.914400 3.280000 -2.320000
v -0.824400 3.280000 -2.320000
v -0.824400 3.280000 -2.440000
v -0.914400 3.280000 -2.440000
v -0.914400 5.410000 -2.320000
v -0.824400 5.410000 -2.320000
v -0.824400 5.410000 -2.440000
v -0.914400 5.410000 -2.440000
v -2.960600 3.265000 -2.320000
v -0.819400 3.265000 -2.320000
v -0.819400 3.265000 -2.440000
v -2.960600 3.265000 -2.440000
v -2.960600 3.355000 -2.320000
v -0.819400 3.355000 -2.320000
v -0.819400 3.355000 -2.440000
v -2.960600 3.355000 -2.440000
v -2.960600 5.335000 -2.320000
v -0.819400 5.335000 -2.320000
v -0.819400 5.335000 -2.440000
v -2.960600 5.335000 -2.440000
v -2.960600 5.425000 -2.320000
v -0.819400 5.425000 -2.320000
v -0.819400 5.425000 -2.440000
v -2.960600 5.425000 -2.440000
v -1.917500 3.726250 -2.800000
v -1.862500 3.726250 -2.800000
v -1.862500 3.726250 -2.870000
v -1.917500 3.726250 -2.870000
v -1.917500 4.963750 -2.800000
v -1.862500 4.963750 -2.800000
v -1.862500 4.963750 -2.870000
v -1.917500 4.963750 -2.870000
v 0.000000 2.970000 -2.850000
v 0.869400 2.970000 -2.850000
v 0.869400 2.970000 -3.100000
v 0.000000 2.970000 -3.100000
v 0.000000 5.720000 -2.850000
v 0.869400 5.720000 -2.850000
v 0.869400 5.720000 -3.100000
v 0.000000 5.720000 -3.100000
v 2.910600 2.970000 -2.850000
v 3.780000 2.970000 -2.850000
v 3.780000 2.970000 -3.100000
v 2.910600 2.970000 -3.100000
v 2.910600 5.720000 -2.850000
v 3.780000 5.720000 -2.850000
v 3.780000 5.720000 -3.100000
v 2.910600 5.720000 -3.100000
v 0.869400 2.970000 -2.850000
v 2.910600 2.970000 -2.850000
v 2.910600 2.970000 -3.100000
v 0.869400 2.970000 -3.100000
v 0.869400 3.310000 -2.850000
v 2.910600 3.310000 -2.850000
v 2.910600 3.310000 -3.100000
v 0.869400 3.310000 -3.100000
v 0.869400 5.380000 -2.850000
v 2.910600 5.380000 -2.850000
v 2.910600 5.380000 -3.100000
v 0.869400 5.380000 -3.100000
v 0.869400 5.720000 -2.850000
v 2.910600 5.720000 -2.850000
v 2.910600 5.720000 -3.100000
v 0.869400 5.720000 -3.100000
v 0.899400 3.340000 -2.965000
v 2.880600 3.340000 -2.965000
v 2.880600 3.340000 -3.060000
v 0.899400 3.340000 -3.060000
v 0.899400 5.350000 -2.965000
v 2.880600 5.350000 -2.965000
v 2.880600 5.350000 -3.060000
v 0.899400 5.350000 -3.060000
v 0.824400 3.280000 -2.320000
v 0.914400 3.280000 -2.320000
v 0.914400 3.280000 -2.440000
v 0.824400 3.280000 -2.440000
v 0.824400 5.410000 -2.320000
v 0.914400 5.410000 -2.320000
v 0.914400 5.410000 -2.440000
v 0.824400 5.410000 -2.440000
v 2.865600 3.280000 -2.320000
v 2.955600 3.280000 -2.320000
v 2.955600 3.280000 -2.440000
v 2.865600 3.280000 -2.440000
v 2.865600 5.410000 -2.320000
v 2.955600 5.410000 -2.320000
v 2.955600 5.410000 -2.440000
v 2.865600 5.410000 -2.440000
v 0.819400 3.265000 -2.320000
v 2.960600 3.265000 -2.320000
v 2.960600 3.265000 -2.440000
v 0.819400 3.265000 -2.440000
v 0.819400 3.355000 -2.320000
v 2.960600 3.355000 -2.320000
v 2.960600 3.355000 -2.440000
v 0.819400 3.355000 -2.440000
v 0.819400 5.335000 -2.320000
v 2.960600 5.335000 -2.320000
v 2.960600 5.335000 -2.440000
v 0.819400 5.335000 -2.440000
v 0.819400 5.425000 -2.320000
v 2.960600 5.425000 -2.320000
v 2.960600 5.425000 -2.440000
v 0.819400 5.425000 -2.440000
v 1.862500 3.726250 -2.800000
v 1.917500 3.726250 -2.800000
v 1.917500 3.726250 -2.870000
v 1.862500 3.726250 -2.870000
v 1.862500 4.963750 -2.800000
v 1.917500 4.963750 -2.800000
v 1.917500 4.963750 -2.870000
v 1.862500 4.963750 -2.870000
v -3.905000 2.970000 2.326500
v -3.655000 2.970000 2.326500
v -3.655000 2.970000 1.886500
v -3.905000 2.970000 1.886500
v -3.905000 5.720000 2.326500
v -3.655000 5.720000 2.326500
v -3.655000 5.720000 1.886500
v -3.905000 5.720000 1.886500
v -3.905000 2.970000 1.326500
v -3.655000 2.970000 1.326500
v -3.655000 2.970000 0.886500
v -3.905000 2.970000 0.886500
v -3.905000 5.720000 1.326500
v -3.655000 5.720000 1.326500
v -3.655000 5.720000 0.886500
v -3.905000 5.720000 0.886500
v -3.905000 2.970000 1.886500
v -3.655000 2.970000 1.886500
v -3.655000 2.970000 1.326500
v -3.905000 2.970000 1.326500
v -3.905000 3.330000 1.886500
v -3.655000 3.330000 1.886500
v -3.655000 3.330000 1.326500
v -3.905000 3.330000 1.326500
v -3.905000 5.340000 1.886500
v -3.655000 5.340000 1.886500
v -3.655000 5.340000 1.326500
v -3.905000 5.340000 1.326500
v -3.905000 5.720000 1.886500
v -3.655000 5.720000 1.886500
v -3.655000 5.720000 1.326500
v -3.905000 5.720000 1.326500
v -3.865000 3.360000 1.856500
v -3.770000 3.360000 1.856500
v -3.770000 3.360000 1.356500
v -3.865000 3.360000 1.356500
v -3.865000 5.310000 1.856500
v -3.770000 5.310000 1.856500
v -3.770000 5.310000 1.356500
v -3.865000 5.310000 1.356500
v -3.905000 2.970000 -0.886500
v -3.655000 2.970000 -0.886500
v -3.655000 2.970000 -1.326500
v -3.905000 2.970000 -1.326500
v -3.905000 5.720000 -0.886500
v -3.655000 5.720000 -0.886500
v -3.655000 5.720000 -1.326500
v -3.905000 5.720000 -1.326500
v -3.905000 2.970000 -1.886500
v -3.655000 2.970000 -1.886500
v -3.655000 2.970000 -2.326500
v -3.905000 2.970000 -2.326500
v -3.905000 5.720000 -1.886500
v -3.655000 5.720000 -1.886500
v -3.655000 5.720000 -2.326500
v -3.905000 5.720000 -2.326500
v -3.905000 2.970000 -1.326500
v -3.655000 2.970000 -1.326500
v -3.655000 2.970000 -1.886500
v -3.905000 2.970000 -1.886500
v -3.905000 3.330000 -1.326500
v -3.655000 3.330000 -1.326500
v -3.655000 3.330000 -1.886500
v -3.905000 3.330000 -1.886500
v -3.905000 5.340000 -1.326500
v -3.655000 5.340000 -1.326500
v -3.655000 5.340000 -1.886500
v -3.905000 5.340000 -1.886500
v -3.905000 5.720000 -1.326500
v -3.655000 5.720000 -1.326500
v -3.655000 5.720000 -1.886500
v -3.905000 5.720000 -1.886500
v -3.865000 3.360000 -1.356500
v -3.770000 3.360000 -1.356500
v -3.770000 3.360000 -1.856500
v -3.865000 3.360000 -1.856500
v -3.865000 5.310000 -1.356500
v -3.770000 5.310000 -1.356500
v -3.770000 5.310000 -1.856500
v -3.865000 5.310000 -1.856500
v 3.655000 2.970000 2.326500
v 3.905000 2.970000 2.326500
v 3.905000 2.970000 1.886500
v 3.655000 2.970000 1.886500
v 3.655000 5.720000 2.326500
v 3.905000 5.720000 2.326500
v 3.905000 5.720000 1.886500
v 3.655000 5.720000 1.886500
v 3.655000 2.970000 1.326500
v 3.905000 2.970000 1.326500
v 3.905000 2.970000 0.886500
v 3.655000 2.970000 0.886500
v 3.655000 5.720000 1.326500
v 3.905000 5.720000 1.326500
v 3.905000 5.720000 0.886500
v 3.655000 5.720000 0.886500
v 3.655000 2.970000 1.886500
v 3.905000 2.970000 1.886500
v 3.905000 2.970000 1.326500
v 3.655000 2.970000 1.326500
v 3.655000 3.330000 1.886500
v 3.905000 3.330000 1.886500
v 3.905000 3.330000 1.326500
v 3.655000 3.330000 1.326500
v 3.655000 5.340000 1.886500
v 3.905000 5.340000 1.886500
v 3.905000 5.340000 1.326500
v 3.655000 5.340000 1.326500
v 3.655000 5.720000 1.886500
v 3.905000 5.720000 1.886500
v 3.905000 5.720000 1.326500
v 3.655000 5.720000 1.326500
v 3.695000 3.360000 1.856500
v 3.790000 3.360000 1.856500
v 3.790000 3.360000 1.356500
v 3.695000 3.360000 1.356500
v 3.695000 5.310000 1.856500
v 3.790000 5.310000 1.856500
v 3.790000 5.310000 1.356500
v 3.695000 5.310000 1.356500
v 3.655000 2.970000 -0.886500
v 3.905000 2.970000 -0.886500
v 3.905000 2.970000 -1.326500
v 3.655000 2.970000 -1.326500
v 3.655000 5.720000 -0.886500
v 3.905000 5.720000 -0.886500
v 3.905000 5.720000 -1.326500
v 3.655000 5.720000 -1.326500
v 3.655000 2.970000 -1.886500
v 3.905000 2.970000 -1.886500
v 3.905000 2.970000 -2.326500
v 3.655000 2.970000 -2.326500
v 3.655000 5.720000 -1.886500
v 3.905000 5.720000 -1.886500
v 3.905000 5.720000 -2.326500
v 3.655000 5.720000 -2.326500
v 3.655000 2.970000 -1.326500
v 3.905000 2.970000 -1.326500
v 3.905000 2.970000 -1.886500
v 3.655000 2.970000 -1.886500
v 3.655000 3.330000 -1.326500
v 3.905000 3.330000 -1.326500
v 3.905000 3.330000 -1.886500
v 3.655000 3.330000 -1.886500
v 3.655000 5.340000 -1.326500
v 3.905000 5.340000 -1.326500
v 3.905000 5.340000 -1.886500
v 3.655000 5.340000 -1.886500
v 3.655000 5.720000 -1.326500
v 3.905000 5.720000 -1.326500
v 3.905000 5.720000 -1.886500
v 3.655000 5.720000 -1.886500
v 3.695000 3.360000 -1.356500
v 3.790000 3.360000 -1.356500
v 3.790000 3.360000 -1.856500
v 3.695000 3.360000 -1.856500
v 3.695000 5.310000 -1.356500
v 3.790000 5.310000 -1.356500
v 3.790000 5.310000 -1.856500
v 3.695000 5.310000 -1.856500
v -3.780000 5.720000 2.975000
v 3.780000 5.720000 2.975000
v 3.780000 5.720000 -2.975000
v -3.780000 5.720000 -2.975000
v -3.780000 5.960000 2.975000
v 3.780000 5.960000 2.975000
v 3.780000 5.960000 -2.975000
v -3.780000 5.960000 -2.975000
v -3.740000 5.715000 3.065000
v -0.040000 5.715000 3.065000
v -0.040000 5.715000 2.885000
v -3.740000 5.715000 2.885000
v -3.740000 6.365000 3.065000
v -0.040000 6.365000 3.065000
v -0.040000 6.365000 2.885000
v -3.740000 6.365000 2.885000
v 0.000000 5.720000 3.100000
v 0.869400 5.720000 3.100000
v 0.869400 5.720000 2.850000
v 0.000000 5.720000 2.850000
v 0.000000 8.470000 3.100000
v 0.869400 8.470000 3.100000
v 0.869400 8.470000 2.850000
v 0.000000 8.470000 2.850000
v 2.910600 5.720000 3.100000
v 3.780000 5.720000 3.100000
v 3.780000 5.720000 2.850000
v 2.910600 5.720000 2.850000
v 2.910600 8.470000 3.100000
v 3.780000 8.470000 3.100000
v 3.780000 8.470000 2.850000
v 2.910600 8.470000 2.850000
v 0.869400 5.720000 3.100000
v 2.910600 5.720000 3.100000
v 2.910600 5.720000 2.850000
v 0.869400 5.720000 2.850000
v 0.869400 6.060000 3.100000
v 2.910600 6.060000 3.100000
v 2.910600 6.060000 2.850000
v 0.869400 6.060000 2.850000
v 0.869400 8.130000 3.100000
v 2.910600 8.130000 3.100000
v 2.910600 8.130000 2.850000
v 0.869400 8.130000 2.850000
v 0.869400 8.470000 3.100000
v 2.910600 8.470000 3.100000
v 2.910600 8.470000 2.850000
v 0.869400 8.470000 2.850000
v 0.899400 6.090000 2.985000
v 2.880600 6.090000 2.985000
v 2.880600 6.090000 2.890000
v 0.899400 6.090000 2.890000
v 0.899400 8.100000 2.985000
v 2.880600 8.100000 2.985000
v 2.880600 8.100000 2.890000
v 0.899400 8.100000 2.890000
v 0.824400 6.030000 3.630000
v 0.914400 6.030000 3.630000
v 0.914400 6.030000 3.510000
v 0.824400 6.030000 3.510000
v 0.824400 8.160000 3.630000
v 0.914400 8.160000 3.630000
v 0.914400 8.160000 3.510000
v 0.824400 8.160000 3.510000
v 2.865600 6.030000 3.630000
v 2.955600 6.030000 3.630000
v 2.955600 6.030000 3.510000
v 2.865600 6.030000 3.510000
v 2.865600 8.160000 3.630000
v 2.955600 8.160000 3.630000
v 2.955600 8.160000 3.510000
v 2.865600 8.160000 3.510000
v 0.819400 6.015000 3.630000
v 2.960600 6.015000 3.630000
v 2.960600 6.015000 3.510000
v 0.819400 6.015000 3.510000
v 0.819400 6.105000 3.630000
v 2.960600 6.105000 3.630000
v 2.960600 6.105000 3.510000
v 0.819400 6.105000 3.510000
v 0.819400 8.085000 3.630000
v 2.960600 8.085000 3.630000
v 2.960600 8.085000 3.510000
v 0.819400 8.085000 3.510000
v 0.819400 8.175000 3.630000
v 2.960600 8.175000 3.630000
v 2.960600 8.175000 3.510000
v 0.819400 8.175000 3.510000
v 1.862500 6.476250 3.150000
v 1.917500 6.476250 3.150000
v 1.917500 6.476250 3.080000
v 1.862500 6.476250 3.080000
v 1.862500 7.713750 3.150000
v 1.917500 7.713750 3.150000
v 1.917500 7.713750 3.080000
v 1.862500 7.713750 3.080000
v -3.740000 5.715000 -2.885000
v -0.040000 5.715000 -2.885000
v -0.040000 5.715000 -3.065000
v -3.740000 5.715000 -3.065000
v -3.740000 6.365000 -2.885000
v -0.040000 6.365000 -2.885000
v -0.040000 6.365000 -3.065000
v -3.740000 6.365000 -3.065000
v 0.000000 5.720000 -2.850000
v 0.869400 5.720000 -2.850000
v 0.869400 5.720000 -3.100000
v 0.000000 5.720000 -3.100000
v 0.000000 8.470000 -2.850000
v 0.869400 8.470000 -2.850000
v 0.869400 8.470000 -3.100000
v 0.000000 8.470000 -3.100000
v 2.910600 5.720000 -2.850000
v 3.780000 5.720000 -2.850000
v 3.780000 5.720000 -3.100000
v 2.910600 5.720000 -3.100000
v 2.910600 8.470000 -2.850000
v 3.780000 8.470000 -2.850000
v 3.780000 8.470000 -3.100000
v 2.910600 8.470000 -3.100000
v 0.869400 5.720000 -2.850000
v 2.910600 5.720000 -2.850000
v 2.910600 5.720000 -3.100000
v 0.869400 5.720000 -3.100000
v 0.869400 6.060000 -2.850000
v 2.910600 6.060000 -2.850000
v 2.910600 6.060000 -3.100000
v 0.869400 6.060000 -3.100000
v 0.869400 8.130000 -2.850000
v 2.910600 8.130000 -2.850000
v 2.910600 8.130000 -3.100000
v 0.869400 8.130000 -3.100000
v 0.869400 8.470000 -2.850000
v 2.910600 8.470000 -2.850000
v 2.910600 8.470000 -3.100000
v 0.869400 8.470000 -3.100000
v 0.899400 6.090000 -2.965000
v 2.880600 6.090000 -2.965000
v 2.880600 6.090000 -3.060000
v 0.899400 6.090000 -3.060000
v 0.899400 8.100000 -2.965000
v 2.880600 8.100000 -2.965000
v 2.880600 8.100000 -3.060000
v 0.899400 8.100000 -3.060000
v 0.824400 6.030000 -2.320000
v 0.914400 6.030000 -2.320000
v 0.914400 6.030000 -2.440000
v 0.824400 6.030000 -2.440000
v 0.824400 8.160000 -2.320000
v 0.914400 8.160000 -2.320000
v 0.914400 8.160000 -2.440000
v 0.824400 8.160000 -2.440000
v 2.865600 6.030000 -2.320000
v 2.955600 6.030000 -2.320000
v 2.955600 6.030000 -2.440000
v 2.865600 6.030000 -2.440000
v 2.865600 8.160000 -2.320000
v 2.955600 8.160000 -2.320000
v 2.955600 8.160000 -2.440000
v 2.865600 8.160000 -2.440000
v 0.819400 6.015000 -2.320000
v 2.960600 6.015000 -2.320000
v 2.960600 6.015000 -2.440000
v 0.819400 6.015000 -2.440000
v 0.819400 6.105000 -2.320000
v 2.960600 6.105000 -2.320000
v 2.960600 6.105000 -2.440000
v 0.819400 6.105000 -2.440000
v 0.819400 8.085000 -2.320000
v 2.960600 8.085000 -2.320000
v 2.960600 8.085000 -2.440000
v 0.819400 8.085000 -2.440000
v 0.819400 8.175000 -2.320000
v 2.960600 8.175000 -2.320000
v 2.960600 8.175000 -2.440000
v 0.819400 8.175000 -2.440000
v 1.862500 6.476250 -2.800000
v 1.917500 6.476250 -2.800000
v 1.917500 6.476250 -2.870000
v 1.862500 6.476250 -2.870000
v 1.862500 7.713750 -2.800000
v 1.917500 7.713750 -2.800000
v 1.917500 7.713750 -2.870000
v 1.862500 7.713750 -2.870000
v -3.905000 5.720000 2.326500
v -3.655000 5.720000 2.326500
v -3.655000 5.720000 1.886500
v -3.905000 5.720000 1.886500
v -3.905000 8.470000 2.326500
v -3.655000 8.470000 2.326500
v -3.655000 8.470000 1.886500
v -3.905000 8.470000 1.886500
v -3.905000 5.720000 1.326500
v -3.655000 5.720000 1.326500
v -3.655000 5.720000 0.886500
v -3.905000 5.720000 0.886500
v -3.905000 8.470000 1.326500
v -3.655000 8.470000 1.326500
v -3.655000 8.470000 0.886500
v -3.905000 8.470000 0.886500
v -3.905000 5.720000 1.886500
v -3.655000 5.720000 1.886500
v -3.655000 5.720000 1.326500
v -3.905000 5.720000 1.326500
v -3.905000 6.080000 1.886500
v -3.655000 6.080000 1.886500
v -3.655000 6.080000 1.326500
v -3.905000 6.080000 1.326500
v -3.905000 8.090000 1.886500
v -3.655000 8.090000 1.886500
v -3.655000 8.090000 1.326500
v -3.905000 8.090000 1.326500
v -3.905000 8.470000 1.886500
v -3.655000 8.470000 1.886500
v -3.655000 8.470000 1.326500
v -3.905000 8.470000 1.326500
v -3.865000 6.110000 1.856500
v -3.770000 6.110000 1.856500
v -3.770000 6.110000 1.356500
v -3.865000 6.110000 1.356500
v -3.865000 8.060000 1.856500
v -3.770000 8.060000 1.856500
v -3.770000 8.060000 1.356500
v -3.865000 8.060000 1.356500
v -3.905000 5.720000 -0.886500
v -3.655000 5.720000 -0.886500
v -3.655000 5.720000 -1.326500
v -3.905000 5.720000 -1.326500
v -3.905000 8.470000 -0.886500
v -3.655000 8.470000 -0.886500
v -3.655000 8.470000 -1.326500
v -3.905000 8.470000 -1.326500
v -3.905000 5.720000 -1.886500
v -3.655000 5.720000 -1.886500
v -3.655000 5.720000 -2.326500
v -3.905000 5.720000 -2.326500
v -3.905000 8.470000 -1.886500
v -3.655000 8.470000 -1.886500
v -3.655000 8.470000 -2.326500
v -3.905000 8.470000 -2.326500
v -3.905000 5.720000 -1.326500
v -3.655000 5.720000 -1.326500
v -3.655000 5.720000 -1.886500
v -3.905000 5.720000 -1.886500
v -3.905000 6.080000 -1.326500
v -3.655000 6.080000 -1.326500
v -3.655000 6.080000 -1.886500
v -3.905000 6.080000 -1.886500
v -3.905000 8.090000 -1.326500
v -3.655000 8.090000 -1.326500
v -3.655000 8.090000 -1.886500
v -3.905000 8.090000 -1.886500
v -3.905000 8.470000 -1.326500
v -3.655000 8.470000 -1.326500
v -3.655000 8.470000 -1.886500
v -3.905000 8.470000 -1.886500
v -3.865000 6.110000 -1.356500
v -3.770000 6.110000 -1.356500
v -3.770000 6.110000 -1.856500
v -3.865000 6.110000 -1.856500
v -3.865000 8.060000 -1.356500
v -3.770000 8.060000 -1.356500
v -3.770000 8.060000 -1.856500
v -3.865000 8.060000 -1.856500
v 3.655000 5.720000 2.326500
v 3.905000 5.720000 2.326500
v 3.905000 5.720000 1.886500
v 3.655000 5.720000 1.886500
v 3.655000 8.470000 2.326500
v 3.905000 8.470000 2.326500
v 3.905000 8.470000 1.886500
v 3.655000 8.470000 1.886500
v 3.655000 5.720000 1.326500
v 3.905000 5.720000 1.326500
v 3.905000 5.720000 0.886500
v 3.655000 5.720000 0.886500
v 3.655000 8.470000 1.326500
v 3.905000 8.470000 1.326500
v 3.905000 8.470000 0.886500
v 3.655000 8.470000 0.886500
v 3.655000 5.720000 1.886500
v 3.905000 5.720000 1.886500
v 3.905000 5.720000 1.326500
v 3.655000 5.720000 1.326500
v 3.655000 6.080000 1.886500
v 3.905000 6.080000 1.886500
v 3.905000 6.080000 1.326500
v 3.655000 6.080000 1.326500
v 3.655000 8.090000 1.886500
v 3.905000 8.090000 1.886500
v 3.905000 8.090000 1.326500
v 3.655000 8.090000 1.326500
v 3.655000 8.470000 1.886500
v 3.905000 8.470000 1.886500
v 3.905000 8.470000 1.326500
v 3.655000 8.470000 1.326500
v 3.695000 6.110000 1.856500
v 3.790000 6.110000 1.856500
v 3.790000 6.110000 1.356500
v 3.695000 6.110000 1.356500
v 3.695000 8.060000 1.856500
v 3.790000 8.060000 1.856500
v 3.790000 8.060000 1.356500
v 3.695000 8.060000 1.356500
v 3.655000 5.720000 -0.886500
v 3.905000 5.720000 -0.886500
v 3.905000 5.720000 -1.326500
v 3.655000 5.720000 -1.326500
v 3.655000 8.470000 -0.886500
v 3.905000 8.470000 -0.886500
v 3.905000 8.470000 -1.326500
v 3.655000 8.470000 -1.326500
v 3.655000 5.720000 -1.886500
v 3.905000 5.720000 -1.886500
v 3.905000 5.720000 -2.326500
v 3.655000 5.720000 -2.326500
v 3.655000 8.470000 -1.886500
v 3.905000 8.470000 -1.886500
v 3.905000 8.470000 -2.326500
v 3.655000 8.470000 -2.326500
v 3.655000 5.720000 -1.326500
v 3.905000 5.720000 -1.326500
v 3.905000 5.720000 -1.886500
v 3.655000 5.720000 -1.886500
v 3.655000 6.080000 -1.326500
v 3.905000 6.080000 -1.326500
v 3.905000 6.080000 -1.886500
v 3.655000 6.080000 -1.886500
v 3.655000 8.090000 -1.326500
v 3.905000 8.090000 -1.326500
v 3.905000 8.090000 -1.886500
v 3.655000 8.090000 -1.886500
v 3.655000 8.470000 -1.326500
v 3.905000 8.470000 -1.326500
v 3.905000 8.470000 -1.886500
v 3.655000 8.470000 -1.886500
v 3.695000 6.110000 -1.356500
v 3.790000 6.110000 -1.356500
v 3.790000 6.110000 -1.856500
v 3.695000 6.110000 -1.856500
v 3.695000 8.060000 -1.356500
v 3.790000 8.060000 -1.356500
v 3.790000 8.060000 -1.856500
v 3.695000 8.060000 -1.856500
v -3.780000 8.470000 3.065000
v 3.780000 8.470000 3.065000
v 3.780000 8.470000 2.885000
v -3.780000 8.470000 2.885000
v -3.780000 9.250000 3.065000
v 3.780000 9.250000 3.065000
v 3.780000 9.250000 2.885000
v -3.780000 9.250000 2.885000
v -3.780000 8.470000 -2.885000
v 3.780000 8.470000 -2.885000
v 3.780000 8.470000 -3.065000
v -3.780000 8.470000 -3.065000
v -3.780000 9.250000 -2.885000
v 3.780000 9.250000 -2.885000
v 3.780000 9.250000 -3.065000
v -3.780000 9.250000 -3.065000
v -3.870000 8.470000 2.975000
v -3.690000 8.470000 2.975000
v -3.690000 8.470000 -2.975000
v -3.870000 8.470000 -2.975000
v -3.870000 9.250000 2.975000
v -3.690000 9.250000 2.975000
v -3.690000 9.250000 -2.975000
v -3.870000 9.250000 -2.975000
v 3.690000 8.470000 2.975000
v 3.870000 8.470000 2.975000
v 3.870000 8.470000 -2.975000
v 3.690000 8.470000 -2.975000
v 3.690000 9.250000 2.975000
v 3.870000 9.250000 2.975000
v 3.870000 9.250000 -2.975000
v 3.690000 9.250000 -2.975000
v -2.646000 8.470000 0.100000
v -0.378000 8.470000 0.100000
v -0.378000 8.470000 -0.100000
v -2.646000 8.470000 -0.100000
v -2.646000 9.370000 0.100000
v -0.378000 9.370000 0.100000
v -0.378000 9.370000 -0.100000
v -2.646000 9.370000 -0.100000
v -3.565500 1.720000 3.525000
v -3.490500 1.720000 3.525000
v -3.490500 1.720000 3.445000
v -3.565500 1.720000 3.445000
v -3.565500 4.120000 3.525000
v -3.490500 4.120000 3.525000
v -3.490500 4.120000 3.445000
v -3.565500 4.120000 3.445000
v 3.490500 1.720000 3.525000
v 3.565500 1.720000 3.525000
v 3.565500 1.720000 3.445000
v 3.490500 1.720000 3.445000
v 3.490500 4.120000 3.525000
v 3.565500 4.120000 3.525000
v 3.565500 4.120000 3.445000
v 3.490500 4.120000 3.445000
v -3.675000 3.802500 3.525000
v 3.675000 3.802500 3.525000
v 3.675000 3.802500 3.445000
v -3.675000 3.802500 3.445000
v -3.675000 3.877500 3.525000
v 3.675000 3.877500 3.525000
v 3.675000 3.877500 3.445000
v -3.675000 3.877500 3.445000
v -3.565500 4.420000 3.525000
v -3.490500 4.420000 3.525000
v -3.490500 4.420000 3.445000
v -3.565500 4.420000 3.445000
v -3.565500 6.820000 3.525000
v -3.490500 6.820000 3.525000
v -3.490500 6.820000 3.445000
v -3.565500 6.820000 3.445000
v 3.490500 4.420000 3.525000
v 3.565500 4.420000 3.525000
v 3.565500 4.420000 3.445000
v 3.490500 4.420000 3.445000
v 3.490500 6.820000 3.525000
v 3.565500 6.820000 3.525000
v 3.565500 6.820000 3.445000
v 3.490500 6.820000 3.445000
v -3.675000 6.502500 3.525000
v 3.675000 6.502500 3.525000
v 3.675000 6.502500 3.445000
v -3.675000 6.502500 3.445000
v -3.675000 6.577500 3.525000
v 3.675000 6.577500 3.525000
v 3.675000 6.577500 3.445000
v -3.675000 6.577500 3.445000
vn -0.0000 -1.0000 -0.0000
vn -0.0000 1.0000 -0.0000
vn -0.0000 -0.0000 1.0000
vn 1.0000 -0.0000 -0.0000
vn -0.0000 -0.0000 -1.0000
vn -1.0000 -0.0000 -0.0000
vt 0.219920 0.550080
vt 0.030080 0.949920
vt 0.030080 0.550080
vt 0.469920 0.050080
vt 0.280080 0.449920
vt 0.280080 0.050080
vt 0.219920 0.050080
vt 0.030080 0.449920
vt 0.030080 0.050080
vt 0.969920 0.050080
vt 0.780080 0.449920
vt 0.780080 0.050080
vt 0.719920 0.550080
vt 0.530080 0.949920
vt 0.530080 0.550080
vt 0.469920 0.550080
vt 0.280080 0.949920
vt 0.280080 0.550080
vt 0.219920 0.949920
vt 0.469920 0.449920
vt 0.219920 0.449920
vt 0.969920 0.449920
vt 0.719920 0.949920
vt 0.469920 0.949920
s 0
f 4/1/1 2/2/1 1/3/1
f 6/1/2 8/2/2 5/3/2
f 2/1/3 5/2/3 1/3/3
f 3/1/4 6/2/4 2/3/4
f 4/1/5 7/2/5 3/3/5
f 1/1/6 8/2/6 4/3/6
f 12/4/1 10/5/1 9/6/1
f 14/4/2 16/5/2 13/6/2
f 10/4/3 13/5/3 9/6/3
f 11/4/4 14/5/4 10/6/4
f 12/4/5 15/5/5 11/6/5
f 9/4/6 16/5/6 12/6/6
f 20/4/1 18/5/1 17/6/1
f 22/4/2 24/5/2 21/6/2
f 18/4/3 21/5/3 17/6/3
f 19/4/4 22/5/4 18/6/4
f 20/4/5 23/5/5 19/6/5
f 17/4/6 24/5/6 20/6/6
f 28/4/1 26/5/1 25/6/1
f 30/4/2 32/5/2 29/6/2
f 26/4/3 29/5/3 25/6/3
f 27/4/4 30/5/4 26/6/4
f 28/4/5 31/5/5 27/6/5
f 25/4/6 32/5/6 28/6/6
f 36/4/1 34/5/1 33/6/1
f 38/4/2 40/5/2 37/6/2
f 34/4/3 37/5/3 33/6/3
f 35/4/4 38/5/4 34/6/4
f 36/4/5 39/5/5 35/6/5
f 33/4/6 40/5/6 36/6/6
f 44/1/1 42/2/1 41/3/1
f 46/1/2 48/2/2 45/3/2
f 42/1/3 45/2/3 41/3/3
f 43/1/4 46/2/4 42/3/4
f 44/1/5 47/2/5 43/3/5
f 41/1/6 48/2/6 44/3/6
f 52/7/1 50/8/1 49/9/1
f 54/7/2 56/8/2 53/9/2
f 50/7/3 53/8/3 49/9/3
f 51/7/4 54/8/4 50/9/4
f 52/7/5 55/8/5 51/9/5
f 49/7/6 56/8/6 52/9/6
f 60/7/1 58/8/1 57/9/1
f 62/7/2 64/8/2 61/9/2
f 58/7/3 61/8/3 57/9/3
f 59/7/4 62/8/4 58/9/4
f 60/7/5 63/8/5 59/9/5
f 57/7/6 64/8/6 60/9/6
f 68/7/1 66/8/1 65/9/1
f 70/7/2 72/8/2 69/9/2
f 66/7/3 69/8/3 65/9/3
f 67/7/4 70/8/4 66/9/4
f 68/7/5 71/8/5 67/9/5
f 65/7/6 72/8/6 68/9/6
f 76/7/1 74/8/1 73/9/1
f 78/7/2 80/8/2 77/9/2
f 74/7/3 77/8/3 73/9/3
f 75/7/4 78/8/4 74/9/4
f 76/7/5 79/8/5 75/9/5
f 73/7/6 80/8/6 76/9/6
f 84/10/1 82/11/1 81/12/1
f 86/10/2 88/11/2 85/12/2
f 82/10/3 85/11/3 81/12/3
f 83/10/4 86/11/4 82/12/4
f 84/10/5 87/11/5 83/12/5
f 81/10/6 88/11/6 84/12/6
f 92/7/1 90/8/1 89/9/1
f 94/7/2 96/8/2 93/9/2
f 90/7/3 93/8/3 89/9/3
f 91/7/4 94/8/4 90/9/4
f 92/7/5 95/8/5 91/9/5
f 89/7/6 96/8/6 92/9/6
f 100/7/1 98/8/1 97/9/1
f 102/7/2 104/8/2 101/9/2
f 98/7/3 101/8/3 97/9/3
f 99/7/4 102/8/4 98/9/4
f 100/7/5 103/8/5 99/9/5
f 97/7/6 104/8/6 100/9/6
f 108/7/1 106/8/1 105/9/1
f 110/7/2 112/8/2 109/9/2
f 106/7/3 109/8/3 105/9/3
f 107/7/4 110/8/4 106/9/4
f 108/7/5 111/8/5 107/9/5
f 105/7/6 112/8/6 108/9/6
f 116/7/1 114/8/1 113/9/1
f 118/7/2 120/8/2 117/9/2
f 114/7/3 117/8/3 113/9/3
f 115/7/4 118/8/4 114/9/4
f 116/7/5 119/8/5 115/9/5
f 113/7/6 120/8/6 116/9/6
f 124/13/1 122/14/1 121/15/1
f 126/13/2 128/14/2 125/15/2
f 122/13/3 125/14/3 121/15/3
f 123/13/4 126/14/4 122/15/4
f 124/13/5 127/14/5 123/15/5
f 121/13/6 128/14/6 124/15/6
f 132/16/1 130/17/1 129/18/1
f 134/16/2 136/17/2 133/18/2
f 130/16/3 133/17/3 129/18/3
f 131/16/4 134/17/4 130/18/4
f 132/16/5 135/17/5 131/18/5
f 129/16/6 136/17/6 132/18/6
f 140/7/1 138/8/1 137/9/1
f 142/7/2 144/8/2 141/9/2
f 138/7/3 141/8/3 137/9/3
f 139/7/4 142/8/4 138/9/4
f 140/7/5 143/8/5 139/9/5
f 137/7/6 144/8/6 140/9/6
f 148/7/1 146/8/1 145/9/1
f 150/7/2 152/8/2 149/9/2
f 146/7/3 149/8/3 145/9/3
f 147/7/4 150/8/4 146/9/4
f 148/7/5 151/8/5 147/9/5
f 145/7/6 152/8/6 148/9/6
f 156/7/1 154/8/1 153/9/1
f 158/7/2 160/8/2 157/9/2
f 154/7/3 157/8/3 153/9/3
f 155/7/4 158/8/4 154/9/4
f 156/7/5 159/8/5 155/9/5
f 153/7/6 160/8/6 156/9/6
f 164/7/1 162/8/1 161/9/1
f 166/7/2 168/8/2 165/9/2
f 162/7/3 165/8/3 161/9/3
f 163/7/4 166/8/4 162/9/4
f 164/7/5 167/8/5 163/9/5
f 161/7/6 168/8/6 164/9/6
f 172/10/1 170/11/1 169/12/1
f 174/10/2 176/11/2 173/12/2
f 170/10/3 173/11/3 169/12/3
f 171/10/4 174/11/4 170/12/4
f 172/10/5 175/11/5 171/12/5
f 169/10/6 176/11/6 172/12/6
f 180/7/1 178/8/1 177/9/1
f 182/7/2 184/8/2 181/9/2
f 178/7/3 181/8/3 177/9/3
f 179/7/4 182/8/4 178/9/4
f 180/7/5 183/8/5 179/9/5
f 177/7/6 184/8/6 180/9/6
f 188/7/1 186/8/1 185/9/1
f 190/7/2 192/8/2 189/9/2
f 186/7/3 189/8/3 185/9/3
f 187/7/4 190/8/4 186/9/4
f 188/7/5 191/8/5 187/9/5
f 185/7/6 192/8/6 188/9/6
f 196/7/1 194/8/1 193/9/1
f 198/7/2 200/8/2 197/9/2
f 194/7/3 197/8/3 193/9/3
f 195/7/4 198/8/4 194/9/4
f 196/7/5 199/8/5 195/9/5
f 193/7/6 200/8/6 196/9/6
f 204/7/1 202/8/1 201/9/1
f 206/7/2 208/8/2 205/9/2
f 202/7/3 205/8/3 201/9/3
f 203/7/4 206/8/4 202/9/4
f 204/7/5 207/8/5 203/9/5
f 201/7/6 208/8/6 204/9/6
f 212/13/1 210/14/1 209/15/1
f 214/13/2 216/14/2 213/15/2
f 210/13/3 213/14/3 209/15/3
f 211/13/4 214/14/4 210/15/4
f 212/13/5 215/14/5 211/15/5
f 209/13/6 216/14/6 212/15/6
f 220/16/1 218/17/1 217/18/1
f 222/16/2 224/17/2 221/18/2
f 218/16/3 221/17/3 217/18/3
f 219/16/4 222/17/4 218/18/4
f 220/16/5 223/17/5 219/18/5
f 217/16/6 224/17/6 220/18/6
f 228/7/1 226/8/1 225/9/1
f 230/7/2 232/8/2 229/9/2
f 226/7/3 229/8/3 225/9/3
f 227/7/4 230/8/4 226/9/4
f 228/7/5 231/8/5 227/9/5
f 225/7/6 232/8/6 228/9/6
f 236/7/1 234/8/1 233/9/1
f 238/7/2 240/8/2 237/9/2
f 234/7/3 237/8/3 233/9/3
f 235/7/4 238/8/4 234/9/4
f 236/7/5 239/8/5 235/9/5
f 233/7/6 240/8/6 236/9/6
f 244/7/1 242/8/1 241/9/1
f 246/7/2 248/8/2 245/9/2
f 242/7/3 245/8/3 241/9/3
f 243/7/4 246/8/4 242/9/4
f 244/7/5 247/8/5 243/9/5
f 241/7/6 248/8/6 244/9/6
f 252/7/1 250/8/1 249/9/1
f 254/7/2 256/8/2 253/9/2
f 250/7/3 253/8/3 249/9/3
f 251/7/4 254/8/4 250/9/4
f 252/7/5 255/8/5 251/9/5
f 249/7/6 256/8/6 252/9/6
f 260/10/1 258/11/1 257/12/1
f 262/10/2 264/11/2 261/12/2
f 258/10/3 261/11/3 257/12/3
f 259/10/4 262/11/4 258/12/4
f 260/10/5 263/11/5 259/12/5
f 257/10/6 264/11/6 260/12/6
f 268/7/1 266/8/1 265/9/1
f 270/7/2 272/8/2 269/9/2
f 266/7/3 269/8/3 265/9/3
f 267/7/4 270/8/4 266/9/4
f 268/7/5 271/8/5 267/9/5
f 265/7/6 272/8/6 268/9/6
f 276/7/1 274/8/1 273/9/1
f 278/7/2 280/8/2 277/9/2
f 274/7/3 277/8/3 273/9/3
f 275/7/4 278/8/4 274/9/4
f 276/7/5 279/8/5 275/9/5
f 273/7/6 280/8/6 276/9/6
f 284/7/1 282/8/1 281/9/1
f 286/7/2 288/8/2 285/9/2
f 282/7/3 285/8/3 281/9/3
f 283/7/4 286/8/4 282/9/4
f 284/7/5 287/8/5 283/9/5
f 281/7/6 288/8/6 284/9/6
f 292/7/1 290/8/1 289/9/1
f 294/7/2 296/8/2 293/9/2
f 290/7/3 293/8/3 289/9/3
f 291/7/4 294/8/4 290/9/4
f 292/7/5 295/8/5 291/9/5
f 289/7/6 296/8/6 292/9/6
f 300/10/1 298/11/1 297/12/1
f 302/10/2 304/11/2 301/12/2
f 298/10/3 301/11/3 297/12/3
f 299/10/4 302/11/4 298/12/4
f 300/10/5 303/11/5 299/12/5
f 297/10/6 304/11/6 300/12/6
f 308/7/1 306/8/1 305/9/1
f 310/7/2 312/8/2 309/9/2
f 306/7/3 309/8/3 305/9/3
f 307/7/4 310/8/4 306/9/4
f 308/7/5 311/8/5 307/9/5
f 305/7/6 312/8/6 308/9/6
f 316/7/1 314/8/1 313/9/1
f 318/7/2 320/8/2 317/9/2
f 314/7/3 317/8/3 313/9/3
f 315/7/4 318/8/4 314/9/4
f 316/7/5 319/8/5 315/9/5
f 313/7/6 320/8/6 316/9/6
f 324/7/1 322/8/1 321/9/1
f 326/7/2 328/8/2 325/9/2
f 322/7/3 325/8/3 321/9/3
f 323/7/4 326/8/4 322/9/4
f 324/7/5 327/8/5 323/9/5
f 321/7/6 328/8/6 324/9/6
f 332/7/1 330/8/1 329/9/1
f 334/7/2 336/8/2 333/9/2
f 330/7/3 333/8/3 329/9/3
f 331/7/4 334/8/4 330/9/4
f 332/7/5 335/8/5 331/9/5
f 329/7/6 336/8/6 332/9/6
f 340/10/1 338/11/1 337/12/1
f 342/10/2 344/11/2 341/12/2
f 338/10/3 341/11/3 337/12/3
f 339/10/4 342/11/4 338/12/4
f 340/10/5 343/11/5 339/12/5
f 337/10/6 344/11/6 340/12/6
f 348/7/1 346/8/1 345/9/1
f 350/7/2 352/8/2 349/9/2
f 346/7/3 349/8/3 345/9/3
f 347/7/4 350/8/4 346/9/4
f 348/7/5 351/8/5 347/9/5
f 345/7/6 352/8/6 348/9/6
f 356/7/1 354/8/1 353/9/1
f 358/7/2 360/8/2 357/9/2
f 354/7/3 357/8/3 353/9/3
f 355/7/4 358/8/4 354/9/4
f 356/7/5 359/8/5 355/9/5
f 353/7/6 360/8/6 356/9/6
f 364/7/1 362/8/1 361/9/1
f 366/7/2 368/8/2 365/9/2
f 362/7/3 365/8/3 361/9/3
f 363/7/4 366/8/4 362/9/4
f 364/7/5 367/8/5 363/9/5
f 361/7/6 368/8/6 364/9/6
f 372/7/1 370/8/1 369/9/1
f 374/7/2 376/8/2 373/9/2
f 370/7/3 373/8/3 369/9/3
f 371/7/4 374/8/4 370/9/4
f 372/7/5 375/8/5 371/9/5
f 369/7/6 376/8/6 372/9/6
f 380/10/1 378/11/1 377/12/1
f 382/10/2 384/11/2 381/12/2
f 378/10/3 381/11/3 377/12/3
f 379/10/4 382/11/4 378/12/4
f 380/10/5 383/11/5 379/12/5
f 377/10/6 384/11/6 380/12/6
f 388/1/1 386/2/1 385/3/1
f 390/1/2 392/2/2 389/3/2
f 386/1/3 389/2/3 385/3/3
f 387/1/4 390/2/4 386/3/4
f 388/1/5 391/2/5 387/3/5
f 385/1/6 392/2/6 388/3/6
f 396/7/1 394/8/1 393/9/1
f 398/7/2 400/8/2 397/9/2
f 394/7/3 397/8/3 393/9/3
f 395/7/4 398/8/4 394/9/4
f 396/7/5 399/8/5 395/9/5
f 393/7/6 400/8/6 396/9/6
f 404/7/1 402/8/1 401/9/1
f 406/7/2 408/8/2 405/9/2
f 402/7/3 405/8/3 401/9/3
f 403/7/4 406/8/4 402/9/4
f 404/7/5 407/8/5 403/9/5
f 401/7/6 408/8/6 404/9/6
f 412/7/1 410/8/1 409/9/1
f 414/7/2 416/8/2 413/9/2
f 410/7/3 413/8/3 409/9/3
f 411/7/4 414/8/4 410/9/4
f 412/7/5 415/8/5 411/9/5
f 409/7/6 416/8/6 412/9/6
f 420/7/1 418/8/1 417/9/1
f 422/7/2 424/8/2 421/9/2
f 418/7/3 421/8/3 417/9/3
f 419/7/4 422/8/4 418/9/4
f 420/7/5 423/8/5 419/9/5
f 417/7/6 424/8/6 420/9/6
f 428/10/1 426/11/1 425/12/1
f 430/10/2 432/11/2 429/12/2
f 426/10/3 429/11/3 425/12/3
f 427/10/4 430/11/4 426/12/4
f 428/10/5 431/11/5 427/12/5
f 425/10/6 432/11/6 428/12/6
f 436/7/1 434/8/1 433/9/1
f 438/7/2 440/8/2 437/9/2
f 434/7/3 437/8/3 433/9/3
f 435/7/4 438/8/4 434/9/4
f 436/7/5 439/8/5 435/9/5
f 433/7/6 440/8/6 436/9/6
f 444/7/1 442/8/1 441/9/1
f 446/7/2 448/8/2 445/9/2
f 442/7/3 445/8/3 441/9/3
f 443/7/4 446/8/4 442/9/4
f 444/7/5 447/8/5 443/9/5
f 441/7/6 448/8/6 444/9/6
f 452/7/1 450/8/1 449/9/1
f 454/7/2 456/8/2 453/9/2
f 450/7/3 453/8/3 449/9/3
f 451/7/4 454/8/4 450/9/4
f 452/7/5 455/8/5 451/9/5
f 449/7/6 456/8/6 452/9/6
f 460/7/1 458/8/1 457/9/1
f 462/7/2 464/8/2 461/9/2
f 458/7/3 461/8/3 457/9/3
f 459/7/4 462/8/4 458/9/4
f 460/7/5 463/8/5 459/9/5
f 457/7/6 464/8/6 460/9/6
f 468/13/1 466/14/1 465/15/1
f 470/13/2 472/14/2 469/15/2
f 466/13/3 469/14/3 465/15/3
f 467/13/4 470/14/4 466/15/4
f 468/13/5 471/14/5 467/15/5
f 465/13/6 472/14/6 468/15/6
f 476/7/1 474/8/1 473/9/1
f 478/7/2 480/8/2 477/9/2
f 474/7/3 477/8/3 473/9/3
f 475/7/4 478/8/4 474/9/4
f 476/7/5 479/8/5 475/9/5
f 473/7/6 480/8/6 476/9/6
f 484/7/1 482/8/1 481/9/1
f 486/7/2 488/8/2 485/9/2
f 482/7/3 485/8/3 481/9/3
f 483/7/4 486/8/4 482/9/4
f 484/7/5 487/8/5 483/9/5
f 481/7/6 488/8/6 484/9/6
f 492/7/1 490/8/1 489/9/1
f 494/7/2 496/8/2 493/9/2
f 490/7/3 493/8/3 489/9/3
f 491/7/4 494/8/4 490/9/4
f 492/7/5 495/8/5 491/9/5
f 489/7/6 496/8/6 492/9/6
f 500/7/1 498/8/1 497/9/1
f 502/7/2 504/8/2 501/9/2
f 498/7/3 501/8/3 497/9/3
f 499/7/4 502/8/4 498/9/4
f 500/7/5 503/8/5 499/9/5
f 497/7/6 504/8/6 500/9/6
f 508/10/1 506/11/1 505/12/1
f 510/10/2 512/11/2 509/12/2
f 506/10/3 509/11/3 505/12/3
f 507/10/4 510/11/4 506/12/4
f 508/10/5 511/11/5 507/12/5
f 505/10/6 512/11/6 508/12/6
f 516/7/1 514/8/1 513/9/1
f 518/7/2 520/8/2 517/9/2
f 514/7/3 517/8/3 513/9/3
f 515/7/4 518/8/4 514/9/4
f 516/7/5 519/8/5 515/9/5
f 513/7/6 520/8/6 516/9/6
f 524/7/1 522/8/1 521/9/1
f 526/7/2 528/8/2 525/9/2
f 522/7/3 525/8/3 521/9/3
f 523/7/4 526/8/4 522/9/4
f 524/7/5 527/8/5 523/9/5
f 521/7/6 528/8/6 524/9/6
f 532/7/1 530/8/1 529/9/1
f 534/7/2 536/8/2 533/9/2
f 530/7/3 533/8/3 529/9/3
f 531/7/4 534/8/4 530/9/4
f 532/7/5 535/8/5 531/9/5
f 529/7/6 536/8/6 532/9/6
f 540/7/1 538/8/1 537/9/1
f 542/7/2 544/8/2 541/9/2
f 538/7/3 541/8/3 537/9/3
f 539/7/4 542/8/4 538/9/4
f 540/7/5 543/8/5 539/9/5
f 537/7/6 544/8/6 540/9/6
f 548/13/1 546/14/1 545/15/1
f 550/13/2 552/14/2 549/15/2
f 546/13/3 549/14/3 545/15/3
f 547/13/4 550/14/4 546/15/4
f 548/13/5 551/14/5 547/15/5
f 545/13/6 552/14/6 548/15/6
f 556/7/1 554/8/1 553/9/1
f 558/7/2 560/8/2 557/9/2
f 554/7/3 557/8/3 553/9/3
f 555/7/4 558/8/4 554/9/4
f 556/7/5 559/8/5 555/9/5
f 553/7/6 560/8/6 556/9/6
f 564/7/1 562/8/1 561/9/1
f 566/7/2 568/8/2 565/9/2
f 562/7/3 565/8/3 561/9/3
f 563/7/4 566/8/4 562/9/4
f 564/7/5 567/8/5 563/9/5
f 561/7/6 568/8/6 564/9/6
f 572/7/1 570/8/1 569/9/1
f 574/7/2 576/8/2 573/9/2
f 570/7/3 573/8/3 569/9/3
f 571/7/4 574/8/4 570/9/4
f 572/7/5 575/8/5 571/9/5
f 569/7/6 576/8/6 572/9/6
f 580/7/1 578/8/1 577/9/1
f 582/7/2 584/8/2 581/9/2
f 578/7/3 581/8/3 577/9/3
f 579/7/4 582/8/4 578/9/4
f 580/7/5 583/8/5 579/9/5
f 577/7/6 584/8/6 580/9/6
f 588/10/1 586/11/1 585/12/1
f 590/10/2 592/11/2 589/12/2
f 586/10/3 589/11/3 585/12/3
f 587/10/4 590/11/4 586/12/4
f 588/10/5 591/11/5 587/12/5
f 585/10/6 592/11/6 588/12/6
f 596/7/1 594/8/1 593/9/1
f 598/7/2 600/8/2 597/9/2
f 594/7/3 597/8/3 593/9/3
f 595/7/4 598/8/4 594/9/4
f 596/7/5 599/8/5 595/9/5
f 593/7/6 600/8/6 596/9/6
f 604/7/1 602/8/1 601/9/1
f 606/7/2 608/8/2 605/9/2
f 602/7/3 605/8/3 601/9/3
f 603/7/4 606/8/4 602/9/4
f 604/7/5 607/8/5 603/9/5
f 601/7/6 608/8/6 604/9/6
f 612/7/1 610/8/1 609/9/1
f 614/7/2 616/8/2 613/9/2
f 610/7/3 613/8/3 609/9/3
f 611/7/4 614/8/4 610/9/4
f 612/7/5 615/8/5 611/9/5
f 609/7/6 616/8/6 612/9/6
f 620/7/1 618/8/1 617/9/1
f 622/7/2 624/8/2 621/9/2
f 618/7/3 621/8/3 617/9/3
f 619/7/4 622/8/4 618/9/4
f 620/7/5 623/8/5 619/9/5
f 617/7/6 624/8/6 620/9/6
f 628/13/1 626/14/1 625/15/1
f 630/13/2 632/14/2 629/15/2
f 626/13/3 629/14/3 625/15/3
f 627/13/4 630/14/4 626/15/4
f 628/13/5 631/14/5 627/15/5
f 625/13/6 632/14/6 628/15/6
f 636/7/1 634/8/1 633/9/1
f 638/7/2 640/8/2 637/9/2
f 634/7/3 637/8/3 633/9/3
f 635/7/4 638/8/4 634/9/4
f 636/7/5 639/8/5 635/9/5
f 633/7/6 640/8/6 636/9/6
f 644/7/1 642/8/1 641/9/1
f 646/7/2 648/8/2 645/9/2
f 642/7/3 645/8/3 641/9/3
f 643/7/4 646/8/4 642/9/4
f 644/7/5 647/8/5 643/9/5
f 641/7/6 648/8/6 644/9/6
f 652/7/1 650/8/1 649/9/1
f 654/7/2 656/8/2 653/9/2
f 650/7/3 653/8/3 649/9/3
f 651/7/4 654/8/4 650/9/4
f 652/7/5 655/8/5 651/9/5
f 649/7/6 656/8/6 652/9/6
f 660/7/1 658/8/1 657/9/1
f 662/7/2 664/8/2 661/9/2
f 658/7/3 661/8/3 657/9/3
f 659/7/4 662/8/4 658/9/4
f 660/7/5 663/8/5 659/9/5
f 657/7/6 664/8/6 660/9/6
f 668/10/1 666/11/1 665/12/1
f 670/10/2 672/11/2 669/12/2
f 666/10/3 669/11/3 665/12/3
f 667/10/4 670/11/4 666/12/4
f 668/10/5 671/11/5 667/12/5
f 665/10/6 672/11/6 668/12/6
f 676/7/1 674/8/1 673/9/1
f 678/7/2 680/8/2 677/9/2
f 674/7/3 677/8/3 673/9/3
f 675/7/4 678/8/4 674/9/4
f 676/7/5 679/8/5 675/9/5
f 673/7/6 680/8/6 676/9/6
f 684/7/1 682/8/1 681/9/1
f 686/7/2 688/8/2 685/9/2
f 682/7/3 685/8/3 681/9/3
f 683/7/4 686/8/4 682/9/4
f 684/7/5 687/8/5 683/9/5
f 681/7/6 688/8/6 684/9/6
f 692/7/1 690/8/1 689/9/1
f 694/7/2 696/8/2 693/9/2
f 690/7/3 693/8/3 689/9/3
f 691/7/4 694/8/4 690/9/4
f 692/7/5 695/8/5 691/9/5
f 689/7/6 696/8/6 692/9/6
f 700/7/1 698/8/1 697/9/1
f 702/7/2 704/8/2 701/9/2
f 698/7/3 701/8/3 697/9/3
f 699/7/4 702/8/4 698/9/4
f 700/7/5 703/8/5 699/9/5
f 697/7/6 704/8/6 700/9/6
f 708/13/1 706/14/1 705/15/1
f 710/13/2 712/14/2 709/15/2
f 706/13/3 709/14/3 705/15/3
f 707/13/4 710/14/4 706/15/4
f 708/13/5 711/14/5 707/15/5
f 705/13/6 712/14/6 708/15/6
f 716/7/1 714/8/1 713/9/1
f 718/7/2 720/8/2 717/9/2
f 714/7/3 717/8/3 713/9/3
f 715/7/4 718/8/4 714/9/4
f 716/7/5 719/8/5 715/9/5
f 713/7/6 720/8/6 716/9/6
f 724/7/1 722/8/1 721/9/1
f 726/7/2 728/8/2 725/9/2
f 722/7/3 725/8/3 721/9/3
f 723/7/4 726/8/4 722/9/4
f 724/7/5 727/8/5 723/9/5
f 721/7/6 728/8/6 724/9/6
f 732/7/1 730/8/1 729/9/1
f 734/7/2 736/8/2 733/9/2
f 730/7/3 733/8/3 729/9/3
f 731/7/4 734/8/4 730/9/4
f 732/7/5 735/8/5 731/9/5
f 729/7/6 736/8/6 732/9/6
f 740/7/1 738/8/1 737/9/1
f 742/7/2 744/8/2 741/9/2
f 738/7/3 741/8/3 737/9/3
f 739/7/4 742/8/4 738/9/4
f 740/7/5 743/8/5 739/9/5
f 737/7/6 744/8/6 740/9/6
f 748/10/1 746/11/1 745/12/1
f 750/10/2 752/11/2 749/12/2
f 746/10/3 749/11/3 745/12/3
f 747/10/4 750/11/4 746/12/4
f 748/10/5 751/11/5 747/12/5
f 745/10/6 752/11/6 748/12/6
f 756/7/1 754/8/1 753/9/1
f 758/7/2 760/8/2 757/9/2
f 754/7/3 757/8/3 753/9/3
f 755/7/4 758/8/4 754/9/4
f 756/7/5 759/8/5 755/9/5
f 753/7/6 760/8/6 756/9/6
f 764/7/1 762/8/1 761/9/1
f 766/7/2 768/8/2 765/9/2
f 762/7/3 765/8/3 761/9/3
f 763/7/4 766/8/4 762/9/4
f 764/7/5 767/8/5 763/9/5
f 761/7/6 768/8/6 764/9/6
f 772/7/1 770/8/1 769/9/1
f 774/7/2 776/8/2 773/9/2
f 770/7/3 773/8/3 769/9/3
f 771/7/4 774/8/4 770/9/4
f 772/7/5 775/8/5 771/9/5
f 769/7/6 776/8/6 772/9/6
f 780/7/1 778/8/1 777/9/1
f 782/7/2 784/8/2 781/9/2
f 778/7/3 781/8/3 777/9/3
f 779/7/4 782/8/4 778/9/4
f 780/7/5 783/8/5 779/9/5
f 777/7/6 784/8/6 780/9/6
f 788/10/1 786/11/1 785/12/1
f 790/10/2 792/11/2 789/12/2
f 786/10/3 789/11/3 785/12/3
f 787/10/4 790/11/4 786/12/4
f 788/10/5 791/11/5 787/12/5
f 785/10/6 792/11/6 788/12/6
f 796/7/1 794/8/1 793/9/1
f 798/7/2 800/8/2 797/9/2
f 794/7/3 797/8/3 793/9/3
f 795/7/4 798/8/4 794/9/4
f 796/7/5 799/8/5 795/9/5
f 793/7/6 800/8/6 796/9/6
f 804/7/1 802/8/1 801/9/1
f 806/7/2 808/8/2 805/9/2
f 802/7/3 805/8/3 801/9/3
f 803/7/4 806/8/4 802/9/4
f 804/7/5 807/8/5 803/9/5
f 801/7/6 808/8/6 804/9/6
f 812/7/1 810/8/1 809/9/1
f 814/7/2 816/8/2 813/9/2
f 810/7/3 813/8/3 809/9/3
f 811/7/4 814/8/4 810/9/4
f 812/7/5 815/8/5 811/9/5
f 809/7/6 816/8/6 812/9/6
f 820/7/1 818/8/1 817/9/1
f 822/7/2 824/8/2 821/9/2
f 818/7/3 821/8/3 817/9/3
f 819/7/4 822/8/4 818/9/4
f 820/7/5 823/8/5 819/9/5
f 817/7/6 824/8/6 820/9/6
f 828/10/1 826/11/1 825/12/1
f 830/10/2 832/11/2 829/12/2
f 826/10/3 829/11/3 825/12/3
f 827/10/4 830/11/4 826/12/4
f 828/10/5 831/11/5 827/12/5
f 825/10/6 832/11/6 828/12/6
f 836/7/1 834/8/1 833/9/1
f 838/7/2 840/8/2 837/9/2
f 834/7/3 837/8/3 833/9/3
f 835/7/4 838/8/4 834/9/4
f 836/7/5 839/8/5 835/9/5
f 833/7/6 840/8/6 836/9/6
f 844/7/1 842/8/1 841/9/1
f 846/7/2 848/8/2 845/9/2
f 842/7/3 845/8/3 841/9/3
f 843/7/4 846/8/4 842/9/4
f 844/7/5 847/8/5 843/9/5
f 841/7/6 848/8/6 844/9/6
f 852/7/1 850/8/1 849/9/1
f 854/7/2 856/8/2 853/9/2
f 850/7/3 853/8/3 849/9/3
f 851/7/4 854/8/4 850/9/4
f 852/7/5 855/8/5 851/9/5
f 849/7/6 856/8/6 852/9/6
f 860/7/1 858/8/1 857/9/1
f 862/7/2 864/8/2 861/9/2
f 858/7/3 861/8/3 857/9/3
f 859/7/4 862/8/4 858/9/4
f 860/7/5 863/8/5 859/9/5
f 857/7/6 864/8/6 860/9/6
f 868/10/1 866/11/1 865/12/1
f 870/10/2 872/11/2 869/12/2
f 866/10/3 869/11/3 865/12/3
f 867/10/4 870/11/4 866/12/4
f 868/10/5 871/11/5 867/12/5
f 865/10/6 872/11/6 868/12/6
f 876/1/1 874/2/1 873/3/1
f 878/1/2 880/2/2 877/3/2
f 874/1/3 877/2/3 873/3/3
f 875/1/4 878/2/4 874/3/4
f 876/1/5 879/2/5 875/3/5
f 873/1/6 880/2/6 876/3/6
f 884/16/1 882/17/1 881/18/1
f 886/16/2 888/17/2 885/18/2
f 882/16/3 885/17/3 881/18/3
f 883/16/4 886/17/4 882/18/4
f 884/16/5 887/17/5 883/18/5
f 881/16/6 888/17/6 884/18/6
f 892/7/1 890/8/1 889/9/1
f 894/7/2 896/8/2 893/9/2
f 890/7/3 893/8/3 889/9/3
f 891/7/4 894/8/4 890/9/4
f 892/7/5 895/8/5 891/9/5
f 889/7/6 896/8/6 892/9/6
f 900/7/1 898/8/1 897/9/1
f 902/7/2 904/8/2 901/9/2
f 898/7/3 901/8/3 897/9/3
f 899/7/4 902/8/4 898/9/4
f 900/7/5 903/8/5 899/9/5
f 897/7/6 904/8/6 900/9/6
f 908/7/1 906/8/1 905/9/1
f 910/7/2 912/8/2 909/9/2
f 906/7/3 909/8/3 905/9/3
f 907/7/4 910/8/4 906/9/4
f 908/7/5 911/8/5 907/9/5
f 905/7/6 912/8/6 908/9/6
f 916/7/1 914/8/1 913/9/1
f 918/7/2 920/8/2 917/9/2
f 914/7/3 917/8/3 913/9/3
f 915/7/4 918/8/4 914/9/4
f 916/7/5 919/8/5 915/9/5
f 913/7/6 920/8/6 916/9/6
f 924/10/1 922/11/1 921/12/1
f 926/10/2 928/11/2 925/12/2
f 922/10/3 925/11/3 921/12/3
f 923/10/4 926/11/4 922/12/4
f 924/10/5 927/11/5 923/12/5
f 921/10/6 928/11/6 924/12/6
f 932/7/1 930/8/1 929/9/1
f 934/7/2 936/8/2 933/9/2
f 930/7/3 933/8/3 929/9/3
f 931/7/4 934/8/4 930/9/4
f 932/7/5 935/8/5 931/9/5
f 929/7/6 936/8/6 932/9/6
f 940/7/1 938/8/1 937/9/1
f 942/7/2 944/8/2 941/9/2
f 938/7/3 941/8/3 937/9/3
f 939/7/4 942/8/4 938/9/4
f 940/7/5 943/8/5 939/9/5
f 937/7/6 944/8/6 940/9/6
f 948/7/1 946/8/1 945/9/1
f 950/7/2 952/8/2 949/9/2
f 946/7/3 949/8/3 945/9/3
f 947/7/4 950/8/4 946/9/4
f 948/7/5 951/8/5 947/9/5
f 945/7/6 952/8/6 948/9/6
f 956/7/1 954/8/1 953/9/1
f 958/7/2 960/8/2 957/9/2
f 954/7/3 957/8/3 953/9/3
f 955/7/4 958/8/4 954/9/4
f 956/7/5 959/8/5 955/9/5
f 953/7/6 960/8/6 956/9/6
f 964/13/1 962/14/1 961/15/1
f 966/13/2 968/14/2 965/15/2
f 962/13/3 965/14/3 961/15/3
f 963/13/4 966/14/4 962/15/4
f 964/13/5 967/14/5 963/15/5
f 961/13/6 968/14/6 964/15/6
f 972/16/1 970/17/1 969/18/1
f 974/16/2 976/17/2 973/18/2
f 970/16/3 973/17/3 969/18/3
f 971/16/4 974/17/4 970/18/4
f 972/16/5 975/17/5 971/18/5
f 969/16/6 976/17/6 972/18/6
f 980/7/1 978/8/1 977/9/1
f 982/7/2 984/8/2 981/9/2
f 978/7/3 981/8/3 977/9/3
f 979/7/4 982/8/4 978/9/4
f 980/7/5 983/8/5 979/9/5
f 977/7/6 984/8/6 980/9/6
f 988/7/1 986/8/1 985/9/1
f 990/7/2 992/8/2 989/9/2
f 986/7/3 989/8/3 985/9/3
f 987/7/4 990/8/4 986/9/4
f 988/7/5 991/8/5 987/9/5
f 985/7/6 992/8/6 988/9/6
f 996/7/1 994/8/1 993/9/1
f 998/7/2 1000/8/2 997/9/2
f 994/7/3 997/8/3 993/9/3
f 995/7/4 998/8/4 994/9/4
f 996/7/5 999/8/5 995/9/5
f 993/7/6 1000/8/6 996/9/6
f 1004/7/1 1002/8/1 1001/9/1
f 1006/7/2 1008/8/2 1005/9/2
f 1002/7/3 1005/8/3 1001/9/3
f 1003/7/4 1006/8/4 1002/9/4
f 1004/7/5 1007/8/5 1003/9/5
f 1001/7/6 1008/8/6 1004/9/6
f 1012/10/1 1010/11/1 1009/12/1
f 1014/10/2 1016/11/2 1013/12/2
f 1010/10/3 1013/11/3 1009/12/3
f 1011/10/4 1014/11/4 1010/12/4
f 1012/10/5 1015/11/5 1011/12/5
f 1009/10/6 1016/11/6 1012/12/6
f 1020/7/1 1018/8/1 1017/9/1
f 1022/7/2 1024/8/2 1021/9/2
f 1018/7/3 1021/8/3 1017/9/3
f 1019/7/4 1022/8/4 1018/9/4
f 1020/7/5 1023/8/5 1019/9/5
f 1017/7/6 1024/8/6 1020/9/6
f 1028/7/1 1026/8/1 1025/9/1
f 1030/7/2 1032/8/2 1029/9/2
f 1026/7/3 1029/8/3 1025/9/3
f 1027/7/4 1030/8/4 1026/9/4
f 1028/7/5 1031/8/5 1027/9/5
f 1025/7/6 1032/8/6 1028/9/6
f 1036/7/1 1034/8/1 1033/9/1
f 1038/7/2 1040/8/2 1037/9/2
f 1034/7/3 1037/8/3 1033/9/3
f 1035/7/4 1038/8/4 1034/9/4
f 1036/7/5 1039/8/5 1035/9/5
f 1033/7/6 1040/8/6 1036/9/6
f 1044/7/1 1042/8/1 1041/9/1
f 1046/7/2 1048/8/2 1045/9/2
f 1042/7/3 1045/8/3 1041/9/3
f 1043/7/4 1046/8/4 1042/9/4
f 1044/7/5 1047/8/5 1043/9/5
f 1041/7/6 1048/8/6 1044/9/6
f 1052/13/1 1050/14/1 1049/15/1
f 1054/13/2 1056/14/2 1053/15/2
f 1050/13/3 1053/14/3 1049/15/3
f 1051/13/4 1054/14/4 1050/15/4
f 1052/13/5 1055/14/5 1051/15/5
f 1049/13/6 1056/14/6 1052/15/6
f 1060/7/1 1058/8/1 1057/9/1
f 1062/7/2 1064/8/2 1061/9/2
f 1058/7/3 1061/8/3 1057/9/3
f 1059/7/4 1062/8/4 1058/9/4
f 1060/7/5 1063/8/5 1059/9/5
f 1057/7/6 1064/8/6 1060/9/6
f 1068/7/1 1066/8/1 1065/9/1
f 1070/7/2 1072/8/2 1069/9/2
f 1066/7/3 1069/8/3 1065/9/3
f 1067/7/4 1070/8/4 1066/9/4
f 1068/7/5 1071/8/5 1067/9/5
f 1065/7/6 1072/8/6 1068/9/6
f 1076/7/1 1074/8/1 1073/9/1
f 1078/7/2 1080/8/2 1077/9/2
f 1074/7/3 1077/8/3 1073/9/3
f 1075/7/4 1078/8/4 1074/9/4
f 1076/7/5 1079/8/5 1075/9/5
f 1073/7/6 1080/8/6 1076/9/6
f 1084/7/1 1082/8/1 1081/9/1
f 1086/7/2 1088/8/2 1085/9/2
f 1082/7/3 1085/8/3 1081/9/3
f 1083/7/4 1086/8/4 1082/9/4
f 1084/7/5 1087/8/5 1083/9/5
f 1081/7/6 1088/8/6 1084/9/6
f 1092/10/1 1090/11/1 1089/12/1
f 1094/10/2 1096/11/2 1093/12/2
f 1090/10/3 1093/11/3 1089/12/3
f 1091/10/4 1094/11/4 1090/12/4
f 1092/10/5 1095/11/5 1091/12/5
f 1089/10/6 1096/11/6 1092/12/6
f 1100/7/1 1098/8/1 1097/9/1
f 1102/7/2 1104/8/2 1101/9/2
f 1098/7/3 1101/8/3 1097/9/3
f 1099/7/4 1102/8/4 1098/9/4
f 1100/7/5 1103/8/5 1099/9/5
f 1097/7/6 1104/8/6 1100/9/6
f 1108/7/1 1106/8/1 1105/9/1
f 1110/7/2 1112/8/2 1109/9/2
f 1106/7/3 1109/8/3 1105/9/3
f 1107/7/4 1110/8/4 1106/9/4
f 1108/7/5 1111/8/5 1107/9/5
f 1105/7/6 1112/8/6 1108/9/6
f 1116/7/1 1114/8/1 1113/9/1
f 1118/7/2 1120/8/2 1117/9/2
f 1114/7/3 1117/8/3 1113/9/3
f 1115/7/4 1118/8/4 1114/9/4
f 1116/7/5 1119/8/5 1115/9/5
f 1113/7/6 1120/8/6 1116/9/6
f 1124/7/1 1122/8/1 1121/9/1
f 1126/7/2 1128/8/2 1125/9/2
f 1122/7/3 1125/8/3 1121/9/3
f 1123/7/4 1126/8/4 1122/9/4
f 1124/7/5 1127/8/5 1123/9/5
f 1121/7/6 1128/8/6 1124/9/6
f 1132/10/1 1130/11/1 1129/12/1
f 1134/10/2 1136/11/2 1133/12/2
f 1130/10/3 1133/11/3 1129/12/3
f 1131/10/4 1134/11/4 1130/12/4
f 1132/10/5 1135/11/5 1131/12/5
f 1129/10/6 1136/11/6 1132/12/6
f 1140/7/1 1138/8/1 1137/9/1
f 1142/7/2 1144/8/2 1141/9/2
f 1138/7/3 1141/8/3 1137/9/3
f 1139/7/4 1142/8/4 1138/9/4
f 1140/7/5 1143/8/5 1139/9/5
f 1137/7/6 1144/8/6 1140/9/6
f 1148/7/1 1146/8/1 1145/9/1
f 1150/7/2 1152/8/2 1149/9/2
f 1146/7/3 1149/8/3 1145/9/3
f 1147/7/4 1150/8/4 1146/9/4
f 1148/7/5 1151/8/5 1147/9/5
f 1145/7/6 1152/8/6 1148/9/6
f 1156/7/1 1154/8/1 1153/9/1
f 1158/7/2 1160/8/2 1157/9/2
f 1154/7/3 1157/8/3 1153/9/3
f 1155/7/4 1158/8/4 1154/9/4
f 1156/7/5 1159/8/5 1155/9/5
f 1153/7/6 1160/8/6 1156/9/6
f 1164/7/1 1162/8/1 1161/9/1
f 1166/7/2 1168/8/2 1165/9/2
f 1162/7/3 1165/8/3 1161/9/3
f 1163/7/4 1166/8/4 1162/9/4
f 1164/7/5 1167/8/5 1163/9/5
f 1161/7/6 1168/8/6 1164/9/6
f 1172/10/1 1170/11/1 1169/12/1
f 1174/10/2 1176/11/2 1173/12/2
f 1170/10/3 1173/11/3 1169/12/3
f 1171/10/4 1174/11/4 1170/12/4
f 1172/10/5 1175/11/5 1171/12/5
f 1169/10/6 1176/11/6 1172/12/6
f 1180/7/1 1178/8/1 1177/9/1
f 1182/7/2 1184/8/2 1181/9/2
f 1178/7/3 1181/8/3 1177/9/3
f 1179/7/4 1182/8/4 1178/9/4
f 1180/7/5 1183/8/5 1179/9/5
f 1177/7/6 1184/8/6 1180/9/6
f 1188/7/1 1186/8/1 1185/9/1
f 1190/7/2 1192/8/2 1189/9/2
f 1186/7/3 1189/8/3 1185/9/3
f 1187/7/4 1190/8/4 1186/9/4
f 1188/7/5 1191/8/5 1187/9/5
f 1185/7/6 1192/8/6 1188/9/6
f 1196/7/1 1194/8/1 1193/9/1
f 1198/7/2 1200/8/2 1197/9/2
f 1194/7/3 1197/8/3 1193/9/3
f 1195/7/4 1198/8/4 1194/9/4
f 1196/7/5 1199/8/5 1195/9/5
f 1193/7/6 1200/8/6 1196/9/6
f 1204/7/1 1202/8/1 1201/9/1
f 1206/7/2 1208/8/2 1205/9/2
f 1202/7/3 1205/8/3 1201/9/3
f 1203/7/4 1206/8/4 1202/9/4
f 1204/7/5 1207/8/5 1203/9/5
f 1201/7/6 1208/8/6 1204/9/6
f 1212/10/1 1210/11/1 1209/12/1
f 1214/10/2 1216/11/2 1213/12/2
f 1210/10/3 1213/11/3 1209/12/3
f 1211/10/4 1214/11/4 1210/12/4
f 1212/10/5 1215/11/5 1211/12/5
f 1209/10/6 1216/11/6 1212/12/6
f 1220/7/1 1218/8/1 1217/9/1
f 1222/7/2 1224/8/2 1221/9/2
f 1218/7/3 1221/8/3 1217/9/3
f 1219/7/4 1222/8/4 1218/9/4
f 1220/7/5 1223/8/5 1219/9/5
f 1217/7/6 1224/8/6 1220/9/6
f 1228/7/1 1226/8/1 1225/9/1
f 1230/7/2 1232/8/2 1229/9/2
f 1226/7/3 1229/8/3 1225/9/3
f 1227/7/4 1230/8/4 1226/9/4
f 1228/7/5 1231/8/5 1227/9/5
f 1225/7/6 1232/8/6 1228/9/6
f 1236/7/1 1234/8/1 1233/9/1
f 1238/7/2 1240/8/2 1237/9/2
f 1234/7/3 1237/8/3 1233/9/3
f 1235/7/4 1238/8/4 1234/9/4
f 1236/7/5 1239/8/5 1235/9/5
f 1233/7/6 1240/8/6 1236/9/6
f 1244/7/1 1242/8/1 1241/9/1
f 1246/7/2 1248/8/2 1245/9/2
f 1242/7/3 1245/8/3 1241/9/3
f 1243/7/4 1246/8/4 1242/9/4
f 1244/7/5 1247/8/5 1243/9/5
f 1241/7/6 1248/8/6 1244/9/6
f 1252/16/1 1250/17/1 1249/18/1
f 1254/16/2 1256/17/2 1253/18/2
f 1250/16/3 1253/17/3 1249/18/3
f 1251/16/4 1254/17/4 1250/18/4
f 1252/16/5 1255/17/5 1251/18/5
f 1249/16/6 1256/17/6 1252/18/6
f 1260/13/1 1258/14/1 1257/15/1
f 1262/13/2 1264/14/2 1261/15/2
f 1258/13/3 1261/14/3 1257/15/3
f 1259/13/4 1262/14/4 1258/15/4
f 1260/13/5 1263/14/5 1259/15/5
f 1257/13/6 1264/14/6 1260/15/6
f 1268/13/1 1266/14/1 1265/15/1
f 1270/13/2 1272/14/2 1269/15/2
f 1266/13/3 1269/14/3 1265/15/3
f 1267/13/4 1270/14/4 1266/15/4
f 1268/13/5 1271/14/5 1267/15/5
f 1265/13/6 1272/14/6 1268/15/6
f 1276/13/1 1274/14/1 1273/15/1
f 1278/13/2 1280/14/2 1277/15/2
f 1274/13/3 1277/14/3 1273/15/3
f 1275/13/4 1278/14/4 1274/15/4
f 1276/13/5 1279/14/5 1275/15/5
f 1273/13/6 1280/14/6 1276/15/6
f 1284/13/1 1282/14/1 1281/15/1
f 1286/13/2 1288/14/2 1285/15/2
f 1282/13/3 1285/14/3 1281/15/3
f 1283/13/4 1286/14/4 1282/15/4
f 1284/13/5 1287/14/5 1283/15/5
f 1281/13/6 1288/14/6 1284/15/6
f 1292/13/1 1290/14/1 1289/15/1
f 1294/13/2 1296/14/2 1293/15/2
f 1290/13/3 1293/14/3 1289/15/3
f 1291/13/4 1294/14/4 1290/15/4
f 1292/13/5 1295/14/5 1291/15/5
f 1289/13/6 1296/14/6 1292/15/6
f 1300/13/1 1298/14/1 1297/15/1
f 1302/13/2 1304/14/2 1301/15/2
f 1298/13/3 1301/14/3 1297/15/3
f 1299/13/4 1302/14/4 1298/15/4
f 1300/13/5 1303/14/5 1299/15/5
f 1297/13/6 1304/14/6 1300/15/6
f 4/1/1 3/19/1 2/2/1
f 6/1/2 7/19/2 8/2/2
f 2/1/3 6/19/3 5/2/3
f 3/1/4 7/19/4 6/2/4
f 4/1/5 8/19/5 7/2/5
f 1/1/6 5/19/6 8/2/6
f 12/4/1 11/20/1 10/5/1
f 14/4/2 15/20/2 16/5/2
f 10/4/3 14/20/3 13/5/3
f 11/4/4 15/20/4 14/5/4
f 12/4/5 16/20/5 15/5/5
f 9/4/6 13/20/6 16/5/6
f 20/4/1 19/20/1 18/5/1
f 22/4/2 23/20/2 24/5/2
f 18/4/3 22/20/3 21/5/3
f 19/4/4 23/20/4 22/5/4
f 20/4/5 24/20/5 23/5/5
f 17/4/6 21/20/6 24/5/6
f 28/4/1 27/20/1 26/5/1
f 30/4/2 31/20/2 32/5/2
f 26/4/3 30/20/3 29/5/3
f 27/4/4 31/20/4 30/5/4
f 28/4/5 32/20/5 31/5/5
f 25/4/6 29/20/6 32/5/6
f 36/4/1 35/20/1 34/5/1
f 38/4/2 39/20/2 40/5/2
f 34/4/3 38/20/3 37/5/3
f 35/4/4 39/20/4 38/5/4
f 36/4/5 40/20/5 39/5/5
f 33/4/6 37/20/6 40/5/6
f 44/1/1 43/19/1 42/2/1
f 46/1/2 47/19/2 48/2/2
f 42/1/3 46/19/3 45/2/3
f 43/1/4 47/19/4 46/2/4
f 44/1/5 48/19/5 47/2/5
f 41/1/6 45/19/6 48/2/6
f 52/7/1 51/21/1 50/8/1
f 54/7/2 55/21/2 56/8/2
f 50/7/3 54/21/3 53/8/3
f 51/7/4 55/21/4 54/8/4
f 52/7/5 56/21/5 55/8/5
f 49/7/6 53/21/6 56/8/6
f 60/7/1 59/21/1 58/8/1
f 62/7/2 63/21/2 64/8/2
f 58/7/3 62/21/3 61/8/3
f 59/7/4 63/21/4 62/8/4
f 60/7/5 64/21/5 63/8/5
f 57/7/6 61/21/6 64/8/6
f 68/7/1 67/21/1 66/8/1
f 70/7/2 71/21/2 72/8/2
f 66/7/3 70/21/3 69/8/3
f 67/7/4 71/21/4 70/8/4
f 68/7/5 72/21/5 71/8/5
f 65/7/6 69/21/6 72/8/6
f 76/7/1 75/21/1 74/8/1
f 78/7/2 79/21/2 80/8/2
f 74/7/3 78/21/3 77/8/3
f 75/7/4 79/21/4 78/8/4
f 76/7/5 80/21/5 79/8/5
f 73/7/6 77/21/6 80/8/6
f 84/10/1 83/22/1 82/11/1
f 86/10/2 87/22/2 88/11/2
f 82/10/3 86/22/3 85/11/3
f 83/10/4 87/22/4 86/11/4
f 84/10/5 88/22/5 87/11/5
f 81/10/6 85/22/6 88/11/6
f 92/7/1 91/21/1 90/8/1
f 94/7/2 95/21/2 96/8/2
f 90/7/3 94/21/3 93/8/3
f 91/7/4 95/21/4 94/8/4
f 92/7/5 96/21/5 95/8/5
f 89/7/6 93/21/6 96/8/6
f 100/7/1 99/21/1 98/8/1
f 102/7/2 103/21/2 104/8/2
f 98/7/3 102/21/3 101/8/3
f 99/7/4 103/21/4 102/8/4
f 100/7/5 104/21/5 103/8/5
f 97/7/6 101/21/6 104/8/6
f 108/7/1 107/21/1 106/8/1
f 110/7/2 111/21/2 112/8/2
f 106/7/3 110/21/3 109/8/3
f 107/7/4 111/21/4 110/8/4
f 108/7/5 112/21/5 111/8/5
f 105/7/6 109/21/6 112/8/6
f 116/7/1 115/21/1 114/8/1
f 118/7/2 119/21/2 120/8/2
f 114/7/3 118/21/3 117/8/3
f 115/7/4 119/21/4 118/8/4
f 116/7/5 120/21/5 119/8/5
f 113/7/6 117/21/6 120/8/6
f 124/13/1 123/23/1 122/14/1
f 126/13/2 127/23/2 128/14/2
f 122/13/3 126/23/3 125/14/3
f 123/13/4 127/23/4 126/14/4
f 124/13/5 128/23/5 127/14/5
f 121/13/6 125/23/6 128/14/6
f 132/16/1 131/24/1 130/17/1
f 134/16/2 135/24/2 136/17/2
f 130/16/3 134/24/3 133/17/3
f 131/16/4 135/24/4 134/17/4
f 132/16/5 136/24/5 135/17/5
f 129/16/6 133/24/6 136/17/6
f 140/7/1 139/21/1 138/8/1
f 142/7/2 143/21/2 144/8/2
f 138/7/3 142/21/3 141/8/3
f 139/7/4 143/21/4 142/8/4
f 140/7/5 144/21/5 143/8/5
f 137/7/6 141/21/6 144/8/6
f 148/7/1 147/21/1 146/8/1
f 150/7/2 151/21/2 152/8/2
f 146/7/3 150/21/3 149/8/3
f 147/7/4 151/21/4 150/8/4
f 148/7/5 152/21/5 151/8/5
f 145/7/6 149/21/6 152/8/6
f 156/7/1 155/21/1 154/8/1
f 158/7/2 159/21/2 160/8/2
f 154/7/3 158/21/3 157/8/3
f 155/7/4 159/21/4 158/8/4
f 156/7/5 160/21/5 159/8/5
f 153/7/6 157/21/6 160/8/6
f 164/7/1 163/21/1 162/8/1
f 166/7/2 167/21/2 168/8/2
f 162/7/3 166/21/3 165/8/3
f 163/7/4 167/21/4 166/8/4
f 164/7/5 168/21/5 167/8/5
f 161/7/6 165/21/6 168/8/6
f 172/10/1 171/22/1 170/11/1
f 174/10/2 175/22/2 176/11/2
f 170/10/3 174/22/3 173/11/3
f 171/10/4 175/22/4 174/11/4
f 172/10/5 176/22/5 175/11/5
f 169/10/6 173/22/6 176/11/6
f 180/7/1 179/21/1 178/8/1
f 182/7/2 183/21/2 184/8/2
f 178/7/3 182/21/3 181/8/3
f 179/7/4 183/21/4 182/8/4
f 180/7/5 184/21/5 183/8/5
f 177/7/6 181/21/6 184/8/6
f 188/7/1 187/21/1 186/8/1
f 190/7/2 191/21/2 192/8/2
f 186/7/3 190/21/3 189/8/3
f 187/7/4 191/21/4 190/8/4
f 188/7/5 192/21/5 191/8/5
f 185/7/6 189/21/6 192/8/6
f 196/7/1 195/21/1 194/8/1
f 198/7/2 199/21/2 200/8/2
f 194/7/3 198/21/3 197/8/3
f 195/7/4 199/21/4 198/8/4
f 196/7/5 200/21/5 199/8/5
f 193/7/6 197/21/6 200/8/6
f 204/7/1 203/21/1 202/8/1
f 206/7/2 207/21/2 208/8/2
f 202/7/3 206/21/3 205/8/3
f 203/7/4 207/21/4 206/8/4
f 204/7/5 208/21/5 207/8/5
f 201/7/6 205/21/6 208/8/6
f 212/13/1 211/23/1 210/14/1
f 214/13/2 215/23/2 216/14/2
f 210/13/3 214/23/3 213/14/3
f 211/13/4 215/23/4 214/14/4
f 212/13/5 216/23/5 215/14/5
f 209/13/6 213/23/6 216/14/6
f 220/16/1 219/24/1 218/17/1
f 222/16/2 223/24/2 224/17/2
f 218/16/3 222/24/3 221/17/3
f 219/16/4 223/24/4 222/17/4
f 220/16/5 224/24/5 223/17/5
f 217/16/6 221/24/6 224/17/6
f 228/7/1 227/21/1 226/8/1
f 230/7/2 231/21/2 232/8/2
f 226/7/3 230/21/3 229/8/3
f 227/7/4 231/21/4 230/8/4
f 228/7/5 232/21/5 231/8/5
f 225/7/6 229/21/6 232/8/6
f 236/7/1 235/21/1 234/8/1
f 238/7/2 239/21/2 240/8/2
f 234/7/3 238/21/3 237/8/3
f 235/7/4 239/21/4 238/8/4
f 236/7/5 240/21/5 239/8/5
f 233/7/6 237/21/6 240/8/6
f 244/7/1 243/21/1 242/8/1
f 246/7/2 247/21/2 248/8/2
f 242/7/3 246/21/3 245/8/3
f 243/7/4 247/21/4 246/8/4
f 244/7/5 248/21/5 247/8/5
f 241/7/6 245/21/6 248/8/6
f 252/7/1 251/21/1 250/8/1
f 254/7/2 255/21/2 256/8/2
f 250/7/3 254/21/3 253/8/3
f 251/7/4 255/21/4 254/8/4
f 252/7/5 256/21/5 255/8/5
f 249/7/6 253/21/6 256/8/6
f 260/10/1 259/22/1 258/11/1
f 262/10/2 263/22/2 264/11/2
f 258/10/3 262/22/3 261/11/3
f 259/10/4 263/22/4 262/11/4
f 260/10/5 264/22/5 263/11/5
f 257/10/6 261/22/6 264/11/6
f 268/7/1 267/21/1 266/8/1
f 270/7/2 271/21/2 272/8/2
f 266/7/3 270/21/3 269/8/3
f 267/7/4 271/21/4 270/8/4
f 268/7/5 272/21/5 271/8/5
f 265/7/6 269/21/6 272/8/6
f 276/7/1 275/21/1 274/8/1
f 278/7/2 279/21/2 280/8/2
f 274/7/3 278/21/3 277/8/3
f 275/7/4 279/21/4 278/8/4
f 276/7/5 280/21/5 279/8/5
f 273/7/6 277/21/6 280/8/6
f 284/7/1 283/21/1 282/8/1
f 286/7/2 287/21/2 288/8/2
f 282/7/3 286/21/3 285/8/3
f 283/7/4 287/21/4 286/8/4
f 284/7/5 288/21/5 287/8/5
f 281/7/6 285/21/6 288/8/6
f 292/7/1 291/21/1 290/8/1
f 294/7/2 295/21/2 296/8/2
f 290/7/3 294/21/3 293/8/3
f 291/7/4 295/21/4 294/8/4
f 292/7/5 296/21/5 295/8/5
f 289/7/6 293/21/6 296/8/6
f 300/10/1 299/22/1 298/11/1
f 302/10/2 303/22/2 304/11/2
f 298/10/3 302/22/3 301/11/3
f 299/10/4 303/22/4 302/11/4
f 300/10/5 304/22/5 303/11/5
f 297/10/6 301/22/6 304/11/6
f 308/7/1 307/21/1 306/8/1
f 310/7/2 311/21/2 312/8/2
f 306/7/3 310/21/3 309/8/3
f 307/7/4 311/21/4 310/8/4
f 308/7/5 312/21/5 311/8/5
f 305/7/6 309/21/6 312/8/6
f 316/7/1 315/21/1 314/8/1
f 318/7/2 319/21/2 320/8/2
f 314/7/3 318/21/3 317/8/3
f 315/7/4 319/21/4 318/8/4
f 316/7/5 320/21/5 319/8/5
f 313/7/6 317/21/6 320/8/6
f 324/7/1 323/21/1 322/8/1
f 326/7/2 327/21/2 328/8/2
f 322/7/3 326/21/3 325/8/3
f 323/7/4 327/21/4 326/8/4
f 324/7/5 328/21/5 327/8/5
f 321/7/6 325/21/6 328/8/6
f 332/7/1 331/21/1 330/8/1
f 334/7/2 335/21/2 336/8/2
f 330/7/3 334/21/3 333/8/3
f 331/7/4 335/21/4 334/8/4
f 332/7/5 336/21/5 335/8/5
f 329/7/6 333/21/6 336/8/6
f 340/10/1 339/22/1 338/11/1
f 342/10/2 343/22/2 344/11/2
f 338/10/3 342/22/3 341/11/3
f 339/10/4 343/22/4 342/11/4
f 340/10/5 344/22/5 343/11/5
f 337/10/6 341/22/6 344/11/6
f 348/7/1 347/21/1 346/8/1
f 350/7/2 351/21/2 352/8/2
f 346/7/3 350/21/3 349/8/3
f 347/7/4 351/21/4 350/8/4
f 348/7/5 352/21/5 351/8/5
f 345/7/6 349/21/6 352/8/6
f 356/7/1 355/21/1 354/8/1
f 358/7/2 359/21/2 360/8/2
f 354/7/3 358/21/3 357/8/3
f 355/7/4 359/21/4 358/8/4
f 356/7/5 360/21/5 359/8/5
f 353/7/6 357/21/6 360/8/6
f 364/7/1 363/21/1 362/8/1
f 366/7/2 367/21/2 368/8/2
f 362/7/3 366/21/3 365/8/3
f 363/7/4 367/21/4 366/8/4
f 364/7/5 368/21/5 367/8/5
f 361/7/6 365/21/6 368/8/6
f 372/7/1 371/21/1 370/8/1
f 374/7/2 375/21/2 376/8/2
f 370/7/3 374/21/3 373/8/3
f 371/7/4 375/21/4 374/8/4
f 372/7/5 376/21/5 375/8/5
f 369/7/6 373/21/6 376/8/6
f 380/10/1 379/22/1 378/11/1
f 382/10/2 383/22/2 384/11/2
f 378/10/3 382/22/3 381/11/3
f 379/10/4 383/22/4 382/11/4
f 380/10/5 384/22/5 383/11/5
f 377/10/6 381/22/6 384/11/6
f 388/1/1 387/19/1 386/2/1
f 390/1/2 391/19/2 392/2/2
f 386/1/3 390/19/3 389/2/3
f 387/1/4 391/19/4 390/2/4
f 388/1/5 392/19/5 391/2/5
f 385/1/6 389/19/6 392/2/6
f 396/7/1 395/21/1 394/8/1
f 398/7/2 399/21/2 400/8/2
f 394/7/3 398/21/3 397/8/3
f 395/7/4 399/21/4 398/8/4
f 396/7/5 400/21/5 399/8/5
f 393/7/6 397/21/6 400/8/6
f 404/7/1 403/21/1 402/8/1
f 406/7/2 407/21/2 408/8/2
f 402/7/3 406/21/3 405/8/3
f 403/7/4 407/21/4 406/8/4
f 404/7/5 408/21/5 407/8/5
f 401/7/6 405/21/6 408/8/6
f 412/7/1 411/21/1 410/8/1
f 414/7/2 415/21/2 416/8/2
f 410/7/3 414/21/3 413/8/3
f 411/7/4 415/21/4 414/8/4
f 412/7/5 416/21/5 415/8/5
f 409/7/6 413/21/6 416/8/6
f 420/7/1 419/21/1 418/8/1
f 422/7/2 423/21/2 424/8/2
f 418/7/3 422/21/3 421/8/3
f 419/7/4 423/21/4 422/8/4
f 420/7/5 424/21/5 423/8/5
f 417/7/6 421/21/6 424/8/6
f 428/10/1 427/22/1 426/11/1
f 430/10/2 431/22/2 432/11/2
f 426/10/3 430/22/3 429/11/3
f 427/10/4 431/22/4 430/11/4
f 428/10/5 432/22/5 431/11/5
f 425/10/6 429/22/6 432/11/6
f 436/7/1 435/21/1 434/8/1
f 438/7/2 439/21/2 440/8/2
f 434/7/3 438/21/3 437/8/3
f 435/7/4 439/21/4 438/8/4
f 436/7/5 440/21/5 439/8/5
f 433/7/6 437/21/6 440/8/6
f 444/7/1 443/21/1 442/8/1
f 446/7/2 447/21/2 448/8/2
f 442/7/3 446/21/3 445/8/3
f 443/7/4 447/21/4 446/8/4
f 444/7/5 448/21/5 447/8/5
f 441/7/6 445/21/6 448/8/6
f 452/7/1 451/21/1 450/8/1
f 454/7/2 455/21/2 456/8/2
f 450/7/3 454/21/3 453/8/3
f 451/7/4 455/21/4 454/8/4
f 452/7/5 456/21/5 455/8/5
f 449/7/6 453/21/6 456/8/6
f 460/7/1 459/21/1 458/8/1
f 462/7/2 463/21/2 464/8/2
f 458/7/3 462/21/3 461/8/3
f 459/7/4 463/21/4 462/8/4
f 460/7/5 464/21/5 463/8/5
f 457/7/6 461/21/6 464/8/6
f 468/13/1 467/23/1 466/14/1
f 470/13/2 471/23/2 472/14/2
f 466/13/3 470/23/3 469/14/3
f 467/13/4 471/23/4 470/14/4
f 468/13/5 472/23/5 471/14/5
f 465/13/6 469/23/6 472/14/6
f 476/7/1 475/21/1 474/8/1
f 478/7/2 479/21/2 480/8/2
f 474/7/3 478/21/3 477/8/3
f 475/7/4 479/21/4 478/8/4
f 476/7/5 480/21/5 479/8/5
f 473/7/6 477/21/6 480/8/6
f 484/7/1 483/21/1 482/8/1
f 486/7/2 487/21/2 488/8/2
f 482/7/3 486/21/3 485/8/3
f 483/7/4 487/21/4 486/8/4
f 484/7/5 488/21/5 487/8/5
f 481/7/6 485/21/6 488/8/6
f 492/7/1 491/21/1 490/8/1
f 494/7/2 495/21/2 496/8/2
f 490/7/3 494/21/3 493/8/3
f 491/7/4 495/21/4 494/8/4
f 492/7/5 496/21/5 495/8/5
f 489/7/6 493/21/6 496/8/6
f 500/7/1 499/21/1 498/8/1
f 502/7/2 503/21/2 504/8/2
f 498/7/3 502/21/3 501/8/3
f 499/7/4 503/21/4 502/8/4
f 500/7/5 504/21/5 503/8/5
f 497/7/6 501/21/6 504/8/6
f 508/10/1 507/22/1 506/11/1
f 510/10/2 511/22/2 512/11/2
f 506/10/3 510/22/3 509/11/3
f 507/10/4 511/22/4 510/11/4
f 508/10/5 512/22/5 511/11/5
f 505/10/6 509/22/6 512/11/6
f 516/7/1 515/21/1 514/8/1
f 518/7/2 519/21/2 520/8/2
f 514/7/3 518/21/3 517/8/3
f 515/7/4 519/21/4 518/8/4
f 516/7/5 520/21/5 519/8/5
f 513/7/6 517/21/6 520/8/6
f 524/7/1 523/21/1 522/8/1
f 526/7/2 527/21/2 528/8/2
f 522/7/3 526/21/3 525/8/3
f 523/7/4 527/21/4 526/8/4
f 524/7/5 528/21/5 527/8/5
f 521/7/6 525/21/6 528/8/6
f 532/7/1 531/21/1 530/8/1
f 534/7/2 535/21/2 536/8/2
f 530/7/3 534/21/3 533/8/3
f 531/7/4 535/21/4 534/8/4
f 532/7/5 536/21/5 535/8/5
f 529/7/6 533/21/6 536/8/6
f 540/7/1 539/21/1 538/8/1
f 542/7/2 543/21/2 544/8/2
f 538/7/3 542/21/3 541/8/3
f 539/7/4 543/21/4 542/8/4
f 540/7/5 544/21/5 543/8/5
f 537/7/6 541/21/6 544/8/6
f 548/13/1 547/23/1 546/14/1
f 550/13/2 551/23/2 552/14/2
f 546/13/3 550/23/3 549/14/3
f 547/13/4 551/23/4 550/14/4
f 548/13/5 552/23/5 551/14/5
f 545/13/6 549/23/6 552/14/6
f 556/7/1 555/21/1 554/8/1
f 558/7/2 559/21/2 560/8/2
f 554/7/3 558/21/3 557/8/3
f 555/7/4 559/21/4 558/8/4
f 556/7/5 560/21/5 559/8/5
f 553/7/6 557/21/6 560/8/6
f 564/7/1 563/21/1 562/8/1
f 566/7/2 567/21/2 568/8/2
f 562/7/3 566/21/3 565/8/3
f 563/7/4 567/21/4 566/8/4
f 564/7/5 568/21/5 567/8/5
f 561/7/6 565/21/6 568/8/6
f 572/7/1 571/21/1 570/8/1
f 574/7/2 575/21/2 576/8/2
f 570/7/3 574/21/3 573/8/3
f 571/7/4 575/21/4 574/8/4
f 572/7/5 576/21/5 575/8/5
f 569/7/6 573/21/6 576/8/6
f 580/7/1 579/21/1 578/8/1
f 582/7/2 583/21/2 584/8/2
f 578/7/3 582/21/3 581/8/3
f 579/7/4 583/21/4 582/8/4
f 580/7/5 584/21/5 583/8/5
f 577/7/6 581/21/6 584/8/6
f 588/10/1 587/22/1 586/11/1
f 590/10/2 591/22/2 592/11/2
f 586/10/3 590/22/3 589/11/3
f 587/10/4 591/22/4 590/11/4
f 588/10/5 592/22/5 591/11/5
f 585/10/6 589/22/6 592/11/6
f 596/7/1 595/21/1 594/8/1
f 598/7/2 599/21/2 600/8/2
f 594/7/3 598/21/3 597/8/3
f 595/7/4 599/21/4 598/8/4
f 596/7/5 600/21/5 599/8/5
f 593/7/6 597/21/6 600/8/6
f 604/7/1 603/21/1 602/8/1
f 606/7/2 607/21/2 608/8/2
f 602/7/3 606/21/3 605/8/3
f 603/7/4 607/21/4 606/8/4
f 604/7/5 608/21/5 607/8/5
f 601/7/6 605/21/6 608/8/6
f 612/7/1 611/21/1 610/8/1
f 614/7/2 615/21/2 616/8/2
f 610/7/3 614/21/3 613/8/3
f 611/7/4 615/21/4 614/8/4
f 612/7/5 616/21/5 615/8/5
f 609/7/6 613/21/6 616/8/6
f 620/7/1 619/21/1 618/8/1
f 622/7/2 623/21/2 624/8/2
f 618/7/3 622/21/3 621/8/3
f 619/7/4 623/21/4 622/8/4
f 620/7/5 624/21/5 623/8/5
f 617/7/6 621/21/6 624/8/6
f 628/13/1 627/23/1 626/14/1
f 630/13/2 631/23/2 632/14/2
f 626/13/3 630/23/3 629/14/3
f 627/13/4 631/23/4 630/14/4
f 628/13/5 632/23/5 631/14/5
f 625/13/6 629/23/6 632/14/6
f 636/7/1 635/21/1 634/8/1
f 638/7/2 639/21/2 640/8/2
f 634/7/3 638/21/3 637/8/3
f 635/7/4 639/21/4 638/8/4
f 636/7/5 640/21/5 639/8/5
f 633/7/6 637/21/6 640/8/6
f 644/7/1 643/21/1 642/8/1
f 646/7/2 647/21/2 648/8/2
f 642/7/3 646/21/3 645/8/3
f 643/7/4 647/21/4 646/8/4
f 644/7/5 648/21/5 647/8/5
f 641/7/6 645/21/6 648/8/6
f 652/7/1 651/21/1 650/8/1
f 654/7/2 655/21/2 656/8/2
f 650/7/3 654/21/3 653/8/3
f 651/7/4 655/21/4 654/8/4
f 652/7/5 656/21/5 655/8/5
f 649/7/6 653/21/6 656/8/6
f 660/7/1 659/21/1 658/8/1
f 662/7/2 663/21/2 664/8/2
f 658/7/3 662/21/3 661/8/3
f 659/7/4 663/21/4 662/8/4
f 660/7/5 664/21/5 663/8/5
f 657/7/6 661/21/6 664/8/6
f 668/10/1 667/22/1 666/11/1
f 670/10/2 671/22/2 672/11/2
f 666/10/3 670/22/3 669/11/3
f 667/10/4 671/22/4 670/11/4
f 668/10/5 672/22/5 671/11/5
f 665/10/6 669/22/6 672/11/6
f 676/7/1 675/21/1 674/8/1
f 678/7/2 679/21/2 680/8/2
f 674/7/3 678/21/3 677/8/3
f 675/7/4 679/21/4 678/8/4
f 676/7/5 680/21/5 679/8/5
f 673/7/6 677/21/6 680/8/6
f 684/7/1 683/21/1 682/8/1
f 686/7/2 687/21/2 688/8/2
f 682/7/3 686/21/3 685/8/3
f 683/7/4 687/21/4 686/8/4
f 684/7/5 688/21/5 687/8/5
f 681/7/6 685/21/6 688/8/6
f 692/7/1 691/21/1 690/8/1
f 694/7/2 695/21/2 696/8/2
f 690/7/3 694/21/3 693/8/3
f 691/7/4 695/21/4 694/8/4
f 692/7/5 696/21/5 695/8/5
f 689/7/6 693/21/6 696/8/6
f 700/7/1 699/21/1 698/8/1
f 702/7/2 703/21/2 704/8/2
f 698/7/3 702/21/3 701/8/3
f 699/7/4 703/21/4 702/8/4
f 700/7/5 704/21/5 703/8/5
f 697/7/6 701/21/6 704/8/6
f 708/13/1 707/23/1 706/14/1
f 710/13/2 711/23/2 712/14/2
f 706/13/3 710/23/3 709/14/3
f 707/13/4 711/23/4 710/14/4
f 708/13/5 712/23/5 711/14/5
f 705/13/6 709/23/6 712/14/6
f 716/7/1 715/21/1 714/8/1
f 718/7/2 719/21/2 720/8/2
f 714/7/3 718/21/3 717/8/3
f 715/7/4 719/21/4 718/8/4
f 716/7/5 720/21/5 719/8/5
f 713/7/6 717/21/6 720/8/6
f 724/7/1 723/21/1 722/8/1
f 726/7/2 727/21/2 728/8/2
f 722/7/3 726/21/3 725/8/3
f 723/7/4 727/21/4 726/8/4
f 724/7/5 728/21/5 727/8/5
f 721/7/6 725/21/6 728/8/6
f 732/7/1 731/21/1 730/8/1
f 734/7/2 735/21/2 736/8/2
f 730/7/3 734/21/3 733/8/3
f 731/7/4 735/21/4 734/8/4
f 732/7/5 736/21/5 735/8/5
f 729/7/6 733/21/6 736/8/6
f 740/7/1 739/21/1 738/8/1
f 742/7/2 743/21/2 744/8/2
f 738/7/3 742/21/3 741/8/3
f 739/7/4 743/21/4 742/8/4
f 740/7/5 744/21/5 743/8/5
f 737/7/6 741/21/6 744/8/6
f 748/10/1 747/22/1 746/11/1
f 750/10/2 751/22/2 752/11/2
f 746/10/3 750/22/3 749/11/3
f 747/10/4 751/22/4 750/11/4
f 748/10/5 752/22/5 751/11/5
f 745/10/6 749/22/6 752/11/6
f 756/7/1 755/21/1 754/8/1
f 758/7/2 759/21/2 760/8/2
f 754/7/3 758/21/3 757/8/3
f 755/7/4 759/21/4 758/8/4
f 756/7/5 760/21/5 759/8/5
f 753/7/6 757/21/6 760/8/6
f 764/7/1 763/21/1 762/8/1
f 766/7/2 767/21/2 768/8/2
f 762/7/3 766/21/3 765/8/3
f 763/7/4 767/21/4 766/8/4
f 764/7/5 768/21/5 767/8/5
f 761/7/6 765/21/6 768/8/6
f 772/7/1 771/21/1 770/8/1
f 774/7/2 775/21/2 776/8/2
f 770/7/3 774/21/3 773/8/3
f 771/7/4 775/21/4 774/8/4
f 772/7/5 776/21/5 775/8/5
f 769/7/6 773/21/6 776/8/6
f 780/7/1 779/21/1 778/8/1
f 782/7/2 783/21/2 784/8/2
f 778/7/3 782/21/3 781/8/3
f 779/7/4 783/21/4 782/8/4
f 780/7/5 784/21/5 783/8/5
f 777/7/6 781/21/6 784/8/6
f 788/10/1 787/22/1 786/11/1
f 790/10/2 791/22/2 792/11/2
f 786/10/3 790/22/3 789/11/3
f 787/10/4 791/22/4 790/11/4
f 788/10/5 792/22/5 791/11/5
f 785/10/6 789/22/6 792/11/6
f 796/7/1 795/21/1 794/8/1
f 798/7/2 799/21/2 800/8/2
f 794/7/3 798/21/3 797/8/3
f 795/7/4 799/21/4 798/8/4
f 796/7/5 800/21/5 799/8/5
f 793/7/6 797/21/6 800/8/6
f 804/7/1 803/21/1 802/8/1
f 806/7/2 807/21/2 808/8/2
f 802/7/3 806/21/3 805/8/3
f 803/7/4 807/21/4 806/8/4
f 804/7/5 808/21/5 807/8/5
f 801/7/6 805/21/6 808/8/6
f 812/7/1 811/21/1 810/8/1
f 814/7/2 815/21/2 816/8/2
f 810/7/3 814/21/3 813/8/3
f 811/7/4 815/21/4 814/8/4
f 812/7/5 816/21/5 815/8/5
f 809/7/6 813/21/6 816/8/6
f 820/7/1 819/21/1 818/8/1
f 822/7/2 823/21/2 824/8/2
f 818/7/3 822/21/3 821/8/3
f 819/7/4 823/21/4 822/8/4
f 820/7/5 824/21/5 823/8/5
f 817/7/6 821/21/6 824/8/6
f 828/10/1 827/22/1 826/11/1
f 830/10/2 831/22/2 832/11/2
f 826/10/3 830/22/3 829/11/3
f 827/10/4 831/22/4 830/11/4
f 828/10/5 832/22/5 831/11/5
f 825/10/6 829/22/6 832/11/6
f 836/7/1 835/21/1 834/8/1
f 838/7/2 839/21/2 840/8/2
f 834/7/3 838/21/3 837/8/3
f 835/7/4 839/21/4 838/8/4
f 836/7/5 840/21/5 839/8/5
f 833/7/6 837/21/6 840/8/6
f 844/7/1 843/21/1 842/8/1
f 846/7/2 847/21/2 848/8/2
f 842/7/3 846/21/3 845/8/3
f 843/7/4 847/21/4 846/8/4
f 844/7/5 848/21/5 847/8/5
f 841/7/6 845/21/6 848/8/6
f 852/7/1 851/21/1 850/8/1
f 854/7/2 855/21/2 856/8/2
f 850/7/3 854/21/3 853/8/3
f 851/7/4 855/21/4 854/8/4
f 852/7/5 856/21/5 855/8/5
f 849/7/6 853/21/6 856/8/6
f 860/7/1 859/21/1 858/8/1
f 862/7/2 863/21/2 864/8/2
f 858/7/3 862/21/3 861/8/3
f 859/7/4 863/21/4 862/8/4
f 860/7/5 864/21/5 863/8/5
f 857/7/6 861/21/6 864/8/6
f 868/10/1 867/22/1 866/11/1
f 870/10/2 871/22/2 872/11/2
f 866/10/3 870/22/3 869/11/3
f 867/10/4 871/22/4 870/11/4
f 868/10/5 872/22/5 871/11/5
f 865/10/6 869/22/6 872/11/6
f 876/1/1 875/19/1 874/2/1
f 878/1/2 879/19/2 880/2/2
f 874/1/3 878/19/3 877/2/3
f 875/1/4 879/19/4 878/2/4
f 876/1/5 880/19/5 879/2/5
f 873/1/6 877/19/6 880/2/6
f 884/16/1 883/24/1 882/17/1
f 886/16/2 887/24/2 888/17/2
f 882/16/3 886/24/3 885/17/3
f 883/16/4 887/24/4 886/17/4
f 884/16/5 888/24/5 887/17/5
f 881/16/6 885/24/6 888/17/6
f 892/7/1 891/21/1 890/8/1
f 894/7/2 895/21/2 896/8/2
f 890/7/3 894/21/3 893/8/3
f 891/7/4 895/21/4 894/8/4
f 892/7/5 896/21/5 895/8/5
f 889/7/6 893/21/6 896/8/6
f 900/7/1 899/21/1 898/8/1
f 902/7/2 903/21/2 904/8/2
f 898/7/3 902/21/3 901/8/3
f 899/7/4 903/21/4 902/8/4
f 900/7/5 904/21/5 903/8/5
f 897/7/6 901/21/6 904/8/6
f 908/7/1 907/21/1 906/8/1
f 910/7/2 911/21/2 912/8/2
f 906/7/3 910/21/3 909/8/3
f 907/7/4 911/21/4 910/8/4
f 908/7/5 912/21/5 911/8/5
f 905/7/6 909/21/6 912/8/6
f 916/7/1 915/21/1 914/8/1
f 918/7/2 919/21/2 920/8/2
f 914/7/3 918/21/3 917/8/3
f 915/7/4 919/21/4 918/8/4
f 916/7/5 920/21/5 919/8/5
f 913/7/6 917/21/6 920/8/6
f 924/10/1 923/22/1 922/11/1
f 926/10/2 927/22/2 928/11/2
f 922/10/3 926/22/3 925/11/3
f 923/10/4 927/22/4 926/11/4
f 924/10/5 928/22/5 927/11/5
f 921/10/6 925/22/6 928/11/6
f 932/7/1 931/21/1 930/8/1
f 934/7/2 935/21/2 936/8/2
f 930/7/3 934/21/3 933/8/3
f 931/7/4 935/21/4 934/8/4
f 932/7/5 936/21/5 935/8/5
f 929/7/6 933/21/6 936/8/6
f 940/7/1 939/21/1 938/8/1
f 942/7/2 943/21/2 944/8/2
f 938/7/3 942/21/3 941/8/3
f 939/7/4 943/21/4 942/8/4
f 940/7/5 944/21/5 943/8/5
f 937/7/6 941/21/6 944/8/6
f 948/7/1 947/21/1 946/8/1
f 950/7/2 951/21/2 952/8/2
f 946/7/3 950/21/3 949/8/3
f 947/7/4 951/21/4 950/8/4
f 948/7/5 952/21/5 951/8/5
f 945/7/6 949/21/6 952/8/6
f 956/7/1 955/21/1 954/8/1
f 958/7/2 959/21/2 960/8/2
f 954/7/3 958/21/3 957/8/3
f 955/7/4 959/21/4 958/8/4
f 956/7/5 960/21/5 959/8/5
f 953/7/6 957/21/6 960/8/6
f 964/13/1 963/23/1 962/14/1
f 966/13/2 967/23/2 968/14/2
f 962/13/3 966/23/3 965/14/3
f 963/13/4 967/23/4 966/14/4
f 964/13/5 968/23/5 967/14/5
f 961/13/6 965/23/6 968/14/6
f 972/16/1 971/24/1 970/17/1
f 974/16/2 975/24/2 976/17/2
f 970/16/3 974/24/3 973/17/3
f 971/16/4 975/24/4 974/17/4
f 972/16/5 976/24/5 975/17/5
f 969/16/6 973/24/6 976/17/6
f 980/7/1 979/21/1 978/8/1
f 982/7/2 983/21/2 984/8/2
f 978/7/3 982/21/3 981/8/3
f 979/7/4 983/21/4 982/8/4
f 980/7/5 984/21/5 983/8/5
f 977/7/6 981/21/6 984/8/6
f 988/7/1 987/21/1 986/8/1
f 990/7/2 991/21/2 992/8/2
f 986/7/3 990/21/3 989/8/3
f 987/7/4 991/21/4 990/8/4
f 988/7/5 992/21/5 991/8/5
f 985/7/6 989/21/6 992/8/6
f 996/7/1 995/21/1 994/8/1
f 998/7/2 999/21/2 1000/8/2
f 994/7/3 998/21/3 997/8/3
f 995/7/4 999/21/4 998/8/4
f 996/7/5 1000/21/5 999/8/5
f 993/7/6 997/21/6 1000/8/6
f 1004/7/1 1003/21/1 1002/8/1
f 1006/7/2 1007/21/2 1008/8/2
f 1002/7/3 1006/21/3 1005/8/3
f 1003/7/4 1007/21/4 1006/8/4
f 1004/7/5 1008/21/5 1007/8/5
f 1001/7/6 1005/21/6 1008/8/6
f 1012/10/1 1011/22/1 1010/11/1
f 1014/10/2 1015/22/2 1016/11/2
f 1010/10/3 1014/22/3 1013/11/3
f 1011/10/4 1015/22/4 1014/11/4
f 1012/10/5 1016/22/5 1015/11/5
f 1009/10/6 1013/22/6 1016/11/6
f 1020/7/1 1019/21/1 1018/8/1
f 1022/7/2 1023/21/2 1024/8/2
f 1018/7/3 1022/21/3 1021/8/3
f 1019/7/4 1023/21/4 1022/8/4
f 1020/7/5 1024/21/5 1023/8/5
f 1017/7/6 1021/21/6 1024/8/6
f 1028/7/1 1027/21/1 1026/8/1
f 1030/7/2 1031/21/2 1032/8/2
f 1026/7/3 1030/21/3 1029/8/3
f 1027/7/4 1031/21/4 1030/8/4
f 1028/7/5 1032/21/5 1031/8/5
f 1025/7/6 1029/21/6 1032/8/6
f 1036/7/1 1035/21/1 1034/8/1
f 1038/7/2 1039/21/2 1040/8/2
f 1034/7/3 1038/21/3 1037/8/3
f 1035/7/4 1039/21/4 1038/8/4
f 1036/7/5 1040/21/5 1039/8/5
f 1033/7/6 1037/21/6 1040/8/6
f 1044/7/1 1043/21/1 1042/8/1
f 1046/7/2 1047/21/2 1048/8/2
f 1042/7/3 1046/21/3 1045/8/3
f 1043/7/4 1047/21/4 1046/8/4
f 1044/7/5 1048/21/5 1047/8/5
f 1041/7/6 1045/21/6 1048/8/6
f 1052/13/1 1051/23/1 1050/14/1
f 1054/13/2 1055/23/2 1056/14/2
f 1050/13/3 1054/23/3 1053/14/3
f 1051/13/4 1055/23/4 1054/14/4
f 1052/13/5 1056/23/5 1055/14/5
f 1049/13/6 1053/23/6 1056/14/6
f 1060/7/1 1059/21/1 1058/8/1
f 1062/7/2 1063/21/2 1064/8/2
f 1058/7/3 1062/21/3 1061/8/3
f 1059/7/4 1063/21/4 1062/8/4
f 1060/7/5 1064/21/5 1063/8/5
f 1057/7/6 1061/21/6 1064/8/6
f 1068/7/1 1067/21/1 1066/8/1
f 1070/7/2 1071/21/2 1072/8/2
f 1066/7/3 1070/21/3 1069/8/3
f 1067/7/4 1071/21/4 1070/8/4
f 1068/7/5 1072/21/5 1071/8/5
f 1065/7/6 1069/21/6 1072/8/6
f 1076/7/1 1075/21/1 1074/8/1
f 1078/7/2 1079/21/2 1080/8/2
f 1074/7/3 1078/21/3 1077/8/3
f 1075/7/4 1079/21/4 1078/8/4
f 1076/7/5 1080/21/5 1079/8/5
f 1073/7/6 1077/21/6 1080/8/6
f 1084/7/1 1083/21/1 1082/8/1
f 1086/7/2 1087/21/2 1088/8/2
f 1082/7/3 1086/21/3 1085/8/3
f 1083/7/4 1087/21/4 1086/8/4
f 1084/7/5 1088/21/5 1087/8/5
f 1081/7/6 1085/21/6 1088/8/6
f 1092/10/1 1091/22/1 1090/11/1
f 1094/10/2 1095/22/2 1096/11/2
f 1090/10/3 1094/22/3 1093/11/3
f 1091/10/4 1095/22/4 1094/11/4
f 1092/10/5 1096/22/5 1095/11/5
f 1089/10/6 1093/22/6 1096/11/6
f 1100/7/1 1099/21/1 1098/8/1
f 1102/7/2 1103/21/2 1104/8/2
f 1098/7/3 1102/21/3 1101/8/3
f 1099/7/4 1103/21/4 1102/8/4
f 1100/7/5 1104/21/5 1103/8/5
f 1097/7/6 1101/21/6 1104/8/6
f 1108/7/1 1107/21/1 1106/8/1
f 1110/7/2 1111/21/2 1112/8/2
f 1106/7/3 1110/21/3 1109/8/3
f 1107/7/4 1111/21/4 1110/8/4
f 1108/7/5 1112/21/5 1111/8/5
f 1105/7/6 1109/21/6 1112/8/6
f 1116/7/1 1115/21/1 1114/8/1
f 1118/7/2 1119/21/2 1120/8/2
f 1114/7/3 1118/21/3 1117/8/3
f 1115/7/4 1119/21/4 1118/8/4
f 1116/7/5 1120/21/5 1119/8/5
f 1113/7/6 1117/21/6 1120/8/6
f 1124/7/1 1123/21/1 1122/8/1
f 1126/7/2 1127/21/2 1128/8/2
f 1122/7/3 1126/21/3 1125/8/3
f 1123/7/4 1127/21/4 1126/8/4
f 1124/7/5 1128/21/5 1127/8/5
f 1121/7/6 1125/21/6 1128/8/6
f 1132/10/1 1131/22/1 1130/11/1
f 1134/10/2 1135/22/2 1136/11/2
f 1130/10/3 1134/22/3 1133/11/3
f 1131/10/4 1135/22/4 1134/11/4
f 1132/10/5 1136/22/5 1135/11/5
f 1129/10/6 1133/22/6 1136/11/6
f 1140/7/1 1139/21/1 1138/8/1
f 1142/7/2 1143/21/2 1144/8/2
f 1138/7/3 1142/21/3 1141/8/3
f 1139/7/4 1143/21/4 1142/8/4
f 1140/7/5 1144/21/5 1143/8/5
f 1137/7/6 1141/21/6 1144/8/6
f 1148/7/1 1147/21/1 1146/8/1
f 1150/7/2 1151/21/2 1152/8/2
f 1146/7/3 1150/21/3 1149/8/3
f 1147/7/4 1151/21/4 1150/8/4
f 1148/7/5 1152/21/5 1151/8/5
f 1145/7/6 1149/21/6 1152/8/6
f 1156/7/1 1155/21/1 1154/8/1
f 1158/7/2 1159/21/2 1160/8/2
f 1154/7/3 1158/21/3 1157/8/3
f 1155/7/4 1159/21/4 1158/8/4
f 1156/7/5 1160/21/5 1159/8/5
f 1153/7/6 1157/21/6 1160/8/6
f 1164/7/1 1163/21/1 1162/8/1
f 1166/7/2 1167/21/2 1168/8/2
f 1162/7/3 1166/21/3 1165/8/3
f 1163/7/4 1167/21/4 1166/8/4
f 1164/7/5 1168/21/5 1167/8/5
f 1161/7/6 1165/21/6 1168/8/6
f 1172/10/1 1171/22/1 1170/11/1
f 1174/10/2 1175/22/2 1176/11/2
f 1170/10/3 1174/22/3 1173/11/3
f 1171/10/4 1175/22/4 1174/11/4
f 1172/10/5 1176/22/5 1175/11/5
f 1169/10/6 1173/22/6 1176/11/6
f 1180/7/1 1179/21/1 1178/8/1
f 1182/7/2 1183/21/2 1184/8/2
f 1178/7/3 1182/21/3 1181/8/3
f 1179/7/4 1183/21/4 1182/8/4
f 1180/7/5 1184/21/5 1183/8/5
f 1177/7/6 1181/21/6 1184/8/6
f 1188/7/1 1187/21/1 1186/8/1
f 1190/7/2 1191/21/2 1192/8/2
f 1186/7/3 1190/21/3 1189/8/3
f 1187/7/4 1191/21/4 1190/8/4
f 1188/7/5 1192/21/5 1191/8/5
f 1185/7/6 1189/21/6 1192/8/6
f 1196/7/1 1195/21/1 1194/8/1
f 1198/7/2 1199/21/2 1200/8/2
f 1194/7/3 1198/21/3 1197/8/3
f 1195/7/4 1199/21/4 1198/8/4
f 1196/7/5 1200/21/5 1199/8/5
f 1193/7/6 1197/21/6 1200/8/6
f 1204/7/1 1203/21/1 1202/8/1
f 1206/7/2 1207/21/2 1208/8/2
f 1202/7/3 1206/21/3 1205/8/3
f 1203/7/4 1207/21/4 1206/8/4
f 1204/7/5 1208/21/5 1207/8/5
f 1201/7/6 1205/21/6 1208/8/6
f 1212/10/1 1211/22/1 1210/11/1
f 1214/10/2 1215/22/2 1216/11/2
f 1210/10/3 1214/22/3 1213/11/3
f 1211/10/4 1215/22/4 1214/11/4
f 1212/10/5 1216/22/5 1215/11/5
f 1209/10/6 1213/22/6 1216/11/6
f 1220/7/1 1219/21/1 1218/8/1
f 1222/7/2 1223/21/2 1224/8/2
f 1218/7/3 1222/21/3 1221/8/3
f 1219/7/4 1223/21/4 1222/8/4
f 1220/7/5 1224/21/5 1223/8/5
f 1217/7/6 1221/21/6 1224/8/6
f 1228/7/1 1227/21/1 1226/8/1
f 1230/7/2 1231/21/2 1232/8/2
f 1226/7/3 1230/21/3 1229/8/3
f 1227/7/4 1231/21/4 1230/8/4
f 1228/7/5 1232/21/5 1231/8/5
f 1225/7/6 1229/21/6 1232/8/6
f 1236/7/1 1235/21/1 1234/8/1
f 1238/7/2 1239/21/2 1240/8/2
f 1234/7/3 1238/21/3 1237/8/3
f 1235/7/4 1239/21/4 1238/8/4
f 1236/7/5 1240/21/5 1239/8/5
f 1233/7/6 1237/21/6 1240/8/6
f 1244/7/1 1243/21/1 1242/8/1
f 1246/7/2 1247/21/2 1248/8/2
f 1242/7/3 1246/21/3 1245/8/3
f 1243/7/4 1247/21/4 1246/8/4
f 1244/7/5 1248/21/5 1247/8/5
f 1241/7/6 1245/21/6 1248/8/6
f 1252/16/1 1251/24/1 1250/17/1
f 1254/16/2 1255/24/2 1256/17/2
f 1250/16/3 1254/24/3 1253/17/3
f 1251/16/4 1255/24/4 1254/17/4
f 1252/16/5 1256/24/5 1255/17/5
f 1249/16/6 1253/24/6 1256/17/6
f 1260/13/1 1259/23/1 1258/14/1
f 1262/13/2 1263/23/2 1264/14/2
f 1258/13/3 1262/23/3 1261/14/3
f 1259/13/4 1263/23/4 1262/14/4
f 1260/13/5 1264/23/5 1263/14/5
f 1257/13/6 1261/23/6 1264/14/6
f 1268/13/1 1267/23/1 1266/14/1
f 1270/13/2 1271/23/2 1272/14/2
f 1266/13/3 1270/23/3 1269/14/3
f 1267/13/4 1271/23/4 1270/14/4
f 1268/13/5 1272/23/5 1271/14/5
f 1265/13/6 1269/23/6 1272/14/6
f 1276/13/1 1275/23/1 1274/14/1
f 1278/13/2 1279/23/2 1280/14/2
f 1274/13/3 1278/23/3 1277/14/3
f 1275/13/4 1279/23/4 1278/14/4
f 1276/13/5 1280/23/5 1279/14/5
f 1273/13/6 1277/23/6 1280/14/6
f 1284/13/1 1283/23/1 1282/14/1
f 1286/13/2 1287/23/2 1288/14/2
f 1282/13/3 1286/23/3 1285/14/3
f 1283/13/4 1287/23/4 1286/14/4
f 1284/13/5 1288/23/5 1287/14/5
f 1281/13/6 1285/23/6 1288/14/6
f 1292/13/1 1291/23/1 1290/14/1
f 1294/13/2 1295/23/2 1296/14/2
f 1290/13/3 1294/23/3 1293/14/3
f 1291/13/4 1295/23/4 1294/14/4
f 1292/13/5 1296/23/5 1295/14/5
f 1289/13/6 1293/23/6 1296/14/6
f 1300/13/1 1299/23/1 1298/14/1
f 1302/13/2 1303/23/2 1304/14/2
f 1298/13/3 1302/23/3 1301/14/3
f 1299/13/4 1303/23/4 1302/14/4
f 1300/13/5 1304/23/5 1303/14/5
f 1297/13/6 1301/23/6 1304/14/6
