# Blender 4.4.3
# www.blender.org
o house_small_redtile_finishing
v -4.250000 0.000000 3.500000
v 4.250000 0.000000 3.500000
v 4.250000 0.000000 -3.500000
v -4.250000 0.000000 -3.500000
v -4.250000 0.200000 3.500000
v 4.250000 0.200000 3.500000
v 4.250000 0.200000 -3.500000
v -4.250000 0.200000 -3.500000
v -4.250000 0.100000 3.500000
v -4.070000 0.100000 3.500000
v -4.070000 0.100000 -3.500000
v -4.250000 0.100000 -3.500000
v -4.250000 0.460000 3.500000
v -4.070000 0.460000 3.500000
v -4.070000 0.460000 -3.500000
v -4.250000 0.460000 -3.500000
v 4.070000 0.100000 3.500000
v 4.250000 0.100000 3.500000
v 4.250000 0.100000 -3.500000
v 4.070000 0.100000 -3.500000
v 4.070000 0.460000 3.500000
v 4.250000 0.460000 3.500000
v 4.250000 0.460000 -3.500000
v 4.070000 0.460000 -3.500000
v -4.250000 0.100000 3.500000
v 4.250000 0.100000 3.500000
v 4.250000 0.100000 3.320000
v -4.250000 0.100000 3.320000
v -4.250000 0.460000 3.500000
v 4.250000 0.460000 3.500000
v 4.250000 0.460000 3.320000
v -4.250000 0.460000 3.320000
v -4.250000 0.100000 -3.320000
v 4.250000 0.100000 -3.320000
v 4.250000 0.100000 -3.500000
v -4.250000 0.100000 -3.500000
v -4.250000 0.460000 -3.320000
v 4.250000 0.460000 -3.320000
v 4.250000 0.460000 -3.500000
v -4.250000 0.460000 -3.500000
v -2.975000 0.220000 2.345000
v 2.975000 0.220000 2.345000
v 2.975000 0.220000 -2.345000
v -2.975000 0.220000 -2.345000
v -2.975000 0.460000 2.345000
v 2.975000 0.460000 2.345000
v 2.975000 0.460000 -2.345000
v -2.975000 0.460000 -2.345000
v -2.975000 0.220000 2.470000
v -2.290750 0.220000 2.470000
v -2.290750 0.220000 2.220000
v -2.975000 0.220000 2.220000
v -2.975000 3.070000 2.470000
v -2.290750 3.070000 2.470000
v -2.290750 3.070000 2.220000
v -2.975000 3.070000 2.220000
v -0.684250 0.220000 2.470000
v 0.000000 0.220000 2.470000
v 0.000000 0.220000 2.220000
v -0.684250 0.220000 2.220000
v -0.684250 3.070000 2.470000
v 0.000000 3.070000 2.470000
v 0.000000 3.070000 2.220000
v -0.684250 3.070000 2.220000
v -2.290750 0.220000 2.470000
v -0.684250 0.220000 2.470000
v -0.684250 0.220000 2.220000
v -2.290750 0.220000 2.220000
v -2.290750 0.560000 2.470000
v -0.684250 0.560000 2.470000
v -0.684250 0.560000 2.220000
v -2.290750 0.560000 2.220000
v -2.290750 2.730000 2.470000
v -0.684250 2.730000 2.470000
v -0.684250 2.730000 2.220000
v -2.290750 2.730000 2.220000
v -2.290750 3.070000 2.470000
v -0.684250 3.070000 2.470000
v -0.684250 3.070000 2.220000
v -2.290750 3.070000 2.220000
v -2.260750 0.590000 2.355000
v -0.714250 0.590000 2.355000
v -0.714250 0.590000 2.260000
v -2.260750 0.590000 2.260000
v -2.260750 2.700000 2.355000
v -0.714250 2.700000 2.355000
v -0.714250 2.700000 2.260000
v -2.260750 2.700000 2.260000
v -2.335750 0.530000 2.874000
v -2.245750 0.530000 2.874000
v -2.245750 0.530000 2.754000
v -2.335750 0.530000 2.754000
v -2.335750 2.760000 2.874000
v -2.245750 2.760000 2.874000
v -2.245750 2.760000 2.754000
v -2.335750 2.760000 2.754000
v -0.729250 0.530000 2.874000
v -0.639250 0.530000 2.874000
v -0.639250 0.530000 2.754000
v -0.729250 0.530000 2.754000
v -0.729250 2.760000 2.874000
v -0.639250 2.760000 2.874000
v -0.639250 2.760000 2.754000
v -0.729250 2.760000 2.754000
v -2.340750 0.515000 2.874000
v -0.634250 0.515000 2.874000
v -0.634250 0.515000 2.754000
v -2.340750 0.515000 2.754000
v -2.340750 0.605000 2.874000
v -0.634250 0.605000 2.874000
v -0.634250 0.605000 2.754000
v -2.340750 0.605000 2.754000
v -2.340750 2.685000 2.874000
v -0.634250 2.685000 2.874000
v -0.634250 2.685000 2.754000
v -2.340750 2.685000 2.754000
v -2.340750 2.775000 2.874000
v -0.634250 2.775000 2.874000
v -0.634250 2.775000 2.754000
v -2.340750 2.775000 2.754000
v -1.515000 1.003750 2.520000
v -1.460000 1.003750 2.520000
v -1.460000 1.003750 2.450000
v -1.515000 1.003750 2.450000
v -1.515000 2.286250 2.520000
v -1.460000 2.286250 2.520000
v -1.460000 2.286250 2.450000
v -1.515000 2.286250 2.450000
v 0.040000 0.215000 2.435000
v 2.935000 0.215000 2.435000
v 2.935000 0.215000 2.255000
v 0.040000 0.215000 2.255000
v 0.040000 0.865000 2.435000
v 2.935000 0.865000 2.435000
v 2.935000 0.865000 2.255000
v 0.040000 0.865000 2.255000
v -2.975000 0.220000 -2.220000
v -2.290750 0.220000 -2.220000
v -2.290750 0.220000 -2.470000
v -2.975000 0.220000 -2.470000
v -2.975000 3.070000 -2.220000
v -2.290750 3.070000 -2.220000
v -2.290750 3.070000 -2.470000
v -2.975000 3.070000 -2.470000
v -0.684250 0.220000 -2.220000
v 0.000000 0.220000 -2.220000
v 0.000000 0.220000 -2.470000
v -0.684250 0.220000 -2.470000
v -0.684250 3.070000 -2.220000
v 0.000000 3.070000 -2.220000
v 0.000000 3.070000 -2.470000
v -0.684250 3.070000 -2.470000
v -2.290750 0.220000 -2.220000
v -0.684250 0.220000 -2.220000
v -0.684250 0.220000 -2.470000
v -2.290750 0.220000 -2.470000
v -2.290750 0.560000 -2.220000
v -0.684250 0.560000 -2.220000
v -0.684250 0.560000 -2.470000
v -2.290750 0.560000 -2.470000
v -2.290750 2.730000 -2.220000
v -0.684250 2.730000 -2.220000
v -0.684250 2.730000 -2.470000
v -2.290750 2.730000 -2.470000
v -2.290750 3.070000 -2.220000
v -0.684250 3.070000 -2.220000
v -0.684250 3.070000 -2.470000
v -2.290750 3.070000 -2.470000
v -2.260750 0.590000 -2.335000
v -0.714250 0.590000 -2.335000
v -0.714250 0.590000 -2.430000
v -2.260750 0.590000 -2.430000
v -2.260750 2.700000 -2.335000
v -0.714250 2.700000 -2.335000
v -0.714250 2.700000 -2.430000
v -2.260750 2.700000 -2.430000
v -2.335750 0.530000 -1.816000
v -2.245750 0.530000 -1.816000
v -2.245750 0.530000 -1.936000
v -2.335750 0.530000 -1.936000
v -2.335750 2.760000 -1.816000
v -2.245750 2.760000 -1.816000
v -2.245750 2.760000 -1.936000
v -2.335750 2.760000 -1.936000
v -0.729250 0.530000 -1.816000
v -0.639250 0.530000 -1.816000
v -0.639250 0.530000 -1.936000
v -0.729250 0.530000 -1.936000
v -0.729250 2.760000 -1.816000
v -0.639250 2.760000 -1.816000
v -0.639250 2.760000 -1.936000
v -0.729250 2.760000 -1.936000
v -2.340750 0.515000 -1.816000
v -0.634250 0.515000 -1.816000
v -0.634250 0.515000 -1.936000
v -2.340750 0.515000 -1.936000
v -2.340750 0.605000 -1.816000
v -0.634250 0.605000 -1.816000
v -0.634250 0.605000 -1.936000
v -2.340750 0.605000 -1.936000
v -2.340750 2.685000 -1.816000
v -0.634250 2.685000 -1.816000
v -0.634250 2.685000 -1.936000
v -2.340750 2.685000 -1.936000
v -2.340750 2.775000 -1.816000
v -0.634250 2.775000 -1.816000
v -0.634250 2.775000 -1.936000
v -2.340750 2.775000 -1.936000
v -1.515000 1.003750 -2.170000
v -1.460000 1.003750 -2.170000
v -1.460000 1.003750 -2.240000
v -1.515000 1.003750 -2.240000
v -1.515000 2.286250 -2.170000
v -1.460000 2.286250 -2.170000
v -1.460000 2.286250 -2.240000
v -1.515000 2.286250 -2.240000
v 0.040000 0.215000 -2.255000
v 2.935000 0.215000 -2.255000
v 2.935000 0.215000 -2.435000
v 0.040000 0.215000 -2.435000
v 0.040000 0.865000 -2.255000
v 2.935000 0.865000 -2.255000
v 2.935000 0.865000 -2.435000
v 0.040000 0.865000 -2.435000
v -3.100000 0.220000 1.986300
v -2.850000 0.220000 1.986300
v -2.850000 0.220000 1.546300
v -3.100000 0.220000 1.546300
v -3.100000 3.070000 1.986300
v -2.850000 3.070000 1.986300
v -2.850000 3.070000 1.546300
v -3.100000 3.070000 1.546300
v -3.100000 0.220000 0.986300
v -2.850000 0.220000 0.986300
v -2.850000 0.220000 0.546300
v -3.100000 0.220000 0.546300
v -3.100000 3.070000 0.986300
v -2.850000 3.070000 0.986300
v -2.850000 3.070000 0.546300
v -3.100000 3.070000 0.546300
v -3.100000 0.220000 1.546300
v -2.850000 0.220000 1.546300
v -2.850000 0.220000 0.986300
v -3.100000 0.220000 0.986300
v -3.100000 0.580000 1.546300
v -2.850000 0.580000 1.546300
v -2.850000 0.580000 0.986300
v -3.100000 0.580000 0.986300
v -3.100000 2.690000 1.546300
v -2.850000 2.690000 1.546300
v -2.850000 2.690000 0.986300
v -3.100000 2.690000 0.986300
v -3.100000 3.070000 1.546300
v -2.850000 3.070000 1.546300
v -2.850000 3.070000 0.986300
v -3.100000 3.070000 0.986300
v -3.060000 0.610000 1.516300
v -2.965000 0.610000 1.516300
v -2.965000 0.610000 1.016300
v -3.060000 0.610000 1.016300
v -3.060000 2.660000 1.516300
v -2.965000 2.660000 1.516300
v -2.965000 2.660000 1.016300
v -3.060000 2.660000 1.016300
v -3.100000 0.220000 -0.546300
v -2.850000 0.220000 -0.546300
v -2.850000 0.220000 -0.986300
v -3.100000 0.220000 -0.986300
v -3.100000 3.070000 -0.546300
v -2.850000 3.070000 -0.546300
v -2.850000 3.070000 -0.986300
v -3.100000 3.070000 -0.986300
v -3.100000 0.220000 -1.546300
v -2.850000 0.220000 -1.546300
v -2.850000 0.220000 -1.986300
v -3.100000 0.220000 -1.986300
v -3.100000 3.070000 -1.546300
v -2.850000 3.070000 -1.546300
v -2.850000 3.070000 -1.986300
v -3.100000 3.070000 -1.986300
v -3.100000 0.220000 -0.986300
v -2.850000 0.220000 -0.986300
v -2.850000 0.220000 -1.546300
v -3.100000 0.220000 -1.546300
v -3.100000 0.580000 -0.986300
v -2.850000 0.580000 -0.986300
v -2.850000 0.580000 -1.546300
v -3.100000 0.580000 -1.546300
v -3.100000 2.690000 -0.986300
v -2.850000 2.690000 -0.986300
v -2.850000 2.690000 -1.546300
v -3.100000 2.690000 -1.546300
v -3.100000 3.070000 -0.986300
v -2.850000 3.070000 -0.986300
v -2.850000 3.070000 -1.546300
v -3.100000 3.070000 -1.546300
v -3.060000 0.610000 -1.016300
v -2.965000 0.610000 -1.016300
v -2.965000 0.610000 -1.516300
v -3.060000 0.610000 -1.516300
v -3.060000 2.660000 -1.016300
v -2.965000 2.660000 -1.016300
v -2.965000 2.660000 -1.516300
v -3.060000 2.660000 -1.516300
v 2.850000 0.220000 1.986300
v 3.100000 0.220000 1.986300
v 3.100000 0.220000 1.546300
v 2.850000 0.220000 1.546300
v 2.850000 3.070000 1.986300
v 3.100000 3.070000 1.986300
v 3.100000 3.070000 1.546300
v 2.850000 3.070000 1.546300
v 2.850000 0.220000 0.986300
v 3.100000 0.220000 0.986300
v 3.100000 0.220000 0.546300
v 2.850000 0.220000 0.546300
v 2.850000 3.070000 0.986300
v 3.100000 3.070000 0.986300
v 3.100000 3.070000 0.546300
v 2.850000 3.070000 0.546300
v 2.850000 0.220000 1.546300
v 3.100000 0.220000 1.546300
v 3.100000 0.220000 0.986300
v 2.850000 0.220000 0.986300
v 2.850000 0.580000 1.546300
v 3.100000 0.580000 1.546300
v 3.100000 0.580000 0.986300
v 2.850000 0.580000 0.986300
v 2.850000 2.690000 1.546300
v 3.100000 2.690000 1.546300
v 3.100000 2.690000 0.986300
v 2.850000 2.690000 0.986300
v 2.850000 3.070000 1.546300
v 3.100000 3.070000 1.546300
v 3.100000 3.070000 0.986300
v 2.850000 3.070000 0.986300
v 2.890000 0.610000 1.516300
v 2.985000 0.610000 1.516300
v 2.985000 0.610000 1.016300
v 2.890000 0.610000 1.016300
v 2.890000 2.660000 1.516300
v 2.985000 2.660000 1.516300
v 2.985000 2.660000 1.016300
v 2.890000 2.660000 1.016300
v 2.850000 0.220000 -0.546300
v 3.100000 0.220000 -0.546300
v 3.100000 0.220000 -0.986300
v 2.850000 0.220000 -0.986300
v 2.850000 3.070000 -0.546300
v 3.100000 3.070000 -0.546300
v 3.100000 3.070000 -0.986300
v 2.850000 3.070000 -0.986300
v 2.850000 0.220000 -1.546300
v 3.100000 0.220000 -1.546300
v 3.100000 0.220000 -1.986300
v 2.850000 0.220000 -1.986300
v 2.850000 3.070000 -1.546300
v 3.100000 3.070000 -1.546300
v 3.100000 3.070000 -1.986300
v 2.850000 3.070000 -1.986300
v 2.850000 0.220000 -0.986300
v 3.100000 0.220000 -0.986300
v 3.100000 0.220000 -1.546300
v 2.850000 0.220000 -1.546300
v 2.850000 0.580000 -0.986300
v 3.100000 0.580000 -0.986300
v 3.100000 0.580000 -1.546300
v 2.850000 0.580000 -1.546300
v 2.850000 2.690000 -0.986300
v 3.100000 2.690000 -0.986300
v 3.100000 2.690000 -1.546300
v 2.850000 2.690000 -1.546300
v 2.850000 3.070000 -0.986300
v 3.100000 3.070000 -0.986300
v 3.100000 3.070000 -1.546300
v 2.850000 3.070000 -1.546300
v 2.890000 0.610000 -1.016300
v 2.985000 0.610000 -1.016300
v 2.985000 0.610000 -1.516300
v 2.890000 0.610000 -1.516300
v 2.890000 2.660000 -1.016300
v 2.985000 2.660000 -1.016300
v 2.985000 2.660000 -1.516300
v 2.890000 2.660000 -1.516300
v -2.975000 3.170000 2.345000
v 2.975000 3.170000 2.345000
v 0.630000 4.350000 0.000000
v -0.630000 4.350000 0.000000
v -2.975000 3.120870 2.320278
v 2.975000 3.120870 2.320278
v 0.630000 4.300869 -0.024722
v -0.630000 4.300869 -0.024722
v 2.975000 3.170000 -2.345000
v -2.975000 3.170000 -2.345000
v -0.630000 4.350000 0.000000
v 0.630000 4.350000 0.000000
v 2.975000 3.120870 -2.320278
v -2.975000 3.120870 -2.320278
v -0.630000 4.300869 0.024722
v 0.630000 4.300869 0.024722
v -2.975000 3.170000 2.345000
v -2.975000 3.170000 -2.345000
v -0.630000 4.350000 0.000000
v -2.999722 3.219131 2.345000
v -2.999722 3.219131 -2.345000
v -0.654722 4.399130 0.000000
v 2.975000 3.170000 2.345000
v 0.630000 4.350000 0.000000
v 2.975000 3.170000 -2.345000
v 2.999722 3.219131 2.345000
v 0.654722 4.399130 0.000000
v 2.999722 3.219131 -2.345000
v -3.035000 3.060000 2.470000
v 3.035000 3.060000 2.470000
v 3.035000 3.060000 2.340000
v -3.035000 3.060000 2.340000
v -3.035000 3.220000 2.470000
v 3.035000 3.220000 2.470000
v 3.035000 3.220000 2.340000
v -3.035000 3.220000 2.340000
v -3.035000 3.060000 -2.340000
v 3.035000 3.060000 -2.340000
v 3.035000 3.060000 -2.470000
v -3.035000 3.060000 -2.470000
v -3.035000 3.220000 -2.340000
v 3.035000 3.220000 -2.340000
v 3.035000 3.220000 -2.470000
v -3.035000 3.220000 -2.470000
v -2.740500 3.321167 1.976667
v 2.740500 3.321167 1.976667
v 2.740500 3.321167 1.931667
v -2.740500 3.321167 1.931667
v -2.740500 3.376167 1.976667
v 2.740500 3.376167 1.976667
v 2.740500 3.376167 1.931667
v -2.740500 3.376167 1.931667
v -2.740500 3.321167 -1.931667
v 2.740500 3.321167 -1.931667
v 2.740500 3.321167 -1.976667
v -2.740500 3.321167 -1.976667
v -2.740500 3.376167 -1.931667
v 2.740500 3.376167 -1.931667
v 2.740500 3.376167 -1.976667
v -2.740500 3.376167 -1.976667
v -2.506000 3.517833 1.585833
v 2.506000 3.517833 1.585833
v 2.506000 3.517833 1.540833
v -2.506000 3.517833 1.540833
v -2.506000 3.572833 1.585833
v 2.506000 3.572833 1.585833
v 2.506000 3.572833 1.540833
v -2.506000 3.572833 1.540833
v -2.506000 3.517833 -1.540833
v 2.506000 3.517833 -1.540833
v 2.506000 3.517833 -1.585833
v -2.506000 3.517833 -1.585833
v -2.506000 3.572833 -1.540833
v 2.506000 3.572833 -1.540833
v 2.506000 3.572833 -1.585833
v -2.506000 3.572833 -1.585833
v -2.271500 3.714500 1.195000
v 2.271500 3.714500 1.195000
v 2.271500 3.714500 1.150000
v -2.271500 3.714500 1.150000
v -2.271500 3.769500 1.195000
v 2.271500 3.769500 1.195000
v 2.271500 3.769500 1.150000
v -2.271500 3.769500 1.150000
v -2.271500 3.714500 -1.150000
v 2.271500 3.714500 -1.150000
v 2.271500 3.714500 -1.195000
v -2.271500 3.714500 -1.195000
v -2.271500 3.769500 -1.150000
v 2.271500 3.769500 -1.150000
v 2.271500 3.769500 -1.195000
v -2.271500 3.769500 -1.195000
v -2.037000 3.911167 0.804167
v 2.037000 3.911167 0.804167
v 2.037000 3.911167 0.759167
v -2.037000 3.911167 0.759167
v -2.037000 3.966167 0.804167
v 2.037000 3.966167 0.804167
v 2.037000 3.966167 0.759167
v -2.037000 3.966167 0.759167
v -2.037000 3.911167 -0.759167
v 2.037000 3.911167 -0.759167
v 2.037000 3.911167 -0.804167
v -2.037000 3.911167 -0.804167
v -2.037000 3.966167 -0.759167
v 2.037000 3.966167 -0.759167
v 2.037000 3.966167 -0.804167
v -2.037000 3.966167 -0.804167
v -1.802500 4.107833 0.413333
v 1.802500 4.107833 0.413333
v 1.802500 4.107833 0.368333
v -1.802500 4.107833 0.368333
v -1.802500 4.162833 0.413333
v 1.802500 4.162833 0.413333
v 1.802500 4.162833 0.368333
v -1.802500 4.162833 0.368333
v -1.802500 4.107833 -0.368333
v 1.802500 4.107833 -0.368333
v 1.802500 4.107833 -0.413333
v -1.802500 4.107833 -0.413333
v -1.802500 4.162833 -0.368333
v 1.802500 4.162833 -0.368333
v 1.802500 4.162833 -0.413333
v -1.802500 4.162833 -0.413333
v -0.790000 4.325000 0.100000
v 0.790000 4.325000 0.100000
v 0.790000 4.325000 -0.100000
v -0.790000 4.325000 -0.100000
v -0.790000 4.485000 0.100000
v 0.790000 4.485000 0.100000
v 0.790000 4.485000 -0.100000
v -0.790000 4.485000 -0.100000
v -2.893500 1.720000 2.910000
v -2.818500 1.720000 2.910000
v -2.818500 1.720000 2.830000
v -2.893500 1.720000 2.830000
v -2.893500 4.120000 2.910000
v -2.818500 4.120000 2.910000
v -2.818500 4.120000 2.830000
v -2.893500 4.120000 2.830000
v 2.818500 1.720000 2.910000
v 2.893500 1.720000 2.910000
v 2.893500 1.720000 2.830000
v 2.818500 1.720000 2.830000
v 2.818500 4.120000 2.910000
v 2.893500 4.120000 2.910000
v 2.893500 4.120000 2.830000
v 2.818500 4.120000 2.830000
v -2.975000 3.802500 2.910000
v 2.975000 3.802500 2.910000
v 2.975000 3.802500 2.830000
v -2.975000 3.802500 2.830000
v -2.975000 3.877500 2.910000
v 2.975000 3.877500 2.910000
v 2.975000 3.877500 2.830000
v -2.975000 3.877500 2.830000
vn -0.0000 -1.0000 -0.0000
vn -0.0000 1.0000 -0.0000
vn -0.0000 -0.0000 1.0000
vn 1.0000 -0.0000 -0.0000
vn -0.0000 -0.0000 -1.0000
vn -1.0000 -0.0000 -0.0000
vn -0.0000 0.8933 0.4495
vn -0.0000 -0.8933 -0.4495
vn -0.0000 0.4495 -0.8933
vn -0.7458 -0.2995 0.5951
vn -0.0000 -0.4495 0.8933
vn 0.7458 -0.2995 0.5951
vn -0.0000 0.8933 -0.4495
vn -0.0000 -0.8933 0.4495
vn -0.0000 0.4495 0.8933
vn 0.7458 -0.2995 -0.5951
vn -0.0000 -0.4495 -0.8933
vn -0.7458 -0.2995 -0.5951
vn 0.4495 -0.8933 -0.0000
vn -0.4495 0.8933 -0.0000
vn 0.8933 0.4495 -0.0000
vn -0.5951 -0.2995 0.7458
vn -0.5951 -0.2995 -0.7458
vn -0.4495 -0.8933 -0.0000
vn 0.4495 0.8933 -0.0000
vn 0.5951 -0.2995 -0.7458
vn 0.5951 -0.2995 0.7458
vn -0.8933 0.4495 -0.0000
vt 0.219920 0.550080
vt 0.030080 0.949920
vt 0.030080 0.550080
vt 0.469920 0.050080
vt 0.280080 0.449920
vt 0.280080 0.050080
vt 0.219920 0.050080
vt 0.030080 0.449920
vt 0.030080 0.050080
vt 0.969920 0.050080
vt 0.780080 0.449920
vt 0.780080 0.050080
vt 0.719920 0.550080
vt 0.530080 0.949920
vt 0.530080 0.550080
vt 0.469920 0.550080
vt 0.280080 0.949920
vt 0.280080 0.550080
vt 0.719920 0.050080
vt 0.530080 0.449920
vt 0.530080 0.050080
vt 0.719920 0.449920
vt 0.625000 0.449920
vt 0.219920 0.949920
vt 0.469920 0.449920
vt 0.219920 0.449920
vt 0.969920 0.449920
vt 0.719920 0.949920
vt 0.469920 0.949920
s 0
f 4/1/1 2/2/1 1/3/1
f 6/1/2 8/2/2 5/3/2
f 2/1/3 5/2/3 1/3/3
f 3/1/4 6/2/4 2/3/4
f 4/1/5 7/2/5 3/3/5
f 1/1/6 8/2/6 4/3/6
f 12/4/1 10/5/1 9/6/1
f 14/4/2 16/5/2 13/6/2
f 10/4/3 13/5/3 9/6/3
f 11/4/4 14/5/4 10/6/4
f 12/4/5 15/5/5 11/6/5
f 9/4/6 16/5/6 12/6/6
f 20/4/1 18/5/1 17/6/1
f 22/4/2 24/5/2 21/6/2
f 18/4/3 21/5/3 17/6/3
f 19/4/4 22/5/4 18/6/4
f 20/4/5 23/5/5 19/6/5
f 17/4/6 24/5/6 20/6/6
f 28/4/1 26/5/1 25/6/1
f 30/4/2 32/5/2 29/6/2
f 26/4/3 29/5/3 25/6/3
f 27/4/4 30/5/4 26/6/4
f 28/4/5 31/5/5 27/6/5
f 25/4/6 32/5/6 28/6/6
f 36/4/1 34/5/1 33/6/1
f 38/4/2 40/5/2 37/6/2
f 34/4/3 37/5/3 33/6/3
f 35/4/4 38/5/4 34/6/4
f 36/4/5 39/5/5 35/6/5
f 33/4/6 40/5/6 36/6/6
f 44/1/1 42/2/1 41/3/1
f 46/1/2 48/2/2 45/3/2
f 42/1/3 45/2/3 41/3/3
f 43/1/4 46/2/4 42/3/4
f 44/1/5 47/2/5 43/3/5
f 41/1/6 48/2/6 44/3/6
f 52/7/1 50/8/1 49/9/1
f 54/7/2 56/8/2 53/9/2
f 50/7/3 53/8/3 49/9/3
f 51/7/4 54/8/4 50/9/4
f 52/7/5 55/8/5 51/9/5
f 49/7/6 56/8/6 52/9/6
f 60/7/1 58/8/1 57/9/1
f 62/7/2 64/8/2 61/9/2
f 58/7/3 61/8/3 57/9/3
f 59/7/4 62/8/4 58/9/4
f 60/7/5 63/8/5 59/9/5
f 57/7/6 64/8/6 60/9/6
f 68/7/1 66/8/1 65/9/1
f 70/7/2 72/8/2 69/9/2
f 66/7/3 69/8/3 65/9/3
f 67/7/4 70/8/4 66/9/4
f 68/7/5 71/8/5 67/9/5
f 65/7/6 72/8/6 68/9/6
f 76/7/1 74/8/1 73/9/1
f 78/7/2 80/8/2 77/9/2
f 74/7/3 77/8/3 73/9/3
f 75/7/4 78/8/4 74/9/4
f 76/7/5 79/8/5 75/9/5
f 73/7/6 80/8/6 76/9/6
f 84/10/1 82/11/1 81/12/1
f 86/10/2 88/11/2 85/12/2
f 82/10/3 85/11/3 81/12/3
f 83/10/4 86/11/4 82/12/4
f 84/10/5 87/11/5 83/12/5
f 81/10/6 88/11/6 84/12/6
f 92/7/1 90/8/1 89/9/1
f 94/7/2 96/8/2 93/9/2
f 90/7/3 93/8/3 89/9/3
f 91/7/4 94/8/4 90/9/4
f 92/7/5 95/8/5 91/9/5
f 89/7/6 96/8/6 92/9/6
f 100/7/1 98/8/1 97/9/1
f 102/7/2 104/8/2 101/9/2
f 98/7/3 101/8/3 97/9/3
f 99/7/4 102/8/4 98/9/4
f 100/7/5 103/8/5 99/9/5
f 97/7/6 104/8/6 100/9/6
f 108/7/1 106/8/1 105/9/1
f 110/7/2 112/8/2 109/9/2
f 106/7/3 109/8/3 105/9/3
f 107/7/4 110/8/4 106/9/4
f 108/7/5 111/8/5 107/9/5
f 105/7/6 112/8/6 108/9/6
f 116/7/1 114/8/1 113/9/1
f 118/7/2 120/8/2 117/9/2
f 114/7/3 117/8/3 113/9/3
f 115/7/4 118/8/4 114/9/4
f 116/7/5 119/8/5 115/9/5
f 113/7/6 120/8/6 116/9/6
f 124/13/1 122/14/1 121/15/1
f 126/13/2 128/14/2 125/15/2
f 122/13/3 125/14/3 121/15/3
f 123/13/4 126/14/4 122/15/4
f 124/13/5 127/14/5 123/15/5
f 121/13/6 128/14/6 124/15/6
f 132/16/1 130/17/1 129/18/1
f 134/16/2 136/17/2 133/18/2
f 130/16/3 133/17/3 129/18/3
f 131/16/4 134/17/4 130/18/4
f 132/16/5 135/17/5 131/18/5
f 129/16/6 136/17/6 132/18/6
f 140/7/1 138/8/1 137/9/1
f 142/7/2 144/8/2 141/9/2
f 138/7/3 141/8/3 137/9/3
f 139/7/4 142/8/4 138/9/4
f 140/7/5 143/8/5 139/9/5
f 137/7/6 144/8/6 140/9/6
f 148/7/1 146/8/1 145/9/1
f 150/7/2 152/8/2 149/9/2
f 146/7/3 149/8/3 145/9/3
f 147/7/4 150/8/4 146/9/4
f 148/7/5 151/8/5 147/9/5
f 145/7/6 152/8/6 148/9/6
f 156/7/1 154/8/1 153/9/1
f 158/7/2 160/8/2 157/9/2
f 154/7/3 157/8/3 153/9/3
f 155/7/4 158/8/4 154/9/4
f 156/7/5 159/8/5 155/9/5
f 153/7/6 160/8/6 156/9/6
f 164/7/1 162/8/1 161/9/1
f 166/7/2 168/8/2 165/9/2
f 162/7/3 165/8/3 161/9/3
f 163/7/4 166/8/4 162/9/4
f 164/7/5 167/8/5 163/9/5
f 161/7/6 168/8/6 164/9/6
f 172/10/1 170/11/1 169/12/1
f 174/10/2 176/11/2 173/12/2
f 170/10/3 173/11/3 169/12/3
f 171/10/4 174/11/4 170/12/4
f 172/10/5 175/11/5 171/12/5
f 169/10/6 176/11/6 172/12/6
f 180/7/1 178/8/1 177/9/1
f 182/7/2 184/8/2 181/9/2
f 178/7/3 181/8/3 177/9/3
f 179/7/4 182/8/4 178/9/4
f 180/7/5 183/8/5 179/9/5
f 177/7/6 184/8/6 180/9/6
f 188/7/1 186/8/1 185/9/1
f 190/7/2 192/8/2 189/9/2
f 186/7/3 189/8/3 185/9/3
f 187/7/4 190/8/4 186/9/4
f 188/7/5 191/8/5 187/9/5
f 185/7/6 192/8/6 188/9/6
f 196/7/1 194/8/1 193/9/1
f 198/7/2 200/8/2 197/9/2
f 194/7/3 197/8/3 193/9/3
f 195/7/4 198/8/4 194/9/4
f 196/7/5 199/8/5 195/9/5
f 193/7/6 200/8/6 196/9/6
f 204/7/1 202/8/1 201/9/1
f 206/7/2 208/8/2 205/9/2
f 202/7/3 205/8/3 201/9/3
f 203/7/4 206/8/4 202/9/4
f 204/7/5 207/8/5 203/9/5
f 201/7/6 208/8/6 204/9/6
f 212/13/1 210/14/1 209/15/1
f 214/13/2 216/14/2 213/15/2
f 210/13/3 213/14/3 209/15/3
f 211/13/4 214/14/4 210/15/4
f 212/13/5 215/14/5 211/15/5
f 209/13/6 216/14/6 212/15/6
f 220/16/1 218/17/1 217/18/1
f 222/16/2 224/17/2 221/18/2
f 218/16/3 221/17/3 217/18/3
f 219/16/4 222/17/4 218/18/4
f 220/16/5 223/17/5 219/18/5
f 217/16/6 224/17/6 220/18/6
f 228/7/1 226/8/1 225/9/1
f 230/7/2 232/8/2 229/9/2
f 226/7/3 229/8/3 225/9/3
f 227/7/4 230/8/4 226/9/4
f 228/7/5 231/8/5 227/9/5
f 225/7/6 232/8/6 228/9/6
f 236/7/1 234/8/1 233/9/1
f 238/7/2 240/8/2 237/9/2
f 234/7/3 237/8/3 233/9/3
f 235/7/4 238/8/4 234/9/4
f 236/7/5 239/8/5 235/9/5
f 233/7/6 240/8/6 236/9/6
f 244/7/1 242/8/1 241/9/1
f 246/7/2 248/8/2 245/9/2
f 242/7/3 245/8/3 241/9/3
f 243/7/4 246/8/4 242/9/4
f 244/7/5 247/8/5 243/9/5
f 241/7/6 248/8/6 244/9/6
f 252/7/1 250/8/1 249/9/1
f 254/7/2 256/8/2 253/9/2
f 250/7/3 253/8/3 249/9/3
f 251/7/4 254/8/4 250/9/4
f 252/7/5 255/8/5 251/9/5
f 249/7/6 256/8/6 252/9/6
f 260/10/1 258/11/1 257/12/1
f 262/10/2 264/11/2 261/12/2
f 258/10/3 261/11/3 257/12/3
f 259/10/4 262/11/4 258/12/4
f 260/10/5 263/11/5 259/12/5
f 257/10/6 264/11/6 260/12/6
f 268/7/1 266/8/1 265/9/1
f 270/7/2 272/8/2 269/9/2
f 266/7/3 269/8/3 265/9/3
f 267/7/4 270/8/4 266/9/4
f 268/7/5 271/8/5 267/9/5
f 265/7/6 272/8/6 268/9/6
f 276/7/1 274/8/1 273/9/1
f 278/7/2 280/8/2 277/9/2
f 274/7/3 277/8/3 273/9/3
f 275/7/4 278/8/4 274/9/4
f 276/7/5 279/8/5 275/9/5
f 273/7/6 280/8/6 276/9/6
f 284/7/1 282/8/1 281/9/1
f 286/7/2 288/8/2 285/9/2
f 282/7/3 285/8/3 281/9/3
f 283/7/4 286/8/4 282/9/4
f 284/7/5 287/8/5 283/9/5
f 281/7/6 288/8/6 284/9/6
f 292/7/1 290/8/1 289/9/1
f 294/7/2 296/8/2 293/9/2
f 290/7/3 293/8/3 289/9/3
f 291/7/4 294/8/4 290/9/4
f 292/7/5 295/8/5 291/9/5
f 289/7/6 296/8/6 292/9/6
f 300/10/1 298/11/1 297/12/1
f 302/10/2 304/11/2 301/12/2
f 298/10/3 301/11/3 297/12/3
f 299/10/4 302/11/4 298/12/4
f 300/10/5 303/11/5 299/12/5
f 297/10/6 304/11/6 300/12/6
f 308/7/1 306/8/1 305/9/1
f 310/7/2 312/8/2 309/9/2
f 306/7/3 309/8/3 305/9/3
f 307/7/4 310/8/4 306/9/4
f 308/7/5 311/8/5 307/9/5
f 305/7/6 312/8/6 308/9/6
f 316/7/1 314/8/1 313/9/1
f 318/7/2 320/8/2 317/9/2
f 314/7/3 317/8/3 313/9/3
f 315/7/4 318/8/4 314/9/4
f 316/7/5 319/8/5 315/9/5
f 313/7/6 320/8/6 316/9/6
f 324/7/1 322/8/1 321/9/1
f 326/7/2 328/8/2 325/9/2
f 322/7/3 325/8/3 321/9/3
f 323/7/4 326/8/4 322/9/4
f 324/7/5 327/8/5 323/9/5
f 321/7/6 328/8/6 324/9/6
f 332/7/1 330/8/1 329/9/1
f 334/7/2 336/8/2 333/9/2
f 330/7/3 333/8/3 329/9/3
f 331/7/4 334/8/4 330/9/4
f 332/7/5 335/8/5 331/9/5
f 329/7/6 336/8/6 332/9/6
f 340/10/1 338/11/1 337/12/1
f 342/10/2 344/11/2 341/12/2
f 338/10/3 341/11/3 337/12/3
f 339/10/4 342/11/4 338/12/4
f 340/10/5 343/11/5 339/12/5
f 337/10/6 344/11/6 340/12/6
f 348/7/1 346/8/1 345/9/1
f 350/7/2 352/8/2 349/9/2
f 346/7/3 349/8/3 345/9/3
f 347/7/4 350/8/4 346/9/4
f 348/7/5 351/8/5 347/9/5
f 345/7/6 352/8/6 348/9/6
f 356/7/1 354/8/1 353/9/1
f 358/7/2 360/8/2 357/9/2
f 354/7/3 357/8/3 353/9/3
f 355/7/4 358/8/4 354/9/4
f 356/7/5 359/8/5 355/9/5
f 353/7/6 360/8/6 356/9/6
f 364/7/1 362/8/1 361/9/1
f 366/7/2 368/8/2 365/9/2
f 362/7/3 365/8/3 361/9/3
f 363/7/4 366/8/4 362/9/4
f 364/7/5 367/8/5 363/9/5
f 361/7/6 368/8/6 364/9/6
f 372/7/1 370/8/1 369/9/1
f 374/7/2 376/8/2 373/9/2
f 370/7/3 373/8/3 369/9/3
f 371/7/4 374/8/4 370/9/4
f 372/7/5 375/8/5 371/9/5
f 369/7/6 376/8/6 372/9/6
f 380/10/1 378/11/1 377/12/1
f 382/10/2 384/11/2 381/12/2
f 378/10/3 381/11/3 377/12/3
f 379/10/4 382/11/4 378/12/4
f 380/10/5 383/11/5 379/12/5
f 377/10/6 384/11/6 380/12/6
f 386/19/7 388/20/7 385/21/7
f 391/19/8 389/20/8 392/21/8
f 386/19/9 389/20/9 385/21/9
f 387/19/10 390/20/10 386/21/10
f 388/19/11 391/20/11 387/21/11
f 388/21/12 389/22/12 392/20/12
f 394/19/13 396/20/13 393/21/13
f 399/19/14 397/20/14 400/21/14
f 394/19/15 397/20/15 393/21/15
f 395/19/16 398/20/16 394/21/16
f 396/19/17 399/20/17 395/21/17
f 396/21/18 397/22/18 400/20/18
f 401/21/19 402/19/19 403/23/19
f 406/21/20 405/19/20 404/23/20
f 402/19/21 404/20/21 401/21/21
f 402/21/22 406/22/22 405/20/22
f 401/19/23 406/20/23 403/21/23
f 407/21/24 408/19/24 409/23/24
f 412/21/25 411/19/25 410/23/25
f 407/21/26 411/22/26 410/20/26
f 409/19/27 411/20/27 408/21/27
f 407/19/28 412/20/28 409/21/28
f 416/19/1 414/20/1 413/21/1
f 418/19/2 420/20/2 417/21/2
f 414/19/3 417/20/3 413/21/3
f 415/19/4 418/20/4 414/21/4
f 416/19/5 419/20/5 415/21/5
f 413/19/6 420/20/6 416/21/6
f 424/19/1 422/20/1 421/21/1
f 426/19/2 428/20/2 425/21/2
f 422/19/3 425/20/3 421/21/3
f 423/19/4 426/20/4 422/21/4
f 424/19/5 427/20/5 423/21/5
f 421/19/6 428/20/6 424/21/6
f 432/19/1 430/20/1 429/21/1
f 434/19/2 436/20/2 433/21/2
f 430/19/3 433/20/3 429/21/3
f 431/19/4 434/20/4 430/21/4
f 432/19/5 435/20/5 431/21/5
f 429/19/6 436/20/6 432/21/6
f 440/19/1 438/20/1 437/21/1
f 442/19/2 444/20/2 441/21/2
f 438/19/3 441/20/3 437/21/3
f 439/19/4 442/20/4 438/21/4
f 440/19/5 443/20/5 439/21/5
f 437/19/6 444/20/6 440/21/6
f 448/19/1 446/20/1 445/21/1
f 450/19/2 452/20/2 449/21/2
f 446/19/3 449/20/3 445/21/3
f 447/19/4 450/20/4 446/21/4
f 448/19/5 451/20/5 447/21/5
f 445/19/6 452/20/6 448/21/6
f 456/19/1 454/20/1 453/21/1
f 458/19/2 460/20/2 457/21/2
f 454/19/3 457/20/3 453/21/3
f 455/19/4 458/20/4 454/21/4
f 456/19/5 459/20/5 455/21/5
f 453/19/6 460/20/6 456/21/6
f 464/19/1 462/20/1 461/21/1
f 466/19/2 468/20/2 465/21/2
f 462/19/3 465/20/3 461/21/3
f 463/19/4 466/20/4 462/21/4
f 464/19/5 467/20/5 463/21/5
f 461/19/6 468/20/6 464/21/6
f 472/19/1 470/20/1 469/21/1
f 474/19/2 476/20/2 473/21/2
f 470/19/3 473/20/3 469/21/3
f 471/19/4 474/20/4 470/21/4
f 472/19/5 475/20/5 471/21/5
f 469/19/6 476/20/6 472/21/6
f 480/19/1 478/20/1 477/21/1
f 482/19/2 484/20/2 481/21/2
f 478/19/3 481/20/3 477/21/3
f 479/19/4 482/20/4 478/21/4
f 480/19/5 483/20/5 479/21/5
f 477/19/6 484/20/6 480/21/6
f 488/19/1 486/20/1 485/21/1
f 490/19/2 492/20/2 489/21/2
f 486/19/3 489/20/3 485/21/3
f 487/19/4 490/20/4 486/21/4
f 488/19/5 491/20/5 487/21/5
f 485/19/6 492/20/6 488/21/6
f 496/19/1 494/20/1 493/21/1
f 498/19/2 500/20/2 497/21/2
f 494/19/3 497/20/3 493/21/3
f 495/19/4 498/20/4 494/21/4
f 496/19/5 499/20/5 495/21/5
f 493/19/6 500/20/6 496/21/6
f 504/19/1 502/20/1 501/21/1
f 506/19/2 508/20/2 505/21/2
f 502/19/3 505/20/3 501/21/3
f 503/19/4 506/20/4 502/21/4
f 504/19/5 507/20/5 503/21/5
f 501/19/6 508/20/6 504/21/6
f 512/19/1 510/20/1 509/21/1
f 514/19/2 516/20/2 513/21/2
f 510/19/3 513/20/3 509/21/3
f 511/19/4 514/20/4 510/21/4
f 512/19/5 515/20/5 511/21/5
f 509/19/6 516/20/6 512/21/6
f 520/13/1 518/14/1 517/15/1
f 522/13/2 524/14/2 521/15/2
f 518/13/3 521/14/3 517/15/3
f 519/13/4 522/14/4 518/15/4
f 520/13/5 523/14/5 519/15/5
f 517/13/6 524/14/6 520/15/6
f 528/13/1 526/14/1 525/15/1
f 530/13/2 532/14/2 529/15/2
f 526/13/3 529/14/3 525/15/3
f 527/13/4 530/14/4 526/15/4
f 528/13/5 531/14/5 527/15/5
f 525/13/6 532/14/6 528/15/6
f 536/13/1 534/14/1 533/15/1
f 538/13/2 540/14/2 537/15/2
f 534/13/3 537/14/3 533/15/3
f 535/13/4 538/14/4 534/15/4
f 536/13/5 539/14/5 535/15/5
f 533/13/6 540/14/6 536/15/6
f 4/1/1 3/24/1 2/2/1
f 6/1/2 7/24/2 8/2/2
f 2/1/3 6/24/3 5/2/3
f 3/1/4 7/24/4 6/2/4
f 4/1/5 8/24/5 7/2/5
f 1/1/6 5/24/6 8/2/6
f 12/4/1 11/25/1 10/5/1
f 14/4/2 15/25/2 16/5/2
f 10/4/3 14/25/3 13/5/3
f 11/4/4 15/25/4 14/5/4
f 12/4/5 16/25/5 15/5/5
f 9/4/6 13/25/6 16/5/6
f 20/4/1 19/25/1 18/5/1
f 22/4/2 23/25/2 24/5/2
f 18/4/3 22/25/3 21/5/3
f 19/4/4 23/25/4 22/5/4
f 20/4/5 24/25/5 23/5/5
f 17/4/6 21/25/6 24/5/6
f 28/4/1 27/25/1 26/5/1
f 30/4/2 31/25/2 32/5/2
f 26/4/3 30/25/3 29/5/3
f 27/4/4 31/25/4 30/5/4
f 28/4/5 32/25/5 31/5/5
f 25/4/6 29/25/6 32/5/6
f 36/4/1 35/25/1 34/5/1
f 38/4/2 39/25/2 40/5/2
f 34/4/3 38/25/3 37/5/3
f 35/4/4 39/25/4 38/5/4
f 36/4/5 40/25/5 39/5/5
f 33/4/6 37/25/6 40/5/6
f 44/1/1 43/24/1 42/2/1
f 46/1/2 47/24/2 48/2/2
f 42/1/3 46/24/3 45/2/3
f 43/1/4 47/24/4 46/2/4
f 44/1/5 48/24/5 47/2/5
f 41/1/6 45/24/6 48/2/6
f 52/7/1 51/26/1 50/8/1
f 54/7/2 55/26/2 56/8/2
f 50/7/3 54/26/3 53/8/3
f 51/7/4 55/26/4 54/8/4
f 52/7/5 56/26/5 55/8/5
f 49/7/6 53/26/6 56/8/6
f 60/7/1 59/26/1 58/8/1
f 62/7/2 63/26/2 64/8/2
f 58/7/3 62/26/3 61/8/3
f 59/7/4 63/26/4 62/8/4
f 60/7/5 64/26/5 63/8/5
f 57/7/6 61/26/6 64/8/6
f 68/7/1 67/26/1 66/8/1
f 70/7/2 71/26/2 72/8/2
f 66/7/3 70/26/3 69/8/3
f 67/7/4 71/26/4 70/8/4
f 68/7/5 72/26/5 71/8/5
f 65/7/6 69/26/6 72/8/6
f 76/7/1 75/26/1 74/8/1
f 78/7/2 79/26/2 80/8/2
f 74/7/3 78/26/3 77/8/3
f 75/7/4 79/26/4 78/8/4
f 76/7/5 80/26/5 79/8/5
f 73/7/6 77/26/6 80/8/6
f 84/10/1 83/27/1 82/11/1
f 86/10/2 87/27/2 88/11/2
f 82/10/3 86/27/3 85/11/3
f 83/10/4 87/27/4 86/11/4
f 84/10/5 88/27/5 87/11/5
f 81/10/6 85/27/6 88/11/6
f 92/7/1 91/26/1 90/8/1
f 94/7/2 95/26/2 96/8/2
f 90/7/3 94/26/3 93/8/3
f 91/7/4 95/26/4 94/8/4
f 92/7/5 96/26/5 95/8/5
f 89/7/6 93/26/6 96/8/6
f 100/7/1 99/26/1 98/8/1
f 102/7/2 103/26/2 104/8/2
f 98/7/3 102/26/3 101/8/3
f 99/7/4 103/26/4 102/8/4
f 100/7/5 104/26/5 103/8/5
f 97/7/6 101/26/6 104/8/6
f 108/7/1 107/26/1 106/8/1
f 110/7/2 111/26/2 112/8/2
f 106/7/3 110/26/3 109/8/3
f 107/7/4 111/26/4 110/8/4
f 108/7/5 112/26/5 111/8/5
f 105/7/6 109/26/6 112/8/6
f 116/7/1 115/26/1 114/8/1
f 118/7/2 119/26/2 120/8/2
f 114/7/3 118/26/3 117/8/3
f 115/7/4 119/26/4 118/8/4
f 116/7/5 120/26/5 119/8/5
f 113/7/6 117/26/6 120/8/6
f 124/13/1 123/28/1 122/14/1
f 126/13/2 127/28/2 128/14/2
f 122/13/3 126/28/3 125/14/3
f 123/13/4 127/28/4 126/14/4
f 124/13/5 128/28/5 127/14/5
f 121/13/6 125/28/6 128/14/6
f 132/16/1 131/29/1 130/17/1
f 134/16/2 135/29/2 136/17/2
f 130/16/3 134/29/3 133/17/3
f 131/16/4 135/29/4 134/17/4
f 132/16/5 136/29/5 135/17/5
f 129/16/6 133/29/6 136/17/6
f 140/7/1 139/26/1 138/8/1
f 142/7/2 143/26/2 144/8/2
f 138/7/3 142/26/3 141/8/3
f 139/7/4 143/26/4 142/8/4
f 140/7/5 144/26/5 143/8/5
f 137/7/6 141/26/6 144/8/6
f 148/7/1 147/26/1 146/8/1
f 150/7/2 151/26/2 152/8/2
f 146/7/3 150/26/3 149/8/3
f 147/7/4 151/26/4 150/8/4
f 148/7/5 152/26/5 151/8/5
f 145/7/6 149/26/6 152/8/6
f 156/7/1 155/26/1 154/8/1
f 158/7/2 159/26/2 160/8/2
f 154/7/3 158/26/3 157/8/3
f 155/7/4 159/26/4 158/8/4
f 156/7/5 160/26/5 159/8/5
f 153/7/6 157/26/6 160/8/6
f 164/7/1 163/26/1 162/8/1
f 166/7/2 167/26/2 168/8/2
f 162/7/3 166/26/3 165/8/3
f 163/7/4 167/26/4 166/8/4
f 164/7/5 168/26/5 167/8/5
f 161/7/6 165/26/6 168/8/6
f 172/10/1 171/27/1 170/11/1
f 174/10/2 175/27/2 176/11/2
f 170/10/3 174/27/3 173/11/3
f 171/10/4 175/27/4 174/11/4
f 172/10/5 176/27/5 175/11/5
f 169/10/6 173/27/6 176/11/6
f 180/7/1 179/26/1 178/8/1
f 182/7/2 183/26/2 184/8/2
f 178/7/3 182/26/3 181/8/3
f 179/7/4 183/26/4 182/8/4
f 180/7/5 184/26/5 183/8/5
f 177/7/6 181/26/6 184/8/6
f 188/7/1 187/26/1 186/8/1
f 190/7/2 191/26/2 192/8/2
f 186/7/3 190/26/3 189/8/3
f 187/7/4 191/26/4 190/8/4
f 188/7/5 192/26/5 191/8/5
f 185/7/6 189/26/6 192/8/6
f 196/7/1 195/26/1 194/8/1
f 198/7/2 199/26/2 200/8/2
f 194/7/3 198/26/3 197/8/3
f 195/7/4 199/26/4 198/8/4
f 196/7/5 200/26/5 199/8/5
f 193/7/6 197/26/6 200/8/6
f 204/7/1 203/26/1 202/8/1
f 206/7/2 207/26/2 208/8/2
f 202/7/3 206/26/3 205/8/3
f 203/7/4 207/26/4 206/8/4
f 204/7/5 208/26/5 207/8/5
f 201/7/6 205/26/6 208/8/6
f 212/13/1 211/28/1 210/14/1
f 214/13/2 215/28/2 216/14/2
f 210/13/3 214/28/3 213/14/3
f 211/13/4 215/28/4 214/14/4
f 212/13/5 216/28/5 215/14/5
f 209/13/6 213/28/6 216/14/6
f 220/16/1 219/29/1 218/17/1
f 222/16/2 223/29/2 224/17/2
f 218/16/3 222/29/3 221/17/3
f 219/16/4 223/29/4 222/17/4
f 220/16/5 224/29/5 223/17/5
f 217/16/6 221/29/6 224/17/6
f 228/7/1 227/26/1 226/8/1
f 230/7/2 231/26/2 232/8/2
f 226/7/3 230/26/3 229/8/3
f 227/7/4 231/26/4 230/8/4
f 228/7/5 232/26/5 231/8/5
f 225/7/6 229/26/6 232/8/6
f 236/7/1 235/26/1 234/8/1
f 238/7/2 239/26/2 240/8/2
f 234/7/3 238/26/3 237/8/3
f 235/7/4 239/26/4 238/8/4
f 236/7/5 240/26/5 239/8/5
f 233/7/6 237/26/6 240/8/6
f 244/7/1 243/26/1 242/8/1
f 246/7/2 247/26/2 248/8/2
f 242/7/3 246/26/3 245/8/3
f 243/7/4 247/26/4 246/8/4
f 244/7/5 248/26/5 247/8/5
f 241/7/6 245/26/6 248/8/6
f 252/7/1 251/26/1 250/8/1
f 254/7/2 255/26/2 256/8/2
f 250/7/3 254/26/3 253/8/3
f 251/7/4 255/26/4 254/8/4
f 252/7/5 256/26/5 255/8/5
f 249/7/6 253/26/6 256/8/6
f 260/10/1 259/27/1 258/11/1
f 262/10/2 263/27/2 264/11/2
f 258/10/3 262/27/3 261/11/3
f 259/10/4 263/27/4 262/11/4
f 260/10/5 264/27/5 263/11/5
f 257/10/6 261/27/6 264/11/6
f 268/7/1 267/26/1 266/8/1
f 270/7/2 271/26/2 272/8/2
f 266/7/3 270/26/3 269/8/3
f 267/7/4 271/26/4 270/8/4
f 268/7/5 272/26/5 271/8/5
f 265/7/6 269/26/6 272/8/6
f 276/7/1 275/26/1 274/8/1
f 278/7/2 279/26/2 280/8/2
f 274/7/3 278/26/3 277/8/3
f 275/7/4 279/26/4 278/8/4
f 276/7/5 280/26/5 279/8/5
f 273/7/6 277/26/6 280/8/6
f 284/7/1 283/26/1 282/8/1
f 286/7/2 287/26/2 288/8/2
f 282/7/3 286/26/3 285/8/3
f 283/7/4 287/26/4 286/8/4
f 284/7/5 288/26/5 287/8/5
f 281/7/6 285/26/6 288/8/6
f 292/7/1 291/26/1 290/8/1
f 294/7/2 295/26/2 296/8/2
f 290/7/3 294/26/3 293/8/3
f 291/7/4 295/26/4 294/8/4
f 292/7/5 296/26/5 295/8/5
f 289/7/6 293/26/6 296/8/6
f 300/10/1 299/27/1 298/11/1
f 302/10/2 303/27/2 304/11/2
f 298/10/3 302/27/3 301/11/3
f 299/10/4 303/27/4 302/11/4
f 300/10/5 304/27/5 303/11/5
f 297/10/6 301/27/6 304/11/6
f 308/7/1 307/26/1 306/8/1
f 310/7/2 311/26/2 312/8/2
f 306/7/3 310/26/3 309/8/3
f 307/7/4 311/26/4 310/8/4
f 308/7/5 312/26/5 311/8/5
f 305/7/6 309/26/6 312/8/6
f 316/7/1 315/26/1 314/8/1
f 318/7/2 319/26/2 320/8/2
f 314/7/3 318/26/3 317/8/3
f 315/7/4 319/26/4 318/8/4
f 316/7/5 320/26/5 319/8/5
f 313/7/6 317/26/6 320/8/6
f 324/7/1 323/26/1 322/8/1
f 326/7/2 327/26/2 328/8/2
f 322/7/3 326/26/3 325/8/3
f 323/7/4 327/26/4 326/8/4
f 324/7/5 328/26/5 327/8/5
f 321/7/6 325/26/6 328/8/6
f 332/7/1 331/26/1 330/8/1
f 334/7/2 335/26/2 336/8/2
f 330/7/3 334/26/3 333/8/3
f 331/7/4 335/26/4 334/8/4
f 332/7/5 336/26/5 335/8/5
f 329/7/6 333/26/6 336/8/6
f 340/10/1 339/27/1 338/11/1
f 342/10/2 343/27/2 344/11/2
f 338/10/3 342/27/3 341/11/3
f 339/10/4 343/27/4 342/11/4
f 340/10/5 344/27/5 343/11/5
f 337/10/6 341/27/6 344/11/6
f 348/7/1 347/26/1 346/8/1
f 350/7/2 351/26/2 352/8/2
f 346/7/3 350/26/3 349/8/3
f 347/7/4 351/26/4 350/8/4
f 348/7/5 352/26/5 351/8/5
f 345/7/6 349/26/6 352/8/6
f 356/7/1 355/26/1 354/8/1
f 358/7/2 359/26/2 360/8/2
f 354/7/3 358/26/3 357/8/3
f 355/7/4 359/26/4 358/8/4
f 356/7/5 360/26/5 359/8/5
f 353/7/6 357/26/6 360/8/6
f 364/7/1 363/26/1 362/8/1
f 366/7/2 367/26/2 368/8/2
f 362/7/3 366/26/3 365/8/3
f 363/7/4 367/26/4 366/8/4
f 364/7/5 368/26/5 367/8/5
f 361/7/6 365/26/6 368/8/6
f 372/7/1 371/26/1 370/8/1
f 374/7/2 375/26/2 376/8/2
f 370/7/3 374/26/3 373/8/3
f 371/7/4 375/26/4 374/8/4
f 372/7/5 376/26/5 375/8/5
f 369/7/6 373/26/6 376/8/6
f 380/10/1 379/27/1 378/11/1
f 382/10/2 383/27/2 384/11/2
f 378/10/3 382/27/3 381/11/3
f 379/10/4 383/27/4 382/11/4
f 380/10/5 384/27/5 383/11/5
f 377/10/6 381/27/6 384/11/6
f 386/19/7 387/22/7 388/20/7
f 391/19/8 390/22/8 389/20/8
f 386/19/9 390/22/9 389/20/9
f 387/19/10 391/22/10 390/20/10
f 388/19/11 392/22/11 391/20/11
f 388/21/12 385/19/12 389/22/12
f 394/19/13 395/22/13 396/20/13
f 399/19/14 398/22/14 397/20/14
f 394/19/15 398/22/15 397/20/15
f 395/19/16 399/22/16 398/20/16
f 396/19/17 400/22/17 399/20/17
f 396/21/18 393/19/18 397/22/18
f 402/19/21 405/22/21 404/20/21
f 402/21/22 403/19/22 406/22/22
f 401/19/23 404/22/23 406/20/23
f 407/21/26 408/19/26 411/22/26
f 409/19/27 412/22/27 411/20/27
f 407/19/28 410/22/28 412/20/28
f 416/19/1 415/22/1 414/20/1
f 418/19/2 419/22/2 420/20/2
f 414/19/3 418/22/3 417/20/3
f 415/19/4 419/22/4 418/20/4
f 416/19/5 420/22/5 419/20/5
f 413/19/6 417/22/6 420/20/6
f 424/19/1 423/22/1 422/20/1
f 426/19/2 427/22/2 428/20/2
f 422/19/3 426/22/3 425/20/3
f 423/19/4 427/22/4 426/20/4
f 424/19/5 428/22/5 427/20/5
f 421/19/6 425/22/6 428/20/6
f 432/19/1 431/22/1 430/20/1
f 434/19/2 435/22/2 436/20/2
f 430/19/3 434/22/3 433/20/3
f 431/19/4 435/22/4 434/20/4
f 432/19/5 436/22/5 435/20/5
f 429/19/6 433/22/6 436/20/6
f 440/19/1 439/22/1 438/20/1
f 442/19/2 443/22/2 444/20/2
f 438/19/3 442/22/3 441/20/3
f 439/19/4 443/22/4 442/20/4
f 440/19/5 444/22/5 443/20/5
f 437/19/6 441/22/6 444/20/6
f 448/19/1 447/22/1 446/20/1
f 450/19/2 451/22/2 452/20/2
f 446/19/3 450/22/3 449/20/3
f 447/19/4 451/22/4 450/20/4
f 448/19/5 452/22/5 451/20/5
f 445/19/6 449/22/6 452/20/6
f 456/19/1 455/22/1 454/20/1
f 458/19/2 459/22/2 460/20/2
f 454/19/3 458/22/3 457/20/3
f 455/19/4 459/22/4 458/20/4
f 456/19/5 460/22/5 459/20/5
f 453/19/6 457/22/6 460/20/6
f 464/19/1 463/22/1 462/20/1
f 466/19/2 467/22/2 468/20/2
f 462/19/3 466/22/3 465/20/3
f 463/19/4 467/22/4 466/20/4
f 464/19/5 468/22/5 467/20/5
f 461/19/6 465/22/6 468/20/6
f 472/19/1 471/22/1 470/20/1
f 474/19/2 475/22/2 476/20/2
f 470/19/3 474/22/3 473/20/3
f 471/19/4 475/22/4 474/20/4
f 472/19/5 476/22/5 475/20/5
f 469/19/6 473/22/6 476/20/6
f 480/19/1 479/22/1 478/20/1
f 482/19/2 483/22/2 484/20/2
f 478/19/3 482/22/3 481/20/3
f 479/19/4 483/22/4 482/20/4
f 480/19/5 484/22/5 483/20/5
f 477/19/6 481/22/6 484/20/6
f 488/19/1 487/22/1 486/20/1
f 490/19/2 491/22/2 492/20/2
f 486/19/3 490/22/3 489/20/3
f 487/19/4 491/22/4 490/20/4
f 488/19/5 492/22/5 491/20/5
f 485/19/6 489/22/6 492/20/6
f 496/19/1 495/22/1 494/20/1
f 498/19/2 499/22/2 500/20/2
f 494/19/3 498/22/3 497/20/3
f 495/19/4 499/22/4 498/20/4
f 496/19/5 500/22/5 499/20/5
f 493/19/6 497/22/6 500/20/6
f 504/19/1 503/22/1 502/20/1
f 506/19/2 507/22/2 508/20/2
f 502/19/3 506/22/3 505/20/3
f 503/19/4 507/22/4 506/20/4
f 504/19/5 508/22/5 507/20/5
f 501/19/6 505/22/6 508/20/6
f 512/19/1 511/22/1 510/20/1
f 514/19/2 515/22/2 516/20/2
f 510/19/3 514/22/3 513/20/3
f 511/19/4 515/22/4 514/20/4
f 512/19/5 516/22/5 515/20/5
f 509/19/6 513/22/6 516/20/6
f 520/13/1 519/28/1 518/14/1
f 522/13/2 523/28/2 524/14/2
f 518/13/3 522/28/3 521/14/3
f 519/13/4 523/28/4 522/14/4
f 520/13/5 524/28/5 523/14/5
f 517/13/6 521/28/6 524/14/6
f 528/13/1 527/28/1 526/14/1
f 530/13/2 531/28/2 532/14/2
f 526/13/3 530/28/3 529/14/3
f 527/13/4 531/28/4 530/14/4
f 528/13/5 532/28/5 531/14/5
f 525/13/6 529/28/6 532/14/6
f 536/13/1 535/28/1 534/14/1
f 538/13/2 539/28/2 540/14/2
f 534/13/3 538/28/3 537/14/3
f 535/13/4 539/28/4 538/14/4
f 536/13/5 540/28/5 539/14/5
f 533/13/6 537/28/6 540/14/6
