# Blender 4.4.3
# www.blender.org
o house_small_redtile_foundation
v -4.250000 0.000000 3.500000
v 4.250000 0.000000 3.500000
v 4.250000 0.000000 -3.500000
v -4.250000 0.000000 -3.500000
v -4.250000 0.200000 3.500000
v 4.250000 0.200000 3.500000
v 4.250000 0.200000 -3.500000
v -4.250000 0.200000 -3.500000
v -4.250000 0.100000 3.500000
v -4.070000 0.100000 3.500000
v -4.070000 0.100000 -3.500000
v -4.250000 0.100000 -3.500000
v -4.250000 0.460000 3.500000
v -4.070000 0.460000 3.500000
v -4.070000 0.460000 -3.500000
v -4.250000 0.460000 -3.500000
v 4.070000 0.100000 3.500000
v 4.250000 0.100000 3.500000
v 4.250000 0.100000 -3.500000
v 4.070000 0.100000 -3.500000
v 4.070000 0.460000 3.500000
v 4.250000 0.460000 3.500000
v 4.250000 0.460000 -3.500000
v 4.070000 0.460000 -3.500000
v -4.250000 0.100000 3.500000
v 4.250000 0.100000 3.500000
v 4.250000 0.100000 3.320000
v -4.250000 0.100000 3.320000
v -4.250000 0.460000 3.500000
v 4.250000 0.460000 3.500000
v 4.250000 0.460000 3.320000
v -4.250000 0.460000 3.320000
v -4.250000 0.100000 -3.320000
v 4.250000 0.100000 -3.320000
v 4.250000 0.100000 -3.500000
v -4.250000 0.100000 -3.500000
v -4.250000 0.460000 -3.320000
v 4.250000 0.460000 -3.320000
v 4.250000 0.460000 -3.500000
v -4.250000 0.460000 -3.500000
v -3.005000 0.180000 2.535000
v -1.755000 0.180000 2.535000
v -1.755000 0.180000 1.385000
v -3.005000 0.180000 1.385000
v -3.005000 0.980000 2.535000
v -1.755000 0.980000 2.535000
v -1.755000 0.980000 1.385000
v -3.005000 0.980000 1.385000
v -3.005000 0.180000 -1.385000
v -1.755000 0.180000 -1.385000
v -1.755000 0.180000 -2.535000
v -3.005000 0.180000 -2.535000
v -3.005000 0.980000 -1.385000
v -1.755000 0.980000 -1.385000
v -1.755000 0.980000 -2.535000
v -3.005000 0.980000 -2.535000
v 1.755000 0.180000 2.535000
v 3.005000 0.180000 2.535000
v 3.005000 0.180000 1.385000
v 1.755000 0.180000 1.385000
v 1.755000 0.980000 2.535000
v 3.005000 0.980000 2.535000
v 3.005000 0.980000 1.385000
v 1.755000 0.980000 1.385000
v 1.755000 0.180000 -1.385000
v 3.005000 0.180000 -1.385000
v 3.005000 0.180000 -2.535000
v 1.755000 0.180000 -2.535000
v 1.755000 0.980000 -1.385000
v 3.005000 0.980000 -1.385000
v 3.005000 0.980000 -2.535000
v 1.755000 0.980000 -2.535000
v -2.592500 0.295000 2.130000
v 2.592500 0.295000 2.130000
v 2.592500 0.295000 1.790000
v -2.592500 0.295000 1.790000
v -2.592500 0.945000 2.130000
v 2.592500 0.945000 2.130000
v 2.592500 0.945000 1.790000
v -2.592500 0.945000 1.790000
v -2.592500 0.295000 -1.790000
v 2.592500 0.295000 -1.790000
v 2.592500 0.295000 -2.130000
v -2.592500 0.295000 -2.130000
v -2.592500 0.945000 -1.790000
v 2.592500 0.945000 -1.790000
v 2.592500 0.945000 -2.130000
v -2.592500 0.945000 -2.130000
v -2.550000 0.295000 2.135000
v -2.210000 0.295000 2.135000
v -2.210000 0.295000 -2.135000
v -2.550000 0.295000 -2.135000
v -2.550000 0.945000 2.135000
v -2.210000 0.945000 2.135000
v -2.210000 0.945000 -2.135000
v -2.550000 0.945000 -2.135000
v 2.210000 0.295000 2.135000
v 2.550000 0.295000 2.135000
v 2.550000 0.295000 -2.135000
v 2.210000 0.295000 -2.135000
v 2.210000 0.945000 2.135000
v 2.550000 0.945000 2.135000
v 2.550000 0.945000 -2.135000
v 2.210000 0.945000 -2.135000
v -2.635000 0.280000 2.155000
v 2.635000 0.280000 2.155000
v 2.635000 0.280000 1.905000
v -2.635000 0.280000 1.905000
v -2.635000 0.960000 2.155000
v 2.635000 0.960000 2.155000
v 2.635000 0.960000 1.905000
v -2.635000 0.960000 1.905000
v -2.822500 0.625000 2.362500
v -2.777500 0.625000 2.362500
v -2.777500 0.625000 2.317500
v -2.822500 0.625000 2.317500
v -2.822500 1.875000 2.362500
v -2.777500 1.875000 2.362500
v -2.777500 1.875000 2.317500
v -2.822500 1.875000 2.317500
v -1.982500 0.625000 2.362500
v -1.937500 0.625000 2.362500
v -1.937500 0.625000 2.317500
v -1.982500 0.625000 2.317500
v -1.982500 1.875000 2.362500
v -1.937500 1.875000 2.362500
v -1.937500 1.875000 2.317500
v -1.982500 1.875000 2.317500
v -2.822500 0.625000 1.602500
v -2.777500 0.625000 1.602500
v -2.777500 0.625000 1.557500
v -2.822500 0.625000 1.557500
v -2.822500 1.875000 1.602500
v -2.777500 1.875000 1.602500
v -2.777500 1.875000 1.557500
v -2.822500 1.875000 1.557500
v -1.982500 0.625000 1.602500
v -1.937500 0.625000 1.602500
v -1.937500 0.625000 1.557500
v -1.982500 0.625000 1.557500
v -1.982500 1.875000 1.602500
v -1.937500 1.875000 1.602500
v -1.937500 1.875000 1.557500
v -1.982500 1.875000 1.557500
v -2.822500 0.625000 -1.557500
v -2.777500 0.625000 -1.557500
v -2.777500 0.625000 -1.602500
v -2.822500 0.625000 -1.602500
v -2.822500 1.875000 -1.557500
v -2.777500 1.875000 -1.557500
v -2.777500 1.875000 -1.602500
v -2.822500 1.875000 -1.602500
v -1.982500 0.625000 -1.557500
v -1.937500 0.625000 -1.557500
v -1.937500 0.625000 -1.602500
v -1.982500 0.625000 -1.602500
v -1.982500 1.875000 -1.557500
v -1.937500 1.875000 -1.557500
v -1.937500 1.875000 -1.602500
v -1.982500 1.875000 -1.602500
v -2.822500 0.625000 -2.317500
v -2.777500 0.625000 -2.317500
v -2.777500 0.625000 -2.362500
v -2.822500 0.625000 -2.362500
v -2.822500 1.875000 -2.317500
v -2.777500 1.875000 -2.317500
v -2.777500 1.875000 -2.362500
v -2.822500 1.875000 -2.362500
v -1.982500 0.625000 -2.317500
v -1.937500 0.625000 -2.317500
v -1.937500 0.625000 -2.362500
v -1.982500 0.625000 -2.362500
v -1.982500 1.875000 -2.317500
v -1.937500 1.875000 -2.317500
v -1.937500 1.875000 -2.362500
v -1.982500 1.875000 -2.362500
v 1.937500 0.625000 2.362500
v 1.982500 0.625000 2.362500
v 1.982500 0.625000 2.317500
v 1.937500 0.625000 2.317500
v 1.937500 1.875000 2.362500
v 1.982500 1.875000 2.362500
v 1.982500 1.875000 2.317500
v 1.937500 1.875000 2.317500
v 2.777500 0.625000 2.362500
v 2.822500 0.625000 2.362500
v 2.822500 0.625000 2.317500
v 2.777500 0.625000 2.317500
v 2.777500 1.875000 2.362500
v 2.822500 1.875000 2.362500
v 2.822500 1.875000 2.317500
v 2.777500 1.875000 2.317500
v 1.937500 0.625000 1.602500
v 1.982500 0.625000 1.602500
v 1.982500 0.625000 1.557500
v 1.937500 0.625000 1.557500
v 1.937500 1.875000 1.602500
v 1.982500 1.875000 1.602500
v 1.982500 1.875000 1.557500
v 1.937500 1.875000 1.557500
v 2.777500 0.625000 1.602500
v 2.822500 0.625000 1.602500
v 2.822500 0.625000 1.557500
v 2.777500 0.625000 1.557500
v 2.777500 1.875000 1.602500
v 2.822500 1.875000 1.602500
v 2.822500 1.875000 1.557500
v 2.777500 1.875000 1.557500
v 1.937500 0.625000 -1.557500
v 1.982500 0.625000 -1.557500
v 1.982500 0.625000 -1.602500
v 1.937500 0.625000 -1.602500
v 1.937500 1.875000 -1.557500
v 1.982500 1.875000 -1.557500
v 1.982500 1.875000 -1.602500
v 1.937500 1.875000 -1.602500
v 2.777500 0.625000 -1.557500
v 2.822500 0.625000 -1.557500
v 2.822500 0.625000 -1.602500
v 2.777500 0.625000 -1.602500
v 2.777500 1.875000 -1.557500
v 2.822500 1.875000 -1.557500
v 2.822500 1.875000 -1.602500
v 2.777500 1.875000 -1.602500
v 1.937500 0.625000 -2.317500
v 1.982500 0.625000 -2.317500
v 1.982500 0.625000 -2.362500
v 1.937500 0.625000 -2.362500
v 1.937500 1.875000 -2.317500
v 1.982500 1.875000 -2.317500
v 1.982500 1.875000 -2.362500
v 1.937500 1.875000 -2.362500
v 2.777500 0.625000 -2.317500
v 2.822500 0.625000 -2.317500
v 2.822500 0.625000 -2.362500
v 2.777500 0.625000 -2.362500
v 2.777500 1.875000 -2.317500
v 2.822500 1.875000 -2.317500
v 2.822500 1.875000 -2.362500
v 2.777500 1.875000 -2.362500
vn -0.0000 -1.0000 -0.0000
vn -0.0000 1.0000 -0.0000
vn -0.0000 -0.0000 1.0000
vn 1.0000 -0.0000 -0.0000
vn -0.0000 -0.0000 -1.0000
vn -1.0000 -0.0000 -0.0000
vt 0.219920 0.550080
vt 0.030080 0.949920
vt 0.030080 0.550080
vt 0.469920 0.050080
vt 0.280080 0.449920
vt 0.280080 0.050080
vt 0.469920 0.550080
vt 0.280080 0.949920
vt 0.280080 0.550080
vt 0.719920 0.550080
vt 0.530080 0.949920
vt 0.530080 0.550080
vt 0.219920 0.949920
vt 0.469920 0.449920
vt 0.469920 0.949920
vt 0.719920 0.949920
s 0
f 4/1/1 2/2/1 1/3/1
f 6/1/2 8/2/2 5/3/2
f 2/1/3 5/2/3 1/3/3
f 3/1/4 6/2/4 2/3/4
f 4/1/5 7/2/5 3/3/5
f 1/1/6 8/2/6 4/3/6
f 12/4/1 10/5/1 9/6/1
f 14/4/2 16/5/2 13/6/2
f 10/4/3 13/5/3 9/6/3
f 11/4/4 14/5/4 10/6/4
f 12/4/5 15/5/5 11/6/5
f 9/4/6 16/5/6 12/6/6
f 20/4/1 18/5/1 17/6/1
f 22/4/2 24/5/2 21/6/2
f 18/4/3 21/5/3 17/6/3
f 19/4/4 22/5/4 18/6/4
f 20/4/5 23/5/5 19/6/5
f 17/4/6 24/5/6 20/6/6
f 28/4/1 26/5/1 25/6/1
f 30/4/2 32/5/2 29/6/2
f 26/4/3 29/5/3 25/6/3
f 27/4/4 30/5/4 26/6/4
f 28/4/5 31/5/5 27/6/5
f 25/4/6 32/5/6 28/6/6
f 36/4/1 34/5/1 33/6/1
f 38/4/2 40/5/2 37/6/2
f 34/4/3 37/5/3 33/6/3
f 35/4/4 38/5/4 34/6/4
f 36/4/5 39/5/5 35/6/5
f 33/4/6 40/5/6 36/6/6
f 44/1/1 42/2/1 41/3/1
f 46/1/2 48/2/2 45/3/2
f 42/1/3 45/2/3 41/3/3
f 43/1/4 46/2/4 42/3/4
f 44/1/5 47/2/5 43/3/5
f 41/1/6 48/2/6 44/3/6
f 52/1/1 50/2/1 49/3/1
f 54/1/2 56/2/2 53/3/2
f 50/1/3 53/2/3 49/3/3
f 51/1/4 54/2/4 50/3/4
f 52/1/5 55/2/5 51/3/5
f 49/1/6 56/2/6 52/3/6
f 60/1/1 58/2/1 57/3/1
f 62/1/2 64/2/2 61/3/2
f 58/1/3 61/2/3 57/3/3
f 59/1/4 62/2/4 58/3/4
f 60/1/5 63/2/5 59/3/5
f 57/1/6 64/2/6 60/3/6
f 68/1/1 66/2/1 65/3/1
f 70/1/2 72/2/2 69/3/2
f 66/1/3 69/2/3 65/3/3
f 67/1/4 70/2/4 66/3/4
f 68/1/5 71/2/5 67/3/5
f 65/1/6 72/2/6 68/3/6
f 76/1/1 74/2/1 73/3/1
f 78/1/2 80/2/2 77/3/2
f 74/1/3 77/2/3 73/3/3
f 75/1/4 78/2/4 74/3/4
f 76/1/5 79/2/5 75/3/5
f 73/1/6 80/2/6 76/3/6
f 84/1/1 82/2/1 81/3/1
f 86/1/2 88/2/2 85/3/2
f 82/1/3 85/2/3 81/3/3
f 83/1/4 86/2/4 82/3/4
f 84/1/5 87/2/5 83/3/5
f 81/1/6 88/2/6 84/3/6
f 92/1/1 90/2/1 89/3/1
f 94/1/2 96/2/2 93/3/2
f 90/1/3 93/2/3 89/3/3
f 91/1/4 94/2/4 90/3/4
f 92/1/5 95/2/5 91/3/5
f 89/1/6 96/2/6 92/3/6
f 100/1/1 98/2/1 97/3/1
f 102/1/2 104/2/2 101/3/2
f 98/1/3 101/2/3 97/3/3
f 99/1/4 102/2/4 98/3/4
f 100/1/5 103/2/5 99/3/5
f 97/1/6 104/2/6 100/3/6
f 108/7/1 106/8/1 105/9/1
f 110/7/2 112/8/2 109/9/2
f 106/7/3 109/8/3 105/9/3
f 107/7/4 110/8/4 106/9/4
f 108/7/5 111/8/5 107/9/5
f 105/7/6 112/8/6 108/9/6
f 116/10/1 114/11/1 113/12/1
f 118/10/2 120/11/2 117/12/2
f 114/10/3 117/11/3 113/12/3
f 115/10/4 118/11/4 114/12/4
f 116/10/5 119/11/5 115/12/5
f 113/10/6 120/11/6 116/12/6
f 124/10/1 122/11/1 121/12/1
f 126/10/2 128/11/2 125/12/2
f 122/10/3 125/11/3 121/12/3
f 123/10/4 126/11/4 122/12/4
f 124/10/5 127/11/5 123/12/5
f 121/10/6 128/11/6 124/12/6
f 132/10/1 130/11/1 129/12/1
f 134/10/2 136/11/2 133/12/2
f 130/10/3 133/11/3 129/12/3
f 131/10/4 134/11/4 130/12/4
f 132/10/5 135/11/5 131/12/5
f 129/10/6 136/11/6 132/12/6
f 140/10/1 138/11/1 137/12/1
f 142/10/2 144/11/2 141/12/2
f 138/10/3 141/11/3 137/12/3
f 139/10/4 142/11/4 138/12/4
f 140/10/5 143/11/5 139/12/5
f 137/10/6 144/11/6 140/12/6
f 148/10/1 146/11/1 145/12/1
f 150/10/2 152/11/2 149/12/2
f 146/10/3 149/11/3 145/12/3
f 147/10/4 150/11/4 146/12/4
f 148/10/5 151/11/5 147/12/5
f 145/10/6 152/11/6 148/12/6
f 156/10/1 154/11/1 153/12/1
f 158/10/2 160/11/2 157/12/2
f 154/10/3 157/11/3 153/12/3
f 155/10/4 158/11/4 154/12/4
f 156/10/5 159/11/5 155/12/5
f 153/10/6 160/11/6 156/12/6
f 164/10/1 162/11/1 161/12/1
f 166/10/2 168/11/2 165/12/2
f 162/10/3 165/11/3 161/12/3
f 163/10/4 166/11/4 162/12/4
f 164/10/5 167/11/5 163/12/5
f 161/10/6 168/11/6 164/12/6
f 172/10/1 170/11/1 169/12/1
f 174/10/2 176/11/2 173/12/2
f 170/10/3 173/11/3 169/12/3
f 171/10/4 174/11/4 170/12/4
f 172/10/5 175/11/5 171/12/5
f 169/10/6 176/11/6 172/12/6
f 180/10/1 178/11/1 177/12/1
f 182/10/2 184/11/2 181/12/2
f 178/10/3 181/11/3 177/12/3
f 179/10/4 182/11/4 178/12/4
f 180/10/5 183/11/5 179/12/5
f 177/10/6 184/11/6 180/12/6
f 188/10/1 186/11/1 185/12/1
f 190/10/2 192/11/2 189/12/2
f 186/10/3 189/11/3 185/12/3
f 187/10/4 190/11/4 186/12/4
f 188/10/5 191/11/5 187/12/5
f 185/10/6 192/11/6 188/12/6
f 196/10/1 194/11/1 193/12/1
f 198/10/2 200/11/2 197/12/2
f 194/10/3 197/11/3 193/12/3
f 195/10/4 198/11/4 194/12/4
f 196/10/5 199/11/5 195/12/5
f 193/10/6 200/11/6 196/12/6
f 204/10/1 202/11/1 201/12/1
f 206/10/2 208/11/2 205/12/2
f 202/10/3 205/11/3 201/12/3
f 203/10/4 206/11/4 202/12/4
f 204/10/5 207/11/5 203/12/5
f 201/10/6 208/11/6 204/12/6
f 212/10/1 210/11/1 209/12/1
f 214/10/2 216/11/2 213/12/2
f 210/10/3 213/11/3 209/12/3
f 211/10/4 214/11/4 210/12/4
f 212/10/5 215/11/5 211/12/5
f 209/10/6 216/11/6 212/12/6
f 220/10/1 218/11/1 217/12/1
f 222/10/2 224/11/2 221/12/2
f 218/10/3 221/11/3 217/12/3
f 219/10/4 222/11/4 218/12/4
f 220/10/5 223/11/5 219/12/5
f 217/10/6 224/11/6 220/12/6
f 228/10/1 226/11/1 225/12/1
f 230/10/2 232/11/2 229/12/2
f 226/10/3 229/11/3 225/12/3
f 227/10/4 230/11/4 226/12/4
f 228/10/5 231/11/5 227/12/5
f 225/10/6 232/11/6 228/12/6
f 236/10/1 234/11/1 233/12/1
f 238/10/2 240/11/2 237/12/2
f 234/10/3 237/11/3 233/12/3
f 235/10/4 238/11/4 234/12/4
f 236/10/5 239/11/5 235/12/5
f 233/10/6 240/11/6 236/12/6
f 4/1/1 3/13/1 2/2/1
f 6/1/2 7/13/2 8/2/2
f 2/1/3 6/13/3 5/2/3
f 3/1/4 7/13/4 6/2/4
f 4/1/5 8/13/5 7/2/5
f 1/1/6 5/13/6 8/2/6
f 12/4/1 11/14/1 10/5/1
f 14/4/2 15/14/2 16/5/2
f 10/4/3 14/14/3 13/5/3
f 11/4/4 15/14/4 14/5/4
f 12/4/5 16/14/5 15/5/5
f 9/4/6 13/14/6 16/5/6
f 20/4/1 19/14/1 18/5/1
f 22/4/2 23/14/2 24/5/2
f 18/4/3 22/14/3 21/5/3
f 19/4/4 23/14/4 22/5/4
f 20/4/5 24/14/5 23/5/5
f 17/4/6 21/14/6 24/5/6
f 28/4/1 27/14/1 26/5/1
f 30/4/2 31/14/2 32/5/2
f 26/4/3 30/14/3 29/5/3
f 27/4/4 31/14/4 30/5/4
f 28/4/5 32/14/5 31/5/5
f 25/4/6 29/14/6 32/5/6
f 36/4/1 35/14/1 34/5/1
f 38/4/2 39/14/2 40/5/2
f 34/4/3 38/14/3 37/5/3
f 35/4/4 39/14/4 38/5/4
f 36/4/5 40/14/5 39/5/5
f 33/4/6 37/14/6 40/5/6
f 44/1/1 43/13/1 42/2/1
f 46/1/2 47/13/2 48/2/2
f 42/1/3 46/13/3 45/2/3
f 43/1/4 47/13/4 46/2/4
f 44/1/5 48/13/5 47/2/5
f 41/1/6 45/13/6 48/2/6
f 52/1/1 51/13/1 50/2/1
f 54/1/2 55/13/2 56/2/2
f 50/1/3 54/13/3 53/2/3
f 51/1/4 55/13/4 54/2/4
f 52/1/5 56/13/5 55/2/5
f 49/1/6 53/13/6 56/2/6
f 60/1/1 59/13/1 58/2/1
f 62/1/2 63/13/2 64/2/2
f 58/1/3 62/13/3 61/2/3
f 59/1/4 63/13/4 62/2/4
f 60/1/5 64/13/5 63/2/5
f 57/1/6 61/13/6 64/2/6
f 68/1/1 67/13/1 66/2/1
f 70/1/2 71/13/2 72/2/2
f 66/1/3 70/13/3 69/2/3
f 67/1/4 71/13/4 70/2/4
f 68/1/5 72/13/5 71/2/5
f 65/1/6 69/13/6 72/2/6
f 76/1/1 75/13/1 74/2/1
f 78/1/2 79/13/2 80/2/2
f 74/1/3 78/13/3 77/2/3
f 75/1/4 79/13/4 78/2/4
f 76/1/5 80/13/5 79/2/5
f 73/1/6 77/13/6 80/2/6
f 84/1/1 83/13/1 82/2/1
f 86/1/2 87/13/2 88/2/2
f 82/1/3 86/13/3 85/2/3
f 83/1/4 87/13/4 86/2/4
f 84/1/5 88/13/5 87/2/5
f 81/1/6 85/13/6 88/2/6
f 92/1/1 91/13/1 90/2/1
f 94/1/2 95/13/2 96/2/2
f 90/1/3 94/13/3 93/2/3
f 91/1/4 95/13/4 94/2/4
f 92/1/5 96/13/5 95/2/5
f 89/1/6 93/13/6 96/2/6
f 100/1/1 99/13/1 98/2/1
f 102/1/2 103/13/2 104/2/2
f 98/1/3 102/13/3 101/2/3
f 99/1/4 103/13/4 102/2/4
f 100/1/5 104/13/5 103/2/5
f 97/1/6 101/13/6 104/2/6
f 108/7/1 107/15/1 106/8/1
f 110/7/2 111/15/2 112/8/2
f 106/7/3 110/15/3 109/8/3
f 107/7/4 111/15/4 110/8/4
f 108/7/5 112/15/5 111/8/5
f 105/7/6 109/15/6 112/8/6
f 116/10/1 115/16/1 114/11/1
f 118/10/2 119/16/2 120/11/2
f 114/10/3 118/16/3 117/11/3
f 115/10/4 119/16/4 118/11/4
f 116/10/5 120/16/5 119/11/5
f 113/10/6 117/16/6 120/11/6
f 124/10/1 123/16/1 122/11/1
f 126/10/2 127/16/2 128/11/2
f 122/10/3 126/16/3 125/11/3
f 123/10/4 127/16/4 126/11/4
f 124/10/5 128/16/5 127/11/5
f 121/10/6 125/16/6 128/11/6
f 132/10/1 131/16/1 130/11/1
f 134/10/2 135/16/2 136/11/2
f 130/10/3 134/16/3 133/11/3
f 131/10/4 135/16/4 134/11/4
f 132/10/5 136/16/5 135/11/5
f 129/10/6 133/16/6 136/11/6
f 140/10/1 139/16/1 138/11/1
f 142/10/2 143/16/2 144/11/2
f 138/10/3 142/16/3 141/11/3
f 139/10/4 143/16/4 142/11/4
f 140/10/5 144/16/5 143/11/5
f 137/10/6 141/16/6 144/11/6
f 148/10/1 147/16/1 146/11/1
f 150/10/2 151/16/2 152/11/2
f 146/10/3 150/16/3 149/11/3
f 147/10/4 151/16/4 150/11/4
f 148/10/5 152/16/5 151/11/5
f 145/10/6 149/16/6 152/11/6
f 156/10/1 155/16/1 154/11/1
f 158/10/2 159/16/2 160/11/2
f 154/10/3 158/16/3 157/11/3
f 155/10/4 159/16/4 158/11/4
f 156/10/5 160/16/5 159/11/5
f 153/10/6 157/16/6 160/11/6
f 164/10/1 163/16/1 162/11/1
f 166/10/2 167/16/2 168/11/2
f 162/10/3 166/16/3 165/11/3
f 163/10/4 167/16/4 166/11/4
f 164/10/5 168/16/5 167/11/5
f 161/10/6 165/16/6 168/11/6
f 172/10/1 171/16/1 170/11/1
f 174/10/2 175/16/2 176/11/2
f 170/10/3 174/16/3 173/11/3
f 171/10/4 175/16/4 174/11/4
f 172/10/5 176/16/5 175/11/5
f 169/10/6 173/16/6 176/11/6
f 180/10/1 179/16/1 178/11/1
f 182/10/2 183/16/2 184/11/2
f 178/10/3 182/16/3 181/11/3
f 179/10/4 183/16/4 182/11/4
f 180/10/5 184/16/5 183/11/5
f 177/10/6 181/16/6 184/11/6
f 188/10/1 187/16/1 186/11/1
f 190/10/2 191/16/2 192/11/2
f 186/10/3 190/16/3 189/11/3
f 187/10/4 191/16/4 190/11/4
f 188/10/5 192/16/5 191/11/5
f 185/10/6 189/16/6 192/11/6
f 196/10/1 195/16/1 194/11/1
f 198/10/2 199/16/2 200/11/2
f 194/10/3 198/16/3 197/11/3
f 195/10/4 199/16/4 198/11/4
f 196/10/5 200/16/5 199/11/5
f 193/10/6 197/16/6 200/11/6
f 204/10/1 203/16/1 202/11/1
f 206/10/2 207/16/2 208/11/2
f 202/10/3 206/16/3 205/11/3
f 203/10/4 207/16/4 206/11/4
f 204/10/5 208/16/5 207/11/5
f 201/10/6 205/16/6 208/11/6
f 212/10/1 211/16/1 210/11/1
f 214/10/2 215/16/2 216/11/2
f 210/10/3 214/16/3 213/11/3
f 211/10/4 215/16/4 214/11/4
f 212/10/5 216/16/5 215/11/5
f 209/10/6 213/16/6 216/11/6
f 220/10/1 219/16/1 218/11/1
f 222/10/2 223/16/2 224/11/2
f 218/10/3 222/16/3 221/11/3
f 219/10/4 223/16/4 222/11/4
f 220/10/5 224/16/5 223/11/5
f 217/10/6 221/16/6 224/11/6
f 228/10/1 227/16/1 226/11/1
f 230/10/2 231/16/2 232/11/2
f 226/10/3 230/16/3 229/11/3
f 227/10/4 231/16/4 230/11/4
f 228/10/5 232/16/5 231/11/5
f 225/10/6 229/16/6 232/11/6
f 236/10/1 235/16/1 234/11/1
f 238/10/2 239/16/2 240/11/2
f 234/10/3 238/16/3 237/11/3
f 235/10/4 239/16/4 238/11/4
f 236/10/5 240/16/5 239/11/5
f 233/10/6 237/16/6 240/11/6
