# Blender 4.4.3
# www.blender.org
o ruin_tuffah
v -5.384676 0.443747 4.486290
v -4.994053 0.441163 4.486290
v -4.994105 0.433283 4.095738
v -5.384728 0.435867 4.095738
v -5.365615 3.325024 4.428154
v -4.974992 3.322440 4.428154
v -4.975044 3.314560 4.037602
v -5.365667 3.317144 4.037602
v -5.274963 3.057103 4.291711
v -5.288744 3.057103 4.323884
v -5.256634 3.059278 4.337638
v -5.242853 3.059278 4.305465
v -5.342358 4.234855 4.262843
v -5.356139 4.234855 4.295016
v -5.324028 4.237029 4.308770
v -5.310247 4.237029 4.276597
v -5.071906 3.054829 4.213164
v -5.083543 3.054829 4.180156
v -5.115937 3.061552 4.191577
v -5.104300 3.061552 4.224586
v -4.930558 3.820546 4.163330
v -4.942196 3.820546 4.130322
v -4.974590 3.827269 4.141743
v -4.962952 3.827269 4.174751
v -5.333238 0.435444 -4.042814
v -4.962196 0.444522 -4.042814
v -4.962130 0.441795 -4.413956
v -5.333171 0.432717 -4.413956
v -5.397591 3.065684 -4.062151
v -5.026549 3.074763 -4.062151
v -5.026483 3.072036 -4.433294
v -5.397524 3.062957 -4.433294
v -0.143233 0.444154 4.451095
v 0.214855 0.435615 4.451095
v 0.214795 0.433116 4.092914
v -0.143293 0.441655 4.092914
v -0.074516 3.325824 4.430978
v 0.283572 3.317285 4.430978
v 0.283513 3.314786 4.072797
v -0.074575 3.323325 4.072797
v -0.144594 0.443151 -3.985840
v 0.295738 0.445013 -3.985840
v 0.295784 0.434053 -4.426039
v -0.144548 0.432190 -4.426039
v -0.155504 3.022606 -4.050069
v 0.284828 3.024468 -4.050069
v 0.284874 3.013508 -4.490268
v -0.155458 3.011645 -4.490268
v 5.138365 0.440180 4.463120
v 5.506076 0.440696 4.463120
v 5.506082 0.436406 4.095433
v 5.138371 0.435890 4.095433
v 5.134198 3.410925 4.428459
v 5.501909 3.411441 4.428459
v 5.501915 3.407151 4.060772
v 5.134204 3.406635 4.060772
v 5.154489 0.435517 -4.102220
v 5.481968 0.435085 -4.102220
v 5.481977 0.441404 -4.429639
v 5.154497 0.441837 -4.429639
v 5.158303 3.323926 -4.046469
v 5.485783 3.323493 -4.046469
v 5.485791 3.329813 -4.373888
v 5.158312 3.330246 -4.373888
v -5.356697 3.172414 4.412538
v 0.242898 3.105040 4.412538
v 0.242886 3.103993 4.112540
v -5.356709 3.171368 4.112540
v -5.352728 3.502188 4.411388
v 0.246866 3.434814 4.411388
v 0.246854 3.433768 4.111390
v -5.352741 3.501142 4.111390
v -0.099737 3.069280 4.413546
v 5.498493 3.210057 4.413546
v 5.498564 3.207224 4.113559
v -0.099666 3.066447 4.113559
v -0.108028 3.398961 4.410430
v 5.490202 3.539738 4.410430
v 5.490273 3.536905 4.110443
v -0.107957 3.396127 4.110443
v -5.351328 3.091697 -4.082178
v 0.247710 3.195483 -4.082178
v 0.247905 3.184952 -4.381993
v -5.351133 3.081166 -4.381993
v -5.357437 3.421237 -4.093757
v 0.241602 3.525023 -4.093757
v 0.241797 3.514492 -4.393572
v -5.357241 3.410706 -4.393572
v -0.108103 3.201177 -4.090482
v 5.490386 3.071072 -4.090482
v 5.490484 3.075330 -4.390452
v -0.108004 3.205435 -4.390452
v -0.100442 3.530855 -4.085801
v 5.498047 3.400750 -4.085801
v 5.498146 3.405007 -4.385770
v -0.100343 3.535113 -4.385770
v -4.540287 3.914743 1.536211
v -2.860654 3.836171 2.439096
v 1.891678 3.377273 2.645233
v 3.800063 2.996612 0.778646
v 2.980021 2.712867 -2.859524
v -2.574426 3.214203 -3.448037
v -4.513309 4.182039 1.509284
v -2.833675 4.103467 2.412168
v 1.918657 3.644568 2.618306
v 3.827042 3.263908 0.751718
v 3.007000 2.980162 -2.886452
v -2.547448 3.481499 -3.474965
v -5.079860 0.588190 4.306946
v -3.362860 0.588190 4.306946
v -3.412860 1.572190 4.306946
v -3.272860 2.538190 4.306946
v -3.392860 2.658190 4.306946
v -5.079860 2.801190 4.306946
v -5.119860 2.328591 4.306946
v -5.079860 0.588190 4.056946
v -3.362860 0.588190 4.056946
v -3.412860 1.572190 4.056946
v -3.272860 2.538190 4.056946
v -3.392860 2.658190 4.056946
v -5.079860 2.801190 4.056946
v -5.119860 2.328591 4.056946
v -1.645860 0.588190 4.306946
v -0.029860 0.588190 4.306946
v 0.010140 2.356390 4.306946
v -0.109860 2.773391 4.306946
v -1.615860 2.618191 4.306946
v -1.745860 1.488190 4.306946
v -1.645860 0.588190 4.056946
v -0.029860 0.588190 4.056946
v 0.010140 2.356390 4.056946
v -0.109860 2.773391 4.056946
v -1.615860 2.618191 4.056946
v -1.745860 1.488190 4.056946
v -3.362860 2.538190 4.306946
v -3.242860 2.628191 4.306946
v -1.765860 2.498190 4.306946
v -1.645860 2.538190 4.306946
v -0.027860 3.218190 4.306946
v -4.976860 2.967990 4.306946
v -3.362860 2.538190 4.056946
v -3.242860 2.628191 4.056946
v -1.765860 2.498190 4.056946
v -1.645860 2.538190 4.056946
v -0.027860 3.218190 4.056946
v -4.976860 2.967990 4.056946
v -3.362860 0.588190 4.306946
v -1.645860 0.588190 4.306946
v -1.725860 1.288190 4.306946
v -3.262860 1.168190 4.306946
v -3.362860 0.588190 4.056946
v -1.645860 0.588190 4.056946
v -1.725860 1.288190 4.056946
v -3.262860 1.168190 4.056946
v 0.170140 0.588190 4.291946
v 2.493140 0.588190 4.291946
v 2.392140 2.745590 4.291946
v 1.887140 3.023591 4.291946
v 1.281140 2.523190 4.291946
v 0.776140 2.884590 4.291946
v 0.170140 2.328591 4.291946
v 0.170140 0.588190 4.071946
v 2.493140 0.588190 4.071946
v 2.392140 2.745590 4.071946
v 1.887140 3.023591 4.071946
v 1.281140 2.523190 4.071946
v 0.776140 2.884590 4.071946
v 0.170140 2.328591 4.071946
v 3.957640 0.588190 4.291946
v 5.220140 0.588190 4.291946
v 5.220140 2.384191 4.291946
v 4.614140 2.717790 4.291946
v 4.210140 1.994990 4.291946
v 3.957640 0.588190 4.071946
v 5.220140 0.588190 4.071946
v 5.220140 2.384191 4.071946
v 4.614140 2.717790 4.071946
v 4.210140 1.994990 4.071946
v -5.131202 0.433495 -0.141254
v -4.911445 0.433495 -0.151594
v -5.073695 0.595469 -3.599874
v -5.293452 0.595469 -3.589534
v -5.126181 2.710490 -0.034534
v -4.906424 2.710490 -0.044874
v -5.068673 2.872464 -3.493154
v -5.288430 2.872464 -3.482814
v 5.039629 0.436412 0.070804
v 5.259376 0.436412 0.081333
v 5.445152 0.591851 -3.795834
v 5.225404 0.591851 -3.806363
v 5.035263 2.714087 0.161908
v 5.255011 2.714087 0.172438
v 5.440786 2.869525 -3.704729
v 5.221039 2.869525 -3.715258
v -0.150697 3.437557 4.463892
v 0.276713 3.435403 4.463892
v 0.276731 3.438957 4.036492
v -0.150679 3.441112 4.036492
v -0.136451 6.263967 4.487400
v 0.290959 6.261813 4.487400
v 0.290977 6.265368 4.060000
v -0.136433 6.267522 4.060000
v -0.107782 6.205056 4.418131
v 5.490882 6.082732 4.418131
v 5.490640 6.071639 4.118336
v -0.108024 6.193963 4.118336
v -0.100583 6.534551 4.405933
v 5.498081 6.412228 4.405933
v 5.497839 6.401135 4.106139
v -0.100825 6.523458 4.106139
v -5.358183 6.210641 -4.085519
v 0.240061 6.070386 -4.085519
v 0.239948 6.065885 -4.385486
v -5.358295 6.206140 -4.385486
v -5.349924 6.540300 -4.090469
v 0.248320 6.400045 -4.090469
v 0.248207 6.395545 -4.390435
v -5.350036 6.535800 -4.390435
v -0.101807 6.095904 -4.085006
v 5.497468 6.185997 -4.085006
v 5.497556 6.180576 -4.384957
v -0.101720 6.090483 -4.384957
v -0.107112 6.425607 -4.090966
v 5.492164 6.515701 -4.090966
v 5.492250 6.510280 -4.390917
v -0.107025 6.420187 -4.390917
v -2.163064 6.387524 2.112892
v -0.897875 6.075387 2.954964
v 3.200352 5.617007 2.453851
v 4.358334 5.758892 0.726768
v 3.020187 6.426036 -2.132596
v -1.048532 6.928019 -1.909088
v -2.128027 6.651402 2.158063
v -0.862837 6.339266 3.000134
v 3.235389 5.880886 2.499021
v 4.393371 6.022771 0.771939
v 3.055225 6.689915 -2.087426
v -1.013494 7.191897 -1.863917
v -0.311890 6.051686 1.955664
v 1.481477 5.872506 1.959154
v 1.234853 6.091262 1.981257
v 0.084066 6.335483 1.994054
v -0.285176 6.280718 -0.012949
v 1.508192 6.101538 -0.009459
v 1.261567 6.320294 0.012645
v 0.110780 6.564515 0.025442
v 0.170140 3.588191 4.306946
v 1.887140 3.588191 4.306946
v 1.837140 3.192190 4.306946
v 1.977140 5.538190 4.306946
v 1.857140 5.658190 4.306946
v 0.170140 5.351191 4.306946
v 0.130140 4.368590 4.306946
v 0.170140 3.588191 4.056946
v 1.887140 3.588191 4.056946
v 1.837140 3.192190 4.056946
v 1.977140 5.538190 4.056946
v 1.857140 5.658190 4.056946
v 0.170140 5.351191 4.056946
v 0.130140 4.368590 4.056946
v 3.604140 3.588191 4.306946
v 5.220140 3.588191 4.306946
v 5.260140 4.426391 4.306946
v 5.140140 5.293390 4.306946
v 3.634140 5.618190 4.306946
v 3.504140 2.988190 4.306946
v 3.604140 3.588191 4.056946
v 5.220140 3.588191 4.056946
v 5.260140 4.426391 4.056946
v 5.140140 5.293390 4.056946
v 3.634140 5.618190 4.056946
v 3.504140 2.988190 4.056946
v 1.887140 5.538190 4.306946
v 2.007140 5.628191 4.306946
v 3.484140 5.498190 4.306946
v 3.604140 5.538190 4.306946
v 5.117140 6.218191 4.306946
v 0.168140 5.697990 4.306946
v 1.887140 5.538190 4.056946
v 2.007140 5.628191 4.056946
v 3.484140 5.498190 4.056946
v 3.604140 5.538190 4.056946
v 5.117140 6.218191 4.056946
v 0.168140 5.697990 4.056946
v 1.887140 3.588191 4.306946
v 3.604140 3.588191 4.306946
v 3.524140 4.288190 4.306946
v 1.987140 4.168190 4.306946
v 1.887140 3.588191 4.056946
v 3.604140 3.588191 4.056946
v 3.524140 4.288190 4.056946
v 1.987140 4.168190 4.056946
v -1.487938 4.475028 4.035946
v -0.191808 4.475028 4.035946
v -0.191808 4.475028 4.007946
v -1.487938 4.475028 4.007946
v -1.487938 5.701353 4.035946
v -0.191808 5.701353 4.035946
v -0.191808 5.701353 4.007946
v -1.487938 5.701353 4.007946
v -5.329082 6.436745 -4.044655
v -4.975701 6.446744 -4.044655
v -4.975531 6.440701 -4.398125
v -5.328911 6.430701 -4.398125
v -5.384190 8.384265 -4.077982
v -5.030809 8.394264 -4.077982
v -5.030639 8.388220 -4.431452
v -5.384019 8.378221 -4.431452
v -5.280341 9.056272 -4.254681
v -5.267156 9.056272 -4.222260
v -5.234930 9.060109 -4.235365
v -5.248115 9.060109 -4.267787
v -5.372840 9.961411 -4.217062
v -5.359655 9.961411 -4.184641
v -5.327429 9.965249 -4.197747
v -5.340614 9.965249 -4.230168
v -5.089674 9.053445 -4.194598
v -5.081695 9.053445 -4.228676
v -5.114497 9.062936 -4.236356
v -5.122475 9.062936 -4.202277
v -4.876967 9.828794 -4.144798
v -4.868989 9.828794 -4.178877
v -4.901790 9.838284 -4.186556
v -4.909769 9.838284 -4.152478
v -0.163406 6.435659 -4.030555
v 0.293833 6.434018 -4.030555
v 0.293858 6.441064 -4.487743
v -0.163381 6.442706 -4.487743
v -0.153579 9.173078 -3.988365
v 0.303661 9.171436 -3.988365
v 0.303686 9.178482 -4.445552
v -0.153553 9.180124 -4.445552
v -0.054025 9.056573 -4.242777
v -0.022986 9.056573 -4.226603
v -0.006882 9.059808 -4.257509
v -0.037921 9.059808 -4.273683
v -0.093877 9.985936 -4.166296
v -0.062839 9.985936 -4.150122
v -0.046734 9.989171 -4.181028
v -0.077773 9.989171 -4.197202
v 0.155058 9.054550 -4.301741
v 0.152282 9.054550 -4.266851
v 0.186409 9.061831 -4.264136
v 0.189184 9.061831 -4.299026
v -0.054862 10.044823 -4.318441
v -0.057638 10.044823 -4.283552
v -0.023511 10.052103 -4.280837
v -0.020735 10.052103 -4.315726
v 5.116007 6.435806 4.490268
v 5.559663 6.443886 4.490268
v 5.559717 6.440940 4.046548
v 5.116061 6.432860 4.046548
v 5.080563 8.381953 4.477345
v 5.524219 8.390033 4.477345
v 5.524273 8.387088 4.033624
v 5.080616 8.379007 4.033624
v 5.245478 9.054592 4.225491
v 5.230533 9.054592 4.193842
v 5.199560 9.061789 4.208469
v 5.214506 9.061789 4.240118
v 5.391874 9.825233 4.156357
v 5.376929 9.825233 4.124709
v 5.345956 9.832430 4.139335
v 5.360902 9.832430 4.170984
v 5.429131 9.057456 4.246004
v 5.439720 9.057456 4.212645
v 5.406390 9.058925 4.202065
v 5.395801 9.058925 4.235425
v 5.467386 10.013476 4.258147
v 5.477974 10.013476 4.224787
v 5.444644 10.014945 4.214208
v 5.434055 10.014945 4.247567
v 5.138135 6.442496 -4.070294
v 5.459912 6.436329 -4.070294
v 5.459874 6.434332 -4.392125
v 5.138096 6.440500 -4.392125
v 5.180406 8.647865 -4.083982
v 5.502183 8.641697 -4.083982
v 5.502145 8.639701 -4.405813
v 5.180367 8.645868 -4.405813
v 5.246360 9.056190 -4.266042
v 5.224868 9.056190 -4.238418
v 5.252312 9.060190 -4.217067
v 5.273803 9.060190 -4.244691
v 5.142100 10.204382 -4.347155
v 5.120609 10.204382 -4.319530
v 5.148052 10.208383 -4.298179
v 5.169544 10.208383 -4.325804
v 5.400097 9.053508 -4.158863
v 5.413101 9.053508 -4.191357
v 5.381792 9.062872 -4.203887
v 5.368787 9.062872 -4.171393
v 5.585932 9.774359 -4.084491
v 5.598937 9.774359 -4.116985
v 5.567627 9.783723 -4.129516
v 5.554623 9.783723 -4.097022
v -5.357755 9.202199 4.416687
v 0.240973 9.082865 4.416687
v 0.240793 9.074394 4.116807
v -5.357936 9.193729 4.116807
v -5.350730 9.531793 4.407374
v 0.247998 9.412458 4.407374
v 0.247818 9.403988 4.107493
v -5.350911 9.523323 4.107493
v -0.107386 9.187222 4.412333
v 5.491768 9.089893 4.412333
v 5.491756 9.089211 4.112334
v -0.107398 9.186540 4.112334
v -0.101654 9.516972 4.411582
v 5.497500 9.419643 4.411582
v 5.497488 9.418960 4.111583
v -0.101666 9.516289 4.111583
v -5.356639 9.168471 -4.090033
v 0.242995 9.104481 -4.090033
v 0.243034 9.107955 -4.390013
v -5.356600 9.171946 -4.390013
v -5.352871 9.498227 -4.086213
v 0.246763 9.434237 -4.086213
v 0.246803 9.437712 -4.386193
v -5.352831 9.501702 -4.386193
v -4.222019 9.379842 1.986620
v -2.479470 9.173797 3.330831
v 1.944004 8.915128 3.328191
v 3.812228 8.977868 1.105536
v 2.721879 9.347910 -2.850017
v -2.501024 9.691341 -3.337921
v -4.206292 9.648580 2.007425
v -2.463742 9.442534 3.351636
v 1.959731 9.183866 3.348996
v 3.827956 9.246606 1.126341
v 2.737606 9.616648 -2.829212
v -2.485297 9.960078 -3.317116
v 0.453559 9.238389 0.430023
v 2.307963 9.116272 0.427112
v 2.045625 9.327524 0.408677
v 0.850796 9.535358 0.398005
v 0.434621 9.007463 -1.946754
v 2.289025 8.885345 -1.949665
v 2.026687 9.096598 -1.968100
v 0.831859 9.304432 -1.978773
v -5.118960 6.590332 0.451210
v -4.899137 6.590332 0.442386
v -5.077521 6.437437 -4.001645
v -5.297345 6.437437 -3.992821
v -5.122102 8.868485 0.372957
v -4.902278 8.868485 0.364134
v -5.080663 8.715590 -4.079897
v -5.300486 8.715590 -4.071074
v 5.122584 6.393589 0.202668
v 5.342583 6.393589 0.203492
v 5.358207 6.636771 -3.970457
v 5.138209 6.636771 -3.971281
v 5.122088 8.669230 0.335249
v 5.342086 8.669230 0.336073
v 5.357711 8.912412 -3.837876
v 5.137712 8.912412 -3.838700
v -2.411952 7.494678 4.035946
v -0.520926 7.494678 4.035946
v -0.520926 7.494678 4.007946
v -2.411952 7.494678 4.007946
v -2.411952 8.681703 4.035946
v -0.520926 8.681703 4.035946
v -0.520926 8.681703 4.007946
v -2.411952 8.681703 4.007946
v -2.669790 9.134100 -0.010103
v -2.685829 9.134100 0.018938
v -2.658565 9.145527 0.033996
v -2.642526 9.145527 0.004955
v -3.031166 10.259319 -0.209691
v -3.047205 10.259319 -0.180650
v -3.019941 10.270746 -0.165592
v -3.003902 10.270746 -0.194633
v 0.916184 9.075149 -3.699044
v 0.937940 9.075149 -3.736559
v 0.902581 9.089643 -3.757064
v 0.880826 9.089643 -3.719548
v 1.279388 10.259187 -3.488421
v 1.301143 10.259187 -3.525937
v 1.265785 10.273681 -3.546441
v 1.244029 10.273681 -3.508925
v -2.184807 8.970639 0.031476
v -2.152307 8.970639 0.024122
v -2.159481 8.977965 -0.007584
v -2.191982 8.977965 -0.000229
v -2.147767 9.715215 0.195157
v -2.115266 9.715215 0.187802
v -2.122441 9.722541 0.156097
v -2.154942 9.722541 0.163452
v 3.213927 8.995182 -3.750032
v 3.185779 8.995182 -3.733045
v 3.202055 9.004594 -3.706075
v 3.230204 9.004594 -3.723063
v 3.069772 9.929004 -3.988896
v 3.041624 9.929004 -3.971909
v 3.057901 9.938416 -3.944939
v 3.086049 9.938416 -3.961926
v -1.284129 9.083614 0.038866
v -1.272075 9.083614 -0.003862
v -1.311464 9.100821 -0.014974
v -1.323518 9.100821 0.027754
v -0.964602 9.873329 0.129011
v -0.952548 9.873329 0.086283
v -0.991937 9.890535 0.075170
v -1.003991 9.890535 0.117899
v -2.290195 8.986700 -0.002843
v -2.280977 8.986700 0.034514
v -2.249452 9.007345 0.026736
v -2.258669 9.007345 -0.010622
v -2.721662 9.685686 0.103616
v -2.712444 9.685686 0.140973
v -2.680919 9.706331 0.133195
v -2.690136 9.706331 0.095837
v -5.507086 2.601141 1.843969
v -4.390530 2.606948 2.294090
v 0.237949 3.575075 2.708096
v 1.327091 4.328259 1.997536
v 0.124464 5.045526 0.399998
v -4.365424 4.202686 -0.149712
v -5.598937 2.944728 2.067378
v -4.482380 2.950534 2.517499
v 0.146098 3.918662 2.931505
v 1.235240 4.671846 2.220946
v 0.032613 5.389112 0.623407
v -4.457275 4.546272 0.073697
v 0.768850 7.991241 -0.145190
v 1.710835 7.581614 0.471560
v 4.238268 5.930791 0.543262
v 4.947659 5.189749 -0.233371
v 4.416548 5.030632 -1.700302
v 1.283021 6.969964 -2.097263
v 0.959893 8.279369 -0.245612
v 1.901879 7.869742 0.371138
v 4.429311 6.218919 0.442841
v 5.138703 5.477877 -0.333793
v 4.607592 5.318761 -1.800724
v 1.474064 7.258092 -2.197685
v 0.595743 5.285314 0.670573
v 0.614533 5.285314 0.641045
v 0.594537 5.311067 0.628320
v 0.575746 5.311067 0.657848
v 1.145743 5.885314 1.020573
v 1.164533 5.885314 0.991045
v 1.144537 5.911067 0.978320
v 1.125746 5.911067 1.007848
v 0.835743 5.285314 0.670573
v 0.854533 5.285314 0.641045
v 0.834537 5.311067 0.628320
v 0.815746 5.311067 0.657848
v 1.385743 5.885314 1.020573
v 1.404534 5.885314 0.991045
v 1.384537 5.911067 0.978320
v 1.365746 5.911067 1.007848
v 1.075743 5.285314 0.670573
v 1.094533 5.285314 0.641045
v 1.074537 5.311067 0.628320
v 1.055746 5.311067 0.657848
v 1.625743 5.885314 1.020573
v 1.644533 5.885314 0.991045
v 1.624537 5.911067 0.978320
v 1.605746 5.911067 1.007848
v 1.315743 5.285314 0.670573
v 1.334533 5.285314 0.641045
v 1.314537 5.311067 0.628320
v 1.295746 5.311067 0.657848
v 1.865743 5.885314 1.020573
v 1.884533 5.885314 0.991045
v 1.864537 5.911067 0.978320
v 1.845746 5.911067 1.007848
v -2.984424 0.333763 1.024921
v -3.927361 0.169640 1.220965
v -3.833107 0.255044 2.002283
v -2.922079 0.320985 2.310494
v -2.140553 0.275560 1.917521
v -2.131504 0.162860 1.220207
v -2.324025 1.398078 1.110102
v -3.170400 1.195208 1.068843
v -3.797276 1.188114 1.451048
v -3.663290 1.315789 2.146114
v -2.651917 1.202305 2.355300
v -1.868808 1.307552 1.791377
v -2.866504 0.273731 1.832745
v -3.878130 0.305594 1.685630
v -4.731867 0.112753 2.313425
v -3.661732 0.278946 2.780958
v -2.764621 0.254122 2.470936
v -4.479334 1.367481 1.809516
v -4.140470 1.232835 2.557909
v -3.166424 1.274195 2.744739
v -2.601184 1.330966 2.176064
v -3.206478 1.323106 1.490067
v -4.411395 0.309291 -0.303772
v -3.268521 0.186114 0.181607
v -2.391713 0.319577 -0.503954
v -2.988200 0.357379 -1.210516
v -4.406704 0.282400 -1.235754
v -3.358594 1.624213 -1.575017
v -4.522815 1.632971 -0.893510
v -4.362315 1.540831 0.085812
v -2.927366 1.491948 -0.066656
v -2.226929 1.471980 -0.817282
v 1.268610 0.379831 -3.718359
v 0.814044 0.377853 -3.357552
v 1.174771 0.422897 -3.013706
v 1.791655 0.465886 -3.010171
v 1.781464 0.380236 -3.457298
v 0.970893 1.002046 -3.466055
v 1.086979 0.988038 -3.117655
v 1.570393 0.948837 -2.982043
v 1.900559 0.914750 -3.341723
v 1.453934 1.004354 -3.582720
v 0.432858 0.428830 2.364329
v 0.104495 0.410164 2.208006
v -0.119004 0.426636 2.451427
v -0.071835 0.429450 2.692472
v 0.177605 0.362453 2.882568
v 0.554017 0.403582 2.806130
v 0.615023 0.389274 2.541929
v 0.591509 0.825264 2.451260
v 0.336152 0.795874 2.322712
v 0.021305 0.845712 2.332186
v -0.230549 0.832529 2.544866
v 0.033325 0.863314 2.740799
v 0.335670 0.789868 2.909988
v 0.674157 0.836858 2.727095
v 2.605493 0.376543 3.144676
v 2.290458 0.351587 3.384065
v 2.634716 0.304926 3.622339
v 3.176802 0.378550 3.753208
v 3.512840 0.311248 3.471627
v 3.537195 0.385441 3.148697
v 3.037115 0.401503 2.975211
v 2.853546 0.968609 2.962022
v 2.448058 1.061789 3.180644
v 2.395109 1.052730 3.470752
v 2.721744 0.961147 3.755855
v 3.219862 1.032640 3.583607
v 3.682216 1.067730 3.386172
v 3.374510 1.075836 3.092569
v 0.177135 0.164368 -1.155588
v -1.155629 0.073391 -1.188789
v -1.859009 0.047651 -0.705153
v -1.919859 0.061588 0.078547
v -0.502719 0.323053 0.004649
v 0.224794 0.235615 -0.435488
v 0.369155 1.542692 -0.489134
v 0.130607 1.776522 -1.263572
v -1.333984 1.626854 -1.244823
v -2.216391 1.670698 -0.666111
v -1.683435 1.776648 0.063098
v -0.349409 1.717276 0.040410
v -1.356485 0.351281 1.190670
v -1.570855 0.370156 1.640213
v -0.979670 0.402973 1.794015
v -0.493968 0.462344 1.623256
v -0.594447 0.459896 1.200076
v -1.458532 0.958590 1.713324
v -0.848861 0.954179 1.834284
v -0.428201 1.027301 1.544788
v -0.761802 1.002987 1.185939
v -1.336586 0.971528 1.336227
v -4.555839 0.280188 2.807116
v -3.208401 0.312138 3.084753
v -1.965448 0.109716 2.923945
v -1.733204 0.245218 2.342025
v -2.828907 0.223052 2.073302
v -3.874197 0.217273 2.243661
v -3.611456 1.653762 2.034698
v -4.543388 1.738238 2.516097
v -3.790679 1.723077 3.075125
v -2.412963 1.587516 3.063409
v -1.486242 1.672474 2.587951
v -2.080068 1.674740 1.931319
v 1.048335 0.314952 0.793782
v 0.752273 0.283108 1.073735
v 0.974445 0.407573 1.433473
v 1.584784 0.351117 1.247291
v 1.694022 0.334637 0.891203
v 0.713075 0.967384 0.850452
v 0.804681 1.020076 1.217412
v 1.344306 1.004262 1.413420
v 1.887887 0.953632 1.109518
v 1.410092 0.956897 0.792010
v -3.804093 0.406387 -3.221870
v -4.297456 0.412468 -3.195559
v -4.269041 0.406102 -2.923558
v -3.920427 0.421895 -2.848933
v -3.629993 0.386208 -2.989883
v -3.602683 0.835866 -3.112989
v -4.004072 0.816540 -3.181588
v -4.278838 0.835509 -3.053666
v -4.168150 0.809331 -2.819393
v -3.749593 0.834419 -2.872806
v -2.850886 0.248517 -0.208984
v -3.469357 0.301570 -0.469506
v -4.236599 0.304563 -0.441168
v -4.366421 0.342746 -0.070179
v -3.565770 0.260660 0.003863
v -4.171497 1.004383 -0.429583
v -4.474782 1.043345 -0.057668
v -3.571195 1.167232 0.037325
v -2.863139 1.013136 -0.197081
v -3.442123 1.156639 -0.474191
v 0.817291 0.405936 -1.396525
v 1.416962 0.374925 -1.425906
v 1.730240 0.408459 -1.837802
v 1.308761 0.423600 -2.172557
v 0.766326 0.349634 -2.237033
v 0.271920 0.311666 -2.013896
v 0.408462 0.378719 -1.623787
v 0.452348 1.072688 -2.282888
v 0.116551 1.072502 -1.847605
v 0.522420 1.103804 -1.499518
v 1.025752 1.062397 -1.427546
v 1.429147 1.093047 -1.624972
v 1.640918 1.151671 -2.019794
v 1.178372 1.062041 -2.411964
v 1.116795 0.271349 -2.401412
v 2.148976 0.306087 -3.172770
v 1.230460 0.104923 -4.140101
v -0.274859 0.291782 -3.706766
v -0.455776 0.067353 -2.594212
v 0.010628 1.451763 -2.628088
v 1.383052 1.450540 -2.425760
v 2.186695 1.621772 -3.379345
v 0.896503 1.623095 -3.997648
v -0.648358 1.554490 -3.622596
v 0.383853 0.378954 -1.223767
v 0.079926 0.444584 -1.147231
v -0.115279 0.378905 -0.980145
v 0.146039 0.404301 -0.854544
v 0.497038 0.441543 -0.810350
v 0.599157 0.440448 -1.042796
v 0.390269 0.758871 -0.807408
v 0.563702 0.783007 -0.990076
v 0.422172 0.746205 -1.161852
v 0.122456 0.785923 -1.190895
v -0.153123 0.801481 -1.039655
v 0.051792 0.772332 -0.844136
v -2.672578 0.451528 2.298281
v -2.696932 0.504554 2.435431
v -2.454219 0.451586 2.523677
v -2.245715 0.506810 2.424145
v -2.160755 0.457480 2.271386
v -2.459411 0.484008 2.185899
v -2.236350 0.806234 2.341305
v -2.357597 0.784519 2.218710
v -2.655856 0.805803 2.239324
v -2.743001 0.753532 2.388734
v -2.573621 0.770911 2.530890
v -2.251881 0.771712 2.488036
v -0.946200 0.448735 -0.408547
v -0.265774 0.330857 -0.625817
v -0.085089 0.321380 -1.104298
v -0.664939 0.427459 -1.335046
v -1.259060 0.371406 -1.240995
v -1.470200 0.325320 -0.790432
v -0.449946 1.147285 -0.454185
v -0.180621 1.113039 -0.910317
v -0.337440 1.037500 -1.387441
v -1.010615 1.058876 -1.282378
v -1.351848 1.061499 -0.979993
v -1.140863 1.018771 -0.591714
v -0.846322 0.413934 -1.030226
v -0.035173 0.317124 -1.260755
v -0.263016 0.369696 -1.812501
v -1.368082 0.391023 -1.918902
v -1.822243 0.292434 -1.275755
v -0.132181 1.322235 -1.515173
v -0.720866 1.283643 -1.953804
v -1.497093 1.343308 -1.599328
v -1.286138 1.190361 -1.123172
v -0.362761 1.355387 -0.999773
v -1.958892 0.465379 -1.234722
v -2.089894 0.453239 -1.034105
v -1.956837 0.457694 -0.849588
v -1.658679 0.501474 -0.803777
v -1.392435 0.464817 -0.909511
v -1.400380 0.435891 -1.110693
v -1.634842 0.492727 -1.220997
v -1.984997 0.838397 -1.113304
v -2.001533 0.816586 -0.944555
v -1.825705 0.806333 -0.771416
v -1.546130 0.847570 -0.871245
v -1.350429 0.814386 -1.013994
v -1.470303 0.790954 -1.209298
v -1.792829 0.810837 -1.271219
v -0.844678 0.375155 0.965704
v -1.530434 0.175712 1.749850
v -0.166407 0.173769 2.220445
v 1.243654 0.207183 1.791287
v 0.579498 0.260722 1.030148
v -0.947395 1.603091 0.927400
v -1.042767 1.569080 1.689845
v -0.124464 1.457934 2.270132
v 0.970403 1.457950 1.717494
v 0.638571 1.636961 0.951175
v 2.586977 0.313536 2.200764
v 2.674941 0.383638 2.642456
v 3.348202 0.315653 2.853348
v 4.181523 0.258421 2.816840
v 4.353058 0.371156 2.382487
v 4.025537 0.295769 2.015479
v 3.272846 0.334856 1.979817
v 2.975120 1.365386 2.059314
v 2.775824 1.242470 2.406137
v 3.009141 1.303072 2.732289
v 3.727748 1.271942 2.932409
v 4.433217 1.374115 2.642160
v 4.317370 1.291268 2.193558
v 3.710070 1.349266 1.903212
v 2.494705 0.211828 2.968139
v 2.869397 0.338243 2.675092
v 2.529652 0.265555 2.335715
v 1.826180 0.239210 2.513127
v 1.563025 0.230160 2.923378
v 3.103330 1.069126 2.783036
v 2.617656 1.110274 2.447338
v 1.897286 1.090586 2.435719
v 1.568409 1.038516 2.799578
v 2.319625 1.054490 3.002121
v -3.935789 0.371271 -2.350784
v -3.621614 0.433175 -2.481872
v -3.772789 0.404368 -2.654575
v -4.078406 0.372664 -2.686326
v -4.202483 0.403169 -2.502000
v -4.073896 0.697744 -2.396394
v -3.694357 0.766176 -2.398134
v -3.665539 0.732105 -2.611202
v -3.953891 0.720565 -2.752891
v -4.156749 0.743670 -2.577827
v -0.269518 0.289873 1.351052
v -1.580607 0.082758 1.076509
v -2.690682 0.125080 1.481316
v -2.560692 0.153055 2.134727
v -1.301299 0.199621 2.443293
v -0.154913 0.282738 2.031773
v -1.246720 1.415070 1.221582
v -2.285907 1.470150 1.413867
v -2.385627 1.361418 1.916347
v -1.686362 1.560458 2.413193
v -0.642532 1.372116 2.073244
v -0.201819 1.396686 1.536409
v -5.191346 0.246739 -2.938781
v -5.400442 0.152682 -2.089654
v -4.198595 0.124788 -1.791233
v -3.206924 0.225727 -1.951403
v -2.726522 0.334311 -2.534482
v -2.861776 0.257572 -3.387135
v -4.179427 0.118287 -3.278597
v -4.717667 1.811514 -3.044425
v -5.559825 1.574450 -2.415268
v -4.656909 1.667564 -1.780816
v -3.477944 1.799198 -1.729703
v -2.373745 1.755502 -2.195770
v -2.921489 1.565256 -2.950616
v -3.777301 1.879670 -3.428499
v -1.642676 0.421616 -0.048285
v -1.492357 0.443010 -0.201163
v -1.625882 0.425355 -0.362383
v -1.965044 0.467501 -0.403529
v -2.121668 0.429858 -0.264159
v -2.136047 0.422904 -0.141523
v -1.955345 0.397767 -0.040604
v -2.136940 0.772985 -0.203098
v -2.094444 0.811897 -0.065399
v -1.816005 0.807734 -0.060871
v -1.565549 0.776667 -0.125815
v -1.626534 0.817094 -0.265316
v -1.814912 0.795096 -0.347622
v -2.075596 0.819100 -0.328745
v -4.541105 0.396344 1.978169
v -4.240848 0.302303 2.352714
v -3.380221 0.282697 2.612014
v -2.647661 0.383065 2.180710
v -2.929697 0.331999 1.609713
v -3.972266 0.394286 1.692207
v -3.965562 1.294547 2.591340
v -3.022480 1.391026 2.397329
v -2.902266 1.300473 1.933019
v -3.529990 1.245815 1.606895
v -4.360963 1.292742 1.770234
v -4.699450 1.431568 2.217971
v 2.251233 0.184087 2.346490
v 2.718050 0.298699 2.684398
v 3.428931 0.256634 2.799044
v 4.096391 0.358435 2.438432
v 3.696487 0.354787 1.956341
v 3.122246 0.305218 1.636833
v 2.554825 0.298381 1.947730
v 3.065483 1.248037 2.795905
v 3.732013 1.262475 2.603765
v 3.846013 1.226204 2.141727
v 3.481599 1.146407 1.715060
v 2.691861 1.180252 1.706016
v 2.091848 1.192743 2.093171
v 2.317780 1.150403 2.637672
v 5.255100 0.250152 -2.909445
v 5.025882 0.324528 -3.781158
v 3.736443 0.000000 -3.896271
v 2.924545 0.194684 -3.363781
v 2.893114 0.207732 -2.465366
v 4.282611 0.152730 -2.396575
v 3.843580 1.609825 -4.182738
v 2.829627 1.588359 -3.496296
v 2.861331 1.722857 -2.610644
v 4.140315 1.625878 -2.315140
v 5.546971 1.672777 -2.703476
v 5.384476 1.848419 -3.804215
v 0.833486 0.361629 0.299679
v 1.363863 0.417553 0.603376
v 1.944577 0.388668 0.438634
v 2.179497 0.341755 0.080414
v 2.061208 0.330304 -0.361325
v 1.406415 0.445560 -0.478391
v 1.030072 0.369279 -0.128562
v 0.939181 1.091855 -0.256344
v 1.045119 1.098540 0.168318
v 1.239482 1.052770 0.598660
v 1.906940 1.003861 0.537340
v 2.306973 1.012883 0.166349
v 1.978796 1.006252 -0.196693
v 1.524461 1.004524 -0.470945
v -1.780402 0.356046 0.474058
v -1.338212 0.392477 0.737179
v -0.750841 0.404618 0.646878
v -0.676377 0.341314 0.213786
v -1.126927 0.365269 0.013020
v -1.666368 0.333525 0.057164
v -0.817071 0.912807 0.495424
v -0.857725 0.891052 0.176011
v -1.241826 0.899445 0.019630
v -1.764179 0.972464 0.139134
v -1.593119 0.980488 0.511453
v -1.205905 0.892063 0.639634
v -0.066997 0.416090 -0.078207
v 0.043174 0.407239 -0.275710
v -0.042985 0.480830 -0.496853
v -0.471945 0.493330 -0.519072
v -0.833047 0.482289 -0.390687
v -0.843866 0.398149 -0.139198
v -0.453228 0.461839 -0.030631
v -0.833347 0.944273 -0.336940
v -0.774190 0.887318 -0.099962
v -0.370648 0.979235 -0.019856
v 0.038721 0.969396 -0.090171
v -0.002132 0.978900 -0.311926
v -0.159749 0.951335 -0.486661
v -0.584000 0.895311 -0.540608
v -0.303323 0.826485 -2.004382
v 1.255807 0.994033 -1.691436
v 1.463136 0.594407 -2.510415
v -0.095994 0.426859 -2.823361
v -0.305275 1.041974 -2.110025
v 1.253854 1.209522 -1.797080
v 1.461183 0.809896 -2.616059
v -0.097946 0.642348 -2.929004
v -3.629096 0.948850 1.042702
v -1.877500 0.920571 0.735943
v -1.984751 0.849162 0.130124
v -3.736346 0.877441 0.436882
v -3.630136 1.187219 1.014789
v -1.878541 1.158940 0.708030
v -1.985791 1.087531 0.102211
v -3.737386 1.115810 0.408970
vn -0.0066 -0.9998 0.0202
vn 0.0066 0.9998 -0.0202
vn 0.0001 0.0202 0.9998
vn 1.0000 -0.0066 -0.0000
vn -0.0001 -0.0202 -0.9998
vn -1.0000 0.0066 -0.0000
vn 0.0571 -0.9981 0.0245
vn -0.0571 0.9981 -0.0245
vn -0.9174 -0.0621 -0.3930
vn -0.3937 -0.0000 0.9192
vn 0.9175 0.0621 0.3930
vn 0.3937 -0.0000 -0.9192
vn -0.1811 -0.9814 0.0639
vn 0.1811 0.9814 -0.0639
vn 0.9255 -0.1921 -0.3263
vn -0.3325 -0.0000 -0.9431
vn -0.9255 0.1921 0.3263
vn 0.3325 -0.0000 0.9431
vn 0.0245 -0.9997 0.0073
vn -0.0245 0.9997 -0.0073
vn -0.0002 0.0073 1.0000
vn 0.9997 0.0245 -0.0000
vn 0.0002 -0.0073 -1.0000
vn -0.9997 -0.0245 -0.0000
vn -0.0238 -0.9997 0.0070
vn 0.0238 0.9997 -0.0070
vn 0.0002 0.0070 1.0000
vn 0.9997 -0.0238 -0.0000
vn -0.0002 -0.0070 -1.0000
vn -0.9997 0.0238 -0.0000
vn 0.0042 -0.9997 0.0249
vn -0.0042 0.9997 -0.0249
vn -0.0001 0.0249 0.9997
vn 1.0000 0.0042 -0.0000
vn 0.0001 -0.0249 -0.9997
vn -1.0000 -0.0042 -0.0000
vn 0.0014 -0.9999 0.0117
vn -0.0014 0.9999 -0.0117
vn -0.0000 0.0117 0.9999
vn 1.0000 0.0014 -0.0000
vn -0.0000 -0.0117 -0.9999
vn -1.0000 -0.0014 -0.0000
vn -0.0013 -0.9998 -0.0193
vn 0.0013 0.9998 0.0193
vn -0.0000 -0.0193 0.9998
vn 1.0000 -0.0013 -0.0000
vn -0.0000 0.0193 -0.9998
vn -1.0000 0.0013 -0.0000
vn -0.0120 -0.9999 0.0035
vn 0.0120 0.9999 -0.0035
vn -0.0000 0.0035 1.0000
vn 0.9999 -0.0120 -0.0000
vn -0.0000 -0.0035 -1.0000
vn -0.9999 0.0120 -0.0000
vn 0.0251 -0.9996 0.0094
vn -0.0251 0.9996 -0.0094
vn -0.0002 0.0094 1.0000
vn 0.9997 0.0251 -0.0000
vn 0.0002 -0.0094 -1.0000
vn -0.9997 -0.0251 -0.0000
vn 0.0185 -0.9992 0.0351
vn -0.0185 0.9992 -0.0351
vn -0.0007 0.0351 0.9994
vn 0.9998 0.0185 -0.0000
vn 0.0007 -0.0351 -0.9994
vn -0.9998 -0.0185 -0.0000
vn -0.0232 -0.9996 -0.0142
vn 0.0232 0.9996 0.0142
vn -0.0003 -0.0142 0.9999
vn 0.9997 -0.0232 -0.0000
vn 0.0003 0.0142 -0.9999
vn -0.9997 0.0232 -0.0000
vn -0.0999 -0.9900 0.0997
vn 0.0999 0.9900 -0.0997
vn -0.4642 0.1350 0.8754
vn -0.0331 0.1035 0.9941
vn 0.6994 0.0014 0.7148
vn 0.9705 -0.1191 -0.2095
vn 0.0950 -0.1093 -0.9895
vn -0.9261 0.0559 -0.3731
vn -0.0000 -0.0000 -1.0000
vn -0.0000 -0.0000 1.0000
vn -0.0000 1.0000 -0.0000
vn -0.9987 -0.0507 -0.0000
vn -0.9897 0.1434 -0.0000
vn -0.7071 -0.7071 -0.0000
vn -0.0845 -0.9964 -0.0000
vn 0.9964 -0.0843 -0.0000
vn 0.9997 0.0230 -0.0000
vn -0.9997 0.0226 -0.0000
vn -0.9610 -0.2765 -0.0000
vn 0.1025 -0.9947 -0.0000
vn 0.9934 -0.1143 -0.0000
vn 0.9939 0.1104 -0.0000
vn -0.6000 0.8000 -0.0000
vn 0.0877 0.9961 -0.0000
vn -0.3162 0.9487 -0.0000
vn -0.3874 0.9219 -0.0000
vn 0.0505 -0.9987 -0.0000
vn 0.2573 0.9663 -0.0000
vn -0.9935 -0.1135 -0.0000
vn 0.0778 -0.9970 -0.0000
vn 0.9855 -0.1699 -0.0000
vn -0.9989 -0.0468 -0.0000
vn -0.4823 -0.8760 -0.0000
vn 0.6367 -0.7711 -0.0000
vn -0.5820 -0.8132 -0.0000
vn 0.6761 -0.7369 -0.0000
vn 1.0000 -0.0000 -0.0000
vn -1.0000 -0.0000 -0.0000
vn 0.8729 -0.4879 -0.0000
vn 0.9843 -0.1767 -0.0000
vn -0.0022 -0.9989 -0.0468
vn 0.0022 0.9989 0.0468
vn 0.0469 -0.0469 0.9978
vn 0.9989 -0.0000 -0.0470
vn -0.0469 0.0469 -0.9978
vn -0.9989 -0.0000 0.0470
vn 0.0019 -0.9992 -0.0400
vn -0.0019 0.9992 0.0400
vn -0.0478 -0.0400 0.9981
vn 0.9989 -0.0000 0.0479
vn 0.0478 0.0400 -0.9981
vn -0.9989 -0.0000 -0.0479
vn -0.0050 -1.0000 -0.0083
vn 0.0050 1.0000 0.0083
vn -0.0000 -0.0083 1.0000
vn 1.0000 -0.0050 -0.0000
vn -0.0000 0.0083 -1.0000
vn -1.0000 0.0050 -0.0000
vn -0.0218 -0.9991 0.0370
vn 0.0218 0.9991 -0.0370
vn 0.0008 0.0370 0.9993
vn 0.9998 -0.0218 -0.0000
vn -0.0008 -0.0370 -0.9993
vn -0.9998 0.0218 -0.0000
vn -0.0250 -0.9996 0.0150
vn 0.0250 0.9996 -0.0150
vn 0.0004 0.0150 0.9999
vn 0.9997 -0.0250 -0.0000
vn -0.0004 -0.0150 -0.9999
vn -0.9997 0.0250 -0.0000
vn 0.0161 -0.9997 0.0181
vn -0.0161 0.9997 -0.0181
vn -0.0003 0.0181 0.9998
vn 0.9999 0.0161 -0.0000
vn 0.0003 -0.0181 -0.9998
vn -0.9999 -0.0161 -0.0000
vn -0.1298 -0.9773 -0.1673
vn 0.1298 0.9773 0.1673
vn -0.5641 -0.0660 0.8231
vn 0.0994 -0.1807 0.9785
vn 0.8213 -0.2005 0.5342
vn 0.9007 -0.0456 -0.4321
vn -0.0327 0.1729 -0.9844
vn -0.9555 0.1683 -0.2422
vn 0.0135 0.1156 -0.9932
vn -0.0135 -0.1156 0.9932
vn 0.0985 0.9883 0.1163
vn -0.6653 -0.7405 -0.0952
vn -0.2074 -0.9714 -0.1158
vn 0.5859 -0.8058 -0.0858
vn 0.9921 -0.1253 -0.0000
vn -0.9982 0.0596 -0.0000
vn 0.1790 -0.9838 -0.0000
vn 0.9992 -0.0407 -0.0000
vn 0.9987 0.0512 -0.0000
vn -0.9989 0.0477 -0.0000
vn -0.9906 -0.1371 -0.0000
vn -0.2108 -0.9775 -0.0000
vn 0.9988 -0.0494 -0.0000
vn -0.9864 0.1644 -0.0000
vn -0.4099 0.9121 -0.0000
vn 0.1045 -0.9945 -0.0000
vn 0.0926 0.9957 -0.0000
vn -0.0000 -1.0000 -0.0000
vn 0.0283 -0.9995 0.0171
vn -0.0283 0.9995 -0.0171
vn -0.0005 0.0171 0.9999
vn 0.9996 0.0283 -0.0000
vn 0.0005 -0.0171 -0.9999
vn -0.9996 -0.0283 -0.0000
vn 0.1015 -0.9940 -0.0413
vn -0.1015 0.9940 0.0413
vn -0.9207 -0.1097 0.3744
vn 0.3767 -0.0000 0.9263
vn 0.9207 0.1097 -0.3745
vn -0.3767 -0.0000 -0.9263
vn -0.2640 -0.9625 -0.0618
vn 0.2641 0.9625 0.0618
vn 0.9372 -0.2712 0.2194
vn 0.2280 -0.0000 -0.9737
vn -0.9372 0.2712 -0.2194
vn -0.2280 -0.0000 0.9737
vn -0.0036 -0.9999 -0.0154
vn 0.0036 0.9999 0.0154
vn -0.0001 -0.0154 0.9999
vn 1.0000 -0.0036 -0.0000
vn 0.0001 0.0154 -0.9999
vn -1.0000 0.0036 -0.0000
vn 0.0427 -0.9957 -0.0820
vn -0.0427 0.9957 0.0820
vn -0.4601 -0.0924 0.8830
vn 0.8868 -0.0000 0.4621
vn 0.4601 0.0924 -0.8830
vn -0.8868 -0.0000 -0.4621
vn 0.2073 -0.9781 0.0165
vn -0.2074 0.9781 -0.0165
vn -0.9750 -0.2080 -0.0776
vn -0.0793 -0.0000 0.9969
vn 0.9750 0.2080 0.0776
vn 0.0793 -0.0000 -0.9969
vn 0.0182 -0.9998 0.0066
vn -0.0182 0.9998 -0.0066
vn -0.0001 0.0066 1.0000
vn 0.9998 0.0182 -0.0000
vn 0.0001 -0.0066 -1.0000
vn -0.9998 -0.0182 -0.0000
vn -0.1859 -0.9786 0.0878
vn 0.1859 0.9786 -0.0878
vn 0.8849 -0.2056 -0.4179
vn -0.4270 -0.0000 -0.9043
vn -0.8849 0.2056 0.4179
vn 0.4270 -0.0000 0.9042
vn -0.0400 -0.9991 -0.0127
vn 0.0400 0.9991 0.0127
vn 0.9523 -0.0419 0.3023
vn 0.3025 -0.0000 -0.9531
vn -0.9523 0.0419 -0.3023
vn -0.3025 -0.0000 0.9531
vn -0.0192 -0.9998 0.0062
vn 0.0192 0.9998 -0.0062
vn 0.0001 0.0062 1.0000
vn 0.9998 -0.0192 -0.0000
vn -0.0001 -0.0062 -1.0000
vn -0.9998 0.0192 -0.0000
vn 0.0902 -0.9934 0.0702
vn -0.0902 0.9934 -0.0702
vn -0.7841 -0.1143 -0.6100
vn -0.6140 -0.0000 0.7893
vn 0.7841 0.1143 0.6100
vn 0.6140 -0.0000 -0.7893
vn -0.2484 -0.9635 -0.0994
vn 0.2484 0.9635 0.0994
vn 0.8946 -0.2675 0.3580
vn 0.3716 -0.0000 -0.9284
vn -0.8946 0.2676 -0.3580
vn -0.3716 -0.0000 0.9284
vn -0.0213 -0.9994 0.0282
vn 0.0213 0.9994 -0.0282
vn 0.0006 0.0282 0.9996
vn 0.9998 -0.0213 -0.0000
vn -0.0006 -0.0282 -0.9996
vn -0.9998 0.0213 -0.0000
vn -0.0174 -0.9998 0.0023
vn 0.0174 0.9998 -0.0023
vn -0.0000 0.0023 1.0000
vn 0.9998 -0.0174 -0.0000
vn -0.0000 -0.0023 -1.0000
vn -0.9998 0.0174 -0.0000
vn -0.0114 -0.9999 -0.0116
vn 0.0114 0.9999 0.0116
vn -0.0001 -0.0116 0.9999
vn 0.9999 -0.0114 -0.0000
vn 0.0001 0.0116 -0.9999
vn -0.9999 0.0114 -0.0000
vn -0.0582 -0.9953 -0.0771
vn 0.0582 0.9953 0.0771
vn -0.6125 -0.0253 0.7901
vn -0.0039 -0.0770 0.9970
vn 0.7634 -0.0941 0.6390
vn 0.9626 -0.0355 -0.2687
vn 0.0974 0.0712 -0.9927
vn -0.9499 0.0790 -0.3024
vn -0.0079 -0.0967 -0.9953
vn 0.0079 0.0967 0.9953
vn 0.0653 0.9931 -0.0970
vn -0.6286 -0.7736 0.0802
vn -0.1714 -0.9805 0.0966
vn 0.6009 -0.7960 0.0726
vn 0.0014 -0.9994 0.0343
vn -0.0014 0.9994 -0.0343
vn 0.0401 0.0344 0.9986
vn 0.9992 -0.0000 -0.0401
vn -0.0401 -0.0344 -0.9986
vn -0.9992 -0.0000 0.0401
vn 0.0002 -0.9983 -0.0582
vn -0.0002 0.9983 0.0582
vn -0.0037 -0.0582 0.9983
vn 1.0000 -0.0000 0.0037
vn 0.0037 0.0582 -0.9983
vn -1.0000 -0.0000 -0.0037
vn 0.3015 -0.9388 0.1665
vn -0.3015 0.9388 -0.1665
vn -0.8218 -0.3444 -0.4539
vn -0.4835 -0.0000 0.8754
vn 0.8218 0.3444 0.4539
vn 0.4835 -0.0000 -0.8754
vn -0.2891 -0.9425 -0.1677
vn 0.2891 0.9425 0.1677
vn 0.8153 -0.3342 0.4728
vn 0.5017 -0.0000 -0.8651
vn -0.8153 0.3342 -0.4728
vn -0.5017 -0.0000 0.8651
vn -0.0485 -0.9755 -0.2144
vn 0.0485 0.9755 0.2144
vn 0.2153 -0.2199 0.9515
vn 0.9753 -0.0000 -0.2207
vn -0.2153 0.2199 -0.9515
vn -0.9753 -0.0000 0.2207
vn 0.1479 -0.9582 0.2451
vn -0.1479 0.9581 -0.2451
vn -0.4951 -0.2863 -0.8203
vn -0.8562 -0.0000 0.5167
vn 0.4951 0.2863 0.8203
vn 0.8562 -0.0000 -0.5167
vn -0.3730 -0.9218 -0.1052
vn 0.3730 0.9218 0.1052
vn 0.8872 -0.3875 0.2503
vn 0.2715 -0.0000 -0.9624
vn -0.8872 0.3875 -0.2503
vn -0.2715 -0.0000 0.9624
vn 0.5209 -0.8439 -0.1285
vn -0.5209 0.8439 0.1285
vn -0.8193 -0.5365 0.2022
vn 0.2396 -0.0000 0.9709
vn 0.8193 0.5365 -0.2021
vn -0.2396 -0.0000 -0.9709
vn 0.2187 -0.8181 -0.5319
vn -0.2187 0.8181 0.5319
vn -0.3033 -0.5751 0.7598
vn 0.0371 -0.5377 0.8423
vn 0.6534 -0.2821 0.7025
vn 0.7948 0.4656 -0.3893
vn 0.0003 0.5452 -0.8383
vn -0.8866 0.0612 -0.4586
vn -0.5307 -0.8004 0.2789
vn 0.5307 0.8004 -0.2789
vn -0.3166 0.4925 0.8107
vn 0.1335 0.2461 0.9600
vn 0.6437 -0.1665 0.7469
vn 0.7770 -0.5909 -0.2172
vn -0.0602 -0.2927 -0.9543
vn -0.8165 0.3945 -0.4215
vn -0.6208 -0.6772 -0.3950
vn 0.6207 0.6772 0.3950
vn 0.5713 -0.7358 0.3636
vn 0.5369 -0.0000 -0.8437
vn -0.5713 0.7358 -0.3636
vn -0.5369 -0.0000 0.8437
vn 0.6208 0.6772 0.3950
vn 0.1225 0.9909 -0.0549
vn 0.0346 0.0583 -0.9977
vn -0.5060 0.2510 -0.8252
vn -0.9773 0.1343 0.1637
vn -0.2013 0.0119 0.9795
vn 0.5884 -0.0563 0.8066
vn 0.8337 0.0812 -0.5463
vn -0.0592 0.9974 0.0408
vn -0.5592 -0.8223 0.1052
vn -0.1064 -0.6971 0.7090
vn -0.4197 0.2407 0.8751
vn 0.4991 -0.7514 -0.4317
vn -0.1955 -0.7057 -0.6810
vn 0.0431 0.9953 0.0866
vn -0.4669 -0.3924 -0.7925
vn -0.7786 -0.6237 0.0689
vn 0.0899 -0.3118 0.9459
vn 0.5806 -0.5933 0.5576
vn 0.4259 -0.5199 -0.7405
vn 0.1657 0.9844 0.0588
vn -0.6216 0.0201 -0.7831
vn -0.6914 0.0254 0.7220
vn -0.0016 -0.0589 0.9983
vn 0.9749 -0.2216 0.0202
vn 0.4528 0.0589 -0.8897
vn 0.2307 0.9730 0.0101
vn 0.4480 0.0167 -0.8939
vn 0.0149 0.2768 -0.9608
vn -0.6451 -0.0014 -0.7641
vn -0.5994 0.0564 0.7984
vn -0.4636 0.1151 0.8785
vn 0.4719 0.0299 0.8811
vn 0.9580 -0.0080 -0.2867
vn -0.0441 0.9963 0.0737
vn -0.4852 -0.0657 -0.8719
vn -0.9710 0.1662 -0.1720
vn -0.6662 -0.0628 0.7431
vn 0.2900 0.2223 0.9309
vn 0.3916 0.0162 0.9200
vn 0.6880 0.1037 -0.7182
vn 0.2325 0.0527 -0.9712
vn 0.0425 0.9938 -0.1025
vn 0.9563 0.0080 -0.2922
vn -0.0090 -0.0371 -0.9993
vn -0.5491 -0.1010 -0.8296
vn -0.8098 0.1168 0.5749
vn 0.0158 -0.0274 0.9995
vn 0.5879 -0.0318 0.8083
vn -0.0362 0.9969 0.0702
vn -0.1509 -0.6593 0.7366
vn -0.2512 -0.0111 0.9679
vn 0.5582 -0.6818 -0.4728
vn -0.1542 -0.6664 -0.7294
vn -0.0206 0.2290 -0.9732
vn -0.0612 0.9964 0.0588
vn -0.4644 -0.1695 -0.8693
vn -0.5826 -0.2351 0.7780
vn -0.0008 -0.0942 0.9956
vn 0.4609 -0.2276 0.8578
vn 0.6762 -0.4088 -0.6129
vn -0.0650 -0.1320 -0.9891
vn 0.0535 0.9961 -0.0703
vn -0.6461 -0.2700 -0.7139
vn -0.8430 -0.0446 0.5361
vn 0.2771 -0.1398 0.9506
vn 0.8804 -0.3771 0.2875
vn 0.1512 -0.0879 -0.9846
vn -0.0608 0.9981 -0.0077
vn 0.1579 0.1725 -0.9723
vn -0.3838 0.3088 -0.8702
vn -0.8937 0.1113 0.4347
vn 0.1263 0.0051 0.9920
vn 0.8493 0.0908 0.5200
vn 0.2240 0.9739 0.0364
vn -0.4434 -0.8540 -0.2721
vn -0.0211 -0.5070 0.8617
vn 0.1464 -0.5638 0.8128
vn 0.2106 -0.6160 -0.7591
vn 0.0454 -0.4751 -0.8787
vn -0.2145 0.9763 0.0299
vn -0.4955 -0.7798 -0.3826
vn -0.5124 -0.5634 0.6481
vn -0.1600 -0.6425 0.7494
vn 0.3808 -0.6255 0.6810
vn 0.6274 -0.7453 0.2258
vn 0.4809 -0.7865 -0.3875
vn -0.1384 -0.6774 -0.7225
vn -0.0600 0.9901 0.1272
vn -0.1456 0.0533 0.9879
vn 0.7550 0.0805 0.6508
vn 0.4255 0.1769 -0.8875
vn -0.2357 -0.0049 -0.9718
vn -0.7871 0.2786 0.5503
vn 0.0873 0.9946 0.0568
vn 0.6277 -0.5798 0.5194
vn 0.6106 -0.7099 -0.3510
vn 0.0232 -0.4703 -0.8822
vn -0.4046 -0.6186 -0.6735
vn -0.5485 -0.6901 0.4720
vn -0.1082 -0.6359 0.7642
vn 0.0036 0.9989 0.0461
vn 0.5865 -0.6652 -0.4622
vn -0.0962 -0.5338 -0.8401
vn -0.4842 -0.6986 -0.5268
vn -0.3989 -0.7232 0.5638
vn 0.1123 -0.5418 0.8330
vn 0.8310 -0.5547 -0.0426
vn 0.0707 0.9950 0.0711
vn 0.2798 -0.1367 0.9503
vn 0.9354 0.0265 0.3527
vn 0.3183 -0.2494 -0.9146
vn -0.1561 -0.0031 -0.9877
vn -0.9063 0.0373 -0.4209
vn -0.5964 0.0537 0.8009
vn -0.1748 0.9846 -0.0084
vn 0.4694 -0.6738 -0.5707
vn -0.3420 -0.6956 -0.6318
vn -0.6170 -0.7867 0.0207
vn 0.0319 -0.7068 0.7067
vn -0.2544 0.0996 0.9620
vn 0.0886 0.9854 -0.1452
vn -0.8348 0.1167 -0.5381
vn -0.8106 0.0534 0.5832
vn -0.1249 -0.1721 0.9771
vn 0.3754 0.0583 0.9250
vn 0.9919 -0.1255 -0.0211
vn 0.3838 -0.1762 -0.9065
vn 0.0529 -0.1300 -0.9901
vn 0.0946 0.9777 0.1874
vn -0.9881 -0.0866 -0.1275
vn -0.3221 0.1530 0.9343
vn 0.4501 -0.0492 0.8916
vn 0.7518 0.1261 -0.6472
vn 0.0404 -0.0590 -0.9974
vn 0.0598 0.9955 0.0738
vn -0.8734 0.2675 -0.4070
vn -0.8098 0.2422 0.5343
vn -0.2671 0.0264 0.9633
vn 0.3722 0.0610 0.9261
vn 0.9687 -0.0133 -0.2477
vn 0.4337 0.0339 -0.9004
vn -0.2074 0.0155 -0.9781
vn -0.0478 0.9939 0.0990
vn 0.4670 -0.4904 -0.7358
vn 0.7044 0.0204 -0.7095
vn -0.2416 -0.0678 -0.9680
vn -0.2315 -0.3935 0.8897
vn -0.0489 -0.0504 0.9975
vn 0.0357 0.9876 -0.1531
vn -0.0190 0.1305 0.9913
vn 0.9769 0.1877 0.1021
vn 0.4417 -0.0259 -0.8968
vn -0.6453 0.0857 -0.7591
vn -0.8662 0.2166 0.4504
vn 0.1576 0.9855 -0.0621
vn 0.1959 0.0575 -0.9789
vn -0.3402 0.0553 -0.9387
vn -0.9673 0.1736 0.1850
vn -0.2361 -0.0454 0.9707
vn 0.3286 0.1114 0.9379
vn 0.9855 -0.0324 -0.1663
vn 0.3536 0.9352 -0.0180
vn -0.6171 0.1345 -0.7753
vn -0.5790 0.1198 0.8065
vn -0.0412 -0.0190 0.9990
vn 0.3860 -0.0632 0.9203
vn 0.8154 -0.0653 -0.5752
vn 0.5453 0.2877 -0.7873
vn -0.3786 0.0077 -0.9255
vn 0.0885 0.9951 -0.0435
vn -0.6118 -0.6914 0.3842
vn -0.0207 -0.3749 0.9268
vn 0.1394 -0.5695 0.8101
vn 0.7209 -0.5145 -0.4643
vn 0.3942 -0.5064 -0.7669
vn -0.1035 -0.4120 -0.9053
vn -0.6579 -0.5440 -0.5208
vn 0.0511 0.9983 -0.0268
vn -0.7712 0.0616 0.6337
vn 0.6289 -0.7162 0.3025
vn 0.4002 -0.6312 -0.6644
vn 0.7593 0.4975 -0.4195
vn -0.0756 0.0538 -0.9957
vn -0.4418 -0.6323 0.6364
vn 0.0558 0.9970 0.0544
vn -0.6019 0.1277 0.7883
vn -0.1417 0.2296 0.9629
vn 0.6632 -0.5940 -0.4553
vn 0.7695 0.0143 -0.6384
vn 0.4468 0.2867 -0.8475
vn -0.4769 -0.1050 -0.8727
vn -0.0781 -0.6404 0.7640
vn 0.0102 0.9877 0.1561
vn -0.3221 -0.8034 -0.5009
vn -0.4787 -0.8653 0.1485
vn -0.2172 -0.6523 0.7262
vn 0.2141 -0.6891 0.6923
vn 0.4588 -0.8644 -0.2057
vn 0.2695 -0.7127 -0.6476
vn 0.1035 0.9945 0.0134
vn -0.9249 0.3059 0.2259
vn -0.9042 -0.1742 0.3899
vn 0.0793 -0.1532 0.9850
vn 0.6663 -0.2179 0.7132
vn 0.7167 0.2463 -0.6524
vn 0.5146 -0.0973 -0.8519
vn -0.3638 -0.2064 -0.9083
vn 0.2230 0.9748 -0.0013
vn 0.5005 -0.8657 -0.0047
vn 0.2047 -0.8122 -0.5463
vn -0.2291 -0.8434 -0.4860
vn -0.4989 -0.8307 0.2471
vn -0.3582 -0.7364 0.5740
vn 0.2498 -0.7899 0.5600
vn -0.1162 0.9870 -0.1115
vn -0.5521 -0.8315 -0.0620
vn -0.0738 -0.4512 0.8894
vn 0.1140 -0.6468 0.7541
vn 0.7430 -0.6487 -0.1647
vn 0.5069 -0.7956 -0.3318
vn 0.1801 -0.6732 -0.7172
vn -0.5234 -0.7108 -0.4699
vn 0.0081 -0.8979 0.4402
vn -0.0081 0.8979 -0.4402
vn -0.2218 0.4276 0.8763
vn 0.9750 0.1048 0.1957
vn 0.2218 -0.4276 -0.8763
vn -0.9750 -0.1048 -0.1957
vn 0.0043 -0.9932 0.1163
vn -0.0043 0.9932 -0.1163
vn 0.1732 0.1153 0.9781
vn 0.9849 -0.0159 -0.1725
vn -0.1732 -0.1153 -0.9781
vn -0.9849 0.0159 0.1725
vn 0.9174 0.0621 0.3930
vn -0.1812 -0.9814 0.0639
vn 0.1812 0.9814 -0.0639
vn 0.6994 0.0014 0.7147
vn 0.0135 0.1155 -0.9932
vn 0.1016 -0.9940 -0.0413
vn 0.9208 0.1097 -0.3744
vn 0.2640 0.9625 0.0618
vn 0.2074 -0.9781 0.0165
vn -0.2073 0.9781 -0.0165
vn -0.4270 -0.0000 -0.9042
vn -0.0903 0.9934 -0.0702
vn -0.6141 -0.0000 0.7893
vn 0.6141 -0.0000 -0.7893
vn 0.8946 -0.2676 0.3580
vn 0.0652 0.9931 -0.0970
vn 0.1479 -0.9581 0.2451
vn -0.1480 0.9581 -0.2451
vn -0.3730 -0.9219 -0.1052
vn 0.8193 0.5365 -0.2022
vn -0.8866 0.0612 -0.4585
vn -0.0258 0.9886 0.1486
vn -0.2363 0.9675 0.0899
vn -0.1083 0.9813 -0.1594
vn -0.2045 0.0058 -0.9788
vn -0.9889 0.1019 0.1082
vn -0.3144 -0.0779 0.9461
vn 0.4338 -0.1779 0.8833
vn 0.9673 -0.2483 0.0527
vn 0.2126 -0.0538 -0.9757
vn 0.0709 0.9868 0.1454
vn -0.0501 0.9979 0.0405
vn 0.1245 0.6983 -0.7049
vn -0.4721 0.7852 -0.4008
vn 0.6880 -0.3187 0.6520
vn 0.2479 0.7086 0.6606
vn 0.5607 0.8255 -0.0642
vn 0.0932 0.9938 0.0605
vn 0.0502 0.9961 0.0730
vn -0.3314 0.3605 0.8719
vn 0.5032 0.4581 0.7328
vn 0.6714 0.5080 -0.5396
vn -0.0008 0.3332 -0.9429
vn -0.7905 0.6120 -0.0216
vn 0.0046 0.9992 0.0387
vn 0.0580 0.9950 0.0807
vn -0.9067 0.2823 0.3134
vn -0.2574 0.1360 0.9567
vn 0.7182 0.2922 0.6315
vn 0.4857 0.0800 -0.8704
vn -0.2272 0.2706 -0.9355
vn -0.1377 0.9905 -0.0004
vn -0.1193 0.9928 0.0101
vn 0.1548 0.9868 -0.0471
vn -0.0862 0.9955 -0.0403
vn 0.4293 0.0107 -0.9031
vn -0.7338 0.0530 -0.6773
vn -0.9355 -0.3000 0.1866
vn -0.5958 0.0552 0.8012
vn 0.2117 -0.1404 0.9672
vn 0.9477 -0.2207 0.2308
vn 0.6808 -0.1138 -0.7236
vn -0.2066 0.9782 0.0210
vn 0.2495 0.9671 0.0505
vn -0.1472 0.9890 -0.0151
vn 0.2128 0.9746 0.0693
vn -0.5975 -0.0955 -0.7962
vn -0.5705 -0.0164 0.8211
vn -0.2097 -0.1682 0.9632
vn 0.6525 0.1497 0.7429
vn 0.9761 -0.2158 0.0240
vn 0.3278 0.0004 -0.9448
vn -0.3552 -0.1365 -0.9248
vn 0.3495 0.9213 0.1705
vn -0.1016 0.9948 0.0078
vn -0.0306 0.9921 -0.1218
vn 0.0293 -0.0660 -0.9974
vn -0.5617 -0.0941 -0.8220
vn -0.9744 -0.2128 -0.0719
vn 0.0517 0.0019 0.9987
vn 0.5092 -0.0780 0.8571
vn 0.9922 -0.1118 -0.0546
vn 0.0004 0.9994 0.0344
vn -0.1330 0.9895 0.0566
vn -0.5515 0.7800 -0.2957
vn 0.5788 -0.1952 0.7918
vn 0.1721 0.6697 0.7224
vn 0.5456 0.8272 -0.1343
vn -0.9476 0.1015 -0.3029
vn -0.0086 0.9972 0.0743
vn 0.0615 0.9965 -0.0558
vn 0.0974 0.9940 -0.0494
vn -0.2024 0.1933 0.9600
vn 0.1383 0.0638 0.9883
vn 0.8844 0.2295 0.4064
vn 0.2339 0.1256 -0.9641
vn -0.1608 -0.0136 -0.9869
vn -0.6369 0.0043 -0.7710
vn 0.0029 0.9897 -0.1428
vn 0.0547 0.9960 -0.0701
vn -0.9707 0.0224 0.2391
vn -0.3260 0.2329 0.9162
vn 0.4844 -0.0439 0.8737
vn 0.5501 0.1192 -0.8266
vn -0.0828 0.0439 -0.9956
vn -0.0445 0.9988 -0.0212
vn 0.0985 0.9930 0.0644
vn -0.0522 0.0724 -0.9960
vn -0.9945 0.0089 0.1041
vn -0.1965 -0.1989 0.9601
vn 0.4211 -0.1224 0.8987
vn 0.7730 -0.2108 -0.5984
vn -0.2081 0.9754 -0.0727
vn -0.1132 0.9744 -0.1944
vn 0.3113 0.7476 -0.5867
vn -0.0300 0.5024 -0.8641
vn -0.4124 0.8802 -0.2349
vn -0.0328 0.4740 0.8799
vn 0.2327 0.6242 0.7458
vn 0.0150 0.9999 0.0020
vn -0.0466 0.9983 -0.0355
vn 0.0886 0.9949 -0.0474
vn -0.0821 0.9965 -0.0131
vn 0.0702 0.6086 0.7903
vn 0.5359 0.7047 0.4650
vn 0.4195 0.7617 -0.4938
vn 0.0058 0.6325 -0.7745
vn -0.3681 0.5950 -0.7145
vn -0.6145 0.7848 0.0802
vn -0.4043 0.6432 0.6503
vn -0.0165 0.9934 0.1136
vn -0.0159 0.9934 0.1140
vn 0.5970 -0.1184 0.7935
vn 0.7323 -0.1261 -0.6692
vn -0.2731 0.0302 -0.9615
vn -0.9419 -0.2648 -0.2066
vn -0.1301 0.0680 0.9892
vn 0.0347 0.9983 0.0462
vn -0.1914 0.9801 -0.0523
vn 0.1336 0.9908 -0.0234
vn -0.0975 0.5304 -0.8421
vn -0.6030 0.6627 -0.4440
vn -0.3947 0.5937 0.7012
vn -0.1518 0.3213 0.9347
vn 0.5661 0.7871 0.2450
vn 0.3378 0.6927 -0.6373
vn -0.3467 0.9205 0.1799
vn 0.0775 0.9923 0.0969
vn -0.2526 0.9497 0.1849
vn -0.7196 0.5951 -0.3579
vn -0.1751 0.5538 0.8140
vn 0.2263 0.5696 0.7902
vn 0.6456 0.7550 0.1153
vn 0.2692 0.5984 -0.7547
vn -0.4382 0.6181 -0.6526
vn -0.1870 0.9821 0.0218
vn -0.0249 0.9957 -0.0894
vn 0.0066 0.9873 -0.1585
vn 0.8606 0.0887 0.5015
vn 0.9226 0.1931 -0.3338
vn -0.1543 -0.0020 -0.9880
vn -0.6502 0.1907 -0.7354
vn -0.8365 0.2588 0.4830
vn -0.2304 0.2255 0.9466
vn -0.0132 0.9975 -0.0701
vn 0.1780 0.9571 0.2286
vn 0.2742 0.6812 0.6788
vn 0.5922 0.7878 -0.1695
vn 0.0819 0.6989 -0.7105
vn -0.5370 0.8038 -0.2560
vn 0.8133 -0.4304 0.3915
vn 0.0447 0.9919 -0.1187
vn -0.0623 0.9906 0.1219
vn -0.0964 0.9858 0.1374
vn 0.0559 0.9867 -0.1527
vn -0.9662 0.2503 -0.0623
vn -0.6950 0.1018 0.7118
vn 0.3250 0.0780 0.9425
vn 0.5993 0.1623 0.7839
vn 0.8509 0.0218 -0.5249
vn 0.1844 -0.0633 -0.9808
vn -0.6029 0.2085 -0.7701
vn -0.0230 0.9923 0.1214
vn 0.0856 0.9948 0.0551
vn -0.7602 0.2401 -0.6037
vn -0.5354 -0.0152 0.8444
vn 0.2865 0.1187 0.9507
vn 0.9105 -0.0625 -0.4089
vn 0.0156 -0.0299 -0.9994
vn 0.0410 0.9951 0.0901
vn -0.3842 0.9173 0.1044
vn 0.0224 0.9970 0.0745
vn -0.1941 0.9724 -0.1295
vn -0.9726 0.1605 0.1682
vn -0.2975 0.0149 0.9546
vn 0.0369 -0.0969 0.9946
vn 0.9317 -0.1590 0.3267
vn 0.7526 -0.1043 -0.6502
vn 0.0423 -0.0933 -0.9947
vn -0.3062 -0.0150 -0.9519
vn 0.0110 0.9943 0.1059
vn -0.0286 0.9960 0.0848
vn 0.4826 0.3889 0.7848
vn 0.0124 0.1297 -0.9915
vn -0.7419 0.0010 -0.6705
vn -0.6539 0.6389 -0.4053
vn 0.2689 0.0170 0.9630
vn 0.2296 0.9633 0.1390
vn -0.1774 0.9841 0.0033
vn 0.4045 -0.1389 0.9039
vn 0.7557 -0.1634 -0.6342
vn 0.1241 -0.2291 -0.9655
vn -0.8305 -0.0125 -0.5569
vn -0.4994 -0.0909 0.8616
vn 0.0030 0.9988 0.0482
vn 0.0324 0.9935 -0.1092
vn -0.3556 0.9256 0.1297
vn -0.1723 0.1492 -0.9737
vn -0.9514 0.2799 -0.1283
vn -0.6061 0.2256 0.7627
vn 0.3261 0.1130 0.9386
vn 0.7297 0.3033 0.6129
vn 0.2879 0.1410 -0.9472
vn -0.0494 0.9972 0.0559
vn -0.1849 0.9754 0.1200
vn -0.1152 0.9863 0.1179
vn -0.0499 0.9765 -0.2099
vn -0.9533 -0.1648 -0.2530
vn -0.2420 -0.0784 0.9671
vn 0.1693 -0.1089 0.9795
vn 0.7590 -0.3231 0.5652
vn 0.9813 0.0998 -0.1646
vn -0.0748 -0.0676 -0.9949
vn -0.3146 0.0312 -0.9487
vn -0.2108 0.9465 0.2444
vn 0.0189 0.9606 -0.2773
vn 0.1724 0.9637 0.2039
vn -0.0968 0.9943 -0.0442
vn 0.5139 0.6208 0.5921
vn 0.5331 0.6712 -0.5150
vn 0.1668 0.5309 -0.8309
vn -0.5559 0.7095 -0.4331
vn -0.7707 0.6349 -0.0544
vn -0.3899 0.4414 0.8082
vn -0.0075 0.3943 0.9189
vn 0.2397 0.9637 -0.1176
vn -0.1222 0.9872 -0.1029
vn 0.0123 0.9820 -0.1883
vn 0.2211 -0.2856 0.9325
vn -0.2158 0.6100 0.7624
vn 0.2802 0.7136 0.6420
vn -0.1984 -0.1333 -0.9710
vn -0.8031 -0.3029 -0.5132
vn -0.3324 0.6677 -0.6661
vn -0.1256 0.9919 -0.0186
vn -0.0544 0.9920 -0.1142
vn 0.0436 0.9961 -0.0769
vn -0.0976 0.9900 -0.1018
vn 0.2750 -0.2108 0.9381
vn 0.9394 -0.2345 0.2502
vn 0.2235 0.7480 0.6249
vn -0.0016 -0.2919 -0.9564
vn -0.5344 -0.1979 -0.8218
vn -0.8246 -0.4765 0.3051
vn -0.6783 0.6576 -0.3279
vn -0.1569 0.9875 0.0164
vn -0.0244 0.9997 -0.0047
vn 0.1098 0.9821 -0.1531
vn 0.4926 0.8685 -0.0554
vn -0.0713 0.5730 -0.8164
vn -0.2626 0.7054 -0.6583
vn -0.4851 0.8739 -0.0297
vn -0.0124 0.6434 0.7654
vn 0.2282 0.7811 0.5811
vn 0.1302 0.9903 -0.0481
vn 0.0793 0.9944 0.0699
vn -0.0215 0.9998 0.0012
vn 0.0581 0.9930 -0.1025
vn -0.4985 0.2889 0.8174
vn 0.2752 0.0610 0.9594
vn 0.8334 -0.0375 0.5514
vn 0.9561 -0.1493 -0.2522
vn 0.2136 0.2557 -0.9429
vn -0.6893 0.1550 -0.7077
vn -0.8918 -0.1852 -0.4127
vn -0.0747 0.9955 -0.0583
vn 0.0174 0.9998 0.0109
vn 0.1208 0.9897 -0.0768
vn -0.3353 0.8283 0.4488
vn 0.0727 0.8099 0.5820
vn 0.5035 0.8631 -0.0396
vn 0.3105 0.7293 -0.6097
vn -0.0975 0.7557 -0.6476
vn -0.4892 0.8534 -0.1799
vn 0.3066 0.9400 0.1494
vn -0.2079 0.9755 -0.0720
vn 0.0304 0.9988 0.0372
vn -0.0719 0.9932 -0.0918
vn 0.5300 0.8073 0.2595
vn 0.7839 0.6125 -0.1016
vn 0.0584 0.6329 -0.7720
vn -0.2851 0.5961 -0.7506
vn -0.5296 0.8110 0.2486
vn -0.2962 0.6889 0.6615
vn 0.1678 0.6193 0.7670
vt 0.025250 0.025250
vt 0.224750 0.224750
vt 0.025250 0.224750
vt 0.224750 0.025250
vt 0.974750 0.025250
vt 0.775250 0.224750
vt 0.775250 0.025250
vt 0.974750 0.224750
vt 0.025250 0.125000
vt 0.075125 0.038614
vt 0.224750 0.125000
vt 0.174875 0.038614
vt 0.075125 0.211386
vt 0.535128 0.081720
vt 0.602804 0.027751
vt 0.687193 0.047012
vt 0.602804 0.222249
vt 0.724750 0.025250
vt 0.525250 0.224750
vt 0.525250 0.025250
vt 0.525250 0.125000
vt 0.575125 0.038614
vt 0.724750 0.125000
vt 0.674875 0.038614
vt 0.575125 0.211386
vt 0.674875 0.211386
vt 0.724750 0.224750
vt 0.352804 0.027751
vt 0.437193 0.047012
vt 0.352804 0.222249
vt 0.285128 0.081720
vt 0.474750 0.025250
vt 0.275250 0.224750
vt 0.275250 0.025250
vt 0.294301 0.066368
vt 0.474750 0.125000
vt 0.294301 0.183632
vt 0.405824 0.030132
vt 0.474750 0.224750
vt 0.437193 0.202988
vt 0.424875 0.211386
vt 0.275250 0.125000
vt 0.424875 0.038614
vt 0.325125 0.211386
vt 0.325125 0.038614
vt 0.224750 0.275250
vt 0.025250 0.474750
vt 0.025250 0.275250
vt 0.174875 0.211386
vt 0.275250 0.375000
vt 0.325125 0.288614
vt 0.424875 0.461386
vt 0.275250 0.275250
vt 0.474750 0.474750
vt 0.275250 0.474750
vt 0.294301 0.433632
vt 0.294301 0.316368
vt 0.405824 0.280132
vt 0.474750 0.275250
vt 0.655824 0.469868
vt 0.544301 0.433632
vt 0.544301 0.316368
vt 0.525250 0.275250
vt 0.724750 0.474750
vt 0.525250 0.474750
vt 0.655824 0.280132
vt 0.724750 0.275250
vt 0.035128 0.081720
vt 0.102804 0.027751
vt 0.187193 0.202988
vt 0.285128 0.331720
vt 0.352804 0.277751
vt 0.437193 0.297012
vt 0.655824 0.219868
vt 0.544301 0.066368
vt 0.655824 0.030132
vt 0.424875 0.288614
vt 0.405824 0.469868
vt 0.155824 0.219868
vt 0.044301 0.066368
vt 0.155824 0.030132
vt 0.285128 0.418280
vt 0.187193 0.047012
vt 0.035128 0.168280
vt 0.044301 0.183632
vt 0.525250 0.375000
vt 0.575125 0.288614
vt 0.724750 0.375000
vt 0.352804 0.472249
vt 0.474750 0.375000
vt 0.535128 0.331720
vt 0.602804 0.277751
vt 0.687193 0.297012
vt 0.674875 0.288614
vt 0.687193 0.452988
vt 0.535128 0.418280
vt 0.325125 0.461386
vt 0.102804 0.222249
vt 0.687193 0.202988
vt 0.535128 0.168280
vt 0.285128 0.168280
vt 0.405824 0.219868
vt 0.224750 0.474750
vt 0.437193 0.452988
vt 0.544301 0.183632
vt 0.674875 0.461386
vt 0.575125 0.461386
vt 0.602804 0.472249
s 0
f 1/1/1 3/2/1 2/3/1
f 6/4/2 8/3/2 5/1/2
f 1/1/3 6/2/3 5/3/3
f 3/4/4 6/3/4 2/1/4
f 4/4/5 7/3/5 3/1/5
f 1/4/6 8/3/6 4/1/6
f 12/5/7 10/6/7 9/7/7
f 13/7/8 15/8/8 16/6/8
f 10/5/9 13/6/9 9/7/9
f 10/7/10 15/8/10 14/6/10
f 12/5/11 15/6/11 11/7/11
f 9/5/12 16/6/12 12/7/12
f 20/5/13 18/6/13 17/7/13
f 21/7/14 23/8/14 24/6/14
f 18/5/15 21/6/15 17/7/15
f 18/7/16 23/8/16 22/6/16
f 20/5/17 23/6/17 19/7/17
f 17/5/18 24/6/18 20/7/18
f 28/4/19 26/3/19 25/1/19
f 29/1/20 31/2/20 32/3/20
f 25/1/21 30/2/21 29/3/21
f 27/4/22 30/3/22 26/1/22
f 28/4/23 31/3/23 27/1/23
f 25/4/24 32/3/24 28/1/24
f 36/4/25 34/3/25 33/1/25
f 37/1/26 39/2/26 40/3/26
f 34/4/27 37/3/27 33/1/27
f 35/4/28 38/3/28 34/1/28
f 36/4/29 39/3/29 35/1/29
f 33/4/30 40/3/30 36/1/30
f 44/4/31 42/3/31 41/1/31
f 45/1/32 47/2/32 48/3/32
f 42/4/33 45/3/33 41/1/33
f 43/4/34 46/3/34 42/1/34
f 44/4/35 47/3/35 43/1/35
f 41/4/36 48/3/36 44/1/36
f 49/1/37 51/2/37 50/3/37
f 54/4/38 56/3/38 53/1/38
f 50/4/39 53/3/39 49/1/39
f 51/4/40 54/3/40 50/1/40
f 51/1/41 56/2/41 55/3/41
f 49/4/42 56/3/42 52/1/42
f 60/4/43 58/3/43 57/1/43
f 61/1/44 63/2/44 64/3/44
f 58/4/45 61/3/45 57/1/45
f 59/4/46 62/3/46 58/1/46
f 60/4/47 63/3/47 59/1/47
f 57/4/48 64/3/48 60/1/48
f 65/1/49 67/2/49 66/3/49
f 69/1/50 71/2/50 72/3/50
f 66/4/51 69/3/51 65/1/51
f 67/4/52 70/3/52 66/1/52
f 67/1/53 72/2/53 71/3/53
f 68/1/54 69/2/54 72/3/54
f 73/1/55 75/2/55 74/3/55
f 78/4/56 80/3/56 77/1/56
f 74/4/57 77/3/57 73/1/57
f 74/1/58 79/2/58 78/3/58
f 76/4/59 79/3/59 75/1/59
f 73/4/60 80/3/60 76/1/60
f 81/1/61 83/2/61 82/3/61
f 86/4/62 88/3/62 85/1/62
f 81/1/63 86/2/63 85/3/63
f 82/1/64 87/2/64 86/3/64
f 83/1/65 88/2/65 87/3/65
f 84/1/66 85/2/66 88/3/66
f 89/1/67 91/2/67 90/3/67
f 93/1/68 95/2/68 96/3/68
f 89/1/69 94/2/69 93/3/69
f 91/4/70 94/3/70 90/1/70
f 92/4/71 95/3/71 91/1/71
f 92/1/72 93/2/72 96/3/72
f 99/9/73 98/10/73 102/11/73
f 108/12/74 105/13/74 107/10/74
f 98/4/75 103/3/75 97/1/75
f 99/4/76 104/3/76 98/1/76
f 100/4/77 105/3/77 99/1/77
f 101/4/78 106/3/78 100/1/78
f 102/4/79 107/3/79 101/1/79
f 102/1/80 103/2/80 108/3/80
f 111/14/81 110/15/81 109/16/81
f 118/17/82 120/14/82 122/16/82
f 110/18/83 116/19/83 109/20/83
f 111/18/84 117/19/84 110/20/84
f 112/18/85 118/19/85 111/20/85
f 113/18/86 119/19/86 112/20/86
f 114/18/87 120/19/87 113/20/87
f 115/18/88 121/19/88 114/20/88
f 109/18/89 122/19/89 115/20/89
f 125/21/81 124/22/81 128/23/81
f 134/24/82 131/25/82 133/22/82
f 124/18/83 129/19/83 123/20/83
f 125/18/90 130/19/90 124/20/90
f 126/18/91 131/19/91 125/20/91
f 127/18/92 132/19/92 126/20/92
f 128/18/93 133/19/93 127/20/93
f 123/18/94 134/19/94 128/20/94
f 136/22/81 135/24/81 140/23/81
f 145/22/82 146/24/82 142/26/82
f 136/18/95 141/19/95 135/20/95
f 137/18/96 142/19/96 136/20/96
f 138/18/97 143/19/97 137/20/97
f 139/18/98 144/19/98 138/20/98
f 140/18/99 145/19/99 139/20/99
f 135/18/100 146/19/100 140/20/100
f 150/20/81 148/27/81 147/19/81
f 152/18/82 154/19/82 151/20/82
f 148/18/83 151/19/83 147/20/83
f 149/18/101 152/19/101 148/20/101
f 150/18/102 153/19/102 149/20/102
f 147/18/103 154/19/103 150/20/103
f 156/28/81 155/29/81 159/30/81
f 166/31/82 167/28/82 168/29/82
f 156/32/83 162/33/83 155/34/83
f 157/32/104 163/33/104 156/34/104
f 158/32/105 164/33/105 157/34/105
f 159/32/106 165/33/106 158/34/106
f 160/32/107 166/33/107 159/34/107
f 161/32/108 167/33/108 160/34/108
f 155/32/109 168/33/109 161/34/109
f 170/35/81 173/36/81 171/37/81
f 176/37/82 177/35/82 178/38/82
f 170/32/83 174/33/83 169/34/83
f 171/32/110 175/33/110 170/34/110
f 172/32/105 176/33/105 171/34/105
f 173/32/111 177/33/111 172/34/111
f 169/32/112 178/33/112 173/34/112
f 182/32/113 180/33/113 179/34/113
f 183/34/114 185/39/114 186/33/114
f 180/32/115 183/33/115 179/34/115
f 181/32/116 184/33/116 180/34/116
f 182/32/117 185/33/117 181/34/117
f 179/32/118 186/33/118 182/34/118
f 190/32/119 188/33/119 187/34/119
f 192/32/120 194/33/120 191/34/120
f 188/32/121 191/33/121 187/34/121
f 189/32/122 192/33/122 188/34/122
f 190/32/123 193/33/123 189/34/123
f 187/32/124 194/33/124 190/34/124
f 198/4/125 196/3/125 195/1/125
f 200/4/126 202/3/126 199/1/126
f 195/1/127 200/2/127 199/3/127
f 197/4/128 200/3/128 196/1/128
f 198/4/129 201/3/129 197/1/129
f 195/4/130 202/3/130 198/1/130
f 206/4/131 204/3/131 203/1/131
f 207/1/132 209/2/132 210/3/132
f 204/4/133 207/3/133 203/1/133
f 205/4/134 208/3/134 204/1/134
f 206/4/135 209/3/135 205/1/135
f 206/1/136 207/2/136 210/3/136
f 211/1/137 213/2/137 212/3/137
f 215/1/138 217/2/138 218/3/138
f 211/1/139 216/2/139 215/3/139
f 212/1/140 217/2/140 216/3/140
f 214/4/141 217/3/141 213/1/141
f 211/4/142 218/3/142 214/1/142
f 222/4/143 220/3/143 219/1/143
f 224/4/144 226/3/144 223/1/144
f 220/4/145 223/3/145 219/1/145
f 220/1/146 225/2/146 224/3/146
f 221/1/147 226/2/147 225/3/147
f 222/1/148 223/2/148 226/3/148
f 229/9/149 228/10/149 232/11/149
f 238/12/150 235/13/150 237/10/150
f 227/1/151 234/2/151 233/3/151
f 229/4/152 234/3/152 228/1/152
f 230/4/153 235/3/153 229/1/153
f 230/1/154 237/2/154 236/3/154
f 231/1/155 238/2/155 237/3/155
f 232/1/156 233/2/156 238/3/156
f 241/18/157 239/19/157 242/20/157
f 243/20/158 245/27/158 246/19/158
f 240/18/159 243/19/159 239/20/159
f 241/18/160 244/19/160 240/20/160
f 242/18/161 245/19/161 241/20/161
f 242/20/162 243/27/162 246/19/162
f 252/40/82 249/31/82 248/28/82
f 255/40/81 256/30/81 259/28/81
f 248/32/83 254/33/83 247/34/83
f 249/32/163 255/33/163 248/34/163
f 250/32/164 256/33/164 249/34/164
f 251/32/86 257/33/86 250/34/86
f 252/32/165 258/33/165 251/34/165
f 253/32/166 259/33/166 252/34/166
f 247/32/167 260/33/167 253/34/167
f 265/41/81 263/42/81 261/43/81
f 267/36/82 269/44/82 271/45/82
f 262/32/83 267/33/83 261/34/83
f 263/32/168 268/33/168 262/34/168
f 264/32/169 269/33/169 263/34/169
f 265/32/170 270/33/170 264/34/170
f 266/32/171 271/33/171 265/34/171
f 261/32/172 272/33/172 266/34/172
f 278/36/81 277/41/81 274/45/81
f 280/41/82 282/42/82 283/45/82
f 274/32/95 279/33/95 273/34/95
f 275/32/96 280/33/96 274/34/96
f 276/32/97 281/33/97 275/34/97
f 277/32/173 282/33/173 276/34/173
f 278/32/174 283/33/174 277/34/174
f 273/32/175 284/33/175 278/34/175
f 288/20/81 286/27/81 285/19/81
f 290/18/82 292/19/82 289/20/82
f 286/18/83 289/19/83 285/20/83
f 287/18/101 290/19/101 286/20/101
f 288/18/102 291/19/102 287/20/102
f 285/18/103 292/19/103 288/20/103
f 296/46/176 294/47/176 293/48/176
f 298/46/83 300/47/83 297/48/83
f 294/46/82 297/47/82 293/48/82
f 295/46/109 298/47/109 294/48/109
f 296/46/81 299/47/81 295/48/81
f 293/46/110 300/47/110 296/48/110
f 301/1/177 303/2/177 302/3/177
f 305/1/178 307/2/178 308/3/178
f 302/4/179 305/3/179 301/1/179
f 303/4/180 306/3/180 302/1/180
f 304/4/181 307/3/181 303/1/181
f 301/4/182 308/3/182 304/1/182
f 312/5/183 310/6/183 309/7/183
f 313/7/184 315/8/184 316/6/184
f 310/5/185 313/6/185 309/7/185
f 310/7/186 315/8/186 314/6/186
f 312/5/187 315/6/187 311/7/187
f 309/5/188 316/6/188 312/7/188
f 320/5/189 318/6/189 317/7/189
f 322/5/190 324/6/190 321/7/190
f 317/7/191 322/8/191 321/6/191
f 318/7/192 323/8/192 322/6/192
f 320/5/193 323/6/193 319/7/193
f 317/5/194 324/6/194 320/7/194
f 328/4/195 326/3/195 325/1/195
f 330/4/196 332/3/196 329/1/196
f 326/4/197 329/3/197 325/1/197
f 326/1/198 331/2/198 330/3/198
f 328/4/199 331/3/199 327/1/199
f 325/4/200 332/3/200 328/1/200
f 333/7/201 335/8/201 334/6/201
f 337/7/202 339/8/202 340/6/202
f 334/5/203 337/6/203 333/7/203
f 335/5/204 338/6/204 334/7/204
f 336/5/205 339/6/205 335/7/205
f 336/7/206 337/8/206 340/6/206
f 344/5/207 342/6/207 341/7/207
f 346/5/208 348/6/208 345/7/208
f 342/5/209 345/6/209 341/7/209
f 343/5/210 346/6/210 342/7/210
f 344/5/211 347/6/211 343/7/211
f 344/7/212 345/8/212 348/6/212
f 352/4/213 350/3/213 349/1/213
f 354/4/214 356/3/214 353/1/214
f 350/4/215 353/3/215 349/1/215
f 351/4/216 354/3/216 350/1/216
f 351/1/217 356/2/217 355/3/217
f 349/4/218 356/3/218 352/1/218
f 360/5/219 358/6/219 357/7/219
f 361/7/220 363/8/220 364/6/220
f 358/5/221 361/6/221 357/7/221
f 359/5/222 362/6/222 358/7/222
f 360/5/223 363/6/223 359/7/223
f 360/7/224 361/8/224 364/6/224
f 368/5/225 366/6/225 365/7/225
f 370/5/226 372/6/226 369/7/226
f 366/5/227 369/6/227 365/7/227
f 367/5/228 370/6/228 366/7/228
f 368/5/229 371/6/229 367/7/229
f 368/7/230 369/8/230 372/6/230
f 376/4/231 374/3/231 373/1/231
f 377/1/232 379/2/232 380/3/232
f 374/4/233 377/3/233 373/1/233
f 375/4/234 378/3/234 374/1/234
f 375/1/235 380/2/235 379/3/235
f 376/1/236 377/2/236 380/3/236
f 384/5/237 382/6/237 381/7/237
f 385/7/238 387/8/238 388/6/238
f 382/5/239 385/6/239 381/7/239
f 383/5/240 386/6/240 382/7/240
f 384/5/241 387/6/241 383/7/241
f 384/7/242 385/8/242 388/6/242
f 389/7/243 391/8/243 390/6/243
f 394/5/244 396/6/244 393/7/244
f 390/5/245 393/6/245 389/7/245
f 390/7/246 395/8/246 394/6/246
f 392/5/247 395/6/247 391/7/247
f 389/5/248 396/6/248 392/7/248
f 400/4/249 398/3/249 397/1/249
f 401/1/250 403/2/250 404/3/250
f 398/4/251 401/3/251 397/1/251
f 398/1/252 403/2/252 402/3/252
f 400/4/253 403/3/253 399/1/253
f 400/1/254 401/2/254 404/3/254
f 408/4/255 406/3/255 405/1/255
f 410/4/256 412/3/256 409/1/256
f 406/4/257 409/3/257 405/1/257
f 406/1/258 411/2/258 410/3/258
f 408/4/259 411/3/259 407/1/259
f 408/1/260 409/2/260 412/3/260
f 416/4/261 414/3/261 413/1/261
f 418/4/262 420/3/262 417/1/262
f 414/4/263 417/3/263 413/1/263
f 414/1/264 419/2/264 418/3/264
f 416/4/265 419/3/265 415/1/265
f 416/1/266 417/2/266 420/3/266
f 423/9/267 422/10/267 426/11/267
f 432/12/268 429/13/268 431/10/268
f 422/4/269 427/3/269 421/1/269
f 423/4/270 428/3/270 422/1/270
f 424/4/271 429/3/271 423/1/271
f 425/4/272 430/3/272 424/1/272
f 426/4/273 431/3/273 425/1/273
f 421/4/274 432/3/274 426/1/274
f 435/18/275 433/19/275 436/20/275
f 437/20/276 439/27/276 440/19/276
f 433/20/277 438/27/277 437/19/277
f 435/18/278 438/19/278 434/20/278
f 435/20/279 440/27/279 439/19/279
f 433/18/280 440/19/280 436/20/280
f 441/34/281 443/39/281 442/33/281
f 445/34/282 447/39/282 448/33/282
f 442/32/283 445/33/283 441/34/283
f 443/32/284 446/33/284 442/34/284
f 444/32/285 447/33/285 443/34/285
f 444/34/286 445/39/286 448/33/286
f 452/32/287 450/33/287 449/34/287
f 454/32/288 456/33/288 453/34/288
f 450/32/289 453/33/289 449/34/289
f 450/34/290 455/39/290 454/33/290
f 452/32/291 455/33/291 451/34/291
f 449/32/292 456/33/292 452/34/292
f 460/46/176 458/47/176 457/48/176
f 462/46/83 464/47/83 461/48/83
f 458/46/82 461/47/82 457/48/82
f 459/46/109 462/47/109 458/48/109
f 460/46/81 463/47/81 459/48/81
f 457/46/110 464/47/110 460/48/110
f 468/5/293 466/6/293 465/7/293
f 470/5/294 472/6/294 469/7/294
f 466/5/295 469/6/295 465/7/295
f 466/7/296 471/8/296 470/6/296
f 468/5/297 471/6/297 467/7/297
f 465/5/298 472/6/298 468/7/298
f 476/5/299 474/6/299 473/7/299
f 478/5/300 480/6/300 477/7/300
f 474/5/301 477/6/301 473/7/301
f 475/5/302 478/6/302 474/7/302
f 476/5/303 479/6/303 475/7/303
f 476/7/304 477/8/304 480/6/304
f 484/5/305 482/6/305 481/7/305
f 486/5/306 488/6/306 485/7/306
f 482/5/307 485/6/307 481/7/307
f 482/7/308 487/8/308 486/6/308
f 484/5/309 487/6/309 483/7/309
f 481/5/310 488/6/310 484/7/310
f 489/7/311 491/8/311 490/6/311
f 493/7/312 495/8/312 496/6/312
f 489/7/313 494/8/313 493/6/313
f 491/5/314 494/6/314 490/7/314
f 492/5/315 495/6/315 491/7/315
f 492/7/316 493/8/316 496/6/316
f 500/5/317 498/6/317 497/7/317
f 502/5/318 504/6/318 501/7/318
f 498/5/319 501/6/319 497/7/319
f 499/5/320 502/6/320 498/7/320
f 500/5/321 503/6/321 499/7/321
f 500/7/322 501/8/322 504/6/322
f 505/7/323 507/8/323 506/6/323
f 510/5/324 512/6/324 509/7/324
f 506/5/325 509/6/325 505/7/325
f 507/5/326 510/6/326 506/7/326
f 507/7/327 512/8/327 511/6/327
f 508/7/328 509/8/328 512/6/328
f 517/49/329 516/13/329 515/9/329
f 524/12/330 521/13/330 523/10/330
f 514/4/331 519/3/331 513/1/331
f 514/1/332 521/2/332 520/3/332
f 516/4/333 521/3/333 515/1/333
f 517/4/334 522/3/334 516/1/334
f 518/4/335 523/3/335 517/1/335
f 513/4/336 524/3/336 518/1/336
f 527/9/337 526/10/337 530/11/337
f 536/12/338 533/13/338 535/10/338
f 526/4/339 531/3/339 525/1/339
f 526/1/340 533/2/340 532/3/340
f 528/4/341 533/3/341 527/1/341
f 529/4/342 534/3/342 528/1/342
f 530/4/343 535/3/343 529/1/343
f 525/4/344 536/3/344 530/1/344
f 537/7/345 539/8/345 538/6/345
f 541/7/346 543/8/346 544/6/346
f 538/5/347 541/6/347 537/7/347
f 538/7/348 543/8/348 542/6/348
f 540/5/349 543/6/349 539/7/349
f 537/5/350 544/6/350 540/7/350
f 545/7/345 547/8/345 546/6/345
f 550/5/351 552/6/351 549/7/351
f 546/5/347 549/6/347 545/7/347
f 546/7/348 551/8/348 550/6/348
f 548/5/349 551/6/349 547/7/349
f 548/7/350 549/8/350 552/6/350
f 553/7/345 555/8/345 554/6/345
f 557/7/346 559/8/346 560/6/346
f 554/5/347 557/6/347 553/7/347
f 554/7/348 559/8/348 558/6/348
f 556/5/349 559/6/349 555/7/349
f 553/5/350 560/6/350 556/7/350
f 561/7/345 563/8/345 562/6/345
f 566/5/351 568/6/351 565/7/351
f 562/5/347 565/6/347 561/7/347
f 562/7/348 567/8/348 566/6/348
f 564/5/349 567/6/349 563/7/349
f 561/5/350 568/6/350 564/7/350
f 578/50/352 579/51/352 576/52/352
f 569/53/353 576/54/353 575/55/353
f 570/53/354 577/54/354 576/55/354
f 571/53/355 578/54/355 577/55/355
f 572/53/356 579/54/356 578/55/356
f 573/53/357 580/54/357 579/55/357
f 574/53/358 575/54/358 580/55/358
f 588/56/359 589/57/359 590/58/359
f 581/53/360 587/54/360 586/55/360
f 582/53/361 588/54/361 587/55/361
f 584/59/362 588/55/362 583/53/362
f 584/53/363 590/54/363 589/55/363
f 585/53/364 586/54/364 590/55/364
f 597/60/365 598/61/365 599/62/365
f 591/63/366 597/64/366 596/65/366
f 592/63/367 598/64/367 597/65/367
f 593/63/368 599/64/368 598/65/368
f 594/63/369 600/64/369 599/65/369
f 595/63/370 596/64/370 600/65/370
f 608/61/371 609/62/371 610/66/371
f 602/67/372 606/65/372 601/63/372
f 603/67/373 607/65/373 602/63/373
f 604/67/374 608/65/374 603/63/374
f 605/67/375 609/65/375 604/63/375
f 601/67/376 610/65/376 605/63/376
f 622/68/377 623/69/377 619/70/377
f 611/1/378 619/2/378 618/3/378
f 612/1/379 620/2/379 619/3/379
f 613/1/380 621/2/380 620/3/380
f 614/1/381 622/2/381 621/3/381
f 615/1/382 623/2/382 622/3/382
f 616/1/383 624/2/383 623/3/383
f 617/1/384 618/2/384 624/3/384
f 636/71/385 637/72/385 638/73/385
f 625/53/386 633/54/386 632/55/386
f 626/53/387 634/54/387 633/55/387
f 627/53/388 635/54/388 634/55/388
f 628/53/389 636/54/389 635/55/389
f 629/53/390 637/54/390 636/55/390
f 630/53/391 638/54/391 637/55/391
f 631/53/392 632/54/392 638/55/392
f 650/24/393 647/25/393 649/22/393
f 639/20/394 646/27/394 645/19/394
f 640/20/395 647/27/395 646/19/395
f 641/20/396 648/27/396 647/19/396
f 642/20/397 649/27/397 648/19/397
f 643/20/398 650/27/398 649/19/398
f 644/20/399 645/27/399 650/19/399
f 657/74/400 659/75/400 660/76/400
f 651/20/401 657/27/401 656/19/401
f 653/18/402 657/19/402 652/20/402
f 653/20/403 659/27/403 658/19/403
f 654/20/404 660/27/404 659/19/404
f 651/18/405 660/19/405 655/20/405
f 670/50/406 671/51/406 672/77/406
f 661/53/407 668/54/407 667/55/407
f 662/53/408 669/54/408 668/55/408
f 663/53/409 670/54/409 669/55/409
f 664/53/410 671/54/410 670/55/410
f 665/53/411 672/54/411 671/55/411
f 666/53/412 667/54/412 672/55/412
f 680/61/413 681/62/413 682/66/413
f 674/67/414 678/65/414 673/63/414
f 675/67/415 679/65/415 674/63/415
f 676/67/416 680/65/416 675/63/416
f 677/67/417 681/65/417 676/63/417
f 673/67/418 682/65/418 677/63/418
f 689/60/419 691/62/419 692/66/419
f 683/63/420 689/64/420 688/65/420
f 684/63/421 690/64/421 689/65/421
f 685/63/422 691/64/422 690/65/422
f 686/63/423 692/64/423 691/65/423
f 687/63/424 688/64/424 692/65/424
f 700/61/425 701/62/425 702/66/425
f 693/63/426 699/64/426 698/65/426
f 694/63/427 700/64/427 699/65/427
f 695/63/428 701/64/428 700/65/428
f 696/63/429 702/64/429 701/65/429
f 697/63/430 698/64/430 702/65/430
f 714/71/431 715/72/431 716/73/431
f 703/53/432 711/54/432 710/55/432
f 704/53/433 712/54/433 711/55/433
f 705/53/434 713/54/434 712/55/434
f 706/53/435 714/54/435 713/55/435
f 707/53/436 715/54/436 714/55/436
f 708/53/437 716/54/437 715/55/437
f 709/53/438 710/54/438 716/55/438
f 723/78/439 724/56/439 725/57/439
f 717/53/440 723/54/440 722/55/440
f 718/53/441 724/54/441 723/55/441
f 719/53/442 725/54/442 724/55/442
f 720/53/443 726/54/443 725/55/443
f 721/53/444 722/54/444 726/55/444
f 736/50/445 737/51/445 738/77/445
f 727/53/446 734/54/446 733/55/446
f 728/53/447 735/54/447 734/55/447
f 729/53/448 736/54/448 735/55/448
f 730/53/449 737/54/449 736/55/449
f 731/53/450 738/54/450 737/55/450
f 732/53/451 733/54/451 738/55/451
f 749/22/452 750/24/452 746/26/452
f 739/20/453 746/27/453 745/19/453
f 740/20/454 747/27/454 746/19/454
f 741/20/455 748/27/455 747/19/455
f 742/20/456 749/27/456 748/19/456
f 743/20/457 750/27/457 749/19/457
f 744/20/458 745/27/458 750/19/458
f 760/9/459 761/10/459 762/12/459
f 752/4/460 757/3/460 751/1/460
f 753/4/461 758/3/461 752/1/461
f 754/4/462 759/3/462 753/1/462
f 755/4/463 760/3/463 754/1/463
f 756/4/464 761/3/464 755/1/464
f 751/4/465 762/3/465 756/1/465
f 769/79/466 771/80/466 772/81/466
f 763/1/467 769/2/467 768/3/467
f 764/1/468 770/2/468 769/3/468
f 765/1/469 771/2/469 770/3/469
f 766/1/470 772/2/470 771/3/470
f 763/4/471 772/3/471 767/1/471
f 785/72/472 786/73/472 783/82/472
f 774/59/473 780/55/473 773/53/473
f 775/59/474 781/55/474 774/53/474
f 776/59/475 782/55/475 775/53/475
f 777/59/476 783/55/476 776/53/476
f 778/59/477 784/55/477 777/53/477
f 779/59/478 785/55/478 778/53/478
f 773/59/479 786/55/479 779/53/479
f 794/61/480 795/62/480 796/66/480
f 787/63/481 793/64/481 792/65/481
f 789/67/482 793/65/482 788/63/482
f 789/63/483 795/64/483 794/65/483
f 791/67/484 795/65/484 790/63/484
f 787/67/485 796/65/485 791/63/485
f 809/69/486 810/83/486 807/84/486
f 797/1/487 805/2/487 804/3/487
f 798/1/488 806/2/488 805/3/488
f 799/1/489 807/2/489 806/3/489
f 800/1/490 808/2/490 807/3/490
f 801/1/491 809/2/491 808/3/491
f 802/1/492 810/2/492 809/3/492
f 803/1/493 804/2/493 810/3/493
f 818/85/494 819/80/494 820/81/494
f 811/1/495 817/2/495 816/3/495
f 813/4/496 817/3/496 812/1/496
f 814/4/497 818/3/497 813/1/497
f 814/1/498 820/2/498 819/3/498
f 811/4/499 820/3/499 815/1/499
f 827/79/500 828/85/500 829/80/500
f 821/1/501 827/2/501 826/3/501
f 822/1/502 828/2/502 827/3/502
f 823/1/503 829/2/503 828/3/503
f 824/1/504 830/2/504 829/3/504
f 825/1/505 826/2/505 830/3/505
f 840/86/506 841/87/506 837/88/506
f 832/67/507 837/65/507 831/63/507
f 833/67/508 838/65/508 832/63/508
f 834/67/509 839/65/509 833/63/509
f 835/67/510 840/65/510 834/63/510
f 836/67/511 841/65/511 835/63/511
f 831/67/512 842/65/512 836/63/512
f 855/72/513 856/73/513 853/82/513
f 843/53/514 851/54/514 850/55/514
f 844/53/515 852/54/515 851/55/515
f 845/53/516 853/54/516 852/55/516
f 846/53/517 854/54/517 853/55/517
f 847/53/518 855/54/518 854/55/518
f 848/53/519 856/54/519 855/55/519
f 849/53/520 850/54/520 856/55/520
f 869/72/521 870/73/521 866/89/521
f 857/53/522 865/54/522 864/55/522
f 858/53/523 866/54/523 865/55/523
f 859/53/524 867/54/524 866/55/524
f 860/53/525 868/54/525 867/55/525
f 861/53/526 869/54/526 868/55/526
f 862/53/527 870/54/527 869/55/527
f 863/53/528 864/54/528 870/55/528
f 880/50/529 881/51/529 877/90/529
f 872/59/530 877/55/530 871/53/530
f 872/53/531 879/54/531 878/55/531
f 873/53/532 880/54/532 879/55/532
f 875/59/533 880/55/533 874/53/533
f 876/59/534 881/55/534 875/53/534
f 876/53/535 877/54/535 882/55/535
f 894/91/536 895/92/536 896/93/536
f 884/67/537 890/65/537 883/63/537
f 885/67/538 891/65/538 884/63/538
f 885/63/539 893/64/539 892/65/539
f 887/67/540 893/65/540 886/63/540
f 888/67/541 894/65/541 887/63/541
f 889/67/542 895/65/542 888/63/542
f 889/63/543 890/64/543 896/65/543
f 906/86/544 907/87/544 908/94/544
f 897/63/545 904/64/545 903/65/545
f 898/63/546 905/64/546 904/65/546
f 899/63/547 906/64/547 905/65/547
f 900/63/548 907/64/548 906/65/548
f 901/63/549 908/64/549 907/65/549
f 902/63/550 903/64/550 908/65/550
f 917/95/551 919/96/551 921/92/551
f 909/63/552 917/64/552 916/65/552
f 910/63/553 918/64/553 917/65/553
f 911/63/554 919/64/554 918/65/554
f 912/63/555 920/64/555 919/65/555
f 913/63/556 921/64/556 920/65/556
f 914/63/557 922/64/557 921/65/557
f 915/63/558 916/64/558 922/65/558
f 934/77/559 931/97/559 933/51/559
f 923/53/560 930/54/560 929/55/560
f 924/53/561 931/54/561 930/55/561
f 925/53/562 932/54/562 931/55/562
f 926/53/563 933/54/563 932/55/563
f 927/53/564 934/54/564 933/55/564
f 928/53/565 929/54/565 934/55/565
f 947/69/566 948/83/566 944/98/566
f 935/1/567 943/2/567 942/3/567
f 936/1/568 944/2/568 943/3/568
f 937/1/569 945/2/569 944/3/569
f 938/1/570 946/2/570 945/3/570
f 939/1/571 947/2/571 946/3/571
f 940/1/572 948/2/572 947/3/572
f 941/1/573 942/2/573 948/3/573
f 952/4/574 950/3/574 949/1/574
f 954/4/575 956/3/575 953/1/575
f 949/1/576 954/2/576 953/3/576
f 951/4/577 954/3/577 950/1/577
f 951/1/578 956/2/578 955/3/578
f 949/4/579 956/3/579 952/1/579
f 960/4/580 958/3/580 957/1/580
f 962/4/581 964/3/581 961/1/581
f 957/1/582 962/2/582 961/3/582
f 959/4/583 962/3/583 958/1/583
f 959/1/584 964/2/584 963/3/584
f 960/1/585 961/2/585 964/3/585
f 1/1/1 4/4/1 3/2/1
f 6/4/2 7/2/2 8/3/2
f 1/1/3 2/4/3 6/2/3
f 3/4/4 7/2/4 6/3/4
f 4/4/5 8/2/5 7/3/5
f 1/4/6 5/2/6 8/3/6
f 12/5/7 11/8/7 10/6/7
f 13/7/8 14/5/8 15/8/8
f 10/5/9 14/8/9 13/6/9
f 10/7/10 11/5/10 15/8/10
f 12/5/586 16/8/586 15/6/586
f 9/5/12 13/8/12 16/6/12
f 20/5/587 19/8/587 18/6/587
f 21/7/588 22/5/588 23/8/588
f 18/5/15 22/8/15 21/6/15
f 18/7/16 19/5/16 23/8/16
f 20/5/17 24/8/17 23/6/17
f 17/5/18 21/8/18 24/6/18
f 28/4/19 27/2/19 26/3/19
f 29/1/20 30/4/20 31/2/20
f 25/1/21 26/4/21 30/2/21
f 27/4/22 31/2/22 30/3/22
f 28/4/23 32/2/23 31/3/23
f 25/4/24 29/2/24 32/3/24
f 36/4/25 35/2/25 34/3/25
f 37/1/26 38/4/26 39/2/26
f 34/4/27 38/2/27 37/3/27
f 35/4/28 39/2/28 38/3/28
f 36/4/29 40/2/29 39/3/29
f 33/4/30 37/2/30 40/3/30
f 44/4/31 43/2/31 42/3/31
f 45/1/32 46/4/32 47/2/32
f 42/4/33 46/2/33 45/3/33
f 43/4/34 47/2/34 46/3/34
f 44/4/35 48/2/35 47/3/35
f 41/4/36 45/2/36 48/3/36
f 49/1/37 52/4/37 51/2/37
f 54/4/38 55/2/38 56/3/38
f 50/4/39 54/2/39 53/3/39
f 51/4/40 55/2/40 54/3/40
f 51/1/41 52/4/41 56/2/41
f 49/4/42 53/2/42 56/3/42
f 60/4/43 59/2/43 58/3/43
f 61/1/44 62/4/44 63/2/44
f 58/4/45 62/2/45 61/3/45
f 59/4/46 63/2/46 62/3/46
f 60/4/47 64/2/47 63/3/47
f 57/4/48 61/2/48 64/3/48
f 65/1/49 68/4/49 67/2/49
f 69/1/50 70/4/50 71/2/50
f 66/4/51 70/2/51 69/3/51
f 67/4/52 71/2/52 70/3/52
f 67/1/53 68/4/53 72/2/53
f 68/1/54 65/4/54 69/2/54
f 73/1/55 76/4/55 75/2/55
f 78/4/56 79/2/56 80/3/56
f 74/4/57 78/2/57 77/3/57
f 74/1/58 75/4/58 79/2/58
f 76/4/59 80/2/59 79/3/59
f 73/4/60 77/2/60 80/3/60
f 81/1/61 84/4/61 83/2/61
f 86/4/62 87/2/62 88/3/62
f 81/1/63 82/4/63 86/2/63
f 82/1/64 83/4/64 87/2/64
f 83/1/65 84/4/65 88/2/65
f 84/1/66 81/4/66 85/2/66
f 89/1/67 92/4/67 91/2/67
f 93/1/68 94/4/68 95/2/68
f 89/1/69 90/4/69 94/2/69
f 91/4/70 95/2/70 94/3/70
f 92/4/71 96/2/71 95/3/71
f 92/1/72 89/4/72 93/2/72
f 97/12/73 102/11/73 98/10/73
f 102/11/73 101/49/73 99/9/73
f 101/49/73 100/13/73 99/9/73
f 108/12/74 103/11/74 104/49/74
f 104/49/74 105/13/74 108/12/74
f 105/13/74 106/9/74 107/10/74
f 98/4/75 104/2/75 103/3/75
f 99/4/76 105/2/76 104/3/76
f 100/4/589 106/2/589 105/3/589
f 101/4/78 107/2/78 106/3/78
f 102/4/79 108/2/79 107/3/79
f 102/1/80 97/4/80 103/2/80
f 109/16/81 115/23/81 111/14/81
f 115/23/81 114/99/81 113/17/81
f 111/14/81 115/23/81 113/17/81
f 113/17/81 112/100/81 111/14/81
f 122/16/82 116/23/82 118/17/82
f 116/23/82 117/99/82 118/17/82
f 118/17/82 119/100/82 120/14/82
f 120/14/82 121/15/82 122/16/82
f 110/18/83 117/27/83 116/19/83
f 111/18/84 118/27/84 117/19/84
f 112/18/85 119/27/85 118/19/85
f 113/18/86 120/27/86 119/19/86
f 114/18/87 121/27/87 120/19/87
f 115/18/88 122/27/88 121/19/88
f 109/18/89 116/27/89 122/19/89
f 123/24/81 128/23/81 124/22/81
f 128/23/81 127/26/81 125/21/81
f 127/26/81 126/25/81 125/21/81
f 134/24/82 129/23/82 130/26/82
f 130/26/82 131/25/82 134/24/82
f 131/25/82 132/21/82 133/22/82
f 124/18/83 130/27/83 129/19/83
f 125/18/90 131/27/90 130/19/90
f 126/18/91 132/27/91 131/19/91
f 127/18/92 133/27/92 132/19/92
f 128/18/93 134/27/93 133/19/93
f 123/18/94 129/27/94 134/19/94
f 140/23/81 139/26/81 136/22/81
f 139/26/81 138/25/81 136/22/81
f 138/25/81 137/21/81 136/22/81
f 146/24/82 141/23/82 142/26/82
f 142/26/82 143/25/82 144/21/82
f 144/21/82 145/22/82 142/26/82
f 136/18/95 142/27/95 141/19/95
f 137/18/96 143/27/96 142/19/96
f 138/18/97 144/27/97 143/19/97
f 139/18/98 145/27/98 144/19/98
f 140/18/99 146/27/99 145/19/99
f 135/18/100 141/27/100 146/19/100
f 150/20/81 149/18/81 148/27/81
f 152/18/82 153/27/82 154/19/82
f 148/18/83 152/27/83 151/19/83
f 149/18/101 153/27/101 152/19/101
f 150/18/102 154/27/102 153/19/102
f 147/18/103 151/27/103 154/19/103
f 155/29/81 161/36/81 159/30/81
f 161/36/81 160/40/81 159/30/81
f 159/30/81 158/101/81 157/31/81
f 157/31/81 156/28/81 159/30/81
f 168/29/82 162/36/82 166/31/82
f 162/36/82 163/40/82 166/31/82
f 163/40/82 164/30/82 166/31/82
f 164/30/82 165/101/82 166/31/82
f 156/32/83 163/39/83 162/33/83
f 157/32/104 164/39/104 163/33/104
f 158/32/105 165/39/105 164/33/105
f 159/32/106 166/39/106 165/33/106
f 160/32/107 167/39/107 166/33/107
f 161/32/108 168/39/108 167/33/108
f 155/32/109 162/39/109 168/33/109
f 169/38/81 173/36/81 170/35/81
f 173/36/81 172/102/81 171/37/81
f 178/38/82 174/36/82 175/102/82
f 175/102/82 176/37/82 178/38/82
f 170/32/83 175/39/83 174/33/83
f 171/32/110 176/39/110 175/33/110
f 172/32/105 177/39/105 176/33/105
f 173/32/111 178/39/111 177/33/111
f 169/32/112 174/39/112 178/33/112
f 182/32/113 181/39/113 180/33/113
f 183/34/114 184/32/114 185/39/114
f 180/32/115 184/39/115 183/33/115
f 181/32/116 185/39/116 184/33/116
f 182/32/117 186/39/117 185/33/117
f 179/32/118 183/39/118 186/33/118
f 190/32/119 189/39/119 188/33/119
f 192/32/120 193/39/120 194/33/120
f 188/32/121 192/39/121 191/33/121
f 189/32/122 193/39/122 192/33/122
f 190/32/123 194/39/123 193/33/123
f 187/32/124 191/39/124 194/33/124
f 198/4/125 197/2/125 196/3/125
f 200/4/126 201/2/126 202/3/126
f 195/1/127 196/4/127 200/2/127
f 197/4/128 201/2/128 200/3/128
f 198/4/129 202/2/129 201/3/129
f 195/4/130 199/2/130 202/3/130
f 206/4/131 205/2/131 204/3/131
f 207/1/132 208/4/132 209/2/132
f 204/4/133 208/2/133 207/3/133
f 205/4/134 209/2/134 208/3/134
f 206/4/135 210/2/135 209/3/135
f 206/1/136 203/4/136 207/2/136
f 211/1/137 214/4/137 213/2/137
f 215/1/138 216/4/138 217/2/138
f 211/1/139 212/4/139 216/2/139
f 212/1/140 213/4/140 217/2/140
f 214/4/141 218/2/141 217/3/141
f 211/4/142 215/2/142 218/3/142
f 222/4/143 221/2/143 220/3/143
f 224/4/144 225/2/144 226/3/144
f 220/4/145 224/2/145 223/3/145
f 220/1/146 221/4/146 225/2/146
f 221/1/147 222/4/147 226/2/147
f 222/1/148 219/4/148 223/2/148
f 227/12/149 232/11/149 228/10/149
f 232/11/149 231/49/149 229/9/149
f 231/49/149 230/13/149 229/9/149
f 238/12/150 233/11/150 234/49/150
f 234/49/150 235/13/150 238/12/150
f 235/13/150 236/9/150 237/10/150
f 227/1/151 228/4/151 234/2/151
f 229/4/152 235/2/152 234/3/152
f 230/4/153 236/2/153 235/3/153
f 230/1/154 231/4/154 237/2/154
f 231/1/155 232/4/155 238/2/155
f 232/1/156 227/4/156 233/2/156
f 241/18/590 240/27/590 239/19/590
f 243/20/158 244/18/158 245/27/158
f 240/18/159 244/27/159 243/19/159
f 241/18/160 245/27/160 244/19/160
f 242/18/161 246/27/161 245/19/161
f 242/20/162 239/18/162 243/27/162
f 247/29/81 253/36/81 248/28/81
f 253/36/81 252/40/81 248/28/81
f 252/40/81 251/30/81 250/101/81
f 252/40/81 250/101/81 249/31/81
f 260/29/82 254/36/82 255/40/82
f 256/30/82 257/101/82 259/28/82
f 257/101/82 258/31/82 259/28/82
f 259/28/82 260/29/82 255/40/82
f 248/32/83 255/39/83 254/33/83
f 249/32/163 256/39/163 255/33/163
f 250/32/164 257/39/164 256/33/164
f 251/32/86 258/39/86 257/33/86
f 252/32/165 259/39/165 258/33/165
f 253/32/166 260/39/166 259/33/166
f 247/32/167 254/39/167 260/33/167
f 261/43/81 266/36/81 265/41/81
f 265/41/81 264/44/81 263/42/81
f 263/42/81 262/45/81 261/43/81
f 267/36/82 268/41/82 269/44/82
f 269/44/82 270/42/82 271/45/82
f 271/45/82 272/43/82 267/36/82
f 262/32/83 268/39/83 267/33/83
f 263/32/168 269/39/168 268/33/168
f 264/32/169 270/39/169 269/33/169
f 265/32/170 271/39/170 270/33/170
f 266/32/171 272/39/171 271/33/171
f 261/32/172 267/39/172 272/33/172
f 277/41/81 276/44/81 274/45/81
f 276/44/81 275/42/81 274/45/81
f 274/45/81 273/43/81 278/36/81
f 284/43/82 279/36/82 280/41/82
f 280/41/82 281/44/82 282/42/82
f 283/45/82 284/43/82 280/41/82
f 274/32/95 280/39/95 279/33/95
f 275/32/96 281/39/96 280/33/96
f 276/32/97 282/39/97 281/33/97
f 277/32/173 283/39/173 282/33/173
f 278/32/174 284/39/174 283/33/174
f 273/32/175 279/39/175 284/33/175
f 288/20/81 287/18/81 286/27/81
f 290/18/82 291/27/82 292/19/82
f 286/18/83 290/27/83 289/19/83
f 287/18/101 291/27/101 290/19/101
f 288/18/102 292/27/102 291/19/102
f 285/18/103 289/27/103 292/19/103
f 296/46/176 295/103/176 294/47/176
f 298/46/83 299/103/83 300/47/83
f 294/46/82 298/103/82 297/47/82
f 295/46/109 299/103/109 298/47/109
f 296/46/81 300/103/81 299/47/81
f 293/46/110 297/103/110 300/47/110
f 301/1/177 304/4/177 303/2/177
f 305/1/178 306/4/178 307/2/178
f 302/4/179 306/2/179 305/3/179
f 303/4/180 307/2/180 306/3/180
f 304/4/181 308/2/181 307/3/181
f 301/4/182 305/2/182 308/3/182
f 312/5/591 311/8/591 310/6/591
f 313/7/184 314/5/184 315/8/184
f 310/5/185 314/8/185 313/6/185
f 310/7/186 311/5/186 315/8/186
f 312/5/592 316/8/592 315/6/592
f 309/5/188 313/8/188 316/6/188
f 320/5/189 319/8/189 318/6/189
f 322/5/593 323/8/593 324/6/593
f 317/7/191 318/5/191 322/8/191
f 318/7/192 319/5/192 323/8/192
f 320/5/193 324/8/193 323/6/193
f 317/5/194 321/8/194 324/6/194
f 328/4/195 327/2/195 326/3/195
f 330/4/196 331/2/196 332/3/196
f 326/4/197 330/2/197 329/3/197
f 326/1/198 327/4/198 331/2/198
f 328/4/199 332/2/199 331/3/199
f 325/4/200 329/2/200 332/3/200
f 333/7/201 336/5/201 335/8/201
f 337/7/202 338/5/202 339/8/202
f 334/5/203 338/8/203 337/6/203
f 335/5/204 339/8/204 338/6/204
f 336/5/205 340/8/205 339/6/205
f 336/7/206 333/5/206 337/8/206
f 344/5/594 343/8/594 342/6/594
f 346/5/595 347/8/595 348/6/595
f 342/5/209 346/8/209 345/6/209
f 343/5/210 347/8/210 346/6/210
f 344/5/211 348/8/211 347/6/211
f 344/7/212 341/5/212 345/8/212
f 352/4/213 351/2/213 350/3/213
f 354/4/214 355/2/214 356/3/214
f 350/4/215 354/2/215 353/3/215
f 351/4/216 355/2/216 354/3/216
f 351/1/217 352/4/217 356/2/217
f 349/4/218 353/2/218 356/3/218
f 360/5/219 359/8/219 358/6/219
f 361/7/220 362/5/220 363/8/220
f 358/5/221 362/8/221 361/6/221
f 359/5/596 363/8/596 362/6/596
f 360/5/223 364/8/223 363/6/223
f 360/7/224 357/5/224 361/8/224
f 368/5/225 367/8/225 366/6/225
f 370/5/226 371/8/226 372/6/226
f 366/5/227 370/8/227 369/6/227
f 367/5/228 371/8/228 370/6/228
f 368/5/229 372/8/229 371/6/229
f 368/7/230 365/5/230 369/8/230
f 376/4/231 375/2/231 374/3/231
f 377/1/232 378/4/232 379/2/232
f 374/4/233 378/2/233 377/3/233
f 375/4/234 379/2/234 378/3/234
f 375/1/235 376/4/235 380/2/235
f 376/1/236 373/4/236 377/2/236
f 384/5/237 383/8/237 382/6/237
f 385/7/597 386/5/597 387/8/597
f 382/5/239 386/8/239 385/6/239
f 383/5/598 387/8/598 386/6/598
f 384/5/241 388/8/241 387/6/241
f 384/7/599 381/5/599 385/8/599
f 389/7/243 392/5/243 391/8/243
f 394/5/244 395/8/244 396/6/244
f 390/5/600 394/8/600 393/6/600
f 390/7/246 391/5/246 395/8/246
f 392/5/247 396/8/247 395/6/247
f 389/5/248 393/8/248 396/6/248
f 400/4/249 399/2/249 398/3/249
f 401/1/250 402/4/250 403/2/250
f 398/4/251 402/2/251 401/3/251
f 398/1/252 399/4/252 403/2/252
f 400/4/253 404/2/253 403/3/253
f 400/1/254 397/4/254 401/2/254
f 408/4/255 407/2/255 406/3/255
f 410/4/256 411/2/256 412/3/256
f 406/4/257 410/2/257 409/3/257
f 406/1/258 407/4/258 411/2/258
f 408/4/259 412/2/259 411/3/259
f 408/1/260 405/4/260 409/2/260
f 416/4/261 415/2/261 414/3/261
f 418/4/262 419/2/262 420/3/262
f 414/4/263 418/2/263 417/3/263
f 414/1/264 415/4/264 419/2/264
f 416/4/265 420/2/265 419/3/265
f 416/1/266 413/4/266 417/2/266
f 421/12/267 426/11/267 422/10/267
f 426/11/267 425/49/267 423/9/267
f 425/49/267 424/13/267 423/9/267
f 432/12/268 427/11/268 428/49/268
f 428/49/268 429/13/268 432/12/268
f 429/13/268 430/9/268 431/10/268
f 422/4/269 428/2/269 427/3/269
f 423/4/270 429/2/270 428/3/270
f 424/4/271 430/2/271 429/3/271
f 425/4/272 431/2/272 430/3/272
f 426/4/273 432/2/273 431/3/273
f 421/4/274 427/2/274 432/3/274
f 435/18/275 434/27/275 433/19/275
f 437/20/276 438/18/276 439/27/276
f 433/20/601 434/18/601 438/27/601
f 435/18/278 439/27/278 438/19/278
f 435/20/279 436/18/279 440/27/279
f 433/18/280 437/27/280 440/19/280
f 441/34/281 444/32/281 443/39/281
f 445/34/282 446/32/282 447/39/282
f 442/32/283 446/39/283 445/33/283
f 443/32/284 447/39/284 446/33/284
f 444/32/285 448/39/285 447/33/285
f 444/34/286 441/32/286 445/39/286
f 452/32/287 451/39/287 450/33/287
f 454/32/288 455/39/288 456/33/288
f 450/32/289 454/39/289 453/33/289
f 450/34/290 451/32/290 455/39/290
f 452/32/291 456/39/291 455/33/291
f 449/32/292 453/39/292 456/33/292
f 460/46/176 459/103/176 458/47/176
f 462/46/83 463/103/83 464/47/83
f 458/46/82 462/103/82 461/47/82
f 459/46/109 463/103/109 462/47/109
f 460/46/81 464/103/81 463/47/81
f 457/46/110 461/103/110 464/47/110
f 468/5/293 467/8/293 466/6/293
f 470/5/294 471/8/294 472/6/294
f 466/5/295 470/8/295 469/6/295
f 466/7/296 467/5/296 471/8/296
f 468/5/297 472/8/297 471/6/297
f 465/5/298 469/8/298 472/6/298
f 476/5/299 475/8/299 474/6/299
f 478/5/300 479/8/300 480/6/300
f 474/5/301 478/8/301 477/6/301
f 475/5/302 479/8/302 478/6/302
f 476/5/303 480/8/303 479/6/303
f 476/7/304 473/5/304 477/8/304
f 484/5/305 483/8/305 482/6/305
f 486/5/306 487/8/306 488/6/306
f 482/5/307 486/8/307 485/6/307
f 482/7/308 483/5/308 487/8/308
f 484/5/309 488/8/309 487/6/309
f 481/5/310 485/8/310 488/6/310
f 489/7/602 492/5/602 491/8/602
f 493/7/603 494/5/603 495/8/603
f 489/7/313 490/5/313 494/8/313
f 491/5/314 495/8/314 494/6/314
f 492/5/315 496/8/315 495/6/315
f 492/7/316 489/5/316 493/8/316
f 500/5/604 499/8/604 498/6/604
f 502/5/318 503/8/318 504/6/318
f 498/5/319 502/8/319 501/6/319
f 499/5/320 503/8/320 502/6/320
f 500/5/321 504/8/321 503/6/321
f 500/7/322 497/5/322 501/8/322
f 505/7/323 508/5/323 507/8/323
f 510/5/324 511/8/324 512/6/324
f 506/5/325 510/8/325 509/6/325
f 507/5/326 511/8/326 510/6/326
f 507/7/605 508/5/605 512/8/605
f 508/7/328 505/5/328 509/8/328
f 513/12/329 518/11/329 514/10/329
f 518/11/329 517/49/329 515/9/329
f 514/10/329 518/11/329 515/9/329
f 524/12/330 519/11/330 520/49/330
f 520/49/330 521/13/330 524/12/330
f 521/13/330 522/9/330 523/10/330
f 514/4/331 520/2/331 519/3/331
f 514/1/332 515/4/332 521/2/332
f 516/4/333 522/2/333 521/3/333
f 517/4/334 523/2/334 522/3/334
f 518/4/335 524/2/335 523/3/335
f 513/4/606 519/2/606 524/3/606
f 525/12/337 530/11/337 526/10/337
f 530/11/337 529/49/337 527/9/337
f 529/49/337 528/13/337 527/9/337
f 536/12/338 531/11/338 532/49/338
f 532/49/338 533/13/338 536/12/338
f 533/13/338 534/9/338 535/10/338
f 526/4/339 532/2/339 531/3/339
f 526/1/340 527/4/340 533/2/340
f 528/4/341 534/2/341 533/3/341
f 529/4/342 535/2/342 534/3/342
f 530/4/343 536/2/343 535/3/343
f 525/4/344 531/2/344 536/3/344
f 537/7/345 540/5/345 539/8/345
f 541/7/351 542/5/351 543/8/351
f 538/5/347 542/8/347 541/6/347
f 538/7/348 539/5/348 543/8/348
f 540/5/349 544/8/349 543/6/349
f 537/5/350 541/8/350 544/6/350
f 545/7/345 548/5/345 547/8/345
f 550/5/346 551/8/346 552/6/346
f 546/5/347 550/8/347 549/6/347
f 546/7/348 547/5/348 551/8/348
f 548/5/349 552/8/349 551/6/349
f 548/7/350 545/5/350 549/8/350
f 553/7/345 556/5/345 555/8/345
f 557/7/351 558/5/351 559/8/351
f 554/5/347 558/8/347 557/6/347
f 554/7/348 555/5/348 559/8/348
f 556/5/349 560/8/349 559/6/349
f 553/5/350 557/8/350 560/6/350
f 561/7/345 564/5/345 563/8/345
f 566/5/351 567/8/351 568/6/351
f 562/5/347 566/8/347 565/6/347
f 562/7/348 563/5/348 567/8/348
f 564/5/349 568/8/349 567/6/349
f 561/5/350 565/8/350 568/6/350
f 580/77/607 575/90/607 579/51/607
f 575/90/608 576/52/608 579/51/608
f 576/52/609 577/97/609 578/50/609
f 569/53/610 570/59/610 576/54/610
f 570/53/611 571/59/611 577/54/611
f 571/53/612 572/59/612 578/54/612
f 572/53/613 573/59/613 579/54/613
f 573/53/614 574/59/614 580/54/614
f 574/53/615 569/59/615 575/54/615
f 590/58/616 586/90/616 587/78/616
f 587/78/617 588/56/617 590/58/617
f 581/53/618 582/59/618 587/54/618
f 582/53/619 583/59/619 588/54/619
f 584/59/620 589/54/620 588/55/620
f 584/53/621 585/59/621 590/54/621
f 585/53/622 581/59/622 586/54/622
f 600/66/623 596/88/623 599/62/623
f 596/88/624 597/60/624 599/62/624
f 591/63/625 592/67/625 597/64/625
f 592/63/626 593/67/626 598/64/626
f 593/63/627 594/67/627 599/64/627
f 594/63/628 595/67/628 600/64/628
f 595/63/629 591/67/629 596/64/629
f 610/66/630 606/88/630 607/60/630
f 607/60/631 608/61/631 610/66/631
f 602/67/632 607/64/632 606/65/632
f 603/67/633 608/64/633 607/65/633
f 604/67/634 609/64/634 608/65/634
f 605/67/635 610/64/635 609/65/635
f 601/67/636 606/64/636 610/65/636
f 624/83/637 618/11/637 623/69/637
f 618/11/638 619/70/638 623/69/638
f 619/70/639 620/98/639 622/68/639
f 620/98/640 621/84/640 622/68/640
f 611/1/641 612/4/641 619/2/641
f 612/1/642 613/4/642 620/2/642
f 613/1/643 614/4/643 621/2/643
f 614/1/644 615/4/644 622/2/644
f 615/1/645 616/4/645 623/2/645
f 616/1/646 617/4/646 624/2/646
f 617/1/647 611/4/647 618/2/647
f 638/73/648 632/90/648 636/71/648
f 632/90/649 633/104/649 635/82/649
f 636/71/650 632/90/650 635/82/650
f 633/104/651 634/89/651 635/82/651
f 625/53/652 626/59/652 633/54/652
f 626/53/653 627/59/653 634/54/653
f 627/53/654 628/59/654 635/54/654
f 628/53/655 629/59/655 636/54/655
f 629/53/656 630/59/656 637/54/656
f 630/53/657 631/59/657 638/54/657
f 631/53/658 625/59/658 632/54/658
f 650/24/659 645/23/659 646/26/659
f 646/26/660 647/25/660 650/24/660
f 647/25/661 648/21/661 649/22/661
f 639/20/662 640/18/662 646/27/662
f 640/20/663 641/18/663 647/27/663
f 641/20/664 642/18/664 648/27/664
f 642/20/665 643/18/665 649/27/665
f 643/20/666 644/18/666 650/27/666
f 644/20/667 639/18/667 645/27/667
f 660/76/668 656/23/668 657/74/668
f 657/74/669 658/105/669 659/75/669
f 651/20/670 652/18/670 657/27/670
f 653/18/671 658/27/671 657/19/671
f 653/20/672 654/18/672 659/27/672
f 654/20/673 655/18/673 660/27/673
f 651/18/674 656/27/674 660/19/674
f 672/77/675 667/90/675 670/50/675
f 667/90/676 668/52/676 669/97/676
f 670/50/677 667/90/677 669/97/677
f 661/53/678 662/59/678 668/54/678
f 662/53/679 663/59/679 669/54/679
f 663/53/680 664/59/680 670/54/680
f 664/53/681 665/59/681 671/54/681
f 665/53/682 666/59/682 672/54/682
f 666/53/683 661/59/683 667/54/683
f 682/66/684 678/88/684 679/60/684
f 679/60/685 680/61/685 682/66/685
f 674/67/686 679/64/686 678/65/686
f 675/67/687 680/64/687 679/65/687
f 676/67/688 681/64/688 680/65/688
f 677/67/689 682/64/689 681/65/689
f 673/67/690 678/64/690 682/65/690
f 692/66/691 688/88/691 689/60/691
f 689/60/692 690/61/692 691/62/692
f 683/63/693 684/67/693 689/64/693
f 684/63/694 685/67/694 690/64/694
f 685/63/695 686/67/695 691/64/695
f 686/63/696 687/67/696 692/64/696
f 687/63/697 683/67/697 688/64/697
f 702/66/698 698/88/698 700/61/698
f 698/88/699 699/60/699 700/61/699
f 693/63/700 694/67/700 699/64/700
f 694/63/701 695/67/701 700/64/701
f 695/63/702 696/67/702 701/64/702
f 696/63/703 697/67/703 702/64/703
f 697/63/704 693/67/704 698/64/704
f 716/73/705 710/90/705 713/82/705
f 710/90/706 711/104/706 712/89/706
f 713/82/707 710/90/707 712/89/707
f 713/82/708 714/71/708 716/73/708
f 703/53/709 704/59/709 711/54/709
f 704/53/710 705/59/710 712/54/710
f 705/53/711 706/59/711 713/54/711
f 706/53/712 707/59/712 714/54/712
f 707/53/713 708/59/713 715/54/713
f 708/53/714 709/59/714 716/54/714
f 709/53/715 703/59/715 710/54/715
f 726/58/716 722/90/716 725/57/716
f 722/90/717 723/78/717 725/57/717
f 717/53/718 718/59/718 723/54/718
f 718/53/719 719/59/719 724/54/719
f 719/53/720 720/59/720 725/54/720
f 720/53/721 721/59/721 726/54/721
f 721/53/722 717/59/722 722/54/722
f 738/77/723 733/90/723 736/50/723
f 733/90/724 734/52/724 735/97/724
f 736/50/725 733/90/725 735/97/725
f 727/53/726 728/59/726 734/54/726
f 728/53/727 729/59/727 735/54/727
f 729/53/728 730/59/728 736/54/728
f 730/53/729 731/59/729 737/54/729
f 731/53/730 732/59/730 738/54/730
f 732/53/731 727/59/731 733/54/731
f 750/24/732 745/23/732 746/26/732
f 746/26/733 747/25/733 749/22/733
f 747/25/734 748/21/734 749/22/734
f 739/20/735 740/18/735 746/27/735
f 740/20/736 741/18/736 747/27/736
f 741/20/737 742/18/737 748/27/737
f 742/20/738 743/18/738 749/27/738
f 743/20/739 744/18/739 750/27/739
f 744/20/740 739/18/740 745/27/740
f 762/12/741 757/11/741 760/9/741
f 757/11/742 758/49/742 760/9/742
f 758/49/743 759/13/743 760/9/743
f 752/4/744 758/2/744 757/3/744
f 753/4/745 759/2/745 758/3/745
f 754/4/746 760/2/746 759/3/746
f 755/4/747 761/2/747 760/3/747
f 756/4/748 762/2/748 761/3/748
f 751/4/749 757/2/749 762/3/749
f 772/81/750 768/11/750 769/79/750
f 769/79/751 770/85/751 771/80/751
f 763/1/752 764/4/752 769/2/752
f 764/1/753 765/4/753 770/2/753
f 765/1/754 766/4/754 771/2/754
f 766/1/755 767/4/755 772/2/755
f 763/4/756 768/2/756 772/3/756
f 786/73/757 780/90/757 783/82/757
f 780/90/758 781/104/758 782/89/758
f 783/82/759 780/90/759 782/89/759
f 783/82/760 784/71/760 785/72/760
f 774/59/761 781/54/761 780/55/761
f 775/59/762 782/54/762 781/55/762
f 776/59/763 783/54/763 782/55/763
f 777/59/764 784/54/764 783/55/764
f 778/59/765 785/54/765 784/55/765
f 779/59/766 786/54/766 785/55/766
f 773/59/767 780/54/767 786/55/767
f 796/66/768 792/88/768 794/61/768
f 792/88/769 793/60/769 794/61/769
f 787/63/770 788/67/770 793/64/770
f 789/67/771 794/64/771 793/65/771
f 789/63/772 790/67/772 795/64/772
f 791/67/773 796/64/773 795/65/773
f 787/67/774 792/64/774 796/65/774
f 810/83/775 804/11/775 806/98/775
f 804/11/776 805/70/776 806/98/776
f 806/98/777 807/84/777 810/83/777
f 807/84/778 808/68/778 809/69/778
f 797/1/779 798/4/779 805/2/779
f 798/1/780 799/4/780 806/2/780
f 799/1/781 800/4/781 807/2/781
f 800/1/782 801/4/782 808/2/782
f 801/1/783 802/4/783 809/2/783
f 802/1/784 803/4/784 810/2/784
f 803/1/785 797/4/785 804/2/785
f 820/81/786 816/11/786 817/79/786
f 817/79/787 818/85/787 820/81/787
f 811/1/788 812/4/788 817/2/788
f 813/4/789 818/2/789 817/3/789
f 814/4/790 819/2/790 818/3/790
f 814/1/791 815/4/791 820/2/791
f 811/4/792 816/2/792 820/3/792
f 830/81/793 826/11/793 829/80/793
f 826/11/794 827/79/794 829/80/794
f 821/1/795 822/4/795 827/2/795
f 822/1/796 823/4/796 828/2/796
f 823/1/797 824/4/797 829/2/797
f 824/1/798 825/4/798 830/2/798
f 825/1/799 821/4/799 826/2/799
f 842/94/800 837/88/800 841/87/800
f 837/88/801 838/106/801 840/86/801
f 838/106/802 839/107/802 840/86/802
f 832/67/803 838/64/803 837/65/803
f 833/67/804 839/64/804 838/65/804
f 834/67/805 840/64/805 839/65/805
f 835/67/806 841/64/806 840/65/806
f 836/67/807 842/64/807 841/65/807
f 831/67/808 837/64/808 842/65/808
f 856/73/809 850/90/809 853/82/809
f 850/90/810 851/104/810 852/89/810
f 853/82/811 850/90/811 852/89/811
f 853/82/812 854/71/812 855/72/812
f 843/53/813 844/59/813 851/54/813
f 844/53/814 845/59/814 852/54/814
f 845/53/815 846/59/815 853/54/815
f 846/53/816 847/59/816 854/54/816
f 847/53/817 848/59/817 855/54/817
f 848/53/818 849/59/818 856/54/818
f 849/53/819 843/59/819 850/54/819
f 870/73/820 864/90/820 866/89/820
f 864/90/821 865/104/821 866/89/821
f 866/89/822 867/82/822 868/71/822
f 869/72/823 866/89/823 868/71/823
f 857/53/824 858/59/824 865/54/824
f 858/53/825 859/59/825 866/54/825
f 859/53/826 860/59/826 867/54/826
f 860/53/827 861/59/827 868/54/827
f 861/53/828 862/59/828 869/54/828
f 862/53/829 863/59/829 870/54/829
f 863/53/830 857/59/830 864/54/830
f 882/77/831 877/90/831 881/51/831
f 877/90/832 878/52/832 880/50/832
f 878/52/833 879/97/833 880/50/833
f 872/59/834 878/54/834 877/55/834
f 872/53/835 873/59/835 879/54/835
f 873/53/836 874/59/836 880/54/836
f 875/59/837 881/54/837 880/55/837
f 876/59/838 882/54/838 881/55/838
f 876/53/839 871/59/839 877/54/839
f 896/93/840 890/88/840 894/91/840
f 890/88/841 891/95/841 893/96/841
f 894/91/842 890/88/842 893/96/842
f 891/95/843 892/108/843 893/96/843
f 884/67/844 891/64/844 890/65/844
f 885/67/845 892/64/845 891/65/845
f 885/63/846 886/67/846 893/64/846
f 887/67/847 894/64/847 893/65/847
f 888/67/848 895/64/848 894/65/848
f 889/67/849 896/64/849 895/65/849
f 889/63/850 883/67/850 890/64/850
f 908/94/851 903/88/851 906/86/851
f 903/88/852 904/106/852 906/86/852
f 904/106/853 905/107/853 906/86/853
f 897/63/854 898/67/854 904/64/854
f 898/63/855 899/67/855 905/64/855
f 899/63/856 900/67/856 906/64/856
f 900/63/857 901/67/857 907/64/857
f 901/63/858 902/67/858 908/64/858
f 902/63/859 897/67/859 903/64/859
f 922/93/860 916/88/860 917/95/860
f 917/95/861 918/108/861 919/96/861
f 919/96/862 920/91/862 921/92/862
f 921/92/863 922/93/863 917/95/863
f 909/63/864 910/67/864 917/64/864
f 910/63/865 911/67/865 918/64/865
f 911/63/866 912/67/866 919/64/866
f 912/63/867 913/67/867 920/64/867
f 913/63/868 914/67/868 921/64/868
f 914/63/869 915/67/869 922/64/869
f 915/63/870 909/67/870 916/64/870
f 934/77/871 929/90/871 930/52/871
f 930/52/872 931/97/872 934/77/872
f 931/97/873 932/50/873 933/51/873
f 923/53/874 924/59/874 930/54/874
f 924/53/875 925/59/875 931/54/875
f 925/53/876 926/59/876 932/54/876
f 926/53/877 927/59/877 933/54/877
f 927/53/878 928/59/878 934/54/878
f 928/53/879 923/59/879 929/54/879
f 948/83/880 942/11/880 943/70/880
f 943/70/881 944/98/881 948/83/881
f 944/98/882 945/84/882 946/68/882
f 947/69/883 944/98/883 946/68/883
f 935/1/884 936/4/884 943/2/884
f 936/1/885 937/4/885 944/2/885
f 937/1/886 938/4/886 945/2/886
f 938/1/887 939/4/887 946/2/887
f 939/1/888 940/4/888 947/2/888
f 940/1/889 941/4/889 948/2/889
f 941/1/890 935/4/890 942/2/890
f 952/4/574 951/2/574 950/3/574
f 954/4/575 955/2/575 956/3/575
f 949/1/576 950/4/576 954/2/576
f 951/4/577 955/2/577 954/3/577
f 951/1/578 952/4/578 956/2/578
f 949/4/579 953/2/579 956/3/579
f 960/4/580 959/2/580 958/3/580
f 962/4/581 963/2/581 964/3/581
f 957/1/582 958/4/582 962/2/582
f 959/4/583 963/2/583 962/3/583
f 959/1/584 960/4/584 964/2/584
f 960/1/585 957/4/585 961/2/585
