# Blender 4.4.3
# www.blender.org
o ruin_civic
v -5.151628 0.466730 3.093719
v -4.701718 0.466730 3.084719
v -4.710717 0.466730 2.634809
v -5.160627 0.466730 2.643809
v -5.151628 5.766730 3.093719
v -4.701718 5.766730 3.084719
v -4.710717 5.766730 2.634809
v -5.160627 5.766730 2.643809
v -2.551628 0.466730 3.093719
v -2.101718 0.466730 3.084719
v -2.110718 0.466730 2.634809
v -2.560627 0.466730 2.643809
v -2.551628 5.766730 3.093719
v -2.101718 5.766730 3.084719
v -2.110718 5.766730 2.634809
v -2.560627 5.766730 2.643809
v 0.048372 0.466730 3.093719
v 0.498282 0.466730 3.084719
v 0.489282 0.466730 2.634809
v 0.039373 0.466730 2.643809
v 0.048372 5.766730 3.093719
v 0.498282 5.766730 3.084719
v 0.489282 5.766730 2.634809
v 0.039373 5.766730 2.643809
v 2.648372 0.466730 3.093719
v 3.098282 0.466730 3.084719
v 3.089283 0.466730 2.634809
v 2.639373 0.466730 2.643809
v 2.648372 5.766730 3.093719
v 3.098282 5.766730 3.084719
v 3.089283 5.766730 2.634809
v 2.639373 5.766730 2.643809
v 5.248372 0.466730 3.093719
v 5.698282 0.466730 3.084719
v 5.689282 0.466730 2.634809
v 5.239372 0.466730 2.643809
v 5.248372 5.766730 3.093719
v 5.698282 5.766730 3.084719
v 5.689282 5.766730 2.634809
v 5.239372 5.766730 2.643809
v -5.131173 0.596730 -3.065736
v -2.631173 0.596730 -3.065736
v -2.681173 2.360730 -3.065736
v -2.541173 4.016730 -3.065736
v -2.661173 4.136730 -3.065736
v -5.131173 4.836730 -3.065736
v -5.171173 3.952730 -3.065736
v -5.131173 0.596730 -3.405736
v -2.631173 0.596730 -3.405736
v -2.681173 2.360730 -3.405736
v -2.541173 4.016730 -3.405736
v -2.661173 4.136730 -3.405736
v -5.131173 4.836730 -3.405736
v -5.171173 3.952730 -3.405736
v 2.268827 0.596730 -3.065736
v 5.668827 0.596730 -3.065736
v 5.708827 4.004730 -3.065736
v 5.588827 4.784730 -3.065736
v 2.298827 4.096730 -3.065736
v 2.168827 2.216730 -3.065736
v 2.268827 0.596730 -3.405736
v 5.668827 0.596730 -3.405736
v 5.708827 4.004730 -3.405736
v 5.588827 4.784730 -3.405736
v 2.298827 4.096730 -3.405736
v 2.168827 2.216730 -3.405736
v -2.631173 4.016730 -3.065736
v -2.511173 4.106730 -3.065736
v 2.148827 3.976730 -3.065736
v 2.268827 4.016730 -3.065736
v 5.560827 5.616730 -3.065736
v -5.023172 5.148730 -3.065736
v -2.631173 4.016730 -3.405736
v -2.511173 4.106730 -3.405736
v 2.148827 3.976730 -3.405736
v 2.268827 4.016730 -3.405736
v 5.560827 5.616730 -3.405736
v -5.023172 5.148730 -3.405736
v -2.631173 0.596730 -3.065736
v 2.268827 0.596730 -3.065736
v 2.188827 1.496730 -3.065736
v -2.531173 1.376730 -3.065736
v -2.631173 0.596730 -3.405736
v 2.268827 0.596730 -3.405736
v 2.188827 1.496730 -3.405736
v -2.531173 1.376730 -3.405736
v -3.987962 4.437350 3.116043
v 1.262186 6.062711 3.326161
v 1.274384 6.119970 2.578449
v -3.975764 4.494608 2.368331
v -4.136729 4.913490 3.150078
v 1.113418 6.538851 3.360196
v 1.125616 6.596110 2.612485
v -4.124532 4.970749 2.402367
v -0.828743 0.000000 3.405629
v 5.698219 2.935875 2.618613
v 5.519355 3.072325 1.644247
v -1.007608 0.136450 2.431263
v -0.981700 0.361134 3.484281
v 5.545262 3.297010 2.697264
v 5.366398 3.433460 1.722898
v -1.160565 0.497585 2.509915
v -3.749029 6.085679 2.190462
v 4.418206 5.430378 1.863598
v 4.261465 6.050891 -3.296867
v -3.905771 6.706192 -2.970003
v -3.723810 6.382569 2.225395
v 4.443425 5.727268 1.898531
v 4.286684 6.347781 -3.261934
v -3.880552 7.003081 -2.935070
v 4.898653 0.296677 -2.417916
v 4.124794 0.292927 -2.453957
v 3.873299 0.296273 -1.870100
v 4.360397 0.331490 -1.471143
v 5.018646 0.368856 -1.271145
v 5.747117 0.313078 -1.601663
v 5.469532 0.237121 -2.185745
v 5.426955 1.092761 -2.216659
v 4.876047 1.177763 -2.635364
v 4.137362 1.196491 -2.369434
v 4.118001 1.202925 -1.842950
v 4.406965 1.096694 -1.452581
v 5.056196 1.145090 -1.335988
v 5.530611 1.099282 -1.716501
v 0.823644 0.260868 1.377288
v 0.259939 0.301093 1.575657
v 0.653408 0.272612 1.890976
v 1.304239 0.334265 1.792598
v 1.346947 0.281439 1.500025
v 0.473196 0.943958 1.764229
v 1.038619 0.895664 1.817009
v 1.375366 0.881925 1.622082
v 1.070316 0.902480 1.406421
v 0.494223 0.919325 1.456384
v -4.981021 0.342599 -2.947310
v -4.744196 0.374543 -2.676407
v -4.096353 0.264028 -2.622468
v -3.902248 0.289787 -2.969164
v -4.486196 0.279604 -3.206261
v -3.958715 0.943314 -2.788771
v -4.195360 0.938170 -3.063242
v -4.805820 0.944613 -3.096229
v -5.107299 0.958710 -2.765736
v -4.470010 0.912483 -2.611780
v 1.548691 0.155510 -2.118144
v 1.574398 0.228795 -1.452430
v 2.654012 0.271108 -1.367743
v 3.322056 0.175990 -1.900946
v 2.508889 0.189460 -2.367944
v 1.748535 1.110978 -1.599037
v 2.559857 1.103616 -1.379951
v 3.113998 1.219725 -1.842194
v 2.571172 1.129980 -2.315545
v 1.662997 1.098719 -2.132155
v -4.432899 0.227263 -4.243821
v -4.908986 0.345294 -3.779503
v -4.950727 0.400566 -3.265687
v -4.089424 0.382707 -3.070431
v -3.604264 0.332487 -3.489101
v -3.563681 0.309564 -3.998859
v -4.141566 1.318786 -3.207672
v -3.569988 1.206451 -3.473263
v -3.623190 1.312571 -3.956085
v -4.392504 1.263225 -4.155924
v -4.872571 1.302960 -3.778814
v -4.863019 1.313632 -3.322963
v -2.112188 0.258206 0.308930
v -1.593986 0.368866 0.495044
v -0.910987 0.322869 0.533619
v -0.430229 0.244045 0.185455
v -0.705511 0.235396 -0.265442
v -1.553983 0.215166 -0.316321
v -2.190420 0.331642 -0.080144
v -1.864767 1.168934 0.476478
v -1.217928 1.299961 0.558740
v -0.444657 1.305980 0.388594
v -0.582771 1.164419 -0.072519
v -1.228913 1.237719 -0.319442
v -2.026009 1.179482 -0.242538
v -2.311427 1.225768 0.165334
v -1.324086 0.289340 -1.379945
v -1.340478 0.261075 -1.759670
v -1.926250 0.281439 -2.106636
v -2.701197 0.167665 -1.836545
v -2.693724 0.312890 -1.459776
v -2.117040 0.151484 -1.063096
v -1.333516 1.325490 -1.474537
v -1.255513 1.255914 -1.885555
v -2.123100 1.181136 -1.998629
v -2.868186 1.383905 -1.778035
v -2.821627 1.170404 -1.318340
v -1.921610 1.332025 -1.259375
v -0.186845 0.222991 -3.041773
v -1.509745 0.310738 -3.136696
v -2.067575 0.330786 -2.317725
v -2.280346 0.298505 -1.411250
v -1.122229 0.154490 -1.187991
v 0.066500 0.336074 -1.217796
v 0.289200 0.052057 -2.150146
v -1.961572 1.626639 -2.466829
v -2.222852 1.621070 -1.672670
v -1.360913 1.824391 -1.160028
v -0.088051 1.783869 -0.987773
v 0.237844 1.569028 -1.956667
v -0.046609 1.797523 -2.817098
v -1.187513 1.775252 -3.021903
v 0.219743 0.354187 2.531619
v 0.420707 0.334371 2.309057
v 0.014226 0.369219 2.170906
v -0.453793 0.300063 2.127014
v -0.824593 0.316836 2.317993
v -0.749577 0.305391 2.607240
v -0.175886 0.335110 2.632618
v 0.224042 0.901403 2.178590
v -0.256369 0.959865 2.115341
v -0.651668 0.923395 2.245305
v -0.882937 1.029212 2.504690
v -0.422167 0.928853 2.722214
v 0.141409 0.904937 2.625324
v 0.355729 1.013797 2.407559
v -2.291945 0.243336 -2.748801
v -2.785526 0.182214 -3.362266
v -3.997763 0.239648 -3.257150
v -3.875232 0.326019 -2.315626
v -2.744004 0.174097 -2.030685
v -3.623917 1.163326 -2.232874
v -2.454916 1.277407 -2.069420
v -2.215388 1.227368 -2.918512
v -3.004427 1.164839 -3.538537
v -3.823580 1.257435 -2.965693
v -3.716326 0.415575 -2.742195
v -3.995321 0.398072 -2.740460
v -4.045138 0.403487 -2.608046
v -3.833737 0.378647 -2.511844
v -3.537504 0.377878 -2.553875
v -3.549250 0.415521 -2.676322
v -3.613460 0.722448 -2.744925
v -3.906955 0.676248 -2.776668
v -4.033344 0.716916 -2.655446
v -3.908613 0.687265 -2.553497
v -3.638641 0.680387 -2.530764
v -3.489253 0.713874 -2.637529
v -3.627349 0.164005 0.129908
v -2.943728 0.074559 -0.343182
v -3.294884 0.111672 -0.932159
v -4.624752 0.002590 -0.916762
v -5.747117 0.031628 -0.720478
v -5.558034 0.136283 -0.201370
v -4.928400 0.179743 0.293622
v -4.799257 1.574623 -1.069106
v -5.535359 1.562908 -0.620980
v -5.744304 1.802732 -0.118254
v -4.694394 1.718605 0.089535
v -3.665950 1.631323 0.032230
v -3.144744 1.661872 -0.392742
v -3.469922 1.757063 -0.925745
v 3.069702 0.376639 1.995383
v 3.372738 0.392550 2.118240
v 3.688669 0.375739 2.048443
v 3.593520 0.359051 1.842714
v 3.264687 0.341552 1.780355
v 3.309945 0.668923 2.141067
v 3.600474 0.669180 2.052035
v 3.636116 0.657099 1.861519
v 3.310920 0.683266 1.746408
v 3.086892 0.684736 1.954642
v -0.502314 0.441127 -1.705233
v -0.217554 0.386790 -1.633705
v 0.019786 0.435867 -1.717083
v -0.065338 0.412163 -1.881043
v -0.395521 0.415134 -1.888870
v 0.000623 0.738146 -1.638040
v -0.024664 0.737628 -1.815673
v -0.265956 0.713664 -1.907488
v -0.485768 0.698763 -1.780311
v -0.327467 0.701219 -1.638567
v 1.072926 0.365045 -1.101676
v 1.220161 0.361368 -0.791756
v 1.655631 0.345651 -0.714692
v 2.096734 0.367076 -0.832078
v 1.991200 0.398183 -1.141229
v 1.769568 0.371450 -1.355681
v 1.325975 0.356019 -1.378735
v 2.012354 0.833308 -1.179127
v 1.739338 0.912659 -1.406008
v 1.355860 0.877750 -1.286750
v 1.032890 0.838393 -1.064057
v 1.248969 0.860141 -0.755977
v 1.692343 0.925277 -0.763908
v 1.956519 0.860181 -0.928776
v -4.098612 0.286413 3.069572
v -4.203535 0.310992 3.784827
v -3.201161 0.333671 4.243821
v -1.919357 0.153831 4.001781
v -1.800798 0.038788 3.347883
v -2.676466 0.178734 2.772416
v -2.509468 1.637464 3.056800
v -3.875168 1.788404 2.911952
v -4.243120 1.702876 3.623209
v -3.521909 1.633583 4.191764
v -2.192621 1.695667 4.095491
v -1.606859 1.752468 3.489734
v -4.120677 0.332208 0.845121
v -3.581502 0.306445 0.892349
v -3.307886 0.364031 0.648456
v -3.479347 0.307379 0.411063
v -3.935284 0.402605 0.235037
v -4.473891 0.297343 0.388401
v -4.408341 0.358211 0.663092
v -4.477703 1.094725 0.619480
v -4.265393 1.123789 0.864966
v -3.713764 1.070925 0.886243
v -3.371188 1.050168 0.694097
v -3.411342 1.001859 0.449156
v -3.792439 1.111894 0.192701
v -4.338688 1.051646 0.367969
v 1.754071 0.707724 -1.730397
v 3.198114 0.979219 -1.932179
v 3.161992 0.671888 -2.604200
v 1.717948 0.400393 -2.402418
v 1.700601 0.921571 -1.825320
v 3.144645 1.193066 -2.027102
v 3.108522 0.885736 -2.699123
v 1.664479 0.614241 -2.497341
v -3.960359 0.941980 1.090662
v -2.426619 0.986001 1.296874
v -2.336868 0.819363 0.664901
v -3.870608 0.775342 0.458689
v -3.958822 1.174097 1.029676
v -2.425082 1.218118 1.235888
v -2.335330 1.051480 0.603915
v -3.869070 1.007459 0.397703
vn -0.0000 -1.0000 -0.0000
vn -0.0000 1.0000 -0.0000
vn 0.0200 -0.0000 0.9998
vn 0.9998 -0.0000 -0.0200
vn -0.0200 -0.0000 -0.9998
vn -0.9998 -0.0000 0.0200
vn -0.0000 -0.0000 -1.0000
vn -0.0000 -0.0000 1.0000
vn -0.9996 -0.0283 -0.0000
vn -0.9964 0.0842 -0.0000
vn -0.7071 -0.7071 -0.0000
vn -0.2727 -0.9621 -0.0000
vn 0.9990 -0.0452 -0.0000
vn 0.9999 0.0119 -0.0000
vn -0.9999 0.0117 -0.0000
vn -0.9884 -0.1521 -0.0000
vn 0.2047 -0.9788 -0.0000
vn 0.9976 -0.0690 -0.0000
vn 0.9981 0.0616 -0.0000
vn -0.6000 0.8000 -0.0000
vn 0.0279 0.9996 -0.0000
vn -0.3162 0.9487 -0.0000
vn -0.4371 0.8994 -0.0000
vn 0.0442 -0.9990 -0.0000
vn 0.4278 0.9039 -0.0000
vn -0.9961 -0.0885 -0.0000
vn 0.0254 -0.9997 -0.0000
vn 0.9919 -0.1272 -0.0000
vn 0.2975 -0.9523 -0.0681
vn -0.2975 0.9523 0.0681
vn -0.0163 -0.0763 0.9969
vn 0.9546 0.2955 0.0382
vn 0.0163 0.0763 -0.9969
vn -0.9546 -0.2955 -0.0382
vn 0.3824 -0.9028 -0.1966
vn -0.3824 0.9028 0.1966
vn 0.1789 -0.1365 0.9744
vn 0.9065 0.4078 -0.1093
vn -0.1789 0.1365 -0.9744
vn -0.9065 -0.4078 0.1093
vn -0.0841 -0.9896 -0.1164
vn 0.0841 0.9896 0.1164
vn 0.0301 -0.1193 0.9924
vn 0.9960 -0.0799 -0.0399
vn -0.0301 0.1193 -0.9924
vn -0.9960 0.0799 0.0399
vn 0.1746 0.9752 0.1361
vn 0.5771 -0.1817 -0.7962
vn -0.3352 0.0924 -0.9376
vn -0.9644 0.2615 -0.0387
vn -0.7988 0.0340 0.6006
vn -0.1826 0.0906 0.9790
vn 0.6173 0.2775 0.7362
vn 0.9782 0.0413 -0.2033
vn 0.0309 0.9993 0.0190
vn -0.1237 -0.5364 0.8348
vn -0.5474 0.4241 0.7214
vn 0.3751 -0.7083 -0.5980
vn -0.0871 -0.5842 -0.8069
vn -0.5996 -0.8000 0.0231
vn 0.0677 0.9975 0.0192
vn 0.5069 -0.7511 -0.4230
vn 0.0374 -0.5900 -0.8066
vn -0.4787 -0.7798 -0.4034
vn -0.2251 -0.6312 0.7422
vn 0.2808 -0.6609 0.6960
vn -0.1846 0.9825 0.0255
vn -0.9804 0.1962 0.0163
vn -0.0784 0.0057 0.9969
vn 0.5910 -0.5714 -0.5694
vn 0.4981 0.0153 -0.8670
vn -0.2523 0.0162 -0.9675
vn 0.0303 0.9973 -0.0665
vn 0.1819 -0.7021 0.6885
vn 0.5633 -0.7918 -0.2361
vn 0.2076 -0.7643 -0.6105
vn -0.4443 -0.7524 -0.4863
vn -0.6119 -0.7903 0.0313
vn -0.1150 -0.6528 0.7487
vn 0.1395 0.9876 -0.0717
vn -0.3203 -0.0865 0.9433
vn -0.0593 -0.0443 0.9973
vn 0.8881 -0.4406 -0.1308
vn 0.8535 -0.0046 -0.5210
vn 0.0604 -0.0222 -0.9979
vn -0.3631 -0.1069 -0.9256
vn -0.9710 -0.1759 0.1620
vn -0.1649 0.9742 -0.1539
vn 0.9829 0.0256 0.1822
vn 0.4999 -0.1506 -0.8529
vn -0.3341 0.0400 -0.9417
vn -0.9876 -0.1391 0.0732
vn -0.0344 -0.1676 0.9852
vn 0.3549 0.0959 0.9300
vn 0.1519 0.9883 -0.0119
vn 0.0943 0.4772 -0.8737
vn -0.1781 -0.7747 0.6067
vn -0.1280 -0.5690 0.8123
vn -0.1893 -0.0005 0.9819
vn 0.5549 -0.7400 -0.3800
vn 0.1351 -0.7267 -0.6736
vn -0.3582 -0.6473 -0.6728
vn 0.0536 0.9964 0.0655
vn 0.0446 -0.5418 -0.8393
vn 0.3259 0.0605 -0.9435
vn 0.0613 0.2049 -0.9769
vn -0.4440 -0.6041 0.6618
vn 0.1112 -0.5976 0.7941
vn -0.0461 0.0385 0.9982
vn 0.7606 -0.6371 -0.1247
vn -0.0583 0.9979 -0.0265
vn -0.0619 -0.5548 0.8297
vn 0.7982 -0.5447 0.2573
vn 0.4831 -0.6847 -0.5457
vn -0.5432 -0.4601 -0.7024
vn -0.7539 -0.6455 0.1225
vn 0.0087 0.9810 0.1937
vn 0.1148 -0.0473 -0.9923
vn -0.6677 0.1164 -0.7352
vn -0.6062 0.1412 0.7827
vn -0.0805 0.1141 0.9902
vn 0.9485 0.3166 0.0063
vn 0.6524 -0.0327 -0.7572
vn 0.0574 0.9883 0.1415
vn -0.3318 -0.7556 -0.5647
vn -0.5041 -0.8420 0.1921
vn -0.1980 -0.6429 0.7400
vn 0.0052 -0.5057 0.8627
vn 0.4264 -0.7745 0.4672
vn 0.4607 -0.7815 -0.4206
vn 0.1708 -0.6966 -0.6968
vn 0.0960 0.9944 -0.0451
vn -0.3638 -0.1585 0.9179
vn 0.2181 0.0536 0.9744
vn 0.9059 -0.1036 -0.4106
vn 0.1912 -0.1226 -0.9739
vn -0.5435 -0.5865 0.6005
vn -0.0472 0.9983 0.0354
vn 0.5142 -0.8547 -0.0707
vn 0.3405 -0.5736 -0.7450
vn -0.3038 -0.7312 -0.6108
vn -0.4145 -0.7754 0.4763
vn 0.0738 -0.6666 0.7418
vn 0.2383 0.9712 -0.0016
vn 0.3076 -0.7200 -0.6220
vn -0.1681 -0.6588 -0.7333
vn -0.2945 -0.7718 -0.5635
vn -0.4425 -0.8177 0.3681
vn 0.0947 -0.5434 0.8341
vn 0.2535 -0.6896 0.6784
vn 0.5180 -0.8305 0.2047
vn -0.0496 0.9979 -0.0408
vn 0.0919 -0.1174 -0.9888
vn -0.8815 -0.0791 -0.4655
vn -0.6217 -0.1224 0.7737
vn 0.0744 -0.0474 0.9961
vn 0.7184 -0.1377 0.6818
vn 0.4156 0.1280 -0.9005
vn -0.0876 0.9938 0.0686
vn -0.7387 -0.1515 0.6568
vn -0.0384 0.0013 0.9993
vn 0.4886 -0.0130 0.8724
vn 0.9856 -0.0886 -0.1441
vn 0.5204 -0.1549 -0.8398
vn -0.3083 0.0295 -0.9508
vn -0.8777 -0.1103 -0.4663
vn 0.2228 -0.8910 0.3955
vn -0.2228 0.8910 -0.3955
vn 0.0488 0.4154 0.9083
vn 0.9736 0.1831 -0.1361
vn -0.0488 -0.4154 -0.9083
vn -0.9736 -0.1831 0.1361
vn -0.0064 -0.9672 0.2541
vn 0.0064 0.9672 -0.2541
vn -0.1360 0.2526 0.9580
vn 0.9907 0.0284 0.1332
vn 0.1360 -0.2526 -0.9580
vn -0.9907 -0.0284 -0.1332
vn 0.1789 -0.1364 0.9744
vn -0.1789 0.1364 -0.9744
vn 0.0736 0.9969 -0.0283
vn 0.0779 0.9920 0.0989
vn -0.0591 0.9947 -0.0840
vn 0.0212 0.9997 -0.0114
vn 0.0463 -0.2382 -0.9701
vn -0.9172 0.0497 -0.3954
vn -0.6330 0.1481 0.7598
vn -0.2904 -0.0055 0.9569
vn 0.4161 0.0557 0.9076
vn 0.8796 0.1778 -0.4412
vn 0.3754 -0.0148 -0.9268
vn 0.0917 0.9931 -0.0732
vn 0.0527 0.9984 0.0206
vn -0.2255 0.6052 -0.7635
vn 0.4849 -0.1987 0.8517
vn 0.0678 0.5798 0.8120
vn 0.5999 0.7981 -0.0565
vn 0.1701 0.5503 -0.8174
vn -0.0513 0.9984 0.0256
vn 0.0072 0.9981 0.0612
vn -0.5261 0.7659 0.3696
vn 0.0347 0.5951 0.8029
vn 0.4997 0.7971 0.3390
vn 0.2746 0.6546 -0.7044
vn -0.2803 0.6607 -0.6963
vn -0.0378 0.9991 -0.0169
vn 0.0015 0.9996 0.0282
vn -0.2533 0.2070 0.9450
vn 0.6281 0.0824 0.7737
vn 0.5276 0.6519 0.5447
vn -0.1997 0.0677 -0.9775
vn -0.9805 0.1211 0.1545
vn -0.0034 0.9997 -0.0233
vn 0.2689 0.9465 0.1784
vn -0.0524 0.9976 -0.0446
vn -0.3560 0.7512 -0.5559
vn -0.6074 0.7831 -0.1336
vn -0.1309 0.7517 0.6463
vn 0.4723 0.7537 0.4569
vn 0.6158 0.7878 0.0136
vn 0.1451 0.6606 -0.7366
vn 0.1374 0.9904 -0.0163
vn -0.1899 0.9795 -0.0670
vn -0.0699 0.9971 0.0303
vn -0.0678 0.9593 -0.2742
vn -0.1225 -0.0184 0.9923
vn 0.2144 0.0423 0.9758
vn 0.5907 0.3071 0.7462
vn 0.3674 0.1423 -0.9191
vn -0.0980 0.0281 -0.9948
vn -0.8158 0.0478 -0.5763
vn -0.5712 0.0042 0.8208
vn -0.0567 0.9811 -0.1848
vn -0.0615 0.9821 -0.1779
vn 0.3438 0.8645 0.3667
vn 0.9953 -0.0896 -0.0363
vn 0.1157 0.1433 -0.9829
vn -0.2820 0.0074 -0.9594
vn -0.9879 -0.1522 0.0294
vn -0.5095 0.2225 0.8312
vn 0.3431 0.0885 0.9351
vn -0.2202 0.9744 -0.0462
vn -0.1965 0.9788 -0.0578
vn 0.0579 0.9786 -0.1975
vn -0.0685 0.9584 0.2771
vn -0.9367 -0.1642 -0.3093
vn -0.6275 0.6403 -0.4431
vn -0.5451 0.8326 -0.0983
vn 0.7617 -0.5294 0.3736
vn -0.0948 0.7315 0.6752
vn 0.7629 0.6464 -0.0147
vn 0.5809 0.7987 -0.1570
vn -0.5333 0.8393 -0.1053
vn 0.1190 0.9928 0.0141
vn -0.0826 0.9962 0.0283
vn 0.2746 0.9509 -0.1430
vn 0.5445 0.7217 0.4274
vn -0.2865 -0.2190 -0.9327
vn -0.7651 -0.1229 -0.6320
vn -0.3203 0.6597 -0.6799
vn -0.5521 0.8151 0.1754
vn 0.7444 -0.4077 0.5288
vn 0.1853 0.5317 0.8264
vn 0.1674 0.9826 0.0806
vn -0.0853 0.9929 -0.0826
vn 0.6580 0.4832 -0.5776
vn -0.0589 0.4172 -0.9069
vn -0.6782 0.7345 0.0209
vn -0.1272 0.5724 0.8100
vn 0.6188 0.6428 0.4515
vn -0.0896 0.9792 0.1818
vn -0.1500 0.9874 -0.0499
vn 0.2661 0.9629 -0.0456
vn 0.0020 -0.1297 -0.9916
vn -0.9360 -0.0179 -0.3514
vn -0.4118 0.0230 0.9110
vn 0.1403 -0.0287 0.9897
vn 0.5994 -0.2206 0.7695
vn 0.3636 -0.1301 -0.9224
vn -0.1458 0.9843 0.0994
vn -0.0859 0.9896 -0.1152
vn 0.1476 0.9151 -0.3752
vn 0.0767 0.9886 -0.1298
vn 0.4105 0.7974 0.4424
vn 0.4952 0.8342 -0.2427
vn -0.0513 0.5036 -0.8624
vn -0.1294 0.5550 -0.8218
vn -0.5329 0.8459 0.0236
vn -0.4289 0.7663 0.4783
vn 0.0985 0.6907 0.7164
vn 0.0404 0.9985 0.0364
vn 0.0103 0.9993 0.0363
vn 0.2930 -0.0124 0.9560
vn 0.9460 0.2824 0.1591
vn 0.3345 0.0116 -0.9423
vn -0.6806 0.0193 -0.7324
vn -0.4876 0.6761 -0.5524
vn -0.1119 0.9936 0.0130
vn -0.1069 0.9940 0.0215
vn -0.1176 0.5074 0.8536
vn 0.1297 0.6479 0.7506
vn 0.4656 0.8091 -0.3587
vn 0.0238 0.6551 -0.7552
vn -0.4355 0.8209 -0.3694
vn 0.3050 0.9517 -0.0341
vn -0.0989 0.9947 -0.0268
vn -0.1142 0.9934 0.0100
vn -0.1453 0.9894 0.0036
vn -0.5372 0.8008 0.2647
vn -0.0994 0.7021 0.7051
vn 0.1537 0.6934 0.7040
vn 0.4955 0.8647 -0.0822
vn 0.4699 0.6743 -0.5697
vn 0.0165 0.6542 -0.7562
vn -0.4322 0.7976 -0.4208
vn -0.1169 0.9929 -0.0200
vn 0.0997 0.9907 0.0923
vn 0.0009 0.9928 0.1198
vn -0.9803 0.1303 -0.1483
vn -0.4163 0.0932 0.9045
vn 0.1967 0.0876 0.9765
vn 0.9753 0.1639 0.1480
vn 0.5500 0.0069 -0.8352
vn -0.1849 0.2084 -0.9604
vn 0.0369 0.9882 -0.1489
vn 0.1002 0.9824 -0.1574
vn -0.0450 0.9815 -0.1862
vn 0.2602 0.9652 0.0275
vn -0.0891 -0.0412 0.9952
vn 0.6468 0.1179 0.7535
vn 0.7925 0.1130 -0.5993
vn 0.3629 0.0156 -0.9317
vn -0.2734 -0.0023 -0.9619
vn -0.9653 0.1782 0.1909
vn -0.5347 -0.0003 0.8450
vt 0.474750 0.275250
vt 0.275250 0.474750
vt 0.275250 0.275250
vt 0.474750 0.474750
vt 0.285128 0.081720
vt 0.352804 0.027751
vt 0.437193 0.047012
vt 0.352804 0.222249
vt 0.474750 0.025250
vt 0.275250 0.224750
vt 0.275250 0.025250
vt 0.275250 0.125000
vt 0.325125 0.038614
vt 0.474750 0.125000
vt 0.424875 0.038614
vt 0.325125 0.211386
vt 0.424875 0.211386
vt 0.525250 0.025250
vt 0.724750 0.224750
vt 0.525250 0.224750
vt 0.724750 0.025250
vt 0.224750 0.025250
vt 0.025250 0.224750
vt 0.025250 0.025250
vt 0.285128 0.418280
vt 0.285128 0.331720
vt 0.437193 0.452988
vt 0.405824 0.469868
vt 0.294301 0.316368
vt 0.405824 0.280132
vt 0.044301 0.183632
vt 0.044301 0.066368
vt 0.155824 0.030132
vt 0.224750 0.224750
vt 0.155824 0.219868
vt 0.525250 0.375000
vt 0.575125 0.288614
vt 0.724750 0.375000
vt 0.525250 0.275250
vt 0.724750 0.474750
vt 0.525250 0.474750
vt 0.174875 0.038614
vt 0.075125 0.211386
vt 0.075125 0.038614
vt 0.102804 0.222249
vt 0.035128 0.081720
vt 0.187193 0.047012
vt 0.535128 0.331720
vt 0.602804 0.277751
vt 0.687193 0.452988
vt 0.724750 0.275250
vt 0.544301 0.066368
vt 0.724750 0.125000
vt 0.544301 0.183632
vt 0.525250 0.125000
vt 0.575125 0.038614
vt 0.687193 0.297012
vt 0.294301 0.433632
vt 0.352804 0.277751
vt 0.437193 0.297012
vt 0.025250 0.125000
vt 0.224750 0.125000
vt 0.602804 0.472249
vt 0.437193 0.202988
vt 0.285128 0.168280
vt 0.474750 0.224750
vt 0.474750 0.375000
vt 0.352804 0.472249
vt 0.674875 0.288614
vt 0.674875 0.461386
vt 0.575125 0.461386
vt 0.174875 0.211386
vt 0.187193 0.202988
vt 0.035128 0.168280
vt 0.102804 0.027751
vt 0.535128 0.418280
vt 0.655824 0.030132
vt 0.655824 0.219868
vt 0.674875 0.038614
vt 0.674875 0.211386
vt 0.575125 0.211386
s 0
f 4/1/1 2/2/1 1/3/1
f 6/1/2 8/2/2 5/3/2
f 2/1/3 5/2/3 1/3/3
f 3/1/4 6/2/4 2/3/4
f 4/1/5 7/2/5 3/3/5
f 1/1/6 8/2/6 4/3/6
f 12/1/1 10/2/1 9/3/1
f 14/1/2 16/2/2 13/3/2
f 10/1/3 13/2/3 9/3/3
f 11/1/4 14/2/4 10/3/4
f 12/1/5 15/2/5 11/3/5
f 9/1/6 16/2/6 12/3/6
f 20/1/1 18/2/1 17/3/1
f 22/1/2 24/2/2 21/3/2
f 18/1/3 21/2/3 17/3/3
f 19/1/4 22/2/4 18/3/4
f 20/1/5 23/2/5 19/3/5
f 17/1/6 24/2/6 20/3/6
f 28/1/1 26/2/1 25/3/1
f 30/1/2 32/2/2 29/3/2
f 26/1/3 29/2/3 25/3/3
f 27/1/4 30/2/4 26/3/4
f 28/1/5 31/2/5 27/3/5
f 25/1/6 32/2/6 28/3/6
f 33/3/1 35/4/1 34/2/1
f 37/3/2 39/4/2 40/2/2
f 34/1/3 37/2/3 33/3/3
f 35/1/4 38/2/4 34/3/4
f 36/1/5 39/2/5 35/3/5
f 33/1/6 40/2/6 36/3/6
f 43/5/7 42/6/7 41/7/7
f 50/8/8 52/5/8 54/7/8
f 42/9/2 48/10/2 41/11/2
f 43/9/9 49/10/9 42/11/9
f 44/9/10 50/10/10 43/11/10
f 45/9/11 51/10/11 44/11/11
f 46/9/12 52/10/12 45/11/12
f 47/9/13 53/10/13 46/11/13
f 41/9/14 54/10/14 47/11/14
f 57/12/7 56/13/7 60/14/7
f 66/15/8 63/16/8 65/13/8
f 56/9/2 61/10/2 55/11/2
f 57/9/15 62/10/15 56/11/15
f 58/9/16 63/10/16 57/11/16
f 59/9/17 64/10/17 58/11/17
f 60/9/18 65/10/18 59/11/18
f 55/9/19 66/10/19 60/11/19
f 68/13/7 67/15/7 72/14/7
f 77/13/8 78/15/8 74/17/8
f 68/9/20 73/10/20 67/11/20
f 69/9/21 74/10/21 68/11/21
f 70/9/22 75/10/22 69/11/22
f 71/9/23 76/10/23 70/11/23
f 72/9/24 77/10/24 71/11/24
f 67/9/25 78/10/25 72/11/25
f 82/18/7 80/19/7 79/20/7
f 84/21/8 86/20/8 83/18/8
f 80/21/2 83/20/2 79/18/2
f 81/21/26 84/20/26 80/18/26
f 82/21/27 85/20/27 81/18/27
f 79/21/28 86/20/28 82/18/28
f 87/3/29 89/4/29 88/2/29
f 92/1/30 94/2/30 91/3/30
f 87/3/31 92/4/31 91/2/31
f 89/1/32 92/2/32 88/3/32
f 90/1/33 93/2/33 89/3/33
f 87/1/34 94/2/34 90/3/34
f 98/22/35 96/23/35 95/24/35
f 100/22/36 102/23/36 99/24/36
f 96/22/37 99/23/37 95/24/37
f 97/22/38 100/23/38 96/24/38
f 98/22/39 101/23/39 97/24/39
f 95/22/40 102/23/40 98/24/40
f 106/22/41 104/23/41 103/24/41
f 108/22/42 110/23/42 107/24/42
f 104/22/43 107/23/43 103/24/43
f 105/22/44 108/23/44 104/24/44
f 106/22/45 109/23/45 105/24/45
f 103/22/46 110/23/46 106/24/46
f 121/25/47 122/26/47 119/27/47
f 111/3/48 119/4/48 118/2/48
f 112/3/49 120/4/49 119/2/49
f 113/3/50 121/4/50 120/2/50
f 114/3/51 122/4/51 121/2/51
f 115/3/52 123/4/52 122/2/52
f 116/3/53 124/4/53 123/2/53
f 117/3/54 118/4/54 124/2/54
f 131/28/55 133/29/55 134/30/55
f 125/3/56 131/4/56 130/2/56
f 127/1/57 131/2/57 126/3/57
f 127/3/58 133/4/58 132/2/58
f 128/3/59 134/4/59 133/2/59
f 129/3/60 130/4/60 134/2/60
f 142/31/61 143/32/61 144/33/61
f 135/24/62 141/34/62 140/23/62
f 136/24/63 142/34/63 141/23/63
f 137/24/64 143/34/64 142/23/64
f 138/24/65 144/34/65 143/23/65
f 139/24/66 140/34/66 144/23/66
f 151/35/67 152/31/67 153/32/67
f 146/22/68 150/23/68 145/24/68
f 147/22/69 151/23/69 146/24/69
f 147/24/70 153/34/70 152/23/70
f 149/22/71 153/23/71 148/24/71
f 145/22/72 154/23/72 149/24/72
f 164/36/73 165/37/73 161/38/73
f 155/39/74 162/40/74 161/41/74
f 156/39/75 163/40/75 162/41/75
f 157/39/76 164/40/76 163/41/76
f 158/39/77 165/40/77 164/41/77
f 159/39/78 166/40/78 165/41/78
f 160/39/79 161/40/79 166/41/79
f 177/25/80 178/26/80 175/27/80
f 168/1/81 174/2/81 167/3/81
f 169/1/82 175/2/82 168/3/82
f 169/3/83 177/4/83 176/2/83
f 171/1/84 177/2/84 170/3/84
f 172/1/85 178/2/85 171/3/85
f 173/1/86 179/2/86 172/3/86
f 167/1/87 180/2/87 173/3/87
f 192/42/88 189/43/88 191/44/88
f 181/24/89 188/34/89 187/23/89
f 183/22/90 188/23/90 182/24/90
f 184/22/91 189/23/91 183/24/91
f 185/22/92 190/23/92 184/24/92
f 185/24/93 192/34/93 191/23/93
f 181/22/94 192/23/94 186/24/94
f 202/45/95 204/46/95 206/47/95
f 194/22/96 200/23/96 193/24/96
f 194/24/97 202/34/97 201/23/97
f 195/24/98 203/34/98 202/23/98
f 197/22/99 203/23/99 196/24/99
f 197/24/100 205/34/100 204/23/100
f 198/24/101 206/34/101 205/23/101
f 199/24/102 200/34/102 206/23/102
f 218/48/103 219/49/103 215/50/103
f 207/39/104 215/40/104 214/41/104
f 209/51/105 215/41/105 208/39/105
f 210/51/106 216/41/106 209/39/106
f 210/39/107 218/40/107 217/41/107
f 211/39/108 219/40/108 218/41/108
f 213/51/109 219/41/109 212/39/109
f 213/39/110 214/40/110 220/41/110
f 229/52/111 226/53/111 228/54/111
f 221/18/112 227/19/112 226/20/112
f 222/18/113 228/19/113 227/20/113
f 223/18/114 229/19/114 228/20/114
f 224/18/115 230/19/115 229/20/115
f 225/18/116 226/19/116 230/20/116
f 240/55/117 241/56/117 237/53/117
f 231/18/118 238/19/118 237/20/118
f 232/18/119 239/19/119 238/20/119
f 233/18/120 240/19/120 239/20/120
f 234/18/121 241/19/121 240/20/121
f 236/21/122 241/20/122 235/18/122
f 236/18/123 237/19/123 242/20/123
f 254/48/124 255/49/124 256/57/124
f 243/39/125 251/40/125 250/41/125
f 244/39/126 252/40/126 251/41/126
f 245/39/127 253/40/127 252/41/127
f 246/39/128 254/40/128 253/41/128
f 247/39/129 255/40/129 254/41/129
f 248/39/130 256/40/130 255/41/130
f 249/39/131 250/40/131 256/41/131
f 263/28/132 264/58/132 265/29/132
f 258/1/133 262/2/133 257/3/133
f 259/1/134 263/2/134 258/3/134
f 260/1/135 264/2/135 259/3/135
f 261/1/136 265/2/136 260/3/136
f 261/3/137 262/4/137 266/2/137
f 274/58/138 275/29/138 276/30/138
f 267/3/139 273/4/139 272/2/139
f 268/3/140 274/4/140 273/2/140
f 269/3/141 275/4/141 274/2/141
f 270/3/142 276/4/142 275/2/142
f 271/3/143 272/4/143 276/2/143
f 289/59/144 290/60/144 285/27/144
f 277/3/145 285/4/145 284/2/145
f 278/3/146 286/4/146 285/2/146
f 279/3/147 287/4/147 286/2/147
f 280/3/148 288/4/148 287/2/148
f 281/3/149 289/4/149 288/2/149
f 282/3/150 290/4/150 289/2/150
f 283/3/151 284/4/151 290/2/151
f 300/61/152 301/44/152 297/62/152
f 291/24/153 298/34/153 297/23/153
f 292/24/154 299/34/154 298/23/154
f 293/24/155 300/34/155 299/23/155
f 294/24/156 301/34/156 300/23/156
f 295/24/157 302/34/157 301/23/157
f 296/24/158 297/34/158 302/23/158
f 315/49/159 316/57/159 312/63/159
f 303/39/160 311/40/160 310/41/160
f 304/39/161 312/40/161 311/41/161
f 305/39/162 313/40/162 312/41/162
f 306/39/163 314/40/163 313/41/163
f 307/39/164 315/40/164 314/41/164
f 308/39/165 316/40/165 315/41/165
f 309/39/166 310/40/166 316/41/166
f 317/24/167 319/34/167 318/23/167
f 321/24/168 323/34/168 324/23/168
f 318/22/169 321/23/169 317/24/169
f 319/22/170 322/23/170 318/24/170
f 320/22/171 323/23/171 319/24/171
f 317/22/172 324/23/172 320/24/172
f 328/22/173 326/23/173 325/24/173
f 330/22/174 332/23/174 329/24/174
f 325/24/175 330/34/175 329/23/175
f 326/24/176 331/34/176 330/23/176
f 328/22/177 331/23/177 327/24/177
f 325/22/178 332/23/178 328/24/178
f 4/1/1 3/4/1 2/2/1
f 6/1/2 7/4/2 8/2/2
f 2/1/3 6/4/3 5/2/3
f 3/1/4 7/4/4 6/2/4
f 4/1/5 8/4/5 7/2/5
f 1/1/6 5/4/6 8/2/6
f 12/1/1 11/4/1 10/2/1
f 14/1/2 15/4/2 16/2/2
f 10/1/3 14/4/3 13/2/3
f 11/1/4 15/4/4 14/2/4
f 12/1/5 16/4/5 15/2/5
f 9/1/6 13/4/6 16/2/6
f 20/1/1 19/4/1 18/2/1
f 22/1/2 23/4/2 24/2/2
f 18/1/3 22/4/3 21/2/3
f 19/1/4 23/4/4 22/2/4
f 20/1/5 24/4/5 23/2/5
f 17/1/6 21/4/6 24/2/6
f 28/1/1 27/4/1 26/2/1
f 30/1/2 31/4/2 32/2/2
f 26/1/3 30/4/3 29/2/3
f 27/1/4 31/4/4 30/2/4
f 28/1/5 32/4/5 31/2/5
f 25/1/6 29/4/6 32/2/6
f 33/3/1 36/1/1 35/4/1
f 37/3/2 38/1/2 39/4/2
f 34/1/3 38/4/3 37/2/3
f 35/1/4 39/4/4 38/2/4
f 36/1/5 40/4/5 39/2/5
f 33/1/6 37/4/6 40/2/6
f 41/7/7 47/14/7 43/5/7
f 47/14/7 46/64/7 45/8/7
f 43/5/7 47/14/7 45/8/7
f 45/8/7 44/65/7 43/5/7
f 54/7/8 48/14/8 50/8/8
f 48/14/8 49/64/8 50/8/8
f 50/8/8 51/65/8 52/5/8
f 52/5/8 53/6/8 54/7/8
f 42/9/2 49/66/2 48/10/2
f 43/9/9 50/66/9 49/10/9
f 44/9/10 51/66/10 50/10/10
f 45/9/11 52/66/11 51/10/11
f 46/9/12 53/66/12 52/10/12
f 47/9/13 54/66/13 53/10/13
f 41/9/14 48/66/14 54/10/14
f 55/15/7 60/14/7 56/13/7
f 60/14/7 59/17/7 57/12/7
f 59/17/7 58/16/7 57/12/7
f 66/15/8 61/14/8 62/17/8
f 62/17/8 63/16/8 66/15/8
f 63/16/8 64/12/8 65/13/8
f 56/9/2 62/66/2 61/10/2
f 57/9/15 63/66/15 62/10/15
f 58/9/16 64/66/16 63/10/16
f 59/9/17 65/66/17 64/10/17
f 60/9/18 66/66/18 65/10/18
f 55/9/19 61/66/19 66/10/19
f 72/14/7 71/17/7 68/13/7
f 71/17/7 70/16/7 68/13/7
f 70/16/7 69/12/7 68/13/7
f 78/15/8 73/14/8 74/17/8
f 74/17/8 75/16/8 76/12/8
f 76/12/8 77/13/8 74/17/8
f 68/9/20 74/66/20 73/10/20
f 69/9/21 75/66/21 74/10/21
f 70/9/22 76/66/22 75/10/22
f 71/9/23 77/66/23 76/10/23
f 72/9/24 78/66/24 77/10/24
f 67/9/25 73/66/25 78/10/25
f 82/18/7 81/21/7 80/19/7
f 84/21/8 85/19/8 86/20/8
f 80/21/2 84/19/2 83/20/2
f 81/21/26 85/19/26 84/20/26
f 82/21/27 86/19/27 85/20/27
f 79/21/28 83/19/28 86/20/28
f 87/3/29 90/1/29 89/4/29
f 92/1/30 93/4/30 94/2/30
f 87/3/31 88/1/31 92/4/31
f 89/1/32 93/4/32 92/2/32
f 90/1/33 94/4/33 93/2/33
f 87/1/34 91/4/34 94/2/34
f 98/22/35 97/34/35 96/23/35
f 100/22/36 101/34/36 102/23/36
f 96/22/179 100/34/179 99/23/179
f 97/22/38 101/34/38 100/23/38
f 98/22/180 102/34/180 101/23/180
f 95/22/40 99/34/40 102/23/40
f 106/22/41 105/34/41 104/23/41
f 108/22/42 109/34/42 110/23/42
f 104/22/43 108/34/43 107/23/43
f 105/22/44 109/34/44 108/23/44
f 106/22/45 110/34/45 109/23/45
f 103/22/46 107/34/46 110/23/46
f 124/60/181 118/67/181 123/59/181
f 118/67/182 119/27/182 122/26/182
f 123/59/183 118/67/183 122/26/183
f 119/27/184 120/68/184 121/25/184
f 111/3/185 112/1/185 119/4/185
f 112/3/186 113/1/186 120/4/186
f 113/3/187 114/1/187 121/4/187
f 114/3/188 115/1/188 122/4/188
f 115/3/189 116/1/189 123/4/189
f 116/3/190 117/1/190 124/4/190
f 117/3/191 111/1/191 118/4/191
f 134/30/192 130/67/192 131/28/192
f 131/28/193 132/58/193 133/29/193
f 125/3/194 126/1/194 131/4/194
f 127/1/195 132/4/195 131/2/195
f 127/3/196 128/1/196 133/4/196
f 128/3/197 129/1/197 134/4/197
f 129/3/198 125/1/198 130/4/198
f 144/33/199 140/62/199 141/35/199
f 141/35/200 142/31/200 144/33/200
f 135/24/201 136/22/201 141/34/201
f 136/24/202 137/22/202 142/34/202
f 137/24/203 138/22/203 143/34/203
f 138/24/204 139/22/204 144/34/204
f 139/24/205 135/22/205 140/34/205
f 154/33/206 150/62/206 153/32/206
f 150/62/207 151/35/207 153/32/207
f 146/22/208 151/34/208 150/23/208
f 147/22/209 152/34/209 151/23/209
f 147/24/210 148/22/210 153/34/210
f 149/22/211 154/34/211 153/23/211
f 145/22/212 150/34/212 154/23/212
f 166/69/213 161/38/213 165/37/213
f 161/38/214 162/70/214 163/71/214
f 164/36/215 161/38/215 163/71/215
f 155/39/216 156/51/216 162/40/216
f 156/39/217 157/51/217 163/40/217
f 157/39/218 158/51/218 164/40/218
f 158/39/219 159/51/219 165/40/219
f 159/39/220 160/51/220 166/40/220
f 160/39/221 155/51/221 161/40/221
f 180/60/222 174/67/222 179/59/222
f 174/67/223 175/27/223 178/26/223
f 179/59/224 174/67/224 178/26/224
f 175/27/225 176/68/225 177/25/225
f 168/1/226 175/4/226 174/2/226
f 169/1/227 176/4/227 175/2/227
f 169/3/228 170/1/228 177/4/228
f 171/1/229 178/4/229 177/2/229
f 172/1/230 179/4/230 178/2/230
f 173/1/231 180/4/231 179/2/231
f 167/1/232 174/4/232 180/2/232
f 192/42/233 187/62/233 189/43/233
f 187/62/234 188/72/234 189/43/234
f 189/43/235 190/61/235 191/44/235
f 181/24/236 182/22/236 188/34/236
f 183/22/237 189/34/237 188/23/237
f 184/22/238 190/34/238 189/23/238
f 185/22/239 191/34/239 190/23/239
f 185/24/240 186/22/240 192/34/240
f 181/22/241 187/34/241 192/23/241
f 206/47/242 200/62/242 202/45/242
f 200/62/243 201/73/243 202/45/243
f 202/45/244 203/74/244 204/46/244
f 206/47/245 204/46/245 205/75/245
f 194/22/246 201/34/246 200/23/246
f 194/24/247 195/22/247 202/34/247
f 195/24/248 196/22/248 203/34/248
f 197/22/249 204/34/249 203/23/249
f 197/24/250 198/22/250 205/34/250
f 198/24/251 199/22/251 206/34/251
f 199/24/252 193/22/252 200/34/252
f 220/57/253 214/38/253 219/49/253
f 214/38/254 215/50/254 219/49/254
f 215/50/255 216/63/255 218/48/255
f 216/63/256 217/76/256 218/48/256
f 207/39/257 208/51/257 215/40/257
f 209/51/258 216/40/258 215/41/258
f 210/51/259 217/40/259 216/41/259
f 210/39/260 211/51/260 218/40/260
f 211/39/261 212/51/261 219/40/261
f 213/51/262 220/40/262 219/41/262
f 213/39/263 207/51/263 214/40/263
f 230/77/264 226/53/264 229/52/264
f 226/53/265 227/78/265 228/54/265
f 221/18/266 222/21/266 227/19/266
f 222/18/267 223/21/267 228/19/267
f 223/18/268 224/21/268 229/19/268
f 224/18/269 225/21/269 230/19/269
f 225/18/270 221/21/270 226/19/270
f 242/79/271 237/53/271 241/56/271
f 237/53/272 238/80/272 240/55/272
f 238/80/273 239/81/273 240/55/273
f 231/18/274 232/21/274 238/19/274
f 232/18/275 233/21/275 239/19/275
f 233/18/276 234/21/276 240/19/276
f 234/18/277 235/21/277 241/19/277
f 236/21/278 242/19/278 241/20/278
f 236/18/279 231/21/279 237/19/279
f 256/57/280 250/38/280 254/48/280
f 250/38/281 251/50/281 253/76/281
f 251/50/282 252/63/282 253/76/282
f 253/76/283 254/48/283 250/38/283
f 243/39/284 244/51/284 251/40/284
f 244/39/285 245/51/285 252/40/285
f 245/39/286 246/51/286 253/40/286
f 246/39/287 247/51/287 254/40/287
f 247/39/288 248/51/288 255/40/288
f 248/39/289 249/51/289 256/40/289
f 249/39/290 243/51/290 250/40/290
f 266/30/291 262/67/291 265/29/291
f 262/67/292 263/28/292 265/29/292
f 258/1/293 263/4/293 262/2/293
f 259/1/294 264/4/294 263/2/294
f 260/1/295 265/4/295 264/2/295
f 261/1/296 266/4/296 265/2/296
f 261/3/297 257/1/297 262/4/297
f 276/30/298 272/67/298 273/28/298
f 273/28/299 274/58/299 276/30/299
f 267/3/300 268/1/300 273/4/300
f 268/3/301 269/1/301 274/4/301
f 269/3/302 270/1/302 275/4/302
f 270/3/303 271/1/303 276/4/303
f 271/3/304 267/1/304 272/4/304
f 290/60/305 284/67/305 285/27/305
f 285/27/306 286/68/306 289/59/306
f 286/68/307 287/25/307 288/26/307
f 289/59/308 286/68/308 288/26/308
f 277/3/309 278/1/309 285/4/309
f 278/3/310 279/1/310 286/4/310
f 279/3/311 280/1/311 287/4/311
f 280/3/312 281/1/312 288/4/312
f 281/3/313 282/1/313 289/4/313
f 282/3/314 283/1/314 290/4/314
f 283/3/315 277/1/315 284/4/315
f 302/42/316 297/62/316 301/44/316
f 297/62/317 298/72/317 300/61/317
f 298/72/318 299/43/318 300/61/318
f 291/24/319 292/22/319 298/34/319
f 292/24/320 293/22/320 299/34/320
f 293/24/321 294/22/321 300/34/321
f 294/24/322 295/22/322 301/34/322
f 295/24/323 296/22/323 302/34/323
f 296/24/324 291/22/324 297/34/324
f 316/57/325 310/38/325 311/50/325
f 311/50/326 312/63/326 316/57/326
f 312/63/327 313/76/327 314/48/327
f 315/49/328 312/63/328 314/48/328
f 303/39/329 304/51/329 311/40/329
f 304/39/330 305/51/330 312/40/330
f 305/39/331 306/51/331 313/40/331
f 306/39/332 307/51/332 314/40/332
f 307/39/333 308/51/333 315/40/333
f 308/39/334 309/51/334 316/40/334
f 309/39/335 303/51/335 310/40/335
f 317/24/167 320/22/167 319/34/167
f 321/24/168 322/22/168 323/34/168
f 318/22/169 322/34/169 321/23/169
f 319/22/170 323/34/170 322/23/170
f 320/22/171 324/34/171 323/23/171
f 317/22/172 321/34/172 324/23/172
f 328/22/173 327/34/173 326/23/173
f 330/22/174 331/34/174 332/23/174
f 325/24/175 326/22/175 330/34/175
f 326/24/176 327/22/176 331/34/176
f 328/22/177 332/34/177 331/23/177
f 325/22/178 329/34/178 332/23/178
