# Blender 4.4.3
# www.blender.org
o ruin_crater
v 3.532901 0.216880 0.068767
v 3.653075 0.188096 -1.179500
v 2.557572 0.861696 -0.823550
v 2.562263 0.966984 0.068767
v 3.653075 0.188096 -1.179500
v 2.975450 0.235115 -2.230119
v 2.676385 0.929716 -2.012837
v 2.557572 0.861696 -0.823550
v 2.975450 0.235115 -2.230119
v 2.171681 0.228132 -3.180013
v 1.675984 0.828258 -2.497744
v 2.676385 0.929716 -2.012837
v 2.171681 0.228132 -3.180013
v 0.809182 0.237560 -3.002385
v 0.728706 0.883940 -2.754704
v 1.675984 0.828258 -2.497744
v 0.809182 0.237560 -3.002385
v -0.188696 0.230413 -3.098762
v -0.188696 0.921778 -2.981196
v 0.728706 0.883940 -2.754704
v -0.188696 0.230413 -3.098762
v -1.281452 0.263929 -3.294392
v -1.225076 0.793982 -3.120886
v -0.188696 0.921778 -2.981196
v -1.281452 0.263929 -3.294392
v -2.310721 0.202808 -2.851950
v -2.050928 0.849718 -2.494376
v -1.225076 0.793982 -3.120886
v -2.310721 0.202808 -2.851950
v -2.797798 0.245319 -1.826857
v -3.010558 0.925522 -1.981436
v -2.050928 0.849718 -2.494376
v -2.797798 0.245319 -1.826857
v -3.123387 0.200295 -0.884773
v -3.059347 0.800695 -0.863965
v -3.010558 0.925522 -1.981436
v -3.123387 0.200295 -0.884773
v -3.755347 0.233130 0.068767
v -3.550573 0.905964 0.068767
v -3.059347 0.800695 -0.863965
v -3.755347 0.233130 0.068767
v -3.814215 0.218059 1.246769
v -2.816003 0.891497 0.922431
v -3.550573 0.905964 0.068767
v -3.814215 0.218059 1.246769
v -3.282376 0.224785 2.316457
v -2.586597 0.925314 1.810944
v -2.816003 0.891497 0.922431
v -3.282376 0.224785 2.316457
v -2.146290 0.236826 2.763164
v -2.008198 0.846097 2.573097
v -2.586597 0.925314 1.810944
v -2.146290 0.236826 2.763164
v -1.195510 0.258156 3.167423
v -1.128815 0.825680 2.962156
v -2.008198 0.846097 2.573097
v -1.195510 0.258156 3.167423
v -0.188696 0.255554 4.093187
v -0.188696 0.827968 3.207336
v -1.128815 0.825680 2.962156
v -0.188696 0.255554 4.093187
v 0.868807 0.257652 3.323426
v 0.711656 0.935025 2.839764
v -0.188696 0.827968 3.207336
v 0.868807 0.257652 3.323426
v 1.932500 0.242502 2.988342
v 1.407042 0.776232 2.265111
v 0.711656 0.935025 2.839764
v 1.932500 0.242502 2.988342
v 3.046403 0.189100 2.419203
v 2.186962 0.759787 1.794783
v 1.407042 0.776232 2.265111
v 3.046403 0.189100 2.419203
v 3.279841 0.245809 1.195762
v 2.737411 0.821225 1.019516
v 2.186962 0.759787 1.794783
v 3.279841 0.245809 1.195762
v 3.532901 0.216880 0.068767
v 2.562263 0.966984 0.068767
v 2.737411 0.821225 1.019516
v 2.562263 0.966984 0.068767
v 2.557572 0.861696 -0.823550
v 1.889742 1.093529 -0.606559
v 1.936887 0.935291 0.068767
v 2.557572 0.861696 -0.823550
v 2.676385 0.929716 -2.012837
v 1.592997 1.048787 -1.225709
v 1.889742 1.093529 -0.606559
v 2.676385 0.929716 -2.012837
v 1.675984 0.828258 -2.497744
v 1.167159 1.080506 -1.797407
v 1.592997 1.048787 -1.225709
v 1.675984 0.828258 -2.497744
v 0.728706 0.883940 -2.754704
v 0.427823 0.997388 -1.828681
v 1.167159 1.080506 -1.797407
v 0.728706 0.883940 -2.754704
v -0.188696 0.921778 -2.981196
v -0.188696 1.001189 -2.075052
v 0.427823 0.997388 -1.828681
v -0.188696 0.921778 -2.981196
v -1.225076 0.793982 -3.120886
v -0.857564 1.084378 -1.989798
v -0.188696 1.001189 -2.075052
v -1.225076 0.793982 -3.120886
v -2.050928 0.849718 -2.494376
v -1.417427 1.048152 -1.622437
v -0.857564 1.084378 -1.989798
v -2.050928 0.849718 -2.494376
v -3.010558 0.925522 -1.981436
v -2.192033 0.907734 -1.386743
v -1.417427 1.048152 -1.622437
v -3.010558 0.925522 -1.981436
v -3.059347 0.800695 -0.863965
v -2.349431 1.030630 -0.633299
v -2.192033 0.907734 -1.386743
v -3.059347 0.800695 -0.863965
v -3.550573 0.905964 0.068767
v -2.400908 1.114282 0.068767
v -2.349431 1.030630 -0.633299
v -3.550573 0.905964 0.068767
v -2.816003 0.891497 0.922431
v -2.162065 0.913002 0.709953
v -2.400908 1.114282 0.068767
v -2.816003 0.891497 0.922431
v -2.586597 0.925314 1.810944
v -2.019696 0.941967 1.399066
v -2.162065 0.913002 0.709953
v -2.586597 0.925314 1.810944
v -2.008198 0.846097 2.573097
v -1.707582 1.086716 2.159335
v -2.019696 0.941967 1.399066
v -2.008198 0.846097 2.573097
v -1.128815 0.825680 2.962156
v -0.812444 0.989184 1.988468
v -1.707582 1.086716 2.159335
v -1.128815 0.825680 2.962156
v -0.188696 0.827968 3.207336
v -0.188696 0.919525 2.456661
v -0.812444 0.989184 1.988468
v -0.188696 0.827968 3.207336
v 0.711656 0.935025 2.839764
v 0.447388 1.086632 2.026429
v -0.188696 0.919525 2.456661
v 0.711656 0.935025 2.839764
v 1.407042 0.776232 2.265111
v 1.047843 1.058610 1.770716
v 0.447388 1.086632 2.026429
v 1.407042 0.776232 2.265111
v 2.186962 0.759787 1.794783
v 1.612780 1.067841 1.377615
v 1.047843 1.058610 1.770716
v 2.186962 0.759787 1.794783
v 2.737411 0.821225 1.019516
v 1.859962 1.077207 0.734416
v 1.612780 1.067841 1.377615
v 2.737411 0.821225 1.019516
v 2.562263 0.966984 0.068767
v 1.936887 0.935291 0.068767
v 1.859962 1.077207 0.734416
v 1.936887 0.935291 0.068767
v 1.889742 1.093529 -0.606559
v 1.200480 0.329774 -0.382604
v 1.538463 0.364086 0.068767
v 1.889742 1.093529 -0.606559
v 1.592997 1.048787 -1.225709
v 0.937209 0.346419 -0.749251
v 1.200480 0.329774 -0.382604
v 1.592997 1.048787 -1.225709
v 1.167159 1.080506 -1.797407
v 0.665357 0.365579 -1.106737
v 0.937209 0.346419 -0.749251
v 1.167159 1.080506 -1.797407
v 0.427823 0.997388 -1.828681
v 0.234921 0.352457 -1.234992
v 0.665357 0.365579 -1.106737
v 0.427823 0.997388 -1.828681
v -0.188696 1.001189 -2.075052
v -0.188696 0.365427 -1.541662
v 0.234921 0.352457 -1.234992
v -0.188696 1.001189 -2.075052
v -0.857564 1.084378 -1.989798
v -0.684370 0.389304 -1.456763
v -0.188696 0.365427 -1.541662
v -0.857564 1.084378 -1.989798
v -1.417427 1.048152 -1.622437
v -1.222833 0.326877 -1.354601
v -0.684370 0.389304 -1.456763
v -1.417427 1.048152 -1.622437
v -2.192033 0.907734 -1.386743
v -1.503125 0.382443 -0.886223
v -1.222833 0.326877 -1.354601
v -2.192033 0.907734 -1.386743
v -2.349431 1.030630 -0.633299
v -1.745276 0.328244 -0.436997
v -1.503125 0.382443 -0.886223
v -2.349431 1.030630 -0.633299
v -2.400908 1.114282 0.068767
v -1.621546 0.355324 0.068767
v -1.745276 0.328244 -0.436997
v -2.400908 1.114282 0.068767
v -2.162065 0.913002 0.709953
v -1.775177 0.373552 0.584246
v -1.621546 0.355324 0.068767
v -2.162065 0.913002 0.709953
v -2.019696 0.941967 1.399066
v -1.595716 0.379010 1.091027
v -1.775177 0.373552 0.584246
v -2.019696 0.941967 1.399066
v -1.707582 1.086716 2.159335
v -1.169725 0.374887 1.419038
v -1.595716 0.379010 1.091027
v -1.707582 1.086716 2.159335
v -0.812444 0.989184 1.988468
v -0.717419 0.330229 1.696011
v -1.169725 0.374887 1.419038
v -0.812444 0.989184 1.988468
v -0.188696 0.919525 2.456661
v -0.188696 0.357627 1.658389
v -0.717419 0.330229 1.696011
v -0.188696 0.919525 2.456661
v 0.447388 1.086632 2.026429
v 0.341290 0.357764 1.699896
v -0.188696 0.357627 1.658389
v 0.447388 1.086632 2.026429
v 1.047843 1.058610 1.770716
v 0.745389 0.345973 1.354423
v 0.341290 0.357764 1.699896
v 1.047843 1.058610 1.770716
v 1.612780 1.067841 1.377615
v 1.045539 0.335434 0.965491
v 0.745389 0.345973 1.354423
v 1.612780 1.067841 1.377615
v 1.859962 1.077207 0.734416
v 1.344252 0.385117 0.566851
v 1.045539 0.335434 0.965491
v 1.859962 1.077207 0.734416
v 1.936887 0.935291 0.068767
v 1.538463 0.364086 0.068767
v 1.344252 0.385117 0.566851
v 1.538463 0.364086 0.068767
v 1.200480 0.329774 -0.382604
v 0.403598 0.213925 -0.123681
v 0.489427 0.165855 0.068767
v 1.200480 0.329774 -0.382604
v 0.937209 0.346419 -0.749251
v 0.351043 0.162958 -0.323376
v 0.403598 0.213925 -0.123681
v 0.937209 0.346419 -0.749251
v 0.665357 0.365579 -1.106737
v 0.189411 0.194775 -0.451652
v 0.351043 0.162958 -0.323376
v 0.665357 0.365579 -1.106737
v 0.234921 0.352457 -1.234992
v 0.006681 0.194423 -0.532542
v 0.189411 0.194775 -0.451652
v 0.234921 0.352457 -1.234992
v -0.188696 0.365427 -1.541662
v -0.188696 0.142575 -0.669166
v 0.006681 0.194423 -0.532542
v -0.188696 0.365427 -1.541662
v -0.684370 0.389304 -1.456763
v -0.412514 0.141379 -0.620075
v -0.188696 0.142575 -0.669166
v -0.684370 0.389304 -1.456763
v -1.222833 0.326877 -1.354601
v -0.593631 0.208410 -0.488579
v -0.412514 0.141379 -0.620075
v -1.222833 0.326877 -1.354601
v -1.503125 0.382443 -0.886223
v -0.736836 0.184629 -0.329481
v -0.593631 0.208410 -0.488579
v -1.503125 0.382443 -0.886223
v -1.745276 0.328244 -0.436997
v -0.800731 0.151305 -0.130096
v -0.736836 0.184629 -0.329481
v -1.745276 0.328244 -0.436997
v -1.621546 0.355324 0.068767
v -0.759358 0.152275 0.068767
v -0.800731 0.151305 -0.130096
v -1.621546 0.355324 0.068767
v -1.775177 0.373552 0.584246
v -0.878817 0.198535 0.293001
v -0.759358 0.152275 0.068767
v -1.775177 0.373552 0.584246
v -1.595716 0.379010 1.091027
v -0.688897 0.190282 0.432184
v -0.878817 0.198535 0.293001
v -1.595716 0.379010 1.091027
v -1.169725 0.374887 1.419038
v -0.586642 0.166239 0.616492
v -0.688897 0.190282 0.432184
v -1.169725 0.374887 1.419038
v -0.717419 0.330229 1.696011
v -0.403734 0.163481 0.730586
v -0.586642 0.166239 0.616492
v -0.717419 0.330229 1.696011
v -0.188696 0.357627 1.658389
v -0.188696 0.212884 0.628506
v -0.403734 0.163481 0.730586
v -0.188696 0.357627 1.658389
v 0.341290 0.357764 1.699896
v 0.033757 0.157078 0.753404
v -0.188696 0.212884 0.628506
v 0.341290 0.357764 1.699896
v 0.745389 0.345973 1.354423
v 0.144530 0.154199 0.527413
v 0.033757 0.157078 0.753404
v 0.745389 0.345973 1.354423
v 1.045539 0.335434 0.965491
v 0.355505 0.176591 0.464152
v 0.144530 0.154199 0.527413
v 1.045539 0.335434 0.965491
v 1.344252 0.385117 0.566851
v 0.490855 0.208282 0.289566
v 0.355505 0.176591 0.464152
v 1.344252 0.385117 0.566851
v 1.538463 0.364086 0.068767
v 0.489427 0.165855 0.068767
v 0.490855 0.208282 0.289566
v -0.188696 0.155122 0.068767
v -1.123755 0.109051 3.287155
v -0.793925 0.091480 3.154778
v -0.761505 0.135394 2.942407
v -1.085158 0.116951 2.852704
v -1.318429 0.078843 3.044585
v -0.956752 0.380799 3.294384
v -0.644169 0.372552 3.098873
v -0.845732 0.432324 2.872340
v -1.245716 0.420619 2.869065
v -1.271361 0.414682 3.133053
v 2.903653 0.028153 -2.632527
v 2.299881 0.088831 -2.526737
v 2.443087 0.014631 -2.166900
v 2.866990 0.037960 -2.044788
v 3.087604 0.007280 -2.307241
v 2.941863 0.487121 -2.560265
v 2.412036 0.478140 -2.536534
v 2.296624 0.476787 -2.164268
v 2.811129 0.432931 -1.980447
v 3.088263 0.440672 -2.268431
v 0.418162 0.159060 -3.884519
v 0.588362 0.146812 -3.827279
v 0.699176 0.145290 -3.935424
v 0.634072 0.149954 -4.038764
v 0.480292 0.160208 -4.063235
v 0.317912 0.156064 -3.994201
v 0.581510 0.356660 -4.093187
v 0.419149 0.345239 -4.035155
v 0.326738 0.358076 -3.927754
v 0.485175 0.356909 -3.862864
v 0.663078 0.353075 -3.869206
v 0.705819 0.348258 -3.992733
v 2.743427 0.016468 0.713975
v 2.307666 0.057267 0.889376
v 2.369634 0.081425 1.175630
v 2.662184 0.072999 1.411748
v 3.033753 0.087068 1.221295
v 3.105740 0.094577 0.940913
v 3.056292 0.443265 1.290591
v 3.095672 0.480041 0.989864
v 2.786452 0.437021 0.827570
v 2.456982 0.490498 0.916831
v 2.236398 0.459955 1.164012
v 2.586101 0.479513 1.401969
v -1.305861 0.171079 3.151510
v -1.243081 0.170315 3.033024
v -1.366496 0.134754 2.928530
v -1.558944 0.153283 2.940836
v -1.649747 0.165833 3.040893
v -1.616809 0.144733 3.149750
v -1.463800 0.143138 3.207523
v -1.565988 0.344158 2.912002
v -1.706684 0.375583 3.023987
v -1.636163 0.336834 3.151130
v -1.473826 0.333154 3.200597
v -1.318586 0.345364 3.153087
v -1.267764 0.367234 3.043785
v -1.372764 0.348153 2.952673
v 0.590267 0.098008 3.311606
v 0.333218 0.072120 3.497799
v 0.317321 0.091470 3.774597
v 0.698861 0.034166 3.916305
v 1.074125 0.087813 3.798822
v 1.136029 0.032050 3.552955
v 0.998278 0.079200 3.306065
v 0.450368 0.451109 3.418971
v 0.344077 0.452384 3.638203
v 0.558489 0.434187 3.822356
v 0.952009 0.414742 3.904600
v 1.169006 0.459367 3.663427
v 1.034907 0.468754 3.444697
v 0.756943 0.464975 3.364526
v 3.826465 0.127223 -0.725800
v 3.705563 0.123257 -0.972285
v 3.277941 0.075208 -0.914741
v 3.271907 0.092341 -0.642783
v 3.611934 0.105815 -0.543579
v 3.503879 0.413487 -0.918324
v 3.250960 0.376036 -0.774171
v 3.427577 0.379698 -0.576591
v 3.738917 0.382180 -0.627412
v 3.824904 0.428853 -0.845815
v -2.519515 0.096524 2.093972
v -2.664579 0.124259 2.224836
v -2.698278 0.082723 2.430518
v -2.387858 0.097586 2.515848
v -2.188303 0.090785 2.369554
v -2.103913 0.078850 2.217114
v -2.252892 0.122058 2.063423
v -2.466647 0.439667 2.474500
v -2.191767 0.433850 2.433531
v -2.011572 0.386419 2.265012
v -2.207880 0.440902 2.110747
v -2.455812 0.417033 2.075202
v -2.716947 0.415962 2.158286
v -2.733661 0.436512 2.371732
v -0.613754 0.098794 -3.283554
v -0.816696 0.137048 -3.179841
v -0.821027 0.132563 -2.961982
v -0.470489 0.081251 -2.887885
v -0.197905 0.120749 -3.058199
v -0.320848 0.111977 -3.279201
v -0.409223 0.402647 -3.344275
v -0.771575 0.392452 -3.330236
v -0.817948 0.394504 -3.112844
v -0.662646 0.394305 -2.976917
v -0.346202 0.411738 -2.929751
v -0.280861 0.382383 -3.146074
v -2.876416 0.004232 1.082345
v -3.450579 0.050326 1.147247
v -3.476625 0.072570 1.492096
v -3.245663 0.070916 1.751710
v -2.811606 0.059646 1.658370
v -2.584237 0.068542 1.389242
v -2.685494 0.474762 1.353158
v -3.001795 0.438228 1.173053
v -3.362302 0.477528 1.284119
v -3.577505 0.513071 1.564760
v -3.173811 0.437658 1.797086
v -2.696788 0.427767 1.661890
v -0.014307 0.132504 -3.272787
v -0.134907 0.153728 -3.131834
v 0.035331 0.156064 -3.021358
v 0.269045 0.153765 -3.015997
v 0.437143 0.105062 -3.174201
v 0.239039 0.112012 -3.331306
v 0.099445 0.368766 -2.991758
v 0.313028 0.357379 -3.060759
v 0.332835 0.388493 -3.216750
v 0.148045 0.384583 -3.361094
v -0.132594 0.372887 -3.268881
v -0.081032 0.382483 -3.088169
v 1.349175 0.013607 -3.924788
v 0.907754 0.020354 -3.938049
v 0.551638 0.000000 -3.683034
v 0.914046 0.021234 -3.441882
v 1.387617 0.050992 -3.361072
v 1.724984 0.024364 -3.669468
v 0.943670 0.456067 -4.022799
v 0.530854 0.450489 -3.751478
v 0.818853 0.507474 -3.439054
v 1.280593 0.528033 -3.380455
v 1.563002 0.455961 -3.621134
v 1.462411 0.465908 -3.937396
v -3.483226 0.146127 1.578120
v -3.697721 0.162447 1.655290
v -3.818429 0.120246 1.767458
v -3.749403 0.139756 1.912315
v -3.518966 0.133845 1.966519
v -3.363020 0.122537 1.851558
v -3.386877 0.136783 1.726020
v -3.269371 0.376054 1.789740
v -3.394298 0.359764 1.649493
v -3.607527 0.385040 1.611180
v -3.778624 0.376306 1.696895
v -3.773069 0.395607 1.831309
v -3.634353 0.387894 1.923726
v -3.448816 0.385724 1.891102
v 1.769995 0.072715 1.899391
v 1.735919 0.067620 2.176442
v 2.114921 0.093470 2.254144
v 2.479199 0.080928 2.251393
v 2.663961 0.039891 2.008978
v 2.485689 0.100581 1.747568
v 2.064909 0.067635 1.725087
v 2.108966 0.460847 2.232392
v 2.478612 0.419232 2.268873
v 2.523840 0.484138 2.020598
v 2.473961 0.407716 1.777279
v 2.079327 0.483059 1.716767
v 1.885241 0.463522 1.924325
v 1.848040 0.430990 2.126935
v -1.384432 0.087712 -2.585528
v -1.352432 0.060412 -2.763985
v -1.502909 0.072042 -2.929911
v -1.787522 0.101685 -2.888052
v -2.026667 0.097887 -2.755704
v -1.855962 0.087972 -2.585181
v -1.624444 0.091150 -2.452280
v -1.651140 0.391229 -2.912942
v -1.914950 0.398072 -2.846740
v -2.062690 0.440208 -2.638037
v -1.806831 0.451387 -2.466231
v -1.512891 0.422715 -2.541928
v -1.357372 0.406569 -2.671962
v -1.421644 0.408164 -2.834304
v 1.509642 0.104176 -3.303142
v 1.188530 0.110385 -3.314157
v 1.035892 0.150286 -3.114341
v 1.309511 0.107595 -2.989283
v 1.563416 0.136251 -3.097504
v 1.548623 0.397261 -3.317761
v 1.209381 0.402555 -3.306843
v 1.060390 0.376775 -3.127372
v 1.295391 0.394269 -2.981355
v 1.580562 0.400966 -3.083133
v -3.470249 0.069397 -0.556790
v -3.256401 0.089770 -0.695597
v -3.201725 0.095722 -0.895109
v -3.502792 0.115878 -1.045523
v -3.745556 0.102623 -0.865054
v -3.826465 0.102507 -0.629347
v -3.749584 0.426624 -0.813674
v -3.716671 0.385388 -0.605666
v -3.393888 0.390817 -0.583194
v -3.171194 0.433799 -0.728568
v -3.268755 0.380940 -0.932154
v -3.594201 0.402695 -1.005356
v -2.655308 0.121693 -2.176687
v -2.590209 0.103073 -1.975982
v -2.291977 0.136098 -2.014047
v -2.018201 0.105310 -2.082490
v -2.018299 0.113176 -2.301118
v -2.302430 0.075045 -2.373921
v -2.563441 0.117123 -2.343712
v -2.540575 0.403373 -2.365369
v -2.752186 0.395599 -2.205490
v -2.554632 0.395837 -2.044930
v -2.322531 0.376995 -2.012189
v -2.103457 0.398110 -2.082408
v -2.108727 0.437447 -2.246207
v -2.274095 0.416163 -2.358267
vn 0.6086 0.7876 -0.0961
vn 0.5449 0.8323 0.1020
vn 0.6726 0.4687 -0.5726
vn -0.0853 0.7166 -0.6923
vn 0.0869 0.3659 -0.9266
vn 0.1115 0.1666 -0.9797
vn -0.3898 0.3237 -0.8621
vn -0.7635 0.5190 -0.3843
vn -0.9465 -0.3134 -0.0763
vn -0.8743 0.1096 -0.4728
vn -0.9557 0.2909 -0.0440
vn -0.5324 0.8399 0.1055
vn -0.2600 0.7214 0.6418
vn -0.3729 0.3523 0.8584
vn -0.2367 0.3549 0.9044
vn 0.3661 0.7816 0.5051
vn 0.6026 0.5516 0.5767
vn 0.2782 0.8583 0.4313
vn 0.4801 0.8672 0.1318
vn 0.6990 0.7015 0.1390
vn -0.0492 0.9717 0.2311
vn 0.2645 0.9445 -0.1950
vn -0.0166 0.9850 -0.1718
vn 0.1254 0.9590 -0.2543
vn 0.0485 0.9932 -0.1059
vn 0.1121 0.9899 -0.0868
vn -0.0992 0.9711 -0.2171
vn -0.2004 0.9767 -0.0767
vn -0.0572 0.9925 0.1084
vn -0.2659 0.9547 -0.1333
vn -0.1758 0.9700 0.1677
vn -0.0435 0.9985 -0.0330
vn -0.1269 0.9827 -0.1350
vn -0.1593 0.8993 0.4073
vn -0.0114 0.9867 0.1620
vn -0.0684 0.9903 0.1208
vn 0.2876 0.9540 0.0844
vn 0.2297 0.9076 0.3515
vn 0.3755 0.9133 0.1576
vn 0.2479 0.9634 0.1020
vn -0.8056 0.5619 0.1879
vn -0.6730 0.6874 0.2729
vn -0.5019 0.7549 0.4221
vn -0.1106 0.7296 0.6749
vn -0.4161 0.6801 0.6036
vn 0.1601 0.6344 0.7562
vn 0.4029 0.6181 0.6750
vn 0.8121 0.3827 0.4406
vn 0.6076 0.7943 -0.0026
vn 0.7609 0.6485 -0.0215
vn 0.6972 0.7160 -0.0350
vn 0.7507 0.6019 -0.2723
vn 0.4587 0.6668 -0.5873
vn -0.0604 0.6972 -0.7143
vn -0.0855 0.3938 -0.9152
vn -0.5171 0.6999 -0.4927
vn -0.3377 0.4253 -0.8397
vn -0.6423 0.5712 -0.5111
vn -0.6176 0.6904 -0.3768
vn -0.7563 0.6165 -0.2188
vn -0.1853 0.9806 0.0642
vn -0.2020 0.9604 -0.1920
vn -0.0656 0.9461 0.3173
vn -0.0869 0.9776 0.1917
vn -0.3238 0.9401 0.1063
vn 0.0887 0.9651 0.2465
vn 0.4245 0.8964 0.1277
vn 0.1893 0.9819 -0.0032
vn 0.1196 0.9760 0.1822
vn 0.2159 0.9708 -0.1048
vn 0.2285 0.9704 -0.0784
vn 0.1691 0.9831 -0.0705
vn 0.2110 0.9774 0.0104
vn 0.1194 0.9786 -0.1677
vn -0.0643 0.9797 -0.1901
vn 0.3104 0.9413 -0.1323
vn -0.1165 0.9786 -0.1696
vn -0.1416 0.9820 -0.1248
vn -0.2256 0.9742 0.0019
vn -0.1411 0.9724 -0.1859
vn -0.2813 0.9532 -0.1110
vn 0.3090 -0.0000 0.9511
vn 0.3347 -0.9120 -0.2371
vn -0.3284 0.8949 -0.3023
vn -0.2394 0.9704 0.0316
vn 0.5878 -0.0000 0.8090
vn 0.3776 -0.9188 -0.1146
vn -0.4787 0.8004 -0.3610
vn -0.1651 0.9768 0.1362
vn 0.8090 -0.0000 0.5878
vn 0.2770 -0.9256 -0.2577
vn -0.5414 0.8218 -0.1778
vn -0.0100 0.9690 0.2469
vn 0.9511 -0.0000 0.3090
vn 0.1192 -0.9213 -0.3702
vn -0.5086 0.8592 0.0565
vn -0.0202 0.9696 0.2437
vn 1.0000 -0.0000 -0.0000
vn 0.1396 -0.9211 -0.3635
vn 0.2685 -0.9098 -0.3166
vn -0.0294 0.9994 0.0196
vn 0.3506 -0.2395 0.9054
vn 0.8851 -0.4638 0.0392
vn 0.2720 -0.1473 -0.9510
vn -0.5854 -0.2683 -0.7650
vn -0.7751 -0.0571 0.6292
vn 0.0753 0.9968 0.0270
vn -0.0469 0.1592 -0.9861
vn -0.9229 0.2587 -0.2852
vn -0.3429 -0.1140 0.9324
vn 0.7207 -0.0110 0.6932
vn 0.8956 0.0383 -0.4432
vn 0.0218 0.9997 0.0081
vn -0.2277 -0.6117 -0.7576
vn -0.5074 -0.7910 -0.3420
vn -0.3135 -0.5759 0.7550
vn 0.0135 -0.6419 0.7667
vn 0.5795 -0.7816 0.2310
vn 0.3778 -0.7585 -0.5310
vn -0.0867 0.9952 0.0456
vn 0.7878 -0.6153 0.0279
vn 0.4250 -0.6400 -0.6401
vn -0.3010 -0.4631 -0.8336
vn -0.4248 -0.7711 -0.4743
vn -0.3725 -0.7035 0.6052
vn 0.1145 -0.6953 0.7095
vn -0.2447 0.9663 0.0796
vn -0.3831 -0.8945 -0.2303
vn -0.4034 -0.9134 -0.0547
vn -0.1808 -0.8273 0.5319
vn 0.2203 -0.8342 0.5055
vn 0.4658 -0.8840 0.0397
vn 0.4356 -0.8389 -0.3264
vn 0.1406 -0.7954 -0.5896
vn -0.0931 0.9907 0.0996
vn -0.5874 0.0133 -0.8092
vn -0.9968 0.0509 -0.0608
vn -0.3326 0.1034 0.9374
vn 0.3174 -0.1825 0.9306
vn 0.9514 -0.1438 0.2722
vn 0.8769 0.0858 -0.4729
vn -0.0067 0.1457 -0.9893
vn 0.0084 0.9949 0.1003
vn -0.2585 -0.7225 -0.6412
vn -0.3468 -0.8794 0.3263
vn 0.1102 -0.7624 0.6377
vn 0.5265 -0.8498 0.0257
vn 0.1830 -0.7333 -0.6548
vn -0.0873 0.9944 -0.0587
vn 0.0827 -0.7458 0.6610
vn 0.2872 -0.7969 0.5314
vn 0.2184 -0.7991 -0.5601
vn 0.1611 -0.7871 -0.5954
vn -0.2006 -0.7418 -0.6399
vn -0.4847 -0.8734 0.0461
vn -0.1957 -0.8226 0.5338
vn -0.0330 0.9890 -0.1442
vn -0.0332 -0.1743 -0.9841
vn -0.9767 0.0496 -0.2088
vn -0.6023 0.4037 0.6887
vn -0.1547 0.1812 0.9712
vn 0.9048 0.3622 0.2241
vn 0.8378 0.1364 -0.5287
vn 0.0228 0.9997 0.0072
vn 0.4445 0.3045 -0.8424
vn -0.2426 0.3411 -0.9082
vn -0.7959 -0.0833 -0.5997
vn -0.5001 -0.0092 0.8659
vn 0.2697 -0.0933 0.9584
vn 0.9662 0.2473 0.0730
vn -0.0539 0.9978 -0.0376
vn 0.1517 -0.7860 0.5994
vn 0.4270 -0.8957 -0.1244
vn 0.3583 -0.8254 -0.4363
vn -0.1349 -0.8448 -0.5178
vn -0.4424 -0.8800 0.1730
vn -0.3204 -0.8143 0.4840
vn 0.2164 0.9755 -0.0382
vn 0.0265 -0.1930 -0.9808
vn -0.4823 -0.6683 0.5664
vn -0.5460 -0.1117 0.8303
vn -0.1683 0.0023 0.9857
vn 0.6720 0.1716 0.7204
vn 0.5577 -0.1623 -0.8140
vn 0.0102 0.9999 -0.0083
vn 0.7488 -0.0924 -0.6563
vn 0.1428 -0.2478 -0.9582
vn -0.4337 -0.1761 -0.8837
vn -0.9958 -0.0756 0.0520
vn -0.5552 -0.1134 0.8239
vn 0.1714 -0.0915 0.9809
vn 0.4283 -0.4230 0.7985
vn -0.0331 0.9984 0.0449
vn -0.1440 -0.5689 0.8097
vn 0.4383 -0.8859 -0.1518
vn 0.7107 -0.6996 0.0741
vn -0.0702 -0.8217 -0.5656
vn -0.3912 -0.8073 -0.4418
vn 0.0121 0.4539 -0.8910
vn -0.1594 -0.7735 0.6134
vn 0.0838 0.9962 -0.0234
vn -0.1691 -0.7877 -0.5924
vn -0.4881 -0.8555 -0.1728
vn -0.2897 -0.8251 0.4851
vn 0.0897 -0.7647 0.6381
vn 0.3170 -0.8176 0.4806
vn 0.5010 -0.8404 -0.2066
vn 0.2442 -0.8060 -0.5392
vn -0.1072 0.9928 0.0536
vn -0.0328 -0.0454 -0.9984
vn -0.7725 0.0709 -0.6311
vn -0.5305 0.1058 0.8411
vn 0.3927 -0.0061 0.9197
vn 0.9894 -0.0568 -0.1338
vn 0.0676 0.9977 -0.0040
vn -0.7888 -0.6147 0.0030
vn -0.0582 -0.3724 0.9262
vn 0.5530 -0.4078 0.7265
vn 0.7760 -0.5918 -0.2182
vn 0.1612 -0.4836 -0.8603
vn -0.7763 -0.1622 -0.6091
vn -0.1837 0.9793 0.0851
vn -0.5715 -0.2831 -0.7702
vn -0.6107 0.2511 0.7510
vn -0.1417 -0.0256 0.9896
vn 0.2966 0.0861 0.9511
vn 0.9641 0.2634 0.0322
vn 0.5617 -0.0087 -0.8273
vn 0.0303 -0.0778 -0.9965
vn 0.5310 0.8468 0.0316
vn 0.7517 0.4688 -0.4639
vn 0.1927 0.8020 -0.5654
vn 0.2632 0.3736 -0.8895
vn 0.2428 0.1626 -0.9563
vn 0.1773 0.2891 -0.9407
vn -0.4746 0.5641 -0.6757
vn -0.4649 -0.3319 -0.8208
vn -0.9409 0.1114 -0.3199
vn -0.8043 0.2448 -0.5415
vn -0.4282 0.8188 0.3823
vn -0.5726 0.7706 0.2798
vn -0.7287 0.3490 0.5893
vn -0.3715 0.3541 0.8583
vn -0.4450 0.7522 0.4860
vn 0.2400 0.6004 0.7628
vn 0.1702 0.8479 0.5021
vn 0.2612 0.8641 0.4302
vn 0.5716 0.6797 0.4597
vn 0.6115 0.7912 0.0087
vn 0.2927 0.9494 -0.1136
vn 0.1608 0.9843 0.0724
vn 0.2689 0.9518 -0.1475
vn -0.1039 0.9826 -0.1541
vn 0.0625 0.9942 -0.0871
vn -0.0901 0.9713 -0.2201
vn -0.1424 0.9825 -0.1201
vn 0.0546 0.9975 -0.0453
vn -0.2407 0.9487 -0.2050
vn -0.1747 0.9639 -0.2008
vn 0.0591 0.9585 0.2789
vn -0.0479 0.9985 -0.0256
vn -0.2906 0.9037 0.3144
vn 0.1454 0.9669 0.2096
vn -0.0340 0.9921 0.1210
vn -0.1087 0.9703 0.2162
vn 0.2007 0.9063 0.3719
vn 0.2312 0.9071 0.3517
vn 0.2060 0.9531 0.2218
vn -0.0494 0.9756 -0.2137
vn -0.6146 0.6746 0.4089
vn -0.5154 0.7555 0.4044
vn -0.5037 0.7565 0.4171
vn -0.2246 0.6955 0.6825
vn -0.2893 0.6153 0.7333
vn 0.1747 0.6262 0.7598
vn 0.1305 0.3759 0.9174
vn 0.0716 0.7357 0.6735
vn 0.6278 0.6568 0.4177
vn 0.6829 0.7013 -0.2046
vn 0.8159 0.5329 0.2243
vn 0.7361 0.6526 -0.1795
vn 0.5233 0.7716 -0.3617
vn 0.5054 0.4099 -0.7593
vn 0.4637 0.7245 -0.5100
vn 0.0715 0.3991 -0.9141
vn -0.5173 0.5846 -0.6250
vn -0.4302 0.6722 -0.6025
vn -0.7380 0.6164 -0.2746
vn -0.7756 0.5410 -0.3253
vn -0.0540 0.9628 0.2646
vn -0.1783 0.9688 0.1720
vn -0.1363 0.9783 0.1561
vn -0.0868 0.9776 0.1917
vn -0.1478 0.9582 0.2448
vn 0.0536 0.9620 0.2677
vn -0.0774 0.9787 0.1901
vn 0.0878 0.9706 0.2241
vn 0.1172 0.9727 0.2001
vn 0.2289 0.9720 -0.0524
vn 0.1993 0.9796 0.0248
vn 0.1244 0.9860 -0.1113
vn 0.1317 0.9785 -0.1587
vn 0.1670 0.9792 -0.1149
vn -0.2817 0.9502 -0.1335
vn 0.0164 0.9770 -0.2125
vn -0.1764 0.9793 -0.0989
vn -0.1326 0.9828 -0.1289
vn -0.1953 0.9804 -0.0242
vn -0.1845 0.9763 -0.1132
vn 0.0394 0.9906 0.1313
vn 0.1206 0.9811 0.1515
vn 0.5248 -0.1118 0.8438
vn 0.7535 0.0592 -0.6548
vn 0.0065 0.0572 -0.9983
vn -0.9825 0.1619 -0.0918
vn -0.4230 0.2367 0.8747
vn 0.0894 0.9896 0.1126
vn -0.0128 0.9958 0.0902
vn -0.1702 0.0242 -0.9851
vn -0.9083 -0.2896 0.3018
vn -0.2620 -0.1911 0.9460
vn 0.7607 -0.0590 0.6464
vn 0.8706 0.0050 -0.4920
vn 0.0772 0.9969 -0.0122
vn -0.0828 0.9959 -0.0357
vn 0.0415 0.9957 -0.0833
vn -0.2111 0.6155 0.7593
vn 0.4499 0.7713 0.4502
vn 0.5985 0.7233 -0.3444
vn 0.1636 0.6183 -0.7687
vn -0.3144 0.6399 -0.7012
vn -0.4572 0.7963 0.3961
vn 0.0647 0.9966 -0.0512
vn -0.1860 0.9779 0.0952
vn 0.1552 0.9877 -0.0189
vn -0.2405 0.6248 -0.7428
vn -0.6147 0.7859 0.0668
vn -0.5221 0.5328 0.6659
vn 0.2932 0.7231 0.6255
vn 0.6900 0.6969 0.1958
vn 0.2636 0.7015 -0.6622
vn -0.0307 0.9984 0.0479
vn 0.3054 0.9448 0.1186
vn 0.0122 0.9993 0.0342
vn -0.0685 0.9971 0.0324
vn 0.3932 0.8969 0.2025
vn 0.1976 0.8330 -0.5168
vn 0.0415 0.8150 -0.5780
vn -0.3266 0.8547 -0.4036
vn -0.4469 0.8433 0.2987
vn -0.2060 0.7971 0.5676
vn 0.0478 0.8335 0.5504
vn -0.0360 0.9980 0.0515
vn 0.0633 0.9977 0.0249
vn 0.0323 0.9962 0.0810
vn -0.0448 0.9931 0.1086
vn -0.8841 0.1839 -0.4297
vn -0.6012 0.3211 0.7317
vn -0.1944 0.1591 0.9679
vn 0.7369 0.0573 0.6736
vn 0.8518 0.0685 -0.5193
vn 0.2604 0.3019 -0.9171
vn -0.1802 0.2201 -0.9587
vn -0.0866 0.9807 0.1755
vn -0.1042 0.9917 0.0748
vn 0.4028 0.8904 -0.2119
vn -0.1694 0.7685 -0.6170
vn -0.5247 0.8488 -0.0651
vn -0.2155 0.7391 0.6382
vn 0.3685 0.7678 0.5241
vn 0.0244 0.9953 -0.0939
vn 0.0242 0.9995 0.0206
vn -0.0223 0.9981 -0.0572
vn 0.2616 0.9652 0.0080
vn -0.3038 0.8062 -0.5077
vn -0.3762 0.9182 0.1238
vn -0.1976 0.7894 0.5812
vn 0.3924 0.7724 0.4994
vn 0.4596 0.8683 0.1865
vn 0.4492 0.8730 -0.1900
vn -0.1459 0.7447 -0.6513
vn 0.0592 0.9962 0.0635
vn -0.0280 0.9996 0.0034
vn 0.0080 0.9999 -0.0077
vn -0.4766 -0.3820 -0.7918
vn -0.9998 0.0003 -0.0199
vn -0.1808 0.1648 0.9696
vn 0.5374 -0.0960 0.8378
vn 0.8666 0.1114 -0.4865
vn 0.0240 -0.2114 -0.9771
vn -0.1923 0.9712 0.1408
vn 0.1185 0.9924 0.0336
vn 0.1773 0.9841 0.0113
vn -0.0965 0.1768 -0.9795
vn -0.9696 0.2285 -0.0880
vn -0.7202 -0.2703 0.6390
vn 0.2036 -0.1594 0.9660
vn 0.7457 -0.2385 0.6221
vn 0.7074 0.1144 -0.6975
vn 0.0495 0.9976 0.0492
vn 0.1192 0.9707 0.2087
vn -0.0494 0.9981 0.0362
vn -0.3241 0.8545 -0.4059
vn -0.3225 0.8160 0.4797
vn -0.0046 0.8305 0.5571
vn 0.4006 0.9043 0.1473
vn 0.3697 0.8238 -0.4297
vn -0.0807 0.7788 -0.6221
vn -0.0006 0.9938 -0.1110
vn -0.0823 0.9911 -0.1049
vn -0.0323 0.9950 -0.0945
vn -0.5444 -0.1167 -0.8307
vn -0.4980 0.5745 -0.6496
vn -0.1245 -0.0301 0.9918
vn 0.6642 0.1785 0.7259
vn 0.8906 0.3647 -0.2718
vn 0.1633 -0.0683 -0.9842
vn -0.0078 0.9941 -0.1086
vn 0.1309 0.9884 -0.0767
vn -0.1185 0.9835 -0.1363
vn 0.0582 0.9983 -0.0041
vn -0.2816 0.4074 -0.8687
vn -0.7003 0.1452 -0.6989
vn -0.8876 0.2454 0.3899
vn -0.2133 0.2769 0.9369
vn 0.5665 0.3804 0.7310
vn 0.9349 0.3259 -0.1407
vn 0.8037 -0.2511 -0.5394
vn -0.1633 0.9784 0.1271
vn 0.0819 0.9605 0.2660
vn -0.0513 0.9976 0.0459
vn 0.2259 0.9152 -0.3338
vn -0.4240 0.9050 -0.0355
vn -0.1954 0.6458 0.7381
vn 0.0326 0.8231 0.5670
vn 0.5050 0.8277 0.2448
vn 0.4847 0.8650 -0.1297
vn -0.9252 -0.3094 -0.2196
vn -0.3196 0.7622 -0.5630
vn -0.0511 0.9965 -0.0655
vn -0.0085 0.9906 -0.1364
vn 0.0685 0.9916 -0.1097
vn 0.0614 0.9859 -0.1556
vn 0.5184 0.8543 -0.0377
vn 0.4057 0.8607 -0.3076
vn -0.0138 0.7695 -0.6385
vn -0.2964 0.8060 -0.5124
vn -0.4182 0.7809 0.4641
vn -0.3028 0.8062 0.5083
vn 0.2945 0.8085 0.5096
vn -0.0278 0.9995 -0.0120
vn 0.0163 0.9996 0.0211
vn 0.0347 0.0225 -0.9991
vn -0.7888 0.0501 -0.6126
vn -0.4212 -0.0458 0.9058
vn 0.3368 -0.0728 0.9388
vn 0.9631 -0.1396 -0.2301
vn 0.1182 0.9926 -0.0281
vn -0.0303 0.9795 0.1990
vn -0.2642 0.9567 -0.1218
vn 0.4493 0.4681 0.7609
vn 0.9114 0.3194 0.2593
vn 0.4354 0.3659 -0.8225
vn -0.4693 0.6636 -0.5826
vn -0.8995 0.3094 -0.3086
vn -0.1253 0.5128 0.8493
vn -0.0505 0.9932 0.1053
vn -0.0196 0.9996 0.0226
vn 0.0771 0.9967 0.0268
vn -0.0187 0.9720 0.2340
vn -0.9164 -0.2957 0.2698
vn 0.1000 0.2166 0.9711
vn 0.2450 0.0236 0.9692
vn 0.9601 0.2796 0.0096
vn 0.2142 0.2208 -0.9515
vn -0.1061 0.0544 -0.9929
vn -0.8753 0.0334 -0.4824
vt 0.525250 0.275250
vt 0.724750 0.474750
vt 0.525250 0.474750
vt 0.724750 0.275250
vt 0.224750 0.025250
vt 0.025250 0.224750
vt 0.025250 0.025250
vt 0.224750 0.224750
vt 0.625000 0.474750
vt 0.544301 0.433632
vt 0.544301 0.316368
vt 0.655824 0.280132
vt 0.405824 0.469868
vt 0.294301 0.433632
vt 0.294301 0.316368
vt 0.275250 0.275250
vt 0.474750 0.474750
vt 0.275250 0.474750
vt 0.025250 0.125000
vt 0.075125 0.038614
vt 0.224750 0.125000
vt 0.174875 0.038614
vt 0.035128 0.081720
vt 0.102804 0.027751
vt 0.187193 0.047012
vt 0.035128 0.168280
vt 0.724750 0.375000
vt 0.535128 0.418280
vt 0.535128 0.331720
vt 0.275250 0.375000
vt 0.325125 0.288614
vt 0.424875 0.288614
vt 0.575125 0.288614
vt 0.674875 0.288614
vt 0.674875 0.461386
vt 0.525250 0.375000
vt 0.352804 0.277751
vt 0.437193 0.297012
vt 0.352804 0.472249
vt 0.102804 0.222249
vt 0.602804 0.277751
vt 0.687193 0.297012
vt 0.655824 0.469868
vt 0.325125 0.461386
vt 0.405824 0.280132
vt 0.474750 0.375000
vt 0.474750 0.275250
vt 0.174875 0.211386
vt 0.075125 0.211386
vt 0.187193 0.202988
vt 0.687193 0.452988
vt 0.602804 0.472249
vt 0.424875 0.461386
vt 0.575125 0.461386
vt 0.437193 0.452988
vt 0.285128 0.418280
vt 0.285128 0.331720
s 0
f 1/1/1 3/2/1 4/3/1
f 5/1/2 7/2/2 8/3/2
f 10/4/3 12/3/3 9/1/3
f 14/4/4 16/3/4 13/1/4
f 18/4/5 20/3/5 17/1/5
f 21/1/6 23/2/6 24/3/6
f 26/4/7 28/3/7 25/1/7
f 30/4/8 32/3/8 29/1/8
f 33/1/9 35/2/9 36/3/9
f 37/1/10 39/2/10 40/3/10
f 42/4/11 44/3/11 41/1/11
f 45/1/12 47/2/12 48/3/12
f 50/4/13 52/3/13 49/1/13
f 54/4/14 56/3/14 53/1/14
f 57/1/15 59/2/15 60/3/15
f 62/4/16 64/3/16 61/1/16
f 65/1/17 67/2/17 68/3/17
f 69/1/18 71/2/18 72/3/18
f 74/4/19 76/3/19 73/1/19
f 78/4/20 80/3/20 77/1/20
f 81/1/21 83/2/21 84/3/21
f 85/1/22 87/2/22 88/3/22
f 90/4/23 92/3/23 89/1/23
f 94/4/24 96/3/24 93/1/24
f 97/1/25 99/2/25 100/3/25
f 101/1/26 103/2/26 104/3/26
f 106/4/27 108/3/27 105/1/27
f 109/1/28 111/2/28 112/3/28
f 114/4/29 116/3/29 113/1/29
f 117/1/30 119/2/30 120/3/30
f 122/4/31 124/3/31 121/1/31
f 125/1/32 127/2/32 128/3/32
f 129/1/33 131/2/33 132/3/33
f 134/4/34 136/3/34 133/1/34
f 137/1/35 139/2/35 140/3/35
f 142/4/36 144/3/36 141/1/36
f 146/4/37 148/3/37 145/1/37
f 149/1/38 151/2/38 152/3/38
f 153/1/39 155/2/39 156/3/39
f 158/4/40 160/3/40 157/1/40
f 162/5/41 164/6/41 161/7/41
f 166/5/42 168/6/42 165/7/42
f 169/7/43 171/8/43 172/6/43
f 174/5/44 176/6/44 173/7/44
f 177/7/45 179/8/45 180/6/45
f 181/7/46 183/8/46 184/6/46
f 186/5/47 188/6/47 185/7/47
f 189/7/48 191/8/48 192/6/48
f 194/5/49 196/6/49 193/7/49
f 198/5/50 200/6/50 197/7/50
f 202/5/51 204/6/51 201/7/51
f 205/7/52 207/8/52 208/6/52
f 209/7/53 211/8/53 212/6/53
f 214/5/54 216/6/54 213/7/54
f 217/7/55 219/8/55 220/6/55
f 222/5/56 224/6/56 221/7/56
f 226/5/57 228/6/57 225/7/57
f 229/7/58 231/8/58 232/6/58
f 233/7/59 235/8/59 236/6/59
f 238/5/60 240/6/60 237/7/60
f 242/5/61 244/6/61 241/7/61
f 245/7/62 247/8/62 248/6/62
f 249/7/63 251/8/63 252/6/63
f 254/5/64 256/6/64 253/7/64
f 257/7/65 259/8/65 260/6/65
f 262/5/66 264/6/66 261/7/66
f 265/7/67 267/8/67 268/6/67
f 270/5/68 272/6/68 269/7/68
f 274/5/69 276/6/69 273/7/69
f 278/5/70 280/6/70 277/7/70
f 281/7/71 283/8/71 284/6/71
f 286/5/72 288/6/72 285/7/72
f 289/7/73 291/8/73 292/6/73
f 293/7/74 295/8/74 296/6/74
f 298/5/75 300/6/75 297/7/75
f 301/7/76 303/8/76 304/6/76
f 306/5/77 308/6/77 305/7/77
f 309/7/78 311/8/78 312/6/78
f 313/7/79 315/8/79 316/6/79
f 317/7/80 319/8/80 320/6/80
f 321/1/81 81/4/81 82/9/81
f 321/1/82 82/4/82 83/9/82
f 321/1/83 83/4/83 84/9/83
f 321/1/84 84/4/84 85/9/84
f 321/1/85 85/4/85 86/9/85
f 321/1/86 86/4/86 87/9/86
f 321/1/87 87/4/87 88/9/87
f 321/1/88 88/4/88 89/9/88
f 321/1/89 89/4/89 90/9/89
f 321/1/90 90/4/90 91/9/90
f 321/1/91 91/4/91 92/9/91
f 321/1/92 92/4/92 93/9/92
f 321/1/93 93/4/93 94/9/93
f 321/1/94 94/4/94 95/9/94
f 321/1/95 95/4/95 96/9/95
f 321/1/96 96/4/96 97/9/96
f 321/1/97 97/4/97 98/9/97
f 321/1/98 98/4/98 99/9/98
f 321/1/99 99/4/99 100/9/99
f 321/1/100 100/4/100 81/9/100
f 329/10/101 330/11/101 331/12/101
f 323/4/102 327/3/102 322/1/102
f 324/4/103 328/3/103 323/1/103
f 325/4/104 329/3/104 324/1/104
f 326/4/105 330/3/105 325/1/105
f 322/4/106 331/3/106 326/1/106
f 338/13/107 339/14/107 340/15/107
f 332/16/108 338/17/108 337/18/108
f 333/16/109 339/17/109 338/18/109
f 334/16/110 340/17/110 339/18/110
f 335/16/111 341/17/111 340/18/111
f 336/16/112 337/17/112 341/18/112
f 351/19/113 352/20/113 348/21/113
f 342/7/114 349/8/114 348/6/114
f 343/7/115 350/8/115 349/6/115
f 344/7/116 351/8/116 350/6/116
f 345/7/117 352/8/117 351/6/117
f 346/7/118 353/8/118 352/6/118
f 347/7/119 348/8/119 353/6/119
f 363/19/120 364/20/120 365/22/120
f 354/7/121 361/8/121 360/6/121
f 355/7/122 362/8/122 361/6/122
f 356/7/123 363/8/123 362/6/123
f 357/7/124 364/8/124 363/6/124
f 358/7/125 365/8/125 364/6/125
f 359/7/126 360/8/126 365/6/126
f 377/23/127 378/24/127 379/25/127
f 366/7/128 374/8/128 373/6/128
f 367/7/129 375/8/129 374/6/129
f 368/7/130 376/8/130 375/6/130
f 369/7/131 377/8/131 376/6/131
f 370/7/132 378/8/132 377/6/132
f 371/7/133 379/8/133 378/6/133
f 372/7/134 373/8/134 379/6/134
f 390/26/135 391/23/135 392/24/135
f 381/5/136 387/6/136 380/7/136
f 382/5/137 388/6/137 381/7/137
f 383/5/138 389/6/138 382/7/138
f 384/5/139 390/6/139 383/7/139
f 385/5/140 391/6/140 384/7/140
f 386/5/141 392/6/141 385/7/141
f 380/5/142 393/6/142 386/7/142
f 402/11/143 399/27/143 401/10/143
f 394/1/144 400/2/144 399/3/144
f 395/1/145 401/2/145 400/3/145
f 396/1/146 402/2/146 401/3/146
f 397/1/147 403/2/147 402/3/147
f 398/1/148 399/2/148 403/3/148
f 414/28/149 415/29/149 411/27/149
f 404/1/150 412/2/150 411/3/150
f 405/1/151 413/2/151 412/3/151
f 406/1/152 414/2/152 413/3/152
f 407/1/153 415/2/153 414/3/153
f 408/1/154 416/2/154 415/3/154
f 409/1/155 417/2/155 416/3/155
f 410/1/156 411/2/156 417/3/156
f 427/30/157 428/31/157 429/32/157
f 418/16/158 425/17/158 424/18/158
f 419/16/159 426/17/159 425/18/159
f 420/16/160 427/17/160 426/18/160
f 421/16/161 428/17/161 427/18/161
f 422/16/162 429/17/162 428/18/162
f 423/16/163 424/17/163 429/18/163
f 440/33/164 441/34/164 437/35/164
f 430/1/165 437/2/165 436/3/165
f 431/1/166 438/2/166 437/3/166
f 432/1/167 439/2/167 438/3/167
f 433/1/168 440/2/168 439/3/168
f 434/1/169 441/2/169 440/3/169
f 435/1/170 436/2/170 441/3/170
f 451/19/171 452/20/171 453/22/171
f 442/7/172 449/8/172 448/6/172
f 443/7/173 450/8/173 449/6/173
f 444/7/174 451/8/174 450/6/174
f 445/7/175 452/8/175 451/6/175
f 446/7/176 453/8/176 452/6/176
f 447/7/177 448/8/177 453/6/177
f 463/36/178 464/33/178 465/34/178
f 455/4/179 460/3/179 454/1/179
f 455/1/180 462/2/180 461/3/180
f 457/4/181 462/3/181 456/1/181
f 458/4/182 463/3/182 457/1/182
f 459/4/183 464/3/183 458/1/183
f 454/4/184 465/3/184 459/1/184
f 478/37/185 479/38/185 475/39/185
f 466/16/186 474/17/186 473/18/186
f 467/16/187 475/17/187 474/18/187
f 468/16/188 476/17/188 475/18/188
f 469/16/189 477/17/189 476/18/189
f 470/16/190 478/17/190 477/18/190
f 471/16/191 479/17/191 478/18/191
f 472/16/192 473/17/192 479/18/192
f 487/21/193 489/40/193 491/23/193
f 480/7/194 488/8/194 487/6/194
f 481/7/195 489/8/195 488/6/195
f 482/7/196 490/8/196 489/6/196
f 483/7/197 491/8/197 490/6/197
f 484/7/198 492/8/198 491/6/198
f 486/5/199 492/6/199 485/7/199
f 486/7/200 487/8/200 493/6/200
f 505/29/201 506/41/201 507/42/201
f 494/1/202 502/2/202 501/3/202
f 495/1/203 503/2/203 502/3/203
f 496/1/204 504/2/204 503/3/204
f 497/1/205 505/2/205 504/3/205
f 498/1/206 506/2/206 505/3/206
f 499/1/207 507/2/207 506/3/207
f 500/1/208 501/2/208 507/3/208
f 514/43/209 515/10/209 516/11/209
f 508/1/210 514/2/210 513/3/210
f 509/1/211 515/2/211 514/3/211
f 510/1/212 516/2/212 515/3/212
f 512/4/213 516/3/213 511/1/213
f 512/1/214 513/2/214 517/3/214
f 529/32/215 526/44/215 528/31/215
f 518/16/216 525/17/216 524/18/216
f 519/16/217 526/17/217 525/18/217
f 520/16/218 527/17/218 526/18/218
f 521/16/219 528/17/219 527/18/219
f 522/16/220 529/17/220 528/18/220
f 523/16/221 524/17/221 529/18/221
f 542/24/222 543/25/222 540/26/222
f 530/7/223 538/8/223 537/6/223
f 531/7/224 539/8/224 538/6/224
f 532/7/225 540/8/225 539/6/225
f 533/7/226 541/8/226 540/6/226
f 534/7/227 542/8/227 541/6/227
f 535/7/228 543/8/228 542/6/228
f 536/7/229 537/8/229 543/6/229
f 1/1/230 2/4/230 3/2/230
f 5/1/231 6/4/231 7/2/231
f 10/4/232 11/2/232 12/3/232
f 14/4/233 15/2/233 16/3/233
f 18/4/234 19/2/234 20/3/234
f 21/1/235 22/4/235 23/2/235
f 26/4/236 27/2/236 28/3/236
f 30/4/237 31/2/237 32/3/237
f 33/1/238 34/4/238 35/2/238
f 37/1/239 38/4/239 39/2/239
f 42/4/240 43/2/240 44/3/240
f 45/1/241 46/4/241 47/2/241
f 50/4/242 51/2/242 52/3/242
f 54/4/243 55/2/243 56/3/243
f 57/1/244 58/4/244 59/2/244
f 62/4/245 63/2/245 64/3/245
f 65/1/246 66/4/246 67/2/246
f 69/1/247 70/4/247 71/2/247
f 74/4/248 75/2/248 76/3/248
f 78/4/249 79/2/249 80/3/249
f 81/1/250 82/4/250 83/2/250
f 85/1/251 86/4/251 87/2/251
f 90/4/252 91/2/252 92/3/252
f 94/4/253 95/2/253 96/3/253
f 97/1/254 98/4/254 99/2/254
f 101/1/255 102/4/255 103/2/255
f 106/4/256 107/2/256 108/3/256
f 109/1/257 110/4/257 111/2/257
f 114/4/258 115/2/258 116/3/258
f 117/1/259 118/4/259 119/2/259
f 122/4/260 123/2/260 124/3/260
f 125/1/261 126/4/261 127/2/261
f 129/1/262 130/4/262 131/2/262
f 134/4/263 135/2/263 136/3/263
f 137/1/264 138/4/264 139/2/264
f 142/4/265 143/2/265 144/3/265
f 146/4/266 147/2/266 148/3/266
f 149/1/267 150/4/267 151/2/267
f 153/1/268 154/4/268 155/2/268
f 158/4/269 159/2/269 160/3/269
f 162/5/270 163/8/270 164/6/270
f 166/5/271 167/8/271 168/6/271
f 169/7/272 170/5/272 171/8/272
f 174/5/273 175/8/273 176/6/273
f 177/7/274 178/5/274 179/8/274
f 181/7/275 182/5/275 183/8/275
f 186/5/276 187/8/276 188/6/276
f 189/7/277 190/5/277 191/8/277
f 194/5/278 195/8/278 196/6/278
f 198/5/279 199/8/279 200/6/279
f 202/5/280 203/8/280 204/6/280
f 205/7/281 206/5/281 207/8/281
f 209/7/282 210/5/282 211/8/282
f 214/5/283 215/8/283 216/6/283
f 217/7/284 218/5/284 219/8/284
f 222/5/285 223/8/285 224/6/285
f 226/5/286 227/8/286 228/6/286
f 229/7/287 230/5/287 231/8/287
f 233/7/288 234/5/288 235/8/288
f 238/5/289 239/8/289 240/6/289
f 242/5/290 243/8/290 244/6/290
f 245/7/291 246/5/291 247/8/291
f 249/7/292 250/5/292 251/8/292
f 254/5/293 255/8/293 256/6/293
f 257/7/294 258/5/294 259/8/294
f 262/5/295 263/8/295 264/6/295
f 265/7/296 266/5/296 267/8/296
f 270/5/297 271/8/297 272/6/297
f 274/5/298 275/8/298 276/6/298
f 278/5/299 279/8/299 280/6/299
f 281/7/300 282/5/300 283/8/300
f 286/5/301 287/8/301 288/6/301
f 289/7/302 290/5/302 291/8/302
f 293/7/303 294/5/303 295/8/303
f 298/5/304 299/8/304 300/6/304
f 301/7/305 302/5/305 303/8/305
f 306/5/306 307/8/306 308/6/306
f 309/7/307 310/5/307 311/8/307
f 313/7/308 314/5/308 315/8/308
f 317/7/309 318/5/309 319/8/309
f 331/12/310 327/27/310 329/10/310
f 327/27/311 328/43/311 329/10/311
f 323/4/312 328/2/312 327/3/312
f 324/4/313 329/2/313 328/3/313
f 325/4/314 330/2/314 329/3/314
f 326/4/315 331/2/315 330/3/315
f 322/4/316 327/2/316 331/3/316
f 341/45/317 337/46/317 340/15/317
f 337/46/318 338/13/318 340/15/318
f 332/16/319 333/47/319 338/17/319
f 333/16/320 334/47/320 339/17/320
f 334/16/321 335/47/321 340/17/321
f 335/16/322 336/47/322 341/17/322
f 336/16/323 332/47/323 337/17/323
f 353/22/324 348/21/324 352/20/324
f 348/21/325 349/48/325 351/19/325
f 349/48/326 350/49/326 351/19/326
f 342/7/327 343/5/327 349/8/327
f 343/7/328 344/5/328 350/8/328
f 344/7/329 345/5/329 351/8/329
f 345/7/330 346/5/330 352/8/330
f 346/7/331 347/5/331 353/8/331
f 347/7/332 342/5/332 348/8/332
f 365/22/333 360/21/333 362/49/333
f 360/21/334 361/48/334 362/49/334
f 362/49/335 363/19/335 365/22/335
f 354/7/336 355/5/336 361/8/336
f 355/7/337 356/5/337 362/8/337
f 356/7/338 357/5/338 363/8/338
f 357/7/339 358/5/339 364/8/339
f 358/7/340 359/5/340 365/8/340
f 359/7/341 354/5/341 360/8/341
f 379/25/342 373/21/342 376/26/342
f 373/21/343 374/50/343 375/40/343
f 376/26/344 373/21/344 375/40/344
f 376/26/345 377/23/345 379/25/345
f 366/7/346 367/5/346 374/8/346
f 367/7/347 368/5/347 375/8/347
f 368/7/348 369/5/348 376/8/348
f 369/7/349 370/5/349 377/8/349
f 370/7/350 371/5/350 378/8/350
f 371/7/351 372/5/351 379/8/351
f 372/7/352 366/5/352 373/8/352
f 393/25/353 387/21/353 389/40/353
f 387/21/354 388/50/354 389/40/354
f 389/40/355 390/26/355 393/25/355
f 393/25/356 390/26/356 392/24/356
f 381/5/357 388/8/357 387/6/357
f 382/5/358 389/8/358 388/6/358
f 383/5/359 390/8/359 389/6/359
f 384/5/360 391/8/360 390/6/360
f 385/5/361 392/8/361 391/6/361
f 386/5/362 393/8/362 392/6/362
f 380/5/363 387/8/363 393/6/363
f 403/12/364 399/27/364 402/11/364
f 399/27/365 400/43/365 401/10/365
f 394/1/366 395/4/366 400/2/366
f 395/1/367 396/4/367 401/2/367
f 396/1/368 397/4/368 402/2/368
f 397/1/369 398/4/369 403/2/369
f 398/1/370 394/4/370 399/2/370
f 417/42/371 411/27/371 416/41/371
f 411/27/372 412/51/372 414/28/372
f 416/41/373 411/27/373 415/29/373
f 412/51/374 413/52/374 414/28/374
f 404/1/375 405/4/375 412/2/375
f 405/1/376 406/4/376 413/2/376
f 406/1/377 407/4/377 414/2/377
f 407/1/378 408/4/378 415/2/378
f 408/1/379 409/4/379 416/2/379
f 409/1/380 410/4/380 417/2/380
f 410/1/381 404/4/381 411/2/381
f 429/32/382 424/46/382 427/30/382
f 424/46/383 425/53/383 427/30/383
f 425/53/384 426/44/384 427/30/384
f 418/16/385 419/47/385 425/17/385
f 419/16/386 420/47/386 426/17/386
f 420/16/387 421/47/387 427/17/387
f 421/16/388 422/47/388 428/17/388
f 422/16/389 423/47/389 429/17/389
f 423/16/390 418/47/390 424/17/390
f 441/34/391 436/27/391 437/35/391
f 437/35/392 438/54/392 440/33/392
f 438/54/393 439/36/393 440/33/393
f 430/1/394 431/4/394 437/2/394
f 431/1/395 432/4/395 438/2/395
f 432/1/396 433/4/396 439/2/396
f 433/1/397 434/4/397 440/2/397
f 434/1/398 435/4/398 441/2/398
f 435/1/399 430/4/399 436/2/399
f 453/22/400 448/21/400 451/19/400
f 448/21/401 449/48/401 450/49/401
f 451/19/402 448/21/402 450/49/402
f 442/7/403 443/5/403 449/8/403
f 443/7/404 444/5/404 450/8/404
f 444/7/405 445/5/405 451/8/405
f 445/7/406 446/5/406 452/8/406
f 446/7/407 447/5/407 453/8/407
f 447/7/408 442/5/408 448/8/408
f 465/34/409 460/27/409 463/36/409
f 460/27/410 461/35/410 462/54/410
f 463/36/411 460/27/411 462/54/411
f 455/4/412 461/2/412 460/3/412
f 455/1/413 456/4/413 462/2/413
f 457/4/414 463/2/414 462/3/414
f 458/4/415 464/2/415 463/3/415
f 459/4/416 465/2/416 464/3/416
f 454/4/417 460/2/417 465/3/417
f 479/38/418 473/46/418 474/55/418
f 474/55/419 475/39/419 479/38/419
f 475/39/420 476/56/420 477/57/420
f 478/37/421 475/39/421 477/57/421
f 466/16/422 467/47/422 474/17/422
f 467/16/423 468/47/423 475/17/423
f 468/16/424 469/47/424 476/17/424
f 469/16/425 470/47/425 477/17/425
f 470/16/426 471/47/426 478/17/426
f 471/16/427 472/47/427 479/17/427
f 472/16/428 466/47/428 473/17/428
f 493/25/429 487/21/429 492/24/429
f 487/21/430 488/50/430 489/40/430
f 492/24/431 487/21/431 491/23/431
f 489/40/432 490/26/432 491/23/432
f 480/7/433 481/5/433 488/8/433
f 481/7/434 482/5/434 489/8/434
f 482/7/435 483/5/435 490/8/435
f 483/7/436 484/5/436 491/8/436
f 484/7/437 485/5/437 492/8/437
f 486/5/438 493/8/438 492/6/438
f 486/7/439 480/5/439 487/8/439
f 507/42/440 501/27/440 505/29/440
f 501/27/441 502/51/441 504/28/441
f 505/29/442 501/27/442 504/28/442
f 502/51/443 503/52/443 504/28/443
f 494/1/444 495/4/444 502/2/444
f 495/1/445 496/4/445 503/2/445
f 496/1/446 497/4/446 504/2/446
f 497/1/447 498/4/447 505/2/447
f 498/1/448 499/4/448 506/2/448
f 499/1/449 500/4/449 507/2/449
f 500/1/450 494/4/450 501/2/450
f 517/12/451 513/27/451 516/11/451
f 513/27/452 514/43/452 516/11/452
f 508/1/453 509/4/453 514/2/453
f 509/1/454 510/4/454 515/2/454
f 510/1/455 511/4/455 516/2/455
f 512/4/456 517/2/456 516/3/456
f 512/1/457 508/4/457 513/2/457
f 529/32/458 524/46/458 526/44/458
f 524/46/459 525/53/459 526/44/459
f 526/44/460 527/30/460 528/31/460
f 518/16/461 519/47/461 525/17/461
f 519/16/462 520/47/462 526/17/462
f 520/16/463 521/47/463 527/17/463
f 521/16/464 522/47/464 528/17/464
f 522/16/465 523/47/465 529/17/465
f 523/16/466 518/47/466 524/17/466
f 543/25/467 537/21/467 540/26/467
f 537/21/468 538/50/468 539/40/468
f 540/26/469 537/21/469 539/40/469
f 540/26/470 541/23/470 542/24/470
f 530/7/471 531/5/471 538/8/471
f 531/7/472 532/5/472 539/8/472
f 532/7/473 533/5/473 540/8/473
f 533/7/474 534/5/474 541/8/474
f 534/7/475 535/5/475 542/8/475
f 535/7/476 536/5/476 543/8/476
f 536/7/477 530/5/477 537/8/477
