# Blender 4.4.3
# www.blender.org
o ruin_debris
v 0.859827 1.849523 -0.030658
v 1.041652 1.884764 -0.114913
v 1.140150 1.924856 -0.232777
v 1.061552 1.819176 -0.369149
v 0.877270 1.846630 -0.384840
v 0.683417 1.922831 -0.323317
v 0.695860 1.923380 -0.150542
v 0.847274 2.547056 -0.092356
v 1.044515 2.469852 -0.063509
v 1.151222 2.512453 -0.204816
v 1.069426 2.480326 -0.338411
v 0.907148 2.471509 -0.396893
v 0.733589 2.459973 -0.334719
v 0.651681 2.439225 -0.171443
v -1.460767 0.447718 3.004822
v -1.375194 0.559903 3.110650
v -1.261116 0.449790 3.062033
v -1.185627 0.496276 2.906690
v -1.264282 0.506551 2.745842
v -1.398933 0.538466 2.700804
v -1.481886 0.416407 2.847204
v -1.454026 1.325679 3.065680
v -1.331961 1.203765 3.148871
v -1.236044 1.196903 3.019750
v -1.240927 1.275046 2.864050
v -1.312737 1.288941 2.755064
v -1.448183 1.244269 2.715263
v -1.535980 1.284826 2.895454
v 2.066247 0.882592 2.292277
v 1.974037 0.759886 2.209703
v 1.828593 0.863132 2.246838
v 1.772844 0.774531 2.340864
v 1.829144 0.725842 2.437195
v 1.974475 0.866291 2.449898
v 2.096756 0.882377 2.391347
v 2.049308 1.661274 2.405299
v 2.118116 1.666140 2.311649
v 2.002438 1.615103 2.244892
v 1.856289 1.558602 2.216392
v 1.771764 1.566970 2.310175
v 1.787643 1.523708 2.419733
v 1.932625 1.646587 2.471366
v 3.027828 0.594277 2.525760
v 3.059355 0.532367 2.425685
v 3.028410 0.521804 2.335099
v 2.887796 0.551283 2.303042
v 2.754164 0.514793 2.359493
v 2.736648 0.495248 2.472974
v 2.862537 0.520371 2.555115
v 2.790055 1.085384 2.306415
v 2.703992 1.091457 2.417922
v 2.818862 1.073908 2.502582
v 2.953907 1.059803 2.539366
v 3.073789 1.005573 2.474766
v 3.068281 1.061499 2.373545
v 2.964075 1.040701 2.293478
v -1.062248 1.541936 0.721082
v -1.008632 1.507372 0.388981
v -1.395584 1.626622 0.187582
v -1.860255 1.505079 0.288518
v -2.219936 1.575025 0.595171
v -1.653178 1.532833 0.804655
v -0.863972 2.390192 0.337524
v -1.430875 2.339275 0.192193
v -2.083311 2.413223 0.205242
v -1.995170 2.409906 0.576653
v -1.621673 2.295492 0.829071
v -1.057898 2.379807 0.693089
v -1.335377 1.630258 -1.277542
v -1.780520 1.555722 -0.958712
v -1.574691 1.625821 -0.473553
v -0.886788 1.604348 -0.434105
v -0.668765 1.579415 -1.078896
v -1.126465 2.474259 -0.307453
v -0.637904 2.487825 -0.829096
v -1.107042 2.571496 -1.296035
v -1.867092 2.441861 -1.250025
v -1.777785 2.416942 -0.585707
v 4.061501 0.415902 0.469614
v 4.074992 0.428000 0.309050
v 3.960490 0.403893 0.158367
v 3.748924 0.435928 0.230108
v 3.756389 0.378359 0.393815
v 3.875584 0.410909 0.482214
v 3.814977 0.807991 0.465264
v 4.007023 0.748564 0.530628
v 4.113153 0.804225 0.368777
v 4.011832 0.758362 0.231503
v 3.823532 0.762182 0.196821
v 3.715715 0.814741 0.338186
v -2.920056 0.463868 -1.284675
v -2.662954 0.509140 -1.813496
v -3.397274 0.464837 -2.061739
v -3.981847 0.532409 -1.807775
v -3.851412 0.533895 -1.395550
v -4.105832 0.870841 -1.550051
v -3.370416 0.894201 -1.181468
v -2.707057 0.829037 -1.591358
v -3.075646 0.876060 -1.989841
v -3.842737 0.898867 -1.978241
v -3.106724 0.719814 -2.490721
v -2.998624 0.798347 -1.935224
v -2.308402 0.689626 -1.652659
v -1.888742 0.777726 -2.335245
v -2.491512 0.717597 -2.869510
v -2.435917 1.520569 -1.820852
v -2.110263 1.511943 -2.278097
v -2.438071 1.376958 -2.881336
v -3.130532 1.466334 -2.545110
v -3.006663 1.442570 -1.970546
v -2.548468 1.091675 -0.097507
v -2.683594 1.032807 -0.191523
v -2.835888 1.001148 -0.172243
v -2.817303 1.124438 -0.043334
v -2.681427 1.102556 0.008557
v -2.564986 1.711763 -0.040935
v -2.641180 1.733264 -0.173650
v -2.786850 1.627573 -0.196306
v -2.880471 1.708416 -0.072126
v -2.737558 1.731686 0.025832
v 0.848033 0.737623 3.044769
v 1.081478 0.754107 2.668401
v 0.488662 0.785976 2.485485
v -0.143432 0.710745 2.670057
v 0.192694 0.728690 3.024765
v 0.229456 1.226796 3.129699
v 0.987656 1.317269 3.024625
v 0.962851 1.278063 2.625618
v 0.380002 1.300953 2.487525
v -0.055376 1.315494 2.751876
v 2.181858 1.116418 -1.147748
v 2.409283 1.129490 -0.902776
v 2.866311 1.190613 -0.949026
v 2.990244 1.197145 -1.268175
v 2.671711 1.196156 -1.471385
v 2.267938 1.183140 -1.424212
v 2.477692 1.992255 -1.425204
v 2.094208 2.035978 -1.303545
v 2.313916 2.040960 -1.049829
v 2.635430 1.927647 -0.921220
v 2.923924 1.949322 -1.118064
v 2.793891 1.995650 -1.362981
v 1.567635 1.040646 2.088066
v 1.452132 1.074031 2.012950
v 1.316972 1.093762 2.067689
v 1.280715 1.124508 2.165292
v 1.405298 1.051366 2.235566
v 1.560236 1.005108 2.193908
v 1.592202 1.884755 2.137124
v 1.500217 1.842336 2.060030
v 1.364744 1.936648 2.030035
v 1.275448 1.924195 2.114696
v 1.349437 1.823064 2.197637
v 1.476055 1.947527 2.196894
v 3.276644 0.651313 -1.792763
v 3.185448 0.713308 -1.721520
v 3.168319 0.569557 -1.579529
v 3.292005 0.696454 -1.550333
v 3.410248 0.574852 -1.599072
v 3.414243 0.580876 -1.765662
v 3.377751 1.517150 -1.783115
v 3.239461 1.461811 -1.823611
v 3.141846 1.569758 -1.701684
v 3.209681 1.429197 -1.574601
v 3.333920 1.539374 -1.496830
v 3.386120 1.553318 -1.643221
v -0.391496 1.312090 1.307758
v -0.686383 1.388302 1.442898
v -0.863537 1.412897 1.881922
v -0.617400 1.416852 2.248118
v -0.279831 1.350944 2.234476
v -0.096335 1.357086 1.685989
v -0.268270 2.079595 1.453805
v -0.587581 2.072583 1.175025
v -0.786465 2.072193 1.644230
v -0.704702 2.048049 2.068757
v -0.427659 2.167285 2.406554
v -0.148654 2.122800 1.979946
v 1.360030 1.413260 0.734556
v 1.702733 1.474707 1.016572
v 2.315128 1.446681 1.133005
v 2.720112 1.470728 0.881343
v 2.604205 1.474455 0.567568
v 1.952185 1.467569 0.578582
v 2.484169 1.850724 0.976314
v 2.714577 1.879701 0.726347
v 2.273222 1.896331 0.468029
v 1.662472 1.866554 0.625204
v 1.456475 1.846838 0.910314
v 1.942061 1.842908 1.159943
v -1.606711 0.713685 -3.230370
v -2.074151 0.741216 -3.107916
v -2.030914 0.698711 -2.839307
v -1.778744 0.774207 -2.653029
v -1.303990 0.751159 -2.702063
v -1.295397 0.776096 -3.000898
v -2.086780 1.225797 -2.709388
v -1.612358 1.214590 -2.609024
v -1.290487 1.250943 -2.820820
v -1.358869 1.291449 -3.091682
v -1.777498 1.196709 -3.168468
v -2.174965 1.183690 -3.016166
v -2.207445 1.052851 -1.661971
v -2.137531 1.020548 -1.784293
v -2.205453 0.979318 -1.917671
v -2.365150 1.037336 -1.849335
v -2.373541 1.030209 -1.709785
v -2.326542 1.846625 -1.882074
v -2.422560 1.707003 -1.750274
v -2.267775 1.750351 -1.660171
v -2.145569 1.697727 -1.744467
v -2.162019 1.760357 -1.875039
v 3.448279 0.886633 -0.355328
v 3.644996 0.899320 -0.652325
v 3.389921 0.793037 -0.900890
v 3.015671 0.791933 -0.961825
v 2.894662 0.839103 -0.547126
v 3.143221 0.797091 -0.263399
v 2.935741 1.435576 -0.530223
v 3.160800 1.469095 -0.250062
v 3.457424 1.446074 -0.372654
v 3.632317 1.381303 -0.674612
v 3.410483 1.362022 -1.025358
v 3.038965 1.368311 -0.890695
v -1.512325 1.552736 -0.601677
v -1.344735 1.541719 -0.634760
v -1.362251 1.653866 -0.746138
v -1.513477 1.657773 -0.748813
v -1.591911 1.582811 -0.683917
v -1.488546 2.414775 -0.621192
v -1.375242 2.502073 -0.658774
v -1.378088 2.547380 -0.754444
v -1.539971 2.552399 -0.759769
v -1.575228 2.389290 -0.675551
v -0.732371 0.834601 -3.095501
v -0.898393 0.857432 -3.088539
v -1.030868 0.814331 -2.950415
v -0.916420 0.892181 -2.764478
v -0.711662 0.804558 -2.831725
v -0.631218 0.860822 -2.971346
v -0.742230 1.232078 -2.758587
v -0.588448 1.310222 -2.912760
v -0.697127 1.248232 -3.064300
v -0.860499 1.319622 -3.133175
v -1.015793 1.247371 -3.009584
v -0.917722 1.262822 -2.858316
v 2.327516 1.383025 -0.688906
v 2.158054 1.326093 -0.565532
v 2.153547 1.328671 -0.385657
v 2.488056 1.400629 -0.302262
v 2.804151 1.343873 -0.398002
v 2.887557 1.316013 -0.585331
v 2.653888 1.352205 -0.736163
v 2.553699 1.781794 -0.378589
v 2.768177 1.806773 -0.462290
v 2.798804 1.790581 -0.619927
v 2.539985 1.750480 -0.699999
v 2.286211 1.790309 -0.650699
v 2.040845 1.755330 -0.522558
v 2.292053 1.816516 -0.396523
v -2.660435 0.369466 -2.797507
v -2.671689 0.414214 -2.924490
v -2.832695 0.451081 -2.969796
v -3.037075 0.349237 -2.935205
v -3.036037 0.425667 -2.770540
v -2.821087 0.366680 -2.717117
v -2.596461 1.150350 -2.913693
v -2.797695 1.089267 -2.966136
v -2.994442 1.055011 -2.956554
v -3.059110 1.054920 -2.803447
v -2.860536 1.130657 -2.740111
v -2.641898 1.128665 -2.749626
v -0.102626 1.772923 -1.382627
v -0.366279 1.810489 -1.555095
v -0.583685 1.753011 -1.314975
v -0.605001 1.805022 -0.964036
v -0.253699 1.840901 -0.762890
v 0.067123 1.836742 -1.045840
v -0.016692 2.383138 -1.247542
v -0.167141 2.315921 -1.588158
v -0.544652 2.330955 -1.512863
v -0.739095 2.342848 -1.143725
v -0.455491 2.373722 -0.847158
v -0.143920 2.292216 -0.971299
v 1.435146 1.754722 0.096928
v 1.661690 1.746862 0.063392
v 1.650949 1.703201 -0.036555
v 1.475331 1.774184 -0.125525
v 1.228317 1.678422 -0.060461
v 1.251392 1.661522 0.043847
v 1.226119 2.583032 0.018227
v 1.353497 2.580087 0.110179
v 1.663555 2.540050 0.113324
v 1.768961 2.508096 -0.017226
v 1.538341 2.576312 -0.090001
v 1.239885 2.469444 -0.106698
v -2.396620 0.834880 2.037327
v -2.433635 0.800905 2.105501
v -2.306603 0.819543 2.145287
v -2.216263 0.793596 2.086221
v -2.274221 0.817435 2.022742
v -2.428138 1.436897 2.089490
v -2.336213 1.395531 2.146155
v -2.220383 1.435615 2.100133
v -2.265082 1.383833 2.038133
v -2.376016 1.434042 2.031640
v -1.753904 1.463051 -0.832673
v -1.286727 1.376346 -0.888253
v -1.129517 1.404849 -1.172712
v -1.350848 1.521282 -1.414690
v -1.725928 1.450260 -1.370113
v -1.951228 1.407256 -1.137459
v -1.200444 2.484195 -1.428467
v -1.665338 2.473739 -1.441670
v -2.008002 2.322058 -1.223662
v -1.791407 2.314879 -0.939498
v -1.401576 2.463488 -0.882618
v -1.087191 2.393316 -1.092297
v 3.564868 0.117343 2.484166
v 3.062593 0.061324 2.598533
v 3.157793 0.083554 2.995552
v 3.496193 0.092575 3.221261
v 3.921038 0.000000 3.149341
v 4.222637 0.062349 2.874127
v 3.964679 0.011204 2.575957
v 3.147525 0.960441 3.113901
v 3.614753 0.927298 3.230370
v 4.009860 0.899693 3.094926
v 4.371876 0.880163 2.750972
v 3.916411 0.958721 2.467683
v 3.415661 0.973989 2.432454
v 3.082779 0.950793 2.724471
v -1.449092 1.248462 1.926598
v -1.372653 1.219736 1.580812
v -1.737024 1.193428 1.373007
v -2.095551 1.176603 1.630179
v -1.863327 1.138720 1.943095
v -1.340442 1.732193 1.916082
v -1.434529 1.824245 1.544557
v -1.828727 1.756028 1.354208
v -2.008405 1.790574 1.699373
v -1.823784 1.776031 2.024945
v 3.107983 0.973030 -0.958462
v 3.331231 0.973648 -1.137881
v 3.158627 0.995822 -1.312572
v 2.773981 0.999726 -1.306617
v 2.775681 0.990403 -1.067933
v 3.408029 1.262912 -1.137604
v 3.148549 1.314626 -1.308248
v 2.856770 1.303178 -1.256060
v 2.720910 1.272285 -1.043445
v 3.123452 1.298807 -0.938159
v -2.898427 0.669827 -2.063465
v -2.922093 0.659948 -2.135007
v -2.994751 0.523356 -2.155006
v -3.074676 0.571929 -2.118391
v -3.032995 0.560265 -2.047944
v -2.968224 0.547669 -2.031382
v -2.911560 1.296374 -2.138326
v -2.994683 1.389336 -2.176504
v -3.066936 1.325624 -2.120156
v -3.059124 1.309636 -2.033062
v -2.971526 1.374448 -2.032711
v -2.907943 1.398348 -2.062915
v 0.973394 1.725079 1.082771
v 0.946963 1.608681 0.867482
v 0.647746 1.685457 0.869587
v 0.520975 1.624046 1.065466
v 0.755916 1.674390 1.171338
v 0.973006 2.354692 0.858288
v 0.635150 2.347662 0.838352
v 0.472532 2.475591 1.064824
v 0.742942 2.458586 1.201723
v 0.973284 2.427916 1.089873
v -3.920633 0.417046 -1.444321
v -4.367485 0.426973 -1.061314
v -3.638281 0.443879 -0.878621
v -3.134481 0.408368 -1.102831
v -3.218569 0.374960 -1.548893
v -3.329299 0.717175 -1.442928
v -3.935414 0.777726 -1.472289
v -4.371876 0.784566 -1.074067
v -3.654404 0.784993 -0.855410
v -3.085426 0.719765 -1.082561
v -2.123425 1.289894 0.936194
v -2.097167 1.293601 1.046839
v -2.021219 1.153191 1.107985
v -1.926311 1.196292 1.054181
v -1.925563 1.280058 0.923259
v -2.028643 1.325899 0.896367
v -2.118298 2.232465 1.089781
v -2.003178 2.136262 1.115339
v -1.920562 2.163085 1.034267
v -1.936200 2.199650 0.904426
v -2.046072 2.207956 0.880754
v -2.106465 2.218336 0.964492
v 0.923290 1.445412 0.685094
v 0.858284 1.445412 0.660563
v 0.835443 1.470761 0.721088
v 0.900450 1.470761 0.745620
v 0.967898 1.767857 0.566886
v 0.902892 1.767857 0.542355
v 0.880051 1.793205 0.602880
v 0.945058 1.793205 0.627412
v 1.722204 0.909079 0.681028
v 1.732347 0.909079 0.612110
v 1.732234 0.978739 0.612093
v 1.722092 0.978739 0.681011
v 2.024272 0.909578 0.725484
v 2.034415 0.909578 0.656566
v 2.034302 0.979238 0.656550
v 2.024159 0.979238 0.725468
v -0.491979 1.148270 0.331138
v -0.467332 1.148270 0.361672
v -0.472268 1.186993 0.365656
v -0.496915 1.186993 0.335123
v -1.354331 0.966717 1.027239
v -1.329684 0.966717 1.057772
v -1.334620 1.005441 1.061757
v -1.359267 1.005441 1.031223
v 0.299798 1.308587 -0.135642
v 0.262250 1.308587 -0.154099
v 0.246763 1.331350 -0.122594
v 0.284312 1.331350 -0.104137
v 0.476288 1.925594 -0.494682
v 0.438740 1.925594 -0.513139
v 0.423253 1.948357 -0.481634
v 0.460802 1.948357 -0.463177
v 2.902629 1.113300 0.112255
v 2.866526 1.113300 0.089254
v 2.850164 1.143385 0.114937
v 2.886266 1.143385 0.137938
v 3.206908 1.686489 -0.365344
v 3.170805 1.686489 -0.388345
v 3.154443 1.716575 -0.362663
v 3.190546 1.716575 -0.339661
v -2.568952 1.011851 -2.380926
v -2.505890 1.011851 -2.340754
v -2.486417 1.077250 -2.371323
v -2.549479 1.077250 -2.411495
v -3.035929 1.493545 -1.647868
v -2.972867 1.493545 -1.607696
v -2.953393 1.558944 -1.638265
v -3.016456 1.558944 -1.678437
v -0.658592 0.629315 -1.266690
v -0.616034 0.629315 -1.287561
v -0.604464 0.668764 -1.263968
v -0.647021 0.668764 -1.243097
v -0.498158 0.386622 -0.939563
v -0.455601 0.386622 -0.960435
v -0.444031 0.426071 -0.936842
v -0.486588 0.426071 -0.915971
v -0.396276 1.040464 -0.582021
v -0.462909 1.040464 -0.569403
v -0.470831 1.093250 -0.611238
v -0.404197 1.093250 -0.623855
v -0.473559 0.705401 -0.990163
v -0.540193 0.705401 -0.977545
v -0.548114 0.758188 -1.019380
v -0.481480 0.758188 -1.031997
v 2.227161 1.226485 -0.267127
v 3.475876 0.922939 0.567843
v 3.710904 0.833220 0.183736
v 2.462190 1.136766 -0.651233
v 2.276149 1.399377 -0.277535
v 3.524863 1.095831 0.557434
v 3.759892 1.006113 0.173327
v 2.511178 1.309659 -0.661642
v 2.269883 0.898432 -1.617044
v 3.459918 0.667220 -0.508388
v 3.896912 0.523374 -1.007458
v 2.706877 0.754585 -2.116114
v 2.314253 1.072510 -1.628366
v 3.504288 0.841298 -0.519711
v 3.941282 0.697452 -1.018781
v 2.751247 0.928663 -2.127437
v -3.360723 0.934883 -1.190939
v -2.156159 1.437272 -0.146756
v -1.902143 1.509628 -0.474600
v -3.106707 1.007238 -1.518783
v -3.422181 1.103749 -1.201288
v -2.217617 1.606138 -0.157105
v -1.963601 1.678494 -0.484949
v -3.168165 1.176104 -1.529132
v -2.592276 0.696830 1.819813
v -1.537443 0.339094 1.613185
v -1.623108 0.299044 1.245204
v -2.677941 0.656780 1.451832
v -2.540684 0.866562 1.789330
v -1.485851 0.508826 1.582702
v -1.571516 0.468777 1.214721
v -2.626349 0.826513 1.421348
v -2.439133 1.330383 1.124796
v -1.719648 0.961592 0.769453
v -1.826849 1.047986 0.462733
v -2.546334 1.416776 0.818075
v -2.351947 1.487260 1.138511
v -1.632462 1.118470 0.783169
v -1.739664 1.204864 0.476448
v -2.459149 1.573654 0.831790
v -2.236239 1.108970 0.278157
v -1.319883 1.443279 -0.298860
v -1.578769 1.415796 -0.725917
v -2.495125 1.081486 -0.148900
v -2.286612 1.280676 0.297643
v -1.370256 1.614985 -0.279374
v -1.629142 1.587502 -0.706431
v -2.545497 1.253192 -0.129414
vn 0.0318 0.9715 -0.2348
vn -0.1113 0.0856 0.9901
vn 0.7758 -0.0590 0.6282
vn 0.8519 0.0089 -0.5237
vn 0.0914 0.0452 -0.9948
vn -0.3039 -0.0038 -0.9527
vn -0.8951 0.0743 -0.4396
vn -0.3773 0.0052 0.9261
vn -0.2135 0.9257 -0.3124
vn -0.7561 -0.0395 0.6532
vn 0.7973 -0.0890 0.5970
vn 0.9001 -0.0055 0.4357
vn 0.8986 0.0399 -0.4369
vn 0.3237 0.0312 -0.9456
vn -0.9024 -0.0542 -0.4275
vn -0.9868 -0.0696 0.1460
vn -0.6749 0.6477 0.3536
vn 0.8057 -0.0679 0.5884
vn 0.4933 0.0194 -0.8696
vn 0.2102 -0.0511 -0.9763
vn -0.7437 -0.0269 -0.6679
vn -0.9910 -0.0488 0.1244
vn 0.4095 0.1576 0.8986
vn 0.4913 0.0143 0.8709
vn -0.1339 0.9876 -0.0823
vn -0.6766 -0.5475 -0.4924
vn -0.5880 -0.3637 0.7225
vn -0.2799 -0.3744 0.8840
vn 0.2670 -0.4345 0.8602
vn 0.8294 -0.4687 -0.3041
vn 0.5961 -0.4641 -0.6552
vn -0.1730 -0.4153 -0.8931
vn -0.1418 0.9896 0.0255
vn 0.9736 -0.1495 0.1727
vn 0.4685 0.0289 -0.8830
vn -0.7400 -0.6508 0.1698
vn -0.5959 -0.3230 0.7353
vn -0.3477 -0.0156 0.9375
vn 0.1395 0.0323 0.9897
vn -0.1644 0.9846 0.0590
vn 0.5369 -0.6903 0.4849
vn 0.5307 -0.5624 -0.6340
vn 0.0705 -0.6742 -0.7351
vn -0.6784 -0.7319 0.0637
vn -0.2276 -0.7000 0.6769
vn 0.0506 0.9848 -0.1664
vn -0.3759 -0.2264 0.8986
vn 0.8499 -0.1656 0.5003
vn 0.8035 0.0064 -0.5952
vn 0.1766 -0.1398 -0.9743
vn -0.8121 -0.1477 -0.5645
vn -0.7870 -0.0941 0.6097
vn 0.0295 0.9995 -0.0117
vn -0.3585 -0.5552 0.7505
vn 0.4284 -0.4748 0.7688
vn 0.6505 -0.3954 -0.6484
vn -0.0261 -0.4135 -0.9101
vn -0.6189 -0.6615 -0.4236
vn -0.0587 0.9968 0.0539
vn 0.5221 -0.7604 0.3862
vn 0.5866 -0.7976 -0.1403
vn -0.3204 -0.8407 -0.4365
vn -0.4928 -0.8673 0.0704
vn -0.0515 -0.7916 0.6089
vn 0.1642 0.8787 -0.4483
vn 0.8699 0.0677 -0.4885
vn 0.1418 0.0167 -0.9897
vn -0.9945 0.0804 0.0665
vn -0.5630 -0.0202 0.8262
vn 0.3615 0.0067 0.9324
vn 0.0630 0.9928 -0.1015
vn 0.1371 0.0014 0.9906
vn 0.9735 0.2137 -0.0815
vn 0.2322 0.0528 -0.9712
vn -0.5052 0.1875 -0.8424
vn -0.8041 -0.0651 0.5909
vn 0.0390 0.9854 0.1657
vn -0.3164 -0.1877 -0.9299
vn -0.7559 0.0264 0.6541
vn -0.4156 -0.1640 0.8946
vn 0.5658 -0.1131 0.8168
vn 0.8757 -0.0690 -0.4780
vn 0.1934 -0.0513 -0.9798
vn -0.6451 0.6586 0.3874
vn 0.6349 0.0264 -0.7721
vn -0.3642 0.0797 -0.9279
vn -0.9329 0.0369 -0.3582
vn -0.7216 0.0390 0.6912
vn 0.2777 0.0672 0.9583
vn 0.4740 0.0396 0.8796
vn -0.6058 0.7829 -0.1414
vn 0.2895 -0.0231 -0.9569
vn -0.7915 -0.0262 -0.6106
vn -0.8631 0.0386 0.5035
vn -0.5117 -0.0291 0.8587
vn 0.9400 0.0385 0.3389
vn 0.2544 0.1281 -0.9586
vn -0.1628 0.9647 -0.2070
vn 0.6567 0.0379 -0.7532
vn -0.9205 -0.0198 -0.3902
vn -0.9633 0.1833 0.1960
vn -0.7830 0.0674 0.6184
vn 0.8381 0.0370 0.5443
vn 0.9606 0.1543 -0.2311
vn -0.0200 0.9983 0.0546
vn 0.3208 -0.9283 0.1881
vn 0.2232 -0.8711 -0.4374
vn -0.1019 -0.8270 -0.5528
vn -0.2806 -0.9221 -0.2665
vn -0.1905 -0.9148 0.3561
vn 0.1929 -0.8228 0.5346
vn -0.2268 0.9733 0.0359
vn -0.1493 -0.7705 0.6198
vn 0.3760 -0.8205 0.4305
vn 0.5812 -0.7705 -0.2619
vn 0.2797 -0.7429 -0.6082
vn -0.1919 -0.7996 -0.5691
vn -0.4117 -0.8794 0.2390
vn 0.5464 0.7799 0.3053
vn -0.5947 -0.2964 -0.7473
vn -0.4419 -0.2265 0.8680
vn 0.4775 -0.2433 0.8442
vn 0.9306 -0.2702 -0.2469
vn -0.0644 -0.2025 -0.9772
vn -0.0024 0.9986 -0.0534
vn -0.6737 -0.4398 0.5938
vn 0.3377 -0.3342 0.8799
vn 0.7057 -0.4883 0.5135
vn 0.7209 -0.5467 -0.4259
vn -0.3100 -0.4568 -0.8338
vn -0.9076 -0.3744 -0.1900
vn 0.0140 0.9038 0.4276
vn 0.1947 0.0168 0.9807
vn 0.9914 0.0283 -0.1274
vn 0.0175 -0.0090 -0.9998
vn -0.8984 -0.0320 -0.4380
vn -0.7172 0.0076 0.6968
vn -0.3366 0.9336 0.1229
vn 0.7395 -0.4245 0.5224
vn 0.8156 -0.3938 -0.4239
vn 0.2058 -0.3935 -0.8960
vn -0.3107 -0.5972 -0.7395
vn -0.7799 -0.3195 0.5383
vn -0.4855 -0.5394 0.6880
vn -0.1896 0.9771 -0.0964
vn 0.3316 -0.6893 0.6441
vn 0.5865 -0.7862 0.1947
vn 0.3023 -0.7320 -0.6106
vn -0.2399 -0.7132 -0.6586
vn -0.2581 -0.6851 -0.6812
vn -0.2458 -0.5842 0.7735
vn -0.1377 -0.6524 0.7452
vn 0.0011 0.9837 -0.1798
vn 0.9875 -0.0991 -0.1225
vn 0.2689 -0.0092 -0.9631
vn -0.8961 -0.2317 -0.3786
vn -0.9991 -0.0354 0.0227
vn -0.2368 0.0170 0.9714
vn 0.4474 -0.0672 0.8918
vn 0.1526 0.9573 -0.2456
vn 0.9169 -0.0413 -0.3969
vn -0.1951 0.0127 -0.9807
vn -0.8818 -0.0984 -0.4613
vn -0.7244 0.0491 0.6876
vn 0.4192 0.2946 0.8588
vn 0.8237 0.3032 0.4792
vn -0.3066 0.9033 -0.3002
vn -0.5849 -0.0708 0.8080
vn -0.0182 -0.0628 0.9979
vn 0.7565 -0.1263 0.6417
vn 0.3058 0.0181 -0.9519
vn 0.0769 -0.0593 -0.9953
vn -0.3508 0.1667 0.9215
vn 0.3987 0.9022 0.1648
vn -0.5545 -0.1006 0.8261
vn -0.2966 -0.0167 0.9549
vn 0.8584 -0.1560 -0.4886
vn 0.7397 0.0064 -0.6729
vn -0.1191 -0.0053 -0.9929
vn -0.3740 0.9071 0.1931
vn 0.0359 -0.5181 -0.8546
vn -0.2903 -0.5089 -0.8104
vn -0.6473 -0.5934 0.4784
vn 0.0592 -0.4884 0.8706
vn 0.4014 -0.4983 0.7685
vn 0.6994 -0.5947 -0.3964
vn -0.0150 0.9980 0.0621
vn -0.2266 -0.6524 0.7232
vn 0.2026 -0.6582 0.7251
vn -0.5067 0.4387 0.7422
vn 0.2835 -0.7040 -0.6511
vn 0.0396 -0.5789 -0.8144
vn -0.4555 -0.6810 -0.5734
vn -0.7117 -0.6894 0.1354
vn -0.0403 0.9969 0.0674
vn 0.9511 -0.2087 0.2276
vn 0.4955 -0.0014 -0.8686
vn -0.5748 -0.1207 -0.8093
vn -0.7995 0.0460 0.5989
vn 0.0742 -0.1316 0.9885
vn -0.0883 0.9922 0.0877
vn 0.2887 -0.7015 -0.6516
vn 0.7130 0.0320 -0.7004
vn -0.0136 0.1679 -0.9857
vn -0.9816 -0.1907 -0.0005
vn -0.3147 -0.0442 0.9482
vn -0.5836 0.7878 0.1970
vn 0.9500 -0.0173 -0.3118
vn -0.5542 -0.1022 -0.8261
vn -0.4154 0.0021 -0.9096
vn -0.8628 -0.0401 0.5039
vn -0.2476 0.0006 0.9689
vn 0.4109 0.0047 0.9117
vn -0.0126 0.9574 -0.2885
vn 0.0624 -0.3351 -0.9401
vn -0.0192 -0.0475 -0.9987
vn -0.4452 -0.3066 0.8413
vn -0.4030 -0.0421 0.9142
vn 0.3790 -0.0093 0.9253
vn 0.0035 0.9999 -0.0134
vn 0.0407 -0.0756 -0.9963
vn -0.6739 -0.0346 -0.7380
vn -0.2906 -0.0786 0.9536
vn 0.3567 -0.1165 0.9269
vn 0.7562 0.4040 -0.5147
vn 0.0880 0.9943 -0.0598
vn -0.3321 -0.1499 0.9313
vn 0.7160 -0.1355 0.6848
vn 0.4879 0.0151 0.8728
vn 0.9998 0.0118 0.0133
vn 0.2473 -0.0123 -0.9689
vn -0.9932 -0.0801 -0.0848
vn -0.1288 -0.9311 0.3413
vn 0.1288 0.9311 -0.3413
vn 0.3287 -0.3648 -0.8711
vn -0.9356 -0.0000 -0.3531
vn -0.3287 0.3648 0.8711
vn 0.9356 -0.0000 0.3531
vn -0.9893 -0.0016 -0.1456
vn 0.9893 0.0016 0.1456
vn 0.0016 -1.0000 0.0002
vn 0.1456 -0.0000 -0.9893
vn -0.0016 1.0000 -0.0002
vn -0.1456 -0.0000 0.9893
vn 0.7679 0.1617 -0.6198
vn -0.7679 -0.1617 0.6198
vn 0.1258 -0.9868 -0.1015
vn 0.6281 -0.0000 0.7781
vn -0.1258 0.9868 0.1015
vn -0.6281 -0.0000 -0.7781
vn -0.2400 -0.8391 0.4883
vn 0.2400 0.8391 -0.4882
vn 0.3701 -0.5441 -0.7530
vn -0.8974 -0.0000 -0.4411
vn -0.3701 0.5440 0.7530
vn 0.8974 -0.0000 0.4411
vn -0.3776 -0.7114 0.5927
vn 0.3776 0.7114 -0.5927
vn 0.3822 -0.7028 -0.6000
vn -0.8434 -0.0000 -0.5373
vn -0.3822 0.7028 0.6000
vn 0.8434 -0.0000 0.5373
vn 0.4699 -0.4847 -0.7377
vn -0.4699 0.4847 0.7377
vn -0.2604 -0.8747 0.4088
vn 0.2604 0.8747 -0.4088
vn -0.3665 0.5544 -0.7472
vn 0.3665 -0.5544 0.7472
vn -0.2441 -0.8323 -0.4977
vn 0.8978 -0.0000 -0.4403
vn 0.2441 0.8323 0.4977
vn -0.8978 -0.0000 0.4403
vn 0.1448 0.6278 0.7648
vn -0.1448 -0.6278 -0.7648
vn 0.1168 -0.7784 0.6169
vn -0.9825 -0.0000 0.1860
vn -0.1168 0.7784 -0.6169
vn 0.9825 -0.0000 -0.1860
vn -0.2722 -0.9605 0.0578
vn 0.2722 0.9605 -0.0578
vn -0.5119 0.1954 0.8365
vn 0.8148 -0.1981 0.5448
vn 0.5119 -0.1954 -0.8365
vn -0.8148 0.1981 -0.5448
vn -0.2465 -0.9671 0.0629
vn 0.2465 0.9671 -0.0629
vn -0.6438 0.2119 0.7353
vn 0.7244 -0.1407 0.6749
vn 0.6438 -0.2119 -0.7353
vn -0.7244 0.1407 -0.6749
vn 0.3414 -0.9381 0.0575
vn -0.3414 0.9381 -0.0575
vn -0.6034 -0.1719 0.7787
vn 0.7207 0.3006 0.6247
vn 0.6034 0.1719 -0.7787
vn -0.7207 -0.3006 -0.6247
vn -0.2866 -0.9430 0.1694
vn 0.2866 0.9430 -0.1694
vn 0.2255 0.1054 0.9685
vn 0.9311 -0.3158 -0.1824
vn -0.2255 -0.1054 -0.9685
vn -0.9311 0.3158 0.1824
vn -0.4844 -0.8715 -0.0762
vn 0.4844 0.8715 0.0762
vn 0.3189 -0.2570 0.9123
vn 0.8147 -0.4176 -0.4024
vn -0.3189 0.2570 -0.9123
vn -0.8147 0.4176 0.4024
vn 0.2798 -0.9539 -0.1083
vn -0.2798 0.9539 0.1083
vn 0.5176 0.0550 0.8538
vn 0.8086 0.2950 -0.5091
vn -0.5176 -0.0549 -0.8538
vn -0.8086 -0.2950 0.5091
vn -0.4452 0.8886 -0.1104
vn 0.3551 0.9324 0.0677
vn -0.1588 0.9505 -0.2670
vn -0.3684 0.9296 0.0020
vn 0.4319 -0.0810 0.8983
vn 0.8035 -0.0434 0.5937
vn 0.8618 0.0133 -0.5070
vn 0.3405 -0.0344 -0.9396
vn -0.3379 0.0116 -0.9411
vn -0.9940 -0.0822 0.0718
vn -0.5707 0.0622 0.8188
vn 0.0070 0.9716 -0.2366
vn 0.5299 0.7712 0.3527
vn 0.5292 0.7649 0.3673
vn 0.0434 0.9942 0.0982
vn -0.5703 -0.0105 0.8214
vn 0.4219 0.0371 0.9059
vn 0.9975 0.0711 0.0044
vn 0.8370 0.0583 -0.5441
vn 0.2700 0.0385 -0.9621
vn -0.8606 -0.0253 -0.5087
vn -0.8986 -0.0235 0.4382
vn -0.2355 0.9501 -0.2047
vn -0.3091 0.9341 -0.1786
vn -0.2823 0.8991 -0.3347
vn -0.2563 0.9435 -0.2102
vn 0.6869 -0.0275 -0.7262
vn -0.2155 0.0473 -0.9754
vn -0.8652 0.0125 -0.5012
vn -0.8591 0.0186 0.5115
vn -0.1028 0.0164 0.9946
vn -0.2182 -0.1479 0.9646
vn 0.9538 0.0634 -0.2936
vn 0.2500 0.9680 0.0199
vn 0.1219 0.9917 0.0401
vn 0.1229 0.9898 -0.0718
vn 0.5441 0.7466 0.3829
vn 0.8426 0.5346 -0.0653
vn 0.8419 0.4217 -0.3368
vn 0.2800 0.3744 -0.8840
vn -0.4493 0.4709 -0.7592
vn -0.8656 0.4985 -0.0477
vn -0.5480 0.4587 0.6995
vn -0.0166 0.4010 0.9159
vn -0.0850 0.9962 -0.0173
vn 0.1123 0.9935 -0.0178
vn 0.2095 0.9692 0.1294
vn 0.2554 -0.0979 -0.9619
vn -0.0194 0.0055 -0.9998
vn -0.2686 0.2557 -0.9287
vn -0.4529 0.5924 -0.6663
vn 0.2401 -0.0410 0.9699
vn 0.8777 0.0114 0.4790
vn -0.1273 0.9873 0.0946
vn 0.0783 0.9920 0.0991
vn -0.4971 0.6837 -0.5342
vn -0.7700 0.5907 0.2413
vn -0.0203 0.6853 0.7279
vn 0.6439 0.7413 0.1891
vn 0.2519 0.7026 -0.6655
vn 0.2622 0.9526 -0.1542
vn 0.2842 0.9581 0.0360
vn -0.4373 0.8990 0.0224
vn 0.9851 0.1442 0.0936
vn 0.7949 0.0157 -0.6065
vn -0.2805 0.2328 -0.9312
vn -0.9642 0.2333 0.1260
vn -0.6030 0.0453 0.7964
vn 0.0661 0.0526 0.9964
vn -0.0493 0.9982 0.0351
vn 0.1082 0.9940 0.0172
vn 0.6822 0.6216 0.3849
vn 0.2303 0.5763 -0.7841
vn -0.3249 0.4037 -0.8553
vn -0.8526 0.4484 0.2682
vn -0.0832 0.3628 0.9282
vn -0.1098 0.9892 -0.0969
vn 0.0157 0.9739 -0.2265
vn -0.6237 0.7816 0.0109
vn -0.0649 0.8680 0.4924
vn 0.4058 0.8409 0.3580
vn 0.3337 0.8180 -0.4685
vn -0.3420 0.7548 -0.5598
vn 0.1438 0.9866 0.0773
vn -0.5415 0.8010 -0.2553
vn 0.5752 -0.0140 -0.8179
vn -0.1197 -0.0288 -0.9924
vn -0.8281 -0.1166 -0.5484
vn -0.3643 -0.0580 0.9295
vn 0.6199 -0.0549 0.7827
vn 0.1186 0.9828 0.1413
vn -0.1058 0.9903 0.0896
vn 0.8388 -0.1843 0.5122
vn 0.2943 -0.0114 -0.9557
vn -0.2740 -0.0540 -0.9602
vn -0.7261 0.0127 0.6874
vn -0.0271 -0.2042 0.9786
vn -0.0379 0.9896 0.1387
vn 0.0839 0.9922 -0.0921
vn 0.3254 0.9454 0.0193
vn -0.7333 0.0450 0.6784
vn 0.0772 0.1667 0.9830
vn 0.8964 0.2675 0.3536
vn 0.5253 0.2108 -0.8244
vn -0.1195 0.1513 -0.9812
vn -0.9411 0.2437 -0.2342
vn 0.1271 0.7972 -0.5902
vn 0.5779 0.6932 -0.4307
vn 0.4068 0.7386 0.5377
vn 0.5485 0.0169 -0.8360
vn 0.1798 -0.0541 -0.9822
vn -0.6834 -0.0506 -0.7283
vn -0.4879 0.0076 0.8729
vn 0.0083 -0.0024 1.0000
vn 0.9977 -0.0325 0.0588
vn 0.1256 0.9586 -0.2554
vn -0.0814 0.7130 -0.6964
vn -0.1416 0.6254 0.7673
vn -0.6390 -0.0585 -0.7670
vn -0.9851 -0.0463 -0.1657
vn -0.2353 0.0058 0.9719
vn 0.3125 -0.0756 0.9469
vn 0.9994 0.0258 0.0249
vn 0.9929 -0.1156 -0.0295
vn -0.0409 0.9965 -0.0725
vn -0.0166 0.9998 -0.0062
vn -0.1203 0.9895 0.0795
vn -0.4576 -0.2661 -0.8484
vn -0.9275 -0.0260 -0.3728
vn -0.8294 0.0436 0.5570
vn -0.0008 -0.2064 0.9785
vn 0.9470 -0.0567 0.3162
vn 0.7889 -0.0097 -0.6145
vn 0.0140 0.9964 0.0836
vn -0.0195 0.9951 0.0974
vn -0.0329 0.9976 0.0613
vn -0.3190 0.9295 0.1851
vn -0.0691 0.8244 0.5618
vn 0.2202 0.8717 0.4377
vn 0.2821 0.9549 -0.0929
vn -0.0180 0.8398 -0.5425
vn -0.2120 0.8300 -0.5160
vn -0.0762 0.9906 -0.1141
vn 0.0324 0.9986 -0.0415
vn -0.0123 0.9885 0.1509
vn -0.1179 0.7726 -0.6239
vn -0.5870 0.7797 0.2179
vn -0.5193 0.7573 0.3960
vn 0.1025 0.7692 0.6307
vn 0.4176 0.9044 0.0875
vn 0.2482 0.7953 -0.5531
vn 0.4402 0.8604 0.2567
vn -0.4750 0.7544 0.4531
vn 0.8535 0.3346 0.3995
vn 0.8353 0.2337 -0.4976
vn -0.3039 0.2472 -0.9201
vn -0.9622 0.2688 -0.0441
vn -0.2970 0.2135 0.9307
vn 0.0328 0.9842 -0.1742
vn 0.0209 0.9906 -0.1353
vn 0.0456 0.9818 -0.1842
vn 0.7912 0.2935 0.5366
vn 0.4720 0.5244 -0.7086
vn 0.1525 0.2995 -0.9418
vn -0.8010 0.5220 -0.2931
vn -0.5878 0.5472 0.5959
vn 0.1460 0.4215 0.8950
vn -0.5638 0.4719 0.6778
vn -0.2508 0.6387 0.7274
vn 0.2915 0.0332 0.9560
vn 0.9996 0.0175 -0.0214
vn 0.0325 -0.0113 -0.9994
vn -0.6494 0.0213 -0.7602
vn -0.5381 0.0339 0.8422
vn 0.1324 0.9886 0.0718
vn -0.4711 0.8818 -0.0229
vn 0.2963 0.9212 0.2521
vn 0.0098 0.3561 -0.9344
vn -0.7196 0.4056 -0.5636
vn -0.8433 0.4100 0.3474
vn 0.4681 0.5869 0.6607
vn 0.7360 0.3641 0.5708
vn 0.6023 0.5248 -0.6015
vn 0.1379 0.9849 -0.1047
vn -0.1496 0.9847 -0.0895
vn -0.1145 0.9857 -0.1235
vn 0.1349 0.9856 -0.1018
vn -0.5315 0.7565 -0.3810
vn -0.5882 0.8083 -0.0263
vn -0.3087 0.7338 0.6052
vn 0.3166 0.7181 0.6197
vn 0.4636 0.8828 0.0751
vn 0.4477 0.7283 -0.5188
vn -0.0524 0.6316 -0.7735
vn -0.3004 0.9529 0.0428
vn -0.1778 0.9580 -0.2249
vn -0.3159 0.9394 -0.1329
vn 0.2556 -0.0119 -0.9667
vn -0.0501 0.0085 -0.9987
vn -0.2464 0.1704 -0.9541
vn -0.3168 0.0379 0.9477
vn 0.0437 0.0323 0.9985
vn 0.9643 -0.0401 0.2618
vn -0.2047 0.9539 0.2197
vn 0.0004 0.9810 -0.1938
vn 0.0816 0.9966 0.0109
vn 0.5042 -0.2527 -0.8258
vn -0.7057 -0.1864 -0.6836
vn -0.9683 -0.2488 -0.0219
vn -0.4925 -0.0491 0.8689
vn 0.6518 0.1815 0.7364
vn 0.8947 -0.0273 -0.4458
vn 0.4342 0.6898 -0.5794
vn 0.1265 0.9871 0.0982
vn 0.2850 0.9585 -0.0045
vn 0.1464 -0.0014 0.9892
vn 0.9941 0.0045 -0.1088
vn 0.4378 -0.0426 -0.8981
vn -0.2774 0.0642 -0.9586
vn -0.9751 0.0271 0.2201
vn -0.9665 -0.2338 0.1061
vn 0.2883 0.9334 0.2137
vn -0.4324 0.8206 -0.3736
vn -0.8992 0.1747 -0.4011
vn 0.3640 0.0173 0.9312
vn 0.5663 0.1134 0.8164
vn 0.0701 0.0260 -0.9972
vn -0.7423 0.0192 -0.6698
vn 0.3094 0.9391 0.1496
vn -0.0233 0.9993 0.0293
vn -0.2688 0.9357 0.2285
vn 0.1926 0.4940 0.8479
vn 0.6437 0.6398 0.4199
vn 0.7096 0.6076 -0.3567
vn -0.1920 0.4747 -0.8589
vn -0.6359 0.5805 -0.5085
vn -0.7187 0.5973 0.3560
vn 0.0801 0.9961 -0.0380
vn 0.0964 0.9922 0.0790
vn 0.1243 0.9894 0.0746
vn 0.0268 0.9983 0.0517
vn -0.2354 0.6663 -0.7075
vn -0.6938 0.7089 0.1267
vn 0.6478 -0.3029 0.6990
vn 0.2555 0.5610 0.7874
vn 0.4207 0.6692 0.6126
vn 0.5477 0.6053 -0.5776
vn 0.3303 0.6643 -0.6705
vn 0.1343 0.9693 0.2061
vn -0.0981 0.9839 -0.1495
vn 0.9707 0.0859 -0.2245
vn 0.4289 0.0398 -0.9025
vn -0.8659 0.1757 -0.4683
vn -0.8700 -0.0093 0.4929
vn 0.2173 -0.0276 0.9757
vn 0.1615 0.9854 0.0531
vn -0.0319 0.9987 0.0405
vn 0.5062 0.5869 0.6319
vn -0.1764 0.0078 -0.9843
vn -0.8221 0.3044 -0.4811
vn -0.2428 -0.1307 0.9612
vn 0.5656 -0.0780 0.8210
vn -0.5181 0.5204 -0.6788
vn 0.7553 0.6532 -0.0540
vn -0.5709 0.8022 0.1750
vn 0.4067 -0.0115 -0.9135
vn 0.1631 0.0575 -0.9849
vn -0.9958 0.0104 0.0912
vn 0.0104 -0.0195 0.9998
vn 0.4281 0.0032 0.9037
vn 0.9978 0.0131 -0.0655
vn -0.0020 0.9535 -0.3015
vn 0.2325 0.9088 -0.3464
vn 0.8822 0.3603 -0.3031
vn -0.8227 -0.0424 -0.5668
vn -0.8414 0.2975 -0.4513
vn 0.4337 -0.0277 0.9007
vn 1.0000 0.0002 -0.0013
vn 0.0875 0.9940 -0.0663
vn 0.1020 0.9931 -0.0582
vn -0.6495 -0.0852 -0.7556
vn -0.2436 0.0316 0.9694
vn 0.4037 -0.0431 0.9139
vn 0.9746 -0.1423 -0.1731
vn -0.1274 0.2555 -0.9584
vn 0.6443 0.7643 -0.0253
vn 0.1130 0.9032 0.4140
vn 0.1907 0.9507 0.2448
vn -0.9697 0.0897 0.2271
vn -0.4894 0.1119 0.8648
vn 0.9925 -0.0084 -0.1219
vn 0.2093 -0.0176 -0.9777
vn -0.8123 -0.0264 -0.5826
vn -0.4302 0.1475 -0.8906
vn 0.3701 -0.5440 -0.7530
vn -0.3701 0.5441 0.7530
vn 0.5176 0.0549 0.8538
vn -0.5176 -0.0550 -0.8539
vt 0.285128 0.418280
vt 0.285128 0.331720
vt 0.474750 0.375000
vt 0.275250 0.275250
vt 0.474750 0.474750
vt 0.275250 0.474750
vt 0.474750 0.275250
vt 0.352804 0.277751
vt 0.437193 0.297012
vt 0.535128 0.331720
vt 0.602804 0.277751
vt 0.687193 0.297012
vt 0.525250 0.275250
vt 0.724750 0.474750
vt 0.525250 0.474750
vt 0.724750 0.275250
vt 0.325125 0.288614
vt 0.424875 0.288614
vt 0.424875 0.461386
vt 0.544301 0.433632
vt 0.544301 0.316368
vt 0.655824 0.280132
vt 0.525250 0.125000
vt 0.575125 0.038614
vt 0.724750 0.125000
vt 0.525250 0.025250
vt 0.724750 0.224750
vt 0.525250 0.224750
vt 0.655824 0.469868
vt 0.405824 0.469868
vt 0.294301 0.316368
vt 0.405824 0.280132
vt 0.544301 0.183632
vt 0.544301 0.066368
vt 0.655824 0.030132
vt 0.724750 0.025250
vt 0.294301 0.433632
vt 0.674875 0.038614
vt 0.325125 0.461386
vt 0.275250 0.375000
vt 0.674875 0.211386
vt 0.025250 0.125000
vt 0.075125 0.038614
vt 0.174875 0.038614
vt 0.025250 0.025250
vt 0.224750 0.224750
vt 0.025250 0.224750
vt 0.535128 0.081720
vt 0.602804 0.027751
vt 0.687193 0.047012
vt 0.575125 0.288614
vt 0.674875 0.288614
vt 0.674875 0.461386
vt 0.174875 0.211386
vt 0.224750 0.025250
vt 0.525250 0.375000
vt 0.687193 0.202988
vt 0.575125 0.211386
vt 0.155824 0.219868
vt 0.044301 0.183632
vt 0.044301 0.066368
vt 0.775250 0.275250
vt 0.974750 0.474750
vt 0.775250 0.474750
vt 0.974750 0.275250
vt 0.775250 0.025250
vt 0.974750 0.224750
vt 0.775250 0.224750
vt 0.974750 0.025250
vt 0.437193 0.452988
vt 0.352804 0.472249
vt 0.724750 0.375000
vt 0.602804 0.472249
vt 0.687193 0.452988
vt 0.535128 0.418280
vt 0.655824 0.219868
vt 0.224750 0.125000
vt 0.075125 0.211386
vt 0.535128 0.168280
vt 0.602804 0.222249
vt 0.575125 0.461386
vt 0.155824 0.030132
s 0
f 11/1/1 12/2/1 8/3/1
f 1/4/2 9/5/2 8/6/2
f 3/7/3 9/6/3 2/4/3
f 3/4/4 11/5/4 10/6/4
f 5/7/5 11/6/5 4/4/5
f 6/7/6 12/6/6 5/4/6
f 6/4/7 14/5/7 13/6/7
f 7/4/8 8/5/8 14/6/8
f 26/2/9 27/8/9 28/9/9
f 16/7/10 22/6/10 15/4/10
f 16/4/11 24/5/11 23/6/11
f 18/7/12 24/6/12 17/4/12
f 19/7/13 25/6/13 18/4/13
f 20/7/14 26/6/14 19/4/14
f 20/4/15 28/5/15 27/6/15
f 15/7/16 28/6/16 21/4/16
f 40/10/17 41/11/17 42/12/17
f 29/13/18 37/14/18 36/15/18
f 30/13/19 38/14/19 37/15/19
f 31/13/20 39/14/20 38/15/20
f 32/13/21 40/14/21 39/15/21
f 33/13/22 41/14/22 40/15/22
f 35/16/23 41/15/23 34/13/23
f 35/13/24 36/14/24 42/15/24
f 55/8/25 56/9/25 53/1/25
f 43/4/26 51/5/26 50/6/26
f 44/4/27 52/5/27 51/6/27
f 45/4/28 53/5/28 52/6/28
f 46/4/29 54/5/29 53/6/29
f 47/4/30 55/5/30 54/6/30
f 48/4/31 56/5/31 55/6/31
f 49/4/32 50/5/32 56/6/32
f 67/17/33 68/18/33 64/19/33
f 58/7/34 63/6/34 57/4/34
f 59/7/35 64/6/35 58/4/35
f 59/4/36 66/5/36 65/6/36
f 60/4/37 67/5/37 66/6/37
f 62/7/38 67/6/38 61/4/38
f 57/7/39 68/6/39 62/4/39
f 76/20/40 77/21/40 78/22/40
f 69/13/41 75/14/41 74/15/41
f 70/13/42 76/14/42 75/15/42
f 71/13/43 77/14/43 76/15/43
f 72/13/44 78/14/44 77/15/44
f 73/13/45 74/14/45 78/15/45
f 88/23/46 89/24/46 85/25/46
f 79/26/47 86/27/47 85/28/47
f 80/26/48 87/27/48 86/28/48
f 81/26/49 88/27/49 87/28/49
f 82/26/50 89/27/50 88/28/50
f 83/26/51 90/27/51 89/28/51
f 84/26/52 85/27/52 90/28/52
f 97/29/53 99/21/53 100/22/53
f 91/13/54 97/14/54 96/15/54
f 92/13/55 98/14/55 97/15/55
f 93/13/56 99/14/56 98/15/56
f 94/13/57 100/14/57 99/15/57
f 95/13/58 96/14/58 100/15/58
f 107/30/59 109/31/59 110/32/59
f 101/4/60 107/5/60 106/6/60
f 102/4/61 108/5/61 107/6/61
f 103/4/62 109/5/62 108/6/62
f 104/4/63 110/5/63 109/6/63
f 105/4/64 106/5/64 110/6/64
f 118/33/65 119/34/65 120/35/65
f 111/26/66 117/27/66 116/28/66
f 112/26/67 118/27/67 117/28/67
f 114/36/68 118/28/68 113/26/68
f 114/26/69 120/27/69 119/28/69
f 115/26/70 116/27/70 120/28/70
f 127/30/71 128/37/71 129/31/71
f 121/4/72 127/5/72 126/6/72
f 122/4/73 128/5/73 127/6/73
f 123/4/74 129/5/74 128/6/74
f 124/4/75 130/5/75 129/6/75
f 125/4/76 126/5/76 130/6/76
f 140/23/77 141/24/77 142/38/77
f 131/26/78 138/27/78 137/28/78
f 132/26/79 139/27/79 138/28/79
f 133/26/80 140/27/80 139/28/80
f 134/26/81 141/27/81 140/28/81
f 135/26/82 142/27/82 141/28/82
f 136/26/83 137/27/83 142/28/83
f 154/18/84 151/39/84 153/17/84
f 143/4/85 150/5/85 149/6/85
f 145/7/86 150/6/86 144/4/86
f 146/7/87 151/6/87 145/4/87
f 146/4/88 153/5/88 152/6/88
f 148/7/89 153/6/89 147/4/89
f 148/4/90 149/5/90 154/6/90
f 164/40/91 165/17/91 166/18/91
f 155/4/92 162/5/92 161/6/92
f 156/4/93 163/5/93 162/6/93
f 157/4/94 164/5/94 163/6/94
f 158/4/95 165/5/95 164/6/95
f 159/4/96 166/5/96 165/6/96
f 155/7/97 166/6/97 160/4/97
f 176/40/98 177/17/98 178/18/98
f 167/4/99 174/5/99 173/6/99
f 168/4/100 175/5/100 174/6/100
f 169/4/101 176/5/101 175/6/101
f 170/4/102 177/5/102 176/6/102
f 171/4/103 178/5/103 177/6/103
f 172/4/104 173/5/104 178/6/104
f 188/40/105 189/17/105 190/18/105
f 179/4/106 186/5/106 185/6/106
f 180/4/107 187/5/107 186/6/107
f 181/4/108 188/5/108 187/6/108
f 182/4/109 189/5/109 188/6/109
f 183/4/110 190/5/110 189/6/110
f 184/4/111 185/5/111 190/6/111
f 200/23/112 201/24/112 198/41/112
f 191/26/113 198/27/113 197/28/113
f 192/26/114 199/27/114 198/28/114
f 193/26/115 200/27/115 199/28/115
f 194/26/116 201/27/116 200/28/116
f 195/26/117 202/27/117 201/28/117
f 196/26/118 197/27/118 202/28/118
f 210/33/119 211/34/119 212/35/119
f 203/26/120 209/27/120 208/28/120
f 204/26/121 210/27/121 209/28/121
f 205/26/122 211/27/122 210/28/122
f 206/26/123 212/27/123 211/28/123
f 207/26/124 208/27/124 212/28/124
f 222/42/125 223/43/125 224/44/125
f 213/45/126 220/46/126 219/47/126
f 214/45/127 221/46/127 220/47/127
f 215/45/128 222/46/128 221/47/128
f 216/45/129 223/46/129 222/47/129
f 217/45/130 224/46/130 223/47/130
f 218/45/131 219/46/131 224/47/131
f 231/29/132 232/20/132 233/21/132
f 226/16/133 230/15/133 225/13/133
f 227/16/134 231/15/134 226/13/134
f 228/16/135 232/15/135 227/13/135
f 228/13/136 234/14/136 233/15/136
f 225/16/137 234/15/137 229/13/137
f 244/23/138 245/24/138 246/38/138
f 235/26/139 242/27/139 241/28/139
f 236/26/140 243/27/140 242/28/140
f 237/26/141 244/27/141 243/28/141
f 238/26/142 245/27/142 244/28/142
f 239/26/143 246/27/143 245/28/143
f 240/26/144 241/27/144 246/28/144
f 258/48/145 259/49/145 260/50/145
f 247/26/146 255/27/146 254/28/146
f 248/26/147 256/27/147 255/28/147
f 249/26/148 257/27/148 256/28/148
f 250/26/149 258/27/149 257/28/149
f 251/26/150 259/27/150 258/28/150
f 252/26/151 260/27/151 259/28/151
f 253/26/152 254/27/152 260/28/152
f 271/51/153 272/52/153 268/53/153
f 262/16/154 267/15/154 261/13/154
f 263/16/155 268/15/155 262/13/155
f 263/13/156 270/14/156 269/15/156
f 265/16/157 270/15/157 264/13/157
f 266/16/158 271/15/158 265/13/158
f 261/16/159 272/15/159 266/13/159
f 282/23/160 283/24/160 284/38/160
f 273/26/161 280/27/161 279/28/161
f 274/26/162 281/27/162 280/28/162
f 275/26/163 282/27/163 281/28/163
f 276/26/164 283/27/164 282/28/164
f 277/26/165 284/27/165 283/28/165
f 278/26/166 279/27/166 284/28/166
f 295/43/167 296/44/167 292/54/167
f 285/45/168 292/46/168 291/47/168
f 286/45/169 293/46/169 292/47/169
f 287/45/170 294/46/170 293/47/170
f 288/45/171 295/46/171 294/47/171
f 289/45/172 296/46/172 295/47/172
f 285/55/173 296/47/173 290/45/173
f 303/30/174 305/31/174 306/32/174
f 297/4/175 303/5/175 302/6/175
f 299/7/176 303/6/176 298/4/176
f 299/4/177 305/5/177 304/6/177
f 301/7/178 305/6/178 300/4/178
f 297/7/179 306/6/179 301/4/179
f 316/56/180 317/51/180 314/53/180
f 307/13/181 314/14/181 313/15/181
f 308/13/182 315/14/182 314/15/182
f 309/13/183 316/14/183 315/15/183
f 310/13/184 317/14/184 316/15/184
f 311/13/185 318/14/185 317/15/185
f 312/13/186 313/14/186 318/15/186
f 331/49/187 332/50/187 327/57/187
f 319/26/188 327/27/188 326/28/188
f 320/26/189 328/27/189 327/28/189
f 322/36/190 328/28/190 321/26/190
f 322/26/191 330/27/191 329/28/191
f 323/26/192 331/27/192 330/28/192
f 324/26/193 332/27/193 331/28/193
f 325/26/194 326/27/194 332/28/194
f 339/29/195 341/21/195 342/22/195
f 334/16/196 338/15/196 333/13/196
f 335/16/197 339/15/197 334/13/197
f 336/16/198 340/15/198 335/13/198
f 337/16/199 341/15/199 336/13/199
f 333/16/200 342/15/200 337/13/200
f 350/33/201 351/34/201 352/35/201
f 343/26/202 349/27/202 348/28/202
f 345/36/203 349/28/203 344/26/203
f 346/36/204 350/28/204 345/26/204
f 347/36/205 351/28/205 346/26/205
f 343/36/206 352/28/206 347/26/206
f 361/58/207 362/23/207 363/24/207
f 354/36/208 359/28/208 353/26/208
f 354/26/209 361/27/209 360/28/209
f 356/36/210 361/28/210 355/26/210
f 357/36/211 362/28/211 356/26/211
f 358/36/212 363/28/212 357/26/212
f 353/36/213 364/28/213 358/26/213
f 371/29/214 373/21/214 374/22/214
f 365/13/215 371/14/215 370/15/215
f 367/16/216 371/15/216 366/13/216
f 367/13/217 373/14/217 372/15/217
f 369/16/218 373/15/218 368/13/218
f 365/16/219 374/15/219 369/13/219
f 381/59/220 382/60/220 383/61/220
f 375/45/221 381/46/221 380/47/221
f 376/45/222 382/46/222 381/47/222
f 377/45/223 383/46/223 382/47/223
f 378/45/224 384/46/224 383/47/224
f 379/45/225 380/46/225 384/47/225
f 394/23/226 395/24/226 396/38/226
f 385/26/227 392/27/227 391/28/227
f 386/26/228 393/27/228 392/28/228
f 388/36/229 393/28/229 387/26/229
f 389/36/230 394/28/230 388/26/230
f 390/36/231 395/28/231 389/26/231
f 390/26/232 391/27/232 396/28/232
f 397/62/233 399/63/233 398/64/233
f 402/65/234 404/64/234 401/62/234
f 398/65/235 401/64/235 397/62/235
f 398/62/236 403/63/236 402/64/236
f 400/65/237 403/64/237 399/62/237
f 397/65/238 404/64/238 400/62/238
f 405/66/239 407/67/239 406/68/239
f 409/66/240 411/67/240 412/68/240
f 406/69/241 409/68/241 405/66/241
f 407/69/242 410/68/242 406/66/242
f 408/69/243 411/68/243 407/66/243
f 408/66/244 409/67/244 412/68/244
f 413/66/245 415/67/245 414/68/245
f 418/69/246 420/68/246 417/66/246
f 414/69/247 417/68/247 413/66/247
f 415/69/248 418/68/248 414/66/248
f 416/69/249 419/68/249 415/66/249
f 416/66/250 417/67/250 420/68/250
f 424/65/251 422/64/251 421/62/251
f 426/65/252 428/64/252 425/62/252
f 422/65/253 425/64/253 421/62/253
f 422/62/254 427/63/254 426/64/254
f 424/65/255 427/64/255 423/62/255
f 421/65/256 428/64/256 424/62/256
f 429/66/257 431/67/257 430/68/257
f 433/66/258 435/67/258 436/68/258
f 430/69/259 433/68/259 429/66/259
f 431/69/260 434/68/260 430/66/260
f 432/69/261 435/68/261 431/66/261
f 432/66/262 433/67/262 436/68/262
f 440/69/263 438/68/263 437/66/263
f 442/69/264 444/68/264 441/66/264
f 438/69/265 441/68/265 437/66/265
f 438/66/262 443/67/262 442/68/262
f 440/69/266 443/68/266 439/66/266
f 440/66/260 441/67/260 444/68/260
f 445/62/267 447/63/267 446/64/267
f 450/65/268 452/64/268 449/62/268
f 445/62/269 450/63/269 449/64/269
f 447/65/270 450/64/270 446/62/270
f 448/65/271 451/64/271 447/62/271
f 445/65/272 452/64/272 448/62/272
f 453/66/273 455/67/273 454/68/273
f 458/69/274 460/68/274 457/66/274
f 454/69/275 457/68/275 453/66/275
f 455/69/276 458/68/276 454/66/276
f 456/69/277 459/68/277 455/66/277
f 456/66/278 457/67/278 460/68/278
f 464/55/279 462/47/279 461/45/279
f 466/55/280 468/47/280 465/45/280
f 462/55/281 465/47/281 461/45/281
f 462/45/282 467/46/282 466/47/282
f 464/55/283 467/47/283 463/45/283
f 461/55/284 468/47/284 464/45/284
f 472/55/285 470/47/285 469/45/285
f 474/55/286 476/47/286 473/45/286
f 470/55/287 473/47/287 469/45/287
f 470/45/288 475/46/288 474/47/288
f 471/45/289 476/46/289 475/47/289
f 469/55/290 476/47/290 472/45/290
f 480/55/291 478/47/291 477/45/291
f 481/45/292 483/46/292 484/47/292
f 478/55/293 481/47/293 477/45/293
f 478/45/294 483/46/294 482/47/294
f 480/55/295 483/47/295 479/45/295
f 480/45/296 481/46/296 484/47/296
f 488/55/297 486/47/297 485/45/297
f 490/55/298 492/47/298 489/45/298
f 486/55/299 489/47/299 485/45/299
f 487/55/300 490/47/300 486/45/300
f 487/45/301 492/46/301 491/47/301
f 488/45/302 489/46/302 492/47/302
f 496/55/303 494/47/303 493/45/303
f 498/55/304 500/47/304 497/45/304
f 494/55/305 497/47/305 493/45/305
f 494/45/306 499/46/306 498/47/306
f 496/55/307 499/47/307 495/45/307
f 493/55/308 500/47/308 496/45/308
f 504/55/309 502/47/309 501/45/309
f 505/45/310 507/46/310 508/47/310
f 502/55/311 505/47/311 501/45/311
f 503/55/312 506/47/312 502/45/312
f 504/55/313 507/47/313 503/45/313
f 504/45/314 505/46/314 508/47/314
f 14/9/315 8/3/315 13/8/315
f 8/3/316 9/70/316 11/1/316
f 13/8/317 8/3/317 12/2/317
f 9/70/318 10/71/318 11/1/318
f 1/4/319 2/7/319 9/5/319
f 3/7/320 10/5/320 9/6/320
f 3/4/321 4/7/321 11/5/321
f 5/7/322 12/5/322 11/6/322
f 6/7/323 13/5/323 12/6/323
f 6/4/324 7/7/324 14/5/324
f 7/4/325 1/7/325 8/5/325
f 28/9/326 22/3/326 25/1/326
f 22/3/327 23/70/327 24/71/327
f 25/1/328 22/3/328 24/71/328
f 25/1/329 26/2/329 28/9/329
f 16/7/330 23/5/330 22/6/330
f 16/4/331 17/7/331 24/5/331
f 18/7/332 25/5/332 24/6/332
f 19/7/333 26/5/333 25/6/333
f 20/7/334 27/5/334 26/6/334
f 20/4/335 21/7/335 28/5/335
f 15/7/336 22/5/336 28/6/336
f 42/12/337 36/72/337 38/73/337
f 36/72/338 37/74/338 38/73/338
f 38/73/339 39/75/339 40/10/339
f 42/12/340 38/73/340 40/10/340
f 29/13/341 30/16/341 37/14/341
f 30/13/342 31/16/342 38/14/342
f 31/13/343 32/16/343 39/14/343
f 32/13/344 33/16/344 40/14/344
f 33/13/345 34/16/345 41/14/345
f 35/16/346 42/14/346 41/15/346
f 35/13/347 29/16/347 36/14/347
f 56/9/348 50/3/348 52/71/348
f 50/3/349 51/70/349 52/71/349
f 52/71/350 53/1/350 56/9/350
f 53/1/351 54/2/351 55/8/351
f 43/4/352 44/7/352 51/5/352
f 44/4/353 45/7/353 52/5/353
f 45/4/354 46/7/354 53/5/354
f 46/4/355 47/7/355 54/5/355
f 47/4/356 48/7/356 55/5/356
f 48/4/357 49/7/357 56/5/357
f 49/4/358 43/7/358 50/5/358
f 68/18/359 63/3/359 64/19/359
f 64/19/360 65/39/360 66/40/360
f 66/40/361 67/17/361 64/19/361
f 58/7/362 64/5/362 63/6/362
f 59/7/363 65/5/363 64/6/363
f 59/4/364 60/7/364 66/5/364
f 60/4/365 61/7/365 67/5/365
f 62/7/366 68/5/366 67/6/366
f 57/7/367 63/5/367 68/6/367
f 78/22/368 74/72/368 76/20/368
f 74/72/369 75/29/369 76/20/369
f 69/13/370 70/16/370 75/14/370
f 70/13/371 71/16/371 76/14/371
f 71/13/372 72/16/372 77/14/372
f 72/13/373 73/16/373 78/14/373
f 73/13/374 69/16/374 74/14/374
f 90/38/375 85/25/375 89/24/375
f 85/25/376 86/41/376 88/23/376
f 86/41/377 87/58/377 88/23/377
f 79/26/378 80/36/378 86/27/378
f 80/26/379 81/36/379 87/27/379
f 81/26/380 82/36/380 88/27/380
f 82/26/381 83/36/381 89/27/381
f 83/26/382 84/36/382 90/27/382
f 84/26/383 79/36/383 85/27/383
f 100/22/384 96/72/384 97/29/384
f 97/29/385 98/20/385 99/21/385
f 91/13/386 92/16/386 97/14/386
f 92/13/387 93/16/387 98/14/387
f 93/13/388 94/16/388 99/14/388
f 94/13/389 95/16/389 100/14/389
f 95/13/390 91/16/390 96/14/390
f 110/32/391 106/3/391 107/30/391
f 107/30/392 108/37/392 109/31/392
f 101/4/393 102/7/393 107/5/393
f 102/4/394 103/7/394 108/5/394
f 103/4/395 104/7/395 109/5/395
f 104/4/396 105/7/396 110/5/396
f 105/4/397 101/7/397 106/5/397
f 120/35/398 116/25/398 117/76/398
f 117/76/399 118/33/399 120/35/399
f 111/26/400 112/36/400 117/27/400
f 112/26/401 113/36/401 118/27/401
f 114/36/402 119/27/402 118/28/402
f 114/26/403 115/36/403 120/27/403
f 115/26/404 111/36/404 116/27/404
f 130/32/405 126/3/405 129/31/405
f 126/3/406 127/30/406 129/31/406
f 121/4/407 122/7/407 127/5/407
f 122/4/408 123/7/408 128/5/408
f 123/4/409 124/7/409 129/5/409
f 124/4/410 125/7/410 130/5/410
f 125/4/411 121/7/411 126/5/411
f 142/38/412 137/25/412 140/23/412
f 137/25/413 138/41/413 139/58/413
f 140/23/414 137/25/414 139/58/414
f 131/26/415 132/36/415 138/27/415
f 132/26/416 133/36/416 139/27/416
f 133/26/417 134/36/417 140/27/417
f 134/26/418 135/36/418 141/27/418
f 135/26/419 136/36/419 142/27/419
f 136/26/420 131/36/420 137/27/420
f 154/18/421 149/3/421 150/19/421
f 150/19/422 151/39/422 154/18/422
f 151/39/423 152/40/423 153/17/423
f 143/4/424 144/7/424 150/5/424
f 145/7/425 151/5/425 150/6/425
f 146/7/426 152/5/426 151/6/426
f 146/4/427 147/7/427 153/5/427
f 148/7/428 154/5/428 153/6/428
f 148/4/429 143/7/429 149/5/429
f 166/18/430 161/3/430 163/39/430
f 161/3/431 162/19/431 163/39/431
f 163/39/432 164/40/432 166/18/432
f 155/4/433 156/7/433 162/5/433
f 156/4/434 157/7/434 163/5/434
f 157/4/435 158/7/435 164/5/435
f 158/4/436 159/7/436 165/5/436
f 159/4/437 160/7/437 166/5/437
f 155/7/438 161/5/438 166/6/438
f 178/18/439 173/3/439 175/39/439
f 173/3/440 174/19/440 175/39/440
f 175/39/441 176/40/441 178/18/441
f 167/4/442 168/7/442 174/5/442
f 168/4/443 169/7/443 175/5/443
f 169/4/444 170/7/444 176/5/444
f 170/4/445 171/7/445 177/5/445
f 171/4/446 172/7/446 178/5/446
f 172/4/447 167/7/447 173/5/447
f 190/18/448 185/3/448 187/39/448
f 185/3/449 186/19/449 187/39/449
f 187/39/450 188/40/450 190/18/450
f 179/4/451 180/7/451 186/5/451
f 180/4/452 181/7/452 187/5/452
f 181/4/453 182/7/453 188/5/453
f 182/4/454 183/7/454 189/5/454
f 183/4/455 184/7/455 190/5/455
f 184/4/456 179/7/456 185/5/456
f 202/38/457 197/25/457 201/24/457
f 197/25/458 198/41/458 201/24/458
f 198/41/459 199/58/459 200/23/459
f 191/26/460 192/36/460 198/27/460
f 192/26/461 193/36/461 199/27/461
f 193/26/462 194/36/462 200/27/462
f 194/26/463 195/36/463 201/27/463
f 195/26/464 196/36/464 202/27/464
f 196/26/465 191/36/465 197/27/465
f 212/35/466 208/25/466 210/33/466
f 208/25/467 209/76/467 210/33/467
f 203/26/468 204/36/468 209/27/468
f 204/26/469 205/36/469 210/27/469
f 205/26/470 206/36/470 211/27/470
f 206/26/471 207/36/471 212/27/471
f 207/26/472 203/36/472 208/27/472
f 224/44/473 219/77/473 221/78/473
f 219/77/474 220/54/474 221/78/474
f 221/78/475 222/42/475 224/44/475
f 213/45/476 214/55/476 220/46/476
f 214/45/477 215/55/477 221/46/477
f 215/45/478 216/55/478 222/46/478
f 216/45/479 217/55/479 223/46/479
f 217/45/480 218/55/480 224/46/480
f 218/45/481 213/55/481 219/46/481
f 234/22/482 230/72/482 233/21/482
f 230/72/483 231/29/483 233/21/483
f 226/16/484 231/14/484 230/15/484
f 227/16/485 232/14/485 231/15/485
f 228/16/486 233/14/486 232/15/486
f 228/13/487 229/16/487 234/14/487
f 225/16/488 230/14/488 234/15/488
f 246/38/489 241/25/489 243/58/489
f 241/25/490 242/41/490 243/58/490
f 243/58/491 244/23/491 246/38/491
f 235/26/492 236/36/492 242/27/492
f 236/26/493 237/36/493 243/27/493
f 237/26/494 238/36/494 244/27/494
f 238/26/495 239/36/495 245/27/495
f 239/26/496 240/36/496 246/27/496
f 240/26/497 235/36/497 241/27/497
f 260/50/498 254/25/498 258/48/498
f 254/25/499 255/57/499 257/79/499
f 255/57/500 256/80/500 257/79/500
f 257/79/501 258/48/501 254/25/501
f 247/26/502 248/36/502 255/27/502
f 248/26/503 249/36/503 256/27/503
f 249/26/504 250/36/504 257/27/504
f 250/26/505 251/36/505 258/27/505
f 251/26/506 252/36/506 259/27/506
f 252/26/507 253/36/507 260/27/507
f 253/26/508 247/36/508 254/27/508
f 272/52/509 267/72/509 268/53/509
f 268/53/510 269/81/510 271/51/510
f 269/81/511 270/56/511 271/51/511
f 262/16/512 268/14/512 267/15/512
f 263/16/513 269/14/513 268/15/513
f 263/13/514 264/16/514 270/14/514
f 265/16/515 271/14/515 270/15/515
f 266/16/516 272/14/516 271/15/516
f 261/16/517 267/14/517 272/15/517
f 284/38/518 279/25/518 281/58/518
f 279/25/519 280/41/519 281/58/519
f 281/58/520 282/23/520 284/38/520
f 273/26/521 274/36/521 280/27/521
f 274/26/522 275/36/522 281/27/522
f 275/26/523 276/36/523 282/27/523
f 276/26/524 277/36/524 283/27/524
f 277/26/525 278/36/525 284/27/525
f 278/26/526 273/36/526 279/27/526
f 296/44/527 291/77/527 292/54/527
f 292/54/528 293/78/528 295/43/528
f 293/78/529 294/42/529 295/43/529
f 285/45/530 286/55/530 292/46/530
f 286/45/531 287/55/531 293/46/531
f 287/45/532 288/55/532 294/46/532
f 288/45/533 289/55/533 295/46/533
f 289/45/534 290/55/534 296/46/534
f 285/55/535 291/46/535 296/47/535
f 306/32/536 302/3/536 303/30/536
f 303/30/537 304/37/537 305/31/537
f 297/4/538 298/7/538 303/5/538
f 299/7/539 304/5/539 303/6/539
f 299/4/540 300/7/540 305/5/540
f 301/7/541 306/5/541 305/6/541
f 297/7/542 302/5/542 306/6/542
f 318/52/543 313/72/543 317/51/543
f 313/72/544 314/53/544 317/51/544
f 314/53/545 315/81/545 316/56/545
f 307/13/546 308/16/546 314/14/546
f 308/13/547 309/16/547 315/14/547
f 309/13/548 310/16/548 316/14/548
f 310/13/549 311/16/549 317/14/549
f 311/13/550 312/16/550 318/14/550
f 312/13/551 307/16/551 313/14/551
f 332/50/552 326/25/552 327/57/552
f 327/57/553 328/80/553 330/48/553
f 328/80/554 329/79/554 330/48/554
f 330/48/555 331/49/555 327/57/555
f 319/26/556 320/36/556 327/27/556
f 320/26/557 321/36/557 328/27/557
f 322/36/558 329/27/558 328/28/558
f 322/26/559 323/36/559 330/27/559
f 323/26/560 324/36/560 331/27/560
f 324/26/561 325/36/561 332/27/561
f 325/26/562 319/36/562 326/27/562
f 342/22/563 338/72/563 339/29/563
f 339/29/564 340/20/564 341/21/564
f 334/16/565 339/14/565 338/15/565
f 335/16/566 340/14/566 339/15/566
f 336/16/567 341/14/567 340/15/567
f 337/16/568 342/14/568 341/15/568
f 333/16/569 338/14/569 342/15/569
f 352/35/570 348/25/570 349/76/570
f 349/76/571 350/33/571 352/35/571
f 343/26/572 344/36/572 349/27/572
f 345/36/573 350/27/573 349/28/573
f 346/36/574 351/27/574 350/28/574
f 347/36/575 352/27/575 351/28/575
f 343/36/576 348/27/576 352/28/576
f 364/38/577 359/25/577 363/24/577
f 359/25/578 360/41/578 363/24/578
f 360/41/579 361/58/579 363/24/579
f 354/36/580 360/27/580 359/28/580
f 354/26/581 355/36/581 361/27/581
f 356/36/582 362/27/582 361/28/582
f 357/36/583 363/27/583 362/28/583
f 358/36/584 364/27/584 363/28/584
f 353/36/585 359/27/585 364/28/585
f 374/22/586 370/72/586 371/29/586
f 371/29/587 372/20/587 373/21/587
f 365/13/588 366/16/588 371/14/588
f 367/16/589 372/14/589 371/15/589
f 367/13/590 368/16/590 373/14/590
f 369/16/591 374/14/591 373/15/591
f 365/16/592 370/14/592 374/15/592
f 384/82/593 380/77/593 383/61/593
f 380/77/594 381/59/594 383/61/594
f 375/45/595 376/55/595 381/46/595
f 376/45/596 377/55/596 382/46/596
f 377/45/597 378/55/597 383/46/597
f 378/45/598 379/55/598 384/46/598
f 379/45/599 375/55/599 380/46/599
f 396/38/600 391/25/600 392/41/600
f 392/41/601 393/58/601 396/38/601
f 393/58/602 394/23/602 396/38/602
f 385/26/603 386/36/603 392/27/603
f 386/26/604 387/36/604 393/27/604
f 388/36/605 394/27/605 393/28/605
f 389/36/606 395/27/606 394/28/606
f 390/36/607 396/27/607 395/28/607
f 390/26/608 385/36/608 391/27/608
f 397/62/233 400/65/233 399/63/233
f 402/65/234 403/63/234 404/64/234
f 398/65/235 402/63/235 401/64/235
f 398/62/236 399/65/236 403/63/236
f 400/65/237 404/63/237 403/64/237
f 397/65/238 401/63/238 404/64/238
f 405/66/239 408/69/239 407/67/239
f 409/66/240 410/69/240 411/67/240
f 406/69/241 410/67/241 409/68/241
f 407/69/242 411/67/242 410/68/242
f 408/69/243 412/67/243 411/68/243
f 408/66/244 405/69/244 409/67/244
f 413/66/245 416/69/245 415/67/245
f 418/69/246 419/67/246 420/68/246
f 414/69/247 418/67/247 417/68/247
f 415/69/248 419/67/248 418/68/248
f 416/69/249 420/67/249 419/68/249
f 416/66/250 413/69/250 417/67/250
f 424/65/251 423/63/251 422/64/251
f 426/65/252 427/63/252 428/64/252
f 422/65/609 426/63/609 425/64/609
f 422/62/254 423/65/254 427/63/254
f 424/65/610 428/63/610 427/64/610
f 421/65/256 425/63/256 428/64/256
f 429/66/257 432/69/257 431/67/257
f 433/66/258 434/69/258 435/67/258
f 430/69/259 434/67/259 433/68/259
f 431/69/260 435/67/260 434/68/260
f 432/69/261 436/67/261 435/68/261
f 432/66/262 429/69/262 433/67/262
f 440/69/263 439/67/263 438/68/263
f 442/69/264 443/67/264 444/68/264
f 438/69/265 442/67/265 441/68/265
f 438/66/262 439/69/262 443/67/262
f 440/69/266 444/67/266 443/68/266
f 440/66/260 437/69/260 441/67/260
f 445/62/267 448/65/267 447/63/267
f 450/65/268 451/63/268 452/64/268
f 445/62/269 446/65/269 450/63/269
f 447/65/270 451/63/270 450/64/270
f 448/65/271 452/63/271 451/64/271
f 445/65/272 449/63/272 452/64/272
f 453/66/273 456/69/273 455/67/273
f 458/69/274 459/67/274 460/68/274
f 454/69/275 458/67/275 457/68/275
f 455/69/276 459/67/276 458/68/276
f 456/69/277 460/67/277 459/68/277
f 456/66/278 453/69/278 457/67/278
f 464/55/279 463/46/279 462/47/279
f 466/55/280 467/46/280 468/47/280
f 462/55/281 466/46/281 465/47/281
f 462/45/282 463/55/282 467/46/282
f 464/55/283 468/46/283 467/47/283
f 461/55/284 465/46/284 468/47/284
f 472/55/285 471/46/285 470/47/285
f 474/55/286 475/46/286 476/47/286
f 470/55/287 474/46/287 473/47/287
f 470/45/288 471/55/288 475/46/288
f 471/45/289 472/55/289 476/46/289
f 469/55/290 473/46/290 476/47/290
f 480/55/291 479/46/291 478/47/291
f 481/45/292 482/55/292 483/46/292
f 478/55/293 482/46/293 481/47/293
f 478/45/294 479/55/294 483/46/294
f 480/55/295 484/46/295 483/47/295
f 480/45/296 477/55/296 481/46/296
f 488/55/297 487/46/297 486/47/297
f 490/55/298 491/46/298 492/47/298
f 486/55/299 490/46/299 489/47/299
f 487/55/300 491/46/300 490/47/300
f 487/45/301 488/55/301 492/46/301
f 488/45/302 485/55/302 489/46/302
f 496/55/303 495/46/303 494/47/303
f 498/55/304 499/46/304 500/47/304
f 494/55/305 498/46/305 497/47/305
f 494/45/306 495/55/306 499/46/306
f 496/55/307 500/46/307 499/47/307
f 493/55/308 497/46/308 500/47/308
f 504/55/309 503/46/309 502/47/309
f 505/45/310 506/55/310 507/46/310
f 502/55/611 506/46/611 505/47/611
f 503/55/312 507/46/312 506/47/312
f 504/55/612 508/46/612 507/47/612
f 504/45/314 501/55/314 505/46/314
