# Blender 4.4.3
# www.blender.org
o ruin_mosque
v -5.696732 0.436654 4.233096
v -5.146731 0.436654 4.233096
v -5.146731 0.436654 3.683096
v -5.696732 0.436654 3.683096
v -5.696732 6.159654 4.233096
v -5.146731 6.159654 4.233096
v -5.146731 6.159654 3.683096
v -5.696732 6.159654 3.683096
v -5.696732 0.436654 -3.966904
v -5.146731 0.436654 -3.966904
v -5.146731 0.436654 -4.516904
v -5.696732 0.436654 -4.516904
v -5.696732 6.159654 -3.966904
v -5.146731 6.159654 -3.966904
v -5.146731 6.159654 -4.516904
v -5.696732 6.159654 -4.516904
v 5.103269 0.436654 4.233096
v 5.653269 0.436654 4.233096
v 5.653269 0.436654 3.683096
v 5.103269 0.436654 3.683096
v 5.103269 6.159654 4.233096
v 5.653269 6.159654 4.233096
v 5.653269 6.159654 3.683096
v 5.103269 6.159654 3.683096
v 5.103269 0.436654 -3.966904
v 5.653269 0.436654 -3.966904
v 5.653269 0.436654 -4.516904
v 5.103269 0.436654 -4.516904
v 5.103269 6.159654 -3.966904
v 5.653269 6.159654 -3.966904
v 5.653269 6.159654 -4.516904
v 5.103269 6.159654 -4.516904
v -4.893856 2.677525 3.704326
v 4.882143 3.362965 3.704326
v 4.871373 3.516578 -3.994134
v -4.904627 2.831138 -3.994134
v -4.914835 2.976731 3.710325
v 4.861165 3.662171 3.710325
v 4.850394 3.815783 -3.988135
v -4.925606 3.130343 -3.988135
v -5.121731 0.546654 4.088096
v -1.721731 0.546654 4.088096
v -1.771731 1.952654 4.088096
v -1.631731 3.286654 4.088096
v -1.751731 3.406654 4.088096
v -5.121731 5.146655 4.088096
v -5.161731 4.194654 4.088096
v -5.121731 0.546654 3.688096
v -1.721731 0.546654 3.688096
v -1.771731 1.952654 3.688096
v -1.631731 3.286654 3.688096
v -1.751731 3.406654 3.688096
v -5.121731 5.146655 3.688096
v -5.161731 4.194654 3.688096
v 1.478269 0.546654 4.088096
v 5.078269 0.546654 4.088096
v 5.118269 4.250654 4.088096
v 4.998269 5.090654 4.088096
v 1.508269 3.366654 4.088096
v 1.378269 1.836654 4.088096
v 1.478269 0.546654 3.688096
v 5.078269 0.546654 3.688096
v 5.118269 4.250654 3.688096
v 4.998269 5.090654 3.688096
v 1.508269 3.366654 3.688096
v 1.378269 1.836654 3.688096
v -1.721731 3.286654 4.088096
v -1.601731 3.376654 4.088096
v 1.358269 3.246654 4.088096
v 1.478269 3.286654 4.088096
v 4.976269 5.986654 4.088096
v -5.019732 5.482655 4.088096
v -1.721731 3.286654 3.688096
v -1.601731 3.376654 3.688096
v 1.358269 3.246654 3.688096
v 1.478269 3.286654 3.688096
v 4.976269 5.986654 3.688096
v -5.019732 5.482655 3.688096
v -1.721731 0.546654 4.088096
v 1.478269 0.546654 4.088096
v 1.398269 0.666654 4.088096
v -1.621731 0.546654 4.088096
v -1.721731 0.546654 3.688096
v 1.478269 0.546654 3.688096
v 1.398269 0.666654 3.688096
v -1.621731 0.546654 3.688096
v -5.221731 0.536654 -3.951904
v -1.521731 0.536654 -3.951904
v -1.571731 2.114654 -3.951904
v -1.431731 3.586654 -3.951904
v -1.551731 3.706654 -3.951904
v -5.221731 4.466654 -3.951904
v -5.261731 3.650654 -3.951904
v -5.221731 0.536654 -4.331904
v -1.521731 0.536654 -4.331904
v -1.571731 2.114654 -4.331904
v -1.431731 3.586654 -4.331904
v -1.551731 3.706654 -4.331904
v -5.221731 4.466654 -4.331904
v -5.261731 3.650654 -4.331904
v 1.778269 0.536654 -3.951904
v 4.978269 0.536654 -3.951904
v 5.018269 3.698654 -3.951904
v 4.898269 4.418654 -3.951904
v 1.808269 3.666654 -3.951904
v 1.678269 1.986654 -3.951904
v 1.778269 0.536654 -4.331904
v 4.978269 0.536654 -4.331904
v 5.018269 3.698654 -4.331904
v 4.898269 4.418654 -4.331904
v 1.808269 3.666654 -4.331904
v 1.678269 1.986654 -4.331904
v -1.521731 3.586654 -3.951904
v -1.401731 3.676654 -3.951904
v 1.658269 3.546654 -3.951904
v 1.778269 3.586654 -3.951904
v 4.878269 5.186655 -3.951904
v -5.117731 4.754654 -3.951904
v -1.521731 3.586654 -4.331904
v -1.401731 3.676654 -4.331904
v 1.658269 3.546654 -4.331904
v 1.778269 3.586654 -4.331904
v 4.878269 5.186655 -4.331904
v -5.117731 4.754654 -4.331904
v -1.521731 0.536654 -3.951904
v 1.778269 0.536654 -3.951904
v 1.698269 1.466654 -3.951904
v -1.421731 1.346654 -3.951904
v -1.521731 0.536654 -4.331904
v 1.778269 0.536654 -4.331904
v 1.698269 1.466654 -4.331904
v -1.421731 1.346654 -4.331904
v -5.121731 0.536654 3.908096
v -0.475731 0.536654 3.908096
v -0.677731 4.287654 3.908096
v -1.687731 4.757654 3.908096
v -2.899731 3.911654 3.908096
v -3.909731 4.522655 3.908096
v -5.121731 3.582654 3.908096
v -5.121731 0.536654 -4.191905
v -0.475731 0.536654 -4.191905
v -0.677731 4.287654 -4.191905
v -1.687731 4.757654 -4.191905
v -2.899731 3.911654 -4.191905
v -3.909731 4.522655 -4.191905
v -5.121731 3.582654 -4.191905
v 2.453269 0.536654 3.908096
v 4.978269 0.536654 3.908096
v 4.978269 3.676654 3.908096
v 3.766269 4.240654 3.908096
v 2.958269 3.018654 3.908096
v 2.453269 0.536654 -4.191905
v 4.978269 0.536654 -4.191905
v 4.978269 3.676654 -4.191905
v 3.766269 4.240654 -4.191905
v 2.958269 3.018654 -4.191905
v 2.678269 5.886654 -0.141904
v 2.316537 5.886654 -1.491904
v 2.100031 6.866654 -1.366904
v 2.428269 6.736654 -0.141904
v 2.316537 5.886654 -1.491904
v 1.328269 5.886654 -2.480173
v 1.203269 6.736654 -2.263667
v 2.100031 6.866654 -1.366904
v 1.328269 5.886654 -2.480173
v -0.021731 5.886654 -2.841904
v -0.021731 6.606654 -2.591904
v 1.203269 6.736654 -2.263667
v -0.021731 5.886654 -2.841904
v -1.371731 5.886654 -2.480173
v -1.246731 6.736654 -2.263667
v -0.021731 6.606654 -2.591904
v -1.371731 5.886654 -2.480173
v -2.360000 5.886654 -1.491904
v -2.143493 6.866654 -1.366904
v -1.246731 6.736654 -2.263667
v -2.360000 5.886654 -1.491904
v -2.721731 5.886654 -0.141904
v -2.471731 6.736654 -0.141904
v -2.143493 6.866654 -1.366904
v -2.721731 5.886654 -0.141904
v -2.360000 5.886654 1.208096
v -2.143493 6.606654 1.083096
v -2.471731 6.736654 -0.141904
v -2.360000 5.886654 1.208096
v -1.371731 5.886654 2.196364
v -1.246731 6.736654 1.979858
v -2.143493 6.606654 1.083096
v -1.371731 5.886654 2.196364
v -0.021731 5.886654 2.558096
v -0.021731 6.866654 2.308096
v -1.246731 6.736654 1.979858
v -0.021731 5.886654 2.558096
v 1.328269 5.886654 2.196364
v 1.203269 6.736654 1.979858
v -0.021731 6.866654 2.308096
v 1.328269 5.886654 2.196364
v 2.316537 5.886654 1.208096
v 2.100031 6.606654 1.083096
v 1.203269 6.736654 1.979858
v 2.316537 5.886654 1.208096
v 2.678269 5.886654 -0.141904
v 2.428269 6.736654 -0.141904
v 2.100031 6.606654 1.083096
v 2.428269 6.736654 -0.141904
v 2.100031 6.866654 -1.366904
v 1.580416 7.486654 -1.066904
v 1.828269 7.486654 -0.141904
v 2.100031 6.866654 -1.366904
v 1.203269 6.736654 -2.263667
v 0.903269 7.486654 -1.744051
v 1.580416 7.486654 -1.066904
v 1.203269 6.736654 -2.263667
v -0.021731 6.606654 -2.591904
v -0.021731 7.486654 -1.991904
v 0.903269 7.486654 -1.744051
v -0.021731 6.606654 -2.591904
v -1.246731 6.736654 -2.263667
v -0.946731 7.486654 -1.744051
v -0.021731 7.486654 -1.991904
v -1.246731 6.736654 -2.263667
v -2.143493 6.866654 -1.366904
v -1.623878 7.486654 -1.066904
v -0.946731 7.486654 -1.744051
v -2.143493 6.866654 -1.366904
v -2.471731 6.736654 -0.141904
v -1.871731 7.486654 -0.141904
v -1.623878 7.486654 -1.066904
v -2.471731 6.736654 -0.141904
v -2.143493 6.606654 1.083096
v -1.623878 7.486654 0.783096
v -1.871731 7.486654 -0.141904
v -2.143493 6.606654 1.083096
v -1.246731 6.736654 1.979858
v -0.946731 7.486654 1.460243
v -1.623878 7.486654 0.783096
v 2.100031 6.606654 1.083096
v 2.428269 6.736654 -0.141904
v 1.828269 7.486654 -0.141904
v 1.580416 7.486654 0.783096
v 1.828269 7.486654 -0.141904
v 1.580416 7.486654 -1.066904
v 0.844294 8.066654 -0.641904
v 0.978269 8.066654 -0.141904
v 1.580416 7.486654 -1.066904
v 0.903269 7.486654 -1.744051
v 0.478269 8.066654 -1.007930
v 0.844294 8.066654 -0.641904
v 0.903269 7.486654 -1.744051
v -0.021731 7.486654 -1.991904
v -0.021731 8.066654 -1.141904
v 0.478269 8.066654 -1.007930
v -0.021731 7.486654 -1.991904
v -0.946731 7.486654 -1.744051
v -0.521731 8.066654 -1.007930
v -0.021731 8.066654 -1.141904
v -0.946731 7.486654 -1.744051
v -1.623878 7.486654 -1.066904
v -0.887757 8.066654 -0.641904
v -0.521731 8.066654 -1.007930
v -1.623878 7.486654 -1.066904
v -1.871731 7.486654 -0.141904
v -1.021731 8.066654 -0.141904
v -0.887757 8.066654 -0.641904
v -1.871731 7.486654 -0.141904
v -1.623878 7.486654 0.783096
v -0.887757 8.066654 0.358096
v -1.021731 8.066654 -0.141904
v -1.623878 7.486654 0.783096
v -0.946731 7.486654 1.460243
v -0.521731 8.066654 0.724121
v -0.887757 8.066654 0.358096
v 0.903269 7.486654 1.460243
v 1.580416 7.486654 0.783096
v 0.844294 8.066654 0.358096
v 0.478269 8.066654 0.724121
v 1.580416 7.486654 0.783096
v 1.828269 7.486654 -0.141904
v 0.978269 8.066654 -0.141904
v 0.844294 8.066654 0.358096
v -0.685330 7.996655 0.671813
v -0.189566 7.996655 0.894595
v 0.351169 7.996655 0.839648
v 0.791986 7.996655 0.521695
v 1.014768 7.996655 0.025930
v 0.959821 7.996655 -0.514805
v 0.641868 7.996655 -0.955622
v 0.146104 7.996655 -1.178404
v -0.394632 7.996655 -1.123457
v -0.835449 7.996655 -0.805503
v -1.058231 7.996655 -0.309739
v -1.003284 7.996655 0.230996
v -0.432531 8.256654 0.361826
v -0.125629 8.256654 0.499738
v 0.209112 8.256654 0.465723
v 0.481999 8.256654 0.268895
v 0.619911 8.256654 -0.038007
v 0.585897 8.256654 -0.372748
v 0.389068 8.256654 -0.645634
v 0.082167 8.256654 -0.783547
v -0.252574 8.256654 -0.749532
v -0.525461 8.256654 -0.552704
v -0.663374 8.256654 -0.245802
v -0.629359 8.256654 0.088939
v 4.153272 0.686654 -1.700206
v 4.573423 0.686654 -1.690510
v 4.919032 0.686654 -1.929624
v 5.058088 0.686654 -2.326215
v 4.937476 0.686654 -2.728799
v 4.603266 0.686654 -2.983602
v 4.183115 0.686654 -2.993299
v 3.837506 0.686654 -2.754185
v 3.698450 0.686654 -2.357594
v 3.819062 0.686654 -1.955010
v 4.239300 11.486654 -1.945562
v 4.498805 11.486654 -1.939572
v 4.712270 11.486654 -2.087260
v 4.798157 11.486654 -2.332214
v 4.723661 11.486654 -2.580869
v 4.517238 11.486654 -2.738247
v 4.257732 11.486654 -2.744236
v 4.044269 11.486654 -2.596548
v 3.958381 11.486654 -2.351595
v 4.032876 11.486654 -2.102940
v 3.653269 10.166654 -1.666904
v 5.103269 10.166654 -1.666904
v 5.103269 10.166654 -3.016904
v 3.653269 10.166654 -3.016904
v 3.653269 10.406654 -1.666904
v 5.103269 10.406654 -1.666904
v 5.103269 10.406654 -3.016904
v 3.653269 10.406654 -3.016904
v 4.798269 10.236654 -2.261904
v 4.958269 10.236654 -2.261904
v 4.958269 10.236654 -2.421904
v 4.798269 10.236654 -2.421904
v 4.798269 11.036654 -2.261904
v 4.958269 11.036654 -2.261904
v 4.958269 11.036654 -2.421904
v 4.798269 11.036654 -2.421904
v 4.702682 10.236654 -2.620394
v 4.802440 10.236654 -2.745487
v 4.677346 10.236654 -2.845246
v 4.577588 10.236654 -2.720153
v 4.702682 11.036654 -2.620394
v 4.802440 11.036654 -2.745487
v 4.677346 11.036654 -2.845246
v 4.577588 11.036654 -2.720153
v 4.362804 10.236654 -2.769176
v 4.327201 10.236654 -2.925164
v 4.171212 10.236654 -2.889561
v 4.206816 10.236654 -2.733572
v 4.362804 11.036654 -2.769176
v 4.327201 11.036654 -2.925164
v 4.171212 11.036654 -2.889561
v 4.206816 11.036654 -2.733572
v 4.034573 10.236654 -2.596213
v 3.890418 10.236654 -2.665634
v 3.820996 10.236654 -2.521479
v 3.965151 10.236654 -2.452058
v 4.034573 11.036654 -2.596213
v 3.890418 11.036654 -2.665634
v 3.820996 11.036654 -2.521479
v 3.965151 11.036654 -2.452058
v 3.965151 10.236654 -2.231751
v 3.820996 10.236654 -2.162329
v 3.890418 10.236654 -2.018174
v 4.034573 10.236654 -2.087596
v 3.965151 11.036654 -2.231751
v 3.820996 11.036654 -2.162329
v 3.890418 11.036654 -2.018174
v 4.034573 11.036654 -2.087596
v 4.206816 10.236654 -1.950236
v 4.171212 10.236654 -1.794248
v 4.327201 10.236654 -1.758644
v 4.362804 10.236654 -1.914633
v 4.206816 11.036654 -1.950236
v 4.171212 11.036654 -1.794248
v 4.327201 11.036654 -1.758644
v 4.362804 11.036654 -1.914633
v 4.577588 10.236654 -1.963656
v 4.677346 10.236654 -1.838563
v 4.802440 10.236654 -1.938321
v 4.702682 10.236654 -2.063414
v 4.577588 11.036654 -1.963656
v 4.677346 11.036654 -1.838563
v 4.802440 11.036654 -1.938321
v 4.702682 11.036654 -2.063414
v 4.129734 10.636654 -2.655322
v 3.980909 10.636654 -2.387784
v 4.064852 10.636654 -2.093370
v 4.332390 10.636654 -1.944544
v 4.626803 10.636654 -2.028487
v 4.775629 10.636654 -2.296025
v 4.691687 10.636654 -2.590439
v 4.424148 10.636654 -2.739264
v 4.328562 12.136654 -2.404588
v 4.298797 12.136654 -2.351080
v 4.315585 12.136654 -2.292197
v 4.369093 12.136654 -2.262432
v 4.427976 12.136654 -2.279221
v 4.457741 12.136654 -2.332729
v 4.440952 12.136654 -2.391611
v 4.387444 12.136654 -2.421376
v 3.480758 11.515606 -2.244941
v 3.819842 11.416119 -2.176206
v 3.869509 11.416119 -2.421222
v 3.530426 11.515606 -2.489958
v 3.887029 12.957190 -2.162586
v 4.226112 12.857701 -2.093851
v 4.275780 12.857701 -2.338867
v 3.936696 12.957190 -2.407603
v -5.316609 0.385051 -1.764248
v -5.260292 0.390191 -1.634882
v -4.947268 0.403877 -1.580803
v -4.697487 0.393403 -1.675555
v -4.711165 0.409146 -1.803642
v -4.884584 0.393039 -1.923179
v -5.267155 0.342078 -1.921829
v -4.725929 0.791008 -1.886523
v -5.063139 0.811956 -1.913814
v -5.369427 0.811553 -1.844096
v -5.305021 0.810257 -1.701734
v -5.126644 0.747749 -1.579815
v -4.768177 0.824963 -1.603429
v -4.575283 0.770065 -1.740593
v -2.119137 0.247487 -0.863938
v -1.445668 0.313666 -1.053401
v -1.396049 0.310434 -1.613185
v -2.442152 0.304576 -1.677354
v -2.986621 0.370721 -1.123778
v -2.667287 1.088517 -1.182064
v -2.202036 1.071763 -0.744973
v -1.331810 1.128456 -0.985761
v -1.432871 1.112877 -1.545474
v -2.412746 1.201934 -1.720754
v 5.696732 0.238567 2.392394
v 5.067823 0.298982 2.090046
v 4.406449 0.295701 2.308120
v 4.419836 0.287453 2.688006
v 5.171862 0.221123 2.673105
v 4.550223 0.956569 2.197468
v 4.440504 1.026813 2.528990
v 4.956914 0.900827 2.805208
v 5.566646 0.886617 2.535282
v 5.403391 1.024466 2.121090
v -3.610287 0.365337 -2.841955
v -3.432717 0.386362 -2.721801
v -3.086374 0.332499 -2.753330
v -3.016040 0.347614 -2.910372
v -3.235965 0.334088 -3.038505
v -3.575799 0.357620 -2.985950
v -3.433753 0.717160 -2.736558
v -3.124333 0.756955 -2.764743
v -2.967406 0.748650 -2.910309
v -3.247562 0.736933 -3.004107
v -3.550046 0.718335 -2.980248
v -3.618656 0.693076 -2.845263
v 0.185060 0.317318 2.721300
v 0.102821 0.254781 2.251668
v -0.462643 0.350370 2.104415
v -0.709268 0.249899 2.482101
v -0.399940 0.316522 2.750260
v -0.023180 0.818708 2.681688
v 0.063733 0.771277 2.346328
v -0.367997 0.820170 2.055538
v -0.863332 0.817519 2.399189
v -0.469227 0.769183 2.727902
v 2.254208 0.177350 -3.011086
v 3.317604 0.131381 -2.578157
v 4.512102 0.324603 -2.948867
v 3.967944 0.099663 -3.803334
v 2.784712 0.293687 -3.795880
v 3.015587 1.485925 -2.695912
v 4.139534 1.321067 -2.758690
v 4.133457 1.307389 -3.569223
v 3.122561 1.423864 -3.878716
v 2.242076 1.330741 -3.298476
v 0.595869 0.280581 -0.670297
v 0.807428 0.312209 -1.086837
v -0.079146 0.315989 -1.229256
v -0.752312 0.300273 -0.915456
v -0.290926 0.275239 -0.451194
v -0.200947 1.166763 -0.483437
v 0.730386 1.120236 -0.647207
v 0.787293 1.146266 -1.111460
v -0.109767 1.065029 -1.198029
v -0.896732 1.181353 -0.891047
v 3.682714 0.090686 3.379074
v 2.523720 0.000000 2.885752
v 1.822427 0.005095 3.642437
v 1.832417 0.196220 4.452604
v 3.174392 0.202794 4.594022
v 3.967154 0.034475 4.041354
v 2.245222 1.470184 3.205534
v 1.332407 1.534724 3.873560
v 2.340233 1.473583 4.474898
v 3.428410 1.520859 4.375493
v 3.929837 1.486032 3.818367
v 3.496768 1.674236 3.133988
v 1.111633 0.123123 -2.914833
v 1.477412 0.121587 -2.007497
v 2.889131 0.181008 -2.096276
v 3.851639 0.073178 -2.621193
v 3.255372 0.026075 -3.338042
v 2.121103 0.252913 -3.393705
v 3.283924 1.695486 -2.036391
v 3.947637 1.583781 -2.830547
v 2.967666 1.617603 -3.374481
v 1.838289 1.653683 -3.370150
v 0.951656 1.664518 -2.699506
v 1.950655 1.652272 -2.074969
v 5.003295 0.271683 2.007806
v 4.338992 0.343551 2.014714
v 3.951560 0.235622 2.256629
v 4.316897 0.237628 2.498950
v 4.898006 0.243196 2.480691
v 5.149859 0.279794 2.274250
v 4.679593 0.950297 2.487605
v 5.274032 0.928079 2.401696
v 5.030996 0.858856 2.147966
v 4.586573 0.931185 1.950080
v 4.017272 0.877448 2.133672
v 4.095378 0.881019 2.433264
v 4.171478 0.362544 1.900690
v 4.762121 0.405073 2.016315
v 5.272148 0.322465 1.838248
v 5.149673 0.318276 1.596468
v 4.853526 0.317732 1.406566
v 4.304631 0.408634 1.450206
v 3.902947 0.338118 1.650700
v 4.018580 0.959480 1.589172
v 4.090256 1.065675 1.841506
v 4.594666 0.987836 1.970293
v 5.028876 0.964531 1.834649
v 5.158479 1.050823 1.648564
v 4.950919 0.951126 1.461078
v 4.452094 1.003529 1.445402
v -0.892148 0.302990 -1.131564
v -0.481436 0.323762 -1.144459
v -0.409239 0.314898 -1.458527
v -0.624854 0.338952 -1.771724
v -1.023974 0.266074 -1.600080
v -1.220899 0.301835 -1.323255
v -0.373144 0.797009 -1.377729
v -0.522862 0.758836 -1.695846
v -0.995328 0.795921 -1.723297
v -1.271802 0.782952 -1.418990
v -0.997915 0.754114 -1.146058
v -0.622414 0.730028 -1.153241
v 4.402990 0.372249 -0.237791
v 4.143462 0.440446 -0.106863
v 4.446200 0.421751 0.005853
v 4.737617 0.428587 -0.057356
v 4.779951 0.439139 -0.246156
v 4.755220 0.762612 -0.224742
v 4.408422 0.753935 -0.247866
v 4.148698 0.751878 -0.115819
v 4.408233 0.731987 0.049941
v 4.800131 0.750794 -0.029387
v 0.036783 0.126376 -3.938390
v -0.695032 0.306068 -3.880274
v -1.238949 0.124502 -3.540697
v -0.641665 0.251371 -3.200308
v 0.092731 0.299264 -3.294464
v 0.438324 0.267229 -3.611420
v -1.060761 1.118294 -3.858235
v -1.031637 1.095360 -3.403644
v -0.381564 1.163482 -3.060623
v 0.451055 1.065027 -3.312238
v 0.471319 1.211215 -3.763306
v -0.222753 1.210275 -3.983469
v 2.054224 0.357835 -3.175113
v 1.360125 0.301913 -2.934758
v 1.493591 0.361294 -2.571182
v 2.368369 0.318709 -2.517959
v 2.908417 0.317186 -2.907301
v 1.414773 1.137434 -3.088290
v 1.227692 1.055633 -2.662147
v 2.053037 1.159324 -2.518244
v 2.792986 1.140529 -2.741256
v 2.285157 1.041980 -3.059249
v -5.565943 0.354949 -4.236986
v -5.182914 0.285709 -3.990849
v -4.760026 0.282561 -4.191557
v -4.854611 0.314514 -4.517944
v -5.325526 0.270343 -4.510811
v -5.122260 0.824886 -4.037400
v -4.665424 0.797148 -4.213265
v -4.901278 0.768648 -4.542289
v -5.488215 0.782875 -4.594022
v -5.620068 0.811699 -4.180760
v -2.990962 0.108362 2.009780
v -1.934512 0.219084 2.573390
v -0.839974 0.095200 2.097803
v -0.877687 0.108578 1.214297
v -1.774384 0.149501 0.758249
v -2.803021 0.237008 1.086449
v -1.960017 1.397646 2.318051
v -0.977902 1.437992 2.076262
v -0.761148 1.449642 1.220371
v -1.703913 1.416706 0.646517
v -2.587404 1.398360 1.155327
v -3.001980 1.478548 1.960788
v 1.931301 0.918482 -2.558546
v 3.362904 0.627770 -3.380940
v 3.020175 0.394222 -3.894996
v 1.588572 0.684934 -3.072602
v 1.922062 1.139086 -2.652612
v 3.353665 0.848374 -3.475006
v 3.010936 0.614827 -3.989062
v 1.579333 0.905539 -3.166668
v -4.913758 0.984158 2.703606
v -3.895838 0.634187 1.874300
v -4.439983 0.718353 1.170878
v -5.457904 1.068324 2.000184
v -4.851283 1.214956 2.682892
v -3.833363 0.864985 1.853587
v -4.377508 0.949151 1.150165
v -5.395429 1.299122 1.979470
vn -0.0000 -1.0000 -0.0000
vn -0.0000 1.0000 -0.0000
vn -0.0000 -0.0000 1.0000
vn 1.0000 -0.0000 -0.0000
vn -0.0000 -0.0000 -1.0000
vn -1.0000 -0.0000 -0.0000
vn 0.0699 -0.9974 -0.0200
vn -0.0699 0.9974 0.0200
vn 0.0014 -0.0200 0.9998
vn 0.9976 0.0699 -0.0000
vn -0.0014 0.0199 -0.9998
vn -0.9976 -0.0699 -0.0000
vn -0.9994 -0.0355 -0.0000
vn -0.9945 0.1044 -0.0000
vn -0.7071 -0.7071 -0.0000
vn -0.4588 -0.8886 -0.0000
vn 0.9991 -0.0420 -0.0000
vn 0.9999 0.0110 -0.0000
vn -0.9999 0.0108 -0.0000
vn -0.9899 -0.1414 -0.0000
vn 0.4429 -0.8966 -0.0000
vn 0.9964 -0.0847 -0.0000
vn 0.9970 0.0773 -0.0000
vn -0.6000 0.8000 -0.0000
vn 0.0439 0.9990 -0.0000
vn -0.3162 0.9487 -0.0000
vn -0.6110 0.7916 -0.0000
vn 0.0504 -0.9987 -0.0000
vn 0.5542 0.8324 -0.0000
vn -0.8321 -0.5547 -0.0000
vn 0.0397 -0.9992 -0.0000
vn -0.9995 -0.0317 -0.0000
vn -0.9955 0.0947 -0.0000
vn -0.2028 -0.9792 -0.0000
vn 0.9988 -0.0490 -0.0000
vn 0.9999 0.0128 -0.0000
vn -0.9999 0.0126 -0.0000
vn -0.9864 -0.1644 -0.0000
vn 0.2365 -0.9716 -0.0000
vn 0.9970 -0.0772 -0.0000
vn 0.9976 0.0688 -0.0000
vn 0.0424 0.9991 -0.0000
vn -0.4586 0.8886 -0.0000
vn 0.0432 -0.9991 -0.0000
vn 0.3089 0.9511 -0.0000
vn -0.9963 -0.0857 -0.0000
vn 0.0384 -0.9993 -0.0000
vn 0.9925 -0.1225 -0.0000
vn -0.9986 -0.0538 -0.0000
vn -0.4219 -0.9066 -0.0000
vn 0.5724 -0.8200 -0.0000
vn -0.5176 -0.8556 -0.0000
vn 0.6129 -0.7902 -0.0000
vn 0.8341 -0.5515 -0.0000
vn 0.9799 -0.1994 -0.0000
vn 0.9292 0.2733 -0.2490
vn 0.6694 0.2377 -0.7039
vn 0.2222 0.2712 -0.9365
vn -0.2454 0.3180 -0.9158
vn -0.6802 0.2733 -0.6802
vn -0.9443 0.2377 -0.2278
vn -0.9221 0.2712 0.2759
vn -0.6704 0.3180 0.6704
vn -0.2490 0.2733 0.9292
vn 0.2749 0.2377 0.9316
vn 0.7000 0.2712 0.6607
vn 0.9158 0.3180 0.2454
vn 0.7730 0.6184 -0.1415
vn 0.5166 0.6829 -0.5166
vn 0.2048 0.6115 -0.7643
vn -0.1595 0.5561 -0.8156
vn -0.5090 0.6184 -0.5987
vn -0.7056 0.6829 -0.1891
vn -0.7643 0.6115 0.2048
vn -0.6266 0.5561 0.5460
vn 0.7861 0.5561 0.2697
vn 0.5573 0.8168 -0.1493
vn 0.4080 0.8168 -0.4080
vn 0.1493 0.8168 -0.5573
vn -0.1493 0.8168 -0.5573
vn -0.4080 0.8168 -0.4080
vn -0.5573 0.8168 -0.1493
vn -0.5573 0.8168 0.1493
vn -0.4080 0.8168 0.4080
vn 0.4080 0.8168 0.4080
vn 0.5573 0.8168 0.1493
vn -0.2288 0.8296 0.5092
vn 0.0564 0.8296 0.5554
vn 0.3266 0.8296 0.4528
vn 0.5092 0.8296 0.2288
vn 0.5554 0.8296 -0.0564
vn 0.4528 0.8296 -0.3266
vn 0.2288 0.8296 -0.5092
vn -0.0564 0.8296 -0.5554
vn -0.3266 0.8296 -0.4528
vn -0.5092 0.8296 -0.2288
vn -0.5554 0.8296 0.0564
vn -0.4528 0.8296 0.3266
vn -0.0231 0.0229 0.9995
vn 0.5688 0.0229 0.8221
vn 0.9434 0.0229 0.3308
vn 0.9577 0.0229 -0.2869
vn 0.6061 0.0229 -0.7950
vn 0.0231 0.0229 -0.9995
vn -0.5688 0.0229 -0.8221
vn -0.9434 0.0229 -0.3308
vn -0.9577 0.0229 0.2869
vn -0.6061 0.0229 0.7950
vn 0.7818 -0.0000 0.6235
vn 0.6235 -0.0000 -0.7818
vn -0.7818 -0.0000 -0.6235
vn -0.6235 -0.0000 0.7818
vn 0.9749 -0.0000 -0.2225
vn -0.2225 -0.0000 -0.9749
vn -0.9749 -0.0000 0.2225
vn 0.2225 -0.0000 0.9749
vn 0.4339 -0.0000 -0.9010
vn -0.9010 -0.0000 -0.4339
vn -0.4339 -0.0000 0.9010
vn 0.9010 -0.0000 0.4339
vn -0.4339 -0.0000 -0.9010
vn -0.9010 -0.0000 0.4339
vn 0.4339 -0.0000 0.9010
vn 0.9010 -0.0000 -0.4339
vn -0.9749 -0.0000 -0.2225
vn -0.2225 -0.0000 0.9749
vn 0.9749 -0.0000 0.2225
vn 0.2225 -0.0000 -0.9749
vn -0.7818 -0.0000 0.6235
vn 0.6235 -0.0000 0.7818
vn 0.7818 -0.0000 -0.6235
vn -0.6235 -0.0000 -0.7818
vn -0.8574 0.1934 -0.4770
vn -0.9435 0.1934 0.2690
vn -0.4770 0.1934 0.8574
vn 0.2690 0.1934 0.9435
vn 0.8574 0.1934 0.4769
vn 0.9435 0.1934 -0.2690
vn 0.4769 0.1934 -0.8574
vn -0.2690 0.1934 -0.9435
vn -0.2708 -0.9611 -0.0549
vn 0.2708 0.9611 0.0549
vn -0.1987 -0.0000 0.9801
vn 0.9419 -0.2764 0.1909
vn 0.1987 -0.0000 -0.9801
vn -0.9419 0.2764 -0.1909
vn -0.1989 0.9687 0.1484
vn 0.0532 -0.3582 -0.9321
vn -0.1946 -0.4762 -0.8575
vn -0.7543 -0.5640 0.3361
vn -0.5316 -0.7501 0.3932
vn 0.1481 -0.4125 0.8988
vn 0.3315 -0.6174 0.7133
vn 0.5229 -0.5814 -0.6233
vn 0.0691 0.9907 0.1172
vn -0.6778 -0.1714 0.7150
vn 0.2719 -0.1173 0.9551
vn 0.9820 0.0602 -0.1790
vn 0.1711 -0.0532 -0.9838
vn -0.8705 0.3600 -0.3355
vn 0.1387 0.9548 0.2631
vn -0.5312 -0.8472 0.0037
vn -0.4576 -0.7140 0.5299
vn 0.2568 -0.7421 0.6191
vn 0.3749 -0.8252 -0.4224
vn -0.0295 -0.5603 -0.8278
vn -0.0588 0.9977 0.0328
vn -0.5629 0.0351 0.8258
vn 0.0961 0.0353 0.9947
vn 0.3048 -0.4112 -0.8591
vn 0.4974 0.0880 -0.8630
vn -0.1510 0.0264 -0.9882
vn -0.9725 -0.0272 -0.2315
vn 0.0525 0.9951 0.0834
vn 0.9035 0.3894 0.1791
vn 0.2777 0.1935 -0.9410
vn -0.5699 0.0294 -0.8212
vn -0.6438 -0.0634 0.7626
vn 0.0958 0.0637 0.9934
vn 0.1266 0.9911 -0.0406
vn -0.3772 -0.0036 0.9261
vn 0.3056 -0.0670 0.9498
vn 0.8449 -0.0121 -0.5349
vn -0.0174 -0.0679 -0.9975
vn -0.8086 -0.1502 -0.5689
vn -0.0943 0.9946 0.0442
vn 0.1703 -0.0543 0.9839
vn 0.9920 0.0276 0.1231
vn 0.0919 0.0452 -0.9947
vn -0.3676 -0.0345 -0.9293
vn -0.5025 0.0818 0.8607
vn 0.2132 0.9681 0.1313
vn 0.3604 0.2629 -0.8950
vn -0.3991 -0.6949 0.5982
vn 0.1001 -0.5172 0.8500
vn -0.1039 0.1821 0.9778
vn 0.5860 0.1377 0.7986
vn 0.9193 0.0475 -0.3908
vn 0.0122 0.9999 -0.0000
vn 0.3992 -0.8009 0.4463
vn 0.2800 -0.7845 -0.5533
vn -0.0241 -0.6638 -0.7475
vn -0.4008 -0.7559 -0.5177
vn -0.3654 -0.7359 0.5700
vn 0.0012 -0.6858 0.7278
vn -0.0902 0.9959 0.0117
vn 0.1003 -0.5420 0.8343
vn 0.5983 -0.7050 -0.3807
vn 0.2532 -0.5743 -0.7785
vn -0.2070 -0.5564 -0.8047
vn -0.6192 -0.7665 0.1706
vn -0.0481 -0.3333 0.9416
vn 0.1044 0.9945 0.0014
vn -0.9487 -0.0839 0.3048
vn -0.2466 0.0057 0.9691
vn 0.3019 0.1197 0.9458
vn 0.8302 -0.0495 0.5553
vn 0.6807 -0.0417 -0.7314
vn 0.0298 -0.0155 -0.9994
vn -0.3113 -0.0361 -0.9496
vn 0.0652 0.9952 0.0724
vn 0.6230 -0.7555 -0.2026
vn -0.0258 -0.7857 -0.6180
vn -0.4444 -0.7820 -0.4371
vn -0.4103 -0.8534 0.3216
vn -0.0296 -0.6800 0.7326
vn -0.4744 0.3409 0.8116
vn 0.0295 0.9969 0.0735
vn 0.0672 -0.0273 -0.9974
vn -0.4530 -0.0180 -0.8913
vn -0.5391 -0.1828 0.8222
vn 0.2026 -0.1236 0.9714
vn 0.9719 0.0887 -0.2181
vn -0.0974 0.9480 0.3029
vn -0.0815 -0.0097 -0.9966
vn -0.3289 -0.5870 0.7398
vn -0.4965 0.0087 0.8680
vn 0.1295 -0.0376 0.9909
vn 0.2581 -0.5243 -0.8115
vn 0.6036 0.1117 -0.7894
vn -0.0446 0.9722 -0.2300
vn -0.3125 -0.1519 -0.9377
vn -0.8824 -0.2893 0.3712
vn -0.0618 -0.0229 0.9978
vn 0.5326 -0.4670 -0.7059
vn 0.3012 0.0595 -0.9517
vn 0.0326 0.9948 -0.0965
vn -0.5190 0.1313 0.8446
vn 0.5779 -0.7371 -0.3504
vn 0.9593 0.0841 -0.2697
vn 0.0001 -0.1602 -0.9871
vn -0.2091 -0.5895 0.7803
vn -0.0156 0.9998 0.0090
vn -0.4776 0.1761 0.8607
vn 0.4032 0.0561 0.9134
vn 0.9953 -0.0863 -0.0438
vn 0.4472 -0.1032 -0.8885
vn -0.2935 0.1108 -0.9495
vn -0.9794 -0.0151 -0.2015
vn 0.0385 -0.9192 0.3919
vn -0.0385 0.9192 -0.3919
vn 0.5189 0.3536 0.7783
vn 0.8540 -0.1734 -0.4906
vn -0.5189 -0.3536 -0.7783
vn -0.8540 0.1734 0.4906
vn -0.2603 -0.9617 0.0863
vn 0.2603 0.9617 -0.0863
vn 0.6091 -0.0942 0.7874
vn 0.7491 -0.2576 -0.6103
vn -0.6091 0.0942 -0.7874
vn -0.7491 0.2576 0.6103
vn 0.0014 -0.0199 0.9998
vn -0.0014 0.0200 -0.9998
vn -0.8320 -0.5547 -0.0000
vn 0.9443 0.2377 -0.2278
vn 0.6802 0.2733 -0.6802
vn 0.2454 0.3180 -0.9158
vn -0.2222 0.2712 -0.9365
vn -0.6694 0.2377 -0.7039
vn -0.9292 0.2733 -0.2490
vn -0.9158 0.3180 0.2454
vn -0.7000 0.2712 0.6607
vn -0.2749 0.2377 0.9316
vn 0.2490 0.2733 0.9292
vn 0.6704 0.3180 0.6704
vn 0.9221 0.2712 0.2759
vn 0.7056 0.6829 -0.1891
vn 0.5090 0.6184 -0.5987
vn 0.1595 0.5561 -0.8156
vn -0.2048 0.6115 -0.7643
vn -0.5166 0.6829 -0.5166
vn -0.7730 0.6184 -0.1415
vn -0.7861 0.5561 0.2697
vn -0.5595 0.6115 0.5595
vn 0.7643 0.6115 0.2048
vn -0.8574 0.1934 -0.4769
vn -0.4769 0.1934 0.8574
vn 0.8574 0.1934 0.4770
vn 0.4770 0.1934 -0.8574
vn 0.2709 0.9611 0.0549
vn 0.2169 0.9726 -0.0843
vn 0.0704 0.9916 -0.1084
vn 0.0007 1.0000 0.0088
vn 0.1857 0.9578 0.2194
vn -0.7655 0.5634 0.3109
vn -0.1729 0.4017 0.8993
vn 0.3221 0.5191 0.7917
vn 0.6399 0.7680 0.0261
vn 0.4841 0.4326 -0.7606
vn -0.0669 0.4788 -0.8754
vn -0.5762 0.7244 -0.3784
vn -0.1100 0.9818 0.1547
vn -0.0692 0.9975 -0.0153
vn 0.2791 -0.1096 0.9540
vn 0.9855 -0.1450 0.0882
vn 0.0605 0.0867 -0.9944
vn -0.7135 -0.0105 -0.7005
vn -0.2566 0.1911 0.9474
vn -0.0666 0.9886 0.1352
vn 0.2888 0.9515 -0.1060
vn 0.3660 0.6912 -0.6231
vn -0.2173 0.7300 -0.6480
vn -0.4591 0.8877 0.0355
vn 0.0652 0.5523 0.8311
vn 0.3229 0.6911 0.6466
vn -0.1811 0.9792 0.0912
vn -0.1290 0.9915 -0.0165
vn -0.0166 0.9971 -0.0748
vn 0.0849 0.0447 0.9954
vn 0.6801 0.0804 0.7287
vn 0.7486 0.5384 0.3871
vn -0.0834 0.0824 -0.9931
vn -0.8945 0.0708 -0.4414
vn -0.5064 -0.0042 0.8623
vn -0.1262 0.9772 -0.1709
vn 0.0562 0.9949 0.0839
vn 0.9767 0.1079 -0.1854
vn 0.5330 -0.1931 -0.8238
vn -0.7636 -0.2914 -0.5762
vn -0.6462 -0.0613 0.7607
vn 0.0491 0.0989 0.9939
vn -0.1473 0.9869 -0.0651
vn 0.1441 0.9894 -0.0178
vn 0.0704 0.1020 0.9923
vn 0.9358 0.3524 -0.0130
vn 0.3046 0.1409 -0.9420
vn -0.5549 0.1054 -0.8252
vn -0.6267 0.1822 0.7576
vn 0.0959 0.9871 -0.1283
vn 0.0252 0.9901 -0.1377
vn 0.8856 -0.1539 0.4381
vn 0.1585 -0.0253 -0.9870
vn -0.4228 0.0205 -0.9060
vn -0.7064 -0.1350 0.6948
vn 0.2398 0.0109 0.9708
vn -0.1536 0.9817 0.1128
vn 0.0650 0.9979 -0.0075
vn -0.0434 0.9991 0.0006
vn -0.5864 0.0646 -0.8075
vn -0.6147 0.5417 -0.5733
vn -0.6342 0.7542 -0.1701
vn 0.7419 -0.0319 0.6697
vn 0.8355 -0.0624 -0.5459
vn -0.0309 -0.1564 -0.9872
vn -0.0309 0.9982 -0.0508
vn 0.0765 0.9942 -0.0759
vn 0.0319 0.9995 -0.0017
vn -0.4543 0.8715 0.1846
vn 0.0191 0.6640 0.7475
vn 0.3817 0.7453 0.5467
vn 0.4449 0.7900 -0.4220
vn 0.1720 0.6866 -0.7064
vn -0.3491 0.7759 -0.5255
vn -0.1164 0.9931 -0.0152
vn -0.0017 0.9652 -0.2616
vn 0.1895 0.9795 -0.0676
vn 0.0451 0.5003 -0.8647
vn -0.4828 0.7606 -0.4339
vn -0.4187 0.6581 0.6258
vn 0.0223 0.5035 0.8637
vn 0.4469 0.6109 0.6535
vn 0.6874 0.6084 -0.3967
vn -0.2032 0.9218 -0.3302
vn 0.1557 0.9877 -0.0128
vn 0.0398 0.9982 -0.0441
vn -0.4821 0.8734 0.0693
vn -0.1959 0.0598 0.9788
vn 0.3495 0.1731 0.9208
vn 0.8438 0.3173 -0.4329
vn 0.5390 0.0533 -0.8406
vn -0.0632 0.0952 -0.9934
vn -0.4590 0.1066 -0.8820
vn -0.6776 0.1963 0.7087
vn -0.2558 0.9667 0.0044
vn 0.0742 0.9950 0.0664
vn 0.0329 0.9968 0.0723
vn -0.0202 0.7841 0.6202
vn 0.5986 0.7927 0.1152
vn 0.4535 0.8565 -0.2464
vn -0.4000 0.6356 -0.6603
vn -0.4463 0.7904 -0.4196
vn 0.6715 -0.3923 0.6286
vn -0.0341 0.9971 0.0682
vn -0.0298 0.9969 0.0734
vn -0.4539 -0.0171 -0.8909
vn -0.3470 0.0328 0.9373
vn 0.2131 -0.1118 0.9706
vn 0.9577 -0.2035 0.2034
vn -0.0334 0.0635 -0.9974
vn -0.1006 0.9933 0.0566
vn -0.1197 0.9924 0.0297
vn 0.1391 0.9875 0.0740
vn -0.9108 -0.4111 0.0376
vn -0.5390 0.6766 -0.5016
vn 0.2586 -0.2179 0.9411
vn 0.9006 -0.4237 -0.0969
vn 0.5639 0.6134 0.5529
vn -0.1394 -0.0744 -0.9874
vn 0.1129 0.9800 -0.1641
vn -0.1451 0.9815 0.1247
vn -0.9145 -0.0145 -0.4043
vn -0.1788 0.0602 0.9820
vn 0.2894 0.1089 0.9510
vn 0.4860 0.5588 0.6720
vn 0.0495 0.1505 -0.9874
vn -0.0058 0.9974 -0.0714
vn 0.0213 0.9946 -0.1014
vn 0.3611 0.0398 0.9317
vn 0.3424 0.6132 0.7119
vn 0.0866 -0.0444 -0.9952
vn -0.9055 -0.3306 -0.2659
vn -0.4423 0.6706 -0.5956
vn 0.0945 0.9943 -0.0504
vn -0.0397 0.9992 0.0053
vn -0.0374 0.9993 0.0041
vn 0.2255 0.2109 0.9511
vn 0.9639 0.1029 0.2455
vn 0.5206 -0.0414 -0.8528
vn -0.4977 -0.0487 -0.8660
vn -0.8655 0.1882 -0.4642
vn -0.3220 0.0312 0.9462
vt 0.474750 0.275250
vt 0.275250 0.474750
vt 0.275250 0.275250
vt 0.224750 0.025250
vt 0.025250 0.224750
vt 0.025250 0.025250
vt 0.224750 0.224750
vt 0.285128 0.331720
vt 0.352804 0.277751
vt 0.437193 0.297012
vt 0.352804 0.472249
vt 0.275250 0.375000
vt 0.325125 0.288614
vt 0.424875 0.461386
vt 0.424875 0.288614
vt 0.474750 0.375000
vt 0.525250 0.025250
vt 0.724750 0.224750
vt 0.525250 0.224750
vt 0.724750 0.025250
vt 0.285128 0.081720
vt 0.352804 0.027751
vt 0.437193 0.047012
vt 0.352804 0.222249
vt 0.474750 0.025250
vt 0.275250 0.224750
vt 0.275250 0.025250
vt 0.275250 0.125000
vt 0.325125 0.038614
vt 0.474750 0.125000
vt 0.424875 0.038614
vt 0.325125 0.211386
vt 0.424875 0.211386
vt 0.294301 0.316368
vt 0.294301 0.433632
vt 0.405824 0.280132
vt 0.474750 0.474750
vt 0.474750 0.224750
vt 0.375000 0.275250
vt 0.461386 0.325125
vt 0.375000 0.474750
vt 0.288614 0.325125
vt 0.344176 0.469868
vt 0.344176 0.280132
vt 0.455699 0.316368
vt 0.304466 0.445534
vt 0.304466 0.304466
vt 0.445534 0.304466
vt 0.974750 0.025250
vt 0.775250 0.224750
vt 0.775250 0.025250
vt 0.974750 0.224750
vt 0.535128 0.081720
vt 0.602804 0.027751
vt 0.687193 0.202988
vt 0.155824 0.219868
vt 0.044301 0.066368
vt 0.155824 0.030132
vt 0.544301 0.433632
vt 0.544301 0.316368
vt 0.655824 0.280132
vt 0.525250 0.275250
vt 0.724750 0.474750
vt 0.525250 0.474750
vt 0.724750 0.275250
vt 0.224750 0.125000
vt 0.044301 0.183632
vt 0.655824 0.219868
vt 0.544301 0.183632
vt 0.544301 0.066368
vt 0.525250 0.375000
vt 0.575125 0.288614
vt 0.674875 0.288614
vt 0.525250 0.125000
vt 0.575125 0.038614
vt 0.674875 0.038614
vt 0.025250 0.125000
vt 0.075125 0.038614
vt 0.174875 0.038614
vt 0.602804 0.277751
vt 0.687193 0.297012
vt 0.602804 0.472249
vt 0.575125 0.461386
vt 0.655824 0.469868
vt 0.437193 0.452988
vt 0.285128 0.418280
vt 0.325125 0.461386
vt 0.437193 0.202988
vt 0.285128 0.168280
vt 0.405824 0.469868
vt 0.461386 0.424875
vt 0.288614 0.424875
vt 0.455699 0.433632
vt 0.445534 0.445534
vt 0.687193 0.047012
vt 0.724750 0.125000
vt 0.602804 0.222249
vt 0.535128 0.168280
vt 0.724750 0.375000
vt 0.655824 0.030132
vt 0.674875 0.461386
vt 0.575125 0.211386
vt 0.674875 0.211386
vt 0.174875 0.211386
vt 0.075125 0.211386
vt 0.687193 0.452988
vt 0.535128 0.418280
vt 0.535128 0.331720
s 0
f 4/1/1 2/2/1 1/3/1
f 6/1/2 8/2/2 5/3/2
f 2/1/3 5/2/3 1/3/3
f 3/1/4 6/2/4 2/3/4
f 4/1/5 7/2/5 3/3/5
f 1/1/6 8/2/6 4/3/6
f 12/1/1 10/2/1 9/3/1
f 14/1/2 16/2/2 13/3/2
f 10/1/3 13/2/3 9/3/3
f 11/1/4 14/2/4 10/3/4
f 12/1/5 15/2/5 11/3/5
f 9/1/6 16/2/6 12/3/6
f 20/1/1 18/2/1 17/3/1
f 22/1/2 24/2/2 21/3/2
f 18/1/3 21/2/3 17/3/3
f 19/1/4 22/2/4 18/3/4
f 20/1/5 23/2/5 19/3/5
f 17/1/6 24/2/6 20/3/6
f 28/1/1 26/2/1 25/3/1
f 30/1/2 32/2/2 29/3/2
f 26/1/3 29/2/3 25/3/3
f 27/1/4 30/2/4 26/3/4
f 28/1/5 31/2/5 27/3/5
f 25/1/6 32/2/6 28/3/6
f 36/4/7 34/5/7 33/6/7
f 38/4/8 40/5/8 37/6/8
f 33/6/9 38/7/9 37/5/9
f 35/4/10 38/5/10 34/6/10
f 36/4/11 39/5/11 35/6/11
f 33/4/12 40/5/12 36/6/12
f 43/8/5 42/9/5 41/10/5
f 50/11/3 52/8/3 54/10/3
f 42/1/2 48/2/2 41/3/2
f 43/1/13 49/2/13 42/3/13
f 44/1/14 50/2/14 43/3/14
f 45/1/15 51/2/15 44/3/15
f 46/1/16 52/2/16 45/3/16
f 47/1/17 53/2/17 46/3/17
f 41/1/18 54/2/18 47/3/18
f 57/12/5 56/13/5 59/14/5
f 62/14/3 65/13/3 66/15/3
f 56/1/2 61/2/2 55/3/2
f 57/1/19 62/2/19 56/3/19
f 58/1/20 63/2/20 57/3/20
f 59/1/21 64/2/21 58/3/21
f 60/1/22 65/2/22 59/3/22
f 55/1/23 66/2/23 60/3/23
f 68/13/5 67/15/5 72/16/5
f 77/13/3 78/15/3 74/14/3
f 68/1/24 73/2/24 67/3/24
f 69/1/25 74/2/25 68/3/25
f 70/1/26 75/2/26 69/3/26
f 71/1/27 76/2/27 70/3/27
f 72/1/28 77/2/28 71/3/28
f 67/1/29 78/2/29 72/3/29
f 82/17/1 80/18/1 79/19/1
f 84/20/2 86/19/2 83/17/2
f 80/20/2 83/19/2 79/17/2
f 81/20/30 84/19/30 80/17/30
f 82/20/31 85/19/31 81/17/31
f 79/20/1 86/19/1 82/17/1
f 89/21/5 88/22/5 87/23/5
f 96/24/3 98/21/3 100/23/3
f 88/25/2 94/26/2 87/27/2
f 89/25/32 95/26/32 88/27/32
f 90/25/33 96/26/33 89/27/33
f 91/25/15 97/26/15 90/27/15
f 92/25/34 98/26/34 91/27/34
f 93/25/35 99/26/35 92/27/35
f 87/25/36 100/26/36 93/27/36
f 103/28/5 102/29/5 106/30/5
f 112/31/3 109/32/3 111/29/3
f 102/25/2 107/26/2 101/27/2
f 103/25/37 108/26/37 102/27/37
f 104/25/38 109/26/38 103/27/38
f 105/25/39 110/26/39 104/27/39
f 106/25/40 111/26/40 105/27/40
f 101/25/41 112/26/41 106/27/41
f 114/29/5 113/31/5 118/30/5
f 123/29/3 124/31/3 120/33/3
f 114/25/24 119/26/24 113/27/24
f 115/25/42 120/26/42 114/27/42
f 116/25/26 121/26/26 115/27/26
f 117/25/43 122/26/43 116/27/43
f 118/25/44 123/26/44 117/27/44
f 113/25/45 124/26/45 118/27/45
f 128/17/5 126/18/5 125/19/5
f 130/20/3 132/19/3 129/17/3
f 126/20/2 129/19/2 125/17/2
f 127/20/46 130/19/46 126/17/46
f 128/20/47 131/19/47 127/17/47
f 125/20/48 132/19/48 128/17/48
f 134/9/5 133/10/5 137/11/5
f 144/8/3 145/9/3 146/10/3
f 134/1/2 140/2/2 133/3/2
f 135/1/49 141/2/49 134/3/49
f 136/1/50 142/2/50 135/3/50
f 137/1/51 143/2/51 136/3/51
f 138/1/52 144/2/52 137/3/52
f 139/1/53 145/2/53 138/3/53
f 133/1/4 146/2/4 139/3/4
f 148/34/5 151/16/5 149/35/5
f 154/35/3 155/34/3 156/36/3
f 148/1/2 152/2/2 147/3/2
f 149/1/6 153/2/6 148/3/6
f 150/1/50 154/2/50 149/3/50
f 151/1/54 155/2/54 150/3/54
f 147/1/55 156/2/55 151/3/55
f 158/1/56 160/2/56 157/3/56
f 161/3/57 163/37/57 164/2/57
f 165/3/58 167/37/58 168/2/58
f 170/1/59 172/2/59 169/3/59
f 174/1/60 176/2/60 173/3/60
f 177/3/61 179/37/61 180/2/61
f 181/3/62 183/37/62 184/2/62
f 186/1/63 188/2/63 185/3/63
f 190/1/64 192/2/64 189/3/64
f 193/3/65 195/37/65 196/2/65
f 197/3/66 199/37/66 200/2/66
f 202/1/67 204/2/67 201/3/67
f 206/25/68 208/26/68 205/27/68
f 209/27/69 211/38/69 212/26/69
f 213/27/70 215/38/70 216/26/70
f 218/25/71 220/26/71 217/27/71
f 222/25/72 224/26/72 221/27/72
f 225/27/73 227/38/73 228/26/73
f 229/27/74 231/38/74 232/26/74
f 234/25/75 236/26/75 233/27/75
f 238/25/76 240/26/76 237/27/76
f 242/25/77 244/26/77 241/27/77
f 246/25/78 248/26/78 245/27/78
f 250/25/79 252/26/79 249/27/79
f 253/27/80 255/38/80 256/26/80
f 258/25/81 260/26/81 257/27/81
f 262/25/82 264/26/82 261/27/82
f 266/25/83 268/26/83 265/27/83
f 270/25/84 272/26/84 269/27/84
f 274/25/85 276/26/85 273/27/85
f 278/25/86 280/26/86 277/27/86
f 283/39/1 281/40/1 289/41/1
f 296/41/2 300/42/2 304/40/2
f 282/1/87 293/2/87 281/3/87
f 283/1/88 294/2/88 282/3/88
f 283/3/89 296/37/89 295/2/89
f 285/1/90 296/2/90 284/3/90
f 285/3/91 298/37/91 297/2/91
f 286/3/92 299/37/92 298/2/92
f 288/1/93 299/2/93 287/3/93
f 289/1/94 300/2/94 288/3/94
f 289/3/95 302/37/95 301/2/95
f 291/1/96 302/2/96 290/3/96
f 292/1/97 303/2/97 291/3/97
f 292/3/98 293/37/98 304/2/98
f 311/43/1 307/44/1 305/45/1
f 318/43/2 320/12/2 322/44/2
f 306/1/99 315/2/99 305/3/99
f 307/1/100 316/2/100 306/3/100
f 308/1/101 317/2/101 307/3/101
f 309/1/102 318/2/102 308/3/102
f 310/1/103 319/2/103 309/3/103
f 311/1/104 320/2/104 310/3/104
f 312/1/105 321/2/105 311/3/105
f 313/1/106 322/2/106 312/3/106
f 314/1/107 323/2/107 313/3/107
f 305/1/108 324/2/108 314/3/108
f 328/1/1 326/2/1 325/3/1
f 330/1/2 332/2/2 329/3/2
f 326/1/3 329/2/3 325/3/3
f 327/1/4 330/2/4 326/3/4
f 328/1/5 331/2/5 327/3/5
f 325/1/6 332/2/6 328/3/6
f 336/25/1 334/26/1 333/27/1
f 338/25/2 340/26/2 337/27/2
f 334/25/3 337/26/3 333/27/3
f 335/25/4 338/26/4 334/27/4
f 336/25/5 339/26/5 335/27/5
f 333/25/6 340/26/6 336/27/6
f 341/27/1 343/38/1 342/26/1
f 345/27/2 347/38/2 348/26/2
f 342/25/109 345/26/109 341/27/109
f 343/25/110 346/26/110 342/27/110
f 344/25/111 347/26/111 343/27/111
f 341/25/112 348/26/112 344/27/112
f 352/25/1 350/26/1 349/27/1
f 354/25/2 356/26/2 353/27/2
f 350/25/113 353/26/113 349/27/113
f 351/25/114 354/26/114 350/27/114
f 352/25/115 355/26/115 351/27/115
f 349/25/116 356/26/116 352/27/116
f 360/25/1 358/26/1 357/27/1
f 362/25/2 364/26/2 361/27/2
f 358/25/117 361/26/117 357/27/117
f 359/25/118 362/26/118 358/27/118
f 360/25/119 363/26/119 359/27/119
f 357/25/120 364/26/120 360/27/120
f 368/25/1 366/26/1 365/27/1
f 370/25/2 372/26/2 369/27/2
f 366/25/121 369/26/121 365/27/121
f 367/25/122 370/26/122 366/27/122
f 368/25/123 371/26/123 367/27/123
f 365/25/124 372/26/124 368/27/124
f 373/27/1 375/38/1 374/26/1
f 377/27/2 379/38/2 380/26/2
f 374/25/125 377/26/125 373/27/125
f 375/25/126 378/26/126 374/27/126
f 376/25/127 379/26/127 375/27/127
f 373/25/128 380/26/128 376/27/128
f 384/25/1 382/26/1 381/27/1
f 386/25/2 388/26/2 385/27/2
f 382/25/129 385/26/129 381/27/129
f 383/25/130 386/26/130 382/27/130
f 384/25/131 387/26/131 383/27/131
f 381/25/132 388/26/132 384/27/132
f 393/46/1 391/47/1 389/48/1
f 400/46/2 402/47/2 404/48/2
f 389/3/133 398/37/133 397/2/133
f 390/3/134 399/37/134 398/2/134
f 392/1/135 399/2/135 391/3/135
f 393/1/136 400/2/136 392/3/136
f 393/3/137 402/37/137 401/2/137
f 395/1/138 402/2/138 394/3/138
f 396/1/139 403/2/139 395/3/139
f 389/1/140 404/2/140 396/3/140
f 408/49/141 406/50/141 405/51/141
f 409/51/142 411/52/142 412/50/142
f 406/49/143 409/50/143 405/51/143
f 407/49/144 410/50/144 406/51/144
f 407/51/145 412/52/145 411/50/145
f 405/49/146 412/50/146 408/51/146
f 424/53/147 425/54/147 421/55/147
f 413/17/148 421/18/148 420/19/148
f 414/17/149 422/18/149 421/19/149
f 415/17/150 423/18/150 422/19/150
f 416/17/151 424/18/151 423/19/151
f 417/17/152 425/18/152 424/19/152
f 418/17/153 426/18/153 425/19/153
f 419/17/154 420/18/154 426/19/154
f 433/56/155 435/57/155 436/58/155
f 427/6/156 433/7/156 432/5/156
f 428/6/157 434/7/157 433/5/157
f 429/6/158 435/7/158 434/5/158
f 430/6/159 436/7/159 435/5/159
f 431/6/160 432/7/160 436/5/160
f 444/59/161 445/60/161 446/61/161
f 437/62/162 443/63/162 442/64/162
f 438/62/163 444/63/163 443/64/163
f 439/62/164 445/63/164 444/64/164
f 440/62/165 446/63/165 445/64/165
f 441/62/166 442/63/166 446/64/166
f 456/12/167 457/13/167 453/16/167
f 448/1/168 453/2/168 447/3/168
f 449/1/169 454/2/169 448/3/169
f 449/3/170 456/37/170 455/2/170
f 451/1/171 456/2/171 450/3/171
f 452/1/172 457/2/172 451/3/172
f 447/1/173 458/2/173 452/3/173
f 466/59/174 467/60/174 468/61/174
f 459/62/175 465/63/175 464/64/175
f 461/65/176 465/64/176 460/62/176
f 461/62/177 467/63/177 466/64/177
f 462/62/178 468/63/178 467/64/178
f 463/62/179 464/63/179 468/64/179
f 477/57/180 474/66/180 476/67/180
f 470/4/181 474/5/181 469/6/181
f 471/4/182 475/5/182 470/6/182
f 472/4/183 476/5/183 471/6/183
f 473/4/184 477/5/184 472/6/184
f 469/4/185 478/5/185 473/6/185
f 485/68/186 486/69/186 487/70/186
f 479/17/187 485/18/187 484/19/187
f 480/17/188 486/18/188 485/19/188
f 481/17/189 487/18/189 486/19/189
f 482/17/190 488/18/190 487/19/190
f 483/17/191 484/18/191 488/19/191
f 498/71/192 499/72/192 500/73/192
f 490/65/193 495/64/193 489/62/193
f 490/62/194 497/63/194 496/64/194
f 491/62/195 498/63/195 497/64/195
f 493/65/196 498/64/196 492/62/196
f 494/65/197 499/64/197 493/62/197
f 489/65/198 500/64/198 494/62/198
f 510/74/199 511/75/199 512/76/199
f 501/17/200 508/18/200 507/19/200
f 502/17/201 509/18/201 508/19/201
f 503/17/202 510/18/202 509/19/202
f 504/17/203 511/18/203 510/19/203
f 505/17/204 512/18/204 511/19/204
f 506/17/205 507/18/205 512/19/205
f 522/77/206 523/78/206 524/79/206
f 513/6/207 520/7/207 519/5/207
f 514/6/208 521/7/208 520/5/208
f 515/6/209 522/7/209 521/5/209
f 516/6/210 523/7/210 522/5/210
f 517/6/211 524/7/211 523/5/211
f 518/6/212 519/7/212 524/5/212
f 537/80/213 538/81/213 534/82/213
f 525/62/214 533/63/214 532/64/214
f 526/62/215 534/63/215 533/64/215
f 527/62/216 535/63/216 534/64/216
f 528/62/217 536/63/217 535/64/217
f 529/62/218 537/63/218 536/64/218
f 530/62/219 538/63/219 537/64/219
f 531/62/220 532/63/220 538/64/220
f 550/73/221 547/83/221 549/72/221
f 539/62/222 546/63/222 545/64/222
f 540/62/223 547/63/223 546/64/223
f 541/62/224 548/63/224 547/64/224
f 542/62/225 549/63/225 548/64/225
f 543/62/226 550/63/226 549/64/226
f 539/65/227 550/64/227 544/62/227
f 557/84/228 558/59/228 559/60/228
f 551/62/229 557/63/229 556/64/229
f 552/62/230 558/63/230 557/64/230
f 553/62/231 559/63/231 558/64/231
f 554/62/232 560/63/232 559/64/232
f 555/62/233 556/63/233 560/64/233
f 570/77/234 571/78/234 572/79/234
f 562/4/235 567/5/235 561/6/235
f 562/6/236 569/7/236 568/5/236
f 564/4/237 569/5/237 563/6/237
f 565/4/238 570/5/238 564/6/238
f 565/6/239 572/7/239 571/5/239
f 561/4/240 572/5/240 566/6/240
f 580/35/241 581/34/241 582/36/241
f 574/1/242 578/2/242 573/3/242
f 575/1/243 579/2/243 574/3/243
f 576/1/244 580/2/244 575/3/244
f 576/3/245 582/37/245 581/2/245
f 573/1/246 582/2/246 577/3/246
f 591/57/247 588/66/247 590/67/247
f 584/4/248 588/5/248 583/6/248
f 584/6/249 590/7/249 589/5/249
f 586/4/250 590/5/250 585/6/250
f 587/4/251 591/5/251 586/6/251
f 587/6/252 588/7/252 592/5/252
f 602/77/253 603/78/253 599/66/253
f 594/4/254 599/5/254 593/6/254
f 595/4/255 600/5/255 594/6/255
f 596/4/256 601/5/256 595/6/256
f 597/4/257 602/5/257 596/6/257
f 598/4/258 603/5/258 597/6/258
f 593/4/259 604/5/259 598/6/259
f 608/4/260 606/5/260 605/6/260
f 609/6/261 611/7/261 612/5/261
f 606/4/262 609/5/262 605/6/262
f 607/4/263 610/5/263 606/6/263
f 608/4/264 611/5/264 607/6/264
f 605/4/265 612/5/265 608/6/265
f 613/6/266 615/7/266 614/5/266
f 617/6/267 619/7/267 620/5/267
f 614/4/268 617/5/268 613/6/268
f 615/4/269 618/5/269 614/6/269
f 615/6/270 620/7/270 619/5/270
f 616/6/271 617/7/271 620/5/271
f 4/1/1 3/37/1 2/2/1
f 6/1/2 7/37/2 8/2/2
f 2/1/3 6/37/3 5/2/3
f 3/1/4 7/37/4 6/2/4
f 4/1/5 8/37/5 7/2/5
f 1/1/6 5/37/6 8/2/6
f 12/1/1 11/37/1 10/2/1
f 14/1/2 15/37/2 16/2/2
f 10/1/3 14/37/3 13/2/3
f 11/1/4 15/37/4 14/2/4
f 12/1/5 16/37/5 15/2/5
f 9/1/6 13/37/6 16/2/6
f 20/1/1 19/37/1 18/2/1
f 22/1/2 23/37/2 24/2/2
f 18/1/3 22/37/3 21/2/3
f 19/1/4 23/37/4 22/2/4
f 20/1/5 24/37/5 23/2/5
f 17/1/6 21/37/6 24/2/6
f 28/1/1 27/37/1 26/2/1
f 30/1/2 31/37/2 32/2/2
f 26/1/3 30/37/3 29/2/3
f 27/1/4 31/37/4 30/2/4
f 28/1/5 32/37/5 31/2/5
f 25/1/6 29/37/6 32/2/6
f 36/4/7 35/7/7 34/5/7
f 38/4/8 39/7/8 40/5/8
f 33/6/272 34/4/272 38/7/272
f 35/4/10 39/7/10 38/5/10
f 36/4/273 40/7/273 39/5/273
f 33/4/12 37/7/12 40/5/12
f 41/10/5 47/16/5 43/8/5
f 47/16/5 46/85/5 45/11/5
f 43/8/5 47/16/5 45/11/5
f 45/11/5 44/86/5 43/8/5
f 54/10/3 48/16/3 50/11/3
f 48/16/3 49/85/3 50/11/3
f 50/11/3 51/86/3 52/8/3
f 52/8/3 53/9/3 54/10/3
f 42/1/2 49/37/2 48/2/2
f 43/1/13 50/37/13 49/2/13
f 44/1/14 51/37/14 50/2/14
f 45/1/15 52/37/15 51/2/15
f 46/1/16 53/37/16 52/2/16
f 47/1/17 54/37/17 53/2/17
f 41/1/18 48/37/18 54/2/18
f 55/15/5 60/16/5 56/13/5
f 60/16/5 59/14/5 56/13/5
f 59/14/5 58/87/5 57/12/5
f 66/15/3 61/16/3 62/14/3
f 62/14/3 63/87/3 65/13/3
f 63/87/3 64/12/3 65/13/3
f 56/1/2 62/37/2 61/2/2
f 57/1/19 63/37/19 62/2/19
f 58/1/20 64/37/20 63/2/20
f 59/1/21 65/37/21 64/2/21
f 60/1/22 66/37/22 65/2/22
f 55/1/23 61/37/23 66/2/23
f 72/16/5 71/14/5 68/13/5
f 71/14/5 70/87/5 68/13/5
f 70/87/5 69/12/5 68/13/5
f 78/15/3 73/16/3 74/14/3
f 74/14/3 75/87/3 76/12/3
f 76/12/3 77/13/3 74/14/3
f 68/1/24 74/37/24 73/2/24
f 69/1/25 75/37/25 74/2/25
f 70/1/26 76/37/26 75/2/26
f 71/1/27 77/37/27 76/2/27
f 72/1/28 78/37/28 77/2/28
f 67/1/29 73/37/29 78/2/29
f 82/17/5 81/20/5 80/18/5
f 84/20/3 85/18/3 86/19/3
f 80/20/2 84/18/2 83/19/2
f 81/20/274 85/18/274 84/19/274
f 82/20/31 86/18/31 85/19/31
f 79/20/1 83/18/1 86/19/1
f 87/23/5 93/30/5 89/21/5
f 93/30/5 92/88/5 91/24/5
f 89/21/5 93/30/5 91/24/5
f 91/24/5 90/89/5 89/21/5
f 100/23/3 94/30/3 96/24/3
f 94/30/3 95/88/3 96/24/3
f 96/24/3 97/89/3 98/21/3
f 98/21/3 99/22/3 100/23/3
f 88/25/2 95/38/2 94/26/2
f 89/25/32 96/38/32 95/26/32
f 90/25/33 97/38/33 96/26/33
f 91/25/15 98/38/15 97/26/15
f 92/25/34 99/38/34 98/26/34
f 93/25/35 100/38/35 99/26/35
f 87/25/36 94/38/36 100/26/36
f 101/31/5 106/30/5 102/29/5
f 106/30/5 105/33/5 103/28/5
f 105/33/5 104/32/5 103/28/5
f 112/31/3 107/30/3 108/33/3
f 108/33/3 109/32/3 112/31/3
f 109/32/3 110/28/3 111/29/3
f 102/25/2 108/38/2 107/26/2
f 103/25/37 109/38/37 108/26/37
f 104/25/38 110/38/38 109/26/38
f 105/25/39 111/38/39 110/26/39
f 106/25/40 112/38/40 111/26/40
f 101/25/41 107/38/41 112/26/41
f 118/30/5 117/33/5 114/29/5
f 117/33/5 116/32/5 114/29/5
f 116/32/5 115/28/5 114/29/5
f 124/31/3 119/30/3 120/33/3
f 120/33/3 121/32/3 122/28/3
f 122/28/3 123/29/3 120/33/3
f 114/25/24 120/38/24 119/26/24
f 115/25/42 121/38/42 120/26/42
f 116/25/26 122/38/26 121/26/26
f 117/25/43 123/38/43 122/26/43
f 118/25/44 124/38/44 123/26/44
f 113/25/45 119/38/45 124/26/45
f 128/17/5 127/20/5 126/18/5
f 130/20/3 131/18/3 132/19/3
f 126/20/2 130/18/2 129/19/2
f 127/20/46 131/18/46 130/19/46
f 128/20/47 132/18/47 131/19/47
f 125/20/48 129/18/48 132/19/48
f 133/10/5 139/16/5 137/11/5
f 139/16/5 138/85/5 137/11/5
f 137/11/5 136/86/5 135/8/5
f 135/8/5 134/9/5 137/11/5
f 146/10/3 140/16/3 144/8/3
f 140/16/3 141/85/3 144/8/3
f 141/85/3 142/11/3 144/8/3
f 142/11/3 143/86/3 144/8/3
f 134/1/2 141/37/2 140/2/2
f 135/1/49 142/37/49 141/2/49
f 136/1/50 143/37/50 142/2/50
f 137/1/51 144/37/51 143/2/51
f 138/1/52 145/37/52 144/2/52
f 139/1/53 146/37/53 145/2/53
f 133/1/4 140/37/4 146/2/4
f 147/36/5 151/16/5 148/34/5
f 151/16/5 150/90/5 149/35/5
f 156/36/3 152/16/3 153/90/3
f 153/90/3 154/35/3 156/36/3
f 148/1/2 153/37/2 152/2/2
f 149/1/6 154/37/6 153/2/6
f 150/1/50 155/37/50 154/2/50
f 151/1/54 156/37/54 155/2/54
f 147/1/55 152/37/55 156/2/55
f 158/1/275 159/37/275 160/2/275
f 161/3/276 162/1/276 163/37/276
f 165/3/277 166/1/277 167/37/277
f 170/1/278 171/37/278 172/2/278
f 174/1/279 175/37/279 176/2/279
f 177/3/280 178/1/280 179/37/280
f 181/3/281 182/1/281 183/37/281
f 186/1/282 187/37/282 188/2/282
f 190/1/283 191/37/283 192/2/283
f 193/3/284 194/1/284 195/37/284
f 197/3/285 198/1/285 199/37/285
f 202/1/286 203/37/286 204/2/286
f 206/25/287 207/38/287 208/26/287
f 209/27/288 210/25/288 211/38/288
f 213/27/289 214/25/289 215/38/289
f 218/25/290 219/38/290 220/26/290
f 222/25/291 223/38/291 224/26/291
f 225/27/292 226/25/292 227/38/292
f 229/27/293 230/25/293 231/38/293
f 234/25/294 235/38/294 236/26/294
f 238/25/295 239/38/295 240/26/295
f 242/25/77 243/38/77 244/26/77
f 246/25/78 247/38/78 248/26/78
f 250/25/79 251/38/79 252/26/79
f 253/27/80 254/25/80 255/38/80
f 258/25/81 259/38/81 260/26/81
f 262/25/82 263/38/82 264/26/82
f 266/25/83 267/38/83 268/26/83
f 270/25/84 271/38/84 272/26/84
f 274/25/85 275/38/85 276/26/85
f 278/25/86 279/38/86 280/26/86
f 281/40/1 292/16/1 289/41/1
f 292/16/1 291/91/1 289/41/1
f 291/91/1 290/14/1 289/41/1
f 289/41/1 288/87/1 287/92/1
f 287/92/1 286/12/1 285/42/1
f 285/42/1 284/13/1 283/39/1
f 283/39/1 282/15/1 281/40/1
f 289/41/1 287/92/1 285/42/1
f 285/42/1 283/39/1 289/41/1
f 304/40/2 293/16/2 294/91/2
f 294/91/2 295/14/2 296/41/2
f 296/41/2 297/87/2 300/42/2
f 297/87/2 298/92/2 300/42/2
f 298/92/2 299/12/2 300/42/2
f 300/42/2 301/13/2 304/40/2
f 301/13/2 302/39/2 304/40/2
f 302/39/2 303/15/2 304/40/2
f 304/40/2 294/91/2 296/41/2
f 282/1/87 294/37/87 293/2/87
f 283/1/88 295/37/88 294/2/88
f 283/3/89 284/1/89 296/37/89
f 285/1/90 297/37/90 296/2/90
f 285/3/91 286/1/91 298/37/91
f 286/3/92 287/1/92 299/37/92
f 288/1/93 300/37/93 299/2/93
f 289/1/94 301/37/94 300/2/94
f 289/3/95 290/1/95 302/37/95
f 291/1/96 303/37/96 302/2/96
f 292/1/97 304/37/97 303/2/97
f 292/3/98 281/1/98 293/37/98
f 305/45/1 314/16/1 313/93/1
f 313/93/1 312/90/1 311/43/1
f 311/43/1 310/35/1 307/44/1
f 310/35/1 309/12/1 307/44/1
f 309/12/1 308/34/1 307/44/1
f 307/44/1 306/36/1 305/45/1
f 305/45/1 313/93/1 311/43/1
f 324/45/2 315/16/2 316/93/2
f 316/93/2 317/90/2 318/43/2
f 318/43/2 319/35/2 320/12/2
f 320/12/2 321/34/2 322/44/2
f 322/44/2 323/36/2 324/45/2
f 324/45/2 316/93/2 322/44/2
f 316/93/2 318/43/2 322/44/2
f 306/1/99 316/37/99 315/2/99
f 307/1/100 317/37/100 316/2/100
f 308/1/101 318/37/101 317/2/101
f 309/1/102 319/37/102 318/2/102
f 310/1/103 320/37/103 319/2/103
f 311/1/104 321/37/104 320/2/104
f 312/1/105 322/37/105 321/2/105
f 313/1/106 323/37/106 322/2/106
f 314/1/107 324/37/107 323/2/107
f 305/1/108 315/37/108 324/2/108
f 328/1/1 327/37/1 326/2/1
f 330/1/2 331/37/2 332/2/2
f 326/1/3 330/37/3 329/2/3
f 327/1/4 331/37/4 330/2/4
f 328/1/5 332/37/5 331/2/5
f 325/1/6 329/37/6 332/2/6
f 336/25/1 335/38/1 334/26/1
f 338/25/2 339/38/2 340/26/2
f 334/25/3 338/38/3 337/26/3
f 335/25/4 339/38/4 338/26/4
f 336/25/5 340/38/5 339/26/5
f 333/25/6 337/38/6 340/26/6
f 341/27/1 344/25/1 343/38/1
f 345/27/2 346/25/2 347/38/2
f 342/25/109 346/38/109 345/26/109
f 343/25/110 347/38/110 346/26/110
f 344/25/111 348/38/111 347/26/111
f 341/25/112 345/38/112 348/26/112
f 352/25/1 351/38/1 350/26/1
f 354/25/2 355/38/2 356/26/2
f 350/25/113 354/38/113 353/26/113
f 351/25/114 355/38/114 354/26/114
f 352/25/115 356/38/115 355/26/115
f 349/25/116 353/38/116 356/26/116
f 360/25/1 359/38/1 358/26/1
f 362/25/2 363/38/2 364/26/2
f 358/25/117 362/38/117 361/26/117
f 359/25/118 363/38/118 362/26/118
f 360/25/119 364/38/119 363/26/119
f 357/25/120 361/38/120 364/26/120
f 368/25/1 367/38/1 366/26/1
f 370/25/2 371/38/2 372/26/2
f 366/25/121 370/38/121 369/26/121
f 367/25/122 371/38/122 370/26/122
f 368/25/123 372/38/123 371/26/123
f 365/25/124 369/38/124 372/26/124
f 373/27/1 376/25/1 375/38/1
f 377/27/2 378/25/2 379/38/2
f 374/25/125 378/38/125 377/26/125
f 375/25/126 379/38/126 378/26/126
f 376/25/127 380/38/127 379/26/127
f 373/25/128 377/38/128 380/26/128
f 384/25/1 383/38/1 382/26/1
f 386/25/2 387/38/2 388/26/2
f 382/25/129 386/38/129 385/26/129
f 383/25/130 387/38/130 386/26/130
f 384/25/131 388/38/131 387/26/131
f 381/25/132 385/38/132 388/26/132
f 389/48/1 396/16/1 393/46/1
f 396/16/1 395/94/1 393/46/1
f 395/94/1 394/41/1 393/46/1
f 393/46/1 392/12/1 391/47/1
f 391/47/1 390/39/1 389/48/1
f 404/48/2 397/16/2 400/46/2
f 397/16/2 398/94/2 400/46/2
f 398/94/2 399/41/2 400/46/2
f 400/46/2 401/12/2 402/47/2
f 402/47/2 403/39/2 404/48/2
f 389/3/296 390/1/296 398/37/296
f 390/3/134 391/1/134 399/37/134
f 392/1/297 400/37/297 399/2/297
f 393/1/136 401/37/136 400/2/136
f 393/3/298 394/1/298 402/37/298
f 395/1/138 403/37/138 402/2/138
f 396/1/299 404/37/299 403/2/299
f 389/1/140 397/37/140 404/2/140
f 408/49/141 407/52/141 406/50/141
f 409/51/300 410/49/300 411/52/300
f 406/49/143 410/52/143 409/50/143
f 407/49/144 411/52/144 410/50/144
f 407/51/145 408/49/145 412/52/145
f 405/49/146 409/52/146 412/50/146
f 426/95/301 420/96/301 425/54/301
f 420/96/302 421/55/302 425/54/302
f 421/55/303 422/97/303 423/98/303
f 423/98/304 424/53/304 421/55/304
f 413/17/305 414/20/305 421/18/305
f 414/17/306 415/20/306 422/18/306
f 415/17/307 416/20/307 423/18/307
f 416/17/308 417/20/308 424/18/308
f 417/17/309 418/20/309 425/18/309
f 418/17/310 419/20/310 426/18/310
f 419/17/311 413/20/311 420/18/311
f 436/58/312 432/66/312 433/56/312
f 433/56/313 434/67/313 435/57/313
f 427/6/314 428/4/314 433/7/314
f 428/6/315 429/4/315 434/7/315
f 429/6/316 430/4/316 435/7/316
f 430/6/317 431/4/317 436/7/317
f 431/6/318 427/4/318 432/7/318
f 446/61/319 442/99/319 444/59/319
f 442/99/320 443/84/320 444/59/320
f 437/62/321 438/65/321 443/63/321
f 438/62/322 439/65/322 444/63/322
f 439/62/323 440/65/323 445/63/323
f 440/62/324 441/65/324 446/63/324
f 441/62/325 437/65/325 442/63/325
f 458/15/326 453/16/326 457/13/326
f 453/16/327 454/14/327 456/12/327
f 454/14/328 455/87/328 456/12/328
f 448/1/329 454/37/329 453/2/329
f 449/1/330 455/37/330 454/2/330
f 449/3/331 450/1/331 456/37/331
f 451/1/332 457/37/332 456/2/332
f 452/1/333 458/37/333 457/2/333
f 447/1/334 453/37/334 458/2/334
f 468/61/335 464/99/335 465/84/335
f 465/84/336 466/59/336 468/61/336
f 459/62/337 460/65/337 465/63/337
f 461/65/338 466/63/338 465/64/338
f 461/62/339 462/65/339 467/63/339
f 462/62/340 463/65/340 468/63/340
f 463/62/341 459/65/341 464/63/341
f 478/58/342 474/66/342 477/57/342
f 474/66/343 475/56/343 476/67/343
f 470/4/344 475/7/344 474/5/344
f 471/4/345 476/7/345 475/5/345
f 472/4/346 477/7/346 476/5/346
f 473/4/347 478/7/347 477/5/347
f 469/4/348 474/7/348 478/5/348
f 488/100/349 484/96/349 487/70/349
f 484/96/350 485/68/350 487/70/350
f 479/17/351 480/20/351 485/18/351
f 480/17/352 481/20/352 486/18/352
f 481/17/353 482/20/353 487/18/353
f 482/17/354 483/20/354 488/18/354
f 483/17/355 479/20/355 484/18/355
f 500/73/356 495/99/356 498/71/356
f 495/99/357 496/101/357 497/83/357
f 498/71/358 495/99/358 497/83/358
f 490/65/359 496/63/359 495/64/359
f 490/62/360 491/65/360 497/63/360
f 491/62/361 492/65/361 498/63/361
f 493/65/362 499/63/362 498/64/362
f 494/65/363 500/63/363 499/64/363
f 489/65/364 495/63/364 500/64/364
f 512/76/365 507/96/365 509/102/365
f 507/96/366 508/103/366 509/102/366
f 509/102/367 510/74/367 512/76/367
f 501/17/368 502/20/368 508/18/368
f 502/17/369 503/20/369 509/18/369
f 503/17/370 504/20/370 510/18/370
f 504/17/371 505/20/371 511/18/371
f 505/17/372 506/20/372 512/18/372
f 506/17/373 501/20/373 507/18/373
f 524/79/374 519/66/374 522/77/374
f 519/66/375 520/104/375 521/105/375
f 522/77/376 519/66/376 521/105/376
f 513/6/377 514/4/377 520/7/377
f 514/6/378 515/4/378 521/7/378
f 515/6/379 516/4/379 522/7/379
f 516/6/380 517/4/380 523/7/380
f 517/6/381 518/4/381 524/7/381
f 518/6/382 513/4/382 519/7/382
f 538/81/383 532/99/383 533/106/383
f 533/106/384 534/82/384 538/81/384
f 534/82/385 535/107/385 537/80/385
f 535/107/386 536/108/386 537/80/386
f 525/62/387 526/65/387 533/63/387
f 526/62/388 527/65/388 534/63/388
f 527/62/389 528/65/389 535/63/389
f 528/62/390 529/65/390 536/63/390
f 529/62/391 530/65/391 537/63/391
f 530/62/392 531/65/392 538/63/392
f 531/62/393 525/65/393 532/63/393
f 550/73/394 545/99/394 546/101/394
f 546/101/395 547/83/395 550/73/395
f 547/83/396 548/71/396 549/72/396
f 539/62/397 540/65/397 546/63/397
f 540/62/398 541/65/398 547/63/398
f 541/62/399 542/65/399 548/63/399
f 542/62/400 543/65/400 549/63/400
f 543/62/401 544/65/401 550/63/401
f 539/65/402 545/63/402 550/64/402
f 560/61/403 556/99/403 559/60/403
f 556/99/404 557/84/404 559/60/404
f 551/62/405 552/65/405 557/63/405
f 552/62/406 553/65/406 558/63/406
f 553/62/407 554/65/407 559/63/407
f 554/62/408 555/65/408 560/63/408
f 555/62/409 551/65/409 556/63/409
f 572/79/410 567/66/410 568/104/410
f 568/104/411 569/105/411 572/79/411
f 569/105/412 570/77/412 572/79/412
f 562/4/413 568/7/413 567/5/413
f 562/6/414 563/4/414 569/7/414
f 564/4/415 570/7/415 569/5/415
f 565/4/416 571/7/416 570/5/416
f 565/6/417 566/4/417 572/7/417
f 561/4/418 567/7/418 572/5/418
f 582/36/419 578/16/419 580/35/419
f 578/16/420 579/90/420 580/35/420
f 574/1/421 579/37/421 578/2/421
f 575/1/422 580/37/422 579/2/422
f 576/1/423 581/37/423 580/2/423
f 576/3/424 577/1/424 582/37/424
f 573/1/425 578/37/425 582/2/425
f 592/58/426 588/66/426 591/57/426
f 588/66/427 589/56/427 590/67/427
f 584/4/428 589/7/428 588/5/428
f 584/6/429 585/4/429 590/7/429
f 586/4/430 591/7/430 590/5/430
f 587/4/431 592/7/431 591/5/431
f 587/6/432 583/4/432 588/7/432
f 604/79/433 599/66/433 603/78/433
f 599/66/434 600/104/434 602/77/434
f 600/104/435 601/105/435 602/77/435
f 594/4/436 600/7/436 599/5/436
f 595/4/437 601/7/437 600/5/437
f 596/4/438 602/7/438 601/5/438
f 597/4/439 603/7/439 602/5/439
f 598/4/440 604/7/440 603/5/440
f 593/4/441 599/7/441 604/5/441
f 608/4/260 607/7/260 606/5/260
f 609/6/261 610/4/261 611/7/261
f 606/4/262 610/7/262 609/5/262
f 607/4/263 611/7/263 610/5/263
f 608/4/264 612/7/264 611/5/264
f 605/4/265 609/7/265 612/5/265
f 613/6/266 616/4/266 615/7/266
f 617/6/267 618/4/267 619/7/267
f 614/4/268 618/7/268 617/5/268
f 615/4/269 619/7/269 618/5/269
f 615/6/270 616/4/270 620/7/270
f 616/6/271 613/4/271 617/7/271
