# Blender 4.4.3
# www.blender.org
o ruin_school
v -6.690000 0.401595 0.321673
v -6.310000 0.401595 0.321673
v -6.310000 0.401595 -0.078327
v -6.690000 0.401595 -0.078327
v -6.690000 3.301595 0.321673
v -6.310000 3.301595 0.321673
v -6.310000 3.301595 -0.078327
v -6.690000 3.301595 -0.078327
v -3.390000 0.401595 0.321673
v -3.010000 0.401595 0.321673
v -3.010000 0.401595 -0.078327
v -3.390000 0.401595 -0.078327
v -3.390000 3.301595 0.321673
v -3.010000 3.301595 0.321673
v -3.010000 3.301595 -0.078327
v -3.390000 3.301595 -0.078327
v -0.190000 0.401595 0.321673
v 0.190000 0.401595 0.321673
v 0.190000 0.401595 -0.078327
v -0.190000 0.401595 -0.078327
v -0.190000 3.301595 0.321673
v 0.190000 3.301595 0.321673
v 0.190000 3.301595 -0.078327
v -0.190000 3.301595 -0.078327
v 3.010000 0.401595 0.321673
v 3.390000 0.401595 0.321673
v 3.390000 0.401595 -0.078327
v 3.010000 0.401595 -0.078327
v 3.010000 3.301595 0.321673
v 3.390000 3.301595 0.321673
v 3.390000 3.301595 -0.078327
v 3.010000 3.301595 -0.078327
v 6.310000 0.401595 0.321673
v 6.690000 0.401595 0.321673
v 6.690000 0.401595 -0.078327
v 6.310000 0.401595 -0.078327
v 6.310000 3.301595 0.321673
v 6.690000 3.301595 0.321673
v 6.690000 3.301595 -0.078327
v 6.310000 3.301595 -0.078327
v -6.300000 0.521595 3.341673
v -5.400000 0.521595 3.341673
v -5.450000 1.481595 3.341673
v -5.310000 2.401595 3.341673
v -5.430000 2.521595 3.341673
v -6.300000 2.739095 3.341673
v -6.340000 2.271595 3.341673
v -6.300000 0.521595 3.101673
v -5.400000 0.521595 3.101673
v -5.450000 1.481595 3.101673
v -5.310000 2.401595 3.101673
v -5.430000 2.521595 3.101673
v -6.300000 2.739095 3.101673
v -6.340000 2.271595 3.101673
v -4.000000 0.521595 3.341673
v -3.300000 0.521595 3.341673
v -3.260000 2.299095 3.341673
v -3.380000 2.711595 3.341673
v -3.970000 2.481595 3.341673
v -4.100000 1.401595 3.341673
v -4.000000 0.521595 3.101673
v -3.300000 0.521595 3.101673
v -3.260000 2.299095 3.101673
v -3.380000 2.711595 3.101673
v -3.970000 2.481595 3.101673
v -4.100000 1.401595 3.101673
v -5.400000 2.401595 3.341673
v -5.280000 2.491595 3.341673
v -4.120000 2.361595 3.341673
v -4.000000 2.401595 3.341673
v -3.234000 3.151595 3.341673
v -6.174000 2.904095 3.341673
v -5.400000 2.401595 3.101673
v -5.280000 2.491595 3.101673
v -4.120000 2.361595 3.101673
v -4.000000 2.401595 3.101673
v -3.234000 3.151595 3.101673
v -6.174000 2.904095 3.101673
v -5.400000 0.521595 3.341673
v -4.000000 0.521595 3.341673
v -4.080000 1.181595 3.341673
v -5.300000 1.061595 3.341673
v -5.400000 0.521595 3.101673
v -4.000000 0.521595 3.101673
v -4.080000 1.181595 3.101673
v -5.300000 1.061595 3.101673
v -3.000000 0.521595 3.341673
v -2.100000 0.521595 3.341673
v -2.150000 1.481595 3.341673
v -2.010000 2.401595 3.341673
v -2.130000 2.521595 3.341673
v -3.000000 2.739095 3.341673
v -3.040000 2.271595 3.341673
v -3.000000 0.521595 3.101673
v -2.100000 0.521595 3.101673
v -2.150000 1.481595 3.101673
v -2.010000 2.401595 3.101673
v -2.130000 2.521595 3.101673
v -3.000000 2.739095 3.101673
v -3.040000 2.271595 3.101673
v -0.700000 0.521595 3.341673
v 0.000000 0.521595 3.341673
v 0.040000 2.299095 3.341673
v -0.080000 2.711595 3.341673
v -0.670000 2.481595 3.341673
v -0.800000 1.401595 3.341673
v -0.700000 0.521595 3.101673
v 0.000000 0.521595 3.101673
v 0.040000 2.299095 3.101673
v -0.080000 2.711595 3.101673
v -0.670000 2.481595 3.101673
v -0.800000 1.401595 3.101673
v -2.100000 2.401595 3.341673
v -1.980000 2.491595 3.341673
v -0.820000 2.361595 3.341673
v -0.700000 2.401595 3.341673
v 0.000000 3.151595 3.341673
v -2.940000 2.904095 3.341673
v -2.100000 2.401595 3.101673
v -1.980000 2.491595 3.101673
v -0.820000 2.361595 3.101673
v -0.700000 2.401595 3.101673
v 0.000000 3.151595 3.101673
v -2.940000 2.904095 3.101673
v -2.100000 0.521595 3.341673
v -0.700000 0.521595 3.341673
v -0.780000 1.181595 3.341673
v -2.000000 1.061595 3.341673
v -2.100000 0.521595 3.101673
v -0.700000 0.521595 3.101673
v -0.780000 1.181595 3.101673
v -2.000000 1.061595 3.101673
v 3.400000 0.521595 3.341673
v 4.300000 0.521595 3.341673
v 4.250000 1.481595 3.341673
v 4.390000 2.401595 3.341673
v 4.270000 2.521595 3.341673
v 3.400000 2.739095 3.341673
v 3.360000 2.271595 3.341673
v 3.400000 0.521595 3.101673
v 4.300000 0.521595 3.101673
v 4.250000 1.481595 3.101673
v 4.390000 2.401595 3.101673
v 4.270000 2.521595 3.101673
v 3.400000 2.739095 3.101673
v 3.360000 2.271595 3.101673
v 5.600000 0.521595 3.341673
v 6.300000 0.521595 3.341673
v 6.340000 2.299095 3.341673
v 6.220000 2.711595 3.341673
v 5.630000 2.481595 3.341673
v 5.500000 1.401595 3.341673
v 5.600000 0.521595 3.101673
v 6.300000 0.521595 3.101673
v 6.340000 2.299095 3.101673
v 6.220000 2.711595 3.101673
v 5.630000 2.481595 3.101673
v 5.500000 1.401595 3.101673
v 4.300000 2.401595 3.341673
v 4.420000 2.491595 3.341673
v 5.480000 2.361595 3.341673
v 5.600000 2.401595 3.341673
v 6.174000 3.151595 3.341673
v 3.332000 2.904095 3.341673
v 4.300000 2.401595 3.101673
v 4.420000 2.491595 3.101673
v 5.480000 2.361595 3.101673
v 5.600000 2.401595 3.101673
v 6.174000 3.151595 3.101673
v 3.332000 2.904095 3.101673
v 4.300000 0.521595 3.341673
v 5.600000 0.521595 3.341673
v 5.520000 1.181595 3.341673
v 4.400000 1.061595 3.341673
v 4.300000 0.521595 3.101673
v 5.600000 0.521595 3.101673
v 5.520000 1.181595 3.101673
v 4.400000 1.061595 3.101673
v -5.114161 3.282667 2.922433
v 1.677343 3.010739 2.718626
v 1.503369 3.010739 -3.078764
v -5.288135 3.282667 -2.874957
v -5.103369 3.552451 2.922109
v 1.688135 3.280523 2.718303
v 1.514161 3.280523 -3.079087
v -5.277342 3.552451 -2.875281
v -6.690000 3.401595 0.321673
v -6.310000 3.401595 0.321673
v -6.310000 3.401595 -0.078327
v -6.690000 3.401595 -0.078327
v -6.690000 6.301595 0.321673
v -6.310000 6.301595 0.321673
v -6.310000 6.301595 -0.078327
v -6.690000 6.301595 -0.078327
v -3.390000 3.401595 0.321673
v -3.010000 3.401595 0.321673
v -3.010000 3.401595 -0.078327
v -3.390000 3.401595 -0.078327
v -3.390000 6.301595 0.321673
v -3.010000 6.301595 0.321673
v -3.010000 6.301595 -0.078327
v -3.390000 6.301595 -0.078327
v -0.190000 3.401595 0.321673
v 0.190000 3.401595 0.321673
v 0.190000 3.401595 -0.078327
v -0.190000 3.401595 -0.078327
v -0.190000 6.301595 0.321673
v 0.190000 6.301595 0.321673
v 0.190000 6.301595 -0.078327
v -0.190000 6.301595 -0.078327
v 3.010000 3.401595 0.321673
v 3.390000 3.401595 0.321673
v 3.390000 3.401595 -0.078327
v 3.010000 3.401595 -0.078327
v 3.010000 6.214595 0.321673
v 3.390000 6.214595 0.321673
v 3.390000 6.214595 -0.078327
v 3.010000 6.214595 -0.078327
v 6.310000 3.401595 0.321673
v 6.690000 3.401595 0.321673
v 6.690000 3.401595 -0.078327
v 6.310000 3.401595 -0.078327
v 6.310000 6.214595 0.321673
v 6.690000 6.214595 0.321673
v 6.690000 6.214595 -0.078327
v 6.310000 6.214595 -0.078327
v -6.300000 3.521595 3.341673
v -5.400000 3.521595 3.341673
v -5.450000 3.101595 3.341673
v -5.310000 5.401595 3.341673
v -5.430000 5.521595 3.341673
v -6.300000 5.289094 3.341673
v -6.340000 4.311595 3.341673
v -6.300000 3.521595 3.101673
v -5.400000 3.521595 3.101673
v -5.450000 3.101595 3.101673
v -5.310000 5.401595 3.101673
v -5.430000 5.521595 3.101673
v -6.300000 5.289094 3.101673
v -6.340000 4.311595 3.101673
v -4.000000 3.521595 3.341673
v -3.300000 3.521595 3.341673
v -3.260000 4.369095 3.341673
v -3.380000 5.231595 3.341673
v -3.970000 5.481595 3.341673
v -4.100000 2.901595 3.341673
v -4.000000 3.521595 3.101673
v -3.300000 3.521595 3.101673
v -3.260000 4.369095 3.101673
v -3.380000 5.231595 3.101673
v -3.970000 5.481595 3.101673
v -4.100000 2.901595 3.101673
v -5.400000 5.401595 3.341673
v -5.280000 5.491595 3.341673
v -4.120000 5.361595 3.341673
v -4.000000 5.401595 3.341673
v -3.234000 6.151595 3.341673
v -6.174000 5.634095 3.341673
v -5.400000 5.401595 3.101673
v -5.280000 5.491595 3.101673
v -4.120000 5.361595 3.101673
v -4.000000 5.401595 3.101673
v -3.234000 6.151595 3.101673
v -6.174000 5.634095 3.101673
v -5.400000 3.521595 3.341673
v -4.000000 3.521595 3.341673
v -4.080000 4.181595 3.341673
v -5.300000 4.061595 3.341673
v -5.400000 3.521595 3.101673
v -4.000000 3.521595 3.101673
v -4.080000 4.181595 3.101673
v -5.300000 4.061595 3.101673
v -3.000000 3.521595 3.341673
v -2.100000 3.521595 3.341673
v -2.150000 3.101595 3.341673
v -2.010000 5.401595 3.341673
v -2.130000 5.521595 3.341673
v -3.000000 5.289094 3.341673
v -3.040000 4.311595 3.341673
v -3.000000 3.521595 3.101673
v -2.100000 3.521595 3.101673
v -2.150000 3.101595 3.101673
v -2.010000 5.401595 3.101673
v -2.130000 5.521595 3.101673
v -3.000000 5.289094 3.101673
v -3.040000 4.311595 3.101673
v -0.700000 3.521595 3.341673
v 0.000000 3.521595 3.341673
v 0.040000 4.369095 3.341673
v -0.080000 5.231595 3.341673
v -0.670000 5.481595 3.341673
v -0.800000 2.901595 3.341673
v -0.700000 3.521595 3.101673
v 0.000000 3.521595 3.101673
v 0.040000 4.369095 3.101673
v -0.080000 5.231595 3.101673
v -0.670000 5.481595 3.101673
v -0.800000 2.901595 3.101673
v -2.100000 5.401595 3.341673
v -1.980000 5.491595 3.341673
v -0.820000 5.361595 3.341673
v -0.700000 5.401595 3.341673
v 0.000000 6.151595 3.341673
v -2.940000 5.634095 3.341673
v -2.100000 5.401595 3.101673
v -1.980000 5.491595 3.101673
v -0.820000 5.361595 3.101673
v -0.700000 5.401595 3.101673
v 0.000000 6.151595 3.101673
v -2.940000 5.634095 3.101673
v -2.100000 3.521595 3.341673
v -0.700000 3.521595 3.341673
v -0.780000 4.181595 3.341673
v -2.000000 4.061595 3.341673
v -2.100000 3.521595 3.101673
v -0.700000 3.521595 3.101673
v -0.780000 4.181595 3.101673
v -2.000000 4.061595 3.101673
v 3.400000 3.521595 3.341673
v 4.300000 3.521595 3.341673
v 4.250000 3.101595 3.341673
v 4.390000 5.401595 3.341673
v 4.270000 5.521595 3.341673
v 3.400000 5.289094 3.341673
v 3.360000 4.311595 3.341673
v 3.400000 3.521595 3.101673
v 4.300000 3.521595 3.101673
v 4.250000 3.101595 3.101673
v 4.390000 5.401595 3.101673
v 4.270000 5.521595 3.101673
v 3.400000 5.289094 3.101673
v 3.360000 4.311595 3.101673
v 5.600000 3.521595 3.341673
v 6.300000 3.521595 3.341673
v 6.340000 4.369095 3.341673
v 6.220000 5.231595 3.341673
v 5.630000 5.481595 3.341673
v 5.500000 2.901595 3.341673
v 5.600000 3.521595 3.101673
v 6.300000 3.521595 3.101673
v 6.340000 4.369095 3.101673
v 6.220000 5.231595 3.101673
v 5.630000 5.481595 3.101673
v 5.500000 2.901595 3.101673
v 4.300000 5.401595 3.341673
v 4.420000 5.491595 3.341673
v 5.480000 5.361595 3.341673
v 5.600000 5.401595 3.341673
v 6.174000 6.151595 3.341673
v 3.332000 5.634095 3.341673
v 4.300000 5.401595 3.101673
v 4.420000 5.491595 3.101673
v 5.480000 5.361595 3.101673
v 5.600000 5.401595 3.101673
v 6.174000 6.151595 3.101673
v 3.332000 5.634095 3.101673
v 4.300000 3.521595 3.341673
v 5.600000 3.521595 3.341673
v 5.520000 4.181595 3.341673
v 4.400000 4.061595 3.341673
v 4.300000 3.521595 3.101673
v 5.600000 3.521595 3.101673
v 5.520000 4.181595 3.101673
v 4.400000 4.061595 3.101673
v -4.960412 5.190725 2.889841
v 1.701042 6.541677 2.689937
v 1.412952 7.109168 -3.075039
v -5.248501 5.758217 -2.875136
v -5.012952 5.454021 2.918385
v 1.648502 6.804973 2.718481
v 1.360412 7.372464 -3.046496
v -5.301042 6.021513 -2.846592
v -5.955894 0.405149 -0.960443
v -4.170223 0.613501 -1.049702
v -4.178211 0.613501 -1.209503
v -5.963882 0.405149 -1.120244
v -6.213812 2.621153 -0.947551
v -4.428141 2.829504 -1.036810
v -4.436129 2.829504 -1.196610
v -6.221800 2.621153 -1.107351
v -3.917988 0.604699 -0.997034
v -2.128361 0.411744 -0.999307
v -2.128565 0.411744 -1.159307
v -3.918191 0.604699 -1.157034
v -3.678832 2.822843 -0.997338
v -1.889205 2.629889 -0.999611
v -1.889408 2.629889 -1.159611
v -3.679035 2.822843 -1.157338
v -1.527917 0.521877 -1.038208
v 0.269973 0.481880 -0.960794
v 0.276856 0.481880 -1.120646
v -1.521034 0.521877 -1.198060
v -1.478388 2.752327 -1.036075
v 0.319502 2.712329 -0.958661
v 0.326385 2.712329 -1.118513
v -1.471505 2.752327 -1.195927
v 0.869483 0.453603 -0.960182
v 2.664846 0.553103 -1.042461
v 2.657522 0.553103 -1.202293
v 0.862158 0.453603 -1.120014
v 0.746288 2.681192 -0.954536
v 2.541652 2.780692 -1.036815
v 2.534327 2.780692 -1.196647
v 0.738964 2.681192 -1.114368
v 2.987392 0.597335 -1.032918
v 4.777327 0.417378 -0.971691
v 4.782796 0.417378 -1.131598
v 2.992862 0.597335 -1.192824
v 3.210309 2.817158 -1.025293
v 5.000244 2.637200 -0.964066
v 5.005714 2.637200 -1.123973
v 3.215779 2.817158 -1.185199
v -0.480673 1.170417 1.785044
v 4.772378 3.037945 1.257981
v 4.556587 3.387632 0.346305
v -0.696464 1.520104 0.873368
v -0.556587 1.415558 1.897040
v 4.696464 3.283086 1.369977
v 4.480673 3.632773 0.458301
v -0.772378 1.765245 0.985364
v -0.885850 0.305781 -1.813652
v -0.999400 0.294512 -1.483239
v -0.786070 0.347378 -1.180672
v -0.321907 0.363559 -1.230524
v 0.114791 0.328955 -1.376323
v -0.075195 0.285612 -1.682177
v -0.409224 0.360243 -1.822997
v 0.049014 1.030911 -1.323088
v 0.026296 0.951397 -1.655596
v -0.310333 0.932538 -1.875442
v -0.848897 1.013552 -1.894280
v -0.944765 0.903743 -1.540560
v -0.793747 0.967485 -1.272693
v -0.362573 0.979986 -1.091317
v -5.025385 0.413609 2.251112
v -4.628973 0.349593 2.392491
v -4.346198 0.391245 2.159712
v -4.533359 0.412248 1.859089
v -4.972820 0.401843 2.012332
v -5.064427 0.838367 1.962801
v -5.153813 0.826928 2.296960
v -4.651828 0.853046 2.337904
v -4.219851 0.809420 2.167447
v -4.541780 0.841171 1.874827
v 5.896579 0.444675 2.482459
v 5.521491 0.431099 2.555029
v 5.514519 0.384798 2.849591
v 5.864695 0.465688 2.956262
v 6.162192 0.386942 2.843736
v 6.223845 0.401636 2.592699
v 5.584835 0.789379 2.894140
v 5.954751 0.830059 2.997815
v 6.145265 0.791784 2.782777
v 6.124281 0.827777 2.571159
v 5.806013 0.830646 2.432887
v 5.485449 0.776533 2.618515
v -5.912216 0.374266 -1.356121
v -5.702090 0.370199 -1.228952
v -5.419099 0.370928 -1.312485
v -5.442852 0.364614 -1.470810
v -5.790790 0.375935 -1.519727
v -5.383891 0.683729 -1.297442
v -5.414590 0.709165 -1.477085
v -5.740394 0.651910 -1.476439
v -5.921454 0.653202 -1.360004
v -5.699462 0.697577 -1.257831
v -2.796627 0.000000 -0.202402
v -1.175995 0.037977 -0.209281
v -1.103549 0.091281 -1.264558
v -2.386184 0.065353 -1.686604
v -3.439198 0.290835 -1.050437
v -1.831124 1.447954 -0.280609
v -1.186839 1.580228 -0.954940
v -1.921401 1.591423 -1.671946
v -3.271791 1.560354 -1.342669
v -3.449425 1.475209 -0.244000
v 2.725962 0.116098 -4.567992
v 2.680377 0.208825 -3.884315
v 3.503193 0.312547 -3.632566
v 4.418558 0.291314 -4.119081
v 3.748394 0.209252 -4.950627
v 2.740980 1.269242 -4.532058
v 2.396377 1.267772 -3.718022
v 3.611894 1.250496 -3.414718
v 4.181469 1.306929 -4.155918
v 3.682592 1.200875 -4.902435
v -1.025104 0.239530 3.377897
v -1.867130 0.363690 3.872853
v -1.079676 0.374686 4.469402
v -0.067720 0.342040 4.260481
v -0.198686 0.312471 3.574961
v -0.204007 1.158603 4.138011
v -0.264407 1.245537 3.557017
v -1.106534 1.253854 3.353767
v -1.688850 1.147440 3.926450
v -1.037322 1.205789 4.567307
v 4.145020 0.371058 4.357470
v 4.232155 0.307727 3.997471
v 3.712289 0.367248 3.889763
v 3.413086 0.327758 4.216007
v 3.741857 0.338113 4.503422
v 4.183392 0.769349 3.879622
v 3.592576 0.798558 3.929110
v 3.424617 0.797640 4.313169
v 3.857409 0.801703 4.599691
v 4.275957 0.849395 4.312315
v 2.539481 0.404811 3.447119
v 2.925468 0.349651 3.696056
v 3.456791 0.299601 3.660320
v 3.846732 0.392261 3.387483
v 3.438004 0.323183 3.088909
v 2.778712 0.370249 3.109544
v 3.482881 0.931398 3.094740
v 2.861891 0.915289 3.138023
v 2.511900 1.019393 3.423574
v 2.843711 0.991327 3.735300
v 3.487176 1.028335 3.728034
v 3.696879 0.928259 3.414901
v -5.601122 0.357317 0.780438
v -5.094873 0.344107 1.374804
v -4.155856 0.399116 1.148374
v -3.885824 0.175185 0.316219
v -5.080959 0.367017 0.170316
v -5.347494 1.335003 0.062017
v -5.698358 1.208401 0.898996
v -4.923100 1.332898 1.317264
v -4.048427 1.322548 1.063163
v -4.109938 1.397331 0.264082
v 1.371630 0.338380 -4.077501
v 1.403649 0.378440 -4.518638
v 0.793089 0.412668 -4.653967
v 0.245924 0.351517 -4.531383
v 0.224863 0.379855 -4.162128
v 0.445238 0.385283 -3.867191
v 0.930744 0.349101 -3.877013
v 1.199465 1.083483 -4.355723
v 0.932781 1.050030 -4.733493
v 0.342973 1.092915 -4.571280
v 0.091387 1.062859 -4.223359
v 0.296689 1.090655 -3.849120
v 0.881675 1.009714 -3.743156
v 1.327128 0.974745 -4.008895
v -0.634689 0.373509 -3.219876
v -0.368179 0.344227 -3.047423
v 0.171136 0.353792 -3.086252
v 0.304667 0.362585 -3.356783
v -0.152258 0.363995 -3.494330
v -0.638589 0.336853 -3.441578
v -0.603841 0.899284 -3.336259
v -0.567616 0.873605 -3.154811
v -0.181094 0.932212 -3.053028
v 0.104137 0.852904 -3.210159
v 0.058046 0.936862 -3.397409
v -0.319546 0.895591 -3.450284
v 1.696082 0.266188 1.988152
v 2.636526 0.111244 1.764777
v 2.608118 0.170931 1.244159
v 1.391778 0.211656 1.155198
v 0.774706 0.195861 1.648475
v 1.506430 1.331923 1.260578
v 0.929877 1.271967 1.638328
v 1.653417 1.168567 2.100840
v 2.615609 1.230141 1.759753
v 2.579861 1.202621 1.256567
v 0.980885 0.374842 0.733936
v 0.481521 0.232046 0.886453
v 0.125500 0.323810 1.215662
v 0.492708 0.360728 1.533324
v 0.963395 0.284375 1.660309
v 1.540237 0.282552 1.476291
v 1.409297 0.337542 1.010913
v 1.355932 0.976234 1.130599
v 1.149435 1.019454 0.730233
v 0.544413 0.989914 0.763700
v 0.158501 0.976967 1.099053
v 0.170195 1.027199 1.607500
v 0.827245 1.125631 1.645874
v 1.387678 1.060416 1.555105
v 2.366908 0.284585 -3.396630
v 1.862167 0.380496 -3.776881
v 1.224101 0.390994 -3.560323
v 1.319623 0.376993 -3.190361
v 1.864608 0.375932 -3.090326
v 1.263610 0.953257 -3.606567
v 1.318866 0.866047 -3.240593
v 1.783854 0.884325 -3.105973
v 2.171365 0.943340 -3.345560
v 1.866543 0.957151 -3.627894
v -5.163123 0.309553 4.611796
v -3.493273 0.188295 4.890556
v -2.535495 0.261110 4.056844
v -3.818941 0.285314 3.524972
v -5.278340 0.116184 3.730704
v -4.883848 1.624483 3.722762
v -5.257905 1.628215 4.466466
v -3.789932 1.641678 4.950627
v -2.806838 1.624403 4.207160
v -3.617193 1.610334 3.585143
v -3.692577 0.379806 3.798197
v -4.218713 0.322319 3.952822
v -3.983831 0.426904 4.249216
v -3.346564 0.314741 4.318888
v -3.148075 0.407437 3.957860
v -3.707632 0.952852 3.746406
v -4.274611 1.010314 3.952617
v -4.021305 0.998966 4.290453
v -3.412260 0.978618 4.255325
v -3.084052 1.001026 3.936580
v 2.110129 0.401328 1.081972
v 3.602261 0.616356 1.044595
v 3.534950 0.941391 0.227374
v 2.042818 0.726362 0.264751
v 2.080615 0.621799 1.172091
v 3.572747 0.836827 1.134714
v 3.505436 1.161862 0.317493
v 2.013304 0.946833 0.354870
v -1.067214 0.570697 3.648689
v 0.310563 0.856509 4.639543
v 0.793685 1.169261 3.877551
v -0.584091 0.883448 2.886696
v -1.144276 0.793929 3.691452
v 0.233500 1.079742 4.682306
v 0.716623 1.392493 3.920314
v -0.661154 1.106680 2.929460
vn -0.0000 -1.0000 -0.0000
vn -0.0000 1.0000 -0.0000
vn -0.0000 -0.0000 1.0000
vn 1.0000 -0.0000 -0.0000
vn -0.0000 -0.0000 -1.0000
vn -1.0000 -0.0000 -0.0000
vn -0.9986 -0.0520 -0.0000
vn -0.9886 0.1504 -0.0000
vn -0.7071 -0.7071 -0.0000
vn -0.2425 -0.9701 -0.0000
vn 0.9964 -0.0853 -0.0000
vn 0.9997 0.0229 -0.0000
vn -0.9997 0.0225 -0.0000
vn -0.9602 -0.2793 -0.0000
vn 0.3632 -0.9317 -0.0000
vn 0.9928 -0.1195 -0.0000
vn 0.9936 0.1129 -0.0000
vn -0.6000 0.8000 -0.0000
vn 0.1114 0.9938 -0.0000
vn -0.3162 0.9487 -0.0000
vn -0.6996 0.7145 -0.0000
vn 0.0839 -0.9965 -0.0000
vn 0.5445 0.8387 -0.0000
vn -0.9927 -0.1203 -0.0000
vn 0.0979 -0.9952 -0.0000
vn 0.9833 -0.1821 -0.0000
vn -0.7311 0.6823 -0.0000
vn 0.5134 0.8582 -0.0000
vn 0.1217 0.9926 -0.0000
vn -0.7941 0.6078 -0.0000
vn 0.0868 -0.9962 -0.0000
vn 0.4607 0.8875 -0.0000
vn 0.1065 -0.9943 -0.0000
vn -0.0400 -0.9992 0.0012
vn 0.0400 0.9992 -0.0012
vn 0.0300 -0.0000 0.9996
vn 0.9988 -0.0400 -0.0300
vn -0.0300 -0.0000 -0.9996
vn -0.9988 0.0400 0.0300
vn 0.9930 -0.1182 -0.0000
vn -0.9982 0.0608 -0.0000
vn 0.2582 -0.9661 -0.0000
vn 0.9992 -0.0409 -0.0000
vn 0.9987 0.0506 -0.0000
vn -0.9989 0.0471 -0.0000
vn -0.9905 -0.1378 -0.0000
vn -0.3901 -0.9208 -0.0000
vn 0.9987 -0.0503 -0.0000
vn -0.9872 0.1592 -0.0000
vn 0.1734 -0.9849 -0.0000
vn 0.2877 0.9577 -0.0000
vn 0.2668 0.9638 -0.0000
vn -0.3902 -0.9208 -0.0000
vn 0.1791 -0.9838 -0.0000
vn 0.2335 0.9723 -0.0000
vn 0.1946 -0.9752 -0.1057
vn -0.1946 0.9752 0.1057
vn 0.0497 -0.0978 0.9940
vn 0.9796 0.1987 -0.0294
vn -0.0497 0.0978 -0.9940
vn -0.9796 -0.1987 0.0294
vn 0.1156 -0.9933 -0.0058
vn -0.1156 0.9933 0.0058
vn 0.0499 -0.0000 0.9988
vn 0.9920 0.1158 -0.0496
vn -0.0499 -0.0000 -0.9988
vn -0.9920 -0.1158 0.0496
vn -0.1072 -0.9942 0.0001
vn 0.1072 0.9942 -0.0001
vn 0.0013 -0.0000 1.0000
vn 0.9942 -0.1072 -0.0013
vn -0.0013 -0.0000 -1.0000
vn -0.9942 0.1072 0.0013
vn -0.0222 -0.9998 -0.0010
vn 0.0222 0.9998 0.0010
vn -0.0430 -0.0000 0.9991
vn 0.9988 -0.0222 0.0430
vn 0.0430 -0.0000 -0.9991
vn -0.9988 0.0222 -0.0430
vn 0.0552 -0.9985 -0.0025
vn -0.0552 0.9985 0.0025
vn 0.0458 -0.0000 0.9990
vn 0.9974 0.0553 -0.0457
vn -0.0458 -0.0000 -0.9990
vn -0.9974 -0.0553 0.0457
vn -0.0999 -0.9950 -0.0034
vn 0.0999 0.9950 0.0034
vn -0.0342 -0.0000 0.9994
vn 0.9944 -0.1000 0.0340
vn 0.0342 -0.0000 -0.9994
vn -0.9944 0.1000 -0.0340
vn 0.2711 -0.8755 -0.4000
vn -0.2711 0.8755 0.4000
vn 0.2158 -0.3497 0.9117
vn 0.9380 0.3335 -0.0941
vn -0.2158 0.3497 -0.9117
vn -0.9380 -0.3335 0.0941
vn -0.0034 0.9982 -0.0606
vn 0.5521 -0.8187 0.1581
vn 0.3906 -0.7500 -0.5338
vn -0.0865 -0.7320 -0.6758
vn -0.4926 -0.7844 -0.3770
vn -0.4788 -0.7542 0.4494
vn -0.2651 -0.6862 0.6774
vn 0.4108 -0.7085 0.5739
vn 0.0998 0.9950 -0.0018
vn -0.9304 -0.2605 -0.2578
vn -0.0862 0.1035 0.9909
vn 0.3534 -0.1239 0.9272
vn 0.6742 0.0403 -0.7374
vn -0.1635 -0.1450 -0.9758
vn -0.0666 0.9825 0.1737
vn -0.0816 -0.7937 0.6028
vn 0.3252 -0.8385 0.4373
vn 0.5174 -0.8336 -0.1931
vn 0.2419 -0.7830 -0.5731
vn -0.2292 -0.7540 -0.6156
vn -0.4381 -0.8766 0.1988
vn -0.1109 0.9768 -0.1833
vn 0.5115 -0.8343 -0.2056
vn 0.1122 -0.6472 -0.7540
vn -0.3651 -0.7440 -0.5596
vn -0.2132 -0.6377 0.7402
vn 0.0678 -0.6415 0.7642
vn 0.0021 0.9947 0.1024
vn 0.0030 0.0519 0.9986
vn 0.9967 0.0411 0.0705
vn 0.3130 -0.0862 -0.9458
vn -0.5323 -0.1226 -0.8376
vn -0.8019 -0.3410 0.4906
vn -0.0383 0.9982 0.0466
vn -0.9975 0.0151 -0.0686
vn -0.2604 -0.2176 0.9407
vn 0.7807 -0.2258 0.5827
vn 0.8084 0.1682 -0.5641
vn -0.3522 0.0221 -0.9357
vn -0.1348 0.9898 0.0469
vn 0.8004 -0.5751 -0.1693
vn 0.1809 -0.6062 -0.7745
vn -0.4160 -0.7191 -0.5566
vn -0.4619 -0.7082 0.5340
vn 0.3700 -0.5131 0.7745
vn -0.0917 0.9953 0.0316
vn -0.0914 -0.7613 -0.6419
vn 0.2169 0.1482 -0.9649
vn -0.3503 -0.7653 0.5400
vn -0.6583 0.0078 0.7527
vn 0.3407 -0.0045 0.9402
vn -0.0584 0.9901 -0.1278
vn -0.0476 -0.4952 -0.8675
vn -0.6081 -0.5911 -0.5299
vn -0.5837 -0.5790 0.5692
vn 0.0363 -0.4557 0.8894
vn 0.5917 -0.5637 0.5764
vn 0.5695 -0.7248 -0.3877
vn 0.0380 0.9952 0.0902
vn -0.9183 -0.0502 -0.3926
vn -0.4872 0.1348 0.8628
vn 0.2791 0.0560 0.9586
vn 0.9823 0.1776 -0.0590
vn 0.1640 -0.0650 -0.9843
vn 0.1350 0.9908 0.0117
vn 0.9619 0.2570 0.0932
vn 0.2046 -0.1652 -0.9648
vn -0.2160 -0.0243 -0.9761
vn -0.9799 -0.1952 -0.0409
vn -0.7863 -0.1807 0.5908
vn 0.0051 -0.1982 0.9801
vn 0.4116 -0.0692 0.9088
vn -0.1007 0.9933 -0.0565
vn -0.9725 0.1033 0.2088
vn -0.2668 0.0940 0.9591
vn 0.5212 0.2709 0.8093
vn 0.2683 0.3751 -0.8873
vn 0.1247 0.1208 -0.9848
vn -0.3631 0.1931 -0.9115
vn 0.0046 0.9818 0.1901
vn -0.4113 -0.5627 -0.7171
vn -0.4779 -0.6367 0.6052
vn 0.3274 -0.4154 0.8487
vn 0.6407 -0.7678 -0.0035
vn -0.0397 -0.2999 -0.9532
vn -0.1421 0.9854 -0.0941
vn 0.8555 -0.2264 -0.4657
vn -0.0470 -0.1559 -0.9867
vn -0.6506 -0.1015 -0.7526
vn -0.8955 -0.4405 0.0641
vn -0.0594 0.0075 0.9982
vn 0.1515 -0.0702 0.9860
vn 0.9905 0.1004 -0.0940
vn -0.0724 0.9893 0.1266
vn -0.4957 -0.8587 -0.1298
vn -0.1378 -0.7997 0.5844
vn 0.3845 -0.8224 0.4193
vn 0.4191 -0.7645 -0.4898
vn -0.0216 -0.6788 -0.7340
vn 0.0002 0.9997 -0.0229
vn -0.8879 -0.1130 -0.4460
vn -0.3107 -0.1025 0.9450
vn 0.6032 0.0322 0.7969
vn 0.6085 -0.0567 -0.7915
vn -0.1077 0.0229 -0.9939
vn 0.0294 0.9973 -0.0676
vn -0.2713 -0.0937 -0.9579
vn -0.7714 -0.0625 0.6333
vn 0.0552 -0.0682 0.9961
vn 0.8538 0.1327 0.5035
vn 0.2957 -0.0661 -0.9530
vn 0.1230 -0.9186 -0.3755
vn -0.1230 0.9186 0.3755
vn 0.0763 -0.3685 0.9265
vn 0.9895 0.1426 -0.0248
vn -0.0763 0.3685 -0.9265
vn -0.9895 -0.1426 0.0248
vn 0.3211 -0.9301 -0.1782
vn -0.3211 0.9301 0.1782
vn -0.5059 -0.3275 0.7980
vn 0.8006 0.1661 0.5758
vn 0.5059 0.3275 -0.7980
vn -0.8006 -0.1661 -0.5758
vn 0.9964 -0.0852 -0.0000
vn 0.0300 -0.0000 0.9995
vn -0.2360 0.9486 -0.2107
vn -0.0158 0.9980 -0.0614
vn 0.1295 0.9365 0.3258
vn -0.1290 0.9786 -0.1602
vn -0.5513 0.8185 -0.1616
vn -0.5693 0.7781 0.2655
vn 0.0474 0.7322 0.6794
vn 0.2760 0.6977 0.6611
vn 0.4914 0.7663 -0.4138
vn 0.4079 0.6837 -0.6051
vn -0.0874 0.6331 -0.7692
vn -0.0101 0.9996 -0.0280
vn -0.0536 0.9984 0.0198
vn -0.3585 -0.2122 0.9091
vn 0.6216 0.1123 0.7752
vn 0.8172 -0.2372 -0.5253
vn -0.3297 0.0282 -0.9437
vn -0.9543 -0.2229 -0.1991
vn -0.1599 0.9871 0.0116
vn -0.1182 0.9925 0.0321
vn 0.1538 0.9873 -0.0395
vn -0.1417 0.8004 -0.5825
vn -0.5293 0.8400 0.1195
vn -0.3385 0.7886 0.5133
vn 0.3926 0.7745 0.4960
vn 0.4512 0.8776 0.1622
vn 0.2733 0.8293 -0.4874
vn 0.0597 0.9897 0.1299
vn -0.1709 0.9704 -0.1707
vn -0.3451 0.7271 0.5935
vn 0.2108 0.6612 0.7200
vn 0.4948 0.8622 -0.1086
vn 0.1302 0.6035 -0.7866
vn -0.4506 0.8311 -0.3260
vn 0.0186 0.9966 0.0802
vn -0.0903 0.9900 0.1079
vn 0.6474 0.3354 0.6844
vn 0.6880 0.1844 -0.7019
vn -0.2379 0.0817 -0.9678
vn -0.9839 0.0948 -0.1517
vn 0.0232 0.0385 0.9990
vn 0.0131 0.9887 -0.1492
vn 0.0124 0.9999 0.0071
vn -0.9053 -0.1826 -0.3836
vn -0.2401 -0.1931 0.9513
vn 0.4672 0.1407 0.8729
vn 0.7720 0.0819 -0.6303
vn -0.3637 0.0337 -0.9309
vn 0.0746 0.9966 0.0352
vn -0.0266 0.9882 0.1506
vn -0.4034 0.4471 -0.7984
vn -0.4365 0.7015 0.5633
vn 0.1731 0.6539 0.7365
vn 0.6299 0.7615 -0.1532
vn 0.1478 0.5486 -0.8229
vn 0.0327 0.9815 -0.1886
vn -0.0085 1.0000 -0.0013
vn 0.6083 0.7937 0.0076
vn -0.8951 -0.2127 -0.3919
vn -0.5079 0.7771 -0.3717
vn 0.5629 -0.3002 0.7701
vn 0.9495 -0.2743 -0.1524
vn 0.2364 0.9602 -0.1486
vn -0.0361 0.9879 -0.1510
vn 0.1933 0.9740 -0.1181
vn -0.3513 0.6372 0.6859
vn 0.1007 0.4277 0.8983
vn 0.4832 0.3409 0.8064
vn 0.4040 0.5987 -0.6916
vn 0.0061 0.4723 -0.8814
vn -0.5575 0.6874 -0.4655
vn -0.0535 0.9984 0.0198
vn -0.1933 0.9788 0.0670
vn -0.7515 -0.1745 0.6362
vn 0.2335 0.0160 0.9722
vn 0.9417 -0.0794 0.3269
vn 0.1179 -0.0207 -0.9928
vn -0.7303 -0.2712 -0.6269
vn 0.2074 0.9527 0.2223
vn 0.0402 0.9924 -0.1162
vn -0.0170 0.9937 0.1109
vn -0.1253 0.9921 -0.0049
vn 0.7513 0.3473 -0.5612
vn -0.2688 -0.0610 -0.9613
vn -0.8111 0.0750 -0.5801
vn -0.8658 -0.1258 0.4843
vn -0.1865 -0.0644 0.9803
vn 0.4996 -0.1362 0.8555
vn 0.9435 0.1000 -0.3159
vn 0.0639 0.9898 0.1273
vn -0.1387 0.9894 -0.0429
vn 0.4016 0.8685 0.2906
vn -0.5457 -0.0357 0.8372
vn 0.0720 -0.0134 0.9973
vn 0.8707 0.2254 0.4371
vn 0.8990 -0.2720 -0.3432
vn -0.1103 0.0475 -0.9928
vn -0.9982 0.0602 0.0076
vn 0.1191 0.9909 -0.0627
vn 0.0206 0.9821 0.1873
vn 0.2772 0.4971 0.8222
vn 0.7377 0.6741 0.0370
vn 0.0802 0.4358 -0.8965
vn -0.4874 0.6446 -0.5890
vn -0.3342 0.4901 0.8050
vn 0.0813 0.9765 -0.1997
vn -0.0413 0.9909 0.1283
vn 0.0989 0.9783 -0.1822
vn -0.1289 0.9855 -0.1103
vn -0.3110 0.0759 -0.9474
vn -0.6860 -0.0605 -0.7250
vn -0.6547 0.1648 0.7377
vn -0.2892 -0.2430 0.9259
vn 0.3035 0.0654 0.9506
vn 0.9473 0.2103 -0.2417
vn 0.5443 0.1982 -0.8152
vn 0.0019 0.9728 0.2315
vn -0.0754 0.9892 0.1261
vn 0.4168 0.8427 -0.3407
vn -0.1921 0.7738 -0.6035
vn -0.5246 0.8348 0.1670
vn -0.1322 0.6733 0.7275
vn 0.4076 0.8068 0.4278
vn 0.0088 0.9997 -0.0218
vn -0.0064 0.9999 -0.0083
vn -0.1570 0.0970 0.9828
vn 0.6488 0.1013 0.7542
vn 0.3797 0.1757 -0.9083
vn -0.1469 0.0672 -0.9869
vn -0.9649 0.2528 0.0707
vn -0.0749 0.9972 -0.0070
vn 0.0888 0.9955 -0.0332
vn -0.3442 -0.0282 -0.9385
vn -0.7980 -0.0952 0.5951
vn -0.0934 0.0857 0.9919
vn 0.6976 -0.0496 0.7148
vn 0.2842 -0.0789 -0.9555
vt 0.224750 0.025250
vt 0.025250 0.224750
vt 0.025250 0.025250
vt 0.285128 0.081720
vt 0.352804 0.027751
vt 0.437193 0.047012
vt 0.474750 0.025250
vt 0.275250 0.224750
vt 0.275250 0.025250
vt 0.275250 0.125000
vt 0.325125 0.038614
vt 0.474750 0.125000
vt 0.424875 0.038614
vt 0.325125 0.211386
vt 0.424875 0.211386
vt 0.525250 0.025250
vt 0.724750 0.224750
vt 0.525250 0.224750
vt 0.724750 0.025250
vt 0.224750 0.224750
vt 0.437193 0.202988
vt 0.352804 0.222249
vt 0.352804 0.277751
vt 0.437193 0.297012
vt 0.352804 0.472249
vt 0.275250 0.275250
vt 0.474750 0.474750
vt 0.275250 0.474750
vt 0.544301 0.183632
vt 0.544301 0.066368
vt 0.655824 0.030132
vt 0.575125 0.461386
vt 0.525250 0.375000
vt 0.575125 0.288614
vt 0.525250 0.275250
vt 0.724750 0.474750
vt 0.525250 0.474750
vt 0.544301 0.433632
vt 0.544301 0.316368
vt 0.655824 0.280132
vt 0.044301 0.066368
vt 0.224750 0.125000
vt 0.044301 0.183632
vt 0.294301 0.433632
vt 0.294301 0.316368
vt 0.405824 0.280132
vt 0.655824 0.469868
vt 0.724750 0.275250
vt 0.674875 0.461386
vt 0.602804 0.027751
vt 0.602804 0.222249
vt 0.535128 0.081720
vt 0.424875 0.288614
vt 0.325125 0.461386
vt 0.325125 0.288614
vt 0.474750 0.275250
vt 0.035128 0.168280
vt 0.035128 0.081720
vt 0.102804 0.027751
vt 0.724750 0.125000
vt 0.285128 0.168280
vt 0.474750 0.224750
vt 0.474750 0.375000
vt 0.437193 0.452988
vt 0.285128 0.418280
vt 0.285128 0.331720
vt 0.655824 0.219868
vt 0.674875 0.288614
vt 0.724750 0.375000
vt 0.155824 0.030132
vt 0.155824 0.219868
vt 0.405824 0.469868
vt 0.687193 0.047012
vt 0.687193 0.202988
vt 0.535128 0.168280
vt 0.424875 0.461386
vt 0.275250 0.375000
vt 0.187193 0.047012
vt 0.187193 0.202988
vt 0.102804 0.222249
s 0
f 4/1/1 2/2/1 1/3/1
f 6/1/2 8/2/2 5/3/2
f 2/1/3 5/2/3 1/3/3
f 3/1/4 6/2/4 2/3/4
f 4/1/5 7/2/5 3/3/5
f 1/1/6 8/2/6 4/3/6
f 12/1/1 10/2/1 9/3/1
f 14/1/2 16/2/2 13/3/2
f 10/1/3 13/2/3 9/3/3
f 11/1/4 14/2/4 10/3/4
f 12/1/5 15/2/5 11/3/5
f 9/1/6 16/2/6 12/3/6
f 20/1/1 18/2/1 17/3/1
f 22/1/2 24/2/2 21/3/2
f 18/1/3 21/2/3 17/3/3
f 19/1/4 22/2/4 18/3/4
f 20/1/5 23/2/5 19/3/5
f 17/1/6 24/2/6 20/3/6
f 28/1/1 26/2/1 25/3/1
f 30/1/2 32/2/2 29/3/2
f 26/1/3 29/2/3 25/3/3
f 27/1/4 30/2/4 26/3/4
f 28/1/5 31/2/5 27/3/5
f 25/1/6 32/2/6 28/3/6
f 36/1/1 34/2/1 33/3/1
f 38/1/2 40/2/2 37/3/2
f 34/1/3 37/2/3 33/3/3
f 35/1/4 38/2/4 34/3/4
f 36/1/5 39/2/5 35/3/5
f 33/1/6 40/2/6 36/3/6
f 43/4/5 42/5/5 41/6/5
f 52/4/3 53/5/3 54/6/3
f 42/7/2 48/8/2 41/9/2
f 43/7/7 49/8/7 42/9/7
f 44/7/8 50/8/8 43/9/8
f 45/7/9 51/8/9 44/9/9
f 46/7/10 52/8/10 45/9/10
f 47/7/11 53/8/11 46/9/11
f 41/7/12 54/8/12 47/9/12
f 57/10/5 56/11/5 60/12/5
f 66/13/3 63/14/3 65/11/3
f 56/7/2 61/8/2 55/9/2
f 57/7/13 62/8/13 56/9/13
f 58/7/14 63/8/14 57/9/14
f 59/7/15 64/8/15 58/9/15
f 60/7/16 65/8/16 59/9/16
f 55/7/17 66/8/17 60/9/17
f 68/11/5 67/13/5 72/12/5
f 77/11/3 78/13/3 74/15/3
f 68/7/18 73/8/18 67/9/18
f 69/7/19 74/8/19 68/9/19
f 70/7/20 75/8/20 69/9/20
f 71/7/21 76/8/21 70/9/21
f 72/7/22 77/8/22 71/9/22
f 67/7/23 78/8/23 72/9/23
f 82/16/5 80/17/5 79/18/5
f 84/19/3 86/18/3 83/16/3
f 80/19/2 83/18/2 79/16/2
f 81/19/24 84/18/24 80/16/24
f 82/19/25 85/18/25 81/16/25
f 79/19/26 86/18/26 82/16/26
f 89/4/5 88/5/5 87/6/5
f 98/4/3 99/5/3 100/6/3
f 88/7/2 94/8/2 87/9/2
f 89/7/7 95/8/7 88/9/7
f 90/7/8 96/8/8 89/9/8
f 91/7/9 97/8/9 90/9/9
f 92/7/10 98/8/10 91/9/10
f 93/7/11 99/8/11 92/9/11
f 87/7/12 100/8/12 93/9/12
f 103/10/5 102/11/5 106/12/5
f 112/13/3 109/14/3 111/11/3
f 102/7/2 107/8/2 101/9/2
f 103/7/13 108/8/13 102/9/13
f 104/7/14 109/8/14 103/9/14
f 105/7/15 110/8/15 104/9/15
f 106/7/16 111/8/16 105/9/16
f 101/7/17 112/8/17 106/9/17
f 114/11/5 113/13/5 118/12/5
f 123/11/3 124/13/3 120/15/3
f 114/7/18 119/8/18 113/9/18
f 115/7/19 120/8/19 114/9/19
f 116/7/20 121/8/20 115/9/20
f 117/7/27 122/8/27 116/9/27
f 118/7/22 123/8/22 117/9/22
f 113/7/28 124/8/28 118/9/28
f 128/16/5 126/17/5 125/18/5
f 130/19/3 132/18/3 129/16/3
f 126/19/2 129/18/2 125/16/2
f 127/19/24 130/18/24 126/16/24
f 128/19/25 131/18/25 127/16/25
f 125/19/26 132/18/26 128/16/26
f 135/4/5 134/5/5 133/6/5
f 144/4/3 145/5/3 146/6/3
f 134/7/2 140/8/2 133/9/2
f 135/7/7 141/8/7 134/9/7
f 136/7/8 142/8/8 135/9/8
f 137/7/9 143/8/9 136/9/9
f 138/7/10 144/8/10 137/9/10
f 139/7/11 145/8/11 138/9/11
f 133/7/12 146/8/12 139/9/12
f 149/10/5 148/11/5 152/12/5
f 158/13/3 155/14/3 157/11/3
f 148/7/2 153/8/2 147/9/2
f 149/7/13 154/8/13 148/9/13
f 150/7/14 155/8/14 149/9/14
f 151/7/15 156/8/15 150/9/15
f 152/7/16 157/8/16 151/9/16
f 147/7/17 158/8/17 152/9/17
f 160/11/5 159/13/5 164/12/5
f 169/11/3 170/13/3 166/15/3
f 160/7/18 165/8/18 159/9/18
f 161/7/29 166/8/29 160/9/29
f 162/7/20 167/8/20 161/9/20
f 163/7/30 168/8/30 162/9/30
f 164/7/31 169/8/31 163/9/31
f 159/7/32 170/8/32 164/9/32
f 174/16/5 172/17/5 171/18/5
f 176/19/3 178/18/3 175/16/3
f 172/19/2 175/18/2 171/16/2
f 173/19/24 176/18/24 172/16/24
f 174/19/33 177/18/33 173/16/33
f 171/19/26 178/18/26 174/16/26
f 182/1/34 180/2/34 179/3/34
f 184/1/35 186/2/35 183/3/35
f 180/1/36 183/2/36 179/3/36
f 180/3/37 185/20/37 184/2/37
f 182/1/38 185/2/38 181/3/38
f 182/3/39 183/20/39 186/2/39
f 190/1/1 188/2/1 187/3/1
f 192/1/2 194/2/2 191/3/2
f 188/1/3 191/2/3 187/3/3
f 189/1/4 192/2/4 188/3/4
f 190/1/5 193/2/5 189/3/5
f 187/1/6 194/2/6 190/3/6
f 198/1/1 196/2/1 195/3/1
f 200/1/2 202/2/2 199/3/2
f 196/1/3 199/2/3 195/3/3
f 197/1/4 200/2/4 196/3/4
f 198/1/5 201/2/5 197/3/5
f 195/1/6 202/2/6 198/3/6
f 206/1/1 204/2/1 203/3/1
f 208/1/2 210/2/2 207/3/2
f 204/1/3 207/2/3 203/3/3
f 205/1/4 208/2/4 204/3/4
f 206/1/5 209/2/5 205/3/5
f 203/1/6 210/2/6 206/3/6
f 214/1/1 212/2/1 211/3/1
f 216/1/2 218/2/2 215/3/2
f 212/1/3 215/2/3 211/3/3
f 213/1/4 216/2/4 212/3/4
f 214/1/5 217/2/5 213/3/5
f 211/1/6 218/2/6 214/3/6
f 222/1/1 220/2/1 219/3/1
f 224/1/2 226/2/2 223/3/2
f 220/1/3 223/2/3 219/3/3
f 221/1/4 224/2/4 220/3/4
f 222/1/5 225/2/5 221/3/5
f 219/1/6 226/2/6 222/3/6
f 232/21/3 229/4/3 228/5/3
f 235/21/5 236/22/5 239/5/5
f 228/7/2 234/8/2 227/9/2
f 229/7/40 235/8/40 228/9/40
f 230/7/41 236/8/41 229/9/41
f 231/7/9 237/8/9 230/9/9
f 232/7/42 238/8/42 231/9/42
f 233/7/43 239/8/43 232/9/43
f 227/7/44 240/8/44 233/9/44
f 245/15/5 243/10/5 241/13/5
f 247/12/3 249/14/3 251/11/3
f 242/7/2 247/8/2 241/9/2
f 243/7/45 248/8/45 242/9/45
f 244/7/46 249/8/46 243/9/46
f 245/7/47 250/8/47 244/9/47
f 246/7/48 251/8/48 245/9/48
f 241/7/49 252/8/49 246/9/49
f 254/11/5 253/13/5 258/12/5
f 263/11/3 264/13/3 260/15/3
f 254/7/18 259/8/18 253/9/18
f 255/7/19 260/8/19 254/9/19
f 256/7/20 261/8/20 255/9/20
f 257/7/21 262/8/21 256/9/21
f 258/7/50 263/8/50 257/9/50
f 253/7/51 264/8/51 258/9/51
f 268/16/5 266/17/5 265/18/5
f 270/19/3 272/18/3 269/16/3
f 266/19/2 269/18/2 265/16/2
f 267/19/24 270/18/24 266/16/24
f 268/19/25 271/18/25 267/16/25
f 265/19/26 272/18/26 268/16/26
f 278/21/3 275/4/3 274/5/3
f 281/21/5 282/22/5 285/5/5
f 274/7/2 280/8/2 273/9/2
f 275/7/40 281/8/40 274/9/40
f 276/7/41 282/8/41 275/9/41
f 277/7/9 283/8/9 276/9/9
f 278/7/42 284/8/42 277/9/42
f 279/7/43 285/8/43 278/9/43
f 273/7/44 286/8/44 279/9/44
f 291/15/5 289/10/5 287/13/5
f 293/12/3 295/14/3 297/11/3
f 288/7/2 293/8/2 287/9/2
f 289/7/45 294/8/45 288/9/45
f 290/7/46 295/8/46 289/9/46
f 291/7/47 296/8/47 290/9/47
f 292/7/48 297/8/48 291/9/48
f 287/7/49 298/8/49 292/9/49
f 300/11/5 299/13/5 304/12/5
f 309/11/3 310/13/3 306/15/3
f 300/7/18 305/8/18 299/9/18
f 301/7/19 306/8/19 300/9/19
f 302/7/20 307/8/20 301/9/20
f 303/7/27 308/8/27 302/9/27
f 304/7/50 309/8/50 303/9/50
f 299/7/52 310/8/52 304/9/52
f 314/16/5 312/17/5 311/18/5
f 316/19/3 318/18/3 315/16/3
f 312/19/2 315/18/2 311/16/2
f 313/19/24 316/18/24 312/16/24
f 314/19/25 317/18/25 313/16/25
f 311/19/26 318/18/26 314/16/26
f 324/21/3 321/4/3 320/5/3
f 327/21/5 328/22/5 331/5/5
f 320/7/2 326/8/2 319/9/2
f 321/7/40 327/8/40 320/9/40
f 322/7/41 328/8/41 321/9/41
f 323/7/9 329/8/9 322/9/9
f 324/7/42 330/8/42 323/9/42
f 325/7/43 331/8/43 324/9/43
f 319/7/44 332/8/44 325/9/44
f 337/15/5 335/10/5 333/13/5
f 339/12/3 341/14/3 343/11/3
f 334/7/2 339/8/2 333/9/2
f 335/7/45 340/8/45 334/9/45
f 336/7/46 341/8/46 335/9/46
f 337/7/53 342/8/53 336/9/53
f 338/7/48 343/8/48 337/9/48
f 333/7/49 344/8/49 338/9/49
f 346/11/5 345/13/5 350/12/5
f 355/11/3 356/13/3 352/15/3
f 346/7/18 351/8/18 345/9/18
f 347/7/29 352/8/29 346/9/29
f 348/7/20 353/8/20 347/9/20
f 349/7/30 354/8/30 348/9/30
f 350/7/54 355/8/54 349/9/54
f 345/7/55 356/8/55 350/9/55
f 360/16/5 358/17/5 357/18/5
f 362/19/3 364/18/3 361/16/3
f 358/19/2 361/18/2 357/16/2
f 359/19/24 362/18/24 358/16/24
f 360/19/33 363/18/33 359/16/33
f 357/19/26 364/18/26 360/16/26
f 365/3/56 367/20/56 366/2/56
f 369/3/57 371/20/57 372/2/57
f 366/1/58 369/2/58 365/3/58
f 366/3/59 371/20/59 370/2/59
f 368/1/60 371/2/60 367/3/60
f 365/1/61 372/2/61 368/3/61
f 376/19/62 374/18/62 373/16/62
f 378/19/63 380/18/63 377/16/63
f 374/19/64 377/18/64 373/16/64
f 375/19/65 378/18/65 374/16/65
f 376/19/66 379/18/66 375/16/66
f 373/19/67 380/18/67 376/16/67
f 384/19/68 382/18/68 381/16/68
f 386/19/69 388/18/69 385/16/69
f 382/19/70 385/18/70 381/16/70
f 383/19/71 386/18/71 382/16/71
f 384/19/72 387/18/72 383/16/72
f 381/19/73 388/18/73 384/16/73
f 389/16/74 391/17/74 390/18/74
f 394/19/75 396/18/75 393/16/75
f 390/19/76 393/18/76 389/16/76
f 391/19/77 394/18/77 390/16/77
f 392/19/78 395/18/78 391/16/78
f 389/19/79 396/18/79 392/16/79
f 400/19/80 398/18/80 397/16/80
f 402/19/81 404/18/81 401/16/81
f 398/19/82 401/18/82 397/16/82
f 399/19/83 402/18/83 398/16/83
f 400/19/84 403/18/84 399/16/84
f 397/19/85 404/18/85 400/16/85
f 408/19/86 406/18/86 405/16/86
f 410/19/87 412/18/87 409/16/87
f 406/19/88 409/18/88 405/16/88
f 407/19/89 410/18/89 406/16/89
f 407/16/90 412/17/90 411/18/90
f 405/19/91 412/18/91 408/16/91
f 416/1/92 414/2/92 413/3/92
f 418/1/93 420/2/93 417/3/93
f 413/3/94 418/20/94 417/2/94
f 415/1/95 418/2/95 414/3/95
f 415/3/96 420/20/96 419/2/96
f 413/1/97 420/2/97 416/3/97
f 433/23/98 434/24/98 430/25/98
f 421/26/99 429/27/99 428/28/99
f 422/26/100 430/27/100 429/28/100
f 423/26/101 431/27/101 430/28/101
f 424/26/102 432/27/102 431/28/102
f 425/26/103 433/27/103 432/28/103
f 426/26/104 434/27/104 433/28/104
f 427/26/105 428/27/105 434/28/105
f 442/29/106 443/30/106 444/31/106
f 435/16/107 441/17/107 440/18/107
f 436/16/108 442/17/108 441/18/108
f 437/16/109 443/17/109 442/18/109
f 438/16/110 444/17/110 443/18/110
f 439/16/111 440/17/111 444/18/111
f 453/32/112 454/33/112 455/34/112
f 445/35/113 452/36/113 451/37/113
f 446/35/114 453/36/114 452/37/114
f 447/35/115 454/36/115 453/37/115
f 448/35/116 455/36/116 454/37/116
f 449/35/117 456/36/117 455/37/117
f 450/35/118 451/36/118 456/37/118
f 464/38/119 465/39/119 466/40/119
f 457/35/120 463/36/120 462/37/120
f 458/35/121 464/36/121 463/37/121
f 459/35/122 465/36/122 464/37/122
f 460/35/123 466/36/123 465/37/123
f 461/35/124 462/36/124 466/37/124
f 475/41/125 472/42/125 474/43/125
f 468/1/126 472/2/126 467/3/126
f 469/1/127 473/2/127 468/3/127
f 470/1/128 474/2/128 469/3/128
f 471/1/129 475/2/129 470/3/129
f 467/1/130 476/2/130 471/3/130
f 485/41/131 482/42/131 484/43/131
f 478/1/132 482/2/132 477/3/132
f 479/1/133 483/2/133 478/3/133
f 479/3/134 485/20/134 484/2/134
f 480/3/135 486/20/135 485/2/135
f 477/1/136 486/2/136 481/3/136
f 494/44/137 495/45/137 496/46/137
f 487/26/138 493/27/138 492/28/138
f 488/26/139 494/27/139 493/28/139
f 489/26/140 495/27/140 494/28/140
f 490/26/141 496/27/141 495/28/141
f 491/26/142 492/27/142 496/28/142
f 503/47/143 505/39/143 506/40/143
f 497/35/144 503/36/144 502/37/144
f 499/48/145 503/37/145 498/35/145
f 499/35/146 505/36/146 504/37/146
f 501/48/147 505/37/147 500/35/147
f 497/48/148 506/37/148 501/35/148
f 516/33/149 517/34/149 514/49/149
f 507/35/150 514/36/150 513/37/150
f 508/35/151 515/36/151 514/37/151
f 509/35/152 516/36/152 515/37/152
f 510/35/153 517/36/153 516/37/153
f 511/35/154 518/36/154 517/37/154
f 512/35/155 513/36/155 518/37/155
f 526/44/156 527/45/156 528/46/156
f 519/26/157 525/27/157 524/28/157
f 520/26/158 526/27/158 525/28/158
f 521/26/159 527/27/159 526/28/159
f 522/26/160 528/27/160 527/28/160
f 523/26/161 524/27/161 528/28/161
f 541/50/162 538/51/162 540/52/162
f 530/19/163 536/18/163 529/16/163
f 531/19/164 537/18/164 530/16/164
f 532/19/165 538/18/165 531/16/165
f 533/19/166 539/18/166 532/16/166
f 534/19/167 540/18/167 533/16/167
f 535/19/168 541/18/168 534/16/168
f 529/19/169 542/18/169 535/16/169
f 554/53/170 551/54/170 553/55/170
f 543/26/171 550/27/171 549/28/171
f 544/26/172 551/27/172 550/28/172
f 545/26/173 552/27/173 551/28/173
f 547/56/174 552/28/174 546/26/174
f 547/26/175 554/27/175 553/28/175
f 548/26/176 549/27/176 554/28/176
f 563/41/177 560/42/177 562/43/177
f 555/3/178 561/20/178 560/2/178
f 556/3/179 562/20/179 561/2/179
f 557/3/180 563/20/180 562/2/180
f 558/3/181 564/20/181 563/2/181
f 559/3/182 560/20/182 564/2/182
f 575/57/183 576/58/183 577/59/183
f 565/3/184 573/20/184 572/2/184
f 566/3/185 574/20/185 573/2/185
f 567/3/186 575/20/186 574/2/186
f 568/3/187 576/20/187 575/2/187
f 569/3/188 577/20/188 576/2/188
f 570/3/189 578/20/189 577/2/189
f 571/3/190 572/20/190 578/2/190
f 586/29/191 587/30/191 588/31/191
f 579/16/192 585/17/192 584/18/192
f 580/16/193 586/17/193 585/18/193
f 581/16/194 587/17/194 586/18/194
f 582/16/195 588/17/195 587/18/195
f 583/16/196 584/17/196 588/18/196
f 596/44/197 597/45/197 598/46/197
f 589/26/198 595/27/198 594/28/198
f 590/26/199 596/27/199 595/28/199
f 591/26/200 597/27/200 596/28/200
f 592/26/201 598/27/201 597/28/201
f 593/26/202 594/27/202 598/28/202
f 607/30/203 604/60/203 606/29/203
f 600/19/204 604/18/204 599/16/204
f 601/19/205 605/18/205 600/16/205
f 601/16/206 607/17/206 606/18/206
f 603/19/207 607/18/207 602/16/207
f 603/16/208 604/17/208 608/18/208
f 612/1/209 610/2/209 609/3/209
f 614/1/210 616/2/210 613/3/210
f 610/1/211 613/2/211 609/3/211
f 611/1/212 614/2/212 610/3/212
f 611/3/213 616/20/213 615/2/213
f 609/1/214 616/2/214 612/3/214
f 620/1/215 618/2/215 617/3/215
f 622/1/216 624/2/216 621/3/216
f 618/1/217 621/2/217 617/3/217
f 619/1/218 622/2/218 618/3/218
f 620/1/219 623/2/219 619/3/219
f 617/1/220 624/2/220 620/3/220
f 4/1/1 3/20/1 2/2/1
f 6/1/2 7/20/2 8/2/2
f 2/1/3 6/20/3 5/2/3
f 3/1/4 7/20/4 6/2/4
f 4/1/5 8/20/5 7/2/5
f 1/1/6 5/20/6 8/2/6
f 12/1/1 11/20/1 10/2/1
f 14/1/2 15/20/2 16/2/2
f 10/1/3 14/20/3 13/2/3
f 11/1/4 15/20/4 14/2/4
f 12/1/5 16/20/5 15/2/5
f 9/1/6 13/20/6 16/2/6
f 20/1/1 19/20/1 18/2/1
f 22/1/2 23/20/2 24/2/2
f 18/1/3 22/20/3 21/2/3
f 19/1/4 23/20/4 22/2/4
f 20/1/5 24/20/5 23/2/5
f 17/1/6 21/20/6 24/2/6
f 28/1/1 27/20/1 26/2/1
f 30/1/2 31/20/2 32/2/2
f 26/1/3 30/20/3 29/2/3
f 27/1/4 31/20/4 30/2/4
f 28/1/5 32/20/5 31/2/5
f 25/1/6 29/20/6 32/2/6
f 36/1/1 35/20/1 34/2/1
f 38/1/2 39/20/2 40/2/2
f 34/1/3 38/20/3 37/2/3
f 35/1/4 39/20/4 38/2/4
f 36/1/5 40/20/5 39/2/5
f 33/1/6 37/20/6 40/2/6
f 41/6/5 47/12/5 43/4/5
f 47/12/5 46/21/5 45/22/5
f 43/4/5 47/12/5 44/61/5
f 45/22/5 44/61/5 47/12/5
f 54/6/3 48/12/3 50/22/3
f 48/12/3 49/21/3 50/22/3
f 50/22/3 51/61/3 54/6/3
f 51/61/3 52/4/3 54/6/3
f 42/7/2 49/62/2 48/8/2
f 43/7/7 50/62/7 49/8/7
f 44/7/8 51/62/8 50/8/8
f 45/7/9 52/62/9 51/8/9
f 46/7/10 53/62/10 52/8/10
f 47/7/221 54/62/221 53/8/221
f 41/7/12 48/62/12 54/8/12
f 55/13/5 60/12/5 56/11/5
f 60/12/5 59/15/5 57/10/5
f 59/15/5 58/14/5 57/10/5
f 66/13/3 61/12/3 62/15/3
f 62/15/3 63/14/3 66/13/3
f 63/14/3 64/10/3 65/11/3
f 56/7/2 62/62/2 61/8/2
f 57/7/13 63/62/13 62/8/13
f 58/7/14 64/62/14 63/8/14
f 59/7/15 65/62/15 64/8/15
f 60/7/16 66/62/16 65/8/16
f 55/7/17 61/62/17 66/8/17
f 72/12/5 71/15/5 68/11/5
f 71/15/5 70/14/5 69/10/5
f 68/11/5 71/15/5 69/10/5
f 78/13/3 73/12/3 74/15/3
f 74/15/3 75/14/3 77/11/3
f 75/14/3 76/10/3 77/11/3
f 68/7/18 74/62/18 73/8/18
f 69/7/19 75/62/19 74/8/19
f 70/7/20 76/62/20 75/8/20
f 71/7/21 77/62/21 76/8/21
f 72/7/22 78/62/22 77/8/22
f 67/7/23 73/62/23 78/8/23
f 82/16/5 81/19/5 80/17/5
f 84/19/3 85/17/3 86/18/3
f 80/19/2 84/17/2 83/18/2
f 81/19/24 85/17/24 84/18/24
f 82/19/25 86/17/25 85/18/25
f 79/19/26 83/17/26 86/18/26
f 87/6/5 93/12/5 89/4/5
f 93/12/5 92/21/5 91/22/5
f 89/4/5 93/12/5 90/61/5
f 91/22/5 90/61/5 93/12/5
f 100/6/3 94/12/3 96/22/3
f 94/12/3 95/21/3 96/22/3
f 96/22/3 97/61/3 100/6/3
f 97/61/3 98/4/3 100/6/3
f 88/7/2 95/62/2 94/8/2
f 89/7/7 96/62/7 95/8/7
f 90/7/8 97/62/8 96/8/8
f 91/7/9 98/62/9 97/8/9
f 92/7/10 99/62/10 98/8/10
f 93/7/221 100/62/221 99/8/221
f 87/7/12 94/62/12 100/8/12
f 101/13/5 106/12/5 102/11/5
f 106/12/5 105/15/5 103/10/5
f 105/15/5 104/14/5 103/10/5
f 112/13/3 107/12/3 108/15/3
f 108/15/3 109/14/3 112/13/3
f 109/14/3 110/10/3 111/11/3
f 102/7/2 108/62/2 107/8/2
f 103/7/13 109/62/13 108/8/13
f 104/7/14 110/62/14 109/8/14
f 105/7/15 111/62/15 110/8/15
f 106/7/16 112/62/16 111/8/16
f 101/7/17 107/62/17 112/8/17
f 118/12/5 117/15/5 114/11/5
f 117/15/5 116/14/5 115/10/5
f 114/11/5 117/15/5 115/10/5
f 124/13/3 119/12/3 120/15/3
f 120/15/3 121/14/3 123/11/3
f 121/14/3 122/10/3 123/11/3
f 114/7/18 120/62/18 119/8/18
f 115/7/19 121/62/19 120/8/19
f 116/7/20 122/62/20 121/8/20
f 117/7/27 123/62/27 122/8/27
f 118/7/22 124/62/22 123/8/22
f 113/7/28 119/62/28 124/8/28
f 128/16/5 127/19/5 126/17/5
f 130/19/3 131/17/3 132/18/3
f 126/19/2 130/17/2 129/18/2
f 127/19/24 131/17/24 130/18/24
f 128/19/25 132/17/25 131/18/25
f 125/19/26 129/17/26 132/18/26
f 133/6/5 139/12/5 135/4/5
f 139/12/5 138/21/5 137/22/5
f 135/4/5 139/12/5 136/61/5
f 137/22/5 136/61/5 139/12/5
f 146/6/3 140/12/3 142/22/3
f 140/12/3 141/21/3 142/22/3
f 142/22/3 143/61/3 146/6/3
f 143/61/3 144/4/3 146/6/3
f 134/7/2 141/62/2 140/8/2
f 135/7/7 142/62/7 141/8/7
f 136/7/8 143/62/8 142/8/8
f 137/7/9 144/62/9 143/8/9
f 138/7/10 145/62/10 144/8/10
f 139/7/11 146/62/11 145/8/11
f 133/7/12 140/62/12 146/8/12
f 147/13/5 152/12/5 148/11/5
f 152/12/5 151/15/5 149/10/5
f 151/15/5 150/14/5 149/10/5
f 158/13/3 153/12/3 154/15/3
f 154/15/3 155/14/3 158/13/3
f 155/14/3 156/10/3 157/11/3
f 148/7/2 154/62/2 153/8/2
f 149/7/13 155/62/13 154/8/13
f 150/7/14 156/62/14 155/8/14
f 151/7/15 157/62/15 156/8/15
f 152/7/16 158/62/16 157/8/16
f 147/7/17 153/62/17 158/8/17
f 164/12/5 163/15/5 160/11/5
f 163/15/5 162/14/5 161/10/5
f 160/11/5 163/15/5 161/10/5
f 170/13/3 165/12/3 166/15/3
f 166/15/3 167/14/3 169/11/3
f 167/14/3 168/10/3 169/11/3
f 160/7/18 166/62/18 165/8/18
f 161/7/29 167/62/29 166/8/29
f 162/7/20 168/62/20 167/8/20
f 163/7/30 169/62/30 168/8/30
f 164/7/31 170/62/31 169/8/31
f 159/7/32 165/62/32 170/8/32
f 174/16/5 173/19/5 172/17/5
f 176/19/3 177/17/3 178/18/3
f 172/19/2 176/17/2 175/18/2
f 173/19/24 177/17/24 176/18/24
f 174/19/33 178/17/33 177/18/33
f 171/19/26 175/17/26 178/18/26
f 182/1/34 181/20/34 180/2/34
f 184/1/35 185/20/35 186/2/35
f 180/1/222 184/20/222 183/2/222
f 180/3/37 181/1/37 185/20/37
f 182/1/38 186/20/38 185/2/38
f 182/3/39 179/1/39 183/20/39
f 190/1/1 189/20/1 188/2/1
f 192/1/2 193/20/2 194/2/2
f 188/1/3 192/20/3 191/2/3
f 189/1/4 193/20/4 192/2/4
f 190/1/5 194/20/5 193/2/5
f 187/1/6 191/20/6 194/2/6
f 198/1/1 197/20/1 196/2/1
f 200/1/2 201/20/2 202/2/2
f 196/1/3 200/20/3 199/2/3
f 197/1/4 201/20/4 200/2/4
f 198/1/5 202/20/5 201/2/5
f 195/1/6 199/20/6 202/2/6
f 206/1/1 205/20/1 204/2/1
f 208/1/2 209/20/2 210/2/2
f 204/1/3 208/20/3 207/2/3
f 205/1/4 209/20/4 208/2/4
f 206/1/5 210/20/5 209/2/5
f 203/1/6 207/20/6 210/2/6
f 214/1/1 213/20/1 212/2/1
f 216/1/2 217/20/2 218/2/2
f 212/1/3 216/20/3 215/2/3
f 213/1/4 217/20/4 216/2/4
f 214/1/5 218/20/5 217/2/5
f 211/1/6 215/20/6 218/2/6
f 222/1/1 221/20/1 220/2/1
f 224/1/2 225/20/2 226/2/2
f 220/1/3 224/20/3 223/2/3
f 221/1/4 225/20/4 224/2/4
f 222/1/5 226/20/5 225/2/5
f 219/1/6 223/20/6 226/2/6
f 227/6/5 233/12/5 228/5/5
f 233/12/5 232/21/5 228/5/5
f 232/21/5 231/22/5 230/61/5
f 232/21/5 230/61/5 229/4/5
f 240/6/3 234/12/3 235/21/3
f 236/22/3 237/61/3 239/5/3
f 237/61/3 238/4/3 239/5/3
f 239/5/3 240/6/3 235/21/3
f 228/7/2 235/62/2 234/8/2
f 229/7/40 236/62/40 235/8/40
f 230/7/41 237/62/41 236/8/41
f 231/7/9 238/62/9 237/8/9
f 232/7/42 239/62/42 238/8/42
f 233/7/43 240/62/43 239/8/43
f 227/7/44 234/62/44 240/8/44
f 241/13/5 246/12/5 245/15/5
f 245/15/5 244/14/5 243/10/5
f 243/10/5 242/11/5 241/13/5
f 247/12/3 248/15/3 249/14/3
f 249/14/3 250/10/3 251/11/3
f 251/11/3 252/13/3 247/12/3
f 242/7/2 248/62/2 247/8/2
f 243/7/45 249/62/45 248/8/45
f 244/7/46 250/62/46 249/8/46
f 245/7/47 251/62/47 250/8/47
f 246/7/48 252/62/48 251/8/48
f 241/7/49 247/62/49 252/8/49
f 258/12/5 257/15/5 254/11/5
f 257/15/5 256/14/5 255/10/5
f 254/11/5 257/15/5 255/10/5
f 264/13/3 259/12/3 260/15/3
f 260/15/3 261/14/3 263/11/3
f 261/14/3 262/10/3 263/11/3
f 254/7/18 260/62/18 259/8/18
f 255/7/19 261/62/19 260/8/19
f 256/7/20 262/62/20 261/8/20
f 257/7/21 263/62/21 262/8/21
f 258/7/50 264/62/50 263/8/50
f 253/7/51 259/62/51 264/8/51
f 268/16/5 267/19/5 266/17/5
f 270/19/3 271/17/3 272/18/3
f 266/19/2 270/17/2 269/18/2
f 267/19/24 271/17/24 270/18/24
f 268/19/25 272/17/25 271/18/25
f 265/19/26 269/17/26 272/18/26
f 273/6/5 279/12/5 274/5/5
f 279/12/5 278/21/5 274/5/5
f 278/21/5 277/22/5 276/61/5
f 278/21/5 276/61/5 275/4/5
f 286/6/3 280/12/3 281/21/3
f 282/22/3 283/61/3 285/5/3
f 283/61/3 284/4/3 285/5/3
f 285/5/3 286/6/3 281/21/3
f 274/7/2 281/62/2 280/8/2
f 275/7/40 282/62/40 281/8/40
f 276/7/41 283/62/41 282/8/41
f 277/7/9 284/62/9 283/8/9
f 278/7/42 285/62/42 284/8/42
f 279/7/43 286/62/43 285/8/43
f 273/7/44 280/62/44 286/8/44
f 287/13/5 292/12/5 291/15/5
f 291/15/5 290/14/5 289/10/5
f 289/10/5 288/11/5 287/13/5
f 293/12/3 294/15/3 295/14/3
f 295/14/3 296/10/3 297/11/3
f 297/11/3 298/13/3 293/12/3
f 288/7/2 294/62/2 293/8/2
f 289/7/45 295/62/45 294/8/45
f 290/7/46 296/62/46 295/8/46
f 291/7/47 297/62/47 296/8/47
f 292/7/48 298/62/48 297/8/48
f 287/7/49 293/62/49 298/8/49
f 304/12/5 303/15/5 300/11/5
f 303/15/5 302/14/5 301/10/5
f 300/11/5 303/15/5 301/10/5
f 310/13/3 305/12/3 306/15/3
f 306/15/3 307/14/3 309/11/3
f 307/14/3 308/10/3 309/11/3
f 300/7/18 306/62/18 305/8/18
f 301/7/19 307/62/19 306/8/19
f 302/7/20 308/62/20 307/8/20
f 303/7/27 309/62/27 308/8/27
f 304/7/50 310/62/50 309/8/50
f 299/7/52 305/62/52 310/8/52
f 314/16/5 313/19/5 312/17/5
f 316/19/3 317/17/3 318/18/3
f 312/19/2 316/17/2 315/18/2
f 313/19/24 317/17/24 316/18/24
f 314/19/25 318/17/25 317/18/25
f 311/19/26 315/17/26 318/18/26
f 319/6/5 325/12/5 320/5/5
f 325/12/5 324/21/5 320/5/5
f 324/21/5 323/22/5 322/61/5
f 324/21/5 322/61/5 321/4/5
f 332/6/3 326/12/3 327/21/3
f 328/22/3 329/61/3 331/5/3
f 329/61/3 330/4/3 331/5/3
f 331/5/3 332/6/3 327/21/3
f 320/7/2 327/62/2 326/8/2
f 321/7/40 328/62/40 327/8/40
f 322/7/41 329/62/41 328/8/41
f 323/7/9 330/62/9 329/8/9
f 324/7/42 331/62/42 330/8/42
f 325/7/43 332/62/43 331/8/43
f 319/7/44 326/62/44 332/8/44
f 333/13/5 338/12/5 337/15/5
f 337/15/5 336/14/5 335/10/5
f 335/10/5 334/11/5 333/13/5
f 339/12/3 340/15/3 341/14/3
f 341/14/3 342/10/3 343/11/3
f 343/11/3 344/13/3 339/12/3
f 334/7/2 340/62/2 339/8/2
f 335/7/45 341/62/45 340/8/45
f 336/7/46 342/62/46 341/8/46
f 337/7/47 343/62/47 342/8/47
f 338/7/48 344/62/48 343/8/48
f 333/7/49 339/62/49 344/8/49
f 350/12/5 349/15/5 346/11/5
f 349/15/5 348/14/5 347/10/5
f 346/11/5 349/15/5 347/10/5
f 356/13/3 351/12/3 352/15/3
f 352/15/3 353/14/3 355/11/3
f 353/14/3 354/10/3 355/11/3
f 346/7/18 352/62/18 351/8/18
f 347/7/29 353/62/29 352/8/29
f 348/7/20 354/62/20 353/8/20
f 349/7/30 355/62/30 354/8/30
f 350/7/54 356/62/54 355/8/54
f 345/7/55 351/62/55 356/8/55
f 360/16/5 359/19/5 358/17/5
f 362/19/3 363/17/3 364/18/3
f 358/19/2 362/17/2 361/18/2
f 359/19/24 363/17/24 362/18/24
f 360/19/33 364/17/33 363/18/33
f 357/19/26 361/17/26 364/18/26
f 365/3/56 368/1/56 367/20/56
f 369/3/57 370/1/57 371/20/57
f 366/1/58 370/20/58 369/2/58
f 366/3/59 367/1/59 371/20/59
f 368/1/60 372/20/60 371/2/60
f 365/1/61 369/20/61 372/2/61
f 376/19/62 375/17/62 374/18/62
f 378/19/63 379/17/63 380/18/63
f 374/19/64 378/17/64 377/18/64
f 375/19/65 379/17/65 378/18/65
f 376/19/66 380/17/66 379/18/66
f 373/19/67 377/17/67 380/18/67
f 384/19/68 383/17/68 382/18/68
f 386/19/69 387/17/69 388/18/69
f 382/19/70 386/17/70 385/18/70
f 383/19/71 387/17/71 386/18/71
f 384/19/72 388/17/72 387/18/72
f 381/19/73 385/17/73 388/18/73
f 389/16/74 392/19/74 391/17/74
f 394/19/75 395/17/75 396/18/75
f 390/19/76 394/17/76 393/18/76
f 391/19/77 395/17/77 394/18/77
f 392/19/78 396/17/78 395/18/78
f 389/19/79 393/17/79 396/18/79
f 400/19/80 399/17/80 398/18/80
f 402/19/81 403/17/81 404/18/81
f 398/19/82 402/17/82 401/18/82
f 399/19/83 403/17/83 402/18/83
f 400/19/84 404/17/84 403/18/84
f 397/19/85 401/17/85 404/18/85
f 408/19/86 407/17/86 406/18/86
f 410/19/87 411/17/87 412/18/87
f 406/19/88 410/17/88 409/18/88
f 407/19/89 411/17/89 410/18/89
f 407/16/90 408/19/90 412/17/90
f 405/19/91 409/17/91 412/18/91
f 416/1/92 415/20/92 414/2/92
f 418/1/93 419/20/93 420/2/93
f 413/3/94 414/1/94 418/20/94
f 415/1/95 419/20/95 418/2/95
f 415/3/96 416/1/96 420/20/96
f 413/1/97 417/20/97 420/2/97
f 434/24/223 428/63/223 429/64/223
f 429/64/224 430/25/224 434/24/224
f 430/25/225 431/65/225 432/66/225
f 433/23/226 430/25/226 432/66/226
f 421/26/227 422/56/227 429/27/227
f 422/26/228 423/56/228 430/27/228
f 423/26/229 424/56/229 431/27/229
f 424/26/230 425/56/230 432/27/230
f 425/26/231 426/56/231 433/27/231
f 426/26/232 427/56/232 434/27/232
f 427/26/233 421/56/233 428/27/233
f 444/31/234 440/60/234 442/29/234
f 440/60/235 441/67/235 442/29/235
f 435/16/236 436/19/236 441/17/236
f 436/16/237 437/19/237 442/17/237
f 437/16/238 438/19/238 443/17/238
f 438/16/239 439/19/239 444/17/239
f 439/16/240 435/19/240 440/17/240
f 456/68/241 451/69/241 455/34/241
f 451/69/242 452/49/242 455/34/242
f 452/49/243 453/32/243 455/34/243
f 445/35/244 446/48/244 452/36/244
f 446/35/245 447/48/245 453/36/245
f 447/35/246 448/48/246 454/36/246
f 448/35/247 449/48/247 455/36/247
f 449/35/248 450/48/248 456/36/248
f 450/35/249 445/48/249 451/36/249
f 466/40/250 462/69/250 463/47/250
f 463/47/251 464/38/251 466/40/251
f 457/35/252 458/48/252 463/36/252
f 458/35/253 459/48/253 464/36/253
f 459/35/254 460/48/254 465/36/254
f 460/35/255 461/48/255 466/36/255
f 461/35/256 457/48/256 462/36/256
f 476/70/257 472/42/257 475/41/257
f 472/42/258 473/71/258 474/43/258
f 468/1/259 473/20/259 472/2/259
f 469/1/260 474/20/260 473/2/260
f 470/1/261 475/20/261 474/2/261
f 471/1/262 476/20/262 475/2/262
f 467/1/263 472/20/263 476/2/263
f 486/70/264 482/42/264 485/41/264
f 482/42/265 483/71/265 484/43/265
f 478/1/266 483/20/266 482/2/266
f 479/1/267 484/20/267 483/2/267
f 479/3/268 480/1/268 485/20/268
f 480/3/269 481/1/269 486/20/269
f 477/1/270 482/20/270 486/2/270
f 496/46/271 492/63/271 494/44/271
f 492/63/272 493/72/272 494/44/272
f 487/26/273 488/56/273 493/27/273
f 488/26/274 489/56/274 494/27/274
f 489/26/275 490/56/275 495/27/275
f 490/26/276 491/56/276 496/27/276
f 491/26/277 487/56/277 492/27/277
f 506/40/278 502/69/278 503/47/278
f 503/47/279 504/38/279 505/39/279
f 497/35/280 498/48/280 503/36/280
f 499/48/281 504/36/281 503/37/281
f 499/35/282 500/48/282 505/36/282
f 501/48/283 506/36/283 505/37/283
f 497/48/284 502/36/284 506/37/284
f 518/68/285 513/69/285 517/34/285
f 513/69/286 514/49/286 517/34/286
f 514/49/287 515/32/287 516/33/287
f 507/35/288 508/48/288 514/36/288
f 508/35/289 509/48/289 515/36/289
f 509/35/290 510/48/290 516/36/290
f 510/35/291 511/48/291 517/36/291
f 511/35/292 512/48/292 518/36/292
f 512/35/293 507/48/293 513/36/293
f 528/46/294 524/63/294 526/44/294
f 524/63/295 525/72/295 526/44/295
f 519/26/296 520/56/296 525/27/296
f 520/26/297 521/56/297 526/27/297
f 521/26/298 522/56/298 527/27/298
f 522/26/299 523/56/299 528/27/299
f 523/26/300 519/56/300 524/27/300
f 542/73/301 536/60/301 541/50/301
f 536/60/302 537/74/302 538/51/302
f 541/50/303 536/60/303 538/51/303
f 538/51/304 539/75/304 540/52/304
f 530/19/305 537/17/305 536/18/305
f 531/19/306 538/17/306 537/18/306
f 532/19/307 539/17/307 538/18/307
f 533/19/308 540/17/308 539/18/308
f 534/19/309 541/17/309 540/18/309
f 535/19/310 542/17/310 541/18/310
f 529/19/311 536/17/311 542/18/311
f 554/53/312 549/63/312 550/76/312
f 550/76/313 551/54/313 554/53/313
f 551/54/314 552/77/314 553/55/314
f 543/26/315 544/56/315 550/27/315
f 544/26/316 545/56/316 551/27/316
f 545/26/317 546/56/317 552/27/317
f 547/56/318 553/27/318 552/28/318
f 547/26/319 548/56/319 554/27/319
f 548/26/320 543/56/320 549/27/320
f 564/70/321 560/42/321 563/41/321
f 560/42/322 561/71/322 562/43/322
f 555/3/323 556/1/323 561/20/323
f 556/3/324 557/1/324 562/20/324
f 557/3/325 558/1/325 563/20/325
f 558/3/326 559/1/326 564/20/326
f 559/3/327 555/1/327 560/20/327
f 578/78/328 572/42/328 577/59/328
f 572/42/329 573/79/329 574/80/329
f 577/59/330 572/42/330 574/80/330
f 574/80/331 575/57/331 577/59/331
f 565/3/332 566/1/332 573/20/332
f 566/3/333 567/1/333 574/20/333
f 567/3/334 568/1/334 575/20/334
f 568/3/335 569/1/335 576/20/335
f 569/3/336 570/1/336 577/20/336
f 570/3/337 571/1/337 578/20/337
f 571/3/338 565/1/338 572/20/338
f 588/31/339 584/60/339 585/67/339
f 585/67/340 586/29/340 588/31/340
f 579/16/341 580/19/341 585/17/341
f 580/16/342 581/19/342 586/17/342
f 581/16/343 582/19/343 587/17/343
f 582/16/344 583/19/344 588/17/344
f 583/16/345 579/19/345 584/17/345
f 598/46/346 594/63/346 596/44/346
f 594/63/347 595/72/347 596/44/347
f 589/26/348 590/56/348 595/27/348
f 590/26/349 591/56/349 596/27/349
f 591/26/350 592/56/350 597/27/350
f 592/26/351 593/56/351 598/27/351
f 593/26/352 589/56/352 594/27/352
f 608/31/353 604/60/353 607/30/353
f 604/60/354 605/67/354 606/29/354
f 600/19/355 605/17/355 604/18/355
f 601/19/356 606/17/356 605/18/356
f 601/16/357 602/19/357 607/17/357
f 603/19/358 608/17/358 607/18/358
f 603/16/359 599/19/359 604/17/359
f 612/1/209 611/20/209 610/2/209
f 614/1/210 615/20/210 616/2/210
f 610/1/211 614/20/211 613/2/211
f 611/1/212 615/20/212 614/2/212
f 611/3/213 612/1/213 616/20/213
f 609/1/214 613/20/214 616/2/214
f 620/1/215 619/20/215 618/2/215
f 622/1/216 623/20/216 624/2/216
f 618/1/217 622/20/217 621/2/217
f 619/1/218 623/20/218 622/2/218
f 620/1/219 624/20/219 623/2/219
f 617/1/220 621/20/220 624/2/220
