# Blender 4.4.3
# www.blender.org
o ruin_shujaiya
v -5.129193 0.396800 4.196620
v -4.740669 0.402351 4.196620
v -4.740759 0.408613 3.808107
v -5.129283 0.403062 3.808107
v -5.158340 2.436788 4.229511
v -4.769815 2.442339 4.229511
v -4.769905 2.448602 3.840997
v -5.158429 2.443051 3.840997
v -5.033432 3.019465 4.017195
v -5.010547 3.019465 3.990714
v -5.036634 3.025474 3.968168
v -5.059520 3.025474 3.994649
v -4.910272 3.953494 4.123631
v -4.887386 3.953494 4.097149
v -4.913474 3.959503 4.074604
v -4.936359 3.959503 4.101085
v -4.888492 3.019114 4.055550
v -4.865757 3.019114 4.082161
v -4.839640 3.025826 4.059850
v -4.862374 3.025826 4.033238
v -5.005700 3.807999 4.155682
v -4.982966 3.807999 4.182293
v -4.956849 3.814711 4.159981
v -4.979583 3.814711 4.133370
v -5.103555 0.401257 -3.801534
v -4.761615 0.406937 -3.801534
v -4.761567 0.404039 -4.143509
v -5.103507 0.398359 -4.143509
v -5.137532 2.446783 -3.818873
v -4.795592 2.452463 -3.818873
v -4.795544 2.449565 -4.160848
v -5.137484 2.443885 -4.160848
v -0.118156 0.405641 4.202523
v 0.215716 0.405092 4.202523
v 0.215707 0.399578 3.868696
v -0.118165 0.400128 3.868696
v -0.114806 2.440187 4.168921
v 0.219066 2.439638 4.168921
v 0.219057 2.434124 3.835094
v -0.114815 2.434674 3.835094
v -0.115930 0.406077 -3.788337
v 0.214805 0.405839 -3.788337
v 0.214801 0.399399 -4.119010
v -0.115935 0.399637 -4.119010
v -0.113900 3.232121 -3.843372
v 0.216836 3.231883 -3.843372
v 0.216832 3.225443 -4.174046
v -0.113904 3.225681 -4.174046
v 4.832067 0.409419 -3.744193
v 5.250567 0.406151 -3.744193
v 5.250490 0.396250 -4.162590
v 4.831989 0.399518 -4.162590
v 4.850411 2.758593 -3.799793
v 5.268911 2.755325 -3.799793
v 5.268834 2.745424 -4.218189
v 4.850334 2.748692 -4.218189
v -0.128029 3.181183 -3.824856
v 5.219987 3.035493 -3.824856
v 5.219678 3.024127 -4.124640
v -0.128338 3.169817 -4.124640
v -0.119054 3.510623 -3.837355
v 5.228962 3.364934 -3.837355
v 5.228652 3.353568 -4.137140
v -0.119364 3.499258 -4.137140
v -3.765372 3.958680 2.707065
v -2.487276 3.742422 3.532718
v 1.292909 2.984905 3.078821
v 2.703082 2.627584 1.073819
v 1.440399 2.724527 -2.608553
v -2.661813 3.533397 -2.439685
v -3.713608 4.223452 2.696286
v -2.435512 4.007194 3.521939
v 1.344673 3.249677 3.068042
v 2.754846 2.892356 1.063040
v 1.492163 2.989299 -2.619332
v -2.610049 3.798169 -2.450464
v -4.849549 0.552470 4.063809
v -3.217549 0.552470 4.063809
v -3.267550 1.536470 4.063809
v -3.127549 2.502470 4.063809
v -3.247550 2.622470 4.063809
v -4.849549 2.765470 4.063809
v -4.889549 2.292870 4.063809
v -4.849549 0.552470 3.813809
v -3.217549 0.552470 3.813809
v -3.267550 1.536470 3.813809
v -3.127549 2.502470 3.813809
v -3.247550 2.622470 3.813809
v -4.849549 2.765470 3.813809
v -4.889549 2.292870 3.813809
v -1.585549 0.552470 4.063809
v -0.049549 0.552470 4.063809
v -0.009549 2.320670 4.063809
v -0.129549 2.737670 4.063809
v -1.555549 2.582470 4.063809
v -1.685549 1.452470 4.063809
v -1.585549 0.552470 3.813809
v -0.049549 0.552470 3.813809
v -0.009549 2.320670 3.813809
v -0.129549 2.737670 3.813809
v -1.555549 2.582470 3.813809
v -1.685549 1.452470 3.813809
v -3.217549 2.502470 4.063809
v -3.097549 2.592470 4.063809
v -1.705549 2.462470 4.063809
v -1.585549 2.502470 4.063809
v -0.047549 3.182470 4.063809
v -4.751550 2.932270 4.063809
v -3.217549 2.502470 3.813809
v -3.097549 2.592470 3.813809
v -1.705549 2.462470 3.813809
v -1.585549 2.502470 3.813809
v -0.047549 3.182470 3.813809
v -4.751550 2.932270 3.813809
v -3.217549 0.552470 4.063809
v -1.585549 0.552470 4.063809
v -1.665549 1.252470 4.063809
v -3.117549 1.132470 4.063809
v -3.217549 0.552470 3.813809
v -1.585549 0.552470 3.813809
v -1.665549 1.252470 3.813809
v -3.117549 1.132470 3.813809
v 0.150451 0.552470 4.048809
v 2.358451 0.552470 4.048809
v 2.262450 2.709870 4.048809
v 1.782451 2.987870 4.048809
v 1.206451 2.487470 4.048809
v 0.726451 2.848870 4.048809
v 0.150451 2.292870 4.048809
v 0.150451 0.552470 3.828809
v 2.358451 0.552470 3.828809
v 2.262450 2.709870 3.828809
v 1.782451 2.987870 3.828809
v 1.206451 2.487470 3.828809
v 0.726451 2.848870 3.828809
v 0.150451 2.292870 3.828809
v 3.750451 0.552470 4.048809
v 4.950451 0.552470 4.048809
v 4.950451 2.348470 4.048809
v 4.374451 2.682070 4.048809
v 3.990451 1.959270 4.048809
v 3.750451 0.552470 3.828809
v 4.950451 0.552470 3.828809
v 4.950451 2.348470 3.828809
v 4.374451 2.682070 3.828809
v 3.990451 1.959270 3.828809
v -4.965043 0.532281 0.229664
v -4.745049 0.532281 0.228011
v -4.773550 0.423623 -3.564754
v -4.993544 0.423623 -3.563101
v -4.965534 2.810846 0.164390
v -4.745541 2.810846 0.162737
v -4.774040 2.702188 -3.630028
v -4.994034 2.702188 -3.628375
v 4.894644 0.586966 0.175425
v 5.114607 0.586966 0.171415
v 5.048802 0.372124 -3.438231
v 4.828838 0.372124 -3.434221
v 4.892176 2.862440 0.040036
v 5.112139 2.862440 0.036026
v 5.046334 2.647598 -3.573620
v 4.826370 2.647598 -3.569610
v -5.174865 3.404839 -3.732872
v -4.713321 3.406859 -3.732872
v -4.713292 3.400372 -4.194375
v -5.174836 3.398351 -4.194375
v -5.185806 5.904287 -3.768008
v -4.724262 5.906308 -3.768008
v -4.724234 5.899820 -4.229511
v -5.185779 5.897800 -4.229511
v -5.031431 6.018364 -3.985053
v -5.037189 6.018364 -4.019576
v -5.070749 6.026574 -4.013978
v -5.064991 6.026574 -3.979455
v -4.831165 6.859756 -4.018455
v -4.836923 6.859756 -4.052978
v -4.870482 6.867965 -4.047380
v -4.864725 6.867965 -4.012857
v -4.872499 6.019225 -4.037683
v -4.846100 6.019225 -4.014702
v -4.823519 6.025715 -4.040644
v -4.849917 6.025715 -4.063624
v -5.014518 7.165491 -3.874537
v -4.988119 7.165491 -3.851557
v -4.965537 7.171981 -3.877498
v -4.991936 7.171981 -3.900479
v 4.868027 3.402208 4.212447
v 5.245814 3.404383 4.212447
v 5.245824 3.402789 3.834656
v 4.868036 3.400614 3.834656
v 4.855078 5.651248 4.202961
v 5.232865 5.653423 4.202961
v 5.232874 5.651830 3.825171
v 4.855086 5.649654 3.825171
v 4.982582 6.019694 3.989821
v 4.947847 6.019694 3.994118
v 4.952089 6.025245 4.028413
v 4.986825 6.025245 4.024117
v 4.963931 6.965543 3.839048
v 4.929196 6.965543 3.843345
v 4.933438 6.971093 3.877640
v 4.968174 6.971093 3.873343
v 5.123030 6.018988 3.990202
v 5.111661 6.018988 4.023304
v 5.144101 6.025951 4.034445
v 5.155470 6.025951 4.001343
v 4.907199 7.143103 3.916077
v 4.895830 7.143103 3.949179
v 4.928271 7.150066 3.960320
v 4.939640 7.150066 3.927218
v 4.807268 3.403846 -3.778753
v 5.248689 3.393551 -3.778753
v 5.248885 3.401964 -4.220213
v 4.807465 3.412260 -4.220213
v 4.852015 5.322388 -3.742169
v 5.293437 5.312092 -3.742169
v 5.293633 5.320506 -4.183630
v 4.852212 5.330801 -4.183630
v 4.967155 6.017735 -3.942531
v 4.972733 6.017735 -3.977084
v 4.939469 6.027203 -3.982454
v 4.933890 6.027203 -3.947902
v 5.177655 6.776638 -3.908543
v 5.183234 6.776638 -3.943096
v 5.149970 6.786105 -3.948467
v 5.144391 6.786105 -3.913914
v 5.152525 6.019234 -3.907533
v 5.171535 6.019234 -3.936920
v 5.142654 6.025705 -3.955602
v 5.123644 6.025705 -3.926215
v 5.309374 7.012049 -3.806069
v 5.328383 7.012049 -3.835457
v 5.299503 7.018520 -3.854139
v 5.280493 7.018520 -3.824752
v -0.122623 6.069937 4.162625
v 5.227098 6.124496 4.162625
v 5.226989 6.135238 3.862817
v -0.122733 6.080680 3.862817
v -0.125984 6.399508 4.174435
v 5.223738 6.454067 4.174435
v 5.223628 6.464809 3.874628
v -0.126094 6.410251 3.874628
v -5.127953 6.164930 -3.834157
v 0.220469 6.034969 -3.834157
v 0.220595 6.040161 -4.134112
v -5.127826 6.170122 -4.134112
v -5.119942 6.494583 -3.828447
v 0.228479 6.364622 -3.828447
v 0.228606 6.369814 -4.128402
v -5.119816 6.499775 -4.128402
v -0.123837 6.087465 -3.836334
v 5.226121 6.108671 -3.836334
v 5.226086 6.117628 -4.136200
v -0.123873 6.096423 -4.136200
v -0.125144 6.417116 -3.826487
v 5.224814 6.438321 -3.826487
v 5.224779 6.447278 -4.126353
v -0.125179 6.426073 -4.126353
v -4.153854 6.164139 1.756941
v -2.473246 6.058781 2.695575
v 2.446115 6.002403 2.494098
v 4.040926 6.118752 0.853465
v 3.384404 6.415209 -2.500591
v -2.296111 6.558525 -3.183160
v -4.149830 6.433128 1.779928
v -2.469222 6.327771 2.718563
v 2.450140 6.271392 2.517085
v 4.044950 6.387741 0.876453
v 3.388428 6.684199 -2.477603
v -2.292087 6.827514 -3.160173
v -4.849549 3.552470 4.048809
v -2.641549 3.552470 4.048809
v -2.737550 5.199870 4.048809
v -3.217549 5.777870 4.048809
v -3.793550 4.737470 4.048809
v -4.273549 5.488870 4.048809
v -4.849549 4.332870 4.048809
v -4.849549 3.552470 3.828809
v -2.641549 3.552470 3.828809
v -2.737550 5.199870 3.828809
v -3.217549 5.777870 3.828809
v -3.793550 4.737470 3.828809
v -4.273549 5.488870 3.828809
v -4.849549 4.332870 3.828809
v -1.249549 3.552470 4.048809
v -0.049549 3.552470 4.048809
v -0.049549 4.448470 4.048809
v -0.625549 5.142070 4.048809
v -1.009549 3.639270 4.048809
v -1.249549 3.552470 3.828809
v -0.049549 3.552470 3.828809
v -0.049549 4.448470 3.828809
v -0.625549 5.142070 3.828809
v -1.009549 3.639270 3.828809
v -4.966534 3.643907 0.638540
v -4.746537 3.643907 0.637316
v -4.771620 3.317179 -3.871065
v -4.991616 3.317179 -3.869841
v -4.967451 5.917445 0.473779
v -4.747454 5.917445 0.472555
v -4.772536 5.590717 -4.035826
v -4.992533 5.590717 -4.034602
v 4.869690 3.414564 -0.378519
v 5.089684 3.414564 -0.380056
v 5.070446 3.542925 -3.133300
v 4.850451 3.542925 -3.131763
v 4.870432 5.691591 -0.272366
v 5.090426 5.691591 -0.273903
v 5.071188 5.819952 -3.027146
v 4.851193 5.819952 -3.025609
v 0.873808 4.540865 3.792809
v 2.792173 4.540865 3.792809
v 2.792173 4.540865 3.764809
v 0.873808 4.540865 3.764809
v 0.873808 5.564075 3.792809
v 2.792173 5.564075 3.792809
v 2.792173 5.564075 3.764809
v 0.873808 5.564075 3.764809
v -2.986905 6.003650 0.008339
v -3.016660 6.003650 -0.000463
v -3.025458 6.004572 0.029279
v -2.995703 6.004572 0.038081
v -2.977220 7.151953 -0.024401
v -3.006974 7.151953 -0.033203
v -3.015772 7.152875 -0.003462
v -2.986018 7.152875 0.005340
v 3.422268 5.995378 3.531162
v 3.433897 5.995378 3.557975
v 3.460457 5.999377 3.546455
v 3.448828 5.999377 3.519643
v 3.262901 7.252873 3.600280
v 3.274529 7.252873 3.627092
v 3.301090 7.256873 3.615573
v 3.289461 7.256873 3.588761
v 1.446983 6.175410 -3.512284
v 1.462759 6.175410 -3.476507
v 1.493579 6.195268 -3.490098
v 1.477803 6.195268 -3.525875
v 1.059076 6.894539 -3.341232
v 1.074852 6.894539 -3.305454
v 1.105672 6.914396 -3.319045
v 1.089896 6.914396 -3.354822
v -2.442286 6.251582 3.515326
v -2.484597 6.251582 3.521379
v -2.478744 6.262481 3.562291
v -2.436433 6.262481 3.556239
v -2.470691 7.012247 3.316754
v -2.513003 7.012247 3.322807
v -2.507150 7.023146 3.363719
v -2.464839 7.023146 3.357667
v -0.085695 6.025263 -3.481635
v -0.082472 6.025263 -3.517698
v -0.116587 6.037001 -3.520747
v -0.119810 6.037001 -3.484684
v 0.303791 7.166361 -3.446831
v 0.307013 7.166361 -3.482894
v 0.272898 7.178098 -3.485943
v 0.269675 7.178098 -3.449880
v -5.328383 2.603519 2.216004
v -4.235961 2.125104 2.602058
v 0.029839 1.514488 2.189314
v 1.448425 1.844747 1.237688
v 0.443421 2.907130 -0.067641
v -4.168792 3.667664 0.225417
v -5.256885 2.949750 2.442746
v -4.164462 2.471335 2.828800
v 0.101338 1.860719 2.416056
v 1.519924 2.190978 1.464430
v 0.514920 3.253361 0.159102
v -4.097292 4.013895 0.452159
v 0.971182 6.097232 0.102112
v 1.846451 5.700098 0.358339
v 4.277682 4.065772 0.368988
v 4.911300 3.004807 -0.466336
v 3.867011 2.741582 -1.744776
v 1.091949 4.695199 -1.640579
v 1.141852 6.349873 -0.089316
v 2.017120 5.952739 0.166912
v 4.448351 4.318413 0.177560
v 5.081968 3.257448 -0.657764
v 4.037680 2.994223 -1.936204
v 1.262618 4.947840 -1.832007
v 0.551053 3.629593 0.639935
v 0.569844 3.629593 0.610407
v 0.549848 3.655346 0.597682
v 0.531057 3.655346 0.627210
v 1.101053 4.229593 0.989935
v 1.119844 4.229593 0.960407
v 1.099848 4.255346 0.947682
v 1.081057 4.255346 0.977210
v 0.791053 3.629593 0.639935
v 0.809844 3.629593 0.610407
v 0.789848 3.655346 0.597682
v 0.771057 3.655346 0.627210
v 1.341053 4.229593 0.989935
v 1.359844 4.229593 0.960407
v 1.339848 4.255346 0.947682
v 1.321057 4.255346 0.977210
v 1.031054 3.629593 0.639935
v 1.049844 3.629593 0.610407
v 1.029848 3.655346 0.597682
v 1.011057 3.655346 0.627210
v 1.581053 4.229593 0.989935
v 1.599844 4.229593 0.960407
v 1.579848 4.255346 0.947682
v 1.561057 4.255346 0.977210
v 1.271054 3.629593 0.639935
v 1.289844 3.629593 0.610407
v 1.269848 3.655346 0.597682
v 1.251057 3.655346 0.627210
v 1.821053 4.229593 0.989935
v 1.839844 4.229593 0.960407
v 1.819848 4.255346 0.947682
v 1.801057 4.255346 0.977210
v 3.295739 0.236615 -2.840050
v 3.593379 0.330803 -2.415403
v 4.331662 0.252188 -2.265985
v 4.771236 0.204594 -2.702559
v 4.620275 0.152184 -3.142832
v 4.135703 0.194737 -3.465606
v 3.316828 0.323615 -3.406450
v 3.225646 1.179881 -3.182811
v 3.112134 1.045423 -2.601804
v 3.821549 1.107642 -2.315303
v 4.543403 1.166332 -2.416666
v 4.800480 1.230420 -2.876918
v 4.531408 1.072633 -3.306520
v 3.898863 1.205944 -3.359719
v -3.123875 0.328266 1.219037
v -2.764395 0.300671 1.390404
v -2.313291 0.349342 1.521502
v -1.996270 0.396798 1.321028
v -1.916264 0.405850 1.095465
v -2.333585 0.334159 0.946545
v -2.763836 0.414243 1.048321
v -1.806955 1.072158 1.381892
v -1.877537 0.961330 1.103452
v -2.300544 0.998473 0.944969
v -2.845105 0.951986 0.977804
v -2.977219 1.084455 1.206879
v -2.816686 1.012621 1.400732
v -2.365852 1.025825 1.476790
v 0.881477 0.343608 -3.230774
v 1.149291 0.270418 -2.734011
v 1.902436 0.357571 -2.636642
v 2.350095 0.302813 -2.955297
v 1.933002 0.352202 -3.370030
v 2.016083 1.122894 -3.372172
v 1.125032 1.196602 -3.184928
v 0.881044 1.276203 -2.682811
v 1.907202 1.180641 -2.511485
v 2.676666 1.190161 -2.915035
v 2.327574 0.336535 -0.779433
v 2.416061 0.369956 -0.440688
v 3.028270 0.342380 -0.261978
v 3.451592 0.305418 -0.595257
v 2.971120 0.320855 -0.840560
v 2.271560 0.851396 -0.678065
v 2.441799 0.842615 -0.306373
v 3.198439 0.848829 -0.338010
v 3.332383 0.910121 -0.689886
v 2.804491 0.875230 -0.859391
v 2.687643 0.348698 2.380281
v 2.276102 0.326001 2.073472
v 1.758956 0.372024 2.139318
v 1.651764 0.336573 2.483906
v 1.918725 0.440621 2.720474
v 2.316319 0.410982 2.676760
v 2.141518 0.981799 2.113338
v 1.743794 0.978602 2.244582
v 1.534105 0.911251 2.596696
v 2.010146 0.897250 2.739929
v 2.470363 0.970334 2.680314
v 2.646946 0.952315 2.276626
v 3.747664 0.351461 -1.149168
v 3.390139 0.280206 -1.485208
v 2.603019 0.239063 -1.579901
v 2.332270 0.228792 -1.164278
v 2.666363 0.321726 -0.827723
v 3.410000 0.223526 -0.777834
v 2.766913 1.046615 -1.516201
v 2.426727 1.147354 -1.204573
v 2.532313 1.083421 -0.811342
v 3.297048 1.040984 -0.788389
v 3.620345 1.088011 -1.109928
v 3.400431 1.073832 -1.415619
v 0.169434 0.248352 -0.650921
v 0.203990 0.249032 -0.250574
v 0.377751 0.274441 0.158836
v 1.259828 0.331125 0.213149
v 1.656385 0.255562 -0.180777
v 1.599269 0.177448 -0.578320
v 0.936691 0.328160 -0.836079
v 1.538153 1.063775 -0.521875
v 0.992360 1.149784 -0.794241
v 0.407754 1.084010 -0.566355
v 0.194602 1.113923 -0.274241
v 0.483208 1.154004 0.008246
v 1.122658 1.072571 0.107537
v 1.525351 1.057564 -0.175879
v 2.252795 0.041805 1.790125
v 1.030710 0.103137 2.322033
v 1.503999 0.028582 3.244162
v 2.847338 0.000000 3.273364
v 4.187743 0.191047 2.885259
v 3.478228 0.016586 2.054444
v 1.493557 1.655844 3.313327
v 3.029008 1.582445 3.540146
v 3.683184 1.724580 2.761358
v 3.326237 1.615559 2.102515
v 2.209711 1.665660 1.833803
v 1.075925 1.529965 2.376050
v -4.068420 0.327330 2.691384
v -3.776581 0.153219 3.288138
v -2.326595 0.273245 3.384485
v -1.500372 0.208814 2.793071
v -2.811762 0.084265 2.445442
v -1.393490 1.733240 3.034560
v -2.180480 1.679728 2.317500
v -3.767919 1.619240 2.545732
v -4.236051 1.753135 3.170964
v -2.749354 1.661079 3.552490
v -1.069956 0.376013 -0.091169
v -1.305818 0.393939 0.066279
v -1.504057 0.412000 0.238388
v -1.285542 0.413611 0.423278
v -0.989864 0.370881 0.355261
v -0.768746 0.390536 0.252844
v -0.826176 0.411103 0.065698
v -0.752734 0.808052 0.288372
v -0.785101 0.774431 0.082510
v -1.043213 0.820272 0.012305
v -1.355639 0.812964 -0.008243
v -1.518437 0.747772 0.203569
v -1.267336 0.772751 0.349582
v -1.001335 0.815194 0.413223
v -3.871076 0.359002 -2.590194
v -4.250714 0.369336 -2.461120
v -4.033794 0.404078 -2.223301
v -3.656983 0.415861 -2.118946
v -3.358522 0.374645 -2.320503
v -3.502707 0.431939 -2.563430
v -3.498206 0.829413 -2.593657
v -3.916496 0.799977 -2.624741
v -4.259728 0.780707 -2.440434
v -4.038125 0.849564 -2.195225
v -3.642390 0.786845 -2.151486
v -3.351337 0.783750 -2.339004
v -2.621112 0.371688 2.133658
v -2.574713 0.341458 1.773779
v -2.913771 0.331675 1.606766
v -3.431382 0.325273 1.727863
v -3.136671 0.316624 2.046525
v -2.809560 0.851314 2.138502
v -2.531485 0.782620 1.863898
v -2.751633 0.864621 1.561128
v -3.205112 0.840918 1.683928
v -3.236709 0.822607 1.984020
v 1.338960 0.125166 -1.478634
v -0.038748 0.156355 -1.046589
v 0.020482 0.077310 -0.300039
v 1.614269 0.271277 -0.075965
v 2.592226 0.014792 -0.822378
v 1.344836 1.471335 -1.394399
v -0.010497 1.455621 -1.059727
v -0.146176 1.642474 -0.257158
v 1.428102 1.620461 -0.243567
v 2.512461 1.397689 -0.795509
v -0.002689 0.361510 0.088982
v 0.277914 0.243314 -0.086333
v 0.245391 0.333018 -0.295327
v -0.122419 0.265738 -0.395168
v -0.655308 0.361148 -0.405435
v -0.853668 0.293279 -0.133693
v -0.553411 0.315499 0.117441
v -0.253453 0.937385 -0.394796
v -0.675542 0.964816 -0.305126
v -0.720811 0.907697 -0.060862
v -0.390690 0.943505 0.177729
v 0.209240 1.021118 0.107320
v 0.388361 0.914127 -0.148838
v 0.210248 0.910809 -0.376765
v -2.570156 0.261492 -2.121912
v -2.593860 0.214698 -2.434730
v -2.881526 0.166674 -2.710776
v -3.616735 0.198162 -2.685918
v -4.061939 0.326179 -2.457008
v -3.874876 0.310330 -2.181103
v -3.301654 0.272272 -1.970247
v -3.264848 1.330411 -2.764058
v -4.069756 1.240617 -2.652135
v -4.379807 1.240142 -2.276729
v -3.732490 1.231365 -1.994649
v -2.936987 1.177700 -2.053151
v -2.269699 1.215218 -2.266942
v -2.429924 1.283877 -2.652407
v -1.046979 0.325428 -1.356138
v -0.890445 0.336200 -0.692540
v -0.004364 0.281982 -0.382641
v 0.664217 0.396059 -0.930161
v 0.292529 0.295279 -1.493491
v -0.386789 0.315410 -1.768570
v 0.480689 1.258623 -1.559146
v -0.359818 1.288198 -1.939603
v -0.933980 1.361433 -1.370587
v -0.946958 1.282014 -0.719075
v -0.098494 1.371223 -0.504519
v 0.617932 1.339365 -0.892241
v 4.019392 0.255951 1.424884
v 3.975350 0.371439 1.090515
v 3.627650 0.339198 0.829772
v 3.035059 0.311571 0.871526
v 2.754046 0.397371 1.199227
v 2.940195 0.255755 1.564276
v 3.520274 0.267081 1.530287
v 3.449600 1.090204 1.549120
v 3.914651 0.956983 1.448640
v 3.979069 0.967000 1.141984
v 3.746738 1.023948 0.809990
v 3.130190 1.039330 0.851512
v 2.928885 1.000757 1.160420
v 2.989446 1.084125 1.454839
v 1.618779 0.379948 1.898705
v 1.684954 0.365305 2.069390
v 1.938636 0.320445 2.079840
v 2.135814 0.342702 1.985394
v 2.154775 0.320338 1.806777
v 1.942145 0.372945 1.709704
v 1.727850 0.389534 1.765259
v 1.515041 0.708532 1.883999
v 1.645986 0.673473 2.081048
v 1.922126 0.687537 2.075117
v 2.173197 0.673977 2.012912
v 2.160247 0.682058 1.818374
v 1.948602 0.652661 1.733938
v 1.737352 0.675805 1.757736
v -2.687935 0.310403 2.164985
v -2.211524 0.303891 2.007504
v -2.417975 0.377714 1.745609
v -2.864869 0.370262 1.700937
v -3.250685 0.334113 1.825703
v -3.139999 0.308604 2.061852
v -3.227757 0.858924 1.945383
v -2.981077 0.904488 2.174138
v -2.411860 0.866691 2.134334
v -2.242409 0.892896 1.859581
v -2.585874 0.903291 1.631939
v -3.051503 0.802231 1.745914
v 2.685849 0.301185 -1.002906
v 1.363997 0.161568 -1.735098
v 0.077985 0.074237 -0.964363
v 0.733206 0.234283 -0.088675
v 2.299064 0.241536 0.027631
v 0.454651 1.534351 -1.479334
v 0.381340 1.640455 -0.470553
v 1.471340 1.485065 0.271901
v 2.557034 1.484476 -0.508925
v 2.143104 1.412784 -1.420894
v 3.411964 0.366564 1.044780
v 3.935206 0.386394 1.278662
v 4.370771 0.406865 0.979101
v 4.119987 0.348202 0.623313
v 3.520072 0.350195 0.596559
v 3.400051 0.883219 0.892498
v 3.718734 0.869828 1.249381
v 4.283937 0.878463 1.114323
v 4.232454 0.869577 0.728253
v 3.781729 0.880501 0.646854
v 3.438600 0.378649 0.949058
v 3.078215 0.394115 0.877038
v 2.732801 0.347211 0.933289
v 2.710647 0.344724 1.106641
v 3.012550 0.390665 1.251810
v 3.319493 0.312821 1.117175
v 3.039632 0.816955 1.223938
v 3.338577 0.807331 1.113325
v 3.325544 0.769435 0.965233
v 3.062677 0.734517 0.833086
v 2.739516 0.793509 0.946034
v 2.661441 0.794304 1.129060
v 3.166055 0.347071 -0.581628
v 2.616809 0.163949 -0.229949
v 3.065477 0.207686 0.092246
v 3.708623 0.345974 0.337812
v 4.431592 0.138172 0.115462
v 4.704810 0.332921 -0.244533
v 4.058961 0.337822 -0.489758
v 4.659634 1.327027 0.030436
v 4.378651 1.231650 -0.310442
v 3.805395 1.408115 -0.493229
v 2.999757 1.356122 -0.452623
v 2.524068 1.337577 -0.092105
v 3.199111 1.325566 0.183139
v 4.029890 1.362326 0.342412
v -1.079908 0.252255 0.729501
v -1.665721 0.364642 0.967185
v -1.462256 0.286439 1.458452
v -0.867817 0.247759 1.685151
v -0.273129 0.281893 1.477390
v -0.308944 0.258128 1.053835
v -0.535536 0.286409 0.711293
v -1.204037 1.091781 0.842079
v -1.522030 1.075130 1.162554
v -1.179637 1.014831 1.485169
v -0.607395 1.009336 1.671838
v -0.252443 1.040698 1.293360
v -0.140578 1.080604 0.836616
v -0.718287 1.145255 0.553626
v -2.591594 0.402413 3.366298
v -1.986927 0.295590 2.970020
v -2.499807 0.247165 2.497682
v -3.197076 0.356108 2.675472
v -3.364745 0.366408 3.208483
v -3.270529 1.118867 2.470454
v -3.295066 1.082178 3.075830
v -2.716221 1.072377 3.548477
v -2.094504 1.103170 3.065942
v -2.278331 1.185253 2.445561
v -0.329448 0.420916 -1.752616
v 1.349458 1.135347 -1.326629
v 1.549065 0.940024 -1.785743
v -0.129841 0.225593 -2.211730
v -0.387799 0.624915 -1.864774
v 1.291107 1.339347 -1.438786
v 1.490713 1.144024 -1.897900
v -0.188193 0.429593 -2.323887
vn 0.0143 -0.9998 -0.0161
vn -0.0143 0.9998 0.0161
vn 0.0002 -0.0161 0.9999
vn 0.9999 0.0143 -0.0000
vn -0.0002 0.0161 -0.9999
vn -0.9999 -0.0143 -0.0000
vn -0.1299 -0.9852 -0.1123
vn 0.1299 0.9852 0.1123
vn 0.7454 -0.1717 0.6442
vn 0.6539 -0.0000 -0.7566
vn -0.7454 0.1717 -0.6442
vn -0.6539 -0.0000 0.7566
vn 0.1458 -0.9814 -0.1246
vn -0.1458 0.9814 0.1246
vn -0.7462 -0.1918 0.6375
vn 0.6495 -0.0000 0.7603
vn 0.7462 0.1918 -0.6375
vn -0.6495 -0.0000 -0.7603
vn 0.0166 -0.9998 0.0085
vn -0.0166 0.9998 -0.0085
vn -0.0001 0.0085 1.0000
vn 0.9999 0.0166 -0.0000
vn 0.0001 -0.0085 -1.0000
vn -0.9999 -0.0166 -0.0000
vn -0.0016 -0.9999 0.0165
vn 0.0016 0.9999 -0.0165
vn -0.0000 0.0165 0.9999
vn 1.0000 -0.0016 -0.0000
vn -0.0000 -0.0165 -0.9999
vn -1.0000 0.0016 -0.0000
vn -0.0007 -0.9998 0.0195
vn 0.0007 0.9998 -0.0195
vn -0.0000 0.0195 0.9998
vn 1.0000 -0.0007 -0.0000
vn -0.0000 -0.0195 -0.9998
vn -1.0000 0.0007 -0.0000
vn -0.0078 -0.9997 0.0237
vn 0.0078 0.9997 -0.0237
vn 0.0002 0.0237 0.9997
vn 1.0000 -0.0078 -0.0000
vn -0.0002 -0.0237 -0.9997
vn -1.0000 0.0078 -0.0000
vn -0.0272 -0.9989 0.0379
vn 0.0272 0.9989 -0.0379
vn 0.0010 0.0379 0.9993
vn 0.9996 -0.0272 -0.0000
vn -0.0010 -0.0379 -0.9993
vn -0.9996 0.0272 -0.0000
vn -0.1917 -0.9806 0.0399
vn 0.1917 0.9806 -0.0399
vn -0.5212 0.1362 0.8425
vn 0.1225 0.0165 0.9923
vn 0.7995 -0.1324 0.5859
vn 0.9263 -0.1942 -0.3228
vn -0.0473 -0.0314 -0.9984
vn -0.9589 0.1785 -0.2204
vn -0.0000 -0.0000 -1.0000
vn -0.0000 -0.0000 1.0000
vn -0.0000 1.0000 -0.0000
vn -0.9987 -0.0507 -0.0000
vn -0.9897 0.1434 -0.0000
vn -0.7071 -0.7071 -0.0000
vn -0.0889 -0.9960 -0.0000
vn 0.9964 -0.0843 -0.0000
vn 0.9997 0.0230 -0.0000
vn -0.9997 0.0226 -0.0000
vn -0.9610 -0.2765 -0.0000
vn 0.1082 -0.9941 -0.0000
vn 0.9934 -0.1143 -0.0000
vn 0.9939 0.1104 -0.0000
vn -0.6000 0.8000 -0.0000
vn 0.0930 0.9957 -0.0000
vn -0.3162 0.9487 -0.0000
vn -0.4044 0.9146 -0.0000
vn 0.0531 -0.9986 -0.0000
vn 0.2698 0.9629 -0.0000
vn -0.9935 -0.1135 -0.0000
vn 0.0824 -0.9966 -0.0000
vn 0.9855 -0.1699 -0.0000
vn -0.9990 -0.0445 -0.0000
vn -0.5012 -0.8653 -0.0000
vn 0.6558 -0.7549 -0.0000
vn -0.6015 -0.7989 -0.0000
vn 0.6945 -0.7195 -0.0000
vn 1.0000 -0.0000 -0.0000
vn -1.0000 -0.0000 -0.0000
vn 0.8831 -0.4692 -0.0000
vn 0.9858 -0.1682 -0.0000
vn 0.0002 -0.9996 0.0286
vn -0.0002 0.9996 -0.0286
vn 0.0075 0.0286 0.9996
vn 1.0000 -0.0000 -0.0075
vn -0.0075 -0.0286 -0.9996
vn -1.0000 -0.0000 0.0075
vn 0.0011 -0.9982 0.0594
vn -0.0011 0.9982 -0.0594
vn 0.0182 0.0594 0.9981
vn 0.9998 -0.0000 -0.0182
vn -0.0182 -0.0594 -0.9981
vn -0.9998 -0.0000 0.0182
vn 0.0044 -0.9999 0.0141
vn -0.0044 0.9999 -0.0141
vn -0.0001 0.0141 0.9999
vn 1.0000 0.0044 -0.0000
vn 0.0001 -0.0141 -0.9999
vn -1.0000 -0.0044 -0.0000
vn -0.2314 -0.9721 0.0386
vn 0.2314 0.9721 -0.0386
vn 0.9589 -0.2346 -0.1599
vn -0.1645 -0.0000 -0.9864
vn -0.9589 0.2346 0.1599
vn 0.1645 -0.0000 0.9864
vn 0.1218 -0.9827 -0.1399
vn -0.1218 0.9827 0.1399
vn -0.6452 -0.1854 0.7412
vn 0.7543 -0.0000 0.6566
vn 0.6452 0.1854 -0.7412
vn -0.7542 -0.0000 -0.6566
vn 0.0058 -1.0000 0.0042
vn -0.0058 1.0000 -0.0042
vn -0.0000 0.0042 1.0000
vn 1.0000 0.0058 -0.0000
vn -0.0000 -0.0042 -1.0000
vn -1.0000 -0.0058 -0.0000
vn 0.0195 -0.9873 0.1574
vn -0.0195 0.9873 -0.1574
vn -0.1212 -0.1586 -0.9799
vn -0.9924 -0.0000 0.1228
vn 0.1212 0.1586 0.9799
vn 0.9924 -0.0000 -0.1228
vn 0.1882 -0.9800 0.0646
vn -0.1881 0.9800 -0.0646
vn -0.9269 -0.1990 -0.3183
vn -0.3248 -0.0000 0.9458
vn 0.9269 0.1989 0.3183
vn 0.3248 -0.0000 -0.9458
vn -0.0233 -0.9995 -0.0191
vn 0.0233 0.9995 0.0191
vn -0.0004 -0.0191 0.9998
vn 0.9997 -0.0233 -0.0000
vn 0.0004 0.0191 -0.9998
vn -0.9997 0.0233 -0.0000
vn -0.2671 -0.9627 -0.0431
vn 0.2670 0.9627 0.0431
vn 0.9504 -0.2705 0.1535
vn 0.1594 -0.0000 -0.9872
vn -0.9504 0.2705 -0.1535
vn -0.1594 -0.0000 0.9872
vn -0.1552 -0.9828 -0.1004
vn 0.1552 0.9828 0.1004
vn 0.8252 -0.1849 0.5338
vn 0.5431 -0.0000 -0.8396
vn -0.8251 0.1849 -0.5338
vn -0.5431 -0.0000 0.8396
vn 0.0102 -0.9993 -0.0358
vn -0.0102 0.9993 0.0358
vn 0.0004 -0.0358 0.9994
vn 0.9999 0.0102 -0.0000
vn -0.0004 0.0358 -0.9994
vn -0.9999 -0.0102 -0.0000
vn -0.0243 -0.9996 -0.0173
vn 0.0243 0.9996 0.0173
vn -0.0004 -0.0173 0.9999
vn 0.9997 -0.0243 -0.0000
vn 0.0004 0.0173 -0.9999
vn -0.9997 0.0243 -0.0000
vn 0.0040 -0.9995 -0.0299
vn -0.0040 0.9995 0.0299
vn 0.0001 -0.0299 0.9996
vn 1.0000 0.0040 -0.0000
vn -0.0001 0.0299 -0.9996
vn -1.0000 -0.0040 -0.0000
vn -0.0149 -0.9963 -0.0851
vn 0.0149 0.9963 0.0851
vn -0.4897 -0.0670 0.8693
vn 0.0398 -0.0857 0.9955
vn 0.7178 -0.0699 0.6928
vn 0.9814 0.0017 -0.1919
vn 0.1209 0.0827 -0.9892
vn -0.9363 0.0438 -0.3486
vn -0.9983 -0.0582 -0.0000
vn -0.7693 -0.6389 -0.0000
vn 0.8749 -0.4844 -0.0000
vn -0.8427 -0.5383 -0.0000
vn 0.8950 -0.4460 -0.0000
vn 0.9689 -0.2476 -0.0000
vn 0.3401 -0.9404 -0.0000
vn 0.0004 -0.9974 0.0723
vn -0.0004 0.9974 -0.0723
vn 0.0055 0.0723 0.9974
vn 1.0000 -0.0000 -0.0056
vn -0.0055 -0.0723 -0.9974
vn -1.0000 -0.0000 0.0056
vn -0.0003 -0.9989 -0.0466
vn 0.0003 0.9989 0.0466
vn 0.0070 -0.0466 0.9989
vn 1.0000 -0.0000 -0.0070
vn -0.0070 0.0466 -0.9989
vn -1.0000 -0.0000 0.0070
vn -0.0000 -1.0000 -0.0000
vn -0.0084 -0.9996 0.0285
vn 0.0084 0.9996 -0.0285
vn 0.2835 -0.0297 -0.9585
vn -0.9589 -0.0000 -0.2837
vn -0.2835 0.0297 0.9585
vn 0.9589 -0.0000 0.2837
vn 0.1256 -0.9906 -0.0544
vn -0.1255 0.9906 0.0544
vn -0.9088 -0.1368 0.3942
vn 0.3979 -0.0000 0.9174
vn 0.9088 0.1368 -0.3942
vn -0.3979 -0.0000 -0.9174
vn 0.4647 -0.8614 -0.2049
vn -0.4647 0.8615 0.2049
vn -0.7882 -0.5078 0.3476
vn 0.4035 -0.0000 0.9150
vn 0.7882 0.5078 -0.3476
vn -0.4035 -0.0000 -0.9150
vn 0.0361 -0.9669 0.2524
vn -0.0361 0.9669 -0.2524
vn -0.1369 -0.2550 -0.9572
vn -0.9899 -0.0000 0.1416
vn 0.1369 0.2550 0.9572
vn 0.9899 -0.0000 -0.1416
vn -0.3229 -0.9460 -0.0289
vn 0.3229 0.9460 0.0289
vn 0.9422 -0.3242 0.0842
vn 0.0890 -0.0000 -0.9960
vn -0.9422 0.3242 -0.0842
vn -0.0890 -0.0000 0.9960
vn -0.1702 -0.8244 -0.5399
vn 0.1702 0.8244 0.5399
vn -0.4599 -0.4181 0.7834
vn 0.0024 -0.5482 0.8363
vn 0.5534 -0.5333 0.6398
vn 0.8415 0.1634 -0.5149
vn 0.0361 0.5423 -0.8394
vn -0.8730 0.3802 -0.3053
vn -0.4741 -0.7018 0.5317
vn 0.4741 0.7018 -0.5317
vn 0.0315 0.5900 0.8068
vn 0.2941 0.4430 0.8469
vn 0.7712 -0.0396 0.6353
vn 0.6205 -0.6948 -0.3638
vn -0.3275 -0.4201 -0.8463
vn -0.8788 0.3402 -0.3346
vn -0.6208 -0.6772 -0.3950
vn 0.6208 0.6772 0.3950
vn 0.5713 -0.7358 0.3636
vn 0.5369 -0.0000 -0.8437
vn -0.5713 0.7358 -0.3636
vn -0.5369 -0.0000 0.8437
vn -0.3914 0.9157 -0.0911
vn -0.9627 -0.1527 -0.2234
vn -0.3737 -0.0097 0.9275
vn 0.1273 0.1326 0.9830
vn 0.8680 0.0591 0.4930
vn 0.8494 -0.0118 -0.5276
vn 0.1101 0.1290 -0.9855
vn -0.2559 0.2187 -0.9416
vn -0.0202 0.9983 -0.0538
vn 0.4577 -0.8598 0.2262
vn 0.2248 -0.6261 -0.7467
vn 0.0116 -0.6641 -0.7475
vn -0.5792 -0.8045 0.1312
vn -0.5255 -0.8418 0.1232
vn -0.1148 -0.6078 0.7858
vn 0.1799 -0.6403 0.7468
vn 0.1094 0.9886 -0.1036
vn -0.1958 0.1083 -0.9746
vn -0.8910 -0.2174 -0.3985
vn -0.1762 -0.1470 0.9733
vn 0.4564 -0.2072 0.8653
vn 0.5723 -0.0640 -0.8176
vn -0.1072 0.9856 0.1309
vn -0.9519 -0.1555 0.2640
vn -0.2817 -0.2480 0.9269
vn 0.6115 -0.0874 0.7864
vn 0.4529 -0.0500 -0.8902
vn -0.0959 -0.0626 -0.9934
vn -0.1430 0.9844 0.1028
vn 0.5832 0.1680 -0.7947
vn -0.1099 0.1673 -0.9798
vn -0.9425 -0.1327 -0.3068
vn -0.6823 0.1058 0.7234
vn 0.1066 -0.0357 0.9937
vn 0.1966 -0.6576 -0.7272
vn -0.1109 0.9933 0.0337
vn -0.4893 -0.8306 -0.2657
vn -0.6591 -0.7501 0.0550
vn -0.0595 -0.6747 0.7357
vn 0.4997 -0.7738 0.3893
vn 0.5251 -0.7795 -0.3416
vn 0.1511 -0.5921 -0.7916
vn 0.0880 0.9935 0.0724
vn 0.3429 -0.4446 -0.8275
vn -0.3243 -0.2644 -0.9083
vn -0.7516 -0.4245 -0.5049
vn -0.6098 -0.4060 0.6806
vn -0.1920 -0.4358 0.8793
vn 0.5389 -0.3124 0.7823
vn 0.7705 -0.6372 0.0171
vn 0.0374 0.9988 0.0307
vn -0.1357 -0.7130 0.6879
vn 0.4757 -0.8447 0.2454
vn 0.5785 -0.7951 -0.1819
vn 0.1595 -0.6099 -0.7763
vn 0.6480 0.4128 -0.6401
vn -0.4736 -0.8201 0.3212
vn 0.0966 0.9856 -0.1387
vn 0.4603 -0.7664 -0.4480
vn -0.1104 -0.4485 -0.8869
vn -0.5726 -0.7767 -0.2624
vn -0.2334 -0.6006 0.7647
vn 0.3230 -0.5523 0.7685
vn -0.1644 0.9859 0.0297
vn 0.8203 -0.5709 -0.0357
vn 0.2124 -0.2504 -0.9445
vn 0.0678 -0.5408 -0.8384
vn -0.4569 -0.6886 -0.5631
vn -0.4563 -0.3032 0.8366
vn -0.1475 -0.4191 0.8959
vn 0.3756 -0.5053 0.7769
vn 0.1634 0.9843 -0.0674
vn 0.0788 -0.0698 -0.9944
vn -0.4743 0.0338 -0.8797
vn -0.7340 -0.0498 0.6773
vn -0.0952 0.0907 0.9913
vn 0.5416 0.0285 0.8402
vn 0.8615 -0.0482 -0.5055
vn -0.0473 0.9987 0.0183
vn 0.7093 0.2721 0.6502
vn 0.8132 0.0389 -0.5807
vn -0.2612 -0.0032 -0.9653
vn -0.9156 0.3956 -0.0723
vn -0.3426 0.0482 0.9383
vn 0.0156 0.9744 -0.2242
vn -0.2399 0.0617 -0.9688
vn -0.9964 0.0225 0.0814
vn -0.0090 -0.0283 0.9996
vn 0.4748 0.1727 0.8630
vn 0.4665 0.0441 -0.8834
vn 0.2566 0.9425 -0.2142
vn -0.1945 -0.6792 -0.7077
vn -0.5359 -0.7947 -0.2851
vn -0.3201 -0.7658 0.5578
vn 0.1692 -0.5963 0.7847
vn 0.2895 -0.7943 0.5342
vn 0.4210 -0.8500 -0.3166
vn -0.0063 -0.6340 -0.7733
vn 0.0007 0.9846 0.1751
vn -0.0564 -0.5408 -0.8393
vn -0.4828 -0.7792 -0.3997
vn -0.2987 -0.6854 0.6641
vn 0.0238 -0.5541 0.8321
vn 0.2599 -0.6722 0.6933
vn 0.4492 -0.8285 -0.3343
vn 0.0731 -0.6001 -0.7966
vn -0.1331 0.9841 0.1173
vn 0.2976 -0.6411 -0.7074
vn -0.6618 -0.4329 -0.6121
vn -0.7072 -0.7000 -0.0994
vn -0.1628 -0.4989 0.8512
vn 0.3793 -0.5477 0.7458
vn 0.7420 -0.6665 -0.0720
vn 0.0194 0.9965 -0.0815
vn 0.2107 -0.0016 0.9775
vn 0.9785 -0.0238 0.2048
vn 0.7966 -0.1554 -0.5841
vn -0.0676 -0.0186 -0.9975
vn -0.8312 0.2077 -0.5157
vn -0.9805 0.0819 0.1785
vn -0.2001 -0.0396 0.9790
vn 0.0980 0.9908 -0.0937
vn -0.8278 -0.2386 0.5077
vn 0.0232 -0.0349 0.9991
vn 0.4289 0.0309 0.9028
vn 0.9919 -0.1061 -0.0704
vn 0.4198 0.0227 -0.9073
vn -0.2435 0.0893 -0.9658
vn -0.7746 0.0091 -0.6324
vn -0.2516 0.9499 -0.1855
vn -0.6137 -0.3140 0.7244
vn 0.0551 -0.2008 0.9781
vn 0.8043 -0.3759 0.4602
vn 0.5064 -0.3661 -0.7807
vn -0.2226 -0.0710 -0.9723
vn -0.7598 -0.2483 -0.6008
vn -0.0421 0.9974 -0.0593
vn -0.4920 -0.8688 0.0556
vn -0.4507 -0.7339 0.5081
vn 0.3578 -0.7899 0.4981
vn 0.5290 -0.8304 -0.1748
vn -0.0344 -0.7790 -0.6261
vn 0.0291 0.9992 -0.0269
vn -0.7307 0.1774 0.6592
vn 0.2271 0.1599 0.9607
vn 0.9671 0.2165 -0.1339
vn 0.1792 0.1568 -0.9712
vn -0.5098 0.3270 -0.7957
vn 0.1082 0.9740 -0.1991
vn 0.3264 -0.2709 0.9056
vn 0.8252 -0.5604 0.0708
vn 0.4318 -0.5523 -0.7131
vn -0.3627 -0.2932 -0.8846
vn -0.6781 -0.6769 -0.2863
vn -0.2132 -0.3143 0.9251
vn -0.0575 0.9959 0.0700
vn 0.6054 -0.7405 -0.2919
vn 0.1792 -0.3645 -0.9138
vn -0.0178 -0.4294 -0.9029
vn -0.3997 -0.7222 -0.5645
vn -0.3504 -0.4116 0.8413
vn -0.1328 -0.5552 0.8210
vn 0.3320 -0.5890 0.7368
vn 0.0613 0.9929 0.1018
vn -0.3633 0.0709 -0.9290
vn -0.9167 0.0776 0.3920
vn -0.3488 0.1011 0.9317
vn 0.3332 -0.0976 0.9378
vn 0.9956 -0.0469 -0.0816
vn 0.7829 -0.3037 -0.5430
vn -0.0213 -0.1849 -0.9825
vn -0.0162 0.9906 0.1359
vn -0.6776 -0.7319 -0.0718
vn -0.4177 -0.7614 0.4958
vn 0.4949 -0.6310 0.5974
vn 0.6043 -0.7467 -0.2779
vn 0.0291 -0.7018 -0.7118
vn 0.2431 -0.8500 0.4673
vn -0.2431 0.8500 -0.4673
vn -0.3714 0.3635 0.8544
vn 0.8961 0.3813 0.2274
vn 0.3714 -0.3635 -0.8544
vn -0.8961 -0.3813 -0.2274
vn 0.7454 -0.1717 0.6441
vn 0.2313 0.9721 -0.0386
vn -0.1217 0.9827 0.1399
vn 0.7542 -0.0000 0.6566
vn -0.7543 -0.0000 -0.6566
vn -0.9924 -0.0000 0.1227
vn -0.1882 0.9800 -0.0646
vn -0.9269 -0.1989 -0.3183
vn 0.2671 0.9627 0.0431
vn -0.1553 -0.9828 -0.1004
vn 0.0085 0.9996 -0.0285
vn 0.1255 -0.9906 -0.0544
vn -0.1256 0.9906 0.0544
vn -0.9088 -0.1368 0.3941
vn 0.9088 0.1368 -0.3941
vn -0.4647 0.8614 0.2049
vn -0.0142 0.9956 0.0927
vn -0.1625 0.9678 0.1922
vn -0.0684 0.9937 0.0885
vn 0.2135 0.9713 -0.1051
vn -0.7330 -0.3399 0.5892
vn -0.2047 -0.0657 0.9766
vn 0.7015 -0.0452 0.7112
vn 0.9458 -0.0805 -0.3147
vn 0.5460 -0.0953 -0.8323
vn -0.0576 0.0906 -0.9942
vn -0.9944 -0.0925 -0.0512
vn -0.1345 0.9319 -0.3368
vn 0.1018 0.9941 -0.0386
vn -0.0924 0.9865 -0.1352
vn 0.5530 0.8187 -0.1545
vn -0.2767 0.6705 0.6884
vn -0.2772 0.6411 0.7157
vn 0.2599 0.7631 0.5917
vn 0.5417 0.8100 0.2246
vn 0.1641 0.6268 -0.7617
vn -0.0751 0.6045 -0.7931
vn -0.4002 0.8045 -0.4388
vn -0.0507 0.9960 -0.0732
vn 0.0702 0.9958 -0.0579
vn -0.8460 0.2153 0.4878
vn -0.1184 -0.0820 0.9896
vn 0.5648 -0.1273 0.8153
vn 0.6754 -0.2166 -0.7050
vn -0.1314 0.0114 -0.9913
vn -0.0317 0.9988 0.0381
vn -0.0059 0.9985 0.0550
vn -0.9077 -0.0683 0.4141
vn 0.0403 0.1351 0.9900
vn 0.8938 0.2359 0.3813
vn 0.3017 0.0584 -0.9516
vn -0.3245 0.1486 -0.9341
vn 0.0636 0.9978 -0.0167
vn 0.0388 0.9892 0.1416
vn -0.0235 0.9844 0.1743
vn -0.3133 -0.0066 -0.9496
vn -0.8628 0.0654 -0.5013
vn -0.2861 -0.2406 0.9275
vn 0.1391 -0.0699 0.9878
vn 0.8840 -0.2460 0.3976
vn 0.5270 0.6733 0.5186
vn -0.0499 0.9978 0.0440
vn 0.3357 0.9399 0.0627
vn 0.0564 0.9979 -0.0333
vn 0.4308 0.6731 -0.6011
vn 0.0533 0.6746 -0.7362
vn -0.5310 0.7819 -0.3266
vn -0.5357 0.7832 0.3156
vn 0.0256 0.6000 0.7996
vn 0.3288 0.7599 0.5608
vn 0.1444 0.9893 0.0231
vn -0.1497 0.9836 -0.1002
vn -0.0224 0.9928 -0.1180
vn 0.1156 0.9910 0.0681
vn -0.7322 0.6783 0.0620
vn -0.8717 0.3445 0.3486
vn -0.0834 0.4424 0.8929
vn 0.5851 0.6671 0.4611
vn 0.7767 0.5875 -0.2270
vn 0.4101 0.4075 -0.8159
vn -0.2498 0.5458 -0.7998
vn -0.1496 0.9866 -0.0659
vn 0.0436 0.9987 0.0277
vn -0.2441 0.9693 -0.0281
vn -0.2173 0.7784 -0.5889
vn -0.5312 0.7780 0.3355
vn -0.0051 0.5878 0.8090
vn 0.1151 0.6744 0.7294
vn -0.3590 -0.3896 -0.8481
vn 0.1612 0.7164 -0.6788
vn -0.0575 0.9983 -0.0114
vn -0.0385 0.9993 -0.0026
vn -0.4601 0.7663 0.4486
vn -0.0963 0.4501 0.8878
vn 0.4619 0.6784 0.5714
vn 0.1615 0.5628 -0.8107
vn -0.0985 0.4088 -0.9073
vn -0.0487 0.9869 -0.1535
vn 0.1764 0.9843 -0.0060
vn -0.0311 0.9924 0.1192
vn -0.1867 0.9701 0.1551
vn -0.4140 0.5959 -0.6881
vn -0.6135 0.2847 -0.7366
vn -0.5296 0.5779 0.6209
vn 0.2583 0.6500 0.7147
vn 0.3834 0.2772 0.8810
vn 0.8270 0.5269 -0.1959
vn 0.4658 0.3658 -0.8057
vn 0.0909 0.9880 0.1248
vn -0.0753 0.9946 0.0712
vn -0.1364 0.9790 -0.1516
vn -0.3227 -0.1069 -0.9405
vn -0.7342 -0.0501 0.6770
vn -0.2645 -0.0632 0.9623
vn 0.5637 0.0501 0.8245
vn 0.8553 -0.0384 -0.5167
vn 0.0873 -0.0765 -0.9932
vn -0.0856 0.9950 0.0517
vn 0.2865 0.9567 0.0508
vn 0.9827 -0.1243 0.1371
vn 0.4370 -0.2079 -0.8751
vn -0.2280 0.0171 -0.9735
vn -0.7336 -0.0614 0.6768
vn -0.1587 -0.0723 0.9847
vn 0.1321 0.9818 -0.1368
vn -0.0424 0.9912 -0.1254
vn -0.2993 -0.0031 -0.9542
vn -0.9846 -0.1009 -0.1430
vn -0.1506 0.1014 0.9834
vn 0.6099 0.0198 0.7923
vn 0.4584 0.0535 -0.8871
vn 0.0644 0.9730 -0.2216
vn 0.0659 0.9978 0.0051
vn -0.2338 0.9555 0.1801
vn -0.1331 0.9902 -0.0425
vn 0.5272 0.7909 0.3106
vn 0.5394 0.8009 0.2598
vn 0.0812 0.6620 -0.7451
vn 0.1089 0.5170 -0.8490
vn -0.4457 0.8892 -0.1033
vn -0.3920 0.8308 0.3951
vn -0.0137 0.6397 0.7685
vn 0.0282 0.9799 0.1975
vn -0.1016 0.9926 0.0661
vn 0.0790 0.9815 0.1744
vn 0.0096 0.9999 0.0092
vn 0.5792 0.7986 -0.1634
vn 0.3855 0.7534 -0.5327
vn -0.0043 0.5557 -0.8313
vn -0.2056 0.6277 -0.7508
vn -0.4458 0.8240 0.3496
vn -0.2176 0.6676 0.7120
vn 0.1726 0.5872 0.7908
vn -0.0188 0.9930 -0.1164
vn 0.0666 0.9953 -0.0697
vn 0.0592 0.9959 -0.0684
vn -0.7519 0.6378 0.1670
vn -0.2518 0.5264 0.8121
vn 0.4287 0.6239 0.6534
vn 0.5680 0.6593 -0.4927
vn 0.3568 0.3802 -0.8533
vn -0.4341 0.5565 -0.7084
vn 0.0448 0.9587 -0.2807
vn 0.2926 0.9517 0.0926
vn -0.1755 0.9844 0.0086
vn 0.2306 0.9730 0.0055
vn 0.9856 0.1499 -0.0780
vn 0.5948 0.0655 -0.8012
vn -0.0695 -0.0167 -0.9974
vn -0.7463 0.0794 -0.6608
vn -0.8120 0.2686 0.5182
vn 0.0555 0.1275 0.9903
vn 0.2065 -0.0047 0.9784
vn 0.1771 0.9825 0.0571
vn -0.0510 0.9987 -0.0072
vn 0.0631 0.9973 0.0372
vn -0.0942 0.9896 -0.1085
vn -0.9281 -0.1305 0.3486
vn -0.0392 0.0111 0.9992
vn 0.2337 -0.1067 0.9664
vn 0.9940 -0.0185 0.1078
vn 0.3609 0.0722 -0.9298
vn -0.1143 -0.0223 -0.9932
vn -0.5060 -0.1973 -0.8397
vn 0.0421 0.9702 -0.2386
vn 0.0696 0.9964 0.0485
vn -0.0233 0.9965 0.0807
vn 0.3125 0.1397 0.9396
vn 0.7738 0.3882 -0.5005
vn 0.0947 0.1841 -0.9783
vn -0.3108 0.0398 -0.9496
vn -0.8058 0.4149 0.4225
vn -0.2199 0.1683 0.9609
vn 0.0749 0.9923 -0.0989
vn 0.1339 0.9909 0.0108
vn 0.2743 0.7237 -0.6332
vn -0.3542 0.7893 -0.5016
vn -0.5128 0.8264 0.2327
vn -0.0505 0.7739 0.6312
vn 0.4370 0.8735 0.2146
vn 0.0199 0.9996 0.0198
vn -0.0113 0.9998 0.0165
vn -0.4010 -0.1246 0.9076
vn 0.5660 -0.1292 0.8142
vn 0.8206 -0.0627 -0.5681
vn 0.0447 0.0725 -0.9964
vn -0.9689 -0.0902 -0.2304
vn -0.0530 0.9982 -0.0270
vn -0.0586 0.9683 -0.2426
vn -0.0255 0.9779 -0.2077
vn 0.1965 0.3905 -0.8994
vn -0.1963 0.3450 -0.9178
vn -0.7695 0.6323 -0.0893
vn -0.4495 0.3265 0.8315
vn 0.4450 0.5915 0.6724
vn 0.7311 0.2735 0.6251
vn -0.0570 0.9727 -0.2251
vn 0.3025 0.9527 -0.0291
vn -0.0609 0.9959 0.0670
vn -0.0021 0.9988 0.0487
vn -0.4951 0.7898 -0.3621
vn -0.5010 0.6088 0.6151
vn -0.3999 0.3741 0.8367
vn 0.3851 0.7137 0.5851
vn 0.5291 0.5106 0.6778
vn 0.2856 0.6091 -0.7399
vn 0.0973 0.4163 -0.9040
vn -0.0188 0.9883 0.1515
vn 0.0651 0.9911 0.1161
vn -0.0133 0.9974 0.0702
vn -0.0031 0.9929 0.1189
vn -0.6810 0.3190 -0.6592
vn -0.6471 0.2243 0.7287
vn -0.3068 0.1214 0.9440
vn 0.7155 0.1462 0.6831
vn 0.9647 -0.1383 0.2242
vn 0.4321 -0.0731 -0.8988
vn -0.5134 0.0391 -0.8573
vn -0.0652 0.9962 0.0577
vn -0.0171 0.9990 0.0417
vn 0.4694 0.7101 0.5249
vn 0.4011 0.7588 -0.5133
vn -0.1130 0.5861 -0.8023
vn -0.6832 0.6937 -0.2283
vn -0.1739 0.7006 0.6921
vt 0.025250 0.025250
vt 0.224750 0.224750
vt 0.025250 0.224750
vt 0.224750 0.025250
vt 0.974750 0.025250
vt 0.775250 0.224750
vt 0.775250 0.025250
vt 0.974750 0.224750
vt 0.025250 0.125000
vt 0.075125 0.038614
vt 0.224750 0.125000
vt 0.174875 0.038614
vt 0.535128 0.081720
vt 0.602804 0.027751
vt 0.687193 0.047012
vt 0.602804 0.222249
vt 0.724750 0.025250
vt 0.525250 0.224750
vt 0.525250 0.025250
vt 0.525250 0.125000
vt 0.575125 0.038614
vt 0.724750 0.125000
vt 0.674875 0.038614
vt 0.575125 0.211386
vt 0.674875 0.211386
vt 0.724750 0.224750
vt 0.352804 0.027751
vt 0.437193 0.047012
vt 0.352804 0.222249
vt 0.285128 0.081720
vt 0.474750 0.025250
vt 0.275250 0.224750
vt 0.275250 0.025250
vt 0.294301 0.066368
vt 0.474750 0.125000
vt 0.294301 0.183632
vt 0.405824 0.030132
vt 0.474750 0.224750
vt 0.075125 0.211386
vt 0.224750 0.275250
vt 0.025250 0.474750
vt 0.025250 0.275250
vt 0.285128 0.418280
vt 0.285128 0.331720
vt 0.352804 0.277751
vt 0.275250 0.275250
vt 0.474750 0.474750
vt 0.275250 0.474750
vt 0.602804 0.277751
vt 0.687193 0.297012
vt 0.602804 0.472249
vt 0.525250 0.275250
vt 0.724750 0.474750
vt 0.525250 0.474750
vt 0.655824 0.469868
vt 0.544301 0.433632
vt 0.544301 0.316368
vt 0.655824 0.280132
vt 0.724750 0.275250
vt 0.687193 0.452988
vt 0.044301 0.183632
vt 0.044301 0.066368
vt 0.155824 0.030132
vt 0.437193 0.297012
vt 0.352804 0.472249
vt 0.525250 0.375000
vt 0.575125 0.288614
vt 0.674875 0.461386
vt 0.724750 0.375000
vt 0.655824 0.219868
vt 0.544301 0.183632
vt 0.544301 0.066368
vt 0.035128 0.081720
vt 0.102804 0.027751
vt 0.187193 0.047012
vt 0.535128 0.168280
vt 0.102804 0.222249
vt 0.674875 0.288614
vt 0.655824 0.030132
vt 0.174875 0.211386
vt 0.687193 0.202988
vt 0.437193 0.202988
vt 0.285128 0.168280
vt 0.405824 0.219868
vt 0.224750 0.474750
vt 0.474750 0.375000
vt 0.437193 0.452988
vt 0.474750 0.275250
vt 0.535128 0.418280
vt 0.535128 0.331720
vt 0.155824 0.219868
vt 0.575125 0.461386
vt 0.187193 0.202988
vt 0.035128 0.168280
s 0
f 1/1/1 3/2/1 2/3/1
f 5/1/2 7/2/2 8/3/2
f 2/4/3 5/3/3 1/1/3
f 3/4/4 6/3/4 2/1/4
f 4/4/5 7/3/5 3/1/5
f 1/4/6 8/3/6 4/1/6
f 12/5/7 10/6/7 9/7/7
f 14/5/8 16/6/8 13/7/8
f 10/5/9 13/6/9 9/7/9
f 11/5/10 14/6/10 10/7/10
f 12/5/11 15/6/11 11/7/11
f 12/7/12 13/8/12 16/6/12
f 20/5/13 18/6/13 17/7/13
f 22/5/14 24/6/14 21/7/14
f 17/7/15 22/8/15 21/6/15
f 18/7/16 23/8/16 22/6/16
f 20/5/17 23/6/17 19/7/17
f 17/5/18 24/6/18 20/7/18
f 25/1/19 27/2/19 26/3/19
f 30/4/20 32/3/20 29/1/20
f 26/4/21 29/3/21 25/1/21
f 26/1/22 31/2/22 30/3/22
f 28/4/23 31/3/23 27/1/23
f 28/1/24 29/2/24 32/3/24
f 33/1/25 35/2/25 34/3/25
f 37/1/26 39/2/26 40/3/26
f 34/4/27 37/3/27 33/1/27
f 35/4/28 38/3/28 34/1/28
f 35/1/29 40/2/29 39/3/29
f 36/1/30 37/2/30 40/3/30
f 44/4/31 42/3/31 41/1/31
f 45/1/32 47/2/32 48/3/32
f 42/4/33 45/3/33 41/1/33
f 43/4/34 46/3/34 42/1/34
f 44/4/35 47/3/35 43/1/35
f 41/4/36 48/3/36 44/1/36
f 52/4/37 50/3/37 49/1/37
f 54/4/38 56/3/38 53/1/38
f 50/4/39 53/3/39 49/1/39
f 51/4/40 54/3/40 50/1/40
f 52/4/41 55/3/41 51/1/41
f 52/1/42 53/2/42 56/3/42
f 57/1/43 59/2/43 58/3/43
f 62/4/44 64/3/44 61/1/44
f 58/4/45 61/3/45 57/1/45
f 59/4/46 62/3/46 58/1/46
f 60/4/47 63/3/47 59/1/47
f 60/1/48 61/2/48 64/3/48
f 67/9/49 66/10/49 70/11/49
f 74/9/50 75/10/50 76/12/50
f 66/4/51 71/3/51 65/1/51
f 67/4/52 72/3/52 66/1/52
f 67/1/53 74/2/53 73/3/53
f 69/4/54 74/3/54 68/1/54
f 70/4/55 75/3/55 69/1/55
f 65/4/56 76/3/56 70/1/56
f 79/13/57 78/14/57 77/15/57
f 86/16/58 88/13/58 90/15/58
f 78/17/59 84/18/59 77/19/59
f 79/17/60 85/18/60 78/19/60
f 80/17/61 86/18/61 79/19/61
f 81/17/62 87/18/62 80/19/62
f 82/17/63 88/18/63 81/19/63
f 83/17/64 89/18/64 82/19/64
f 77/17/65 90/18/65 83/19/65
f 93/20/57 92/21/57 96/22/57
f 102/23/58 99/24/58 101/21/58
f 92/17/59 97/18/59 91/19/59
f 93/17/66 98/18/66 92/19/66
f 94/17/67 99/18/67 93/19/67
f 95/17/68 100/18/68 94/19/68
f 96/17/69 101/18/69 95/19/69
f 91/17/70 102/18/70 96/19/70
f 104/21/57 103/23/57 108/22/57
f 113/21/58 114/23/58 110/25/58
f 104/17/71 109/18/71 103/19/71
f 105/17/72 110/18/72 104/19/72
f 106/17/73 111/18/73 105/19/73
f 107/17/74 112/18/74 106/19/74
f 108/17/75 113/18/75 107/19/75
f 103/17/76 114/18/76 108/19/76
f 118/19/57 116/26/57 115/18/57
f 120/17/58 122/18/58 119/19/58
f 116/17/59 119/18/59 115/19/59
f 117/17/77 120/18/77 116/19/77
f 118/17/78 121/18/78 117/19/78
f 115/17/79 122/18/79 118/19/79
f 124/27/57 123/28/57 127/29/57
f 134/30/58 135/27/58 136/28/58
f 124/31/59 130/32/59 123/33/59
f 125/31/80 131/32/80 124/33/80
f 126/31/81 132/32/81 125/33/81
f 127/31/82 133/32/82 126/33/82
f 128/31/83 134/32/83 127/33/83
f 129/31/84 135/32/84 128/33/84
f 123/31/85 136/32/85 129/33/85
f 138/34/57 141/35/57 139/36/57
f 144/36/58 145/34/58 146/37/58
f 138/31/59 142/32/59 137/33/59
f 139/31/86 143/32/86 138/33/86
f 140/31/81 144/32/81 139/33/81
f 141/31/87 145/32/87 140/33/87
f 137/31/88 146/32/88 141/33/88
f 150/31/89 148/32/89 147/33/89
f 152/31/90 154/32/90 151/33/90
f 148/31/91 151/32/91 147/33/91
f 148/33/92 153/38/92 152/32/92
f 150/31/93 153/32/93 149/33/93
f 150/33/94 151/38/94 154/32/94
f 158/31/95 156/32/95 155/33/95
f 160/31/96 162/32/96 159/33/96
f 156/31/97 159/32/97 155/33/97
f 157/31/98 160/32/98 156/33/98
f 158/31/99 161/32/99 157/33/99
f 155/31/100 162/32/100 158/33/100
f 166/4/101 164/3/101 163/1/101
f 167/1/102 169/2/102 170/3/102
f 164/4/103 167/3/103 163/1/103
f 164/1/104 169/2/104 168/3/104
f 166/4/105 169/3/105 165/1/105
f 163/4/106 170/3/106 166/1/106
f 174/5/107 172/6/107 171/7/107
f 175/7/108 177/8/108 178/6/108
f 172/5/109 175/6/109 171/7/109
f 172/7/110 177/8/110 176/6/110
f 174/5/111 177/6/111 173/7/111
f 171/5/112 178/6/112 174/7/112
f 179/7/113 181/8/113 180/6/113
f 184/5/114 186/6/114 183/7/114
f 179/7/115 184/8/115 183/6/115
f 181/5/116 184/6/116 180/7/116
f 182/5/117 185/6/117 181/7/117
f 179/5/118 186/6/118 182/7/118
f 190/4/119 188/3/119 187/1/119
f 191/1/120 193/2/120 194/3/120
f 187/1/121 192/2/121 191/3/121
f 189/4/122 192/3/122 188/1/122
f 189/1/123 194/2/123 193/3/123
f 187/4/124 194/3/124 190/1/124
f 198/5/125 196/6/125 195/7/125
f 200/5/126 202/6/126 199/7/126
f 195/7/127 200/8/127 199/6/127
f 197/5/128 200/6/128 196/7/128
f 198/5/129 201/6/129 197/7/129
f 195/5/130 202/6/130 198/7/130
f 203/7/131 205/8/131 204/6/131
f 207/7/132 209/8/132 210/6/132
f 203/7/133 208/8/133 207/6/133
f 205/5/134 208/6/134 204/7/134
f 205/7/135 210/8/135 209/6/135
f 206/7/136 207/8/136 210/6/136
f 214/4/137 212/3/137 211/1/137
f 215/1/138 217/2/138 218/3/138
f 211/1/139 216/2/139 215/3/139
f 213/4/140 216/3/140 212/1/140
f 214/4/141 217/3/141 213/1/141
f 211/4/142 218/3/142 214/1/142
f 222/5/143 220/6/143 219/7/143
f 224/5/144 226/6/144 223/7/144
f 220/5/145 223/6/145 219/7/145
f 221/5/146 224/6/146 220/7/146
f 221/7/147 226/8/147 225/6/147
f 222/7/148 223/8/148 226/6/148
f 227/7/149 229/8/149 228/6/149
f 232/5/150 234/6/150 231/7/150
f 228/5/151 231/6/151 227/7/151
f 228/7/152 233/8/152 232/6/152
f 230/5/153 233/6/153 229/7/153
f 227/5/154 234/6/154 230/7/154
f 235/1/155 237/2/155 236/3/155
f 240/4/156 242/3/156 239/1/156
f 236/4/157 239/3/157 235/1/157
f 237/4/158 240/3/158 236/1/158
f 238/4/159 241/3/159 237/1/159
f 238/1/160 239/2/160 242/3/160
f 246/4/161 244/3/161 243/1/161
f 248/4/162 250/3/162 247/1/162
f 244/4/163 247/3/163 243/1/163
f 244/1/164 249/2/164 248/3/164
f 246/4/165 249/3/165 245/1/165
f 243/4/166 250/3/166 246/1/166
f 254/4/167 252/3/167 251/1/167
f 256/4/168 258/3/168 255/1/168
f 252/4/169 255/3/169 251/1/169
f 252/1/170 257/2/170 256/3/170
f 254/4/171 257/3/171 253/1/171
f 254/1/172 255/2/172 258/3/172
f 261/9/173 260/10/173 264/11/173
f 270/12/174 267/39/174 269/10/174
f 260/4/175 265/3/175 259/1/175
f 261/4/176 266/3/176 260/1/176
f 261/1/177 268/2/177 267/3/177
f 263/4/178 268/3/178 262/1/178
f 264/4/179 269/3/179 263/1/179
f 259/4/180 270/3/180 264/1/180
f 272/27/57 271/28/57 275/29/57
f 282/30/58 283/27/58 284/28/58
f 272/31/59 278/32/59 271/33/59
f 273/31/181 279/32/181 272/33/181
f 274/31/182 280/32/182 273/33/182
f 275/31/183 281/32/183 274/33/183
f 276/31/184 282/32/184 275/33/184
f 277/31/185 283/32/185 276/33/185
f 271/31/85 284/32/85 277/33/85
f 289/35/57 287/36/57 286/34/57
f 292/36/58 293/34/58 294/37/58
f 286/31/59 290/32/59 285/33/59
f 287/31/86 291/32/86 286/33/86
f 288/31/182 292/32/182 287/33/182
f 289/31/186 293/32/186 288/33/186
f 285/31/187 294/32/187 289/33/187
f 298/31/188 296/32/188 295/33/188
f 300/31/189 302/32/189 299/33/189
f 296/31/190 299/32/190 295/33/190
f 297/31/191 300/32/191 296/33/191
f 297/33/192 302/38/192 301/32/192
f 295/31/193 302/32/193 298/33/193
f 306/31/194 304/32/194 303/33/194
f 308/31/195 310/32/195 307/33/195
f 304/31/196 307/32/196 303/33/196
f 305/31/197 308/32/197 304/33/197
f 306/31/198 309/32/198 305/33/198
f 303/31/199 310/32/199 306/33/199
f 314/40/200 312/41/200 311/42/200
f 316/40/59 318/41/59 315/42/59
f 312/40/58 315/41/58 311/42/58
f 313/40/85 316/41/85 312/42/85
f 314/40/57 317/41/57 313/42/57
f 311/40/86 318/41/86 314/42/86
f 322/5/201 320/6/201 319/7/201
f 324/5/202 326/6/202 323/7/202
f 320/5/203 323/6/203 319/7/203
f 320/7/204 325/8/204 324/6/204
f 322/5/205 325/6/205 321/7/205
f 319/5/206 326/6/206 322/7/206
f 330/5/207 328/6/207 327/7/207
f 331/7/208 333/8/208 334/6/208
f 328/5/209 331/6/209 327/7/209
f 329/5/210 332/6/210 328/7/210
f 330/5/211 333/6/211 329/7/211
f 327/5/212 334/6/212 330/7/212
f 338/5/213 336/6/213 335/7/213
f 340/5/214 342/6/214 339/7/214
f 336/5/215 339/6/215 335/7/215
f 337/5/216 340/6/216 336/7/216
f 338/5/217 341/6/217 337/7/217
f 335/5/218 342/6/218 338/7/218
f 346/5/219 344/6/219 343/7/219
f 348/5/220 350/6/220 347/7/220
f 344/5/221 347/6/221 343/7/221
f 344/7/222 349/8/222 348/6/222
f 346/5/223 349/6/223 345/7/223
f 343/5/224 350/6/224 346/7/224
f 351/7/225 353/8/225 352/6/225
f 356/5/226 358/6/226 355/7/226
f 352/5/227 355/6/227 351/7/227
f 352/7/228 357/8/228 356/6/228
f 354/5/229 357/6/229 353/7/229
f 351/5/230 358/6/230 354/7/230
f 361/9/231 360/10/231 364/11/231
f 370/12/232 367/39/232 369/10/232
f 359/1/233 366/2/233 365/3/233
f 361/4/234 366/3/234 360/1/234
f 362/4/235 367/3/235 361/1/235
f 363/4/236 368/3/236 362/1/236
f 364/4/237 369/3/237 363/1/237
f 364/1/238 365/2/238 370/3/238
f 373/9/239 372/10/239 376/11/239
f 382/12/240 379/39/240 381/10/240
f 371/1/241 378/2/241 377/3/241
f 372/1/242 379/2/242 378/3/242
f 374/4/243 379/3/243 373/1/243
f 375/4/244 380/3/244 374/1/244
f 376/4/245 381/3/245 375/1/245
f 371/4/246 382/3/246 376/1/246
f 386/5/247 384/6/247 383/7/247
f 388/5/248 390/6/248 387/7/248
f 384/5/249 387/6/249 383/7/249
f 385/5/250 388/6/250 384/7/250
f 386/5/251 389/6/251 385/7/251
f 383/5/252 390/6/252 386/7/252
f 394/5/247 392/6/247 391/7/247
f 395/7/248 397/8/248 398/6/248
f 392/5/249 395/6/249 391/7/249
f 393/5/250 396/6/250 392/7/250
f 394/5/251 397/6/251 393/7/251
f 391/5/252 398/6/252 394/7/252
f 402/5/247 400/6/247 399/7/247
f 403/7/248 405/8/248 406/6/248
f 400/5/249 403/6/249 399/7/249
f 400/7/250 405/8/250 404/6/250
f 402/5/251 405/6/251 401/7/251
f 399/5/252 406/6/252 402/7/252
f 407/7/247 409/8/247 408/6/247
f 412/5/248 414/6/248 411/7/248
f 408/5/249 411/6/249 407/7/249
f 408/7/250 413/8/250 412/6/250
f 409/7/251 414/8/251 413/6/251
f 407/5/252 414/6/252 410/7/252
f 425/43/253 426/44/253 427/45/253
f 415/46/254 423/47/254 422/48/254
f 416/46/255 424/47/255 423/48/255
f 417/46/256 425/47/256 424/48/256
f 418/46/257 426/47/257 425/48/257
f 419/46/258 427/47/258 426/48/258
f 420/46/259 428/47/259 427/48/259
f 421/46/260 422/47/260 428/48/260
f 441/49/261 442/50/261 438/51/261
f 429/52/262 437/53/262 436/54/262
f 430/52/263 438/53/263 437/54/263
f 431/52/264 439/53/264 438/54/264
f 432/52/265 440/53/265 439/54/265
f 433/52/266 441/53/266 440/54/266
f 434/52/267 442/53/267 441/54/267
f 435/52/268 436/53/268 442/54/268
f 449/55/269 450/56/269 451/57/269
f 443/52/270 449/53/270 448/54/270
f 444/52/271 450/53/271 449/54/271
f 445/52/272 451/53/272 450/54/272
f 446/52/273 452/53/273 451/54/273
f 447/52/274 448/53/274 452/54/274
f 460/56/275 461/57/275 462/58/275
f 454/59/276 458/54/276 453/52/276
f 455/59/277 459/54/277 454/52/277
f 456/59/278 460/54/278 455/52/278
f 457/59/279 461/54/279 456/52/279
f 453/59/280 462/54/280 457/52/280
f 472/9/281 473/10/281 469/11/281
f 464/4/282 469/3/282 463/1/282
f 465/4/283 470/3/283 464/1/283
f 466/4/284 471/3/284 465/1/284
f 467/4/285 472/3/285 466/1/285
f 468/4/286 473/3/286 467/1/286
f 468/1/287 469/2/287 474/3/287
f 484/9/288 485/10/288 486/12/288
f 475/1/289 482/2/289 481/3/289
f 476/1/290 483/2/290 482/3/290
f 477/1/291 484/2/291 483/3/291
f 478/1/292 485/2/292 484/3/292
f 479/1/293 486/2/293 485/3/293
f 480/1/294 481/2/294 486/3/294
f 499/49/295 500/50/295 495/60/295
f 487/52/296 495/53/296 494/54/296
f 488/52/297 496/53/297 495/54/297
f 489/52/298 497/53/298 496/54/298
f 490/52/299 498/53/299 497/54/299
f 491/52/300 499/53/300 498/54/300
f 492/52/301 500/53/301 499/54/301
f 493/52/302 494/53/302 500/54/302
f 510/20/303 511/21/303 508/25/303
f 501/19/304 508/26/304 507/18/304
f 502/19/305 509/26/305 508/18/305
f 503/19/306 510/26/306 509/18/306
f 504/19/307 511/26/307 510/18/307
f 506/17/308 511/18/308 505/19/308
f 506/19/309 507/26/309 512/18/309
f 520/61/310 521/62/310 522/63/310
f 513/1/311 519/2/311 518/3/311
f 514/1/312 520/2/312 519/3/312
f 515/1/313 521/2/313 520/3/313
f 516/1/314 522/2/314 521/3/314
f 517/1/315 518/2/315 522/3/315
f 535/45/316 536/64/316 532/65/316
f 523/46/317 531/47/317 530/48/317
f 524/46/318 532/47/318 531/48/318
f 525/46/319 533/47/319 532/48/319
f 526/46/320 534/47/320 533/48/320
f 527/46/321 535/47/321 534/48/321
f 528/46/322 536/47/322 535/48/322
f 529/46/323 530/47/323 536/48/323
f 546/66/324 547/67/324 544/68/324
f 537/52/325 544/53/325 543/54/325
f 538/52/326 545/53/326 544/54/326
f 539/52/327 546/53/327 545/54/327
f 540/52/328 547/53/328 546/54/328
f 541/52/329 548/53/329 547/54/329
f 542/52/330 543/53/330 548/54/330
f 557/57/331 554/69/331 556/56/331
f 549/52/332 555/53/332 554/54/332
f 550/52/333 556/53/333 555/54/333
f 551/52/334 557/53/334 556/54/334
f 552/52/335 558/53/335 557/54/335
f 553/52/336 554/53/336 558/54/336
f 565/70/337 566/71/337 567/72/337
f 559/19/338 565/26/338 564/18/338
f 561/17/339 565/18/339 560/19/339
f 561/19/340 567/26/340 566/18/340
f 562/19/341 568/26/341 567/18/341
f 559/17/342 568/18/342 563/19/342
f 580/44/343 581/45/343 582/64/343
f 569/46/344 577/47/344 576/48/344
f 570/46/345 578/47/345 577/48/345
f 571/46/346 579/47/346 578/48/346
f 572/46/347 580/47/347 579/48/347
f 573/46/348 581/47/348 580/48/348
f 574/46/349 582/47/349 581/48/349
f 575/46/350 576/47/350 582/48/350
f 594/73/351 595/74/351 596/75/351
f 583/1/352 591/2/352 590/3/352
f 584/1/353 592/2/353 591/3/353
f 585/1/354 593/2/354 592/3/354
f 586/1/355 594/2/355 593/3/355
f 587/1/356 595/2/356 594/3/356
f 588/1/357 596/2/357 595/3/357
f 589/1/358 590/2/358 596/3/358
f 605/24/359 606/20/359 607/21/359
f 597/19/360 604/26/360 603/18/360
f 598/19/361 605/26/361 604/18/361
f 599/19/362 606/26/362 605/18/362
f 600/19/363 607/26/363 606/18/363
f 601/19/364 608/26/364 607/18/364
f 602/19/365 603/26/365 608/18/365
f 619/76/366 620/13/366 616/22/366
f 609/19/367 617/26/367 616/18/367
f 610/19/368 618/26/368 617/18/368
f 611/19/369 619/26/369 618/18/369
f 612/19/370 620/26/370 619/18/370
f 613/19/371 621/26/371 620/18/371
f 614/19/372 622/26/372 621/18/372
f 615/19/373 616/26/373 622/18/373
f 635/74/374 636/75/374 632/77/374
f 623/1/375 631/2/375 630/3/375
f 624/1/376 632/2/376 631/3/376
f 626/4/377 632/3/377 625/1/377
f 626/1/378 634/2/378 633/3/378
f 628/4/379 634/3/379 627/1/379
f 629/4/380 635/3/380 628/1/380
f 623/4/381 636/3/381 629/1/381
f 647/67/382 648/78/382 644/68/382
f 637/52/383 644/53/383 643/54/383
f 638/52/384 645/53/384 644/54/384
f 639/52/385 646/53/385 645/54/385
f 640/52/386 647/53/386 646/54/386
f 641/52/387 648/53/387 647/54/387
f 642/52/388 643/53/388 648/54/388
f 656/71/389 657/72/389 658/79/389
f 649/19/390 655/26/390 654/18/390
f 650/19/391 656/26/391 655/18/391
f 651/19/392 657/26/392 656/18/392
f 652/19/393 658/26/393 657/18/393
f 653/19/394 654/26/394 658/18/394
f 666/56/395 667/57/395 668/58/395
f 659/52/396 665/53/396 664/54/396
f 660/52/397 666/53/397 665/54/397
f 661/52/398 667/53/398 666/54/398
f 662/52/399 668/53/399 667/54/399
f 663/52/400 664/53/400 668/54/400
f 678/9/401 679/10/401 675/11/401
f 669/1/402 676/2/402 675/3/402
f 670/1/403 677/2/403 676/3/403
f 671/1/404 678/2/404 677/3/404
f 672/1/405 679/2/405 678/3/405
f 673/1/406 680/2/406 679/3/406
f 674/1/407 675/2/407 680/3/407
f 693/74/408 694/75/408 690/77/408
f 681/1/409 689/2/409 688/3/409
f 682/1/410 690/2/410 689/3/410
f 683/1/411 691/2/411 690/3/411
f 684/1/412 692/2/412 691/3/412
f 685/1/413 693/2/413 692/3/413
f 686/1/414 694/2/414 693/3/414
f 687/1/415 688/2/415 694/3/415
f 706/13/416 707/14/416 708/15/416
f 696/17/417 702/18/417 695/19/417
f 697/17/418 703/18/418 696/19/418
f 698/17/419 704/18/419 697/19/419
f 699/17/420 705/18/420 698/19/420
f 700/17/421 706/18/421 699/19/421
f 701/17/422 707/18/422 700/19/422
f 695/17/423 708/18/423 701/19/423
f 715/55/424 717/57/424 718/58/424
f 709/52/425 715/53/425 714/54/425
f 710/52/426 716/53/426 715/54/426
f 711/52/427 717/53/427 716/54/427
f 712/52/428 718/53/428 717/54/428
f 713/52/429 714/53/429 718/54/429
f 719/1/430 721/2/430 720/3/430
f 724/4/431 726/3/431 723/1/431
f 719/1/432 724/2/432 723/3/432
f 721/4/433 724/3/433 720/1/433
f 722/4/434 725/3/434 721/1/434
f 722/1/435 723/2/435 726/3/435
f 1/1/1 4/4/1 3/2/1
f 5/1/2 6/4/2 7/2/2
f 2/4/3 6/2/3 5/3/3
f 3/4/4 7/2/4 6/3/4
f 4/4/5 8/2/5 7/3/5
f 1/4/6 5/2/6 8/3/6
f 12/5/7 11/8/7 10/6/7
f 14/5/8 15/8/8 16/6/8
f 10/5/436 14/8/436 13/6/436
f 11/5/10 15/8/10 14/6/10
f 12/5/11 16/8/11 15/6/11
f 12/7/12 9/5/12 13/8/12
f 20/5/13 19/8/13 18/6/13
f 22/5/14 23/8/14 24/6/14
f 17/7/15 18/5/15 22/8/15
f 18/7/16 19/5/16 23/8/16
f 20/5/17 24/8/17 23/6/17
f 17/5/18 21/8/18 24/6/18
f 25/1/19 28/4/19 27/2/19
f 30/4/20 31/2/20 32/3/20
f 26/4/21 30/2/21 29/3/21
f 26/1/22 27/4/22 31/2/22
f 28/4/23 32/2/23 31/3/23
f 28/1/24 25/4/24 29/2/24
f 33/1/25 36/4/25 35/2/25
f 37/1/26 38/4/26 39/2/26
f 34/4/27 38/2/27 37/3/27
f 35/4/28 39/2/28 38/3/28
f 35/1/29 36/4/29 40/2/29
f 36/1/30 33/4/30 37/2/30
f 44/4/31 43/2/31 42/3/31
f 45/1/32 46/4/32 47/2/32
f 42/4/33 46/2/33 45/3/33
f 43/4/34 47/2/34 46/3/34
f 44/4/35 48/2/35 47/3/35
f 41/4/36 45/2/36 48/3/36
f 52/4/37 51/2/37 50/3/37
f 54/4/38 55/2/38 56/3/38
f 50/4/39 54/2/39 53/3/39
f 51/4/40 55/2/40 54/3/40
f 52/4/41 56/2/41 55/3/41
f 52/1/42 49/4/42 53/2/42
f 57/1/43 60/4/43 59/2/43
f 62/4/44 63/2/44 64/3/44
f 58/4/45 62/2/45 61/3/45
f 59/4/46 63/2/46 62/3/46
f 60/4/47 64/2/47 63/3/47
f 60/1/48 57/4/48 61/2/48
f 65/12/49 70/11/49 66/10/49
f 70/11/49 69/80/49 68/39/49
f 67/9/49 70/11/49 68/39/49
f 76/12/50 71/11/50 72/80/50
f 72/80/50 73/39/50 76/12/50
f 73/39/50 74/9/50 76/12/50
f 66/4/51 72/2/51 71/3/51
f 67/4/52 73/2/52 72/3/52
f 67/1/53 68/4/53 74/2/53
f 69/4/54 75/2/54 74/3/54
f 70/4/55 76/2/55 75/3/55
f 65/4/56 71/2/56 76/3/56
f 77/15/57 83/22/57 79/13/57
f 83/22/57 82/81/57 81/16/57
f 79/13/57 83/22/57 81/16/57
f 81/16/57 80/76/57 79/13/57
f 90/15/58 84/22/58 86/16/58
f 84/22/58 85/81/58 86/16/58
f 86/16/58 87/76/58 88/13/58
f 88/13/58 89/14/58 90/15/58
f 78/17/59 85/26/59 84/18/59
f 79/17/60 86/26/60 85/18/60
f 80/17/61 87/26/61 86/18/61
f 81/17/62 88/26/62 87/18/62
f 82/17/63 89/26/63 88/18/63
f 83/17/64 90/26/64 89/18/64
f 77/17/65 84/26/65 90/18/65
f 91/23/57 96/22/57 92/21/57
f 96/22/57 95/25/57 93/20/57
f 95/25/57 94/24/57 93/20/57
f 102/23/58 97/22/58 98/25/58
f 98/25/58 99/24/58 102/23/58
f 99/24/58 100/20/58 101/21/58
f 92/17/59 98/26/59 97/18/59
f 93/17/66 99/26/66 98/18/66
f 94/17/67 100/26/67 99/18/67
f 95/17/68 101/26/68 100/18/68
f 96/17/69 102/26/69 101/18/69
f 91/17/70 97/26/70 102/18/70
f 108/22/57 107/25/57 104/21/57
f 107/25/57 106/24/57 104/21/57
f 106/24/57 105/20/57 104/21/57
f 114/23/58 109/22/58 110/25/58
f 110/25/58 111/24/58 112/20/58
f 112/20/58 113/21/58 110/25/58
f 104/17/71 110/26/71 109/18/71
f 105/17/72 111/26/72 110/18/72
f 106/17/73 112/26/73 111/18/73
f 107/17/74 113/26/74 112/18/74
f 108/17/75 114/26/75 113/18/75
f 103/17/76 109/26/76 114/18/76
f 118/19/57 117/17/57 116/26/57
f 120/17/58 121/26/58 122/18/58
f 116/17/59 120/26/59 119/18/59
f 117/17/77 121/26/77 120/18/77
f 118/17/78 122/26/78 121/18/78
f 115/17/79 119/26/79 122/18/79
f 123/28/57 129/35/57 127/29/57
f 129/35/57 128/82/57 127/29/57
f 127/29/57 126/83/57 125/30/57
f 125/30/57 124/27/57 127/29/57
f 136/28/58 130/35/58 134/30/58
f 130/35/58 131/82/58 134/30/58
f 131/82/58 132/29/58 134/30/58
f 132/29/58 133/83/58 134/30/58
f 124/31/59 131/38/59 130/32/59
f 125/31/80 132/38/80 131/32/80
f 126/31/81 133/38/81 132/32/81
f 127/31/82 134/38/82 133/32/82
f 128/31/83 135/38/83 134/32/83
f 129/31/84 136/38/84 135/32/84
f 123/31/85 130/38/85 136/32/85
f 137/37/57 141/35/57 138/34/57
f 141/35/57 140/84/57 139/36/57
f 146/37/58 142/35/58 143/84/58
f 143/84/58 144/36/58 146/37/58
f 138/31/59 143/38/59 142/32/59
f 139/31/86 144/38/86 143/32/86
f 140/31/81 145/38/81 144/32/81
f 141/31/87 146/38/87 145/32/87
f 137/31/88 142/38/88 146/32/88
f 150/31/89 149/38/89 148/32/89
f 152/31/90 153/38/90 154/32/90
f 148/31/91 152/38/91 151/32/91
f 148/33/92 149/31/92 153/38/92
f 150/31/93 154/38/93 153/32/93
f 150/33/94 147/31/94 151/38/94
f 158/31/95 157/38/95 156/32/95
f 160/31/96 161/38/96 162/32/96
f 156/31/97 160/38/97 159/32/97
f 157/31/98 161/38/98 160/32/98
f 158/31/99 162/38/99 161/32/99
f 155/31/100 159/38/100 162/32/100
f 166/4/101 165/2/101 164/3/101
f 167/1/102 168/4/102 169/2/102
f 164/4/103 168/2/103 167/3/103
f 164/1/104 165/4/104 169/2/104
f 166/4/105 170/2/105 169/3/105
f 163/4/106 167/2/106 170/3/106
f 174/5/107 173/8/107 172/6/107
f 175/7/437 176/5/437 177/8/437
f 172/5/109 176/8/109 175/6/109
f 172/7/110 173/5/110 177/8/110
f 174/5/111 178/8/111 177/6/111
f 171/5/112 175/8/112 178/6/112
f 179/7/113 182/5/113 181/8/113
f 184/5/438 185/8/438 186/6/438
f 179/7/115 180/5/115 184/8/115
f 181/5/439 185/8/439 184/6/439
f 182/5/117 186/8/117 185/6/117
f 179/5/440 183/8/440 186/6/440
f 190/4/119 189/2/119 188/3/119
f 191/1/120 192/4/120 193/2/120
f 187/1/121 188/4/121 192/2/121
f 189/4/122 193/2/122 192/3/122
f 189/1/123 190/4/123 194/2/123
f 187/4/124 191/2/124 194/3/124
f 198/5/125 197/8/125 196/6/125
f 200/5/126 201/8/126 202/6/126
f 195/7/127 196/5/127 200/8/127
f 197/5/441 201/8/441 200/6/441
f 198/5/129 202/8/129 201/6/129
f 195/5/130 199/8/130 202/6/130
f 203/7/131 206/5/131 205/8/131
f 207/7/442 208/5/442 209/8/442
f 203/7/443 204/5/443 208/8/443
f 205/5/134 209/8/134 208/6/134
f 205/7/135 206/5/135 210/8/135
f 206/7/136 203/5/136 207/8/136
f 214/4/137 213/2/137 212/3/137
f 215/1/138 216/4/138 217/2/138
f 211/1/139 212/4/139 216/2/139
f 213/4/140 217/2/140 216/3/140
f 214/4/141 218/2/141 217/3/141
f 211/4/142 215/2/142 218/3/142
f 222/5/143 221/8/143 220/6/143
f 224/5/444 225/8/444 226/6/444
f 220/5/145 224/8/145 223/6/145
f 221/5/146 225/8/146 224/6/146
f 221/7/147 222/5/147 226/8/147
f 222/7/148 219/5/148 223/8/148
f 227/7/445 230/5/445 229/8/445
f 232/5/150 233/8/150 234/6/150
f 228/5/151 232/8/151 231/6/151
f 228/7/152 229/5/152 233/8/152
f 230/5/153 234/8/153 233/6/153
f 227/5/154 231/8/154 234/6/154
f 235/1/155 238/4/155 237/2/155
f 240/4/156 241/2/156 242/3/156
f 236/4/157 240/2/157 239/3/157
f 237/4/158 241/2/158 240/3/158
f 238/4/159 242/2/159 241/3/159
f 238/1/160 235/4/160 239/2/160
f 246/4/161 245/2/161 244/3/161
f 248/4/162 249/2/162 250/3/162
f 244/4/163 248/2/163 247/3/163
f 244/1/164 245/4/164 249/2/164
f 246/4/165 250/2/165 249/3/165
f 243/4/166 247/2/166 250/3/166
f 254/4/167 253/2/167 252/3/167
f 256/4/168 257/2/168 258/3/168
f 252/4/169 256/2/169 255/3/169
f 252/1/170 253/4/170 257/2/170
f 254/4/171 258/2/171 257/3/171
f 254/1/172 251/4/172 255/2/172
f 259/12/173 264/11/173 260/10/173
f 264/11/173 263/80/173 261/9/173
f 263/80/173 262/39/173 261/9/173
f 270/12/174 265/11/174 266/80/174
f 266/80/174 267/39/174 270/12/174
f 267/39/174 268/9/174 269/10/174
f 260/4/175 266/2/175 265/3/175
f 261/4/176 267/2/176 266/3/176
f 261/1/177 262/4/177 268/2/177
f 263/4/178 269/2/178 268/3/178
f 264/4/179 270/2/179 269/3/179
f 259/4/180 265/2/180 270/3/180
f 271/28/57 277/35/57 275/29/57
f 277/35/57 276/82/57 275/29/57
f 275/29/57 274/83/57 273/30/57
f 273/30/57 272/27/57 275/29/57
f 284/28/58 278/35/58 282/30/58
f 278/35/58 279/82/58 282/30/58
f 279/82/58 280/29/58 282/30/58
f 280/29/58 281/83/58 282/30/58
f 272/31/59 279/38/59 278/32/59
f 273/31/181 280/38/181 279/32/181
f 274/31/182 281/38/182 280/32/182
f 275/31/183 282/38/183 281/32/183
f 276/31/184 283/38/184 282/32/184
f 277/31/185 284/38/185 283/32/185
f 271/31/85 278/38/85 284/32/85
f 289/35/57 288/84/57 287/36/57
f 286/34/57 285/37/57 289/35/57
f 294/37/58 290/35/58 291/84/58
f 291/84/58 292/36/58 294/37/58
f 286/31/59 291/38/59 290/32/59
f 287/31/86 292/38/86 291/32/86
f 288/31/182 293/38/182 292/32/182
f 289/31/186 294/38/186 293/32/186
f 285/31/187 290/38/187 294/32/187
f 298/31/188 297/38/188 296/32/188
f 300/31/189 301/38/189 302/32/189
f 296/31/190 300/38/190 299/32/190
f 297/31/191 301/38/191 300/32/191
f 297/33/192 298/31/192 302/38/192
f 295/31/193 299/38/193 302/32/193
f 306/31/194 305/38/194 304/32/194
f 308/31/195 309/38/195 310/32/195
f 304/31/196 308/38/196 307/32/196
f 305/31/197 309/38/197 308/32/197
f 306/31/198 310/38/198 309/32/198
f 303/31/199 307/38/199 310/32/199
f 314/40/200 313/85/200 312/41/200
f 316/40/59 317/85/59 318/41/59
f 312/40/58 316/85/58 315/41/58
f 313/40/85 317/85/85 316/41/85
f 314/40/57 318/85/57 317/41/57
f 311/40/86 315/85/86 318/41/86
f 322/5/201 321/8/201 320/6/201
f 324/5/446 325/8/446 326/6/446
f 320/5/203 324/8/203 323/6/203
f 320/7/204 321/5/204 325/8/204
f 322/5/205 326/8/205 325/6/205
f 319/5/206 323/8/206 326/6/206
f 330/5/447 329/8/447 328/6/447
f 331/7/448 332/5/448 333/8/448
f 328/5/449 332/8/449 331/6/449
f 329/5/210 333/8/210 332/6/210
f 330/5/450 334/8/450 333/6/450
f 327/5/212 331/8/212 334/6/212
f 338/5/213 337/8/213 336/6/213
f 340/5/451 341/8/451 342/6/451
f 336/5/215 340/8/215 339/6/215
f 337/5/216 341/8/216 340/6/216
f 338/5/217 342/8/217 341/6/217
f 335/5/218 339/8/218 342/6/218
f 346/5/219 345/8/219 344/6/219
f 348/5/220 349/8/220 350/6/220
f 344/5/221 348/8/221 347/6/221
f 344/7/222 345/5/222 349/8/222
f 346/5/223 350/8/223 349/6/223
f 343/5/224 347/8/224 350/6/224
f 351/7/225 354/5/225 353/8/225
f 356/5/226 357/8/226 358/6/226
f 352/5/227 356/8/227 355/6/227
f 352/7/228 353/5/228 357/8/228
f 354/5/229 358/8/229 357/6/229
f 351/5/230 355/8/230 358/6/230
f 359/12/231 364/11/231 360/10/231
f 364/11/231 363/80/231 361/9/231
f 363/80/231 362/39/231 361/9/231
f 370/12/232 365/11/232 366/80/232
f 366/80/232 367/39/232 370/12/232
f 367/39/232 368/9/232 369/10/232
f 359/1/233 360/4/233 366/2/233
f 361/4/234 367/2/234 366/3/234
f 362/4/235 368/2/235 367/3/235
f 363/4/236 369/2/236 368/3/236
f 364/4/237 370/2/237 369/3/237
f 364/1/238 359/4/238 365/2/238
f 371/12/239 376/11/239 372/10/239
f 376/11/239 375/80/239 373/9/239
f 375/80/239 374/39/239 373/9/239
f 382/12/240 377/11/240 378/80/240
f 378/80/240 379/39/240 382/12/240
f 379/39/240 380/9/240 381/10/240
f 371/1/241 372/4/241 378/2/241
f 372/1/242 373/4/242 379/2/242
f 374/4/243 380/2/243 379/3/243
f 375/4/244 381/2/244 380/3/244
f 376/4/245 382/2/245 381/3/245
f 371/4/246 377/2/246 382/3/246
f 386/5/247 385/8/247 384/6/247
f 388/5/248 389/8/248 390/6/248
f 384/5/249 388/8/249 387/6/249
f 385/5/250 389/8/250 388/6/250
f 386/5/251 390/8/251 389/6/251
f 383/5/252 387/8/252 390/6/252
f 394/5/247 393/8/247 392/6/247
f 395/7/248 396/5/248 397/8/248
f 392/5/249 396/8/249 395/6/249
f 393/5/250 397/8/250 396/6/250
f 394/5/251 398/8/251 397/6/251
f 391/5/252 395/8/252 398/6/252
f 402/5/247 401/8/247 400/6/247
f 403/7/248 404/5/248 405/8/248
f 400/5/249 404/8/249 403/6/249
f 400/7/250 401/5/250 405/8/250
f 402/5/251 406/8/251 405/6/251
f 399/5/252 403/8/252 406/6/252
f 407/7/247 410/5/247 409/8/247
f 412/5/248 413/8/248 414/6/248
f 408/5/249 412/8/249 411/6/249
f 408/7/250 409/5/250 413/8/250
f 409/7/251 410/5/251 414/8/251
f 407/5/252 411/8/252 414/6/252
f 428/64/452 422/86/452 424/65/452
f 422/86/453 423/87/453 424/65/453
f 424/65/454 425/43/454 428/64/454
f 428/64/455 425/43/455 427/45/455
f 415/46/456 416/88/456 423/47/456
f 416/46/457 417/88/457 424/47/457
f 417/46/458 418/88/458 425/47/458
f 418/46/459 419/88/459 426/47/459
f 419/46/460 420/88/460 427/47/460
f 420/46/461 421/88/461 428/47/461
f 421/46/462 415/88/462 422/47/462
f 442/50/463 436/69/463 437/60/463
f 437/60/464 438/51/464 442/50/464
f 438/51/465 439/89/465 441/49/465
f 439/89/466 440/90/466 441/49/466
f 429/52/467 430/59/467 437/53/467
f 430/52/468 431/59/468 438/53/468
f 431/52/469 432/59/469 439/53/469
f 432/52/470 433/59/470 440/53/470
f 433/52/471 434/59/471 441/53/471
f 434/52/472 435/59/472 442/53/472
f 435/52/473 429/59/473 436/53/473
f 452/58/474 448/69/474 451/57/474
f 448/69/475 449/55/475 451/57/475
f 443/52/476 444/59/476 449/53/476
f 444/52/477 445/59/477 450/53/477
f 445/52/478 446/59/478 451/53/478
f 446/52/479 447/59/479 452/53/479
f 447/52/480 443/59/480 448/53/480
f 462/58/481 458/69/481 459/55/481
f 459/55/482 460/56/482 462/58/482
f 454/59/483 459/53/483 458/54/483
f 455/59/484 460/53/484 459/54/484
f 456/59/485 461/53/485 460/54/485
f 457/59/486 462/53/486 461/54/486
f 453/59/487 458/53/487 462/54/487
f 474/12/488 469/11/488 473/10/488
f 469/11/489 470/80/489 472/9/489
f 470/80/490 471/39/490 472/9/490
f 464/4/491 470/2/491 469/3/491
f 465/4/492 471/2/492 470/3/492
f 466/4/493 472/2/493 471/3/493
f 467/4/494 473/2/494 472/3/494
f 468/4/495 474/2/495 473/3/495
f 468/1/496 463/4/496 469/2/496
f 486/12/497 481/11/497 484/9/497
f 481/11/498 482/80/498 483/39/498
f 484/9/499 481/11/499 483/39/499
f 475/1/500 476/4/500 482/2/500
f 476/1/501 477/4/501 483/2/501
f 477/1/502 478/4/502 484/2/502
f 478/1/503 479/4/503 485/2/503
f 479/1/504 480/4/504 486/2/504
f 480/1/505 475/4/505 481/2/505
f 500/50/506 494/69/506 495/60/506
f 495/60/507 496/51/507 498/90/507
f 496/51/508 497/89/508 498/90/508
f 498/90/509 499/49/509 495/60/509
f 487/52/510 488/59/510 495/53/510
f 488/52/511 489/59/511 496/53/511
f 489/52/512 490/59/512 497/53/512
f 490/52/513 491/59/513 498/53/513
f 491/52/514 492/59/514 499/53/514
f 492/52/515 493/59/515 500/53/515
f 493/52/516 487/59/516 494/53/516
f 512/23/517 507/22/517 511/21/517
f 507/22/518 508/25/518 511/21/518
f 508/25/519 509/24/519 510/20/519
f 501/19/520 502/17/520 508/26/520
f 502/19/521 503/17/521 509/26/521
f 503/19/522 504/17/522 510/26/522
f 504/19/523 505/17/523 511/26/523
f 506/17/524 512/26/524 511/18/524
f 506/19/525 501/17/525 507/26/525
f 522/63/526 518/11/526 519/91/526
f 519/91/527 520/61/527 522/63/527
f 513/1/528 514/4/528 519/2/528
f 514/1/529 515/4/529 520/2/529
f 515/1/530 516/4/530 521/2/530
f 516/1/531 517/4/531 522/2/531
f 517/1/532 513/4/532 518/2/532
f 536/64/533 530/86/533 531/87/533
f 531/87/534 532/65/534 536/64/534
f 532/65/535 533/43/535 535/45/535
f 533/43/536 534/44/536 535/45/536
f 523/46/537 524/88/537 531/47/537
f 524/46/538 525/88/538 532/47/538
f 525/46/539 526/88/539 533/47/539
f 526/46/540 527/88/540 534/47/540
f 527/46/541 528/88/541 535/47/541
f 528/46/542 529/88/542 536/47/542
f 529/46/543 523/88/543 530/47/543
f 548/78/544 543/69/544 547/67/544
f 543/69/545 544/68/545 547/67/545
f 544/68/546 545/92/546 546/66/546
f 537/52/547 538/59/547 544/53/547
f 538/52/548 539/59/548 545/53/548
f 539/52/549 540/59/549 546/53/549
f 540/52/550 541/59/550 547/53/550
f 541/52/551 542/59/551 548/53/551
f 542/52/552 537/59/552 543/53/552
f 558/58/553 554/69/553 557/57/553
f 554/69/554 555/55/554 556/56/554
f 549/52/555 550/59/555 555/53/555
f 550/52/556 551/59/556 556/53/556
f 551/52/557 552/59/557 557/53/557
f 552/52/558 553/59/558 558/53/558
f 553/52/559 549/59/559 554/53/559
f 568/79/560 564/22/560 567/72/560
f 564/22/561 565/70/561 567/72/561
f 559/19/562 560/17/562 565/26/562
f 561/17/563 566/26/563 565/18/563
f 561/19/564 562/17/564 567/26/564
f 562/19/565 563/17/565 568/26/565
f 559/17/566 564/26/566 568/18/566
f 582/64/567 576/86/567 580/44/567
f 576/86/568 577/87/568 579/43/568
f 577/87/569 578/65/569 579/43/569
f 579/43/570 580/44/570 576/86/570
f 569/46/571 570/88/571 577/47/571
f 570/46/572 571/88/572 578/47/572
f 571/46/573 572/88/573 579/47/573
f 572/46/574 573/88/574 580/47/574
f 573/46/575 574/88/575 581/47/575
f 574/46/576 575/88/576 582/47/576
f 575/46/577 569/88/577 576/47/577
f 596/75/578 590/11/578 594/73/578
f 590/11/579 591/93/579 593/94/579
f 594/73/580 590/11/580 593/94/580
f 591/93/581 592/77/581 593/94/581
f 583/1/582 584/4/582 591/2/582
f 584/1/583 585/4/583 592/2/583
f 585/1/584 586/4/584 593/2/584
f 586/1/585 587/4/585 594/2/585
f 587/1/586 588/4/586 595/2/586
f 588/1/587 589/4/587 596/2/587
f 589/1/588 583/4/588 590/2/588
f 608/23/589 603/22/589 607/21/589
f 603/22/590 604/25/590 607/21/590
f 604/25/591 605/24/591 607/21/591
f 597/19/592 598/17/592 604/26/592
f 598/19/593 599/17/593 605/26/593
f 599/19/594 600/17/594 606/26/594
f 600/19/595 601/17/595 607/26/595
f 601/19/596 602/17/596 608/26/596
f 602/19/597 597/17/597 603/26/597
f 622/15/598 616/22/598 621/14/598
f 616/22/599 617/81/599 618/16/599
f 621/14/600 616/22/600 620/13/600
f 618/16/601 619/76/601 616/22/601
f 609/19/602 610/17/602 617/26/602
f 610/19/603 611/17/603 618/26/603
f 611/19/604 612/17/604 619/26/604
f 612/19/605 613/17/605 620/26/605
f 613/19/606 614/17/606 621/26/606
f 614/19/607 615/17/607 622/26/607
f 615/19/608 609/17/608 616/26/608
f 636/75/609 630/11/609 631/93/609
f 631/93/610 632/77/610 636/75/610
f 632/77/611 633/94/611 634/73/611
f 635/74/612 632/77/612 634/73/612
f 623/1/613 624/4/613 631/2/613
f 624/1/614 625/4/614 632/2/614
f 626/4/615 633/2/615 632/3/615
f 626/1/616 627/4/616 634/2/616
f 628/4/617 635/2/617 634/3/617
f 629/4/618 636/2/618 635/3/618
f 623/4/619 630/2/619 636/3/619
f 648/78/620 643/69/620 644/68/620
f 644/68/621 645/92/621 647/67/621
f 645/92/622 646/66/622 647/67/622
f 637/52/623 638/59/623 644/53/623
f 638/52/624 639/59/624 645/53/624
f 639/52/625 640/59/625 646/53/625
f 640/52/626 641/59/626 647/53/626
f 641/52/627 642/59/627 648/53/627
f 642/52/628 637/59/628 643/53/628
f 658/79/629 654/22/629 655/70/629
f 655/70/630 656/71/630 658/79/630
f 649/19/631 650/17/631 655/26/631
f 650/19/632 651/17/632 656/26/632
f 651/19/633 652/17/633 657/26/633
f 652/19/634 653/17/634 658/26/634
f 653/19/635 649/17/635 654/26/635
f 668/58/636 664/69/636 665/55/636
f 665/55/637 666/56/637 668/58/637
f 659/52/638 660/59/638 665/53/638
f 660/52/639 661/59/639 666/53/639
f 661/52/640 662/59/640 667/53/640
f 662/52/641 663/59/641 668/53/641
f 663/52/642 659/59/642 664/53/642
f 680/12/643 675/11/643 679/10/643
f 675/11/644 676/80/644 677/39/644
f 678/9/645 675/11/645 677/39/645
f 669/1/646 670/4/646 676/2/646
f 670/1/647 671/4/647 677/2/647
f 671/1/648 672/4/648 678/2/648
f 672/1/649 673/4/649 679/2/649
f 673/1/650 674/4/650 680/2/650
f 674/1/651 669/4/651 675/2/651
f 694/75/652 688/11/652 689/93/652
f 689/93/653 690/77/653 694/75/653
f 690/77/654 691/94/654 693/74/654
f 691/94/655 692/73/655 693/74/655
f 681/1/656 682/4/656 689/2/656
f 682/1/657 683/4/657 690/2/657
f 683/1/658 684/4/658 691/2/658
f 684/1/659 685/4/659 692/2/659
f 685/1/660 686/4/660 693/2/660
f 686/1/661 687/4/661 694/2/661
f 687/1/662 681/4/662 688/2/662
f 708/15/663 702/22/663 706/13/663
f 702/22/664 703/81/664 704/16/664
f 706/13/665 704/16/665 705/76/665
f 702/22/666 704/16/666 706/13/666
f 696/17/667 703/26/667 702/18/667
f 697/17/668 704/26/668 703/18/668
f 698/17/669 705/26/669 704/18/669
f 699/17/670 706/26/670 705/18/670
f 700/17/671 707/26/671 706/18/671
f 701/17/672 708/26/672 707/18/672
f 695/17/673 702/26/673 708/18/673
f 718/58/674 714/69/674 715/55/674
f 715/55/675 716/56/675 717/57/675
f 709/52/676 710/59/676 715/53/676
f 710/52/677 711/59/677 716/53/677
f 711/52/678 712/59/678 717/53/678
f 712/52/679 713/59/679 718/53/679
f 713/52/680 709/59/680 714/53/680
f 719/1/430 722/4/430 721/2/430
f 724/4/431 725/2/431 726/3/431
f 719/1/432 720/4/432 724/2/432
f 721/4/433 725/2/433 724/3/433
f 722/4/434 726/2/434 725/3/434
f 722/1/435 719/4/435 723/2/435
