# Blender 4.4.3
# www.blender.org
o ruin_clinic
v -5.200000 0.407147 4.200000
v 5.200000 0.407147 4.200000
v 5.200000 0.407147 -4.200000
v -5.200000 0.407147 -4.200000
v -5.200000 0.647147 4.200000
v 5.200000 0.647147 4.200000
v 5.200000 0.647147 -4.200000
v -5.200000 0.647147 -4.200000
v -4.900000 0.407147 0.210000
v -4.500000 0.407147 0.210000
v -4.500000 0.407147 -0.210000
v -4.900000 0.407147 -0.210000
v -4.900000 3.307147 0.210000
v -4.500000 3.307147 0.210000
v -4.500000 3.307147 -0.210000
v -4.900000 3.307147 -0.210000
v -1.800000 0.407147 0.210000
v -1.400000 0.407147 0.210000
v -1.400000 0.407147 -0.210000
v -1.800000 0.407147 -0.210000
v -1.800000 3.307147 0.210000
v -1.400000 3.307147 0.210000
v -1.400000 3.307147 -0.210000
v -1.800000 3.307147 -0.210000
v 1.400000 0.407147 0.210000
v 1.800000 0.407147 0.210000
v 1.800000 0.407147 -0.210000
v 1.400000 0.407147 -0.210000
v 1.400000 3.307147 0.210000
v 1.800000 3.307147 0.210000
v 1.800000 3.307147 -0.210000
v 1.400000 3.307147 -0.210000
v 4.500000 0.407147 0.210000
v 4.900000 0.407147 0.210000
v 4.900000 0.407147 -0.210000
v 4.500000 0.407147 -0.210000
v 4.500000 3.307147 0.210000
v 4.900000 3.307147 0.210000
v 4.900000 3.307147 -0.210000
v 4.500000 3.307147 -0.210000
v -4.900000 3.157147 3.850000
v 4.900000 3.157147 3.850000
v 4.900000 3.157147 -3.850000
v -4.900000 3.157147 -3.850000
v -4.900000 3.457147 3.850000
v 4.900000 3.457147 3.850000
v 4.900000 3.457147 -3.850000
v -4.900000 3.457147 -3.850000
v -4.500000 0.507147 3.960000
v -0.900000 0.507147 3.960000
v -0.950000 1.595147 3.960000
v -0.810000 2.607147 3.960000
v -0.930000 2.727147 3.960000
v -4.500000 2.617147 3.960000
v -4.540000 2.175147 3.960000
v -4.500000 0.507147 3.740000
v -0.900000 0.507147 3.740000
v -0.950000 1.595147 3.740000
v -0.810000 2.607147 3.740000
v -0.930000 2.727147 3.740000
v -4.500000 2.617147 3.740000
v -4.540000 2.175147 3.740000
v 1.300000 0.507147 3.960000
v 4.400000 0.507147 3.960000
v 4.440000 2.201147 3.960000
v 4.320000 2.591147 3.960000
v 1.330000 2.687147 3.960000
v 1.200000 1.507147 3.960000
v 1.300000 0.507147 3.740000
v 4.400000 0.507147 3.740000
v 4.440000 2.201147 3.740000
v 4.320000 2.591147 3.740000
v 1.330000 2.687147 3.740000
v 1.200000 1.507147 3.740000
v -0.900000 2.607147 3.960000
v -0.780000 2.697147 3.960000
v 1.180000 2.567147 3.960000
v 1.300000 2.607147 3.960000
v 4.312000 3.007147 3.960000
v -4.410000 2.773147 3.960000
v -0.900000 2.607147 3.740000
v -0.780000 2.697147 3.740000
v 1.180000 2.567147 3.740000
v 1.300000 2.607147 3.740000
v 4.312000 3.007147 3.740000
v -4.410000 2.773147 3.740000
v -0.900000 0.507147 3.960000
v 1.300000 0.507147 3.960000
v 1.220000 0.987147 3.960000
v -0.800000 0.867147 3.960000
v -0.900000 0.507147 3.740000
v 1.300000 0.507147 3.740000
v 1.220000 0.987147 3.740000
v -0.800000 0.867147 3.740000
v -4.900000 3.407147 0.210000
v -4.500000 3.407147 0.210000
v -4.500000 3.407147 -0.210000
v -4.900000 3.407147 -0.210000
v -4.900000 6.307147 0.210000
v -4.500000 6.307147 0.210000
v -4.500000 6.307147 -0.210000
v -4.900000 6.307147 -0.210000
v -1.800000 3.407147 0.210000
v -1.400000 3.407147 0.210000
v -1.400000 3.407147 -0.210000
v -1.800000 3.407147 -0.210000
v -1.800000 6.307147 0.210000
v -1.400000 6.307147 0.210000
v -1.400000 6.307147 -0.210000
v -1.800000 6.307147 -0.210000
v 1.400000 3.407147 0.210000
v 1.800000 3.407147 0.210000
v 1.800000 3.407147 -0.210000
v 1.400000 3.407147 -0.210000
v 1.400000 6.307147 0.210000
v 1.800000 6.307147 0.210000
v 1.800000 6.307147 -0.210000
v 1.400000 6.307147 -0.210000
v 4.500000 3.407147 0.210000
v 4.900000 3.407147 0.210000
v 4.900000 3.407147 -0.210000
v 4.500000 3.407147 -0.210000
v 4.500000 6.307147 0.210000
v 4.900000 6.307147 0.210000
v 4.900000 6.307147 -0.210000
v 4.500000 6.307147 -0.210000
v -4.900000 6.157147 3.850000
v 4.900000 6.157147 3.850000
v 4.900000 6.157147 -3.850000
v -4.900000 6.157147 -3.850000
v -4.900000 6.457147 3.850000
v 4.900000 6.457147 3.850000
v 4.900000 6.457147 -3.850000
v -4.900000 6.457147 -3.850000
v -4.500000 3.507147 3.960000
v -0.900000 3.507147 3.960000
v -0.950000 3.215147 3.960000
v -0.810000 5.607147 3.960000
v -0.930000 5.727147 3.960000
v -4.500000 5.167147 3.960000
v -4.540000 4.215147 3.960000
v -4.500000 3.507147 3.740000
v -0.900000 3.507147 3.740000
v -0.950000 3.215147 3.740000
v -0.810000 5.607147 3.740000
v -0.930000 5.727147 3.740000
v -4.500000 5.167147 3.740000
v -4.540000 4.215147 3.740000
v 1.300000 3.507147 3.960000
v 4.400000 3.507147 3.960000
v 4.440000 4.271147 3.960000
v 4.320000 5.111147 3.960000
v 1.330000 5.687147 3.960000
v 1.200000 3.007147 3.960000
v 1.300000 3.507147 3.740000
v 4.400000 3.507147 3.740000
v 4.440000 4.271147 3.740000
v 4.320000 5.111147 3.740000
v 1.330000 5.687147 3.740000
v 1.200000 3.007147 3.740000
v -0.900000 5.607147 3.960000
v -0.780000 5.697147 3.960000
v 1.180000 5.567147 3.960000
v 1.300000 5.607147 3.960000
v 4.312000 6.007147 3.960000
v -4.410000 5.503147 3.960000
v -0.900000 5.607147 3.740000
v -0.780000 5.697147 3.740000
v 1.180000 5.567147 3.740000
v 1.300000 5.607147 3.740000
v 4.312000 6.007147 3.740000
v -4.410000 5.503147 3.740000
v -0.900000 3.507147 3.960000
v 1.300000 3.507147 3.960000
v 1.220000 3.987147 3.960000
v -0.800000 3.867147 3.960000
v -0.900000 3.507147 3.740000
v 1.300000 3.507147 3.740000
v 1.220000 3.987147 3.740000
v -0.800000 3.867147 3.740000
v -4.900000 6.407147 0.210000
v -4.500000 6.407147 0.210000
v -4.500000 6.407147 -0.210000
v -4.900000 6.407147 -0.210000
v -4.900000 9.220146 0.210000
v -4.500000 9.220146 0.210000
v -4.500000 9.220146 -0.210000
v -4.900000 9.220146 -0.210000
v -1.800000 6.407147 0.210000
v -1.400000 6.407147 0.210000
v -1.400000 6.407147 -0.210000
v -1.800000 6.407147 -0.210000
v -1.800000 9.220146 0.210000
v -1.400000 9.220146 0.210000
v -1.400000 9.220146 -0.210000
v -1.800000 9.220146 -0.210000
v -3.103623 9.312269 3.000000
v 3.088629 9.002398 3.000000
v 3.088629 9.002398 -3.000000
v -3.103623 9.312269 -3.000000
v -3.088629 9.611895 3.000000
v 3.103623 9.302024 3.000000
v 3.103623 9.302024 -3.000000
v -3.088629 9.611895 -3.000000
v -4.500000 6.507147 3.960000
v -0.900000 6.507147 3.960000
v -0.950000 4.835147 3.960000
v -0.810000 8.607146 3.960000
v -0.930000 8.727146 3.960000
v -4.500000 7.717147 3.960000
v -4.540000 6.255147 3.960000
v -4.500000 6.507147 3.740000
v -0.900000 6.507147 3.740000
v -0.950000 4.835147 3.740000
v -0.810000 8.607146 3.740000
v -0.930000 8.727146 3.740000
v -4.500000 7.717147 3.740000
v -4.540000 6.255147 3.740000
v 1.300000 6.507147 3.960000
v 4.400000 6.507147 3.960000
v 4.440000 6.341147 3.960000
v 4.320000 7.631147 3.960000
v 1.330000 8.687146 3.960000
v 1.200000 4.507147 3.960000
v 1.300000 6.507147 3.740000
v 4.400000 6.507147 3.740000
v 4.440000 6.341147 3.740000
v 4.320000 7.631147 3.740000
v 1.330000 8.687146 3.740000
v 1.200000 4.507147 3.740000
v -0.900000 8.607146 3.960000
v -0.780000 8.697146 3.960000
v 1.180000 8.567146 3.960000
v 1.300000 8.607146 3.960000
v 4.312000 9.007147 3.960000
v -4.410000 8.233147 3.960000
v -0.900000 8.607146 3.740000
v -0.780000 8.697146 3.740000
v 1.180000 8.567146 3.740000
v 1.300000 8.607146 3.740000
v 4.312000 9.007147 3.740000
v -4.410000 8.233147 3.740000
v -0.900000 6.507147 3.960000
v 1.300000 6.507147 3.960000
v 1.220000 6.987147 3.960000
v -0.800000 6.867147 3.960000
v -0.900000 6.507147 3.740000
v 1.300000 6.507147 3.740000
v 1.220000 6.987147 3.740000
v -0.800000 6.867147 3.740000
v 0.011068 4.755778 1.065389
v 4.783930 6.233379 0.874372
v 4.484348 6.934282 -1.189359
v -0.288514 5.456681 -0.998342
v -0.084348 5.080011 1.189359
v 4.688514 6.557612 0.998342
v 4.388932 7.258516 -1.065389
v -0.383930 5.780915 -0.874372
v -3.322339 0.306828 1.284773
v -3.654961 0.346786 1.022709
v -4.209943 0.360815 1.012276
v -4.474633 0.332202 1.252555
v -4.288327 0.280264 1.527928
v -3.594778 0.413012 1.641781
v -3.628498 1.097560 1.032463
v -4.274008 1.080392 0.894850
v -4.703129 1.036727 1.223696
v -4.332751 1.077993 1.528879
v -3.739035 1.007255 1.530973
v -3.167396 1.089081 1.313141
v 1.686760 0.326542 -0.523694
v 2.124602 0.380248 -0.565815
v 2.248066 0.323232 -0.852297
v 2.144997 0.344356 -1.106119
v 1.803920 0.348472 -1.156837
v 1.522129 0.361151 -1.031190
v 1.393986 0.402721 -0.759644
v 1.581634 0.872963 -0.536348
v 2.034231 0.857550 -0.535426
v 2.225757 0.872846 -0.796723
v 2.256273 0.841205 -1.088488
v 1.879534 0.877474 -1.182725
v 1.587618 0.862194 -1.062107
v 1.372944 0.864581 -0.828320
v -1.195038 0.321801 0.431365
v -1.383718 0.256138 -0.079164
v -2.099264 0.273775 -0.170047
v -2.779280 0.365574 0.012302
v -2.652135 0.305485 0.499158
v -2.239744 0.277388 0.754879
v -1.671131 0.376865 0.768322
v -2.416405 1.093091 0.908615
v -1.717640 1.185464 0.813889
v -1.439502 1.162945 0.452174
v -1.450153 1.184093 0.037890
v -2.021994 1.153264 -0.249048
v -2.720301 1.117301 -0.036015
v -2.924812 1.209640 0.493622
v 1.040749 0.284865 -0.365667
v 0.613215 0.420621 -0.615618
v 0.133745 0.320362 -0.411954
v -0.106675 0.373996 -0.060412
v 0.481271 0.366832 0.146290
v 1.074943 0.293545 -0.007674
v 0.379864 1.108029 -0.690498
v -0.055196 1.004339 -0.348607
v 0.154240 1.070913 -0.022041
v 0.670939 1.055277 0.102974
v 1.082353 1.018887 -0.132869
v 1.074330 1.083268 -0.519191
v -2.305348 0.403042 -2.294993
v -2.651861 0.356925 -2.661805
v -3.303364 0.408588 -2.586968
v -3.520447 0.322073 -2.180714
v -2.837556 0.374730 -2.020346
v -3.206022 0.908630 -2.585202
v -3.425102 0.919299 -2.257913
v -2.918776 0.938865 -2.066659
v -2.427542 0.982833 -2.263509
v -2.641603 0.960216 -2.587260
v -1.818025 0.188588 -0.794251
v -1.837901 0.253532 -0.114367
v -0.749159 0.291152 0.061794
v -0.272665 0.330357 -0.481294
v -0.196467 0.266863 -1.102409
v -1.169945 0.236317 -1.151434
v -1.724200 1.255329 -1.050483
v -1.876088 1.151342 -0.432336
v -1.218809 1.333005 0.114508
v -0.137385 1.191596 -0.136095
v 0.138375 1.250588 -0.871746
v -0.814363 1.327429 -1.181841
v 2.095094 0.420695 -0.066949
v 2.538483 0.320077 -0.271717
v 2.343992 0.413058 -0.520928
v 1.744996 0.420968 -0.630235
v 1.188389 0.322053 -0.427659
v 1.503217 0.332227 -0.164457
v 1.408302 1.060966 -0.275642
v 1.795747 1.008787 -0.106870
v 2.277587 1.042951 -0.201924
v 2.585441 1.076052 -0.428867
v 2.093083 1.058755 -0.655001
v 1.450678 0.948706 -0.530925
v -2.178224 0.337760 1.840170
v -1.462418 0.274448 1.914087
v -0.949789 0.275131 1.623707
v -1.271435 0.367672 1.286678
v -1.826116 0.286152 1.164446
v -2.373720 0.317038 1.413829
v -1.725473 1.117856 1.090789
v -2.160013 0.979062 1.384695
v -2.243086 1.067844 1.769318
v -1.599215 1.104927 1.845041
v -1.135712 0.968304 1.658318
v -0.961424 1.037358 1.227147
v -1.375225 0.323388 -2.789482
v -0.835231 0.336248 -2.938283
v -0.531422 0.324247 -3.178986
v -1.077294 0.326994 -3.351738
v -1.720768 0.300819 -3.285991
v -1.708910 0.309324 -3.022995
v -0.652003 1.055635 -2.930997
v -0.759068 1.046941 -3.186655
v -1.188580 0.950569 -3.305407
v -1.863469 1.030975 -3.268029
v -1.926923 1.040308 -2.935462
v -1.246829 1.066108 -2.859462
v -4.701458 0.293121 2.001400
v -3.544278 0.339385 2.070025
v -2.667295 0.341528 1.306480
v -3.775563 0.246622 0.505559
v -4.996352 0.144278 1.090704
v -5.112908 1.548437 1.993714
v -3.633821 1.609775 2.422883
v -2.555968 1.437026 1.526748
v -3.495518 1.523490 0.575347
v -4.962168 1.533494 0.871100
v 3.268899 0.382846 1.489526
v 3.307585 0.405710 1.231379
v 2.972028 0.385258 1.105313
v 2.585616 0.418183 1.089766
v 2.410710 0.350218 1.306670
v 2.467525 0.407093 1.567127
v 2.888350 0.319153 1.540523
v 2.569149 0.796058 1.143031
v 2.455031 0.868451 1.344327
v 2.568894 0.795340 1.564547
v 2.939663 0.859353 1.537087
v 3.245496 0.802167 1.435530
v 3.207423 0.816319 1.214391
v 2.933527 0.791240 1.034307
v -2.165157 0.286376 -0.157465
v -3.122842 0.145354 0.122526
v -2.559175 0.231780 0.565860
v -1.424687 0.179697 0.563936
v -0.932576 0.312576 0.015246
v -3.179635 1.268859 0.261886
v -2.290122 1.461656 0.579608
v -1.191658 1.286452 0.471954
v -1.109756 1.378268 -0.132268
v -2.416090 1.473319 -0.121977
v 2.693851 0.384284 -2.271112
v 2.475279 0.366515 -2.124723
v 2.612617 0.369399 -1.953489
v 2.999365 0.402966 -1.942197
v 3.337323 0.324876 -2.079989
v 3.091346 0.392267 -2.262724
v 3.059439 0.875518 -2.328166
v 2.549525 0.829885 -2.301486
v 2.395270 0.885609 -2.083732
v 2.644124 0.883195 -1.891042
v 3.128317 0.818321 -1.920950
v 3.317710 0.811370 -2.127887
v 2.203769 0.073233 -1.679560
v 0.646270 0.000000 -1.476183
v 0.231513 0.209051 -0.681613
v 1.321547 0.237047 -0.123946
v 2.333281 0.077433 -0.702307
v 2.478144 1.535295 -0.535558
v 2.216209 1.682436 -1.470632
v 0.775702 1.614602 -1.567574
v -0.273365 1.454692 -0.747600
v 1.117146 1.550113 -0.119216
v -3.432377 0.252685 0.422252
v -3.473204 0.223625 0.929801
v -3.041022 0.183111 1.253036
v -2.231160 0.284198 1.273183
v -2.112983 0.343726 0.630832
v -2.748008 0.214554 0.348101
v -3.195143 1.143048 0.153432
v -3.724652 1.004779 0.682515
v -3.469662 1.155386 1.294774
v -2.647094 1.064847 1.339982
v -2.117686 1.018023 0.915492
v -2.417630 1.138688 0.393699
v 1.235106 0.447571 2.984377
v 2.561678 0.663535 1.870041
v 2.119675 0.903439 1.390349
v 0.793103 0.687475 2.504684
v 1.267491 0.670855 3.066204
v 2.594064 0.886819 1.951868
v 2.152061 1.126723 1.472176
v 0.825488 0.910758 2.586512
v 2.040227 0.958230 -2.027824
v 3.884918 0.758107 -2.028028
v 3.886976 0.777623 -2.564304
v 2.042285 0.977747 -2.564100
v 2.066095 1.196670 -2.019047
v 3.910787 0.996547 -2.019251
v 3.912845 1.016064 -2.555527
v 2.068154 1.216187 -2.555324
vn -0.0000 -1.0000 -0.0000
vn -0.0000 1.0000 -0.0000
vn -0.0000 -0.0000 1.0000
vn 1.0000 -0.0000 -0.0000
vn -0.0000 -0.0000 -1.0000
vn -1.0000 -0.0000 -0.0000
vn -0.9989 -0.0459 -0.0000
vn -0.9906 0.1370 -0.0000
vn -0.7071 -0.7071 -0.0000
vn 0.0308 -0.9995 -0.0000
vn 0.9959 -0.0901 -0.0000
vn 0.9997 0.0240 -0.0000
vn -0.9997 0.0236 -0.0000
vn -0.9558 -0.2941 -0.0000
vn -0.0321 -0.9995 -0.0000
vn 0.9940 -0.1095 -0.0000
vn 0.9950 0.0995 -0.0000
vn -0.6000 0.8000 -0.0000
vn 0.0662 0.9978 -0.0000
vn -0.3162 0.9487 -0.0000
vn -0.1316 0.9913 -0.0000
vn 0.0268 -0.9996 -0.0000
vn 0.0472 0.9989 -0.0000
vn -0.9864 -0.1644 -0.0000
vn 0.0593 -0.9982 -0.0000
vn 0.9635 -0.2676 -0.0000
vn 0.9857 -0.1688 -0.0000
vn -0.9983 0.0584 -0.0000
vn 0.1550 -0.9879 -0.0000
vn 0.9991 -0.0420 -0.0000
vn 0.9984 0.0564 -0.0000
vn -0.9986 0.0523 -0.0000
vn -0.9899 -0.1414 -0.0000
vn -0.1892 -0.9819 -0.0000
vn 0.9988 -0.0485 -0.0000
vn -0.9806 0.1961 -0.0000
vn 0.0577 -0.9983 -0.0000
vn -0.0296 0.9996 -0.0000
vn -0.0500 -0.9988 -0.0000
vn 0.0500 0.9988 -0.0000
vn 0.9988 -0.0500 -0.0000
vn -0.9988 0.0500 -0.0000
vn 0.9996 -0.0299 -0.0000
vn -0.9993 0.0371 -0.0000
vn 0.2722 -0.9622 -0.0000
vn 0.9996 -0.0273 -0.0000
vn -0.9876 0.1568 -0.0000
vn 0.9722 0.2343 -0.0000
vn -0.9957 -0.0926 -0.0000
vn -0.3330 -0.9429 -0.0000
vn 0.9995 -0.0311 -0.0000
vn -0.9988 0.0499 -0.0000
vn 0.0884 -0.9961 -0.0000
vn -0.1060 0.9944 -0.0000
vn 0.2650 -0.9006 -0.3444
vn -0.2650 0.9006 0.3444
vn 0.1362 -0.3186 0.9381
vn 0.9546 0.2955 -0.0382
vn -0.1362 0.3186 -0.9381
vn -0.9546 -0.2955 0.0382
vn 0.1182 0.9929 0.0147
vn 0.6180 -0.0116 -0.7861
vn 0.0145 -0.1598 -0.9870
vn -0.4868 -0.5639 0.6671
vn -0.8314 -0.0470 0.5536
vn -0.1858 0.1363 0.9731
vn 0.4098 -0.5951 -0.6913
vn -0.0360 0.9986 0.0393
vn -0.0013 0.0229 0.9997
vn 0.7982 0.1135 0.5917
vn 0.9945 0.0302 0.1007
vn 0.2408 -0.0195 -0.9704
vn -0.3823 0.0094 -0.9240
vn -0.7352 0.0544 -0.6757
vn -0.8132 0.0492 0.5799
vn -0.0802 0.9954 0.0529
vn 0.1680 -0.3124 0.9350
vn 0.7467 -0.3015 0.5929
vn 0.8186 -0.5722 -0.0503
vn 0.3839 -0.6015 -0.7005
vn -0.2177 -0.5499 -0.8064
vn -0.7655 -0.6153 -0.1883
vn -0.5543 -0.6727 0.4901
vn 0.1766 0.9715 0.1582
vn 0.5229 0.0851 -0.8481
vn -0.4742 -0.7522 0.4575
vn -0.2233 -0.4446 0.8675
vn -0.3264 0.1486 0.9335
vn 0.2664 0.1613 0.9503
vn 0.9938 -0.0598 -0.0935
vn -0.0925 0.9957 -0.0084
vn -0.4124 -0.8767 -0.2475
vn -0.2105 -0.7445 0.6336
vn 0.2956 -0.7697 0.5659
vn 0.4847 -0.8345 -0.2622
vn 0.0618 -0.7049 -0.7066
vn 0.0483 0.9940 0.0978
vn -0.9718 0.0293 -0.2339
vn -0.6592 0.2260 0.7172
vn 0.2323 0.0556 0.9711
vn 0.9084 -0.2705 0.3188
vn 0.3158 0.1134 -0.9420
vn -0.1444 0.0195 -0.9893
vn -0.1692 0.9856 -0.0019
vn -0.4117 -0.1485 0.8992
vn 0.1951 -0.0242 0.9805
vn 0.5847 -0.3166 0.7469
vn 0.4107 -0.2581 -0.8745
vn -0.1742 -0.0887 -0.9807
vn -0.9845 -0.1435 -0.1003
vn 0.2718 0.9619 -0.0290
vn -0.3487 -0.5361 -0.7688
vn -0.7135 -0.7006 0.0076
vn -0.0921 -0.3233 0.9418
vn 0.1696 -0.5460 0.8205
vn 0.6436 -0.7525 0.1396
vn 0.1111 -0.4478 -0.8872
vn -0.0340 0.9988 -0.0345
vn 0.6632 -0.7041 -0.2538
vn 0.3210 -0.3429 -0.8828
vn 0.3000 0.1238 -0.9459
vn -0.1018 0.0046 -0.9948
vn -0.9552 -0.2912 0.0525
vn -0.5695 0.1741 0.8033
vn -0.0026 0.9989 -0.0468
vn -0.2745 -0.0841 0.9579
vn 0.6136 -0.1709 0.7709
vn 0.7130 0.0679 -0.6979
vn -0.1961 0.0963 -0.9758
vn -0.9911 0.0033 -0.1331
vn -0.0025 0.9909 -0.1342
vn -0.5145 -0.8573 0.0166
vn -0.4809 -0.8758 -0.0421
vn 0.1679 -0.6575 0.7345
vn 0.0825 -0.7414 0.6659
vn 0.4880 -0.8617 -0.1392
vn 0.3156 -0.8789 -0.3576
vn -0.2112 -0.7054 -0.6767
vn 0.0729 0.9845 0.1595
vn -0.1784 -0.5363 0.8249
vn -0.6252 0.1282 0.7699
vn 0.0054 0.0817 0.9966
vn -0.0427 -0.4934 -0.8688
vn 0.1373 0.0586 -0.9888
vn 0.1389 0.9836 0.1147
vn -0.0447 -0.0823 -0.9956
vn -0.8231 -0.0825 -0.5619
vn -0.6115 -0.0584 0.7891
vn 0.0525 -0.0673 0.9964
vn 0.7359 0.0957 0.6703
vn 0.6007 -0.0682 -0.7965
vn -0.0986 0.9928 0.0675
vn 0.9637 0.0270 -0.2657
vn 0.0699 -0.0620 -0.9956
vn -0.5668 -0.2710 -0.7780
vn -0.4071 -0.0667 0.9110
vn 0.2884 -0.1370 0.9477
vn 0.1829 0.9757 0.1205
vn -0.7030 -0.0273 -0.7107
vn -0.8971 -0.1582 0.4125
vn -0.0624 -0.0703 0.9956
vn 0.6173 0.2655 0.7406
vn 0.8689 0.1976 -0.4538
vn 0.2944 -0.0582 -0.9539
vn -0.1349 -0.9303 -0.3409
vn 0.1349 0.9303 0.3409
vn 0.6360 -0.3452 0.6902
vn 0.7598 0.1237 -0.6383
vn -0.6360 0.3452 -0.6902
vn -0.7598 -0.1237 0.6383
vn -0.1078 -0.9935 -0.0366
vn 0.1078 0.9935 0.0366
vn -0.0038 -0.0364 0.9993
vn 0.9942 -0.1079 -0.0001
vn 0.0038 0.0364 -0.9993
vn -0.9942 0.1079 0.0001
vn -0.0796 0.9838 0.1606
vn -0.0613 0.9844 0.1647
vn -0.1058 0.9944 -0.0060
vn 0.2084 0.0054 -0.9780
vn -0.5865 -0.1810 -0.7894
vn -0.6460 0.3702 -0.6675
vn -0.0037 -0.0014 1.0000
vn 0.3139 0.2472 0.9167
vn 0.7711 0.4441 0.4563
vn -0.0113 0.9997 -0.0206
vn 0.0341 0.9992 -0.0201
vn -0.0285 0.9989 0.0376
vn 0.1189 0.9884 -0.0948
vn 0.1010 -0.0442 0.9939
vn 0.9181 -0.0028 0.3962
vn 0.9043 -0.1889 -0.3829
vn 0.1459 -0.0692 -0.9869
vn -0.4074 -0.0031 -0.9133
vn -0.9056 -0.1025 -0.4117
vn -0.6405 -0.1056 0.7607
vn 0.2713 0.9604 -0.0627
vn -0.1301 0.9915 0.0072
vn -0.0397 0.9985 0.0384
vn 0.0302 0.9988 -0.0389
vn 0.7275 0.5930 -0.3451
vn 0.1209 0.5074 -0.8532
vn -0.1982 0.3504 -0.9154
vn -0.6522 0.7127 0.2583
vn -0.4427 0.4673 0.7653
vn -0.0626 0.2264 0.9720
vn 0.5529 0.4363 0.7099
vn 0.0211 0.9981 0.0586
vn -0.2560 0.9661 -0.0328
vn 0.0155 0.9980 0.0607
vn -0.5532 -0.2735 -0.7869
vn -0.4277 0.4259 -0.7973
vn -0.5249 0.7113 -0.4675
vn 0.4903 -0.0805 0.8678
vn 0.9996 -0.0142 -0.0231
vn 0.2285 -0.1931 -0.9542
vn -0.0910 0.9958 -0.0076
vn -0.0210 0.9987 -0.0466
vn 0.3626 0.8186 -0.4455
vn -0.0247 0.7092 -0.7046
vn -0.5203 0.8484 -0.0974
vn -0.2115 0.7155 0.6658
vn 0.2536 0.7801 0.5719
vn -0.0833 0.9961 -0.0303
vn -0.3257 0.9422 0.0785
vn 0.1384 0.9896 0.0389
vn -0.9984 -0.0511 -0.0243
vn -0.1546 -0.1193 0.9808
vn 0.7156 -0.3538 0.6023
vn 0.9249 -0.3498 0.1492
vn 0.0516 -0.0446 -0.9977
vn -0.4664 -0.1676 -0.8686
vn 0.2728 0.8966 -0.3490
vn -0.0591 0.9965 0.0588
vn -0.0627 0.9962 0.0603
vn 0.4546 0.2886 0.8426
vn 0.7991 0.3365 -0.4981
vn 0.1800 0.0707 -0.9811
vn -0.3628 0.1624 -0.9176
vn -0.6031 0.3690 0.7072
vn -0.1795 0.1255 0.9757
vn 0.0702 0.9802 0.1853
vn -0.2660 0.9620 0.0610
vn -0.0289 0.9726 -0.2307
vn -0.0329 0.5794 0.8144
vn 0.4140 0.5409 0.7321
vn 0.6443 0.6227 -0.4439
vn 0.1146 0.5038 -0.8562
vn -0.3450 0.4652 -0.8152
vn -0.6868 0.6698 0.2824
vn 0.0129 0.9991 -0.0394
vn -0.1406 0.9538 -0.2655
vn 0.1020 0.9661 -0.2370
vn 0.2472 0.2960 0.9227
vn 0.4938 0.6375 0.5914
vn -0.0474 0.0656 -0.9967
vn -0.9664 -0.1845 -0.1792
vn -0.1042 -0.1488 0.9834
vn 0.1203 0.0725 0.9901
vn -0.0362 0.9992 -0.0182
vn 0.1283 0.9911 -0.0367
vn -0.0462 -0.2704 0.9616
vn 0.6418 -0.2133 0.7366
vn 0.5884 -0.0851 -0.8041
vn -0.4195 -0.1317 -0.8982
vn -0.8951 -0.2913 0.3375
vn -0.0268 0.9906 -0.1339
vn 0.5379 0.8430 0.0018
vn -0.1700 0.9854 0.0016
vn 0.1932 0.9807 0.0295
vn 0.4869 0.8606 0.1492
vn 0.1659 0.8034 -0.5718
vn 0.0869 0.6740 -0.7336
vn -0.4623 0.8814 -0.0966
vn -0.5100 0.8568 -0.0758
vn 0.1911 0.7093 0.6785
vn -0.0038 0.6387 0.7694
vn -0.2311 0.9712 0.0576
vn 0.1564 0.9876 -0.0117
vn -0.3105 0.4811 -0.8198
vn 0.0925 -0.0314 0.9952
vn 0.9751 -0.1968 0.1023
vn 0.4676 0.6663 0.5808
vn -0.4343 -0.0650 -0.8984
vn 0.1575 0.9812 0.1112
vn -0.0942 0.9898 -0.1069
vn 0.1314 0.9788 -0.1574
vn -0.5291 -0.2271 -0.8176
vn -0.7677 -0.1672 0.6186
vn -0.0186 -0.1195 0.9927
vn 0.3424 -0.1537 0.9269
vn 0.5855 -0.0560 -0.8088
vn 0.0236 -0.1326 -0.9909
vn 0.0537 0.9886 0.1405
vn -0.0507 0.9971 0.0564
vn -0.1343 0.1286 -0.9826
vn -0.8809 0.0439 -0.4714
vn -0.4485 -0.1350 0.8835
vn 0.5038 0.0753 0.8605
vn 0.9879 -0.0832 -0.1306
vn -0.0172 0.9971 0.0736
vn -0.3356 0.9376 -0.0909
vn 0.1086 0.9940 0.0154
vn -0.9385 -0.3320 -0.0945
vn -0.5902 -0.2925 0.7524
vn -0.0133 -0.0923 0.9956
vn 0.9824 -0.0668 0.1745
vn 0.4224 -0.1066 -0.9001
vn -0.1183 -0.2580 -0.9589
vt 0.224750 0.025250
vt 0.025250 0.224750
vt 0.025250 0.025250
vt 0.285128 0.081720
vt 0.352804 0.027751
vt 0.437193 0.047012
vt 0.352804 0.222249
vt 0.474750 0.025250
vt 0.275250 0.224750
vt 0.275250 0.025250
vt 0.275250 0.125000
vt 0.325125 0.038614
vt 0.474750 0.125000
vt 0.424875 0.038614
vt 0.424875 0.211386
vt 0.525250 0.025250
vt 0.724750 0.224750
vt 0.525250 0.224750
vt 0.724750 0.025250
vt 0.437193 0.202988
vt 0.325125 0.211386
vt 0.224750 0.224750
vt 0.025250 0.125000
vt 0.075125 0.038614
vt 0.174875 0.211386
vt 0.535128 0.331720
vt 0.602804 0.277751
vt 0.687193 0.452988
vt 0.525250 0.275250
vt 0.724750 0.474750
vt 0.525250 0.474750
vt 0.602804 0.222249
vt 0.535128 0.168280
vt 0.535128 0.081720
vt 0.275250 0.375000
vt 0.325125 0.288614
vt 0.424875 0.288614
vt 0.474750 0.275250
vt 0.275250 0.474750
vt 0.275250 0.275250
vt 0.474750 0.474750
vt 0.294301 0.433632
vt 0.294301 0.316368
vt 0.405824 0.280132
vt 0.174875 0.038614
vt 0.424875 0.461386
vt 0.474750 0.375000
vt 0.525250 0.375000
vt 0.575125 0.288614
vt 0.674875 0.288614
vt 0.724750 0.275250
vt 0.405824 0.469868
vt 0.602804 0.027751
vt 0.687193 0.047012
vt 0.544301 0.183632
vt 0.544301 0.066368
vt 0.655824 0.030132
vt 0.525250 0.125000
vt 0.575125 0.038614
vt 0.724750 0.125000
vt 0.544301 0.433632
vt 0.544301 0.316368
vt 0.655824 0.280132
vt 0.285128 0.168280
vt 0.474750 0.224750
vt 0.224750 0.125000
vt 0.075125 0.211386
vt 0.687193 0.297012
vt 0.724750 0.375000
vt 0.602804 0.472249
vt 0.535128 0.418280
vt 0.687193 0.202988
vt 0.325125 0.461386
vt 0.674875 0.461386
vt 0.575125 0.461386
vt 0.655824 0.219868
vt 0.674875 0.038614
vt 0.674875 0.211386
vt 0.575125 0.211386
vt 0.655824 0.469868
s 0
f 4/1/1 2/2/1 1/3/1
f 6/1/2 8/2/2 5/3/2
f 2/1/3 5/2/3 1/3/3
f 3/1/4 6/2/4 2/3/4
f 4/1/5 7/2/5 3/3/5
f 1/1/6 8/2/6 4/3/6
f 12/1/1 10/2/1 9/3/1
f 14/1/2 16/2/2 13/3/2
f 10/1/3 13/2/3 9/3/3
f 11/1/4 14/2/4 10/3/4
f 12/1/5 15/2/5 11/3/5
f 9/1/6 16/2/6 12/3/6
f 20/1/1 18/2/1 17/3/1
f 22/1/2 24/2/2 21/3/2
f 18/1/3 21/2/3 17/3/3
f 19/1/4 22/2/4 18/3/4
f 20/1/5 23/2/5 19/3/5
f 17/1/6 24/2/6 20/3/6
f 28/1/1 26/2/1 25/3/1
f 30/1/2 32/2/2 29/3/2
f 26/1/3 29/2/3 25/3/3
f 27/1/4 30/2/4 26/3/4
f 28/1/5 31/2/5 27/3/5
f 25/1/6 32/2/6 28/3/6
f 36/1/1 34/2/1 33/3/1
f 38/1/2 40/2/2 37/3/2
f 34/1/3 37/2/3 33/3/3
f 35/1/4 38/2/4 34/3/4
f 36/1/5 39/2/5 35/3/5
f 33/1/6 40/2/6 36/3/6
f 44/1/1 42/2/1 41/3/1
f 46/1/2 48/2/2 45/3/2
f 42/1/3 45/2/3 41/3/3
f 43/1/4 46/2/4 42/3/4
f 44/1/5 47/2/5 43/3/5
f 41/1/6 48/2/6 44/3/6
f 51/4/5 50/5/5 49/6/5
f 58/7/3 60/4/3 62/6/3
f 50/8/2 56/9/2 49/10/2
f 51/8/7 57/9/7 50/10/7
f 52/8/8 58/9/8 51/10/8
f 53/8/9 59/9/9 52/10/9
f 54/8/10 60/9/10 53/10/10
f 55/8/11 61/9/11 54/10/11
f 49/8/12 62/9/12 55/10/12
f 65/11/5 64/12/5 68/13/5
f 72/11/3 73/12/3 74/14/3
f 64/8/2 69/9/2 63/10/2
f 65/8/13 70/9/13 64/10/13
f 66/8/14 71/9/14 65/10/14
f 67/8/15 72/9/15 66/10/15
f 68/8/16 73/9/16 67/10/16
f 63/8/17 74/9/17 68/10/17
f 80/13/5 79/15/5 76/12/5
f 82/15/3 84/11/3 85/12/3
f 76/8/18 81/9/18 75/10/18
f 77/8/19 82/9/19 76/10/19
f 78/8/20 83/9/20 77/10/20
f 79/8/21 84/9/21 78/10/21
f 80/8/22 85/9/22 79/10/22
f 75/8/23 86/9/23 80/10/23
f 90/16/5 88/17/5 87/18/5
f 92/19/3 94/18/3 91/16/3
f 88/19/2 91/18/2 87/16/2
f 89/19/24 92/18/24 88/16/24
f 90/19/25 93/18/25 89/16/25
f 87/19/26 94/18/26 90/16/26
f 98/1/1 96/2/1 95/3/1
f 100/1/2 102/2/2 99/3/2
f 96/1/3 99/2/3 95/3/3
f 97/1/4 100/2/4 96/3/4
f 98/1/5 101/2/5 97/3/5
f 95/1/6 102/2/6 98/3/6
f 106/1/1 104/2/1 103/3/1
f 108/1/2 110/2/2 107/3/2
f 104/1/3 107/2/3 103/3/3
f 105/1/4 108/2/4 104/3/4
f 106/1/5 109/2/5 105/3/5
f 103/1/6 110/2/6 106/3/6
f 114/1/1 112/2/1 111/3/1
f 116/1/2 118/2/2 115/3/2
f 112/1/3 115/2/3 111/3/3
f 113/1/4 116/2/4 112/3/4
f 114/1/5 117/2/5 113/3/5
f 111/1/6 118/2/6 114/3/6
f 122/1/1 120/2/1 119/3/1
f 124/1/2 126/2/2 123/3/2
f 120/1/3 123/2/3 119/3/3
f 121/1/4 124/2/4 120/3/4
f 122/1/5 125/2/5 121/3/5
f 119/1/6 126/2/6 122/3/6
f 130/1/1 128/2/1 127/3/1
f 132/1/2 134/2/2 131/3/2
f 128/1/3 131/2/3 127/3/3
f 129/1/4 132/2/4 128/3/4
f 130/1/5 133/2/5 129/3/5
f 127/1/6 134/2/6 130/3/6
f 140/20/3 137/4/3 136/5/3
f 143/20/5 144/7/5 147/5/5
f 136/8/2 142/9/2 135/10/2
f 137/8/27 143/9/27 136/10/27
f 138/8/28 144/9/28 137/10/28
f 139/8/9 145/9/9 138/10/9
f 140/8/29 146/9/29 139/10/29
f 141/8/30 147/9/30 140/10/30
f 135/8/31 148/9/31 141/10/31
f 151/11/5 150/12/5 149/14/5
f 159/12/3 160/14/3 155/13/3
f 150/8/2 155/9/2 149/10/2
f 151/8/32 156/9/32 150/10/32
f 152/8/33 157/9/33 151/10/33
f 153/8/34 158/9/34 152/10/34
f 154/8/35 159/9/35 153/10/35
f 149/8/36 160/9/36 154/10/36
f 166/13/5 165/15/5 162/12/5
f 168/15/3 170/11/3 171/12/3
f 162/8/18 167/9/18 161/10/18
f 163/8/19 168/9/19 162/10/19
f 164/8/20 169/9/20 163/10/20
f 165/8/21 170/9/21 164/10/21
f 166/8/37 171/9/37 165/10/37
f 161/8/38 172/9/38 166/10/38
f 176/16/5 174/17/5 173/18/5
f 178/19/3 180/18/3 177/16/3
f 174/19/2 177/18/2 173/16/2
f 175/19/24 178/18/24 174/16/24
f 176/19/25 179/18/25 175/16/25
f 173/19/26 180/18/26 176/16/26
f 184/1/1 182/2/1 181/3/1
f 186/1/2 188/2/2 185/3/2
f 182/1/3 185/2/3 181/3/3
f 183/1/4 186/2/4 182/3/4
f 184/1/5 187/2/5 183/3/5
f 181/1/6 188/2/6 184/3/6
f 192/1/1 190/2/1 189/3/1
f 194/1/2 196/2/2 193/3/2
f 190/1/3 193/2/3 189/3/3
f 191/1/4 194/2/4 190/3/4
f 192/1/5 195/2/5 191/3/5
f 189/1/6 196/2/6 192/3/6
f 200/1/39 198/2/39 197/3/39
f 202/1/40 204/2/40 201/3/40
f 198/1/3 201/2/3 197/3/3
f 199/1/41 202/2/41 198/3/41
f 200/1/5 203/2/5 199/3/5
f 197/1/42 204/2/42 200/3/42
f 206/5/5 205/6/5 210/20/5
f 212/13/3 213/20/3 217/5/3
f 206/8/2 212/9/2 205/10/2
f 207/8/43 213/9/43 206/10/43
f 208/8/44 214/9/44 207/10/44
f 209/8/9 215/9/9 208/10/9
f 210/8/45 216/9/45 209/10/45
f 211/8/46 217/9/46 210/10/46
f 205/8/47 218/9/47 211/10/47
f 219/14/5 223/15/5 222/21/5
f 225/13/3 228/11/3 229/12/3
f 220/8/2 225/9/2 219/10/2
f 221/8/48 226/9/48 220/10/48
f 222/8/49 227/9/49 221/10/49
f 223/8/50 228/9/50 222/10/50
f 224/8/51 229/9/51 223/10/51
f 219/8/52 230/9/52 224/10/52
f 231/14/3 236/13/3 234/21/3
f 240/11/3 241/12/3 242/14/3
f 232/8/18 237/9/18 231/10/18
f 233/8/19 238/9/19 232/10/19
f 234/8/20 239/9/20 233/10/20
f 235/8/21 240/9/21 234/10/21
f 236/8/53 241/9/53 235/10/53
f 231/8/54 242/9/54 236/10/54
f 246/16/5 244/17/5 243/18/5
f 248/19/3 250/18/3 247/16/3
f 244/19/2 247/18/2 243/16/2
f 245/19/24 248/18/24 244/16/24
f 246/19/25 249/18/25 245/16/25
f 243/19/26 250/18/26 246/16/26
f 254/1/55 252/2/55 251/3/55
f 255/3/56 257/22/56 258/2/56
f 252/1/57 255/2/57 251/3/57
f 253/1/58 256/2/58 252/3/58
f 253/3/59 258/22/59 257/2/59
f 251/1/60 258/2/60 254/3/60
f 268/23/61 269/24/61 266/25/61
f 260/1/62 265/2/62 259/3/62
f 261/1/63 266/2/63 260/3/63
f 261/3/64 268/22/64 267/2/64
f 263/1/65 268/2/65 262/3/65
f 264/1/66 269/2/66 263/3/66
f 264/3/67 265/22/67 270/2/67
f 282/26/68 283/27/68 279/28/68
f 271/29/69 279/30/69 278/31/69
f 272/29/70 280/30/70 279/31/70
f 273/29/71 281/30/71 280/31/71
f 274/29/72 282/30/72 281/31/72
f 275/29/73 283/30/73 282/31/73
f 276/29/74 284/30/74 283/31/74
f 277/29/75 278/30/75 284/31/75
f 294/32/76 295/33/76 296/34/76
f 285/16/77 293/17/77 292/18/77
f 286/16/78 294/17/78 293/18/78
f 287/16/79 295/17/79 294/18/79
f 288/16/80 296/17/80 295/18/80
f 289/16/81 297/17/81 296/18/81
f 290/16/82 298/17/82 297/18/82
f 291/16/83 292/17/83 298/18/83
f 308/35/84 309/36/84 310/37/84
f 300/38/85 305/39/85 299/40/85
f 300/40/86 307/41/86 306/39/86
f 301/40/87 308/41/87 307/39/87
f 303/38/88 308/39/88 302/40/88
f 304/38/89 309/39/89 303/40/89
f 299/38/90 310/39/90 304/40/90
f 318/42/91 319/43/91 320/44/91
f 311/40/92 317/41/92 316/39/92
f 312/40/93 318/41/93 317/39/93
f 313/40/94 319/41/94 318/39/94
f 314/40/95 320/41/95 319/39/95
f 315/40/96 316/41/96 320/39/96
f 330/23/97 331/24/97 332/45/97
f 321/3/98 328/22/98 327/2/98
f 322/3/99 329/22/99 328/2/99
f 323/3/100 330/22/100 329/2/100
f 324/3/101 331/22/101 330/2/101
f 325/3/102 332/22/102 331/2/102
f 326/3/103 327/22/103 332/2/103
f 343/36/104 344/37/104 340/46/104
f 333/40/105 340/41/105 339/39/105
f 334/40/106 341/41/106 340/39/106
f 335/40/107 342/41/107 341/39/107
f 336/40/108 343/41/108 342/39/108
f 337/40/109 344/41/109 343/39/109
f 338/40/110 339/41/110 344/39/110
f 354/35/111 355/36/111 351/47/111
f 345/40/112 352/41/112 351/39/112
f 346/40/113 353/41/113 352/39/113
f 347/40/114 354/41/114 353/39/114
f 348/40/115 355/41/115 354/39/115
f 349/40/116 356/41/116 355/39/116
f 350/40/117 351/41/117 356/39/117
f 366/48/118 367/49/118 368/50/118
f 357/29/119 364/30/119 363/31/119
f 358/29/120 365/30/120 364/31/120
f 360/51/121 365/31/121 359/29/121
f 361/51/122 366/31/122 360/29/122
f 362/51/123 367/31/123 361/29/123
f 357/51/124 368/31/124 362/29/124
f 375/52/125 377/43/125 378/44/125
f 369/40/126 375/41/126 374/39/126
f 370/40/127 376/41/127 375/39/127
f 371/40/128 377/41/128 376/39/128
f 372/40/129 378/41/129 377/39/129
f 373/40/130 374/41/130 378/39/130
f 391/53/131 392/54/131 389/33/131
f 379/16/132 387/17/132 386/18/132
f 380/16/133 388/17/133 387/18/133
f 381/16/134 389/17/134 388/18/134
f 382/16/135 390/17/135 389/18/135
f 383/16/136 391/17/136 390/18/136
f 384/16/137 392/17/137 391/18/137
f 385/16/138 386/17/138 392/18/138
f 400/55/139 401/56/139 402/57/139
f 393/16/140 399/17/140 398/18/140
f 395/19/141 399/18/141 394/16/141
f 396/19/142 400/18/142 395/16/142
f 396/16/143 402/17/143 401/18/143
f 393/19/144 402/18/144 397/16/144
f 412/58/145 413/59/145 409/60/145
f 403/16/146 410/17/146 409/18/146
f 404/16/147 411/17/147 410/18/147
f 405/16/148 412/17/148 411/18/148
f 406/16/149 413/17/149 412/18/149
f 407/16/150 414/17/150 413/18/150
f 408/16/151 409/17/151 414/18/151
f 422/61/152 423/62/152 424/63/152
f 415/29/153 421/30/153 420/31/153
f 416/29/154 422/30/154 421/31/154
f 417/29/155 423/30/155 422/31/155
f 418/29/156 424/30/156 423/31/156
f 419/29/157 420/30/157 424/31/157
f 434/48/158 435/49/158 436/50/158
f 425/29/159 432/30/159 431/31/159
f 426/29/160 433/30/160 432/31/160
f 427/29/161 434/30/161 433/31/161
f 428/29/162 435/30/162 434/31/162
f 429/29/163 436/30/163 435/31/163
f 430/29/164 431/30/164 436/31/164
f 440/1/165 438/2/165 437/3/165
f 442/1/166 444/2/166 441/3/166
f 437/3/167 442/22/167 441/2/167
f 438/3/168 443/22/168 442/2/168
f 439/3/169 444/22/169 443/2/169
f 437/1/170 444/2/170 440/3/170
f 448/1/171 446/2/171 445/3/171
f 449/3/172 451/22/172 452/2/172
f 446/1/173 449/2/173 445/3/173
f 447/1/174 450/2/174 446/3/174
f 448/1/175 451/2/175 447/3/175
f 448/3/176 449/22/176 452/2/176
f 4/1/1 3/22/1 2/2/1
f 6/1/2 7/22/2 8/2/2
f 2/1/3 6/22/3 5/2/3
f 3/1/4 7/22/4 6/2/4
f 4/1/5 8/22/5 7/2/5
f 1/1/6 5/22/6 8/2/6
f 12/1/1 11/22/1 10/2/1
f 14/1/2 15/22/2 16/2/2
f 10/1/3 14/22/3 13/2/3
f 11/1/4 15/22/4 14/2/4
f 12/1/5 16/22/5 15/2/5
f 9/1/6 13/22/6 16/2/6
f 20/1/1 19/22/1 18/2/1
f 22/1/2 23/22/2 24/2/2
f 18/1/3 22/22/3 21/2/3
f 19/1/4 23/22/4 22/2/4
f 20/1/5 24/22/5 23/2/5
f 17/1/6 21/22/6 24/2/6
f 28/1/1 27/22/1 26/2/1
f 30/1/2 31/22/2 32/2/2
f 26/1/3 30/22/3 29/2/3
f 27/1/4 31/22/4 30/2/4
f 28/1/5 32/22/5 31/2/5
f 25/1/6 29/22/6 32/2/6
f 36/1/1 35/22/1 34/2/1
f 38/1/2 39/22/2 40/2/2
f 34/1/3 38/22/3 37/2/3
f 35/1/4 39/22/4 38/2/4
f 36/1/5 40/22/5 39/2/5
f 33/1/6 37/22/6 40/2/6
f 44/1/1 43/22/1 42/2/1
f 46/1/2 47/22/2 48/2/2
f 42/1/3 46/22/3 45/2/3
f 43/1/4 47/22/4 46/2/4
f 44/1/5 48/22/5 47/2/5
f 41/1/6 45/22/6 48/2/6
f 49/6/5 55/13/5 51/4/5
f 55/13/5 54/20/5 53/7/5
f 51/4/5 55/13/5 53/7/5
f 53/7/5 52/64/5 51/4/5
f 62/6/3 56/13/3 58/7/3
f 56/13/3 57/20/3 58/7/3
f 58/7/3 59/64/3 60/4/3
f 60/4/3 61/5/3 62/6/3
f 50/8/2 57/65/2 56/9/2
f 51/8/7 58/65/7 57/9/7
f 52/8/8 59/65/8 58/9/8
f 53/8/9 60/65/9 59/9/9
f 54/8/10 61/65/10 60/9/10
f 55/8/11 62/65/11 61/9/11
f 49/8/12 56/65/12 62/9/12
f 63/14/5 68/13/5 64/12/5
f 68/13/5 67/15/5 66/21/5
f 65/11/5 68/13/5 66/21/5
f 74/14/3 69/13/3 70/15/3
f 70/15/3 71/21/3 74/14/3
f 71/21/3 72/11/3 74/14/3
f 64/8/2 70/65/2 69/9/2
f 65/8/13 71/65/13 70/9/13
f 66/8/14 72/65/14 71/9/14
f 67/8/15 73/65/15 72/9/15
f 68/8/16 74/65/16 73/9/16
f 63/8/17 69/65/17 74/9/17
f 78/21/5 77/11/5 76/12/5
f 76/12/5 75/14/5 80/13/5
f 79/15/5 78/21/5 76/12/5
f 86/14/3 81/13/3 82/15/3
f 82/15/3 83/21/3 84/11/3
f 85/12/3 86/14/3 82/15/3
f 76/8/18 82/65/18 81/9/18
f 77/8/19 83/65/19 82/9/19
f 78/8/20 84/65/20 83/9/20
f 79/8/21 85/65/21 84/9/21
f 80/8/22 86/65/22 85/9/22
f 75/8/23 81/65/23 86/9/23
f 90/16/5 89/19/5 88/17/5
f 92/19/3 93/17/3 94/18/3
f 88/19/2 92/17/2 91/18/2
f 89/19/24 93/17/24 92/18/24
f 90/19/25 94/17/25 93/18/25
f 87/19/26 91/17/26 94/18/26
f 98/1/1 97/22/1 96/2/1
f 100/1/2 101/22/2 102/2/2
f 96/1/3 100/22/3 99/2/3
f 97/1/4 101/22/4 100/2/4
f 98/1/5 102/22/5 101/2/5
f 95/1/6 99/22/6 102/2/6
f 106/1/1 105/22/1 104/2/1
f 108/1/2 109/22/2 110/2/2
f 104/1/3 108/22/3 107/2/3
f 105/1/4 109/22/4 108/2/4
f 106/1/5 110/22/5 109/2/5
f 103/1/6 107/22/6 110/2/6
f 114/1/1 113/22/1 112/2/1
f 116/1/2 117/22/2 118/2/2
f 112/1/3 116/22/3 115/2/3
f 113/1/4 117/22/4 116/2/4
f 114/1/5 118/22/5 117/2/5
f 111/1/6 115/22/6 118/2/6
f 122/1/1 121/22/1 120/2/1
f 124/1/2 125/22/2 126/2/2
f 120/1/3 124/22/3 123/2/3
f 121/1/4 125/22/4 124/2/4
f 122/1/5 126/22/5 125/2/5
f 119/1/6 123/22/6 126/2/6
f 130/1/1 129/22/1 128/2/1
f 132/1/2 133/22/2 134/2/2
f 128/1/3 132/22/3 131/2/3
f 129/1/4 133/22/4 132/2/4
f 130/1/5 134/22/5 133/2/5
f 127/1/6 131/22/6 134/2/6
f 135/6/5 141/13/5 136/5/5
f 141/13/5 140/20/5 136/5/5
f 140/20/5 139/7/5 137/4/5
f 139/7/5 138/64/5 137/4/5
f 148/6/3 142/13/3 143/20/3
f 144/7/3 145/64/3 146/4/3
f 147/5/3 148/6/3 143/20/3
f 144/7/3 146/4/3 147/5/3
f 136/8/2 143/65/2 142/9/2
f 137/8/27 144/65/27 143/9/27
f 138/8/28 145/65/28 144/9/28
f 139/8/9 146/65/9 145/9/9
f 140/8/29 147/65/29 146/9/29
f 141/8/30 148/65/30 147/9/30
f 135/8/31 142/65/31 148/9/31
f 149/14/5 154/13/5 153/15/5
f 153/15/5 152/21/5 149/14/5
f 152/21/5 151/11/5 149/14/5
f 155/13/3 156/15/3 157/21/3
f 157/21/3 158/11/3 155/13/3
f 158/11/3 159/12/3 155/13/3
f 150/8/2 156/65/2 155/9/2
f 151/8/32 157/65/32 156/9/32
f 152/8/33 158/65/33 157/9/33
f 153/8/34 159/65/34 158/9/34
f 154/8/35 160/65/35 159/9/35
f 149/8/36 155/65/36 160/9/36
f 164/21/5 163/11/5 162/12/5
f 162/12/5 161/14/5 166/13/5
f 165/15/5 164/21/5 162/12/5
f 172/14/3 167/13/3 168/15/3
f 168/15/3 169/21/3 170/11/3
f 171/12/3 172/14/3 168/15/3
f 162/8/18 168/65/18 167/9/18
f 163/8/19 169/65/19 168/9/19
f 164/8/20 170/65/20 169/9/20
f 165/8/21 171/65/21 170/9/21
f 166/8/37 172/65/37 171/9/37
f 161/8/38 167/65/38 172/9/38
f 176/16/5 175/19/5 174/17/5
f 178/19/3 179/17/3 180/18/3
f 174/19/2 178/17/2 177/18/2
f 175/19/24 179/17/24 178/18/24
f 176/19/25 180/17/25 179/18/25
f 173/19/26 177/17/26 180/18/26
f 184/1/1 183/22/1 182/2/1
f 186/1/2 187/22/2 188/2/2
f 182/1/3 186/22/3 185/2/3
f 183/1/4 187/22/4 186/2/4
f 184/1/5 188/22/5 187/2/5
f 181/1/6 185/22/6 188/2/6
f 192/1/1 191/22/1 190/2/1
f 194/1/2 195/22/2 196/2/2
f 190/1/3 194/22/3 193/2/3
f 191/1/4 195/22/4 194/2/4
f 192/1/5 196/22/5 195/2/5
f 189/1/6 193/22/6 196/2/6
f 200/1/39 199/22/39 198/2/39
f 202/1/40 203/22/40 204/2/40
f 198/1/3 202/22/3 201/2/3
f 199/1/41 203/22/41 202/2/41
f 200/1/5 204/22/5 203/2/5
f 197/1/42 201/22/42 204/2/42
f 205/6/5 211/13/5 210/20/5
f 210/20/5 209/7/5 206/5/5
f 209/7/5 208/64/5 206/5/5
f 208/64/5 207/4/5 206/5/5
f 213/20/3 214/7/3 215/64/3
f 215/64/3 216/4/3 213/20/3
f 216/4/3 217/5/3 213/20/3
f 217/5/3 218/6/3 212/13/3
f 206/8/2 213/65/2 212/9/2
f 207/8/43 214/65/43 213/9/43
f 208/8/44 215/65/44 214/9/44
f 209/8/9 216/65/9 215/9/9
f 210/8/45 217/65/45 216/9/45
f 211/8/46 218/65/46 217/9/46
f 205/8/47 212/65/47 218/9/47
f 219/14/5 224/13/5 223/15/5
f 222/21/5 221/11/5 220/12/5
f 220/12/5 219/14/5 222/21/5
f 226/15/3 227/21/3 228/11/3
f 229/12/3 230/14/3 225/13/3
f 225/13/3 226/15/3 228/11/3
f 220/8/2 226/65/2 225/9/2
f 221/8/48 227/65/48 226/9/48
f 222/8/49 228/65/49 227/9/49
f 223/8/50 229/65/50 228/9/50
f 224/8/51 230/65/51 229/9/51
f 219/8/52 225/65/52 230/9/52
f 236/13/5 235/15/5 234/21/5
f 234/21/5 233/11/5 232/12/5
f 232/12/3 231/14/3 234/21/3
f 242/14/5 237/13/5 240/11/5
f 237/13/5 238/15/5 240/11/5
f 238/15/3 239/21/3 240/11/3
f 232/8/18 238/65/18 237/9/18
f 233/8/19 239/65/19 238/9/19
f 234/8/20 240/65/20 239/9/20
f 235/8/21 241/65/21 240/9/21
f 236/8/53 242/65/53 241/9/53
f 231/8/54 237/65/54 242/9/54
f 246/16/5 245/19/5 244/17/5
f 248/19/3 249/17/3 250/18/3
f 244/19/2 248/17/2 247/18/2
f 245/19/24 249/17/24 248/18/24
f 246/19/25 250/17/25 249/18/25
f 243/19/26 247/17/26 250/18/26
f 254/1/55 253/22/55 252/2/55
f 255/3/56 256/1/56 257/22/56
f 252/1/57 256/22/57 255/2/57
f 253/1/58 257/22/58 256/2/58
f 253/3/59 254/1/59 258/22/59
f 251/1/60 255/22/60 258/2/60
f 270/45/177 265/66/177 269/24/177
f 265/66/178 266/25/178 269/24/178
f 266/25/179 267/67/179 268/23/179
f 260/1/180 266/22/180 265/2/180
f 261/1/181 267/22/181 266/2/181
f 261/3/182 262/1/182 268/22/182
f 263/1/183 269/22/183 268/2/183
f 264/1/184 270/22/184 269/2/184
f 264/3/185 259/1/185 265/22/185
f 284/68/186 278/69/186 283/27/186
f 278/69/187 279/28/187 283/27/187
f 279/28/188 280/70/188 282/26/188
f 280/70/189 281/71/189 282/26/189
f 271/29/190 272/51/190 279/30/190
f 272/29/191 273/51/191 280/30/191
f 273/29/192 274/51/192 281/30/192
f 274/29/193 275/51/193 282/30/193
f 275/29/194 276/51/194 283/30/194
f 276/29/195 277/51/195 284/30/195
f 277/29/196 271/51/196 278/30/196
f 298/54/197 292/60/197 297/53/197
f 292/60/198 293/72/198 296/34/198
f 297/53/199 292/60/199 296/34/199
f 293/72/200 294/32/200 296/34/200
f 285/16/201 286/19/201 293/17/201
f 286/16/202 287/19/202 294/17/202
f 287/16/203 288/19/203 295/17/203
f 288/16/204 289/19/204 296/17/204
f 289/16/205 290/19/205 297/17/205
f 290/16/206 291/19/206 298/17/206
f 291/16/207 285/19/207 292/17/207
f 310/37/208 305/47/208 308/35/208
f 305/47/209 306/46/209 307/73/209
f 308/35/210 305/47/210 307/73/210
f 300/38/211 306/41/211 305/39/211
f 300/40/212 301/38/212 307/41/212
f 301/40/213 302/38/213 308/41/213
f 303/38/214 309/41/214 308/39/214
f 304/38/215 310/41/215 309/39/215
f 299/38/216 305/41/216 310/39/216
f 320/44/217 316/47/217 318/42/217
f 316/47/218 317/52/218 318/42/218
f 311/40/219 312/38/219 317/41/219
f 312/40/220 313/38/220 318/41/220
f 313/40/221 314/38/221 319/41/221
f 314/40/222 315/38/222 320/41/222
f 315/40/223 311/38/223 316/41/223
f 332/45/224 327/66/224 329/67/224
f 327/66/225 328/25/225 329/67/225
f 329/67/226 330/23/226 332/45/226
f 321/3/227 322/1/227 328/22/227
f 322/3/228 323/1/228 329/22/228
f 323/3/229 324/1/229 330/22/229
f 324/3/230 325/1/230 331/22/230
f 325/3/231 326/1/231 332/22/231
f 326/3/232 321/1/232 327/22/232
f 344/37/233 339/47/233 340/46/233
f 340/46/234 341/73/234 343/36/234
f 341/73/235 342/35/235 343/36/235
f 333/40/236 334/38/236 340/41/236
f 334/40/237 335/38/237 341/41/237
f 335/40/238 336/38/238 342/41/238
f 336/40/239 337/38/239 343/41/239
f 337/40/240 338/38/240 344/41/240
f 338/40/241 333/38/241 339/41/241
f 356/37/242 351/47/242 355/36/242
f 351/47/243 352/46/243 354/35/243
f 352/46/244 353/73/244 354/35/244
f 345/40/245 346/38/245 352/41/245
f 346/40/246 347/38/246 353/41/246
f 347/40/247 348/38/247 354/41/247
f 348/40/248 349/38/248 355/41/248
f 349/40/249 350/38/249 356/41/249
f 350/40/250 345/38/250 351/41/250
f 368/50/251 363/69/251 364/74/251
f 364/74/252 365/75/252 368/50/252
f 365/75/253 366/48/253 368/50/253
f 357/29/254 358/51/254 364/30/254
f 358/29/255 359/51/255 365/30/255
f 360/51/256 366/30/256 365/31/256
f 361/51/257 367/30/257 366/31/257
f 362/51/258 368/30/258 367/31/258
f 357/51/259 363/30/259 368/31/259
f 378/44/260 374/47/260 375/52/260
f 375/52/261 376/42/261 377/43/261
f 369/40/262 370/38/262 375/41/262
f 370/40/263 371/38/263 376/41/263
f 371/40/264 372/38/264 377/41/264
f 372/40/265 373/38/265 378/41/265
f 373/40/266 369/38/266 374/41/266
f 392/54/267 386/60/267 389/33/267
f 386/60/268 387/72/268 388/32/268
f 389/33/269 386/60/269 388/32/269
f 389/33/270 390/34/270 391/53/270
f 379/16/271 380/19/271 387/17/271
f 380/16/272 381/19/272 388/17/272
f 381/16/273 382/19/273 389/17/273
f 382/16/274 383/19/274 390/17/274
f 383/16/275 384/19/275 391/17/275
f 384/16/276 385/19/276 392/17/276
f 385/16/277 379/19/277 386/17/277
f 402/57/278 398/60/278 399/76/278
f 399/76/279 400/55/279 402/57/279
f 393/16/280 394/19/280 399/17/280
f 395/19/281 400/17/281 399/18/281
f 396/19/282 401/17/282 400/18/282
f 396/16/283 397/19/283 402/17/283
f 393/19/284 398/17/284 402/18/284
f 414/77/285 409/60/285 413/59/285
f 409/60/286 410/78/286 412/58/286
f 410/78/287 411/79/287 412/58/287
f 403/16/288 404/19/288 410/17/288
f 404/16/289 405/19/289 411/17/289
f 405/16/290 406/19/290 412/17/290
f 406/16/291 407/19/291 413/17/291
f 407/16/292 408/19/292 414/17/292
f 408/16/293 403/19/293 409/17/293
f 424/63/294 420/69/294 421/80/294
f 421/80/295 422/61/295 424/63/295
f 415/29/296 416/51/296 421/30/296
f 416/29/297 417/51/297 422/30/297
f 417/29/298 418/51/298 423/30/298
f 418/29/299 419/51/299 424/30/299
f 419/29/300 415/51/300 420/30/300
f 436/50/301 431/69/301 434/48/301
f 431/69/302 432/74/302 433/75/302
f 434/48/303 431/69/303 433/75/303
f 425/29/304 426/51/304 432/30/304
f 426/29/305 427/51/305 433/30/305
f 427/29/306 428/51/306 434/30/306
f 428/29/307 429/51/307 435/30/307
f 429/29/308 430/51/308 436/30/308
f 430/29/309 425/51/309 431/30/309
f 440/1/165 439/22/165 438/2/165
f 442/1/166 443/22/166 444/2/166
f 437/3/167 438/1/167 442/22/167
f 438/3/168 439/1/168 443/22/168
f 439/3/169 440/1/169 444/22/169
f 437/1/170 441/22/170 444/2/170
f 448/1/171 447/22/171 446/2/171
f 449/3/172 450/1/172 451/22/172
f 446/1/173 450/22/173 449/2/173
f 447/1/174 451/22/174 450/2/174
f 448/1/175 452/22/175 451/2/175
f 448/3/176 445/1/176 449/22/176
