# Blender 4.4.3
# www.blender.org
o ruin_wall
v -4.242500 0.261153 0.262692
v -1.342500 0.261153 0.262692
v -1.392500 1.707153 0.262692
v -1.252500 3.041153 0.262692
v -1.372500 3.161153 0.262692
v -4.242500 3.371153 0.262692
v -4.282500 2.725153 0.262692
v -4.242500 0.261153 -0.487308
v -1.342500 0.261153 -0.487308
v -1.392500 1.707153 -0.487308
v -1.252500 3.041153 -0.487308
v -1.372500 3.161153 -0.487308
v -4.242500 3.371153 -0.487308
v -4.282500 2.725153 -0.487308
v 1.307500 0.261153 0.262692
v 4.357500 0.261153 0.262692
v 4.397500 2.763153 0.262692
v 4.277499 3.333153 0.262692
v 1.337500 3.121153 0.262692
v 1.207500 1.591153 0.262692
v 1.307500 0.261153 -0.487308
v 4.357500 0.261153 -0.487308
v 4.397500 2.763153 -0.487308
v 4.277499 3.333153 -0.487308
v 1.337500 3.121153 -0.487308
v 1.207500 1.591153 -0.487308
v -1.342500 3.041153 0.262692
v -1.222500 3.131153 0.262692
v 1.187500 3.001153 0.262692
v 1.307500 3.041153 0.262692
v 4.271500 3.941153 0.262692
v -4.156501 3.599153 0.262692
v -1.342500 3.041153 -0.487308
v -1.222500 3.131153 -0.487308
v 1.187500 3.001153 -0.487308
v 1.307500 3.041153 -0.487308
v 4.271500 3.941153 -0.487308
v -4.156501 3.599153 -0.487308
v -1.342500 0.261153 0.262692
v 1.307500 0.261153 0.262692
v 1.227500 0.421153 0.262692
v -1.242500 0.301153 0.262692
v -1.342500 0.261153 -0.487308
v 1.307500 0.261153 -0.487308
v 1.227500 0.421153 -0.487308
v -1.242500 0.301153 -0.487308
v -4.758732 3.915252 0.317692
v -3.665755 3.791151 0.317692
v -3.665755 3.791151 -0.542308
v -4.758732 3.915252 -0.542308
v -4.719246 4.263018 0.317692
v -3.626268 4.138916 0.317692
v -3.626268 4.138916 -0.542308
v -4.719246 4.263018 -0.542308
v -3.610271 3.622992 0.317692
v -2.519176 3.483305 0.317692
v -2.519176 3.483305 -0.542308
v -3.610271 3.622992 -0.542308
v -3.565825 3.970158 0.317692
v -2.474730 3.830471 0.317692
v -2.474730 3.830471 -0.542308
v -3.565825 3.970158 -0.542308
v 2.720185 3.448929 0.317692
v 3.817809 3.521198 0.317692
v 3.817809 3.521198 -0.542308
v 2.720185 3.448929 -0.542308
v 2.697191 3.798173 0.317692
v 3.794814 3.870442 0.317692
v 3.794814 3.870442 -0.542308
v 2.697191 3.798173 -0.542308
v 3.656267 3.617443 0.317692
v 4.756239 3.609609 0.317692
v 4.756239 3.609609 -0.542308
v 3.656267 3.617443 -0.542308
v 3.658760 3.967434 0.317692
v 4.758732 3.959600 0.317692
v 4.758732 3.959600 -0.542308
v 3.658760 3.967434 -0.542308
v -1.323958 2.939349 0.116410
v -1.363858 2.939349 0.119236
v -1.361043 2.942956 0.158974
v -1.321143 2.942956 0.156148
v -1.333874 4.489349 -0.023590
v -1.373774 4.489349 -0.020763
v -1.370959 4.492956 0.018974
v -1.331059 4.492956 0.016148
v -1.323958 2.939349 -0.383590
v -1.363858 2.939349 -0.380764
v -1.361043 2.942956 -0.341026
v -1.321143 2.942956 -0.343852
v -1.333874 4.489349 -0.523590
v -1.373774 4.489349 -0.520763
v -1.370959 4.492956 -0.481026
v -1.331059 4.492956 -0.483852
v 1.369667 2.939244 0.112230
v 1.331982 2.939244 0.125642
v 1.345333 2.943061 0.163155
v 1.383017 2.943061 0.149743
v 1.319843 4.489244 -0.027770
v 1.282158 4.489244 -0.014359
v 1.295508 4.493062 0.023154
v 1.333193 4.493062 0.009742
v 1.369667 2.939244 -0.387770
v 1.331982 2.939244 -0.374358
v 1.345333 2.943061 -0.336845
v 1.383017 2.943061 -0.350257
v 1.319843 4.489244 -0.527770
v 1.282158 4.489244 -0.514359
v 1.295508 4.493062 -0.476846
v 1.333193 4.493062 -0.490258
v -3.326126 0.334058 -0.922090
v -3.002663 0.255452 -0.900328
v -2.733090 0.282835 -1.207570
v -3.128112 0.291860 -1.376308
v -3.547205 0.273629 -1.261112
v -3.105608 0.704140 -1.463758
v -3.476346 0.777071 -1.249176
v -3.424792 0.752284 -0.838730
v -2.935745 0.738576 -0.772559
v -2.721310 0.751045 -1.193733
v -3.534779 0.057428 -0.224548
v -3.422158 0.071454 -0.489530
v -3.610379 0.092113 -0.725490
v -3.801874 0.142523 -0.519250
v -3.745012 0.114056 -0.249839
v -3.763553 0.576541 -0.538301
v -3.798730 0.509316 -0.245661
v -3.557503 0.529414 -0.185700
v -3.411253 0.562362 -0.441400
v -3.576127 0.577554 -0.685978
v 0.080098 0.306107 1.067581
v 0.214166 0.241139 1.296491
v 0.535000 0.273304 1.315015
v 0.701210 0.249726 1.111342
v 0.421164 0.305074 0.966008
v 0.291415 0.682980 1.333053
v 0.640472 0.722903 1.294105
v 0.611034 0.688995 1.066356
v 0.316749 0.725433 0.952807
v 0.158153 0.715355 1.147856
v -1.370323 0.179796 -1.305026
v -1.554765 0.147913 -1.467745
v -1.849638 0.209158 -1.398473
v -1.784963 0.131629 -1.164975
v -1.476748 0.201153 -1.056405
v -1.437831 0.636808 -1.480580
v -1.779014 0.615138 -1.459055
v -1.856949 0.593975 -1.216981
v -1.598336 0.656929 -1.103568
v -1.349112 0.620188 -1.230018
v 0.952629 0.175512 -1.222728
v 0.840174 0.123019 -1.335886
v 0.590053 0.133467 -1.427194
v 0.224256 0.114027 -1.376445
v 0.239153 0.172334 -1.244447
v 0.353158 0.125708 -1.125361
v 0.702634 0.142523 -1.140190
v 0.968780 0.623647 -1.162364
v 0.978654 0.538833 -1.310889
v 0.740296 0.581515 -1.428211
v 0.337897 0.636086 -1.408900
v 0.213105 0.562370 -1.284091
v 0.206718 0.606319 -1.143297
v 0.590277 0.559923 -1.129870
v 2.447261 0.088291 0.680714
v 2.574418 0.062787 0.505786
v 2.557533 0.060399 0.243274
v 2.158423 0.110074 0.192759
v 1.892030 0.091861 0.374896
v 1.919369 0.093861 0.606898
v 2.148962 0.074456 0.784968
v 2.652109 0.491028 0.512387
v 2.467440 0.488658 0.326093
v 2.169755 0.577026 0.201191
v 1.916605 0.519803 0.377744
v 1.866005 0.565105 0.617586
v 2.131458 0.513259 0.808041
v 2.435503 0.579068 0.677083
v -1.003505 0.080285 -0.137436
v -1.186360 0.105468 -0.378055
v -1.421304 0.011541 -0.256447
v -1.457920 0.020572 -0.038856
v -1.225043 0.010838 0.032916
v -1.101947 0.473623 -0.290301
v -1.357122 0.495316 -0.327759
v -1.482544 0.541274 -0.134550
v -1.334137 0.478949 0.066927
v -1.097595 0.493425 -0.045413
v -3.527833 0.129083 1.112587
v -3.284350 0.105297 1.234985
v -3.165484 0.145167 0.940025
v -3.271644 0.112618 0.651822
v -3.530451 0.095397 0.702765
v -3.100133 0.572809 0.968963
v -3.271274 0.581355 0.698971
v -3.461713 0.577590 0.763445
v -3.566825 0.530867 1.119562
v -3.298608 0.605494 1.238461
v -2.605212 0.099021 0.067824
v -2.859818 0.105021 0.284439
v -2.913318 0.132226 0.502030
v -2.714653 0.160046 0.743900
v -2.254413 0.171313 0.717648
v -2.087885 0.090771 0.447600
v -2.249021 0.113868 0.217314
v -2.591122 0.561981 0.654371
v -2.249794 0.533798 0.617372
v -2.092948 0.597322 0.386657
v -2.317807 0.558558 0.185371
v -2.662175 0.553921 0.176628
v -2.988665 0.628529 0.305516
v -2.907521 0.580023 0.560601
v 2.110628 0.230971 0.308539
v 2.421713 0.194989 0.437524
v 2.892008 0.254912 0.403057
v 2.859809 0.274135 0.225781
v 2.439219 0.217333 0.196576
v 2.861940 0.672920 0.290150
v 2.617552 0.687958 0.123174
v 2.202100 0.662520 0.248029
v 2.208225 0.681446 0.430114
v 2.713002 0.640223 0.431377
v -0.957353 0.165961 0.255103
v -1.354269 0.158370 0.388063
v -1.000022 0.244083 0.521918
v -0.478996 0.162924 0.504800
v -0.426301 0.217177 0.313586
v -1.202950 0.705767 0.345116
v -1.183482 0.631483 0.517658
v -0.678952 0.687142 0.504441
v -0.312487 0.695186 0.366974
v -0.783972 0.694766 0.230153
v 1.153509 0.089134 -0.077189
v 0.750872 0.000000 -0.045896
v 0.645335 0.021182 0.275906
v 0.825637 0.059706 0.528756
v 1.181640 0.079660 0.539356
v 1.277319 0.023448 0.237749
v 0.842269 0.501971 0.032253
v 0.681979 0.479896 0.246877
v 0.819578 0.452400 0.479667
v 1.110634 0.496211 0.491224
v 1.268011 0.505071 0.265464
v 1.200236 0.495502 -0.074412
v 0.270750 0.179334 0.255374
v -0.040234 0.177474 0.172671
v -0.309924 0.163460 0.369492
v -0.104609 0.177641 0.652479
v 0.206871 0.118926 0.604684
v -0.139493 0.627932 0.651531
v 0.186302 0.626042 0.631322
v 0.232006 0.615008 0.311872
v -0.020771 0.596310 0.067848
v -0.217104 0.583181 0.353380
v 3.173850 0.102840 -0.885089
v 2.954146 0.160667 -0.945346
v 2.714951 0.114891 -0.871010
v 2.750365 0.067173 -0.739239
v 3.055744 0.126807 -0.681516
v 3.237729 0.099058 -0.787354
v 2.739484 0.604529 -0.909384
v 2.674106 0.611111 -0.767955
v 2.962642 0.592244 -0.702280
v 3.214159 0.606475 -0.756459
v 3.281568 0.602013 -0.874799
v 3.029662 0.535005 -0.920938
v 0.741877 0.247431 0.243695
v 0.556992 0.243094 0.291095
v 0.402704 0.275870 0.497891
v 0.594257 0.275733 0.658433
v 0.818669 0.253810 0.694248
v 0.901873 0.224718 0.422634
v 0.711048 0.690002 0.177165
v 0.478868 0.734485 0.269268
v 0.500986 0.693151 0.525651
v 0.625481 0.733313 0.705273
v 0.857539 0.698302 0.652746
v 0.868226 0.757282 0.375242
v -0.724443 0.267354 0.063586
v -0.415840 0.196769 -0.127425
v -0.564604 0.238859 -0.378696
v -1.011088 0.266600 -0.419999
v -1.303716 0.232696 -0.228239
v -1.089521 0.221551 -0.032928
v -0.550101 0.667671 0.016835
v -0.519304 0.711295 -0.225537
v -0.751274 0.684303 -0.400272
v -1.128686 0.647080 -0.339069
v -1.278726 0.692998 -0.123731
v -0.998275 0.695588 0.068010
v 1.103710 0.092702 1.205074
v 1.002561 0.034873 0.903543
v 0.719172 0.068759 0.982006
v 0.568061 0.102345 1.126684
v 0.493979 0.065200 1.386568
v 0.722201 0.102732 1.585751
v 1.003104 0.052655 1.481732
v 0.628832 0.556344 0.886033
v 0.444179 0.532305 1.140893
v 0.529726 0.494634 1.433597
v 0.783799 0.495367 1.556949
v 1.009815 0.546778 1.410082
v 1.062513 0.557256 1.155056
v 0.933367 0.482734 0.896390
v 3.910366 0.093571 -0.942842
v 3.564062 0.101789 -0.790311
v 3.365489 0.109906 -0.615276
v 3.495653 0.017294 -0.384820
v 3.884688 0.055828 -0.387724
v 4.136847 0.014008 -0.520059
v 4.209559 0.019480 -0.742981
v 3.505865 0.545276 -0.411664
v 3.897215 0.499969 -0.295162
v 4.197054 0.510304 -0.489743
v 4.208464 0.515845 -0.729462
v 3.913747 0.480080 -0.894627
v 3.507742 0.485561 -0.852297
v 3.352483 0.534100 -0.626744
v -2.174117 0.326629 0.607362
v -2.253923 0.326439 0.772681
v -2.013147 0.301210 0.885210
v -1.625171 0.293708 0.878981
v -1.583258 0.317758 0.713732
v -1.785417 0.311169 0.590177
v -2.325739 0.745392 0.624906
v -2.303018 0.734625 0.833362
v -1.915683 0.741446 0.883229
v -1.594203 0.743751 0.826899
v -1.527126 0.723882 0.655987
v -1.886551 0.700225 0.572043
v -1.091423 0.264899 -0.394441
v -1.288476 0.280626 -0.453030
v -1.491717 0.314230 -0.407776
v -1.513215 0.270720 -0.275793
v -1.386375 0.310120 -0.201337
v -1.211359 0.274637 -0.156291
v -1.078130 0.286508 -0.256664
v -1.049385 0.747042 -0.242324
v -1.133499 0.683707 -0.367437
v -1.279658 0.676983 -0.433529
v -1.480610 0.742899 -0.412218
v -1.486567 0.697477 -0.284719
v -1.410356 0.683308 -0.187095
v -1.215761 0.678741 -0.141234
v 1.647391 0.283368 -1.571675
v 1.425141 0.274624 -1.556640
v 1.332197 0.325114 -1.355293
v 1.392745 0.314578 -1.126857
v 1.627386 0.264197 -1.070279
v 1.735085 0.361336 -1.322628
v 1.725552 0.730269 -1.373954
v 1.582336 0.744302 -1.533459
v 1.353774 0.721366 -1.585751
v 1.314722 0.807079 -1.308608
v 1.439522 0.748772 -1.123947
v 1.629622 0.741925 -1.166171
v -1.037781 0.176835 0.692806
v -0.575792 0.157963 0.521279
v -0.837107 0.186958 0.301325
v -1.440530 0.161584 0.301439
v -1.535462 0.211532 0.552140
v -1.206696 0.673928 0.639209
v -0.687264 0.662088 0.588209
v -0.797976 0.641699 0.382711
v -1.259810 0.650343 0.259238
v -1.441352 0.621730 0.474872
v 1.801045 0.125128 -1.193146
v 1.330892 0.092656 -1.212296
v 1.082429 0.105328 -1.104179
v 1.119008 0.105064 -0.958865
v 1.577897 0.150456 -0.951909
v 1.883433 0.168411 -1.044515
v 1.051132 0.572601 -1.149737
v 1.170503 0.617073 -1.020842
v 1.466492 0.638386 -0.908475
v 1.859059 0.588844 -1.004170
v 1.757861 0.563596 -1.132787
v 1.454961 0.601225 -1.212712
v 3.968484 0.107319 0.004805
v 4.168504 0.100902 -0.042721
v 4.264280 0.140156 -0.237370
v 4.111176 0.176092 -0.419528
v 3.907547 0.168942 -0.283120
v 4.235620 0.549976 -0.142717
v 4.193814 0.588551 -0.378355
v 3.997174 0.554575 -0.336163
v 3.925227 0.602396 -0.099467
v 4.106952 0.541769 -0.012150
vn -0.0000 -0.0000 -1.0000
vn -0.0000 -0.0000 1.0000
vn -0.0000 1.0000 -0.0000
vn -0.9994 -0.0346 -0.0000
vn -0.9945 0.1044 -0.0000
vn -0.7071 -0.7071 -0.0000
vn -0.0730 -0.9973 -0.0000
vn 0.9981 -0.0618 -0.0000
vn 0.9999 0.0162 -0.0000
vn -0.9999 0.0160 -0.0000
vn -0.9785 -0.2060 -0.0000
vn 0.0719 -0.9974 -0.0000
vn 0.9964 -0.0847 -0.0000
vn 0.9972 0.0750 -0.0000
vn -0.6000 0.8000 -0.0000
vn 0.0539 0.9985 -0.0000
vn -0.3162 0.9487 -0.0000
vn -0.2905 0.9569 -0.0000
vn 0.0405 -0.9992 -0.0000
vn 0.1945 0.9809 -0.0000
vn -0.8944 -0.4472 -0.0000
vn 0.0485 -0.9988 -0.0000
vn 0.3714 -0.9285 -0.0000
vn -0.1128 -0.9936 -0.0000
vn 0.1128 0.9936 -0.0000
vn 0.9936 -0.1128 -0.0000
vn -0.9936 0.1128 -0.0000
vn -0.1270 -0.9919 -0.0000
vn 0.1270 0.9919 -0.0000
vn 0.9919 -0.1270 -0.0000
vn -0.9919 0.1270 -0.0000
vn 0.0657 -0.9978 -0.0000
vn -0.0657 0.9978 -0.0000
vn 0.9978 0.0657 -0.0000
vn -0.9978 -0.0657 -0.0000
vn -0.0071 -1.0000 -0.0000
vn 0.0071 1.0000 -0.0000
vn 1.0000 -0.0071 -0.0000
vn -1.0000 0.0071 -0.0000
vn 0.0064 -0.9959 0.0900
vn -0.0064 0.9959 -0.0900
vn -0.0704 -0.0902 -0.9934
vn -0.9975 -0.0000 0.0707
vn 0.0704 0.0902 0.9934
vn 0.9975 -0.0000 -0.0706
vn -0.9975 -0.0000 0.0706
vn 0.0320 -0.9954 0.0899
vn -0.0320 0.9954 -0.0899
vn -0.3338 -0.0954 -0.9378
vn -0.9421 -0.0000 0.3353
vn 0.3338 0.0954 0.9378
vn 0.9421 -0.0000 -0.3353
vn 0.0202 0.9981 0.0577
vn -0.4807 -0.6205 -0.6196
vn -0.7575 -0.6505 0.0559
vn -0.1137 -0.7120 0.6929
vn 0.6475 -0.6965 0.3091
vn 0.4573 -0.7168 -0.5263
vn 0.0041 0.9915 0.1301
vn -0.8387 -0.5000 -0.2157
vn -0.1514 -0.5771 0.8025
vn 0.7582 -0.5409 0.3640
vn 0.6808 -0.5421 -0.4926
vn -0.5486 -0.4582 -0.6994
vn 0.0779 0.9902 0.1157
vn -0.8450 0.1043 0.5245
vn 0.7489 -0.6627 0.0019
vn 0.2472 -0.5303 -0.8109
vn 0.4727 0.0899 -0.8766
vn -0.6882 -0.6131 0.3880
vn -0.2397 0.9708 0.0077
vn 0.6681 -0.1788 -0.7223
vn -0.2473 -0.1008 -0.9637
vn -0.9661 -0.1250 0.2261
vn -0.3339 0.0085 0.9426
vn 0.9100 -0.1118 0.3992
vn 0.1249 0.9487 -0.2905
vn 0.9944 -0.0485 0.0938
vn 0.4271 -0.0882 -0.8999
vn -0.0461 0.0132 -0.9988
vn -0.7364 0.1189 -0.6661
vn -0.9973 -0.0690 -0.0237
vn -0.0316 0.0276 0.9991
vn 0.3060 0.0589 0.9502
vn -0.1694 0.9805 0.0995
vn 0.7888 -0.1523 0.5956
vn 0.9739 0.2174 -0.0646
vn 0.1274 0.0148 -0.9917
vn -0.5658 0.0380 -0.8237
vn -0.9865 -0.1144 0.1172
vn -0.6150 -0.0658 0.7858
vn 0.3293 0.0149 0.9441
vn 0.0613 0.9654 0.2535
vn 0.7937 -0.0373 -0.6071
vn -0.4347 -0.0746 -0.8975
vn -0.9838 -0.0764 -0.1624
vn -0.2970 -0.1379 0.9449
vn 0.6161 -0.0350 0.7869
vn -0.0521 0.9920 0.1148
vn 0.5928 -0.7002 -0.3979
vn -0.2065 -0.7291 -0.6526
vn -0.7274 -0.6191 -0.2959
vn -0.0707 -0.7653 0.6398
vn 0.5128 -0.7216 0.4652
vn 0.2591 0.9606 0.1002
vn 0.0023 -0.7850 0.6195
vn 0.5242 -0.8424 0.1244
vn 0.4325 -0.8426 -0.3209
vn 0.0255 -0.8222 -0.5686
vn -0.3402 -0.8694 -0.3584
vn -0.5126 -0.8586 -0.0002
vn -0.2234 -0.7626 0.6071
vn 0.0804 0.9885 0.1282
vn 0.3847 -0.6799 -0.6243
vn -0.2303 -0.4565 -0.8594
vn -0.5233 -0.8456 0.1055
vn -0.0432 -0.5023 0.8636
vn 0.5938 -0.6487 0.4760
vn -0.0101 0.9994 0.0316
vn -0.9123 -0.4033 -0.0707
vn -0.3199 -0.1412 0.9369
vn 0.0350 0.0140 0.9993
vn 0.9498 -0.2475 0.1915
vn 0.1172 -0.0851 -0.9895
vn -0.0208 0.9995 0.0247
vn -0.1144 0.1731 -0.9782
vn -0.9476 0.0558 -0.3145
vn -0.8170 0.0591 0.5736
vn -0.0357 0.1087 0.9934
vn 0.9532 0.0010 0.3022
vn 0.9182 -0.1030 -0.3825
vn -0.0710 0.9975 -0.0029
vn 0.0440 -0.6384 0.7684
vn 0.8210 -0.5543 0.1366
vn 0.5260 -0.6940 -0.4917
vn -0.6765 -0.5494 -0.4904
vn -0.7796 -0.5569 0.2865
vn -0.2253 0.9603 -0.1645
vn -0.7138 -0.6326 -0.3005
vn -0.2247 -0.4748 0.8509
vn -0.8753 0.3289 0.3544
vn -0.2228 0.2219 0.9493
vn 0.2788 -0.4725 -0.8360
vn 0.8188 0.2295 -0.5263
vn -0.0868 0.9751 0.2039
vn -0.2416 -0.1607 -0.9570
vn -0.9862 -0.1541 0.0602
vn -0.6391 0.0998 0.7626
vn 0.2030 -0.1134 0.9726
vn 0.9530 -0.0555 0.2979
vn 0.7446 -0.0123 -0.6674
vn 0.0911 0.9850 -0.1466
vn 0.5027 -0.1190 0.8562
vn 0.8636 0.0787 -0.4981
vn 0.0915 -0.0099 -0.9958
vn -0.5487 0.0082 -0.8359
vn -0.6718 -0.1291 0.7294
vn -0.2336 -0.1593 0.9592
vn -0.1071 0.9941 0.0187
vn -0.4755 -0.7743 -0.4175
vn -0.6411 -0.7622 0.0893
vn -0.2851 -0.7541 0.5916
vn 0.4685 -0.7566 0.4562
vn 0.6756 -0.7290 0.1097
vn 0.7123 -0.6837 -0.1587
vn -0.1748 -0.8033 -0.5694
vn -0.1297 0.9914 0.0167
vn -0.2475 -0.8230 0.5114
vn 0.3221 -0.8318 0.4521
vn 0.4339 -0.9010 -0.0002
vn 0.3533 -0.8184 -0.4532
vn -0.0773 -0.7624 -0.6425
vn -0.5258 -0.8306 -0.1832
vn -0.4441 -0.8208 0.3593
vn -0.0351 0.9910 -0.1290
vn -0.8606 -0.2942 -0.4158
vn -0.4319 -0.1832 0.8831
vn 0.0161 0.0009 0.9999
vn 0.9699 -0.0389 0.2403
vn 0.5165 -0.1901 -0.8349
vn -0.0464 -0.0585 -0.9972
vn 0.0262 0.9996 -0.0117
vn 0.7953 0.1182 -0.5946
vn 0.4104 0.0357 -0.9112
vn -0.1079 -0.0075 -0.9941
vn -0.9978 0.0618 -0.0246
vn -0.7913 -0.0740 0.6070
vn -0.2301 -0.0387 0.9724
vn 0.5361 -0.0597 0.8420
vn 0.2116 0.9771 -0.0209
vn 0.7415 0.1587 -0.6519
vn 0.2256 -0.0274 -0.9738
vn -0.9909 -0.0231 -0.1325
vn -0.8132 0.0837 0.5760
vn 0.2194 0.1910 0.9568
vn 0.9066 0.0810 0.4140
vn 0.0366 0.9971 -0.0670
vn 0.0999 0.1402 0.9851
vn 0.8419 0.2497 -0.4784
vn 0.2580 0.1487 -0.9546
vn -0.7595 0.2282 -0.6091
vn -0.5917 0.2783 0.7566
vn 0.1549 0.9799 -0.1256
vn -0.3846 -0.7026 0.5986
vn -0.2985 -0.4065 0.8635
vn 0.1599 -0.4397 0.8838
vn 0.5194 -0.8177 -0.2481
vn 0.1733 -0.4574 -0.8722
vn 0.6972 0.4851 -0.5278
vn 0.1437 0.9776 -0.1538
vn 0.7964 -0.5582 -0.2327
vn -0.0794 -0.5624 -0.8231
vn -0.8178 -0.5594 -0.1356
vn -0.4943 -0.6494 0.5778
vn 0.5539 -0.6626 0.5041
vn 0.9975 -0.0000 -0.0707
vn -0.1046 0.9942 -0.0238
vn 0.1449 0.9858 -0.0847
vn 0.0959 0.6121 0.7850
vn 0.6421 0.4705 0.6053
vn 0.2845 0.7251 -0.6271
vn -0.2451 0.5379 -0.8066
vn -0.6087 0.7484 0.2635
vn 0.0284 0.9987 0.0429
vn -0.1322 0.9694 0.2068
vn 0.7967 0.4824 0.3641
vn 0.6836 0.5329 -0.4987
vn -0.5130 0.5925 -0.6211
vn -0.8255 0.5160 0.2287
vn 0.0408 0.5300 0.8470
vn 0.0796 0.9901 0.1158
vn -0.1270 0.9834 -0.1300
vn 0.1219 -0.1030 0.9872
vn -0.1014 0.5243 0.8455
vn 0.6243 0.6493 0.4343
vn -0.7538 -0.2068 -0.6236
vn -0.2174 0.6406 -0.7364
vn 0.1517 0.9884 0.0118
vn -0.0683 0.9943 -0.0822
vn -0.0622 -0.0113 -0.9980
vn -0.9479 0.1209 -0.2946
vn -0.4092 0.0388 0.9116
vn 0.4669 0.2134 0.8582
vn 0.9428 0.0113 -0.3331
vn -0.1671 0.9859 -0.0127
vn 0.3648 0.8188 -0.4433
vn 0.1397 0.9801 0.1412
vn -0.1518 0.9100 0.3857
vn 0.7403 -0.2081 -0.6392
vn 0.3364 -0.1149 -0.9347
vn -0.1357 -0.0320 -0.9902
vn -0.9895 -0.0524 0.1348
vn -0.7458 -0.2036 0.6343
vn 0.0430 -0.0131 0.9990
vn 0.1075 -0.1365 0.9848
vn 0.2150 0.9503 -0.2252
vn 0.3558 0.9123 -0.2026
vn -0.1620 0.9830 0.0863
vn 0.2741 0.9539 -0.1223
vn 0.7060 -0.1173 -0.6984
vn 0.4380 0.2586 -0.8610
vn -0.5762 0.0287 -0.8168
vn -0.9746 0.0574 -0.2165
vn -0.5918 -0.0852 0.8016
vn 0.4012 -0.0321 0.9154
vn 0.6104 0.0205 0.7918
vn 0.0964 0.9920 -0.0819
vn 0.1527 0.9792 -0.1338
vn 0.1586 0.1944 -0.9680
vn -0.8351 0.0298 -0.5492
vn -0.7919 0.0740 0.6062
vn 0.4271 0.0339 0.9036
vn 0.9726 0.2295 -0.0358
vn -0.1622 0.9582 -0.2356
vn -0.0075 0.9993 0.0364
vn -0.2504 0.7269 0.6395
vn 0.6927 0.6229 0.3634
vn 0.5873 0.7513 -0.3012
vn -0.1755 0.7498 -0.6380
vn -0.7273 0.6844 -0.0516
vn 0.0647 0.9976 -0.0265
vn 0.0869 0.9953 0.0434
vn -0.0131 0.9998 -0.0149
vn -0.2509 0.9634 0.0947
vn -0.3484 0.8316 -0.4326
vn -0.5043 0.8329 -0.2281
vn -0.4570 0.8449 0.2782
vn 0.0125 0.8208 0.5711
vn 0.5054 0.8611 0.0548
vn 0.4718 0.8470 -0.2452
vn 0.2231 0.7626 -0.6072
vn -0.0553 0.9840 0.1695
vn -0.0907 0.9909 -0.0999
vn -0.2503 0.5893 0.7682
vn 0.0189 0.3832 0.9235
vn 0.5291 0.8485 -0.0041
vn -0.0053 0.4880 -0.8728
vn -0.2749 0.4315 -0.8592
vn 0.1283 0.9161 0.3799
vn -0.1076 0.9918 0.0688
vn -0.3033 0.3521 -0.8855
vn 0.0237 0.0222 0.9995
vn 0.3456 0.1325 0.9290
vn 0.2784 0.0409 -0.9596
vn -0.2634 0.0409 -0.9638
vn 0.0091 0.9995 -0.0300
vn 0.0113 0.9938 0.1107
vn -0.1520 0.9832 0.1012
vn -0.7906 0.2322 -0.5666
vn -0.8512 0.1006 0.5150
vn -0.0578 0.1230 0.9907
vn 0.7998 0.2017 0.5654
vn 0.9801 0.0302 -0.1963
vn -0.2847 0.0393 -0.9578
vn -0.0034 0.9890 -0.1476
vn -0.0748 0.9962 -0.0451
vn 0.1910 0.6529 -0.7329
vn -0.5163 0.5342 -0.6694
vn -0.6049 0.6859 0.4045
vn 0.2318 0.6182 0.7511
vn 0.8126 0.5309 0.2404
vn 0.2222 0.9577 -0.1826
vn 0.0686 0.9975 -0.0147
vn -0.1151 0.9518 -0.2844
vn 0.3508 0.5238 -0.7763
vn -0.3427 0.4661 -0.8157
vn 0.2164 -0.1553 0.9639
vn 0.8475 -0.2033 0.4904
vn 0.4974 0.4623 0.7341
vn -0.0644 -0.1038 -0.9925
vn 0.0405 0.9359 -0.3500
vn -0.1029 0.9806 0.1670
vn 0.0831 0.9587 -0.2719
vn -0.3836 -0.1018 -0.9179
vn -0.7647 0.2204 -0.6055
vn -0.8216 -0.0023 0.5700
vn -0.1468 0.1047 0.9836
vn 0.9963 0.0676 0.0527
vn 0.7889 -0.0373 -0.6134
vn 0.0632 0.9980 0.0093
vn -0.2217 0.9642 0.1454
vn -0.1110 0.9904 -0.0824
vn 0.9609 0.2242 0.1624
vn 0.5741 0.2022 -0.7934
vn -0.1729 0.1535 -0.9729
vn -0.7896 0.1763 -0.5878
vn -0.5627 -0.0671 0.8239
vn 0.1172 0.0647 0.9910
vn 0.2299 0.8986 -0.3737
vn -0.0417 0.9971 0.0638
vn -0.0431 0.9892 0.1399
vn -0.0966 0.9764 0.1931
vn 0.5455 0.7701 -0.3307
vn -0.1119 0.6991 -0.7062
vn -0.3407 0.7730 -0.5352
vn -0.6776 0.7301 -0.0888
vn -0.4909 0.7641 0.4185
vn 0.3355 0.7778 0.5315
vn 0.5483 0.7760 0.3117
vn 0.1147 0.9845 -0.1329
vn 0.1236 0.9919 -0.0295
vn -0.0006 0.9909 -0.1343
vn -0.0569 0.9978 -0.0347
vn -0.2106 0.8261 -0.5226
vn -0.3400 0.8391 -0.4246
vn -0.3188 0.8034 0.5029
vn -0.0712 0.7669 0.6378
vn 0.3710 0.8122 0.4503
vn 0.5242 0.8298 0.1913
vn 0.4437 0.8207 -0.3600
vn 0.1069 0.9935 0.0397
vn -0.0005 0.9913 -0.1314
vn -0.0306 0.9905 -0.1341
vn -0.9859 -0.1335 0.1006
vn -0.1282 0.0328 0.9912
vn 0.1710 0.1016 0.9800
vn 0.9253 -0.0750 0.3719
vn 0.2266 0.0135 -0.9739
vn -0.1197 -0.0017 -0.9928
vn -0.4495 0.8816 -0.1441
vn -0.0480 0.9988 0.0045
vn 0.3256 0.8858 0.3308
vn 0.1291 0.9907 0.0430
vn 0.2905 0.0906 -0.9526
vn -0.2087 0.0527 -0.9766
vn -0.9879 0.0240 -0.1530
vn -0.5171 0.0502 0.8544
vn -0.2591 -0.0534 0.9644
vn 0.6029 -0.0231 0.7975
vn 0.9945 -0.0594 -0.0866
vn 0.1054 0.9944 -0.0071
vn -0.0273 0.9539 -0.2989
vn 0.0891 0.9655 0.2446
vn -0.0702 0.0726 -0.9949
vn -0.9102 -0.1700 -0.3775
vn -0.9656 -0.0595 0.2532
vn -0.2306 0.0183 0.9729
vn 0.9054 0.0795 0.4170
vn 0.9451 -0.0210 -0.3262
vn -0.1945 0.9803 -0.0337
vn 0.0123 0.9944 -0.1053
vn 0.3459 -0.0479 0.9370
vn 0.6471 0.0800 -0.7582
vn 0.0035 -0.0873 -0.9962
vn -0.9165 0.1397 -0.3749
vn -0.2712 0.0116 0.9624
vn -0.1053 0.9661 -0.2358
vn -0.0258 0.9924 -0.1202
vn 0.0637 0.9686 -0.2402
vn 0.0143 0.3467 -0.9379
vn -0.3183 0.5203 -0.7925
vn -0.5362 0.8330 0.1365
vn -0.0553 0.4206 0.9056
vn 0.2167 0.5325 0.8182
vn -0.1425 -0.1438 -0.9793
vn 0.1952 0.9479 0.2519
vn -0.1293 0.9747 0.1825
vn 0.2101 0.5469 0.8104
vn 0.6955 0.5566 0.4545
vn 0.6600 0.6135 -0.4337
vn -0.4293 0.6699 -0.6058
vn -0.7758 0.5631 0.2847
vt 0.535128 0.081720
vt 0.602804 0.027751
vt 0.687193 0.047012
vt 0.602804 0.222249
vt 0.724750 0.025250
vt 0.525250 0.224750
vt 0.525250 0.025250
vt 0.525250 0.125000
vt 0.575125 0.038614
vt 0.724750 0.125000
vt 0.674875 0.038614
vt 0.575125 0.211386
vt 0.674875 0.211386
vt 0.724750 0.224750
vt 0.474750 0.275250
vt 0.275250 0.474750
vt 0.275250 0.275250
vt 0.474750 0.474750
vt 0.775250 0.025250
vt 0.974750 0.224750
vt 0.775250 0.224750
vt 0.974750 0.025250
vt 0.655824 0.469868
vt 0.544301 0.433632
vt 0.544301 0.316368
vt 0.525250 0.275250
vt 0.724750 0.474750
vt 0.525250 0.474750
vt 0.544301 0.066368
vt 0.544301 0.183632
vt 0.294301 0.316368
vt 0.474750 0.375000
vt 0.294301 0.433632
vt 0.155824 0.219868
vt 0.044301 0.183632
vt 0.044301 0.066368
vt 0.224750 0.025250
vt 0.025250 0.224750
vt 0.025250 0.025250
vt 0.285128 0.331720
vt 0.352804 0.277751
vt 0.437193 0.297012
vt 0.602804 0.277751
vt 0.687193 0.297012
vt 0.535128 0.418280
vt 0.724750 0.275250
vt 0.155824 0.030132
vt 0.224750 0.125000
vt 0.224750 0.224750
vt 0.655824 0.280132
vt 0.275250 0.375000
vt 0.325125 0.288614
vt 0.424875 0.288614
vt 0.325125 0.461386
vt 0.352804 0.472249
vt 0.602804 0.472249
vt 0.535128 0.331720
vt 0.674875 0.461386
vt 0.525250 0.375000
vt 0.674875 0.288614
vt 0.687193 0.202988
vt 0.535128 0.168280
vt 0.724750 0.375000
vt 0.655824 0.030132
vt 0.655824 0.219868
vt 0.405824 0.280132
vt 0.405824 0.469868
vt 0.437193 0.452988
vt 0.285128 0.418280
vt 0.687193 0.452988
vt 0.424875 0.461386
vt 0.575125 0.461386
vt 0.575125 0.288614
s 0
f 3/1/1 2/2/1 1/3/1
f 10/4/2 12/1/2 14/3/2
f 2/5/3 8/6/3 1/7/3
f 3/5/4 9/6/4 2/7/4
f 4/5/5 10/6/5 3/7/5
f 5/5/6 11/6/6 4/7/6
f 6/5/7 12/6/7 5/7/7
f 7/5/8 13/6/8 6/7/8
f 1/5/9 14/6/9 7/7/9
f 17/8/1 16/9/1 20/10/1
f 26/11/2 23/12/2 25/9/2
f 16/5/3 21/6/3 15/7/3
f 17/5/10 22/6/10 16/7/10
f 18/5/11 23/6/11 17/7/11
f 19/5/12 24/6/12 18/7/12
f 20/5/13 25/6/13 19/7/13
f 15/5/14 26/6/14 20/7/14
f 28/9/1 27/11/1 32/10/1
f 37/9/2 38/11/2 34/13/2
f 28/5/15 33/6/15 27/7/15
f 29/5/16 34/6/16 28/7/16
f 30/5/17 35/6/17 29/7/17
f 31/5/18 36/6/18 30/7/18
f 32/5/19 37/6/19 31/7/19
f 27/5/20 38/6/20 32/7/20
f 42/7/1 40/14/1 39/6/1
f 44/5/2 46/6/2 43/7/2
f 40/5/3 43/6/3 39/7/3
f 41/5/21 44/6/21 40/7/21
f 42/5/22 45/6/22 41/7/22
f 39/5/23 46/6/23 42/7/23
f 50/15/24 48/16/24 47/17/24
f 52/15/25 54/16/25 51/17/25
f 47/17/2 52/18/2 51/16/2
f 49/15/26 52/16/26 48/17/26
f 50/15/1 53/16/1 49/17/1
f 47/15/27 54/16/27 50/17/27
f 58/15/28 56/16/28 55/17/28
f 60/15/29 62/16/29 59/17/29
f 56/15/2 59/16/2 55/17/2
f 57/15/30 60/16/30 56/17/30
f 58/15/1 61/16/1 57/17/1
f 55/15/31 62/16/31 58/17/31
f 66/15/32 64/16/32 63/17/32
f 68/15/33 70/16/33 67/17/33
f 64/15/2 67/16/2 63/17/2
f 65/15/34 68/16/34 64/17/34
f 66/15/1 69/16/1 65/17/1
f 63/15/35 70/16/35 66/17/35
f 74/15/36 72/16/36 71/17/36
f 76/15/37 78/16/37 75/17/37
f 72/15/2 75/16/2 71/17/2
f 73/15/38 76/16/38 72/17/38
f 73/17/1 78/18/1 77/16/1
f 71/15/39 78/16/39 74/17/39
f 79/19/40 81/20/40 80/21/40
f 84/22/41 86/21/41 83/19/41
f 80/22/42 83/21/42 79/19/42
f 80/19/43 85/20/43 84/21/43
f 82/22/44 85/21/44 81/19/44
f 79/22/45 86/21/45 82/19/45
f 90/22/40 88/21/40 87/19/40
f 92/22/41 94/21/41 91/19/41
f 88/22/42 91/21/42 87/19/42
f 89/22/46 92/21/46 88/19/46
f 90/22/44 93/21/44 89/19/44
f 87/22/45 94/21/45 90/19/45
f 95/19/47 97/20/47 96/21/47
f 100/22/48 102/21/48 99/19/48
f 96/22/49 99/21/49 95/19/49
f 97/22/50 100/21/50 96/19/50
f 98/22/51 101/21/51 97/19/51
f 95/22/52 102/21/52 98/19/52
f 106/22/47 104/21/47 103/19/47
f 108/22/48 110/21/48 107/19/48
f 104/22/49 107/21/49 103/19/49
f 105/22/50 108/21/50 104/19/50
f 106/22/51 109/21/51 105/19/51
f 103/22/52 110/21/52 106/19/52
f 117/23/53 118/24/53 119/25/53
f 111/26/54 117/27/54 116/28/54
f 112/26/55 118/27/55 117/28/55
f 113/26/56 119/27/56 118/28/56
f 114/26/57 120/27/57 119/28/57
f 115/26/58 116/27/58 120/28/58
f 129/29/59 126/10/59 128/30/59
f 121/7/60 127/14/60 126/6/60
f 122/7/61 128/14/61 127/6/61
f 123/7/62 129/14/62 128/6/62
f 124/7/63 130/14/63 129/6/63
f 125/7/64 126/14/64 130/6/64
f 139/31/65 136/32/65 138/33/65
f 132/15/66 136/16/66 131/17/66
f 132/17/67 138/18/67 137/16/67
f 133/17/68 139/18/68 138/16/68
f 135/15/69 139/16/69 134/17/69
f 135/17/70 136/18/70 140/16/70
f 147/34/71 148/35/71 149/36/71
f 142/37/72 146/38/72 141/39/72
f 143/37/73 147/38/73 142/39/73
f 144/37/74 148/38/74 143/39/74
f 145/37/75 149/38/75 144/39/75
f 141/37/76 150/38/76 145/39/76
f 162/40/77 163/41/77 164/42/77
f 151/17/78 159/18/78 158/16/78
f 152/17/79 160/18/79 159/16/79
f 153/17/80 161/18/80 160/16/80
f 154/17/81 162/18/81 161/16/81
f 155/17/82 163/18/82 162/16/82
f 156/17/83 164/18/83 163/16/83
f 151/15/84 164/16/84 157/17/84
f 177/43/85 178/44/85 175/45/85
f 166/46/86 172/28/86 165/26/86
f 167/46/87 173/28/87 166/26/87
f 168/46/88 174/28/88 167/26/88
f 169/46/89 175/28/89 168/26/89
f 170/46/90 176/28/90 169/26/90
f 171/46/91 177/28/91 170/26/91
f 165/46/92 178/28/92 171/26/92
f 186/35/93 187/36/93 188/47/93
f 180/37/94 184/38/94 179/39/94
f 181/37/95 185/38/95 180/39/95
f 182/37/96 186/38/96 181/39/96
f 183/37/97 187/38/97 182/39/97
f 179/37/98 188/38/98 183/39/98
f 196/35/99 197/36/99 194/48/99
f 189/39/100 195/49/100 194/38/100
f 190/39/101 196/49/101 195/38/101
f 191/39/102 197/49/102 196/38/102
f 192/39/103 198/49/103 197/38/103
f 193/39/104 194/49/104 198/38/104
f 210/1/105 211/2/105 212/3/105
f 199/7/106 207/14/106 206/6/106
f 200/7/107 208/14/107 207/6/107
f 201/7/108 209/14/108 208/6/108
f 202/7/109 210/14/109 209/6/109
f 203/7/110 211/14/110 210/6/110
f 204/7/111 212/14/111 211/6/111
f 205/7/112 206/14/112 212/6/112
f 219/23/113 221/25/113 222/50/113
f 213/26/114 219/27/114 218/28/114
f 214/26/115 220/27/115 219/28/115
f 215/26/116 221/27/116 220/28/116
f 216/26/117 222/27/117 221/28/117
f 217/26/118 218/27/118 222/28/118
f 230/24/119 231/25/119 232/50/119
f 223/26/120 229/27/120 228/28/120
f 225/46/121 229/28/121 224/26/121
f 226/46/122 230/28/122 225/26/122
f 227/46/123 231/28/123 226/26/123
f 223/46/124 232/28/124 227/26/124
f 242/51/125 243/52/125 239/32/125
f 234/15/126 239/16/126 233/17/126
f 235/15/127 240/16/127 234/17/127
f 236/15/128 241/16/128 235/17/128
f 237/15/129 242/16/129 236/17/129
f 238/15/130 243/16/130 237/17/130
f 233/15/131 244/16/131 238/17/131
f 252/35/132 253/36/132 254/47/132
f 245/39/133 251/49/133 250/38/133
f 246/39/134 252/49/134 251/38/134
f 247/39/135 253/49/135 252/38/135
f 248/39/136 254/49/136 253/38/136
f 249/39/137 250/49/137 254/38/137
f 264/8/138 265/9/138 266/11/138
f 255/7/139 262/14/139 261/6/139
f 256/7/140 263/14/140 262/6/140
f 258/5/141 263/6/141 257/7/141
f 259/5/142 264/6/142 258/7/142
f 259/7/143 266/14/143 265/6/143
f 255/5/144 266/6/144 260/7/144
f 278/53/145 275/54/145 277/52/145
f 268/15/146 273/16/146 267/17/146
f 268/17/147 275/18/147 274/16/147
f 270/15/148 275/16/148 269/17/148
f 270/17/149 277/18/149 276/16/149
f 272/15/150 277/16/150 271/17/150
f 267/15/151 278/16/151 272/17/151
f 288/51/152 289/52/152 290/53/152
f 280/15/153 285/16/153 279/17/153
f 281/15/154 286/16/154 280/17/154
f 282/15/155 287/16/155 281/17/155
f 283/15/156 288/16/156 282/17/156
f 284/15/157 289/16/157 283/17/157
f 279/15/158 290/16/158 284/17/158
f 303/41/159 300/55/159 302/40/159
f 291/17/160 299/18/160 298/16/160
f 292/17/161 300/18/161 299/16/161
f 293/17/162 301/18/162 300/16/162
f 294/17/163 302/18/163 301/16/163
f 295/17/164 303/18/164 302/16/164
f 296/17/165 304/18/165 303/16/165
f 297/17/166 298/18/166 304/16/166
f 314/56/167 315/45/167 316/57/167
f 305/26/168 313/27/168 312/28/168
f 306/26/169 314/27/169 313/28/169
f 307/26/170 315/27/170 314/28/170
f 308/26/171 316/27/171 315/28/171
f 309/26/172 317/27/172 316/28/172
f 310/26/173 318/27/173 317/28/173
f 311/26/174 312/27/174 318/28/174
f 328/8/175 329/9/175 330/11/175
f 320/5/176 325/6/176 319/7/176
f 321/5/177 326/6/177 320/7/177
f 322/5/178 327/6/178 321/7/178
f 323/5/179 328/6/179 322/7/179
f 324/5/180 329/6/180 323/7/180
f 319/5/181 330/6/181 324/7/181
f 343/2/182 344/3/182 340/4/182
f 331/7/183 339/14/183 338/6/183
f 332/7/184 340/14/184 339/6/184
f 333/7/185 341/14/185 340/6/185
f 334/7/186 342/14/186 341/6/186
f 335/7/187 343/14/187 342/6/187
f 336/7/188 344/14/188 343/6/188
f 337/7/189 338/14/189 344/6/189
f 352/58/190 354/59/190 356/60/190
f 345/26/191 352/27/191 351/28/191
f 346/26/192 353/27/192 352/28/192
f 347/26/193 354/27/193 353/28/193
f 348/26/194 355/27/194 354/28/194
f 349/26/195 356/27/195 355/28/195
f 350/26/196 351/27/196 356/28/196
f 365/31/197 362/32/197 364/33/197
f 357/17/198 363/18/198 362/16/198
f 358/17/199 364/18/199 363/16/199
f 359/17/200 365/18/200 364/16/200
f 360/17/201 366/18/201 365/16/201
f 361/17/202 362/18/202 366/16/202
f 378/11/203 375/12/203 377/9/203
f 367/7/204 374/14/204 373/6/204
f 368/7/205 375/14/205 374/6/205
f 369/7/206 376/14/206 375/6/206
f 370/7/207 377/14/207 376/6/207
f 371/7/208 378/14/208 377/6/208
f 367/5/209 378/6/209 372/7/209
f 386/35/210 387/36/210 384/48/210
f 379/39/211 385/49/211 384/38/211
f 380/39/212 386/49/212 385/38/212
f 381/39/213 387/49/213 386/38/213
f 382/39/214 388/49/214 387/38/214
f 383/39/215 384/49/215 388/38/215
f 1/3/1 7/10/1 3/1/1
f 7/10/1 6/61/1 5/4/1
f 3/1/1 7/10/1 5/4/1
f 5/4/1 4/62/1 3/1/1
f 14/3/2 8/10/2 10/4/2
f 8/10/2 9/61/2 10/4/2
f 10/4/2 11/62/2 12/1/2
f 12/1/2 13/2/2 14/3/2
f 2/5/3 9/14/3 8/6/3
f 3/5/4 10/14/4 9/6/4
f 4/5/5 11/14/5 10/6/5
f 5/5/6 12/14/6 11/6/6
f 6/5/7 13/14/7 12/6/7
f 7/5/8 14/14/8 13/6/8
f 1/5/9 8/14/9 14/6/9
f 15/11/1 20/10/1 16/9/1
f 20/10/1 19/13/1 17/8/1
f 19/13/1 18/12/1 17/8/1
f 26/11/2 21/10/2 22/13/2
f 22/13/2 23/12/2 26/11/2
f 23/12/2 24/8/2 25/9/2
f 16/5/3 22/14/3 21/6/3
f 17/5/10 23/14/10 22/6/10
f 18/5/11 24/14/11 23/6/11
f 19/5/12 25/14/12 24/6/12
f 20/5/13 26/14/13 25/6/13
f 15/5/14 21/14/14 26/6/14
f 32/10/1 31/13/1 28/9/1
f 31/13/1 30/12/1 28/9/1
f 30/12/1 29/8/1 28/9/1
f 38/11/2 33/10/2 34/13/2
f 34/13/2 35/12/2 36/8/2
f 36/8/2 37/9/2 34/13/2
f 28/5/15 34/14/15 33/6/15
f 29/5/16 35/14/16 34/6/16
f 30/5/17 36/14/17 35/6/17
f 31/5/18 37/14/18 36/6/18
f 32/5/19 38/14/19 37/6/19
f 27/5/20 33/14/20 38/6/20
f 42/7/1 41/5/1 40/14/1
f 44/5/2 45/14/2 46/6/2
f 40/5/3 44/14/3 43/6/3
f 41/5/21 45/14/21 44/6/21
f 42/5/22 46/14/22 45/6/22
f 39/5/23 43/14/23 46/6/23
f 50/15/24 49/18/24 48/16/24
f 52/15/25 53/18/25 54/16/25
f 47/17/2 48/15/2 52/18/2
f 49/15/26 53/18/26 52/16/26
f 50/15/1 54/18/1 53/16/1
f 47/15/27 51/18/27 54/16/27
f 58/15/28 57/18/28 56/16/28
f 60/15/29 61/18/29 62/16/29
f 56/15/2 60/18/2 59/16/2
f 57/15/30 61/18/30 60/16/30
f 58/15/1 62/18/1 61/16/1
f 55/15/31 59/18/31 62/16/31
f 66/15/32 65/18/32 64/16/32
f 68/15/33 69/18/33 70/16/33
f 64/15/2 68/18/2 67/16/2
f 65/15/34 69/18/34 68/16/34
f 66/15/1 70/18/1 69/16/1
f 63/15/35 67/18/35 70/16/35
f 74/15/36 73/18/36 72/16/36
f 76/15/37 77/18/37 78/16/37
f 72/15/2 76/18/2 75/16/2
f 73/15/38 77/18/38 76/16/38
f 73/17/1 74/15/1 78/18/1
f 71/15/39 75/18/39 78/16/39
f 79/19/40 82/22/40 81/20/40
f 84/22/41 85/20/41 86/21/41
f 80/22/42 84/20/42 83/21/42
f 80/19/43 81/22/43 85/20/43
f 82/22/44 86/20/44 85/21/44
f 79/22/216 83/20/216 86/21/216
f 90/22/40 89/20/40 88/21/40
f 92/22/41 93/20/41 94/21/41
f 88/22/42 92/20/42 91/21/42
f 89/22/43 93/20/43 92/21/43
f 90/22/44 94/20/44 93/21/44
f 87/22/216 91/20/216 94/21/216
f 95/19/47 98/22/47 97/20/47
f 100/22/48 101/20/48 102/21/48
f 96/22/49 100/20/49 99/21/49
f 97/22/50 101/20/50 100/21/50
f 98/22/51 102/20/51 101/21/51
f 95/22/52 99/20/52 102/21/52
f 106/22/47 105/20/47 104/21/47
f 108/22/48 109/20/48 110/21/48
f 104/22/49 108/20/49 107/21/49
f 105/22/50 109/20/50 108/21/50
f 106/22/51 110/20/51 109/21/51
f 103/22/52 107/20/52 110/21/52
f 120/50/217 116/63/217 119/25/217
f 116/63/218 117/23/218 119/25/218
f 111/26/219 112/46/219 117/27/219
f 112/26/220 113/46/220 118/27/220
f 113/26/221 114/46/221 119/27/221
f 114/26/222 115/46/222 120/27/222
f 115/26/223 111/46/223 116/27/223
f 130/64/224 126/10/224 129/29/224
f 126/10/225 127/65/225 128/30/225
f 121/7/226 122/5/226 127/14/226
f 122/7/227 123/5/227 128/14/227
f 123/7/228 124/5/228 129/14/228
f 124/7/229 125/5/229 130/14/229
f 125/7/230 121/5/230 126/14/230
f 140/66/231 136/32/231 139/31/231
f 136/32/232 137/67/232 138/33/232
f 132/15/233 137/18/233 136/16/233
f 132/17/234 133/15/234 138/18/234
f 133/17/235 134/15/235 139/18/235
f 135/15/236 140/18/236 139/16/236
f 135/17/237 131/15/237 136/18/237
f 150/47/238 146/48/238 149/36/238
f 146/48/239 147/34/239 149/36/239
f 142/37/240 147/49/240 146/38/240
f 143/37/241 148/49/241 147/38/241
f 144/37/242 149/49/242 148/38/242
f 145/37/243 150/49/243 149/38/243
f 141/37/244 146/49/244 150/38/244
f 164/42/245 158/32/245 160/55/245
f 158/32/246 159/68/246 160/55/246
f 160/55/247 161/69/247 164/42/247
f 161/69/248 162/40/248 164/42/248
f 151/17/249 152/15/249 159/18/249
f 152/17/250 153/15/250 160/18/250
f 153/17/251 154/15/251 161/18/251
f 154/17/252 155/15/252 162/18/252
f 155/17/253 156/15/253 163/18/253
f 156/17/254 157/15/254 164/18/254
f 151/15/255 158/18/255 164/16/255
f 178/44/256 172/63/256 173/70/256
f 173/70/257 174/56/257 178/44/257
f 174/56/258 175/45/258 178/44/258
f 175/45/259 176/57/259 177/43/259
f 166/46/260 173/27/260 172/28/260
f 167/46/261 174/27/261 173/28/261
f 168/46/262 175/27/262 174/28/262
f 169/46/263 176/27/263 175/28/263
f 170/46/264 177/27/264 176/28/264
f 171/46/265 178/27/265 177/28/265
f 165/46/266 172/27/266 178/28/266
f 188/47/267 184/48/267 185/34/267
f 185/34/268 186/35/268 188/47/268
f 180/37/269 185/49/269 184/38/269
f 181/37/270 186/49/270 185/38/270
f 182/37/271 187/49/271 186/38/271
f 183/37/272 188/49/272 187/38/272
f 179/37/273 184/49/273 188/38/273
f 198/47/274 194/48/274 197/36/274
f 194/48/275 195/34/275 196/35/275
f 189/39/276 190/37/276 195/49/276
f 190/39/277 191/37/277 196/49/277
f 191/39/278 192/37/278 197/49/278
f 192/39/279 193/37/279 198/49/279
f 193/39/280 189/37/280 194/49/280
f 212/3/281 206/10/281 210/1/281
f 206/10/282 207/61/282 209/62/282
f 210/1/283 206/10/283 209/62/283
f 207/61/284 208/4/284 209/62/284
f 199/7/285 200/5/285 207/14/285
f 200/7/286 201/5/286 208/14/286
f 201/7/287 202/5/287 209/14/287
f 202/7/288 203/5/288 210/14/288
f 203/7/289 204/5/289 211/14/289
f 204/7/290 205/5/290 212/14/290
f 205/7/291 199/5/291 206/14/291
f 222/50/292 218/63/292 219/23/292
f 219/23/293 220/24/293 221/25/293
f 213/26/294 214/46/294 219/27/294
f 214/26/295 215/46/295 220/27/295
f 215/26/296 216/46/296 221/27/296
f 216/26/297 217/46/297 222/27/297
f 217/26/298 213/46/298 218/27/298
f 232/50/299 228/63/299 229/23/299
f 229/23/300 230/24/300 232/50/300
f 223/26/301 224/46/301 229/27/301
f 225/46/302 230/27/302 229/28/302
f 226/46/303 231/27/303 230/28/303
f 227/46/304 232/27/304 231/28/304
f 223/46/305 228/27/305 232/28/305
f 244/53/306 239/32/306 243/52/306
f 239/32/307 240/71/307 241/54/307
f 242/51/308 239/32/308 241/54/308
f 234/15/309 240/18/309 239/16/309
f 235/15/310 241/18/310 240/16/310
f 236/15/311 242/18/311 241/16/311
f 237/15/312 243/18/312 242/16/312
f 238/15/313 244/18/313 243/16/313
f 233/15/314 239/18/314 244/16/314
f 254/47/315 250/48/315 251/34/315
f 251/34/316 252/35/316 254/47/316
f 245/39/317 246/37/317 251/49/317
f 246/39/318 247/37/318 252/49/318
f 247/39/319 248/37/319 253/49/319
f 248/39/320 249/37/320 254/49/320
f 249/39/321 245/37/321 250/49/321
f 266/11/322 261/10/322 263/12/322
f 261/10/323 262/13/323 263/12/323
f 263/12/324 264/8/324 266/11/324
f 255/7/325 256/5/325 262/14/325
f 256/7/326 257/5/326 263/14/326
f 258/5/327 264/14/327 263/6/327
f 259/5/328 265/14/328 264/6/328
f 259/7/329 260/5/329 266/14/329
f 255/5/330 261/14/330 266/6/330
f 278/53/331 273/32/331 274/71/331
f 274/71/332 275/54/332 278/53/332
f 275/54/333 276/51/333 277/52/333
f 268/15/334 274/18/334 273/16/334
f 268/17/335 269/15/335 275/18/335
f 270/15/336 276/18/336 275/16/336
f 270/17/337 271/15/337 277/18/337
f 272/15/338 278/18/338 277/16/338
f 267/15/339 273/18/339 278/16/339
f 290/53/340 285/32/340 287/54/340
f 285/32/341 286/71/341 287/54/341
f 287/54/342 288/51/342 290/53/342
f 280/15/343 286/18/343 285/16/343
f 281/15/344 287/18/344 286/16/344
f 282/15/345 288/18/345 287/16/345
f 283/15/346 289/18/346 288/16/346
f 284/15/347 290/18/347 289/16/347
f 279/15/348 285/18/348 290/16/348
f 304/42/349 298/32/349 303/41/349
f 298/32/350 299/68/350 303/41/350
f 299/68/351 300/55/351 303/41/351
f 300/55/352 301/69/352 302/40/352
f 291/17/353 292/15/353 299/18/353
f 292/17/354 293/15/354 300/18/354
f 293/17/355 294/15/355 301/18/355
f 294/17/356 295/15/356 302/18/356
f 295/17/357 296/15/357 303/18/357
f 296/17/358 297/15/358 304/18/358
f 297/17/359 291/15/359 298/18/359
f 318/44/360 312/63/360 317/43/360
f 312/63/361 313/70/361 316/57/361
f 317/43/362 312/63/362 316/57/362
f 313/70/363 314/56/363 316/57/363
f 305/26/364 306/46/364 313/27/364
f 306/26/365 307/46/365 314/27/365
f 307/26/366 308/46/366 315/27/366
f 308/26/367 309/46/367 316/27/367
f 309/26/368 310/46/368 317/27/368
f 310/26/369 311/46/369 318/27/369
f 311/26/370 305/46/370 312/27/370
f 330/11/371 325/10/371 326/13/371
f 326/13/372 327/12/372 330/11/372
f 327/12/373 328/8/373 330/11/373
f 320/5/374 326/14/374 325/6/374
f 321/5/375 327/14/375 326/6/375
f 322/5/376 328/14/376 327/6/376
f 323/5/377 329/14/377 328/6/377
f 324/5/378 330/14/378 329/6/378
f 319/5/379 325/14/379 330/6/379
f 344/3/380 338/10/380 339/61/380
f 339/61/381 340/4/381 344/3/381
f 340/4/382 341/62/382 342/1/382
f 343/2/383 340/4/383 342/1/383
f 331/7/384 332/5/384 339/14/384
f 332/7/385 333/5/385 340/14/385
f 333/7/386 334/5/386 341/14/386
f 334/7/387 335/5/387 342/14/387
f 335/7/388 336/5/388 343/14/388
f 336/7/389 337/5/389 344/14/389
f 337/7/390 331/5/390 338/14/390
f 356/60/391 351/63/391 352/58/391
f 352/58/392 353/72/392 354/59/392
f 354/59/393 355/73/393 356/60/393
f 345/26/394 346/46/394 352/27/394
f 346/26/395 347/46/395 353/27/395
f 347/26/396 348/46/396 354/27/396
f 348/26/397 349/46/397 355/27/397
f 349/26/398 350/46/398 356/27/398
f 350/26/399 345/46/399 351/27/399
f 366/66/400 362/32/400 365/31/400
f 362/32/401 363/67/401 364/33/401
f 357/17/402 358/15/402 363/18/402
f 358/17/403 359/15/403 364/18/403
f 359/17/404 360/15/404 365/18/404
f 360/17/405 361/15/405 366/18/405
f 361/17/406 357/15/406 362/18/406
f 378/11/407 373/10/407 374/13/407
f 374/13/408 375/12/408 378/11/408
f 375/12/409 376/8/409 377/9/409
f 367/7/410 368/5/410 374/14/410
f 368/7/411 369/5/411 375/14/411
f 369/7/412 370/5/412 376/14/412
f 370/7/413 371/5/413 377/14/413
f 371/7/414 372/5/414 378/14/414
f 367/5/415 373/14/415 378/6/415
f 388/47/416 384/48/416 387/36/416
f 384/48/417 385/34/417 386/35/417
f 379/39/418 380/37/418 385/49/418
f 380/39/419 381/37/419 386/49/419
f 381/39/420 382/37/420 387/49/420
f 382/39/421 383/37/421 388/49/421
f 383/39/422 379/37/422 384/49/422
