# Blender 4.4.3
# www.blender.org
o ruin_car
v -1.968321 0.219810 0.895492
v 2.229578 0.345791 0.853512
v 2.211351 0.380174 -0.866048
v -1.986549 0.254193 -0.824068
v -1.990859 0.975919 0.910849
v 2.207041 1.101900 0.868869
v 2.188813 1.136282 -0.850691
v -2.009087 1.010301 -0.808711
v -1.170071 0.773544 0.707561
v 1.219140 0.989252 0.779259
v 1.263533 0.989252 -0.700075
v -1.125678 0.773544 -0.771773
v -1.241529 1.565724 0.705417
v 1.147682 1.781433 0.777115
v 1.192076 1.781433 -0.702219
v -1.197135 1.565724 -0.773917
v -0.871017 1.645950 0.599281
v 0.772391 1.514091 0.665052
v 0.838893 1.675186 -0.673651
v -0.804514 1.807045 -0.739422
v -0.859098 1.804292 0.618927
v 0.784309 1.672432 0.684698
v 0.850811 1.833527 -0.654005
v -0.792596 1.965386 -0.719776
v -1.855410 0.827101 0.933972
v -0.761125 0.936918 0.912083
v -0.809132 1.073684 -0.801798
v -1.903418 0.963868 -0.779910
v -1.871074 0.985793 0.947074
v -0.776788 1.095609 0.925186
v -0.824795 1.232376 -0.788696
v -1.919081 1.122559 -0.766807
v -0.943602 0.359738 0.631210
v -1.183282 0.359738 0.516409
v -1.444665 0.359738 0.564413
v -1.627912 0.359738 0.756886
v -1.663029 0.359738 1.020310
v -1.536603 0.359738 1.254066
v -1.296924 0.359738 1.368867
v -1.035541 0.359738 1.320863
v -0.852293 0.359738 1.128390
v -0.817176 0.359738 0.864966
v -0.964288 0.599738 0.652937
v -1.187246 0.599738 0.546146
v -1.430393 0.599738 0.590801
v -1.600856 0.599738 0.769845
v -1.633523 0.599738 1.014891
v -1.515917 0.599738 1.232339
v -1.292959 0.599738 1.339130
v -1.049812 0.599738 1.294475
v -0.879350 0.599738 1.115431
v -0.846682 0.599738 0.870385
v -1.161701 0.344739 0.769568
v -1.307044 0.344739 0.764821
v -1.413173 0.344739 0.864237
v -1.417920 0.344739 1.009579
v -1.318504 0.344739 1.115708
v -1.173162 0.344739 1.120455
v -1.067033 0.344739 1.021039
v -1.062286 0.344739 0.875697
v -1.161701 0.614739 0.769568
v -1.307044 0.614739 0.764821
v -1.413173 0.614739 0.864237
v -1.417920 0.614739 1.009579
v -1.318504 0.614739 1.115708
v -1.173162 0.614739 1.120455
v -1.067033 0.614739 1.021039
v -1.062286 0.614739 0.875697
v -1.498721 0.359738 -0.553826
v -1.247404 0.359738 -0.467424
v -0.993298 0.359738 -0.545243
v -0.833464 0.359738 -0.757560
v -0.828951 0.359738 -1.023276
v -0.981485 0.359738 -1.240898
v -1.232802 0.359738 -1.327300
v -1.486907 0.359738 -1.249481
v -1.646742 0.359738 -1.037164
v -1.651254 0.359738 -0.771448
v -1.480678 0.599738 -0.577794
v -1.246895 0.599738 -0.497420
v -1.010517 0.599738 -0.569810
v -0.861834 0.599738 -0.767314
v -0.857636 0.599738 -1.014492
v -0.999528 0.599738 -1.216930
v -1.233311 0.599738 -1.297304
v -1.469688 0.599738 -1.224914
v -1.618372 0.599738 -1.027410
v -1.622569 0.599738 -0.780232
v -1.184233 0.344739 -0.715762
v -1.072186 0.344739 -0.808457
v -1.058503 0.344739 -0.953231
v -1.151198 0.344739 -1.065278
v -1.295972 0.344739 -1.078962
v -1.408019 0.344739 -0.986267
v -1.421703 0.344739 -0.841493
v -1.329008 0.344739 -0.729446
v -1.184233 0.614739 -0.715762
v -1.072186 0.614739 -0.808457
v -1.058503 0.614739 -0.953231
v -1.151198 0.614739 -1.065278
v -1.295972 0.614739 -1.078962
v -1.408019 0.614739 -0.986267
v -1.421703 0.614739 -0.841493
v -1.329008 0.614739 -0.729446
v 1.467880 0.359738 1.372564
v 1.719060 0.359738 1.285763
v 1.871248 0.359738 1.067900
v 1.866314 0.359738 0.802191
v 1.706143 0.359738 0.590128
v 1.451914 0.359738 0.512712
v 1.200735 0.359738 0.599513
v 1.048547 0.359738 0.817376
v 1.053480 0.359738 1.083085
v 1.213652 0.359738 1.295148
v 1.467323 0.599738 1.342569
v 1.700979 0.599738 1.261824
v 1.842549 0.599738 1.059161
v 1.837960 0.599738 0.811990
v 1.688963 0.599738 0.614722
v 1.452471 0.599738 0.542707
v 1.218816 0.599738 0.623452
v 1.077245 0.599738 0.826115
v 1.081835 0.599738 1.073286
v 1.230832 0.599738 1.270554
v 1.622685 0.344739 0.844657
v 1.505723 0.344739 0.758247
v 1.361916 0.344739 0.779851
v 1.275506 0.344739 0.896813
v 1.297110 0.344739 1.040619
v 1.414072 0.344739 1.127029
v 1.557878 0.344739 1.105426
v 1.644288 0.344739 0.988463
v 1.622685 0.614739 0.844657
v 1.505723 0.614739 0.758247
v 1.361916 0.614739 0.779851
v 1.275506 0.614739 0.896813
v 1.297110 0.614739 1.040619
v 1.414072 0.614739 1.127029
v 1.557878 0.614739 1.105426
v 1.644288 0.614739 0.988463
v 1.746180 0.359738 -0.576516
v 1.880094 0.359738 -0.806065
v 1.853506 0.359738 -1.070487
v 1.676573 0.359738 -1.268780
v 1.416878 0.359738 -1.325205
v 1.173614 0.359738 -1.218208
v 1.039701 0.359738 -0.988659
v 1.066288 0.359738 -0.724237
v 1.243221 0.359738 -0.525944
v 1.502917 0.359738 -0.469519
v 1.726207 0.599738 -0.598901
v 1.850778 0.599738 -0.812435
v 1.826045 0.599738 -1.058408
v 1.661456 0.599738 -1.242867
v 1.419879 0.599738 -1.295355
v 1.193587 0.599738 -1.195823
v 1.069017 0.599738 -0.982289
v 1.093750 0.599738 -0.736316
v 1.258338 0.599738 -0.551857
v 1.499915 0.599738 -0.499369
v 1.432452 0.344739 -0.709355
v 1.573431 0.344739 -0.745014
v 1.647905 0.344739 -0.869916
v 1.612246 0.344739 -1.010896
v 1.487343 0.344739 -1.085369
v 1.346363 0.344739 -1.049710
v 1.271890 0.344739 -0.924808
v 1.307549 0.344739 -0.783828
v 1.432452 0.614739 -0.709355
v 1.573431 0.614739 -0.745014
v 1.647905 0.614739 -0.869916
v 1.612246 0.614739 -1.010896
v 1.487343 0.614739 -1.085369
v 1.346363 0.614739 -1.049710
v 1.271890 0.614739 -0.924808
v 1.307549 0.614739 -0.783828
v -0.062951 0.408310 0.908481
v 1.118959 0.753755 1.123553
v 1.140443 0.753755 1.005491
v -0.041468 0.408310 0.790420
v -0.220648 0.965722 0.879785
v 0.961262 1.311167 1.094857
v 0.982746 1.311167 0.976795
v -0.199165 0.965722 0.761724
v -1.083954 1.532935 0.650138
v -1.083954 1.532935 0.595138
v -1.096252 1.586542 0.595138
v -1.096252 1.586542 0.650138
v 0.616046 1.922935 0.650138
v 0.616046 1.922935 0.595138
v 0.603748 1.976542 0.595138
v 0.603748 1.976542 0.650138
v 0.782858 1.439358 -0.539829
v 0.763678 1.439358 -0.586003
v 0.736937 1.480119 -0.574896
v 0.756117 1.480119 -0.528721
v 1.432858 1.939358 -0.809829
v 1.413678 1.939358 -0.856003
v 1.386936 1.980120 -0.844895
v 1.406117 1.980120 -0.798721
v 0.575490 0.073452 -0.552514
v 0.427658 0.097869 -0.607811
v 0.337741 0.084681 -0.412740
v 0.418283 0.070689 -0.248805
v 0.531726 0.060717 -0.180938
v 0.604829 0.061267 -0.345836
v 0.420651 0.293751 -0.208079
v 0.537314 0.331274 -0.227687
v 0.609730 0.307410 -0.373774
v 0.562579 0.328559 -0.583514
v 0.414240 0.335788 -0.571214
v 0.345500 0.297449 -0.378592
v -0.438341 0.088362 -1.425978
v -0.467571 0.056226 -1.186389
v -0.278069 0.097891 -1.143905
v -0.109631 0.093999 -1.262519
v -0.246814 0.064067 -1.425388
v -0.137454 0.314760 -1.273297
v -0.253337 0.312370 -1.423013
v -0.431059 0.315196 -1.408853
v -0.429016 0.310588 -1.203221
v -0.271888 0.306024 -1.139342
v 0.333621 0.069178 0.687361
v 0.448087 0.055603 0.684339
v 0.516628 0.051264 0.617275
v 0.517966 0.068698 0.523267
v 0.421637 0.046361 0.442242
v 0.294650 0.045804 0.494298
v 0.274104 0.050547 0.600425
v 0.466532 0.218658 0.465947
v 0.330692 0.237122 0.465412
v 0.291608 0.210723 0.567624
v 0.302320 0.216401 0.661979
v 0.410093 0.209126 0.685173
v 0.532897 0.209798 0.665842
v 0.510338 0.217277 0.561724
v -2.226459 0.071227 -0.014287
v -2.379094 0.102395 -0.024498
v -2.548728 0.090110 0.052649
v -2.463709 0.080725 0.214542
v -2.273532 0.062972 0.241643
v -2.181425 0.105148 0.115440
v -2.427496 0.340727 0.232411
v -2.259867 0.335568 0.194358
v -2.186598 0.371653 0.087323
v -2.233236 0.334931 -0.064569
v -2.422967 0.355252 -0.036846
v -2.497243 0.365890 0.091638
v -2.044085 0.076160 -0.970875
v -2.195509 0.059577 -0.894939
v -2.110428 0.083304 -0.772301
v -2.009665 0.051160 -0.660282
v -1.846875 0.059162 -0.724365
v -1.828990 0.073699 -0.850087
v -1.881213 0.060905 -0.969571
v -1.932342 0.318590 -0.963170
v -2.107515 0.325209 -0.988094
v -2.141881 0.314403 -0.848331
v -2.094173 0.302719 -0.745682
v -1.964791 0.336023 -0.704568
v -1.811054 0.295180 -0.750083
v -1.850661 0.316002 -0.875384
v -2.257663 0.138111 0.139970
v -2.272795 0.145670 0.205684
v -2.182709 0.146291 0.250090
v -2.020675 0.155489 0.274796
v -1.896010 0.153983 0.219620
v -1.917922 0.152110 0.146135
v -2.085155 0.138112 0.101022
v -2.193764 0.254655 0.116887
v -2.307887 0.277469 0.175155
v -2.239580 0.257437 0.235836
v -2.106987 0.278123 0.273400
v -1.931172 0.261187 0.250917
v -1.885902 0.277508 0.178324
v -2.007270 0.273626 0.123370
v 0.837298 0.039974 -1.202133
v 0.649173 0.029728 -1.081034
v 0.768536 0.031264 -0.958465
v 1.069792 0.032137 -0.954857
v 1.084635 0.046217 -1.111979
v 0.735263 0.198096 -0.943096
v 1.000292 0.200872 -0.984085
v 1.116134 0.180701 -1.111298
v 0.851758 0.191144 -1.211631
v 0.673740 0.194204 -1.084885
v 0.509479 0.086695 -1.494512
v 0.336501 0.062824 -1.617591
v 0.166329 0.047856 -1.521864
v 0.132870 0.081339 -1.369796
v 0.264011 0.051919 -1.230464
v 0.482726 0.092438 -1.294158
v 0.505356 0.300780 -1.358947
v 0.499862 0.306783 -1.570917
v 0.267650 0.298627 -1.593126
v 0.099328 0.320355 -1.490468
v 0.115691 0.335582 -1.290332
v 0.332957 0.317961 -1.259449
v -1.888405 0.093738 0.164993
v -1.790159 0.101935 0.300727
v -1.605452 0.099607 0.270949
v -1.630272 0.093045 0.039123
v -1.810773 0.114213 -0.006002
v -1.862791 0.230298 -0.026239
v -1.884015 0.234165 0.198650
v -1.762191 0.211768 0.317628
v -1.579753 0.216254 0.232628
v -1.648968 0.225287 -0.000736
v 0.299570 0.095393 0.703166
v 0.431201 0.097556 0.691185
v 0.490463 0.112879 0.527764
v 0.329072 0.078392 0.471357
v 0.205940 0.078582 0.578867
v 0.232313 0.328724 0.512136
v 0.262797 0.316770 0.667091
v 0.385191 0.310786 0.727682
v 0.507098 0.342401 0.605284
v 0.387398 0.338864 0.481833
v 0.837575 0.030772 -0.268783
v 0.932828 0.028846 -0.172023
v 1.088005 0.033252 -0.201045
v 1.232353 0.033290 -0.256153
v 1.163177 0.006853 -0.359481
v 1.034585 0.043992 -0.403397
v 0.864062 0.000000 -0.387703
v 0.975948 0.310539 -0.203211
v 1.114312 0.294524 -0.193318
v 1.246970 0.302919 -0.270956
v 1.164564 0.268784 -0.377767
v 1.011878 0.308493 -0.437705
v 0.854662 0.272239 -0.372019
v 0.883354 0.280081 -0.262808
v 2.548728 0.054121 -0.396279
v 2.395198 0.041085 -0.505865
v 2.113682 0.067458 -0.513506
v 2.052379 0.049522 -0.363999
v 2.322436 0.057184 -0.321333
v 2.454954 0.265708 -0.353610
v 2.530138 0.271420 -0.487683
v 2.248930 0.279872 -0.517723
v 2.092155 0.284927 -0.427739
v 2.218559 0.257603 -0.329710
v -2.415339 0.063149 1.509960
v -2.303902 0.033604 1.589190
v -2.175714 0.061246 1.591101
v -2.071912 0.067846 1.523062
v -2.120009 0.043437 1.426406
v -2.218111 0.041581 1.340607
v -2.344181 0.041826 1.405458
v -2.364865 0.305917 1.394479
v -2.396133 0.312576 1.510139
v -2.320066 0.285808 1.617591
v -2.179432 0.279633 1.578711
v -2.094382 0.301302 1.515617
v -2.113343 0.304447 1.420078
v -2.223154 0.320012 1.365222
v 1.829799 0.080155 -0.818593
v 1.710678 0.083556 -0.763882
v 1.716309 0.091752 -0.654027
v 1.874842 0.099431 -0.649751
v 1.961939 0.088387 -0.749303
v 1.715039 0.337776 -0.791436
v 1.704519 0.384920 -0.682147
v 1.847812 0.355600 -0.621882
v 1.949469 0.379667 -0.720008
v 1.880792 0.342146 -0.840369
v 0.330674 0.087329 0.474433
v 0.482562 0.054166 0.392514
v 0.491757 0.068451 0.137674
v 0.312423 0.090483 0.086409
v 0.233300 0.081553 0.294881
v 0.388504 0.333231 0.495048
v 0.481120 0.296657 0.311342
v 0.432143 0.298657 0.099968
v 0.272768 0.330990 0.149963
v 0.270006 0.306808 0.353739
v -1.370552 0.096487 0.708529
v -1.376605 0.066882 0.599395
v -1.486621 0.066631 0.491898
v -1.722361 0.079043 0.516351
v -1.862647 0.082074 0.623450
v -1.758772 0.088130 0.740554
v -1.549268 0.068742 0.763622
v -1.446431 0.217738 0.505078
v -1.671173 0.221371 0.520490
v -1.758165 0.244697 0.612303
v -1.748646 0.238795 0.707617
v -1.586713 0.220024 0.759294
v -1.403454 0.247018 0.721828
v -1.372716 0.227593 0.618551
vn 0.0298 -0.9994 -0.0203
vn -0.0298 0.9994 0.0203
vn 0.0106 -0.0200 0.9997
vn 0.9995 0.0300 -0.0100
vn -0.0106 0.0200 -0.9997
vn -0.9995 -0.0300 0.0100
vn 0.0898 -0.9960 0.0027
vn -0.0898 0.9960 -0.0027
vn -0.0300 -0.0000 0.9995
vn 0.9955 0.0899 0.0299
vn 0.0300 -0.0000 -0.9996
vn -0.9955 -0.0899 -0.0299
vn -0.0745 -0.9896 -0.1228
vn 0.0745 0.9896 0.1228
vn -0.0493 -0.1193 0.9916
vn 0.9960 -0.0799 0.0399
vn 0.0493 0.1193 -0.9916
vn -0.9960 0.0799 -0.0399
vn 0.0979 -0.9918 -0.0819
vn -0.0979 0.9918 0.0819
vn 0.0279 -0.0795 0.9964
vn 0.9948 0.0998 -0.0199
vn -0.0279 0.0795 -0.9964
vn -0.9948 -0.0998 0.0199
vn -0.0000 -1.0000 -0.0000
vn -0.0000 1.0000 -0.0000
vn 0.4290 0.1181 -0.8956
vn -0.1794 0.1181 -0.9767
vn -0.7192 0.1181 -0.6847
vn -0.9843 0.1181 -0.1312
vn -0.8734 0.1181 0.4724
vn -0.4290 0.1181 0.8956
vn 0.1794 0.1181 0.9767
vn 0.7192 0.1181 0.6847
vn 0.9843 0.1181 0.1312
vn 0.8734 0.1181 -0.4724
vn 0.0326 -0.0000 -0.9995
vn -0.6836 -0.0000 -0.7298
vn -0.9995 -0.0000 -0.0326
vn -0.7298 -0.0000 0.6836
vn -0.0326 -0.0000 0.9995
vn 0.6836 -0.0000 0.7298
vn 0.9995 -0.0000 0.0326
vn 0.7298 -0.0000 -0.6836
vn -0.3228 0.1181 0.9391
vn 0.2908 0.1181 0.9495
vn 0.7933 0.1181 0.5972
vn 0.9929 0.1181 0.0169
vn 0.8132 0.1181 -0.5700
vn 0.3228 0.1181 -0.9391
vn -0.2908 0.1181 -0.9495
vn -0.7933 0.1181 -0.5972
vn -0.9929 0.1181 -0.0169
vn -0.8132 0.1181 0.5700
vn 0.6374 -0.0000 0.7705
vn 0.9956 -0.0000 0.0941
vn 0.7705 -0.0000 -0.6374
vn 0.0941 -0.0000 -0.9956
vn -0.6374 -0.0000 -0.7705
vn -0.9956 -0.0000 -0.0941
vn -0.7705 -0.0000 0.6374
vn -0.0941 -0.0000 0.9956
vn 0.3243 0.1181 0.9385
vn 0.8141 0.1181 0.5687
vn 0.9928 0.1181 -0.0184
vn 0.7924 0.1181 -0.5985
vn 0.2893 0.1181 -0.9499
vn -0.3243 0.1181 -0.9385
vn -0.8141 0.1181 -0.5687
vn -0.9928 0.1181 0.0184
vn -0.7924 0.1181 0.5985
vn -0.2893 0.1180 0.9499
vn 0.5942 -0.0000 -0.8043
vn -0.1486 -0.0000 -0.9889
vn -0.8043 -0.0000 -0.5942
vn -0.9889 -0.0000 0.1486
vn -0.5942 -0.0000 0.8043
vn 0.1486 -0.0000 0.9889
vn 0.8043 -0.0000 0.5942
vn 0.9889 -0.0000 -0.1486
vn 0.8577 0.1181 0.5004
vn 0.9880 0.1181 -0.0993
vn 0.7409 0.1181 -0.6611
vn 0.2108 0.1181 -0.9704
vn -0.3998 0.1181 -0.9090
vn -0.8577 0.1181 -0.5004
vn -0.9880 0.1181 0.0993
vn -0.7409 0.1181 0.6611
vn -0.2108 0.1181 0.9704
vn 0.3998 0.1181 0.9090
vn 0.2452 -0.0000 0.9695
vn 0.8589 -0.0000 0.5121
vn 0.9695 -0.0000 -0.2452
vn 0.5121 -0.0000 -0.8589
vn -0.2452 -0.0000 -0.9695
vn -0.8589 -0.0000 -0.5121
vn -0.9695 -0.0000 0.2452
vn -0.5121 -0.0000 0.8589
vn 0.2719 -0.9611 0.0495
vn -0.2719 0.9611 -0.0495
vn -0.1790 -0.0000 0.9838
vn 0.9455 0.2764 0.1721
vn 0.1790 -0.0000 -0.9838
vn -0.9455 -0.2764 -0.1721
vn -0.9747 -0.2236 -0.0000
vn 0.9747 0.2236 -0.0000
vn 0.2236 -0.9747 -0.0000
vn -0.0000 -0.0000 -1.0000
vn -0.2236 0.9747 -0.0000
vn -0.0000 -0.0000 1.0000
vn -0.7529 -0.5791 0.3127
vn 0.7529 0.5791 -0.3127
vn 0.5348 -0.8152 -0.2222
vn -0.3836 -0.0000 -0.9235
vn -0.5348 0.8152 0.2222
vn 0.3836 -0.0000 0.9235
vn -0.0403 0.9826 0.1812
vn 0.3337 -0.7189 0.6098
vn 0.4644 -0.8081 0.3622
vn 0.6368 -0.7396 -0.2177
vn -0.0899 -0.7698 -0.6319
vn -0.5706 -0.7422 -0.3514
vn -0.6657 -0.6923 0.2784
vn 0.0194 0.9995 0.0236
vn 0.6675 -0.5445 -0.5079
vn -0.0709 -0.6442 -0.7616
vn -0.8148 -0.5797 -0.0049
vn -0.3047 -0.6419 0.7036
vn 0.5882 -0.5913 0.5517
vn 0.0056 0.9975 0.0704
vn -0.1055 -0.7937 -0.5991
vn -0.4864 -0.7828 -0.3882
vn -0.5911 -0.7983 0.1152
vn -0.1776 -0.7989 0.5746
vn 0.0922 -0.8252 0.5573
vn 0.6469 -0.7377 -0.1932
vn 0.5296 -0.8093 -0.2539
vn 0.1297 0.9915 -0.0071
vn 0.1597 -0.5991 0.7846
vn 0.7218 -0.6326 0.2808
vn 0.6136 -0.7896 0.0025
vn -0.1776 -0.6501 -0.7388
vn -0.6718 -0.6613 -0.3336
vn -0.6343 -0.7519 0.1799
vn 0.2760 0.9585 0.0720
vn 0.1396 -0.0329 -0.9897
vn -0.9472 0.2386 -0.2144
vn -0.9060 0.0158 0.4229
vn -0.3426 0.1968 0.9186
vn 0.2977 0.0587 0.9529
vn 0.9546 0.0548 -0.2927
vn 0.7250 0.1605 -0.6698
vn -0.1025 0.9823 0.1569
vn -0.4433 0.0660 -0.8940
vn -0.6648 -0.0040 0.7470
vn -0.2704 -0.0149 0.9626
vn 0.1363 0.1071 0.9849
vn 0.8313 0.1138 0.5440
vn 0.4056 0.1287 -0.9049
vn 0.0189 0.1521 -0.9882
vn 0.0736 0.9932 -0.0905
vn 0.0931 -0.8331 0.5452
vn 0.3043 -0.8583 0.4132
vn 0.1526 -0.8575 -0.4914
vn -0.2581 -0.9041 -0.3407
vn -0.3244 -0.9312 0.1663
vn 0.0923 0.9923 -0.0830
vn 0.9991 0.0350 -0.0249
vn 0.0899 0.1287 -0.9876
vn -0.5233 -0.0306 -0.8516
vn -0.9916 -0.0946 0.0883
vn -0.1282 0.1402 0.9818
vn 0.5045 0.2060 0.8385
vn 0.0563 0.9982 0.0219
vn -0.9940 0.0538 -0.0947
vn -0.6911 0.0652 0.7199
vn 0.4095 0.2020 0.8896
vn 0.9580 0.0504 -0.2822
vn 0.1148 -0.1205 -0.9861
vn -0.1436 0.9834 0.1110
vn -0.9745 -0.1323 0.1815
vn -0.4399 -0.2429 0.8646
vn 0.7162 -0.2693 0.6438
vn 0.7135 -0.1321 -0.6881
vn -0.1714 -0.2370 -0.9563
vn -0.2286 0.9735 -0.0098
vn -0.6987 0.1835 0.6915
vn 0.1849 -0.0476 0.9816
vn 0.7409 -0.5402 -0.3990
vn 0.8352 -0.0427 -0.5483
vn 0.2962 -0.0978 -0.9501
vn -0.7459 -0.6211 0.2406
vn -0.9491 0.1805 -0.2581
vn 0.1088 0.9850 0.1342
vn 0.8341 0.2730 0.4794
vn 0.1067 0.0160 -0.9942
vn -0.4706 0.2830 -0.8357
vn -0.5420 0.3037 0.7836
vn 0.0970 0.0917 0.9910
vn 0.0967 0.9814 0.1658
vn -0.9616 0.0742 -0.2642
vn -0.8241 -0.1153 0.5547
vn 0.2684 0.0591 0.9615
vn 0.5803 0.0817 0.8103
vn 0.9802 -0.0298 -0.1955
vn 0.4550 0.0866 -0.8863
vn -0.1965 -0.0561 -0.9789
vn -0.3257 0.9394 -0.1070
vn -0.4178 -0.0908 -0.9040
vn -0.9979 -0.0350 0.0538
vn -0.0215 -0.1104 0.9937
vn 0.7503 -0.0343 0.6602
vn 0.4661 -0.1630 -0.8696
vn 0.0714 0.9904 0.1185
vn 0.8471 -0.2390 0.4747
vn 0.9991 0.0184 0.0371
vn 0.2636 -0.0891 -0.9605
vn -0.9324 -0.0595 -0.3564
vn -0.8791 0.0188 0.4762
vn -0.1886 0.9534 -0.2354
vn -0.0481 -0.8658 -0.4980
vn -0.4209 -0.8906 -0.1725
vn -0.5475 -0.8368 0.0029
vn -0.2769 -0.7559 0.5933
vn 0.2183 -0.8707 0.4407
vn -0.0784 0.2879 0.9544
vn 0.5159 -0.8148 -0.2644
vn -0.2893 0.1181 0.9499
vn -0.2809 0.9488 0.1444
vn -0.0338 0.9835 -0.1774
vn 0.0557 0.9946 0.0878
vn 0.3350 0.7568 -0.5613
vn -0.5981 0.7695 -0.2237
vn -0.5607 0.7550 0.3399
vn -0.2993 0.7352 0.6082
vn 0.6268 0.7271 0.2803
vn 0.7613 0.6446 -0.0701
vn -0.0456 0.9988 0.0194
vn 0.0177 0.9996 0.0222
vn -0.7710 0.6368 -0.0086
vn -0.2994 0.6457 0.7025
vn 0.4929 0.5400 0.6822
vn 0.4889 0.6867 -0.5380
vn 0.0656 0.4965 -0.8656
vn -0.0292 0.9992 0.0278
vn 0.1276 0.9474 0.2935
vn 0.0820 0.9942 -0.0691
vn -0.0288 0.9987 0.0426
vn 0.1099 0.7933 0.5988
vn 0.4610 0.7814 0.4206
vn 0.6230 0.7675 0.1512
vn 0.2578 0.8083 -0.5293
vn -0.2112 0.8362 -0.5061
vn -0.5864 0.7962 -0.1491
vn -0.5566 0.8041 0.2087
vn 0.0633 0.9874 0.1451
vn -0.1746 0.9630 0.2052
vn 0.0663 0.9650 -0.2537
vn 0.1782 0.6234 -0.7613
vn -0.3738 0.5708 -0.7310
vn -0.5070 0.8032 0.3128
vn -0.0413 0.6781 0.7338
vn 0.4934 0.6504 0.5775
vn 0.5373 0.7514 -0.3830
vn 0.0912 0.9943 -0.0556
vn 0.0258 0.9962 0.0834
vn 0.0336 0.9947 0.0976
vn -0.2203 0.9710 -0.0931
vn -0.4268 -0.1701 -0.8882
vn -0.8260 0.0715 0.5592
vn -0.7468 -0.0253 0.6645
vn 0.3612 0.0874 0.9284
vn 0.9829 -0.1357 0.1241
vn 0.9140 0.0396 -0.4037
vn 0.0105 0.0269 -0.9996
vn -0.0975 0.9907 -0.0945
vn 0.2273 0.9717 0.0648
vn -0.1331 0.9883 -0.0744
vn 0.1005 0.9942 0.0370
vn -0.9388 -0.2922 -0.1826
vn -0.4388 -0.1102 0.8918
vn -0.1451 -0.0909 0.9852
vn 0.3997 -0.1336 0.9068
vn 0.9455 -0.1702 -0.2776
vn 0.2597 0.0100 -0.9656
vn -0.2197 -0.0723 -0.9729
vn -0.0018 0.9996 -0.0267
vn -0.0155 0.9993 -0.0326
vn -0.3077 0.8609 -0.4052
vn -0.2814 0.9230 0.2625
vn -0.0088 0.8468 0.5319
vn 0.3433 0.9320 0.1160
vn 0.1499 0.8691 -0.4714
vn 0.0592 0.9958 -0.0693
vn -0.0379 0.9989 0.0293
vn 0.0832 0.9938 -0.0739
vn 0.5844 -0.2432 -0.7742
vn -0.4862 -0.0515 -0.8723
vn -0.9622 -0.2177 -0.1638
vn -0.7310 -0.2481 0.6357
vn 0.2737 0.0338 0.9612
vn 0.9888 -0.0658 0.1339
vn 0.0252 0.9996 -0.0148
vn 0.0423 0.9888 0.1429
vn -0.8013 -0.1156 0.5870
vn 0.1540 -0.1885 0.9699
vn 0.9649 -0.2443 -0.0964
vn 0.2062 -0.2555 -0.9446
vn -0.8009 -0.4313 -0.4153
vn -0.0482 0.9951 0.0863
vn -0.0076 0.9935 0.1134
vn 0.0864 0.1742 0.9809
vn 0.9265 0.1402 0.3491
vn 0.2593 0.2921 -0.9206
vn -0.6474 0.1748 -0.7418
vn -0.7915 0.2341 0.5646
vn -0.2820 0.9580 -0.0516
vn 0.1217 0.9870 -0.1046
vn 0.2411 0.9701 0.0285
vn -0.1671 0.9692 -0.1808
vn -0.0572 0.1185 0.9913
vn 0.5072 -0.0765 0.8584
vn 0.3077 0.5050 0.8064
vn 0.3494 -0.0671 -0.9346
vn -0.3515 -0.1500 -0.9241
vn -0.1881 0.4108 -0.8921
vn -0.5585 0.0828 0.8254
vn -0.0225 0.9932 0.1140
vn 0.0240 0.9981 0.0560
vn 0.5739 -0.2753 -0.7713
vn 0.0238 -0.0350 -0.9991
vn -0.9261 0.0555 -0.3731
vn -0.1549 -0.0390 0.9872
vn 0.3133 -0.0524 0.9482
vn -0.1167 0.9892 -0.0885
vn 0.0924 0.9796 0.1786
vn -0.1964 0.9779 0.0712
vn 0.0518 0.9831 0.1753
vn -0.5712 0.0434 0.8196
vn 0.0092 -0.1113 0.9937
vn 0.5448 0.0567 0.8366
vn 0.8858 0.0706 -0.4586
vn 0.6583 -0.0350 -0.7519
vn -0.4562 0.0702 -0.8871
vn -0.8316 -0.0879 -0.5483
vn -0.0465 0.9966 -0.0684
vn 0.3261 0.8790 -0.3478
vn -0.9951 0.0064 -0.0985
vn -0.3738 0.0737 0.9246
vn 0.6951 -0.0049 0.7189
vn 0.8531 0.0882 -0.5143
vn -0.2824 -0.0247 -0.9590
vn 0.0088 0.9816 -0.1910
vn 0.1883 0.9815 -0.0344
vn 0.5023 0.2772 0.8191
vn 0.9527 0.2109 -0.2188
vn -0.2542 0.2077 -0.9446
vn -0.9872 0.1594 0.0055
vn -0.7716 0.1292 0.6229
vn -0.0646 0.9969 -0.0446
vn 0.0162 0.9999 -0.0001
vn 0.1953 0.9787 -0.0636
vn 0.0987 0.9938 0.0517
vn 0.5016 0.8275 -0.2523
vn 0.3783 0.8400 -0.3891
vn -0.0264 0.7654 -0.6430
vn -0.2632 0.8909 -0.3700
vn -0.3779 0.8793 0.2898
vn 0.7669 -0.5495 0.3316
vn 0.0220 0.8624 0.5058
vt 0.974750 0.275250
vt 0.775250 0.474750
vt 0.775250 0.275250
vt 0.224750 0.275250
vt 0.025250 0.474750
vt 0.025250 0.275250
vt 0.974750 0.474750
vt 0.775250 0.025250
vt 0.974750 0.224750
vt 0.775250 0.224750
vt 0.974750 0.025250
vt 0.025250 0.375000
vt 0.094176 0.280132
vt 0.205699 0.316368
vt 0.094176 0.469868
vt 0.224750 0.474750
vt 0.875000 0.025250
vt 0.945534 0.054466
vt 0.804466 0.195534
vt 0.945534 0.195534
vt 0.804466 0.054466
vt 0.205699 0.433632
vt 0.674875 0.288614
vt 0.575125 0.461386
vt 0.575125 0.288614
vt 0.525250 0.275250
vt 0.724750 0.474750
vt 0.525250 0.474750
vt 0.655824 0.469868
vt 0.544301 0.316368
vt 0.655824 0.280132
vt 0.535128 0.331720
vt 0.602804 0.277751
vt 0.687193 0.297012
vt 0.674875 0.461386
vt 0.544301 0.433632
vt 0.525250 0.375000
vt 0.724750 0.275250
vt 0.687193 0.452988
vt 0.535128 0.418280
vt 0.224750 0.375000
vt 0.155824 0.469868
vt 0.044301 0.433632
vt 0.044301 0.316368
vt 0.155824 0.280132
vt 0.974750 0.125000
vt 0.875000 0.224750
vt 0.775250 0.125000
vt 0.724750 0.375000
vt 0.602804 0.472249
s 0
f 4/1/1 2/2/1 1/3/1
f 6/1/2 8/2/2 5/3/2
f 2/1/3 5/2/3 1/3/3
f 3/1/4 6/2/4 2/3/4
f 4/1/5 7/2/5 3/3/5
f 1/1/6 8/2/6 4/3/6
f 12/4/7 10/5/7 9/6/7
f 14/4/8 16/5/8 13/6/8
f 10/4/9 13/5/9 9/6/9
f 11/4/10 14/5/10 10/6/10
f 12/4/11 15/5/11 11/6/11
f 9/4/12 16/5/12 12/6/12
f 20/1/13 18/2/13 17/3/13
f 22/1/14 24/2/14 21/3/14
f 18/1/15 21/2/15 17/3/15
f 19/1/16 22/2/16 18/3/16
f 19/3/17 24/7/17 23/2/17
f 17/1/18 24/2/18 20/3/18
f 25/8/19 27/9/19 26/10/19
f 29/8/20 31/9/20 32/10/20
f 25/8/21 30/9/21 29/10/21
f 27/11/22 30/10/22 26/8/22
f 27/8/23 32/9/23 31/10/23
f 25/11/24 32/10/24 28/8/24
f 37/12/25 35/13/25 33/14/25
f 46/15/26 50/13/26 52/14/26
f 34/4/27 43/5/27 33/6/27
f 35/4/28 44/5/28 34/6/28
f 35/6/29 46/16/29 45/5/29
f 37/4/30 46/5/30 36/6/30
f 38/4/31 47/5/31 37/6/31
f 39/4/32 48/5/32 38/6/32
f 40/4/33 49/5/33 39/6/33
f 41/4/34 50/5/34 40/6/34
f 42/4/35 51/5/35 41/6/35
f 33/4/36 52/5/36 42/6/36
f 54/17/25 53/18/25 57/19/25
f 62/20/26 64/19/26 66/21/26
f 54/11/37 61/10/37 53/8/37
f 55/11/38 62/10/38 54/8/38
f 56/11/39 63/10/39 55/8/39
f 57/11/40 64/10/40 56/8/40
f 58/11/41 65/10/41 57/8/41
f 59/11/42 66/10/42 58/8/42
f 60/11/43 67/10/43 59/8/43
f 53/11/44 68/10/44 60/8/44
f 73/12/25 71/13/25 69/14/25
f 82/15/26 84/12/26 86/13/26
f 70/4/45 79/5/45 69/6/45
f 70/6/46 81/16/46 80/5/46
f 72/4/47 81/5/47 71/6/47
f 72/6/48 83/16/48 82/5/48
f 73/6/49 84/16/49 83/5/49
f 74/6/50 85/16/50 84/5/50
f 76/4/51 85/5/51 75/6/51
f 77/4/52 86/5/52 76/6/52
f 78/4/53 87/5/53 77/6/53
f 69/4/54 88/5/54 78/6/54
f 93/19/25 91/21/25 89/18/25
f 102/21/26 103/17/26 104/18/26
f 90/11/55 97/10/55 89/8/55
f 91/11/56 98/10/56 90/8/56
f 92/11/57 99/10/57 91/8/57
f 93/11/58 100/10/58 92/8/58
f 94/11/59 101/10/59 93/8/59
f 95/11/60 102/10/60 94/8/60
f 96/11/61 103/10/61 95/8/61
f 89/11/62 104/10/62 96/8/62
f 111/15/25 107/13/25 105/14/25
f 118/15/26 120/12/26 122/13/26
f 105/6/63 116/16/63 115/5/63
f 106/6/64 117/16/64 116/5/64
f 108/4/65 117/5/65 107/6/65
f 109/4/66 118/5/66 108/6/66
f 110/4/67 119/5/67 109/6/67
f 111/4/68 120/5/68 110/6/68
f 112/4/69 121/5/69 111/6/69
f 112/6/70 123/16/70 122/5/70
f 113/6/71 124/16/71 123/5/71
f 105/4/72 124/5/72 114/6/72
f 127/21/25 126/17/25 125/18/25
f 134/20/26 136/19/26 138/21/26
f 126/11/73 133/10/73 125/8/73
f 127/11/74 134/10/74 126/8/74
f 128/11/75 135/10/75 127/8/75
f 129/11/76 136/10/76 128/8/76
f 130/11/77 137/10/77 129/8/77
f 131/11/78 138/10/78 130/8/78
f 132/11/79 139/10/79 131/8/79
f 125/11/80 140/10/80 132/8/80
f 147/15/25 143/13/25 141/14/25
f 152/22/26 154/15/26 158/13/26
f 142/4/81 151/5/81 141/6/81
f 142/6/82 153/16/82 152/5/82
f 144/4/83 153/5/83 143/6/83
f 145/4/84 154/5/84 144/6/84
f 146/4/85 155/5/85 145/6/85
f 147/4/86 156/5/86 146/6/86
f 148/4/87 157/5/87 147/6/87
f 149/4/88 158/5/88 148/6/88
f 149/6/89 160/16/89 159/5/89
f 150/6/90 151/16/90 160/5/90
f 167/20/25 165/19/25 163/21/25
f 175/17/26 176/18/26 172/19/26
f 162/11/91 169/10/91 161/8/91
f 163/11/92 170/10/92 162/8/92
f 164/11/93 171/10/93 163/8/93
f 165/11/94 172/10/94 164/8/94
f 166/11/95 173/10/95 165/8/95
f 167/11/96 174/10/96 166/8/96
f 168/11/97 175/10/97 167/8/97
f 161/11/98 176/10/98 168/8/98
f 180/1/99 178/2/99 177/3/99
f 182/1/100 184/2/100 181/3/100
f 178/1/101 181/2/101 177/3/101
f 178/3/102 183/7/102 182/2/102
f 180/1/103 183/2/103 179/3/103
f 180/3/104 181/7/104 184/2/104
f 188/11/105 186/10/105 185/8/105
f 190/11/106 192/10/106 189/8/106
f 186/11/107 189/10/107 185/8/107
f 187/11/108 190/10/108 186/8/108
f 188/11/109 191/10/109 187/8/109
f 185/11/110 192/10/110 188/8/110
f 196/11/111 194/10/111 193/8/111
f 198/11/112 200/10/112 197/8/112
f 194/11/113 197/10/113 193/8/113
f 195/11/114 198/10/114 194/8/114
f 196/11/115 199/10/115 195/8/115
f 193/11/116 200/10/116 196/8/116
f 212/23/117 209/24/117 211/25/117
f 201/26/118 208/27/118 207/28/118
f 202/26/119 209/27/119 208/28/119
f 203/26/120 210/27/120 209/28/120
f 204/26/121 211/27/121 210/28/121
f 205/26/122 212/27/122 211/28/122
f 206/26/123 207/27/123 212/28/123
f 219/29/124 221/30/124 222/31/124
f 213/26/125 219/27/125 218/28/125
f 214/26/126 220/27/126 219/28/126
f 215/26/127 221/27/127 220/28/127
f 216/26/128 222/27/128 221/28/128
f 217/26/129 218/27/129 222/28/129
f 234/32/130 235/33/130 236/34/130
f 223/26/131 231/27/131 230/28/131
f 224/26/132 232/27/132 231/28/132
f 225/26/133 233/27/133 232/28/133
f 226/26/134 234/27/134 233/28/134
f 227/26/135 235/27/135 234/28/135
f 228/26/136 236/27/136 235/28/136
f 229/26/137 230/27/137 236/28/137
f 247/25/138 248/23/138 244/35/138
f 237/26/139 244/27/139 243/28/139
f 238/26/140 245/27/140 244/28/140
f 239/26/141 246/27/141 245/28/141
f 240/26/142 247/27/142 246/28/142
f 241/26/143 248/27/143 247/28/143
f 242/26/144 243/27/144 248/28/144
f 260/32/145 261/33/145 262/34/145
f 249/26/146 257/27/146 256/28/146
f 250/26/147 258/27/147 257/28/147
f 251/26/148 259/27/148 258/28/148
f 252/26/149 260/27/149 259/28/149
f 253/26/150 261/27/150 260/28/150
f 254/26/151 262/27/151 261/28/151
f 255/26/152 256/27/152 262/28/152
f 274/32/153 275/33/153 276/34/153
f 263/26/154 271/27/154 270/28/154
f 264/26/155 272/27/155 271/28/155
f 265/26/156 273/27/156 272/28/156
f 266/26/157 274/27/157 273/28/157
f 267/26/158 275/27/158 274/28/158
f 268/26/159 276/27/159 275/28/159
f 269/26/160 270/27/160 276/28/160
f 283/29/161 284/36/161 285/30/161
f 277/26/162 283/27/162 282/28/162
f 278/26/163 284/27/163 283/28/163
f 279/26/164 285/27/164 284/28/164
f 280/26/165 286/27/165 285/28/165
f 281/26/166 282/27/166 286/28/166
f 296/37/167 297/25/167 298/23/167
f 287/26/168 294/27/168 293/28/168
f 288/26/169 295/27/169 294/28/169
f 289/26/170 296/27/170 295/28/170
f 290/26/171 297/27/171 296/28/171
f 291/26/172 298/27/172 297/28/172
f 292/26/173 293/27/173 298/28/173
f 305/29/174 307/30/174 308/31/174
f 299/26/175 305/27/175 304/28/175
f 300/26/176 306/27/176 305/28/176
f 301/26/177 307/27/177 306/28/177
f 302/26/178 308/27/178 307/28/178
f 303/26/179 304/27/179 308/28/179
f 316/36/180 317/30/180 318/31/180
f 309/26/181 315/27/181 314/28/181
f 310/26/182 316/27/182 315/28/182
f 311/26/183 317/27/183 316/28/183
f 312/26/184 318/27/184 317/28/184
f 313/26/185 314/27/185 318/28/185
f 330/32/186 331/33/186 332/34/186
f 320/38/187 326/28/187 319/26/187
f 321/38/188 327/28/188 320/26/188
f 321/26/189 329/27/189 328/28/189
f 323/38/190 329/28/190 322/26/190
f 324/38/191 330/28/191 323/26/191
f 324/26/192 332/27/192 331/28/192
f 319/38/193 332/28/193 325/26/193
f 340/36/194 341/30/194 342/31/194
f 333/26/195 339/27/195 338/28/195
f 334/26/196 340/27/196 339/28/196
f 335/26/197 341/27/197 340/28/197
f 336/26/198 342/27/198 341/28/198
f 337/26/199 338/27/199 342/28/199
f 356/34/200 351/39/200 353/40/200
f 343/26/201 351/27/201 350/28/201
f 344/26/202 352/27/202 351/28/202
f 345/26/203 353/27/203 352/28/203
f 346/26/204 354/27/204 353/28/204
f 347/26/205 355/27/205 354/28/205
f 348/26/206 356/27/206 355/28/206
f 349/26/207 350/27/207 356/28/207
f 364/36/208 365/30/208 366/31/208
f 358/38/209 362/28/209 357/26/209
f 359/38/210 363/28/210 358/26/210
f 360/38/211 364/28/211 359/26/211
f 361/38/212 365/28/212 360/26/212
f 357/38/213 366/28/213 361/26/213
f 373/29/214 375/30/214 376/31/214
f 367/26/215 373/27/215 372/28/215
f 369/38/216 373/28/216 368/26/216
f 370/38/217 374/28/217 369/26/217
f 371/38/218 375/28/218 370/26/218
f 367/38/219 376/28/219 371/26/219
f 388/32/220 389/33/220 390/34/220
f 377/26/221 385/27/221 384/28/221
f 378/26/222 386/27/222 385/28/222
f 379/26/223 387/27/223 386/28/223
f 380/26/224 388/27/224 387/28/224
f 381/26/225 389/27/225 388/28/225
f 383/38/226 389/28/226 382/26/226
f 383/26/227 384/27/227 390/28/227
f 4/1/1 3/7/1 2/2/1
f 6/1/2 7/7/2 8/2/2
f 2/1/3 6/7/3 5/2/3
f 3/1/4 7/7/4 6/2/4
f 4/1/5 8/7/5 7/2/5
f 1/1/6 5/7/6 8/2/6
f 12/4/7 11/16/7 10/5/7
f 14/4/8 15/16/8 16/5/8
f 10/4/9 14/16/9 13/5/9
f 11/4/10 15/16/10 14/5/10
f 12/4/11 16/16/11 15/5/11
f 9/4/12 13/16/12 16/5/12
f 20/1/13 19/7/13 18/2/13
f 22/1/14 23/7/14 24/2/14
f 18/1/15 22/7/15 21/2/15
f 19/1/16 23/7/16 22/2/16
f 19/3/17 20/1/17 24/7/17
f 17/1/18 21/7/18 24/2/18
f 25/8/19 28/11/19 27/9/19
f 29/8/20 30/11/20 31/9/20
f 25/8/21 26/11/21 30/9/21
f 27/11/22 31/9/22 30/10/22
f 27/8/23 28/11/23 32/9/23
f 25/11/24 29/9/24 32/10/24
f 33/14/25 42/41/25 41/22/25
f 41/22/25 40/42/25 33/14/25
f 40/42/25 39/15/25 33/14/25
f 39/15/25 38/43/25 37/12/25
f 37/12/25 36/44/25 35/13/25
f 35/13/25 34/45/25 33/14/25
f 39/15/25 37/12/25 33/14/25
f 52/14/26 43/41/26 46/15/26
f 43/41/26 44/22/26 46/15/26
f 44/22/26 45/42/26 46/15/26
f 46/15/26 47/43/26 48/12/26
f 48/12/26 49/44/26 50/13/26
f 50/13/26 51/45/26 52/14/26
f 46/15/26 48/12/26 50/13/26
f 34/4/27 44/16/27 43/5/27
f 35/4/28 45/16/28 44/5/28
f 35/6/29 36/4/29 46/16/29
f 37/4/30 47/16/30 46/5/30
f 38/4/31 48/16/31 47/5/31
f 39/4/32 49/16/32 48/5/32
f 40/4/33 50/16/33 49/5/33
f 41/4/34 51/16/34 50/5/34
f 42/4/35 52/16/35 51/5/35
f 33/4/36 43/16/36 52/5/36
f 53/18/25 60/46/25 59/20/25
f 59/20/25 58/47/25 53/18/25
f 58/47/25 57/19/25 53/18/25
f 57/19/25 56/48/25 55/21/25
f 55/21/25 54/17/25 57/19/25
f 68/18/26 61/46/26 62/20/26
f 62/20/26 63/47/26 64/19/26
f 64/19/26 65/48/26 66/21/26
f 66/21/26 67/17/26 68/18/26
f 68/18/26 62/20/26 66/21/26
f 54/11/37 62/9/37 61/10/37
f 55/11/38 63/9/38 62/10/38
f 56/11/39 64/9/39 63/10/39
f 57/11/40 65/9/40 64/10/40
f 58/11/41 66/9/41 65/10/41
f 59/11/42 67/9/42 66/10/42
f 60/11/43 68/9/43 67/10/43
f 53/11/44 61/9/44 68/10/44
f 69/14/25 78/41/25 77/22/25
f 77/22/25 76/42/25 69/14/25
f 76/42/25 75/15/25 69/14/25
f 75/15/25 74/43/25 73/12/25
f 73/12/25 72/44/25 71/13/25
f 71/13/25 70/45/25 69/14/25
f 75/15/25 73/12/25 69/14/25
f 88/14/26 79/41/26 80/22/26
f 80/22/26 81/42/26 82/15/26
f 82/15/26 83/43/26 84/12/26
f 84/12/26 85/44/26 86/13/26
f 86/13/26 87/45/26 82/15/26
f 87/45/26 88/14/26 82/15/26
f 88/14/26 80/22/26 82/15/26
f 70/4/45 80/16/45 79/5/45
f 70/6/46 71/4/46 81/16/46
f 72/4/47 82/16/47 81/5/47
f 72/6/48 73/4/48 83/16/48
f 73/6/49 74/4/49 84/16/49
f 74/6/50 75/4/50 85/16/50
f 76/4/51 86/16/51 85/5/51
f 77/4/52 87/16/52 86/5/52
f 78/4/53 88/16/53 87/5/53
f 69/4/54 79/16/54 88/5/54
f 89/18/25 96/46/25 95/20/25
f 95/20/25 94/47/25 89/18/25
f 94/47/25 93/19/25 89/18/25
f 93/19/25 92/48/25 91/21/25
f 91/21/25 90/17/25 89/18/25
f 104/18/26 97/46/26 98/20/26
f 98/20/26 99/47/26 104/18/26
f 99/47/26 100/19/26 104/18/26
f 100/19/26 101/48/26 104/18/26
f 101/48/26 102/21/26 104/18/26
f 90/11/55 98/9/55 97/10/55
f 91/11/56 99/9/56 98/10/56
f 92/11/57 100/9/57 99/10/57
f 93/11/58 101/9/58 100/10/58
f 94/11/59 102/9/59 101/10/59
f 95/11/60 103/9/60 102/10/60
f 96/11/61 104/9/61 103/10/61
f 89/11/62 97/9/62 104/10/62
f 105/14/25 114/41/25 111/15/25
f 114/41/25 113/22/25 111/15/25
f 113/22/25 112/42/25 111/15/25
f 111/15/25 110/43/25 109/12/25
f 109/12/25 108/44/25 107/13/25
f 107/13/25 106/45/25 105/14/25
f 111/15/25 109/12/25 107/13/25
f 124/14/26 115/41/26 116/22/26
f 116/22/26 117/42/26 118/15/26
f 118/15/26 119/43/26 120/12/26
f 120/12/26 121/44/26 122/13/26
f 122/13/26 123/45/26 124/14/26
f 124/14/26 116/22/26 122/13/26
f 116/22/26 118/15/26 122/13/26
f 105/6/63 106/4/63 116/16/63
f 106/6/64 107/4/64 117/16/64
f 108/4/65 118/16/65 117/5/65
f 109/4/66 119/16/66 118/5/66
f 110/4/67 120/16/67 119/5/67
f 111/4/68 121/16/68 120/5/68
f 112/4/69 122/16/69 121/5/69
f 112/6/70 113/4/70 123/16/70
f 113/6/71 114/4/71 124/16/71
f 105/4/228 115/16/228 124/5/228
f 125/18/25 132/46/25 131/20/25
f 131/20/25 130/47/25 125/18/25
f 130/47/25 129/19/25 125/18/25
f 129/19/25 128/48/25 125/18/25
f 128/48/25 127/21/25 125/18/25
f 140/18/26 133/46/26 134/20/26
f 134/20/26 135/47/26 136/19/26
f 136/19/26 137/48/26 138/21/26
f 138/21/26 139/17/26 140/18/26
f 140/18/26 134/20/26 138/21/26
f 126/11/73 134/9/73 133/10/73
f 127/11/74 135/9/74 134/10/74
f 128/11/75 136/9/75 135/10/75
f 129/11/76 137/9/76 136/10/76
f 130/11/77 138/9/77 137/10/77
f 131/11/78 139/9/78 138/10/78
f 132/11/79 140/9/79 139/10/79
f 125/11/80 133/9/80 140/10/80
f 141/14/25 150/41/25 149/22/25
f 149/22/25 148/42/25 141/14/25
f 148/42/25 147/15/25 141/14/25
f 147/15/25 146/43/25 145/12/25
f 145/12/25 144/44/25 143/13/25
f 143/13/25 142/45/25 141/14/25
f 147/15/25 145/12/25 143/13/25
f 160/14/26 151/41/26 152/22/26
f 152/22/26 153/42/26 154/15/26
f 154/15/26 155/43/26 158/13/26
f 155/43/26 156/12/26 158/13/26
f 156/12/26 157/44/26 158/13/26
f 158/13/26 159/45/26 160/14/26
f 160/14/26 152/22/26 158/13/26
f 142/4/81 152/16/81 151/5/81
f 142/6/82 143/4/82 153/16/82
f 144/4/83 154/16/83 153/5/83
f 145/4/84 155/16/84 154/5/84
f 146/4/85 156/16/85 155/5/85
f 147/4/86 157/16/86 156/5/86
f 148/4/87 158/16/87 157/5/87
f 149/4/88 159/16/88 158/5/88
f 149/6/89 150/4/89 160/16/89
f 150/6/90 141/4/90 151/16/90
f 161/18/25 168/46/25 167/20/25
f 167/20/25 166/47/25 165/19/25
f 165/19/25 164/48/25 163/21/25
f 163/21/25 162/17/25 161/18/25
f 161/18/25 167/20/25 163/21/25
f 176/18/26 169/46/26 170/20/26
f 170/20/26 171/47/26 176/18/26
f 171/47/26 172/19/26 176/18/26
f 172/19/26 173/48/26 174/21/26
f 174/21/26 175/17/26 172/19/26
f 162/11/91 170/9/91 169/10/91
f 163/11/92 171/9/92 170/10/92
f 164/11/93 172/9/93 171/10/93
f 165/11/94 173/9/94 172/10/94
f 166/11/95 174/9/95 173/10/95
f 167/11/96 175/9/96 174/10/96
f 168/11/97 176/9/97 175/10/97
f 161/11/98 169/9/98 176/10/98
f 180/1/99 179/7/99 178/2/99
f 182/1/100 183/7/100 184/2/100
f 178/1/101 182/7/101 181/2/101
f 178/3/102 179/1/102 183/7/102
f 180/1/103 184/7/103 183/2/103
f 180/3/104 177/1/104 181/7/104
f 188/11/105 187/9/105 186/10/105
f 190/11/106 191/9/106 192/10/106
f 186/11/107 190/9/107 189/10/107
f 187/11/108 191/9/108 190/10/108
f 188/11/109 192/9/109 191/10/109
f 185/11/110 189/9/110 192/10/110
f 196/11/111 195/9/111 194/10/111
f 198/11/112 199/9/112 200/10/112
f 194/11/113 198/9/113 197/10/113
f 195/11/114 199/9/114 198/10/114
f 196/11/115 200/9/115 199/10/115
f 193/11/116 197/9/116 200/10/116
f 212/23/229 207/49/229 208/35/229
f 208/35/230 209/24/230 212/23/230
f 209/24/231 210/37/231 211/25/231
f 201/26/232 202/38/232 208/27/232
f 202/26/233 203/38/233 209/27/233
f 203/26/234 204/38/234 210/27/234
f 204/26/235 205/38/235 211/27/235
f 205/26/236 206/38/236 212/27/236
f 206/26/237 201/38/237 207/27/237
f 222/31/238 218/49/238 219/29/238
f 219/29/239 220/36/239 221/30/239
f 213/26/240 214/38/240 219/27/240
f 214/26/241 215/38/241 220/27/241
f 215/26/242 216/38/242 221/27/242
f 216/26/243 217/38/243 222/27/243
f 217/26/244 213/38/244 218/27/244
f 236/34/245 230/49/245 232/50/245
f 230/49/246 231/39/246 232/50/246
f 232/50/247 233/40/247 234/32/247
f 236/34/248 232/50/248 234/32/248
f 223/26/249 224/38/249 231/27/249
f 224/26/250 225/38/250 232/27/250
f 225/26/251 226/38/251 233/27/251
f 226/26/252 227/38/252 234/27/252
f 227/26/253 228/38/253 235/27/253
f 228/26/254 229/38/254 236/27/254
f 229/26/255 223/38/255 230/27/255
f 248/23/256 243/49/256 244/35/256
f 244/35/257 245/24/257 247/25/257
f 245/24/258 246/37/258 247/25/258
f 237/26/259 238/38/259 244/27/259
f 238/26/260 239/38/260 245/27/260
f 239/26/261 240/38/261 246/27/261
f 240/26/262 241/38/262 247/27/262
f 241/26/263 242/38/263 248/27/263
f 242/26/264 237/38/264 243/27/264
f 262/34/265 256/49/265 260/32/265
f 256/49/266 257/39/266 258/50/266
f 259/40/267 256/49/267 258/50/267
f 259/40/268 260/32/268 256/49/268
f 249/26/269 250/38/269 257/27/269
f 250/26/270 251/38/270 258/27/270
f 251/26/271 252/38/271 259/27/271
f 252/26/272 253/38/272 260/27/272
f 253/26/273 254/38/273 261/27/273
f 254/26/274 255/38/274 262/27/274
f 255/26/275 249/38/275 256/27/275
f 276/34/276 270/49/276 273/40/276
f 270/49/277 271/39/277 272/50/277
f 273/40/278 270/49/278 272/50/278
f 273/40/279 274/32/279 276/34/279
f 263/26/280 264/38/280 271/27/280
f 264/26/281 265/38/281 272/27/281
f 265/26/282 266/38/282 273/27/282
f 266/26/283 267/38/283 274/27/283
f 267/26/284 268/38/284 275/27/284
f 268/26/285 269/38/285 276/27/285
f 269/26/286 263/38/286 270/27/286
f 286/31/287 282/49/287 285/30/287
f 282/49/288 283/29/288 285/30/288
f 277/26/289 278/38/289 283/27/289
f 278/26/290 279/38/290 284/27/290
f 279/26/291 280/38/291 285/27/291
f 280/26/292 281/38/292 286/27/292
f 281/26/293 277/38/293 282/27/293
f 298/23/294 293/49/294 295/24/294
f 293/49/295 294/35/295 295/24/295
f 295/24/296 296/37/296 298/23/296
f 287/26/297 288/38/297 294/27/297
f 288/26/298 289/38/298 295/27/298
f 289/26/299 290/38/299 296/27/299
f 290/26/300 291/38/300 297/27/300
f 291/26/301 292/38/301 298/27/301
f 292/26/302 287/38/302 293/27/302
f 308/31/303 304/49/303 305/29/303
f 305/29/304 306/36/304 307/30/304
f 299/26/305 300/38/305 305/27/305
f 300/26/306 301/38/306 306/27/306
f 301/26/307 302/38/307 307/27/307
f 302/26/308 303/38/308 308/27/308
f 303/26/309 299/38/309 304/27/309
f 318/31/310 314/49/310 315/29/310
f 315/29/311 316/36/311 318/31/311
f 309/26/312 310/38/312 315/27/312
f 310/26/313 311/38/313 316/27/313
f 311/26/314 312/38/314 317/27/314
f 312/26/315 313/38/315 318/27/315
f 313/26/316 309/38/316 314/27/316
f 332/34/317 326/49/317 330/32/317
f 326/49/318 327/39/318 329/40/318
f 330/32/319 326/49/319 329/40/319
f 327/39/320 328/50/320 329/40/320
f 320/38/321 327/27/321 326/28/321
f 321/38/322 328/27/322 327/28/322
f 321/26/323 322/38/323 329/27/323
f 323/38/324 330/27/324 329/28/324
f 324/38/325 331/27/325 330/28/325
f 324/26/326 325/38/326 332/27/326
f 319/38/327 326/27/327 332/28/327
f 342/31/328 338/49/328 340/36/328
f 338/49/329 339/29/329 340/36/329
f 333/26/330 334/38/330 339/27/330
f 334/26/331 335/38/331 340/27/331
f 335/26/332 336/38/332 341/27/332
f 336/26/333 337/38/333 342/27/333
f 337/26/334 333/38/334 338/27/334
f 356/34/335 350/49/335 351/39/335
f 351/39/336 352/50/336 353/40/336
f 353/40/337 354/32/337 355/33/337
f 355/33/338 356/34/338 353/40/338
f 343/26/339 344/38/339 351/27/339
f 344/26/340 345/38/340 352/27/340
f 345/26/341 346/38/341 353/27/341
f 346/26/342 347/38/342 354/27/342
f 347/26/343 348/38/343 355/27/343
f 348/26/344 349/38/344 356/27/344
f 349/26/345 343/38/345 350/27/345
f 366/31/346 362/49/346 364/36/346
f 362/49/347 363/29/347 364/36/347
f 358/38/348 363/27/348 362/28/348
f 359/38/349 364/27/349 363/28/349
f 360/38/350 365/27/350 364/28/350
f 361/38/351 366/27/351 365/28/351
f 357/38/352 362/27/352 366/28/352
f 376/31/353 372/49/353 373/29/353
f 373/29/354 374/36/354 375/30/354
f 367/26/355 368/38/355 373/27/355
f 369/38/356 374/27/356 373/28/356
f 370/38/357 375/27/357 374/28/357
f 371/38/358 376/27/358 375/28/358
f 367/38/359 372/27/359 376/28/359
f 390/34/360 384/49/360 388/32/360
f 384/49/361 385/39/361 388/32/361
f 385/39/362 386/50/362 388/32/362
f 386/50/363 387/40/363 388/32/363
f 377/26/364 378/38/364 385/27/364
f 378/26/365 379/38/365 386/27/365
f 379/26/366 380/38/366 387/27/366
f 380/26/367 381/38/367 388/27/367
f 381/26/368 382/38/368 389/27/368
f 383/38/369 390/27/369 389/28/369
f 383/26/370 377/38/370 384/27/370
